<?xml version="1.0" encoding="UTF-8"?><svg id="Layer_1" xmlns="http://www.w3.org/2000/svg" viewBox="0 0 150 150"><defs><style>.cls-1{fill:#f7b81c;}</style></defs><path class="cls-1" d="M121.95,77.59c-1.12,3.83-2.49,7.55-4.45,11.05-2.41,4.3-5.43,8.11-9.09,11.41-1.82,1.64-3.74,3.15-5.79,4.49-2.82,1.84-5.84,3.26-9.06,4.23-.11,.03-.22,.06-.33,.1-.51,.18-.53,.2-.46,.72,.27,1.94,.03,3.81-.56,5.68-.8,2.55-1.83,5.01-3,7.4-.5,1.03-1.19,1.93-1.92,2.78-1.45,1.69-3.1,3.18-4.98,4.38-1.53,.99-3.19,1.69-4.96,2.15-.94,.25-1.83,.05-2.69-.32,0,0,0,0,0,0-.02-.01-.05-.02-.07-.03-.15-.07-.3-.2-.42-.33-.4-.46-.35-.69,.22-.93,.27-.12,.52-.27,.75-.46h0c.1-.08,.2-.18,.29-.29,.49-.57,.99-1.12,1.44-1.72,.71-.94,1.14-1.93,1.32-2.98,.07-.42,.1-.85,.09-1.3,0-.44-.06-.9-.15-1.36-.32-1.66-.51-3.35-.84-5.01-.25-1.27-.17-2.52,.02-3.77,.06-.45,.25-.86,.41-1.35-1.69-.59-3.1-1.51-4.46-2.54-.72-.54-1.4-1.16-1.97-1.85-.85-1.03-1.7-2.06-2.39-3.21-.85-1.4-2.02-2.49-3.33-3.43-.33-.24-.69-.4-1.07-.55,0,0-.01,0-.02,0,0,0-.01,0-.01,0s0,0-.01,0c0,0-.01,0-.02-.01-.02-.01-.04-.02-.07-.03-.17-.07-.35-.13-.51-.21-.57-.24-.71-.81-.2-1.14,.81-.52,1.61-1.06,2.6-1.29,1.16-.26,2.33-.29,3.5-.3,1.6-.02,3.21-.04,4.8,.19,1.82,.27,3.59,.7,5.37,1.12,1.74,.42,3.39,1.04,4.93,1.88,1.44,.79,2.95,1.47,4.3,2.44,.86,.62,.86,.58,1.72-.05,1.04-.77,1.97-1.67,2.83-2.63,1.39-1.55,2.71-3.16,3.82-4.93,.4-.65,.68-1.38,.99-2.08,.94-2.11,1.8-4.25,2.2-6.54,.19-1.07,.24-2.15,.21-3.24-.01-.37-.14-.5-.48-.59-1.37-.36-2.63-.95-3.87-1.61-.63-.33-1.17-.77-1.69-1.25-1.27-1.19-2.59-2.32-3.85-3.53-1.87-1.79-3.53-3.76-5.1-5.8-.11-.14-.22-.29-.33-.43-.74-.9-1.59-1.1-2.69-.65-.74,.31-1.51,.46-2.31,.28-.26-.06-.48-.02-.73,.06-.98,.3-1.87,.8-2.81,1.19-.88,.36-1.79,.62-2.74,.75-1.13,.15-2.21-.02-3.27-.41-.47-.17-.93-.37-1.39-.54-.98-.37-2.02-.47-3.05-.61-.95-.13-1.83-.05-2.7,.34-.5,.22-2.8,.46-3.4,.57-2.13,.4-4.27,.39-6.42,.1-2.13-.29-4.26-.57-6.4-.82-2.58-.3-5.14-.21-7.68,.41-1.41,.35-2.84,.58-4.3,.49-2.21-.13-4.27-.81-6.15-1.93-1.07-.64-1.8-1.64-2.13-2.88-.07-.27-.19-.51-.29-.76-.68-1.52-.48-2.95,.42-4.32,.65-1,1.51-1.79,2.42-2.55,.69-.58,1.44-1.1,2.19-1.6,1.42-.95,2.68-2.07,3.67-3.48,.86-1.22,1.29-2.63,1.76-4.02,.47-1.38,.66-2.82,1-4.22,1.32-5.33,3.84-9.94,8.08-13.51,1.99-1.68,4.29-2.85,6.72-3.76,.85-.32,1.72-.61,2.58-.87,0-.02,0-.04,.01-.06-.09-.03-.14-.09-.08-.19,.51-.83,1.4-1.21,2.29-1.6,2.56-1.13,5.23-1.78,8.05-1.62,1.95,.11,3.7,.77,5.26,1.87,0,0,.01,0,.02,0,2.05-.53,4.15-.66,6.25-.73,.48-.02,.77-.15,1.04-.58,.59-.92,1.44-1.62,2.23-2.35,2.11-1.92,4.64-3.04,7.36-3.77,2.6-.7,5.25-.94,7.93-.8,1.33,.06,2.64,.29,3.85,.97,.96,.54,1.12,1.11,.54,2.03-.82,1.3-1.65,2.6-2.38,3.95-.84,1.55-.94,3.18-.63,4.87,.06,.34,.26,.49,.54,.62,1.2,.52,2.39,1.08,3.52,1.75,1.11,.66,4.92,3.05,5.23,4.98-.02,.33,.11,.54,.36,.74,.99,.76,3.07,2.43,3.14,2.49,1.2,1.35,2.66,2.45,3.72,3.93,.18,.26,.37,.52,.59,.75,1.39,1.51,2.43,3.25,3.52,4.98,1.88,2.97,3.17,6.19,3.91,9.62,.55,2.56,.97,5.15,1.05,7.78,.11,3.47-.36,6.86-1.33,10.18Z"/></svg>