<?xml version="1.0" encoding="UTF-8"?><svg id="Layer_1" xmlns="http://www.w3.org/2000/svg" viewBox="0 0 500 300"><defs><style>.cls-1{fill:#ff9d5b;}.cls-2{fill:#002026;}</style></defs><rect class="cls-2" x=".5" y=".5" width="499.47" height="299.5"/><g><path class="cls-1" d="M373.74,220.88l-17.64-5.02,.96-82.55c1.47-1.41,2.79-2.89,3.71-4.35,2.35-3.77,2.24-10.07,1.78-14.43-.27-2.64-2.58-4.58-5.22-4.46l.33-28.67-3.9-.05-.34,29.51c-4.46,1.56-8,5.2-9.3,9.91l-2.14,7.69c-.09,.34-.14,.68-.16,1.03-7.54,3.67-23.06,11.27-29.75,14.83-2.51-6.25-6.82-13.63-10.54-19.45l-10.69-14.19c-.19-7.25-5.32-13.26-12.16-14.77-1.76-.95-3.77-1.52-5.92-1.57-.22,0-.46,0-.68-.01l-1.66-24.69c0-10.56-8.56-19.12-19.12-19.12s-19.12,8.56-19.12,19.12l-1.59,23.92c-1.35-.02-2.68-.04-3.93-.06-2.84-.04-5.46,.83-7.61,2.31-7.21,1.36-12.66,7.68-12.66,15.28,0,.16,.02,.31,.02,.46l-8.03,10.65c-4.5,7.05-9.88,16.4-11.87,23.24-2.14,1.16-5.06,3.27-7.36,6.84-4.12,6.41-19.9,34.83-19.9,34.83l-3.56,21.34,1.21,10.12c.31,2.64,2.72,4.52,5.36,4.19l3.47-.44c2.39-.3,4.19-2.34,4.19-4.75v-8.75s7.11,4.97,7.11,4.97c0,0,2.22-.34,1.78-1.78-1.32-4.3-6.06-13.74-8.17-17.45l.15-3.05s1.18-1.31,2.97-3.34c-1.07,5.43,.79,13.93,11.27,17.61,6.62,2.33,19.04,2.08,32.01,5.33-4.72,2.83-9.08,8.98-10.95,12.18-2.59,4.44-1.3,7.77,1.3,9.99,2.59,2.22,12.13-10.17,21.21-12.39,3.09-.76,.71-1.89,11.56-4.45,10.85,2.55,27.6,7.2,30.69,7.95,9.08,2.22,15.57,11.1,18.16,8.88,2.59-2.22,3.89-5.55,1.3-9.99-1.87-3.19-7.09-8.69-11.81-11.52,12.97-3.26,23.5-1.88,30.11-4.21,17.94-6.32,15.85-23.08,6.45-29.79-3.35-2.39-7.42-2.72-11.8-1.61l-27.1,2.57,6.02-45.19,19.98,22.79c6.35,10.92,17.46,4.33,24.47,.08,7.25-4.4,23.16-17.22,23.16-17.22l-.12-.36c.56-.16,1.11-.42,1.62-.79,.58-.42,1.18-.88,1.78-1.35l-.96,82.08h.76c.13,.49,.4,.93,.82,1.26l15.17,12.06c1.28,1.02,3.18,.5,3.76-1.03l2.66-6.99c.5-1.32-.23-2.8-1.6-3.18Zm-184.43-51.55c2.57-3.75,5.93-8.73,6.61-13.6l20.31-23.18,5.4,47.79-25.71-3.32c-3.46-1.29-6.78-1.81-9.79-1.27h0s0,0,0,0c-.79,.14-1.56,.36-2.3,.66,2.18-2.65,4.15-5.18,5.46-7.09Z"/><path class="cls-2" d="M264.26,102.82l-.91-31.27c-.48-5.6-4.35-9.19-12.53-11.56-6.47,1.2-10.53,5.02-12.41,11.69l-1.89,29.27-8.47-7.41,1.17-1.34,5.76,5.04,1.69-25.94c2.06-7.41,6.78-11.81,14.04-13.09l.2-.03,.2,.06c5.67,1.62,13.29,4.75,14.02,13.23l.8,27.46,8.35-7.59,1.2,1.32-11.21,10.19Z"/><path class="cls-2" d="M250.86,99.08c-9.33,0-14.79-10.71-15.02-11.16l1.59-.8c.05,.1,5.2,10.18,13.43,10.18s13.4-9.22,13.45-9.32l1.56,.85c-.23,.42-5.69,10.24-15.01,10.24Z"/><path class="cls-2" d="M193.95,164.58l-1.52-.92c3.67-6.09,2.18-10.62,.74-13.5-1.97-3.94,0-7.48,.08-7.63l1.55,.88-.77-.44,.78,.44c-.07,.12-1.57,2.9-.04,5.96,1.63,3.25,3.31,8.37-.81,15.21Z"/><path class="cls-2" d="M174.69,189.08l-1.78-.06c.31-9.21,10.89-13.25,11.35-13.42l.62,1.67c-.1,.04-9.92,3.8-10.19,11.81Z"/><path class="cls-2" d="M240.09,140.86c-15.54-1.83-19.29-15.81-19.33-15.95-.34-1.46-.98-2.36-1.98-2.77-2.33-.97-6.17,.9-7.46,1.7l-.94-1.51c.22-.14,5.43-3.34,9.08-1.83,1.55,.64,2.56,1.99,3.03,3.99,.13,.51,3.5,12.92,17.81,14.6l-.21,1.77Z"/><path class="cls-2" d="M256.47,142.65c-.2,0-.31,0-.32,0l.1-1.78c.63,.04,15.38,.61,20.44-16.26,1.4-4.65,3.12-7,5.26-7.17,2.93-.25,5.05,3.9,5.28,4.37l-1.6,.78c-.45-.91-2.05-3.51-3.54-3.38-.74,.06-2.2,.91-3.7,5.91-5.05,16.83-19.58,17.53-21.92,17.53Z"/><path class="cls-2" d="M261.64,181.36l-1.76-.25c.02-.14,1.89-13.94-3.58-20.04-1.77-1.98-4.19-2.93-7.16-2.84-3.09,.1-5.62,1.25-7.5,3.42-5.5,6.35-4.12,19.36-4.11,19.49l-1.77,.2c-.06-.56-1.48-13.91,4.53-20.85,2.23-2.57,5.18-3.93,8.79-4.04,3.53-.1,6.4,1.05,8.54,3.44,6.02,6.72,4.1,20.87,4.02,21.47Z"/><path class="cls-2" d="M255.38,86.63h-8.15l.89-11.38h-2.3l-2.61,3.91-3.8-5.69h10.63l-.89,11.38h4.3l-.89-11.38h11.51l-3.66,5.48-3.71-3.71h-2.23l.89,11.38Zm3.85-11.38l.92,.92,.61-.92h-1.53Zm-16.49,0l.47,.71,.47-.71h-.94Z"/><path class="cls-2" d="M235.75,99.97v-1.78c-.23,0-.38,.1-.42,.14,.52-.53,1.81-4.33,2.71-7.54l1.71,.48c-2.44,8.7-3.38,8.7-4,8.7Z"/><rect class="cls-2" x="263.81" y="90.82" width="1.78" height="9.49" transform="translate(-16.38 81.64) rotate(-17.01)"/><rect class="cls-2" x="245.53" y="88.41" width="11.9" height="1.78"/><rect class="cls-2" x="249.43" y="91.97" width="4.11" height="1.78"/><path class="cls-2" d="M302.77,147.79c-4.48-3.58-13.12-14.79-13.49-15.27l1.41-1.08c.09,.11,8.88,11.51,13.19,14.96l-1.11,1.39Z"/><rect class="cls-2" x="306.33" y="141.76" width="13.54" height="1.78" transform="translate(-30.87 134.78) rotate(-23.18)"/><path class="cls-2" d="M353.55,132c-.87,0-2.56-.19-4.03-1.47-1.74-1.51-2.63-4.02-2.63-7.44,0-4.97,1.28-8.72,3.79-11.15,2.96-2.86,6.54-2.76,6.69-2.76l-.06,1.78,.03-.89-.03,.89s-3.01-.06-5.42,2.28c-2.14,2.08-3.23,5.39-3.23,9.85,0,2.89,.68,4.94,2.01,6.1,1.42,1.23,3.18,1.02,3.2,1.02l.25,1.76s-.24,.03-.58,.03Z"/><path class="cls-2" d="M217.35,211.82l-1.6-.78c.13-.28,3.33-6.77,7.01-9.54,2.26-1.69,4.77-.5,6.98,.55,1.99,.94,3.87,1.83,5.67,1.11,.94-.37,2.25-.93,3.82-1.59,5.68-2.4,15.11-6.38,21.74-8.14,.79-1.11,3.86-4.82,10.94-7.18,8.05-2.68,16.81-2.71,17.17-2.71v1.78c-.09,0-8.85,.03-16.61,2.62-7.54,2.52-10.17,6.69-10.19,6.73l-.19,.31-.35,.09c-6.52,1.68-16.1,5.72-21.82,8.14-1.59,.67-2.91,1.23-3.86,1.61-2.52,1.01-4.95-.14-7.09-1.16-2.33-1.1-3.82-1.73-5.16-.73-3.34,2.51-6.45,8.83-6.48,8.89Z"/><rect class="cls-2" x="239.98" y="213.57" width="39.48" height="1.78" transform="translate(-28.44 40.08) rotate(-8.37)"/><path class="cls-2" d="M247.91,199.27c-.11-.04-10.87-4.3-21-9.43-9.91-5.01-25.7-5.4-25.86-5.41h-.26s-3.64-2.46-3.64-2.46l1-1.47,3.21,2.16c2.2,.07,16.68,.7,26.36,5.59,10.06,5.09,20.75,9.32,20.85,9.36l-.65,1.65Z"/></g></svg>