<?xml version="1.0" encoding="UTF-8"?><svg id="Layer_1" xmlns="http://www.w3.org/2000/svg" xmlns:xlink="http://www.w3.org/1999/xlink" viewBox="0 0 500 300"><defs><style>.cls-1{fill:#fff;}.cls-2{fill:#eb008b;}.cls-3{fill:#00adee;}.cls-4{clip-path:url(#clippath);}.cls-5{fill:none;}.cls-6{fill:#fff100;}.cls-7{fill:#f7b81c;}</style><clipPath id="clippath"><rect class="cls-5" x="-530" y="-989.84" width="500" height="300"/></clipPath></defs><rect class="cls-1" width="500" height="300"/><g class="cls-4"><g><rect class="cls-3" x="7.06" y="-541.02" width="13" height="784.34" transform="translate(128.41 -244.52) rotate(-135)"/><rect class="cls-2" x="-29.73" y="-533.32" width=".64" height="964.65" transform="translate(27.45 -35.73) rotate(-45)"/><rect class="cls-3" x="-27.51" y="-535.5" width=".64" height="964.65" transform="translate(29.64 -34.8) rotate(-45)"/><rect class="cls-6" x="-163.72" y="-1027.78" width="23.99" height="1485.59" transform="translate(157.08 -190.75) rotate(-45)"/><rect class="cls-3" x="-200.32" y="-882.02" width="23.99" height="1485.59" transform="translate(-153.61 92.39) rotate(45)"/></g></g><path class="cls-7" d="M277.05,113.91c-2.8-.82-5.43-1.97-7.73-3.45h-.16c-2.96-1.64-5.59-3.78-7.89-6.08-2.47-2.47-4.44-5.1-6.08-8.06-1.48-2.47-2.63-5.1-3.45-7.73l-.99-3.95c-.16-.49-.16-.82-.33-1.31v-.16c0-.33,0-.82-.16-1.15v-.16c0-.33,0-.66-.16-1.15v-3.45c3.94,0,7.73,.49,11.18,1.64,2.8,.82,5.43,1.97,7.89,3.45,5.92,3.45,10.69,8.22,14.14,13.97v.16c1.48,2.47,2.46,5.1,3.29,7.73,1.15,3.62,1.81,7.4,1.81,11.34-3.95,0-7.73-.5-11.34-1.64m-27.13,59.35h.17v.16h-.17v-.16Zm0-19.57h0Zm0-.16h.17v.16h-.17v-.16Zm-.16,69.05v0Zm0-19.73v0Zm38.64-87.3c-3.95,0-7.73,.66-11.34,1.64-2.8,.99-5.43,2.14-7.89,3.45-5.76,3.45-10.69,8.22-13.97,14.14-1.48,2.47-2.63,5.1-3.45,7.89-.17,.33-.17,.66-.33,.99,0,.17-.16,.33-.16,.66-.16,.33-.16,.66-.33,.99,0,.49-.17,.82-.17,1.32-.16,.33-.16,.82-.33,1.32,0,.33,0,.66-.16,.99v.33c0,.33,0,.82-.16,1.15v2.96l-.17,.17v-.17c0-3.62-.49-7.23-1.64-10.69-.16-.66-.33-1.48-.66-2.14-.17-.66-.49-1.32-.82-1.81-.17-.33-.17-.66-.33-.99-.49-.99-.99-1.97-1.48-2.79,0-.17-.17-.17-.17-.17-3.29-5.92-8.22-10.69-13.97-14.14-2.47-1.32-5.1-2.47-7.89-3.45-3.45-.99-7.23-1.64-11.18-1.64h-.16v58.86s.16,.17,.16,.33v.66c0,.16,0,.49,.16,.82,0,.33,0,.66,.16,.99,0,.16,0,.33,.17,.49,0,.17,0,.49,.16,.66,0,.16,0,.33,.16,.66,0,.17,.16,.5,.16,.66,.16,.49,.33,.82,.49,1.31,1.97,4.27,5.43,7.73,9.7,9.7,2.47,.99,5.1,1.64,7.89,1.64s5.43-.66,7.89-1.81c4.27-1.81,7.56-5.26,9.53-9.54,.99-2.3,1.64-4.93,1.64-7.56h.17v.99l.16,1.32v.66l.82,3.29c.16,.16,.16,.33,.33,.66l.33,.66c1.81,4.27,5.42,7.73,9.7,9.7,2.3,.99,4.93,1.64,7.73,1.64s5.42-.66,7.89-1.81c3.94-1.64,7.23-4.77,9.21-8.71,.16-.33,.33-.49,.49-.82,.99-2.3,1.64-4.93,1.64-7.56v-57.87Zm-38.47-34.69c-.16,2.8-.66,5.43-1.48,7.89-.82,2.63-1.97,5.26-3.45,7.56h-.17c0,.16,.17,.16,.17,.16-3.45,5.92-8.22,10.69-14.14,13.97-2.47,1.48-5.1,2.63-7.89,3.45-3.45,1.15-7.23,1.64-11.18,1.64h-.16v-.5c0-3.78,.66-7.4,1.64-10.85,.99-2.63,2.14-5.43,3.45-7.89,3.45-5.75,8.22-10.69,14.14-13.97,2.47-1.48,5.1-2.63,7.89-3.45,3.62-1.15,7.4-1.64,11.18-1.64v3.62Z"/></svg>