<?xml version="1.0" encoding="UTF-8"?><svg id="Layer_1" xmlns="http://www.w3.org/2000/svg" viewBox="0 0 150 150"><defs><style>.cls-1{fill:#f7b81c;}</style></defs><path class="cls-1" d="M40.41,120.25l-5.21,5.21c-2.94,2.94-7.7,2.94-10.64,0h0c-2.94-2.94-2.94-7.7,0-10.64l5.21-5.21c2.91,4.76,5.88,7.73,10.64,10.64Z"/><path class="cls-1" d="M65.23,94.1l-.51,.47c-1.19,1.75-3.07,2.81-5.16,2.91-.12,0-.23,0-.35,0-3.67,0-6.67-2.99-6.67-6.66,0-.12,0-.23,.01-.36,.1-1.88,1.01-3.65,2.5-4.85l.38-.34,2.98-2.99,1.92-1.93,.34-.34c2.49,3.67,5.65,6.84,9.32,9.32l-4.75,4.75Z"/><path class="cls-1" d="M125.7,24.27c2.58,2.58,2.59,6.76,0,9.35l-30.37,30.37-.38,.42c-1.19,1.55-2.99,2.49-4.92,2.59-.12,0-.23,.01-.35,.01-3.67,0-6.67-3-6.67-6.67,0-.12,0-.24,.01-.36,.1-1.88,1.01-3.65,2.5-4.84l.19-.16,30.65-30.7c2.58-2.58,6.76-2.59,9.34,0h0Z"/><path class="cls-1" d="M89.34,95.41c-2.21,14.66-14.86,25.89-30.14,25.89-3.68,0-7.21-.65-10.47-1.85-1.51-.55-2.95-1.21-4.34-1.99-.04-.02-.07-.04-.11-.07-4.88-2.74-8.92-6.78-11.66-11.66-.03-.04-.05-.07-.07-.11-.77-1.38-1.43-2.83-1.99-4.34-1.2-3.27-1.85-6.79-1.85-10.47,0-15.28,11.24-27.93,25.89-30.14,.04,4.71,1.04,9.36,2.91,13.66,.23,.53,.47,1.06,.74,1.58l-.51,.52-.51,.51-5.07,5.09c-2.43,1.95-4.04,4.88-4.21,8.2,0,.06,0,.12,0,.18-.01,.14-.01,.28-.01,.41,0,6.22,5.04,11.26,11.26,11.26,.14,0,.28,0,.41-.01,.06,0,.12,0,.18,0,3.62-.18,6.79-2.09,8.72-4.91l-.03,.19,5.59-5.6c.53,.27,1.07,.52,1.61,.76,4.29,1.87,8.95,2.87,13.66,2.91Z"/><path class="cls-1" d="M120.16,60.34c0,15.28-11.24,27.93-25.89,30.14-1.5,.22-3.03,.34-4.59,.34-3.68,0-7.21-.65-10.48-1.85-.57-.21-1.13-.43-1.68-.68-.91-.39-1.79-.83-2.65-1.31-.04-.02-.07-.04-.11-.07-.5-.28-1-.57-1.47-.88-3.75-2.39-6.94-5.58-9.32-9.33-.31-.47-.59-.95-.86-1.44-.03-.04-.05-.07-.07-.11-.48-.87-.93-1.77-1.33-2.69-.23-.54-.45-1.09-.66-1.65-1.2-3.27-1.85-6.79-1.85-10.47,0-1.56,.12-3.09,.34-4.59,2.21-14.66,14.86-25.89,30.14-25.89,3.68,0,7.21,.65,10.48,1.85,.55,.2,1.09,.42,1.63,.65l-19.15,19.2c-2.42,1.94-4.03,4.87-4.21,8.19,0,.06,0,.12,0,.18-.01,.14-.01,.27-.01,.41,0,.2,0,.39,.02,.59,.02,.39,.06,.78,.12,1.15,.75,4.8,4.53,8.6,9.32,9.37,.4,.07,.8,.11,1.21,.13,.19,.01,.4,.02,.6,.02,.14,0,.28,0,.41-.01,.06,0,.12,0,.18,0,3.39-.18,6.37-1.85,8.31-4.37v.02l19.05-19.05c.24,.55,.46,1.11,.67,1.68,1.2,3.26,1.85,6.79,1.85,10.47Z"/></svg>