<?xml version="1.0" encoding="UTF-8"?><svg id="Layer_1" xmlns="http://www.w3.org/2000/svg" viewBox="0 0 150 150"><defs><style>.cls-1{fill:#f7b81c;}</style></defs><path class="cls-1" d="M101.06,52.24c-2.69-.79-5.23-1.9-7.45-3.33h-.16c-2.85-1.58-5.39-3.64-7.6-5.86-2.38-2.38-4.28-4.91-5.86-7.76-1.43-2.38-2.54-4.91-3.33-7.44l-.95-3.8c-.16-.47-.16-.79-.32-1.27v-.16c0-.32,0-.79-.16-1.11v-.16c0-.32,0-.63-.16-1.11v-3.33c3.8,0,7.44,.48,10.77,1.58,2.69,.79,5.23,1.9,7.6,3.33,5.7,3.33,10.29,7.92,13.62,13.46v.16c1.43,2.38,2.37,4.91,3.17,7.45,1.11,3.48,1.74,7.13,1.74,10.93-3.8,0-7.45-.48-10.93-1.58"/><path class="cls-1" d="M111.99,53.82c-3.8,0-7.45,.63-10.93,1.58-2.69,.95-5.23,2.06-7.6,3.33-5.54,3.33-10.3,7.92-13.46,13.62-1.43,2.38-2.54,4.91-3.33,7.6-.16,.32-.16,.63-.32,.95,0,.16-.16,.32-.16,.63-.16,.32-.16,.63-.32,.95,0,.48-.16,.79-.16,1.27-.16,.32-.16,.79-.32,1.27,0,.32,0,.63-.16,.95v.32c0,.31,0,.79-.16,1.11v2.85l-.16,.16v-.16c0-3.48-.48-6.97-1.58-10.3-.16-.63-.32-1.43-.63-2.06-.16-.63-.47-1.27-.79-1.74-.16-.32-.16-.63-.32-.95-.47-.95-.95-1.9-1.42-2.69,0-.16-.16-.16-.16-.16-3.17-5.7-7.92-10.29-13.46-13.62-2.38-1.27-4.91-2.38-7.6-3.33-3.33-.95-6.97-1.58-10.77-1.58h-.16v56.71s.16,.16,.16,.32v.63c0,.16,0,.47,.16,.79,0,.32,0,.63,.16,.95,0,.16,0,.32,.16,.47,0,.16,0,.48,.16,.63,0,.16,0,.32,.16,.63,0,.16,.16,.48,.16,.63,.16,.47,.32,.79,.48,1.27,1.9,4.12,5.23,7.44,9.35,9.35,2.38,.95,4.91,1.58,7.6,1.58s5.23-.63,7.6-1.74c4.12-1.74,7.29-5.07,9.19-9.19,.95-2.22,1.58-4.75,1.58-7.29h.16v.95l.16,1.27v.63l.79,3.17c.16,.16,.16,.32,.32,.63l.32,.63c1.74,4.12,5.23,7.44,9.35,9.35,2.22,.95,4.75,1.58,7.44,1.58s5.23-.63,7.6-1.74c3.8-1.58,6.97-4.59,8.87-8.4,.16-.32,.32-.48,.48-.79,.95-2.22,1.58-4.75,1.58-7.29V53.82Z"/><path class="cls-1" d="M74.92,20.4c-.16,2.69-.63,5.23-1.43,7.6-.79,2.53-1.9,5.07-3.33,7.29h-.16c0,.16,.16,.16,.16,.16-3.33,5.7-7.92,10.3-13.62,13.46-2.38,1.43-4.91,2.54-7.6,3.33-3.33,1.11-6.97,1.58-10.77,1.58h-.16v-.48c0-3.64,.63-7.13,1.58-10.45,.95-2.54,2.06-5.23,3.33-7.6,3.33-5.54,7.92-10.3,13.62-13.46,2.38-1.43,4.91-2.54,7.6-3.33,3.48-1.11,7.13-1.58,10.77-1.58v3.48Z"/></svg>