<?xml version="1.0" encoding="UTF-8"?><svg id="Layer_1" xmlns="http://www.w3.org/2000/svg" viewBox="0 0 150 150"><defs><style>.cls-1{fill:#f7b81c;}</style></defs><path class="cls-1" d="M32.12,90.42c4.1,3.59,5.46,9.04,5.46,12.68v3.72s0,0,0,0v.63c0,9.74,7.9,17.64,17.64,17.64h.63c5.86,0,11.21-3,14.62-7.77,2.42-3.38,6.38-5.59,10.86-5.59s8.44,2.2,10.86,5.59c3.41,4.76,8.76,7.77,14.62,7.77h.63c9.74,0,17.64-7.9,17.64-17.64v-.41c0-5.82-2.73-11.4-7.55-14.65-2.57-1.73-4.52-4.34-5.34-7.49-1.53-5.93,.91-11.46,5.23-14.5,4.76-3.34,7.66-8.73,7.66-14.55v-.63c0-9.74-7.9-17.64-17.64-17.64h-4.43c-3.64-.03-9.03-1.39-12.59-5.46-3.09-3.54-4.13-7.21-9.08-7.21s-5.99,3.67-9.08,7.21c-3.56,4.07-8.95,5.44-12.6,5.46h-4.43c-9.74,0-17.64,7.9-17.64,17.64v.63s0,0,0,0v3.72c0,3.64-1.37,9.09-5.46,12.68-3.54,3.09-7.21,4.13-7.21,9.08s3.67,5.99,7.21,9.08Z"/></svg>