<?xml version="1.0" encoding="UTF-8"?><svg id="Layer_1" xmlns="http://www.w3.org/2000/svg" xmlns:xlink="http://www.w3.org/1999/xlink" viewBox="0 0 500 300"><defs><style>.cls-1{clip-path:url(#clippath-2);}.cls-2{clip-path:url(#clippath-1);}.cls-3{clip-path:url(#clippath-4);}.cls-4{fill:#702e27;}.cls-5{fill:#eb008b;}.cls-6{fill:#00adee;}.cls-7{clip-path:url(#clippath);}.cls-8{fill:none;}.cls-9{clip-path:url(#clippath-3);}.cls-10{fill:#fff100;}.cls-11{clip-path:url(#clippath-5);}</style><clipPath id="clippath"><rect class="cls-8" y="-329.67" width="500" height="300"/></clipPath><clipPath id="clippath-1"><rect class="cls-8" x="504.72" y="-304.4" width="301.5" height="250.31" transform="translate(476.22 -834.72) rotate(90)"/></clipPath><clipPath id="clippath-2"><rect class="cls-8" x="511.98" y="-360.74" width="280.5" height="443.63"/></clipPath><clipPath id="clippath-3"><rect class="cls-8" y=".16" width="500" height="300"/></clipPath><clipPath id="clippath-4"><rect class="cls-8" x="530" width="500" height="300"/></clipPath><clipPath id="clippath-5"><rect class="cls-8" x="529.08" y="-17.25" width="500.92" height="334.5"/></clipPath></defs><g class="cls-7"><image width="1005" height="570" transform="translate(-33.88 -329.67) scale(.59)" xlink:href="../小老弟（第二版）_画板-1.jpg"/></g><g class="cls-2"><g id="Layer_1-2"><g class="cls-1"><polygon class="cls-4" points="652.31 130.71 652.31 76.77 652.31 22.83 652.31 -31.11 652.31 -85.05 652.31 -138.99 599.62 -138.99 546.92 -138.99 494.23 -138.99 441.53 -138.99 441.53 -85.05 441.53 -31.11 441.53 22.83 441.53 76.77 441.53 130.71 441.53 184.65 494.23 184.65 546.92 184.65 599.62 184.65 652.31 184.65 652.31 130.71"/></g></g></g><g class="cls-9"><rect x="-6.66" width="506.66" height="300.16"/><g><polygon class="cls-10" points="-24.57 945.74 193.69 727.48 193.69 727.48 290.22 630.96 290.22 630.96 323.35 597.82 389.28 531.89 800.88 120.3 750.2 69.62 338.61 481.22 272.68 547.15 242.7 577.12 227.06 592.76 161.13 658.69 147.88 671.94 -76.2 896.02 -24.57 945.74"/><rect class="cls-5" x="609.2" y="215.13" width=".64" height="320.45" transform="translate(775.1 1071.77) rotate(-135)"/><rect class="cls-10" x="797.08" y="-387.21" width="7.6" height="1072.31" transform="translate(1261.86 820.57) rotate(-135)"/><rect class="cls-6" x="86.85" y="53.84" width=".64" height="320.45" transform="translate(176.9 1.06) rotate(45)"/><rect class="cls-10" x="122.53" y="204.97" width="1.77" height="370.54" transform="translate(486.63 578.91) rotate(135)"/><rect class="cls-5" x="247.72" y="-374.82" width="5.25" height="888.88" transform="translate(378.14 295.87) rotate(-135)"/><rect class="cls-10" x="469.45" y="-295.61" width="7.6" height="377.66" transform="translate(883.39 152.36) rotate(-135)"/><rect class="cls-10" x="-23.29" y="-34.7" width="7.6" height="389.85" transform="translate(-119 33.15) rotate(-45)"/><rect class="cls-5" x="139.91" y="-204.2" width="7.6" height="497.78" transform="translate(10.49 114.71) rotate(-45)"/><rect class="cls-5" x="3.96" y="-257.25" width="7.6" height="497.78" transform="translate(8.18 3.04) rotate(-45)"/><rect class="cls-5" x="51.8" y="66.24" width="7.6" height="509.01" transform="translate(-131.88 586.86) rotate(-135)"/><rect class="cls-6" x="109.66" y="182.6" width="3.47" height="421.91" transform="translate(-88.12 750.61) rotate(-135)"/><rect class="cls-6" x="180.08" y="-204.38" width="3.47" height="421.91" transform="translate(305.74 139.8) rotate(-135)"/><rect class="cls-5" x="457.82" y="151.83" width="7.6" height="887.42" transform="translate(366.92 1343.07) rotate(-135)"/><path class="cls-6" d="M114.21,248.25c0-7.67,6.22-13.89,13.89-13.89,2.45,0,4.75,.63,6.75,1.75l-7.02,7.02c-2.62,.14-4.72,2.24-4.86,4.86,0,.09,0,.18,0,.27,0,2.84,2.3,5.13,5.13,5.13,.09,0,.18,0,.27,0,2.62-.14,4.72-2.24,4.86-4.86l7.02-7.02c1.11,2,1.75,4.3,1.75,6.75,0,7.67-6.22,13.89-13.89,13.89-2.45,0-4.75-.63-6.75-1.75-2.26-1.26-4.14-3.13-5.4-5.4-1.11-2-1.75-4.3-1.75-6.75Z"/><path class="cls-10" d="M128.1,234.35c0-7.67,6.22-13.89,13.89-13.89,2.45,0,4.75,.63,6.75,1.75l-7.02,7.02c-2.62,.14-4.72,2.24-4.86,4.86,0,.09,0,.18,0,.27,0,2.84,2.3,5.13,5.13,5.13,.09,0,.18,0,.27,0,2.62-.14,4.72-2.24,4.86-4.86l7.02-7.02c1.11,2,1.75,4.3,1.75,6.75,0,7.67-6.22,13.89-13.89,13.89-2.45,0-4.75-.63-6.75-1.75-2.26-1.26-4.14-3.13-5.4-5.4-1.11-2-1.75-4.3-1.75-6.75Z"/><path class="cls-6" d="M141.99,220.46c0-7.67,6.22-13.89,13.89-13.89,2.45,0,4.75,.63,6.75,1.75l-7.02,7.02c-2.62,.14-4.72,2.24-4.86,4.86,0,.09,0,.18,0,.27,0,2.84,2.3,5.13,5.13,5.13,.09,0,.18,0,.27,0,2.62-.14,4.72-2.24,4.86-4.86l7.02-7.02c1.11,2,1.75,4.3,1.75,6.75,0,7.67-6.22,13.89-13.89,13.89-2.45,0-4.75-.63-6.75-1.75-2.26-1.26-4.14-3.13-5.4-5.4-1.11-2-1.75-4.3-1.75-6.75Z"/><path class="cls-10" d="M70.37,292.08c0-7.67,6.22-13.89,13.89-13.89,2.45,0,4.75,.63,6.75,1.75l-7.02,7.02c-2.62,.14-4.72,2.24-4.86,4.86,0,.09,0,.18,0,.27,0,2.84,2.3,5.13,5.13,5.13,.09,0,.18,0,.27,0,2.62-.14,4.72-2.24,4.86-4.86l7.02-7.02c1.11,2,1.75,4.3,1.75,6.75,0,7.67-6.22,13.89-13.89,13.89-2.45,0-4.75-.63-6.75-1.75-2.26-1.26-4.14-3.13-5.4-5.4-1.11-2-1.75-4.3-1.75-6.75Z"/><path class="cls-5" d="M332.11,20.47c0-7.67,6.22-13.89,13.89-13.89,2.45,0,4.75,.63,6.75,1.75l-7.02,7.02c-2.62,.14-4.72,2.24-4.86,4.86,0,.09,0,.18,0,.27,0,2.84,2.3,5.13,5.13,5.13,.09,0,.18,0,.27,0,2.62-.14,4.72-2.24,4.86-4.86l7.02-7.02c1.11,2,1.75,4.3,1.75,6.75,0,7.67-6.22,13.89-13.89,13.89-2.45,0-4.75-.63-6.75-1.75-2.26-1.26-4.14-3.13-5.4-5.4-1.11-2-1.75-4.3-1.75-6.75Z"/><path class="cls-5" d="M19.35,185.16c7.67,0,13.89,6.22,13.89,13.89,0,2.45-.63,4.75-1.75,6.75l-7.02-7.02c-.14-2.62-2.24-4.72-4.86-4.86-.09,0-.18,0-.27,0-2.84,0-5.13,2.3-5.13,5.13,0,.09,0,.18,0,.27,.14,2.62,2.24,4.72,4.86,4.86l7.02,7.02c-2,1.11-4.3,1.75-6.75,1.75-7.67,0-13.89-6.22-13.89-13.89,0-2.45,.63-4.75,1.75-6.75,1.26-2.26,3.13-4.14,5.4-5.4,2-1.11,4.3-1.75,6.75-1.75Z"/><path class="cls-6" d="M344.58,8c0-7.67,6.22-13.89,13.89-13.89,2.45,0,4.75,.63,6.75,1.75l-7.02,7.02c-2.62,.14-4.72,2.24-4.86,4.86,0,.09,0,.18,0,.27,0,2.84,2.3,5.13,5.13,5.13,.09,0,.18,0,.27,0,2.62-.14,4.72-2.24,4.86-4.86l7.02-7.02c1.11,2,1.75,4.3,1.75,6.75,0,7.67-6.22,13.89-13.89,13.89-2.45,0-4.75-.63-6.75-1.75-2.26-1.26-4.14-3.13-5.4-5.4-1.11-2-1.75-4.3-1.75-6.75Z"/><path class="cls-6" d="M111.62,199.06c0-5.13,4.16-9.29,9.29-9.29,1.64,0,3.18,.42,4.51,1.17l-4.69,4.69c-1.75,.09-3.16,1.5-3.25,3.25,0,.06,0,.12,0,.18,0,1.9,1.54,3.43,3.43,3.43,.06,0,.12,0,.18,0,1.75-.09,3.16-1.5,3.25-3.25l4.69-4.69c.74,1.34,1.17,2.88,1.17,4.51,0,5.13-4.16,9.29-9.29,9.29-1.64,0-3.18-.42-4.51-1.17-1.51-.84-2.77-2.1-3.61-3.61-.74-1.34-1.17-2.88-1.17-4.51Z"/><path class="cls-10" d="M119.6,191.07c0-5.13,4.16-9.29,9.29-9.29,1.64,0,3.18,.42,4.51,1.17l-4.69,4.69c-1.75,.09-3.16,1.5-3.25,3.25,0,.06,0,.12,0,.18,0,1.9,1.54,3.43,3.43,3.43,.06,0,.12,0,.18,0,1.75-.09,3.16-1.5,3.25-3.25l4.69-4.69c.74,1.34,1.17,2.88,1.17,4.51,0,5.13-4.16,9.29-9.29,9.29-1.64,0-3.18-.42-4.51-1.17-1.51-.84-2.77-2.1-3.61-3.61-.74-1.34-1.17-2.88-1.17-4.51Z"/><path class="cls-6" d="M127.58,183.09c0-5.13,4.16-9.29,9.29-9.29,1.64,0,3.18,.42,4.51,1.17l-4.69,4.69c-1.75,.09-3.16,1.5-3.25,3.25,0,.06,0,.12,0,.18,0,1.9,1.54,3.43,3.43,3.43,.06,0,.12,0,.18,0,1.75-.09,3.16-1.5,3.25-3.25l4.69-4.69c.74,1.34,1.17,2.88,1.17,4.51,0,5.13-4.16,9.29-9.29,9.29-1.64,0-3.18-.42-4.51-1.17-1.51-.84-2.77-2.1-3.61-3.61-.74-1.34-1.17-2.88-1.17-4.51Z"/><path class="cls-10" d="M135.56,175.11c0-5.13,4.16-9.29,9.29-9.29,1.64,0,3.18,.42,4.51,1.17l-4.69,4.69c-1.75,.09-3.16,1.5-3.25,3.25,0,.06,0,.12,0,.18,0,1.9,1.54,3.43,3.43,3.43,.06,0,.12,0,.18,0,1.75-.09,3.16-1.5,3.25-3.25l4.69-4.69c.74,1.34,1.17,2.88,1.17,4.51,0,5.13-4.16,9.29-9.29,9.29-1.64,0-3.18-.42-4.51-1.17-1.51-.84-2.77-2.1-3.61-3.61-.74-1.34-1.17-2.88-1.17-4.51Z"/><path class="cls-10" d="M237.63,73.05c0-5.13,4.16-9.29,9.29-9.29,1.64,0,3.18,.42,4.51,1.17l-4.69,4.69c-1.75,.09-3.16,1.5-3.25,3.25,0,.06,0,.12,0,.18,0,1.9,1.54,3.43,3.43,3.43,.06,0,.12,0,.18,0,1.75-.09,3.16-1.5,3.25-3.25l4.69-4.69c.74,1.34,1.17,2.88,1.17,4.51,0,5.13-4.16,9.29-9.29,9.29-1.64,0-3.18-.42-4.51-1.17-1.51-.84-2.77-2.1-3.61-3.61-.74-1.34-1.17-2.88-1.17-4.51Z"/><path class="cls-6" d="M245.04,65.64c0-5.13,4.16-9.29,9.29-9.29,1.64,0,3.18,.42,4.51,1.17l-4.69,4.69c-1.75,.09-3.16,1.5-3.25,3.25,0,.06,0,.12,0,.18,0,1.9,1.54,3.43,3.43,3.43,.06,0,.12,0,.18,0,1.75-.09,3.16-1.5,3.25-3.25l4.69-4.69c.74,1.34,1.17,2.88,1.17,4.51,0,5.13-4.16,9.29-9.29,9.29-1.64,0-3.18-.42-4.51-1.17-1.51-.84-2.77-2.1-3.61-3.61-.74-1.34-1.17-2.88-1.17-4.51Z"/><path class="cls-10" d="M252.45,58.23c0-5.13,4.16-9.29,9.29-9.29,1.64,0,3.18,.42,4.51,1.17l-4.69,4.69c-1.75,.09-3.16,1.5-3.25,3.25,0,.06,0,.12,0,.18,0,1.9,1.54,3.43,3.43,3.43,.06,0,.12,0,.18,0,1.75-.09,3.16-1.5,3.25-3.25l4.69-4.69c.74,1.34,1.17,2.88,1.17,4.51,0,5.13-4.16,9.29-9.29,9.29-1.64,0-3.18-.42-4.51-1.17-1.51-.84-2.77-2.1-3.61-3.61-.74-1.34-1.17-2.88-1.17-4.51Z"/><path class="cls-6" d="M30.91,196.72c7.67,0,13.89,6.22,13.89,13.89,0,2.45-.63,4.75-1.75,6.75l-7.02-7.02c-.14-2.62-2.24-4.72-4.86-4.86-.09,0-.18,0-.27,0-2.84,0-5.13,2.3-5.13,5.13,0,.09,0,.18,0,.27,.14,2.62,2.24,4.72,4.86,4.86l7.02,7.02c-2,1.11-4.3,1.75-6.75,1.75-7.67,0-13.89-6.22-13.89-13.89,0-2.45,.63-4.75,1.75-6.75,1.26-2.26,3.13-4.14,5.4-5.4,2-1.11,4.3-1.75,6.75-1.75Z"/><path class="cls-6" d="M84.26,278.19c0-7.67,6.22-13.89,13.89-13.89,2.45,0,4.75,.63,6.75,1.75l-7.02,7.02c-2.62,.14-4.72,2.24-4.86,4.86,0,.09,0,.18,0,.27,0,2.84,2.3,5.13,5.13,5.13,.09,0,.18,0,.27,0,2.62-.14,4.72-2.24,4.86-4.86l7.02-7.02c1.11,2,1.75,4.3,1.75,6.75,0,7.67-6.22,13.89-13.89,13.89-2.45,0-4.75-.63-6.75-1.75-2.26-1.26-4.14-3.13-5.4-5.4-1.11-2-1.75-4.3-1.75-6.75Z"/><rect class="cls-10" x="366.28" y="-37.78" width="23.99" height="1485.59" transform="translate(-387.72 473.98) rotate(-45)"/><rect class="cls-6" x="9.99" y="-371.22" width="23.99" height="1563.87" transform="translate(296.85 104.75) rotate(45)"/><rect class="cls-6" x="544.74" y="-252.12" width="1.61" height="779.51" transform="translate(62.46 426.07) rotate(-45)"/><rect class="cls-6" x="23.24" y="99.48" width=".64" height="320.45" transform="translate(-176.74 92.72) rotate(-45)"/><rect class="cls-5" x="294.8" y="74.43" width=".64" height="964.65" transform="translate(-307.25 371.75) rotate(-45)"/><rect class="cls-6" x="297.02" y="72.25" width=".64" height="964.65" transform="translate(-305.06 372.68) rotate(-45)"/><rect class="cls-10" x="19.74" y="99.87" width=".64" height="320.45" transform="translate(189.79 62) rotate(45)"/><rect class="cls-10" x="533.16" y="-199.44" width="1.77" height="674.15" transform="translate(1009 -142.67) rotate(135)"/><rect class="cls-5" x="350.06" y="-177.64" width="1.77" height="215.09" transform="translate(549.54 -367.81) rotate(135)"/><rect class="cls-5" x="257.53" y="-221.3" width="1.77" height="648.45" transform="translate(513.92 -7.03) rotate(135)"/><rect class="cls-6" x="46.58" y="226.15" width="1.77" height="215.09" transform="translate(316.98 536.09) rotate(135)"/><rect class="cls-5" x="63.85" y="103.41" width="1.77" height="238.63" transform="translate(-46.98 426) rotate(-135)"/><rect class="cls-10" x="136.19" y="219.43" width="1.77" height="334.01" transform="translate(507.25 562.75) rotate(135)"/><rect class="cls-5" x="85.78" y="234.79" width=".64" height="320.45" transform="translate(304.53 54.82) rotate(45)"/><rect class="cls-10" x="270.95" y="-231.06" width="1.77" height="362.4" transform="translate(44.36 -206.82) rotate(45)"/><rect class="cls-6" x="329.8" y="-282.07" width="1.77" height="362.4" transform="translate(25.53 -263.37) rotate(45)"/><rect class="cls-10" x="170.82" y="-232.12" width="1.77" height="362.4" transform="translate(257.11 -208.35) rotate(135)"/><rect class="cls-10" x="105.81" y="-80.72" width="1.77" height="362.4" transform="translate(102.31 -46.02) rotate(45)"/><rect class="cls-6" x="142.9" y="-100.84" width="1.61" height="320.45" transform="translate(.1 119.01) rotate(-45)"/><rect class="cls-10" x="218.65" y="-84.33" width="1.77" height="462.08" transform="translate(478.5 95.21) rotate(135)"/><path class="cls-5" d="M116.41,29.14c1.63,0,2.94,1.32,2.94,2.94,0,.52-.13,1.01-.37,1.43l-1.49-1.49c-.03-.55-.47-1-1.03-1.03-.02,0-.04,0-.06,0-.6,0-1.09,.49-1.09,1.09,0,.02,0,.04,0,.06,.03,.56,.47,1,1.03,1.03l1.49,1.49c-.42,.24-.91,.37-1.43,.37-1.63,0-2.94-1.32-2.94-2.94,0-.52,.13-1.01,.37-1.43,.27-.48,.66-.88,1.14-1.14,.42-.24,.91-.37,1.43-.37Z"/><path class="cls-10" d="M119.5,32.23c1.63,0,2.94,1.32,2.94,2.94,0,.52-.13,1.01-.37,1.43l-1.49-1.49c-.03-.55-.47-1-1.03-1.03-.02,0-.04,0-.06,0-.6,0-1.09,.49-1.09,1.09,0,.02,0,.04,0,.06,.03,.56,.47,1,1.03,1.03l1.49,1.49c-.42,.24-.91,.37-1.43,.37-1.63,0-2.94-1.32-2.94-2.94,0-.52,.13-1.01,.37-1.43,.27-.48,.66-.88,1.14-1.14,.42-.24,.91-.37,1.43-.37Z"/><path class="cls-6" d="M39.12,285.53c1.63,0,2.94,1.32,2.94,2.94,0,.52-.13,1.01-.37,1.43l-1.49-1.49c-.03-.55-.47-1-1.03-1.03-.02,0-.04,0-.06,0-.6,0-1.09,.49-1.09,1.09,0,.02,0,.04,0,.06,.03,.56,.47,1,1.03,1.03l1.49,1.49c-.42,.24-.91,.37-1.43,.37-1.63,0-2.94-1.32-2.94-2.94,0-.52,.13-1.01,.37-1.43,.27-.48,.66-.88,1.14-1.14,.42-.24,.91-.37,1.43-.37Z"/><path class="cls-6" d="M31.5,277.91c1.63,0,2.94,1.32,2.94,2.94,0,.52-.13,1.01-.37,1.43l-1.49-1.49c-.03-.55-.47-1-1.03-1.03-.02,0-.04,0-.06,0-.6,0-1.09,.49-1.09,1.09,0,.02,0,.04,0,.06,.03,.56,.47,1,1.03,1.03l1.49,1.49c-.42,.24-.91,.37-1.43,.37-1.63,0-2.94-1.32-2.94-2.94,0-.52,.13-1.01,.37-1.43,.27-.48,.66-.88,1.14-1.14,.42-.24,.91-.37,1.43-.37Z"/><path class="cls-5" d="M119.34,43.57c1.63,0,2.94,1.32,2.94,2.94,0,.52-.13,1.01-.37,1.43l-1.49-1.49c-.03-.55-.47-1-1.03-1.03-.02,0-.04,0-.06,0-.6,0-1.09,.49-1.09,1.09,0,.02,0,.04,0,.06,.03,.56,.47,1,1.03,1.03l1.49,1.49c-.42,.24-.91,.37-1.43,.37-1.63,0-2.94-1.32-2.94-2.94,0-.52,.13-1.01,.37-1.43,.27-.48,.66-.88,1.14-1.14,.42-.24,.91-.37,1.43-.37Z"/><path class="cls-6" d="M363.72,205.28c1.63,0,2.94,1.32,2.94,2.94,0,.52-.13,1.01-.37,1.43l-1.49-1.49c-.03-.55-.47-1-1.03-1.03-.02,0-.04,0-.06,0-.6,0-1.09,.49-1.09,1.09,0,.02,0,.04,0,.06,.03,.56,.47,1,1.03,1.03l1.49,1.49c-.42,.24-.91,.37-1.43,.37-1.63,0-2.94-1.32-2.94-2.94,0-.52,.13-1.01,.37-1.43,.27-.48,.66-.88,1.14-1.14,.42-.24,.91-.37,1.43-.37Z"/><path class="cls-10" d="M366.66,208.22c1.63,0,2.94,1.32,2.94,2.94,0,.52-.13,1.01-.37,1.43l-1.49-1.49c-.03-.55-.47-1-1.03-1.03-.02,0-.04,0-.06,0-.6,0-1.09,.49-1.09,1.09,0,.02,0,.04,0,.06,.03,.56,.47,1,1.03,1.03l1.49,1.49c-.42,.24-.91,.37-1.43,.37-1.63,0-2.94-1.32-2.94-2.94,0-.52,.13-1.01,.37-1.43,.27-.48,.66-.88,1.14-1.14,.42-.24,.91-.37,1.43-.37Z"/><path class="cls-6" d="M369.6,211.16c1.63,0,2.94,1.32,2.94,2.94,0,.52-.13,1.01-.37,1.43l-1.49-1.49c-.03-.55-.47-1-1.03-1.03-.02,0-.04,0-.06,0-.6,0-1.09,.49-1.09,1.09,0,.02,0,.04,0,.06,.03,.56,.47,1,1.03,1.03l1.49,1.49c-.42,.24-.91,.37-1.43,.37-1.63,0-2.94-1.32-2.94-2.94,0-.52,.13-1.01,.37-1.43,.27-.48,.66-.88,1.14-1.14,.42-.24,.91-.37,1.43-.37Z"/><path class="cls-6" d="M334.84,176.39c1.63,0,2.94,1.32,2.94,2.94,0,.52-.13,1.01-.37,1.43l-1.49-1.49c-.03-.55-.47-1-1.03-1.03-.02,0-.04,0-.06,0-.6,0-1.09,.49-1.09,1.09,0,.02,0,.04,0,.06,.03,.56,.47,1,1.03,1.03l1.49,1.49c-.42,.24-.91,.37-1.43,.37-1.63,0-2.94-1.32-2.94-2.94,0-.52,.13-1.01,.37-1.43,.27-.48,.66-.88,1.14-1.14,.42-.24,.91-.37,1.43-.37Z"/><path class="cls-10" d="M337.78,179.34c1.63,0,2.94,1.32,2.94,2.94,0,.52-.13,1.01-.37,1.43l-1.49-1.49c-.03-.55-.47-1-1.03-1.03-.02,0-.04,0-.06,0-.6,0-1.09,.49-1.09,1.09,0,.02,0,.04,0,.06,.03,.56,.47,1,1.03,1.03l1.49,1.49c-.42,.24-.91,.37-1.43,.37-1.63,0-2.94-1.32-2.94-2.94,0-.52,.13-1.01,.37-1.43,.27-.48,.66-.88,1.14-1.14,.42-.24,.91-.37,1.43-.37Z"/><path class="cls-6" d="M340.73,182.28c1.63,0,2.94,1.32,2.94,2.94,0,.52-.13,1.01-.37,1.43l-1.49-1.49c-.03-.55-.47-1-1.03-1.03-.02,0-.04,0-.06,0-.6,0-1.09,.49-1.09,1.09,0,.02,0,.04,0,.06,.03,.56,.47,1,1.03,1.03l1.49,1.49c-.42,.24-.91,.37-1.43,.37-1.63,0-2.94-1.32-2.94-2.94,0-.52,.13-1.01,.37-1.43,.27-.48,.66-.88,1.14-1.14,.42-.24,.91-.37,1.43-.37Z"/><path class="cls-10" d="M343.67,185.22c1.63,0,2.94,1.32,2.94,2.94,0,.52-.13,1.01-.37,1.43l-1.49-1.49c-.03-.55-.47-1-1.03-1.03-.02,0-.04,0-.06,0-.6,0-1.09,.49-1.09,1.09,0,.02,0,.04,0,.06,.03,.56,.47,1,1.03,1.03l1.49,1.49c-.42,.24-.91,.37-1.43,.37-1.63,0-2.94-1.32-2.94-2.94,0-.52,.13-1.01,.37-1.43,.27-.48,.66-.88,1.14-1.14,.42-.24,.91-.37,1.43-.37Z"/><rect class="cls-6" x="622.95" y="208.08" width="1.61" height="388.76" transform="translate(467.27 -323.18) rotate(45)"/><path class="cls-5" d="M43.77,209.59c7.67,0,13.89,6.22,13.89,13.89,0,2.45-.63,4.75-1.75,6.75l-7.02-7.02c-.14-2.62-2.24-4.72-4.86-4.86-.09,0-.18,0-.27,0-2.84,0-5.13,2.3-5.13,5.13,0,.09,0,.18,0,.27,.14,2.62,2.24,4.72,4.86,4.86l7.02,7.02c-2,1.11-4.3,1.75-6.75,1.75-7.67,0-13.89-6.22-13.89-13.89,0-2.45,.63-4.75,1.75-6.75,1.26-2.26,3.13-4.14,5.4-5.4,2-1.11,4.3-1.75,6.75-1.75Z"/><path class="cls-10" d="M133.7,131.48c-7.67,0-13.89-6.22-13.89-13.89,0-2.45,.63-4.75,1.75-6.75l7.02,7.02c.14,2.62,2.24,4.72,4.86,4.86,.09,0,.18,0,.27,0,2.84,0,5.13-2.3,5.13-5.13,0-.09,0-.18,0-.27-.14-2.62-2.24-4.72-4.86-4.86l-7.02-7.02c2-1.11,4.3-1.75,6.75-1.75,7.67,0,13.89,6.22,13.89,13.89,0,2.45-.63,4.75-1.75,6.75-1.26,2.26-3.13,4.14-5.4,5.4-2,1.11-4.3,1.75-6.75,1.75Z"/><path class="cls-6" d="M69.1,66.88c-7.67,0-13.89-6.22-13.89-13.89,0-2.45,.63-4.75,1.75-6.75l7.02,7.02c.14,2.62,2.24,4.72,4.86,4.86,.09,0,.18,0,.27,0,2.84,0,5.13-2.3,5.13-5.13,0-.09,0-.18,0-.27-.14-2.62-2.24-4.72-4.86-4.86l-7.02-7.02c2-1.11,4.3-1.75,6.75-1.75,7.67,0,13.89,6.22,13.89,13.89,0,2.45-.63,4.75-1.75,6.75-1.26,2.26-3.13,4.14-5.4,5.4-2,1.11-4.3,1.75-6.75,1.75Z"/><path class="cls-10" d="M56.24,54.01c-7.67,0-13.89-6.22-13.89-13.89,0-2.45,.63-4.75,1.75-6.75l7.02,7.02c.14,2.62,2.24,4.72,4.86,4.86,.09,0,.18,0,.27,0,2.84,0,5.13-2.3,5.13-5.13,0-.09,0-.18,0-.27-.14-2.62-2.24-4.72-4.86-4.86l-7.02-7.02c2-1.11,4.3-1.75,6.75-1.75,7.67,0,13.89,6.22,13.89,13.89,0,2.45-.63,4.75-1.75,6.75-1.26,2.26-3.13,4.14-5.4,5.4-2,1.11-4.3,1.75-6.75,1.75Z"/><path class="cls-5" d="M155.98,26.13c0-3.48,2.82-6.3,6.3-6.3,1.11,0,2.15,.29,3.06,.79l-3.18,3.18c-1.19,.06-2.14,1.01-2.2,2.2,0,.04,0,.08,0,.12,0,1.28,1.04,2.33,2.33,2.33,.04,0,.08,0,.12,0,1.19-.06,2.14-1.01,2.2-2.2l3.18-3.18c.5,.91,.79,1.95,.79,3.06,0,3.48-2.82,6.3-6.3,6.3-1.11,0-2.15-.29-3.06-.79-1.03-.57-1.87-1.42-2.44-2.44-.5-.91-.79-1.95-.79-3.06Z"/><path class="cls-10" d="M173.81,8.3c0-3.48,2.82-6.3,6.3-6.3,1.11,0,2.15,.29,3.06,.79l-3.18,3.18c-1.19,.06-2.14,1.01-2.2,2.2,0,.04,0,.08,0,.12,0,1.28,1.04,2.33,2.33,2.33,.04,0,.08,0,.12,0,1.19-.06,2.14-1.01,2.2-2.2l3.18-3.18c.5,.91,.79,1.95,.79,3.06,0,3.48-2.82,6.3-6.3,6.3-1.11,0-2.15-.29-3.06-.79-1.03-.57-1.87-1.42-2.44-2.44-.5-.91-.79-1.95-.79-3.06Z"/><path class="cls-10" d="M77.16,104.94c0-3.48,2.82-6.3,6.3-6.3,1.11,0,2.15,.29,3.06,.79l-3.18,3.18c-1.19,.06-2.14,1.01-2.2,2.2,0,.04,0,.08,0,.12,0,1.28,1.04,2.33,2.33,2.33,.04,0,.08,0,.12,0,1.19-.06,2.14-1.01,2.2-2.2l3.18-3.18c.5,.91,.79,1.95,.79,3.06,0,3.48-2.82,6.3-6.3,6.3-1.11,0-2.15-.29-3.06-.79-1.03-.57-1.87-1.42-2.44-2.44-.5-.91-.79-1.95-.79-3.06Z"/><path class="cls-5" d="M179.64,2.47c0-3.48,2.82-6.3,6.3-6.3,1.11,0,2.15,.29,3.06,.79l-3.18,3.18c-1.19,.06-2.14,1.01-2.2,2.2,0,.04,0,.08,0,.12,0,1.28,1.04,2.33,2.33,2.33,.04,0,.08,0,.12,0,1.19-.06,2.14-1.01,2.2-2.2l3.18-3.18c.5,.91,.79,1.95,.79,3.06,0,3.48-2.82,6.3-6.3,6.3-1.11,0-2.15-.29-3.06-.79-1.03-.57-1.87-1.42-2.44-2.44-.5-.91-.79-1.95-.79-3.06Z"/><path class="cls-5" d="M82.49,99.62c0-3.48,2.82-6.3,6.3-6.3,1.11,0,2.15,.29,3.06,.79l-3.18,3.18c-1.19,.06-2.14,1.01-2.2,2.2,0,.04,0,.08,0,.12,0,1.28,1.04,2.33,2.33,2.33,.04,0,.08,0,.12,0,1.19-.06,2.14-1.01,2.2-2.2l3.18-3.18c.5,.91,.79,1.95,.79,3.06,0,3.48-2.82,6.3-6.3,6.3-1.11,0-2.15-.29-3.06-.79-1.03-.57-1.87-1.42-2.44-2.44-.5-.91-.79-1.95-.79-3.06Z"/><path class="cls-10" d="M107.1,75c0-3.48,2.82-6.3,6.3-6.3,1.11,0,2.15,.29,3.06,.79l-3.18,3.18c-1.19,.06-2.14,1.01-2.2,2.2,0,.04,0,.08,0,.12,0,1.28,1.04,2.33,2.33,2.33,.04,0,.08,0,.12,0,1.19-.06,2.14-1.01,2.2-2.2l3.18-3.18c.5,.91,.79,1.95,.79,3.06,0,3.48-2.82,6.3-6.3,6.3-1.11,0-2.15-.29-3.06-.79-1.03-.57-1.87-1.42-2.44-2.44-.5-.91-.79-1.95-.79-3.06Z"/><path class="cls-5" d="M125.93,56.18c0-3.48,2.82-6.3,6.3-6.3,1.11,0,2.15,.29,3.06,.79l-3.18,3.18c-1.19,.06-2.14,1.01-2.2,2.2,0,.04,0,.08,0,.12,0,1.28,1.04,2.33,2.33,2.33,.04,0,.08,0,.12,0,1.19-.06,2.14-1.01,2.2-2.2l3.18-3.18c.5,.91,.79,1.95,.79,3.06,0,3.48-2.82,6.3-6.3,6.3-1.11,0-2.15-.29-3.06-.79-1.03-.57-1.87-1.42-2.44-2.44-.5-.91-.79-1.95-.79-3.06Z"/><path class="cls-10" d="M113.45,28.14c-7.67,0-13.89-6.22-13.89-13.89,0-2.45,.63-4.75,1.75-6.75l7.02,7.02c.14,2.62,2.24,4.72,4.86,4.86,.09,0,.18,0,.27,0,2.84,0,5.13-2.3,5.13-5.13,0-.09,0-.18,0-.27-.14-2.62-2.24-4.72-4.86-4.86l-7.02-7.02c2-1.11,4.3-1.75,6.75-1.75,7.67,0,13.89,6.22,13.89,13.89,0,2.45-.63,4.75-1.75,6.75-1.26,2.26-3.13,4.14-5.4,5.4-2,1.11-4.3,1.75-6.75,1.75Z"/><path class="cls-6" d="M102.29,16.98c-7.67,0-13.89-6.22-13.89-13.89,0-2.45,.63-4.75,1.75-6.75l7.02,7.02c.14,2.62,2.24,4.72,4.86,4.86,.09,0,.18,0,.27,0,2.84,0,5.13-2.3,5.13-5.13,0-.09,0-.18,0-.27-.14-2.62-2.24-4.72-4.86-4.86l-7.02-7.02c2-1.11,4.3-1.75,6.75-1.75,7.67,0,13.89,6.22,13.89,13.89,0,2.45-.63,4.75-1.75,6.75-1.26,2.26-3.13,4.14-5.4,5.4-2,1.11-4.3,1.75-6.75,1.75Z"/><path class="cls-10" d="M211.21,125.9c-7.67,0-13.89-6.22-13.89-13.89,0-2.45,.63-4.75,1.75-6.75l7.02,7.02c.14,2.62,2.24,4.72,4.86,4.86,.09,0,.18,0,.27,0,2.84,0,5.13-2.3,5.13-5.13,0-.09,0-.18,0-.27-.14-2.62-2.24-4.72-4.86-4.86l-7.02-7.02c2-1.11,4.3-1.75,6.75-1.75,7.67,0,13.89,6.22,13.89,13.89,0,2.45-.63,4.75-1.75,6.75-1.26,2.26-3.13,4.14-5.4,5.4-2,1.11-4.3,1.75-6.75,1.75Z"/><path class="cls-10" d="M316.27,230.96c-7.67,0-13.89-6.22-13.89-13.89,0-2.45,.63-4.75,1.75-6.75l7.02,7.02c.14,2.62,2.24,4.72,4.86,4.86,.09,0,.18,0,.27,0,2.84,0,5.13-2.3,5.13-5.13,0-.09,0-.18,0-.27-.14-2.62-2.24-4.72-4.86-4.86l-7.02-7.02c2-1.11,4.3-1.75,6.75-1.75,7.67,0,13.89,6.22,13.89,13.89,0,2.45-.63,4.75-1.75,6.75-1.26,2.26-3.13,4.14-5.4,5.4-2,1.11-4.3,1.75-6.75,1.75Z"/><path class="cls-6" d="M200.05,114.74c-7.67,0-13.89-6.22-13.89-13.89,0-2.45,.63-4.75,1.75-6.75l7.02,7.02c.14,2.62,2.24,4.72,4.86,4.86,.09,0,.18,0,.27,0,2.84,0,5.13-2.3,5.13-5.13,0-.09,0-.18,0-.27-.14-2.62-2.24-4.72-4.86-4.86l-7.02-7.02c2-1.11,4.3-1.75,6.75-1.75,7.67,0,13.89,6.22,13.89,13.89,0,2.45-.63,4.75-1.75,6.75-1.26,2.26-3.13,4.14-5.4,5.4-2,1.11-4.3,1.75-6.75,1.75Z"/><path class="cls-5" d="M34.04,280.45c1.63,0,2.94,1.32,2.94,2.94,0,.52-.13,1.01-.37,1.43l-1.49-1.49c-.03-.55-.47-1-1.03-1.03-.02,0-.04,0-.06,0-.6,0-1.09,.49-1.09,1.09,0,.02,0,.04,0,.06,.03,.56,.47,1,1.03,1.03l1.49,1.49c-.42,.24-.91,.37-1.43,.37-1.63,0-2.94-1.32-2.94-2.94,0-.52,.13-1.01,.37-1.43,.27-.48,.66-.88,1.14-1.14,.42-.24,.91-.37,1.43-.37Z"/><path class="cls-6" d="M26.25,296.4c-1.84,0-3.33-1.49-3.33-3.33,0-.59,.15-1.14,.42-1.62l1.68,1.68c.03,.63,.54,1.13,1.16,1.16,.02,0,.04,0,.06,0,.68,0,1.23-.55,1.23-1.23,0-.02,0-.04,0-.06-.03-.63-.54-1.13-1.16-1.16l-1.68-1.68c.48-.27,1.03-.42,1.62-.42,1.84,0,3.33,1.49,3.33,3.33,0,.59-.15,1.14-.42,1.62-.3,.54-.75,.99-1.29,1.29-.48,.27-1.03,.42-1.62,.42Z"/><path class="cls-5" d="M23.37,293.52c-1.84,0-3.33-1.49-3.33-3.33,0-.59,.15-1.14,.42-1.62l1.68,1.68c.03,.63,.54,1.13,1.16,1.16,.02,0,.04,0,.06,0,.68,0,1.23-.55,1.23-1.23,0-.02,0-.04,0-.06-.03-.63-.54-1.13-1.16-1.16l-1.68-1.68c.48-.27,1.03-.42,1.62-.42,1.84,0,3.33,1.49,3.33,3.33,0,.59-.15,1.14-.42,1.62-.3,.54-.75,.99-1.29,1.29-.48,.27-1.03,.42-1.62,.42Z"/><path class="cls-5" d="M44.52,281.98c-.73,0-1.31-.59-1.31-1.31,0-.23,.06-.45,.17-.64l.66,.66c.01,.25,.21,.45,.46,.46,0,0,.02,0,.03,0,.27,0,.49-.22,.49-.49,0,0,0-.02,0-.03-.01-.25-.21-.45-.46-.46l-.66-.66c.19-.11,.41-.17,.64-.17,.73,0,1.31,.59,1.31,1.31,0,.23-.06,.45-.17,.64-.12,.21-.3,.39-.51,.51-.19,.11-.41,.17-.64,.17Z"/><path class="cls-10" d="M51.9,289.36c-.73,0-1.31-.59-1.31-1.31,0-.23,.06-.45,.17-.64l.66,.66c.01,.25,.21,.45,.46,.46,0,0,.02,0,.03,0,.27,0,.49-.22,.49-.49,0,0,0-.02,0-.03-.01-.25-.21-.45-.46-.46l-.66-.66c.19-.11,.41-.17,.64-.17,.73,0,1.31,.59,1.31,1.31,0,.23-.06,.45-.17,.64-.12,.21-.3,.39-.51,.51-.19,.11-.41,.17-.64,.17Z"/><path class="cls-10" d="M43.39,280.85c-.73,0-1.31-.59-1.31-1.31,0-.23,.06-.45,.17-.64l.66,.66c.01,.25,.21,.45,.46,.46,0,0,.02,0,.03,0,.27,0,.49-.22,.49-.49,0,0,0-.02,0-.03-.01-.25-.21-.45-.46-.46l-.66-.66c.19-.11,.41-.17,.64-.17,.73,0,1.31,.59,1.31,1.31,0,.23-.06,.45-.17,.64-.12,.21-.3,.39-.51,.51-.19,.11-.41,.17-.64,.17Z"/><path class="cls-5" d="M50.59,288.05c-.73,0-1.31-.59-1.31-1.31,0-.23,.06-.45,.17-.64l.66,.66c.01,.25,.21,.45,.46,.46,0,0,.02,0,.03,0,.27,0,.49-.22,.49-.49,0,0,0-.02,0-.03-.01-.25-.21-.45-.46-.46l-.66-.66c.19-.11,.41-.17,.64-.17,.73,0,1.31,.59,1.31,1.31,0,.23-.06,.45-.17,.64-.12,.21-.3,.39-.51,.51-.19,.11-.41,.17-.64,.17Z"/><path class="cls-10" d="M49.45,286.92c-.73,0-1.31-.59-1.31-1.31,0-.23,.06-.45,.17-.64l.66,.66c.01,.25,.21,.45,.46,.46,0,0,.02,0,.03,0,.27,0,.49-.22,.49-.49,0,0,0-.02,0-.03-.01-.25-.21-.45-.46-.46l-.66-.66c.19-.11,.41-.17,.64-.17,.73,0,1.31,.59,1.31,1.31,0,.23-.06,.45-.17,.64-.12,.21-.3,.39-.51,.51-.19,.11-.41,.17-.64,.17Z"/><path class="cls-10" d="M261.13,127.21c0-24.49,19.86-44.35,44.36-44.35,7.82,0,15.16,2.03,21.55,5.58l-22.41,22.41c-8.36,.43-15.07,7.14-15.5,15.5-.01,.29-.02,.57-.02,.86,0,9.05,7.34,16.39,16.39,16.39,.29,0,.58,0,.86-.02,8.37-.43,15.07-7.14,15.5-15.5l22.41-22.41c3.55,6.38,5.58,13.73,5.58,21.55,0,24.5-19.86,44.36-44.35,44.36-7.82,0-15.17-2.03-21.55-5.58-7.22-4.02-13.2-10-17.22-17.22-3.55-6.38-5.58-13.73-5.58-21.55Z"/><path class="cls-5" d="M305.49,82.85c0-24.49,19.86-44.35,44.36-44.35,7.82,0,15.16,2.03,21.55,5.58l-22.41,22.41c-8.36,.43-15.07,7.14-15.5,15.5-.01,.29-.02,.57-.02,.86,0,9.05,7.34,16.39,16.39,16.39,.29,0,.58,0,.86-.02,8.37-.43,15.07-7.14,15.5-15.5l22.41-22.41c3.55,6.38,5.58,13.73,5.58,21.55,0,24.5-19.86,44.36-44.35,44.36-7.82,0-15.17-2.03-21.55-5.58-7.22-4.02-13.2-10-17.22-17.22-3.55-6.38-5.58-13.73-5.58-21.55Z"/><path class="cls-5" d="M42.61,257.31c0-.73,.59-1.31,1.31-1.31,.23,0,.45,.06,.64,.17l-.66,.66c-.25,.01-.45,.21-.46,.46,0,0,0,.02,0,.03,0,.27,.22,.49,.49,.49,0,0,.02,0,.03,0,.25-.01,.45-.21,.46-.46l.66-.66c.11,.19,.17,.41,.17,.64,0,.73-.59,1.31-1.31,1.31-.23,0-.45-.06-.64-.17-.21-.12-.39-.3-.51-.51-.11-.19-.17-.41-.17-.64Z"/><path class="cls-10" d="M35.23,264.7c0-.73,.59-1.31,1.31-1.31,.23,0,.45,.06,.64,.17l-.66,.66c-.25,.01-.45,.21-.46,.46,0,0,0,.02,0,.03,0,.27,.22,.49,.49,.49,0,0,.02,0,.03,0,.25-.01,.45-.21,.46-.46l.66-.66c.11,.19,.17,.41,.17,.64,0,.73-.59,1.31-1.31,1.31-.23,0-.45-.06-.64-.17-.21-.12-.39-.3-.51-.51-.11-.19-.17-.41-.17-.64Z"/><path class="cls-10" d="M43.75,256.18c0-.73,.59-1.31,1.31-1.31,.23,0,.45,.06,.64,.17l-.66,.66c-.25,.01-.45,.21-.46,.46,0,0,0,.02,0,.03,0,.27,.22,.49,.49,.49,0,0,.02,0,.03,0,.25-.01,.45-.21,.46-.46l.66-.66c.11,.19,.17,.41,.17,.64,0,.73-.59,1.31-1.31,1.31-.23,0-.45-.06-.64-.17-.21-.12-.39-.3-.51-.51-.11-.19-.17-.41-.17-.64Z"/><path class="cls-5" d="M36.54,263.38c0-.73,.59-1.31,1.31-1.31,.23,0,.45,.06,.64,.17l-.66,.66c-.25,.01-.45,.21-.46,.46,0,0,0,.02,0,.03,0,.27,.22,.49,.49,.49,0,0,.02,0,.03,0,.25-.01,.45-.21,.46-.46l.66-.66c.11,.19,.17,.41,.17,.64,0,.73-.59,1.31-1.31,1.31-.23,0-.45-.06-.64-.17-.21-.12-.39-.3-.51-.51-.11-.19-.17-.41-.17-.64Z"/><path class="cls-10" d="M37.68,262.25c0-.73,.59-1.31,1.31-1.31,.23,0,.45,.06,.64,.17l-.66,.66c-.25,.01-.45,.21-.46,.46,0,0,0,.02,0,.03,0,.27,.22,.49,.49,.49,0,0,.02,0,.03,0,.25-.01,.45-.21,.46-.46l.66-.66c.11,.19,.17,.41,.17,.64,0,.73-.59,1.31-1.31,1.31-.23,0-.45-.06-.64-.17-.21-.12-.39-.3-.51-.51-.11-.19-.17-.41-.17-.64Z"/><path class="cls-10" d="M52.88,247.04c0-.73,.59-1.31,1.31-1.31,.23,0,.45,.06,.64,.17l-.66,.66c-.25,.01-.45,.21-.46,.46,0,0,0,.02,0,.03,0,.27,.22,.49,.49,.49,0,0,.02,0,.03,0,.25-.01,.45-.21,.46-.46l.66-.66c.11,.19,.17,.41,.17,.64,0,.73-.59,1.31-1.31,1.31-.23,0-.45-.06-.64-.17-.21-.12-.39-.3-.51-.51-.11-.19-.17-.41-.17-.64Z"/><path class="cls-5" d="M54.2,245.73c0-.73,.59-1.31,1.31-1.31,.23,0,.45,.06,.64,.17l-.66,.66c-.25,.01-.45,.21-.46,.46,0,0,0,.02,0,.03,0,.27,.22,.49,.49,.49,0,0,.02,0,.03,0,.25-.01,.45-.21,.46-.46l.66-.66c.11,.19,.17,.41,.17,.64,0,.73-.59,1.31-1.31,1.31-.23,0-.45-.06-.64-.17-.21-.12-.39-.3-.51-.51-.11-.19-.17-.41-.17-.64Z"/><path class="cls-10" d="M55.33,244.6c0-.73,.59-1.31,1.31-1.31,.23,0,.45,.06,.64,.17l-.66,.66c-.25,.01-.45,.21-.46,.46,0,0,0,.02,0,.03,0,.27,.22,.49,.49,.49,0,0,.02,0,.03,0,.25-.01,.45-.21,.46-.46l.66-.66c.11,.19,.17,.41,.17,.64,0,.73-.59,1.31-1.31,1.31-.23,0-.45-.06-.64-.17-.21-.12-.39-.3-.51-.51-.11-.19-.17-.41-.17-.64Z"/><path class="cls-10" d="M57.77,242.16c0-.73,.59-1.31,1.31-1.31,.23,0,.45,.06,.64,.17l-.66,.66c-.25,.01-.45,.21-.46,.46,0,0,0,.02,0,.03,0,.27,.22,.49,.49,.49,0,0,.02,0,.03,0,.25-.01,.45-.21,.46-.46l.66-.66c.11,.19,.17,.41,.17,.64,0,.73-.59,1.31-1.31,1.31-.23,0-.45-.06-.64-.17-.21-.12-.39-.3-.51-.51-.11-.19-.17-.41-.17-.64Z"/><path class="cls-5" d="M59.08,240.85c0-.73,.59-1.31,1.31-1.31,.23,0,.45,.06,.64,.17l-.66,.66c-.25,.01-.45,.21-.46,.46,0,0,0,.02,0,.03,0,.27,.22,.49,.49,.49,0,0,.02,0,.03,0,.25-.01,.45-.21,.46-.46l.66-.66c.11,.19,.17,.41,.17,.64,0,.73-.59,1.31-1.31,1.31-.23,0-.45-.06-.64-.17-.21-.12-.39-.3-.51-.51-.11-.19-.17-.41-.17-.64Z"/><path class="cls-10" d="M77.36,222.57c0-.73,.59-1.31,1.31-1.31,.23,0,.45,.06,.64,.17l-.66,.66c-.25,.01-.45,.21-.46,.46,0,0,0,.02,0,.03,0,.27,.22,.49,.49,.49,0,0,.02,0,.03,0,.25-.01,.45-.21,.46-.46l.66-.66c.11,.19,.17,.41,.17,.64,0,.73-.59,1.31-1.31,1.31-.23,0-.45-.06-.64-.17-.21-.12-.39-.3-.51-.51-.11-.19-.17-.41-.17-.64Z"/><path class="cls-5" d="M78.67,221.25c0-.73,.59-1.31,1.31-1.31,.23,0,.45,.06,.64,.17l-.66,.66c-.25,.01-.45,.21-.46,.46,0,0,0,.02,0,.03,0,.27,.22,.49,.49,.49,0,0,.02,0,.03,0,.25-.01,.45-.21,.46-.46l.66-.66c.11,.19,.17,.41,.17,.64,0,.73-.59,1.31-1.31,1.31-.23,0-.45-.06-.64-.17-.21-.12-.39-.3-.51-.51-.11-.19-.17-.41-.17-.64Z"/><path class="cls-10" d="M79.98,219.94c0-.73,.59-1.31,1.31-1.31,.23,0,.45,.06,.64,.17l-.66,.66c-.25,.01-.45,.21-.46,.46,0,0,0,.02,0,.03,0,.27,.22,.49,.49,.49,0,0,.02,0,.03,0,.25-.01,.45-.21,.46-.46l.66-.66c.11,.19,.17,.41,.17,.64,0,.73-.59,1.31-1.31,1.31-.23,0-.45-.06-.64-.17-.21-.12-.39-.3-.51-.51-.11-.19-.17-.41-.17-.64Z"/><path class="cls-5" d="M81.3,218.63c0-.73,.59-1.31,1.31-1.31,.23,0,.45,.06,.64,.17l-.66,.66c-.25,.01-.45,.21-.46,.46,0,0,0,.02,0,.03,0,.27,.22,.49,.49,.49,0,0,.02,0,.03,0,.25-.01,.45-.21,.46-.46l.66-.66c.11,.19,.17,.41,.17,.64,0,.73-.59,1.31-1.31,1.31-.23,0-.45-.06-.64-.17-.21-.12-.39-.3-.51-.51-.11-.19-.17-.41-.17-.64Z"/><path class="cls-10" d="M82.33,217.59c0-.73,.59-1.31,1.31-1.31,.23,0,.45,.06,.64,.17l-.66,.66c-.25,.01-.45,.21-.46,.46,0,0,0,.02,0,.03,0,.27,.22,.49,.49,.49,0,0,.02,0,.03,0,.25-.01,.45-.21,.46-.46l.66-.66c.11,.19,.17,.41,.17,.64,0,.73-.59,1.31-1.31,1.31-.23,0-.45-.06-.64-.17-.21-.12-.39-.3-.51-.51-.11-.19-.17-.41-.17-.64Z"/><path class="cls-5" d="M83.37,216.56c0-.73,.59-1.31,1.31-1.31,.23,0,.45,.06,.64,.17l-.66,.66c-.25,.01-.45,.21-.46,.46,0,0,0,.02,0,.03,0,.27,.22,.49,.49,.49,0,0,.02,0,.03,0,.25-.01,.45-.21,.46-.46l.66-.66c.11,.19,.17,.41,.17,.64,0,.73-.59,1.31-1.31,1.31-.23,0-.45-.06-.64-.17-.21-.12-.39-.3-.51-.51-.11-.19-.17-.41-.17-.64Z"/><path class="cls-10" d="M84.68,215.24c0-.73,.59-1.31,1.31-1.31,.23,0,.45,.06,.64,.17l-.66,.66c-.25,.01-.45,.21-.46,.46,0,0,0,.02,0,.03,0,.27,.22,.49,.49,.49,0,0,.02,0,.03,0,.25-.01,.45-.21,.46-.46l.66-.66c.11,.19,.17,.41,.17,.64,0,.73-.59,1.31-1.31,1.31-.23,0-.45-.06-.64-.17-.21-.12-.39-.3-.51-.51-.11-.19-.17-.41-.17-.64Z"/><path class="cls-5" d="M86,213.93c0-.73,.59-1.31,1.31-1.31,.23,0,.45,.06,.64,.17l-.66,.66c-.25,.01-.45,.21-.46,.46,0,0,0,.02,0,.03,0,.27,.22,.49,.49,.49,0,0,.02,0,.03,0,.25-.01,.45-.21,.46-.46l.66-.66c.11,.19,.17,.41,.17,.64,0,.73-.59,1.31-1.31,1.31-.23,0-.45-.06-.64-.17-.21-.12-.39-.3-.51-.51-.11-.19-.17-.41-.17-.64Z"/><path class="cls-10" d="M87.03,212.89c0-.73,.59-1.31,1.31-1.31,.23,0,.45,.06,.64,.17l-.66,.66c-.25,.01-.45,.21-.46,.46,0,0,0,.02,0,.03,0,.27,.22,.49,.49,.49,0,0,.02,0,.03,0,.25-.01,.45-.21,.46-.46l.66-.66c.11,.19,.17,.41,.17,.64,0,.73-.59,1.31-1.31,1.31-.23,0-.45-.06-.64-.17-.21-.12-.39-.3-.51-.51-.11-.19-.17-.41-.17-.64Z"/><path class="cls-10" d="M139.49,160.43c0-.73,.59-1.31,1.31-1.31,.23,0,.45,.06,.64,.17l-.66,.66c-.25,.01-.45,.21-.46,.46,0,0,0,.02,0,.03,0,.27,.22,.49,.49,.49,0,0,.02,0,.03,0,.25-.01,.45-.21,.46-.46l.66-.66c.11,.19,.17,.41,.17,.64,0,.73-.59,1.31-1.31,1.31-.23,0-.45-.06-.64-.17-.21-.12-.39-.3-.51-.51-.11-.19-.17-.41-.17-.64Z"/><path class="cls-5" d="M140.81,159.12c0-.73,.59-1.31,1.31-1.31,.23,0,.45,.06,.64,.17l-.66,.66c-.25,.01-.45,.21-.46,.46,0,0,0,.02,0,.03,0,.27,.22,.49,.49,.49,0,0,.02,0,.03,0,.25-.01,.45-.21,.46-.46l.66-.66c.11,.19,.17,.41,.17,.64,0,.73-.59,1.31-1.31,1.31-.23,0-.45-.06-.64-.17-.21-.12-.39-.3-.51-.51-.11-.19-.17-.41-.17-.64Z"/><path class="cls-10" d="M142.12,157.81c0-.73,.59-1.31,1.31-1.31,.23,0,.45,.06,.64,.17l-.66,.66c-.25,.01-.45,.21-.46,.46,0,0,0,.02,0,.03,0,.27,.22,.49,.49,.49,0,0,.02,0,.03,0,.25-.01,.45-.21,.46-.46l.66-.66c.11,.19,.17,.41,.17,.64,0,.73-.59,1.31-1.31,1.31-.23,0-.45-.06-.64-.17-.21-.12-.39-.3-.51-.51-.11-.19-.17-.41-.17-.64Z"/><path class="cls-5" d="M143.43,156.49c0-.73,.59-1.31,1.31-1.31,.23,0,.45,.06,.64,.17l-.66,.66c-.25,.01-.45,.21-.46,.46,0,0,0,.02,0,.03,0,.27,.22,.49,.49,.49,0,0,.02,0,.03,0,.25-.01,.45-.21,.46-.46l.66-.66c.11,.19,.17,.41,.17,.64,0,.73-.59,1.31-1.31,1.31-.23,0-.45-.06-.64-.17-.21-.12-.39-.3-.51-.51-.11-.19-.17-.41-.17-.64Z"/><path class="cls-10" d="M132.39,167.54c0-.73,.59-1.31,1.31-1.31,.23,0,.45,.06,.64,.17l-.66,.66c-.25,.01-.45,.21-.46,.46,0,0,0,.02,0,.03,0,.27,.22,.49,.49,.49,0,0,.02,0,.03,0,.25-.01,.45-.21,.46-.46l.66-.66c.11,.19,.17,.41,.17,.64,0,.73-.59,1.31-1.31,1.31-.23,0-.45-.06-.64-.17-.21-.12-.39-.3-.51-.51-.11-.19-.17-.41-.17-.64Z"/><path class="cls-5" d="M133.7,166.23c0-.73,.59-1.31,1.31-1.31,.23,0,.45,.06,.64,.17l-.66,.66c-.25,.01-.45,.21-.46,.46,0,0,0,.02,0,.03,0,.27,.22,.49,.49,.49,0,0,.02,0,.03,0,.25-.01,.45-.21,.46-.46l.66-.66c.11,.19,.17,.41,.17,.64,0,.73-.59,1.31-1.31,1.31-.23,0-.45-.06-.64-.17-.21-.12-.39-.3-.51-.51-.11-.19-.17-.41-.17-.64Z"/><path class="cls-5" d="M136.33,163.6c0-.73,.59-1.31,1.31-1.31,.23,0,.45,.06,.64,.17l-.66,.66c-.25,.01-.45,.21-.46,.46,0,0,0,.02,0,.03,0,.27,.22,.49,.49,.49,0,0,.02,0,.03,0,.25-.01,.45-.21,.46-.46l.66-.66c.11,.19,.17,.41,.17,.64,0,.73-.59,1.31-1.31,1.31-.23,0-.45-.06-.64-.17-.21-.12-.39-.3-.51-.51-.11-.19-.17-.41-.17-.64Z"/><path class="cls-10" d="M148.63,151.29c0-.73,.59-1.31,1.31-1.31,.23,0,.45,.06,.64,.17l-.66,.66c-.25,.01-.45,.21-.46,.46,0,0,0,.02,0,.03,0,.27,.22,.49,.49,.49,0,0,.02,0,.03,0,.25-.01,.45-.21,.46-.46l.66-.66c.11,.19,.17,.41,.17,.64,0,.73-.59,1.31-1.31,1.31-.23,0-.45-.06-.64-.17-.21-.12-.39-.3-.51-.51-.11-.19-.17-.41-.17-.64Z"/><path class="cls-5" d="M149.67,150.26c0-.73,.59-1.31,1.31-1.31,.23,0,.45,.06,.64,.17l-.66,.66c-.25,.01-.45,.21-.46,.46,0,0,0,.02,0,.03,0,.27,.22,.49,.49,.49,0,0,.02,0,.03,0,.25-.01,.45-.21,.46-.46l.66-.66c.11,.19,.17,.41,.17,.64,0,.73-.59,1.31-1.31,1.31-.23,0-.45-.06-.64-.17-.21-.12-.39-.3-.51-.51-.11-.19-.17-.41-.17-.64Z"/><path class="cls-10" d="M150.98,148.95c0-.73,.59-1.31,1.31-1.31,.23,0,.45,.06,.64,.17l-.66,.66c-.25,.01-.45,.21-.46,.46,0,0,0,.02,0,.03,0,.27,.22,.49,.49,.49,0,0,.02,0,.03,0,.25-.01,.45-.21,.46-.46l.66-.66c.11,.19,.17,.41,.17,.64,0,.73-.59,1.31-1.31,1.31-.23,0-.45-.06-.64-.17-.21-.12-.39-.3-.51-.51-.11-.19-.17-.41-.17-.64Z"/><path class="cls-5" d="M152.29,147.63c0-.73,.59-1.31,1.31-1.31,.23,0,.45,.06,.64,.17l-.66,.66c-.25,.01-.45,.21-.46,.46,0,0,0,.02,0,.03,0,.27,.22,.49,.49,.49,0,0,.02,0,.03,0,.25-.01,.45-.21,.46-.46l.66-.66c.11,.19,.17,.41,.17,.64,0,.73-.59,1.31-1.31,1.31-.23,0-.45-.06-.64-.17-.21-.12-.39-.3-.51-.51-.11-.19-.17-.41-.17-.64Z"/><path class="cls-10" d="M153.33,146.6c0-.73,.59-1.31,1.31-1.31,.23,0,.45,.06,.64,.17l-.66,.66c-.25,.01-.45,.21-.46,.46,0,0,0,.02,0,.03,0,.27,.22,.49,.49,.49,0,0,.02,0,.03,0,.25-.01,.45-.21,.46-.46l.66-.66c.11,.19,.17,.41,.17,.64,0,.73-.59,1.31-1.31,1.31-.23,0-.45-.06-.64-.17-.21-.12-.39-.3-.51-.51-.11-.19-.17-.41-.17-.64Z"/><path class="cls-5" d="M72.13,227.79c0-.73,.59-1.31,1.31-1.31,.23,0,.45,.06,.64,.17l-.66,.66c-.25,.01-.45,.21-.46,.46,0,0,0,.02,0,.03,0,.27,.22,.49,.49,.49,0,0,.02,0,.03,0,.25-.01,.45-.21,.46-.46l.66-.66c.11,.19,.17,.41,.17,.64,0,.73-.59,1.31-1.31,1.31-.23,0-.45-.06-.64-.17-.21-.12-.39-.3-.51-.51-.11-.19-.17-.41-.17-.64Z"/><rect class="cls-6" x="145.65" y="-124.11" width=".64" height="320.45" transform="translate(68.29 -92.64) rotate(45)"/><path class="cls-10" d="M136.16,44.62c0-.73,.59-1.31,1.31-1.31,.23,0,.45,.06,.64,.17l-.66,.66c-.25,.01-.45,.21-.46,.46,0,0,0,.02,0,.03,0,.27,.22,.49,.49,.49,0,0,.02,0,.03,0,.25-.01,.45-.21,.46-.46l.66-.66c.11,.19,.17,.41,.17,.64,0,.73-.59,1.31-1.31,1.31-.23,0-.45-.06-.64-.17-.21-.12-.39-.3-.51-.51-.11-.19-.17-.41-.17-.64Z"/><path class="cls-5" d="M137.47,43.3c0-.73,.59-1.31,1.31-1.31,.23,0,.45,.06,.64,.17l-.66,.66c-.25,.01-.45,.21-.46,.46,0,0,0,.02,0,.03,0,.27,.22,.49,.49,.49,0,0,.02,0,.03,0,.25-.01,.45-.21,.46-.46l.66-.66c.11,.19,.17,.41,.17,.64,0,.73-.59,1.31-1.31,1.31-.23,0-.45-.06-.64-.17-.21-.12-.39-.3-.51-.51-.11-.19-.17-.41-.17-.64Z"/><path class="cls-10" d="M138.78,41.99c0-.73,.59-1.31,1.31-1.31,.23,0,.45,.06,.64,.17l-.66,.66c-.25,.01-.45,.21-.46,.46,0,0,0,.02,0,.03,0,.27,.22,.49,.49,.49,0,0,.02,0,.03,0,.25-.01,.45-.21,.46-.46l.66-.66c.11,.19,.17,.41,.17,.64,0,.73-.59,1.31-1.31,1.31-.23,0-.45-.06-.64-.17-.21-.12-.39-.3-.51-.51-.11-.19-.17-.41-.17-.64Z"/><path class="cls-5" d="M140.1,40.68c0-.73,.59-1.31,1.31-1.31,.23,0,.45,.06,.64,.17l-.66,.66c-.25,.01-.45,.21-.46,.46,0,0,0,.02,0,.03,0,.27,.22,.49,.49,.49,0,0,.02,0,.03,0,.25-.01,.45-.21,.46-.46l.66-.66c.11,.19,.17,.41,.17,.64,0,.73-.59,1.31-1.31,1.31-.23,0-.45-.06-.64-.17-.21-.12-.39-.3-.51-.51-.11-.19-.17-.41-.17-.64Z"/><path class="cls-10" d="M141.13,39.64c0-.73,.59-1.31,1.31-1.31,.23,0,.45,.06,.64,.17l-.66,.66c-.25,.01-.45,.21-.46,.46,0,0,0,.02,0,.03,0,.27,.22,.49,.49,.49,0,0,.02,0,.03,0,.25-.01,.45-.21,.46-.46l.66-.66c.11,.19,.17,.41,.17,.64,0,.73-.59,1.31-1.31,1.31-.23,0-.45-.06-.64-.17-.21-.12-.39-.3-.51-.51-.11-.19-.17-.41-.17-.64Z"/><path class="cls-5" d="M142.17,38.6c0-.73,.59-1.31,1.31-1.31,.23,0,.45,.06,.64,.17l-.66,.66c-.25,.01-.45,.21-.46,.46,0,0,0,.02,0,.03,0,.27,.22,.49,.49,.49,0,0,.02,0,.03,0,.25-.01,.45-.21,.46-.46l.66-.66c.11,.19,.17,.41,.17,.64,0,.73-.59,1.31-1.31,1.31-.23,0-.45-.06-.64-.17-.21-.12-.39-.3-.51-.51-.11-.19-.17-.41-.17-.64Z"/><path class="cls-10" d="M143.48,37.29c0-.73,.59-1.31,1.31-1.31,.23,0,.45,.06,.64,.17l-.66,.66c-.25,.01-.45,.21-.46,.46,0,0,0,.02,0,.03,0,.27,.22,.49,.49,.49,0,0,.02,0,.03,0,.25-.01,.45-.21,.46-.46l.66-.66c.11,.19,.17,.41,.17,.64,0,.73-.59,1.31-1.31,1.31-.23,0-.45-.06-.64-.17-.21-.12-.39-.3-.51-.51-.11-.19-.17-.41-.17-.64Z"/><path class="cls-5" d="M144.8,35.98c0-.73,.59-1.31,1.31-1.31,.23,0,.45,.06,.64,.17l-.66,.66c-.25,.01-.45,.21-.46,.46,0,0,0,.02,0,.03,0,.27,.22,.49,.49,.49,0,0,.02,0,.03,0,.25-.01,.45-.21,.46-.46l.66-.66c.11,.19,.17,.41,.17,.64,0,.73-.59,1.31-1.31,1.31-.23,0-.45-.06-.64-.17-.21-.12-.39-.3-.51-.51-.11-.19-.17-.41-.17-.64Z"/><path class="cls-10" d="M145.83,34.94c0-.73,.59-1.31,1.31-1.31,.23,0,.45,.06,.64,.17l-.66,.66c-.25,.01-.45,.21-.46,.46,0,0,0,.02,0,.03,0,.27,.22,.49,.49,.49,0,0,.02,0,.03,0,.25-.01,.45-.21,.46-.46l.66-.66c.11,.19,.17,.41,.17,.64,0,.73-.59,1.31-1.31,1.31-.23,0-.45-.06-.64-.17-.21-.12-.39-.3-.51-.51-.11-.19-.17-.41-.17-.64Z"/><path class="cls-5" d="M130.93,49.84c0-.73,.59-1.31,1.31-1.31,.23,0,.45,.06,.64,.17l-.66,.66c-.25,.01-.45,.21-.46,.46,0,0,0,.02,0,.03,0,.27,.22,.49,.49,.49,0,0,.02,0,.03,0,.25-.01,.45-.21,.46-.46l.66-.66c.11,.19,.17,.41,.17,.64,0,.73-.59,1.31-1.31,1.31-.23,0-.45-.06-.64-.17-.21-.12-.39-.3-.51-.51-.11-.19-.17-.41-.17-.64Z"/><rect class="cls-5" x="110.52" y="-92.71" width=".64" height="320.45" transform="translate(80.21 -58.6) rotate(45)"/><path class="cls-10" d="M101.03,76.02c0-.73,.59-1.31,1.31-1.31,.23,0,.45,.06,.64,.17l-.66,.66c-.25,.01-.45,.21-.46,.46,0,0,0,.02,0,.03,0,.27,.22,.49,.49,.49,0,0,.02,0,.03,0,.25-.01,.45-.21,.46-.46l.66-.66c.11,.19,.17,.41,.17,.64,0,.73-.59,1.31-1.31,1.31-.23,0-.45-.06-.64-.17-.21-.12-.39-.3-.51-.51-.11-.19-.17-.41-.17-.64Z"/><path class="cls-6" d="M102.34,74.71c0-.73,.59-1.31,1.31-1.31,.23,0,.45,.06,.64,.17l-.66,.66c-.25,.01-.45,.21-.46,.46,0,0,0,.02,0,.03,0,.27,.22,.49,.49,.49,0,0,.02,0,.03,0,.25-.01,.45-.21,.46-.46l.66-.66c.11,.19,.17,.41,.17,.64,0,.73-.59,1.31-1.31,1.31-.23,0-.45-.06-.64-.17-.21-.12-.39-.3-.51-.51-.11-.19-.17-.41-.17-.64Z"/><path class="cls-10" d="M103.65,73.39c0-.73,.59-1.31,1.31-1.31,.23,0,.45,.06,.64,.17l-.66,.66c-.25,.01-.45,.21-.46,.46,0,0,0,.02,0,.03,0,.27,.22,.49,.49,.49,0,0,.02,0,.03,0,.25-.01,.45-.21,.46-.46l.66-.66c.11,.19,.17,.41,.17,.64,0,.73-.59,1.31-1.31,1.31-.23,0-.45-.06-.64-.17-.21-.12-.39-.3-.51-.51-.11-.19-.17-.41-.17-.64Z"/><path class="cls-6" d="M104.96,72.08c0-.73,.59-1.31,1.31-1.31,.23,0,.45,.06,.64,.17l-.66,.66c-.25,.01-.45,.21-.46,.46,0,0,0,.02,0,.03,0,.27,.22,.49,.49,.49,0,0,.02,0,.03,0,.25-.01,.45-.21,.46-.46l.66-.66c.11,.19,.17,.41,.17,.64,0,.73-.59,1.31-1.31,1.31-.23,0-.45-.06-.64-.17-.21-.12-.39-.3-.51-.51-.11-.19-.17-.41-.17-.64Z"/><path class="cls-10" d="M106,71.04c0-.73,.59-1.31,1.31-1.31,.23,0,.45,.06,.64,.17l-.66,.66c-.25,.01-.45,.21-.46,.46,0,0,0,.02,0,.03,0,.27,.22,.49,.49,.49,0,0,.02,0,.03,0,.25-.01,.45-.21,.46-.46l.66-.66c.11,.19,.17,.41,.17,.64,0,.73-.59,1.31-1.31,1.31-.23,0-.45-.06-.64-.17-.21-.12-.39-.3-.51-.51-.11-.19-.17-.41-.17-.64Z"/><path class="cls-6" d="M107.04,70.01c0-.73,.59-1.31,1.31-1.31,.23,0,.45,.06,.64,.17l-.66,.66c-.25,.01-.45,.21-.46,.46,0,0,0,.02,0,.03,0,.27,.22,.49,.49,.49,0,0,.02,0,.03,0,.25-.01,.45-.21,.46-.46l.66-.66c.11,.19,.17,.41,.17,.64,0,.73-.59,1.31-1.31,1.31-.23,0-.45-.06-.64-.17-.21-.12-.39-.3-.51-.51-.11-.19-.17-.41-.17-.64Z"/><path class="cls-10" d="M108.35,68.69c0-.73,.59-1.31,1.31-1.31,.23,0,.45,.06,.64,.17l-.66,.66c-.25,.01-.45,.21-.46,.46,0,0,0,.02,0,.03,0,.27,.22,.49,.49,.49,0,0,.02,0,.03,0,.25-.01,.45-.21,.46-.46l.66-.66c.11,.19,.17,.41,.17,.64,0,.73-.59,1.31-1.31,1.31-.23,0-.45-.06-.64-.17-.21-.12-.39-.3-.51-.51-.11-.19-.17-.41-.17-.64Z"/><path class="cls-6" d="M109.66,67.38c0-.73,.59-1.31,1.31-1.31,.23,0,.45,.06,.64,.17l-.66,.66c-.25,.01-.45,.21-.46,.46,0,0,0,.02,0,.03,0,.27,.22,.49,.49,.49,0,0,.02,0,.03,0,.25-.01,.45-.21,.46-.46l.66-.66c.11,.19,.17,.41,.17,.64,0,.73-.59,1.31-1.31,1.31-.23,0-.45-.06-.64-.17-.21-.12-.39-.3-.51-.51-.11-.19-.17-.41-.17-.64Z"/><path class="cls-10" d="M110.7,66.34c0-.73,.59-1.31,1.31-1.31,.23,0,.45,.06,.64,.17l-.66,.66c-.25,.01-.45,.21-.46,.46,0,0,0,.02,0,.03,0,.27,.22,.49,.49,.49,0,0,.02,0,.03,0,.25-.01,.45-.21,.46-.46l.66-.66c.11,.19,.17,.41,.17,.64,0,.73-.59,1.31-1.31,1.31-.23,0-.45-.06-.64-.17-.21-.12-.39-.3-.51-.51-.11-.19-.17-.41-.17-.64Z"/><path class="cls-10" d="M163.16,13.88c0-.73,.59-1.31,1.31-1.31,.23,0,.45,.06,.64,.17l-.66,.66c-.25,.01-.45,.21-.46,.46,0,0,0,.02,0,.03,0,.27,.22,.49,.49,.49,0,0,.02,0,.03,0,.25-.01,.45-.21,.46-.46l.66-.66c.11,.19,.17,.41,.17,.64,0,.73-.59,1.31-1.31,1.31-.23,0-.45-.06-.64-.17-.21-.12-.39-.3-.51-.51-.11-.19-.17-.41-.17-.64Z"/><path class="cls-6" d="M164.47,12.57c0-.73,.59-1.31,1.31-1.31,.23,0,.45,.06,.64,.17l-.66,.66c-.25,.01-.45,.21-.46,.46,0,0,0,.02,0,.03,0,.27,.22,.49,.49,.49,0,0,.02,0,.03,0,.25-.01,.45-.21,.46-.46l.66-.66c.11,.19,.17,.41,.17,.64,0,.73-.59,1.31-1.31,1.31-.23,0-.45-.06-.64-.17-.21-.12-.39-.3-.51-.51-.11-.19-.17-.41-.17-.64Z"/><path class="cls-10" d="M165.78,11.26c0-.73,.59-1.31,1.31-1.31,.23,0,.45,.06,.64,.17l-.66,.66c-.25,.01-.45,.21-.46,.46,0,0,0,.02,0,.03,0,.27,.22,.49,.49,.49,0,0,.02,0,.03,0,.25-.01,.45-.21,.46-.46l.66-.66c.11,.19,.17,.41,.17,.64,0,.73-.59,1.31-1.31,1.31-.23,0-.45-.06-.64-.17-.21-.12-.39-.3-.51-.51-.11-.19-.17-.41-.17-.64Z"/><path class="cls-6" d="M167.1,9.95c0-.73,.59-1.31,1.31-1.31,.23,0,.45,.06,.64,.17l-.66,.66c-.25,.01-.45,.21-.46,.46,0,0,0,.02,0,.03,0,.27,.22,.49,.49,.49,0,0,.02,0,.03,0,.25-.01,.45-.21,.46-.46l.66-.66c.11,.19,.17,.41,.17,.64,0,.73-.59,1.31-1.31,1.31-.23,0-.45-.06-.64-.17-.21-.12-.39-.3-.51-.51-.11-.19-.17-.41-.17-.64Z"/><path class="cls-10" d="M156.05,20.99c0-.73,.59-1.31,1.31-1.31,.23,0,.45,.06,.64,.17l-.66,.66c-.25,.01-.45,.21-.46,.46,0,0,0,.02,0,.03,0,.27,.22,.49,.49,.49,0,0,.02,0,.03,0,.25-.01,.45-.21,.46-.46l.66-.66c.11,.19,.17,.41,.17,.64,0,.73-.59,1.31-1.31,1.31-.23,0-.45-.06-.64-.17-.21-.12-.39-.3-.51-.51-.11-.19-.17-.41-.17-.64Z"/><path class="cls-6" d="M157.37,19.68c0-.73,.59-1.31,1.31-1.31,.23,0,.45,.06,.64,.17l-.66,.66c-.25,.01-.45,.21-.46,.46,0,0,0,.02,0,.03,0,.27,.22,.49,.49,.49,0,0,.02,0,.03,0,.25-.01,.45-.21,.46-.46l.66-.66c.11,.19,.17,.41,.17,.64,0,.73-.59,1.31-1.31,1.31-.23,0-.45-.06-.64-.17-.21-.12-.39-.3-.51-.51-.11-.19-.17-.41-.17-.64Z"/><path class="cls-6" d="M159.99,17.05c0-.73,.59-1.31,1.31-1.31,.23,0,.45,.06,.64,.17l-.66,.66c-.25,.01-.45,.21-.46,.46,0,0,0,.02,0,.03,0,.27,.22,.49,.49,.49,0,0,.02,0,.03,0,.25-.01,.45-.21,.46-.46l.66-.66c.11,.19,.17,.41,.17,.64,0,.73-.59,1.31-1.31,1.31-.23,0-.45-.06-.64-.17-.21-.12-.39-.3-.51-.51-.11-.19-.17-.41-.17-.64Z"/><path class="cls-10" d="M172.3,4.75c0-.73,.59-1.31,1.31-1.31,.23,0,.45,.06,.64,.17l-.66,.66c-.25,.01-.45,.21-.46,.46,0,0,0,.02,0,.03,0,.27,.22,.49,.49,.49,0,0,.02,0,.03,0,.25-.01,.45-.21,.46-.46l.66-.66c.11,.19,.17,.41,.17,.64,0,.73-.59,1.31-1.31,1.31-.23,0-.45-.06-.64-.17-.21-.12-.39-.3-.51-.51-.11-.19-.17-.41-.17-.64Z"/><path class="cls-6" d="M173.33,3.71c0-.73,.59-1.31,1.31-1.31,.23,0,.45,.06,.64,.17l-.66,.66c-.25,.01-.45,.21-.46,.46,0,0,0,.02,0,.03,0,.27,.22,.49,.49,.49,0,0,.02,0,.03,0,.25-.01,.45-.21,.46-.46l.66-.66c.11,.19,.17,.41,.17,.64,0,.73-.59,1.31-1.31,1.31-.23,0-.45-.06-.64-.17-.21-.12-.39-.3-.51-.51-.11-.19-.17-.41-.17-.64Z"/><path class="cls-10" d="M174.65,2.4c0-.73,.59-1.31,1.31-1.31,.23,0,.45,.06,.64,.17l-.66,.66c-.25,.01-.45,.21-.46,.46,0,0,0,.02,0,.03,0,.27,.22,.49,.49,.49,0,0,.02,0,.03,0,.25-.01,.45-.21,.46-.46l.66-.66c.11,.19,.17,.41,.17,.64,0,.73-.59,1.31-1.31,1.31-.23,0-.45-.06-.64-.17-.21-.12-.39-.3-.51-.51-.11-.19-.17-.41-.17-.64Z"/><path class="cls-6" d="M175.96,1.08c0-.73,.59-1.31,1.31-1.31,.23,0,.45,.06,.64,.17l-.66,.66c-.25,.01-.45,.21-.46,.46,0,0,0,.02,0,.03,0,.27,.22,.49,.49,.49,0,0,.02,0,.03,0,.25-.01,.45-.21,.46-.46l.66-.66c.11,.19,.17,.41,.17,.64,0,.73-.59,1.31-1.31,1.31-.23,0-.45-.06-.64-.17-.21-.12-.39-.3-.51-.51-.11-.19-.17-.41-.17-.64Z"/><path class="cls-10" d="M177,.05c0-.73,.59-1.31,1.31-1.31,.23,0,.45,.06,.64,.17l-.66,.66c-.25,.01-.45,.21-.46,.46,0,0,0,.02,0,.03,0,.27,.22,.49,.49,.49,0,0,.02,0,.03,0,.25-.01,.45-.21,.46-.46l.66-.66c.11,.19,.17,.41,.17,.64,0,.73-.59,1.31-1.31,1.31-.23,0-.45-.06-.64-.17-.21-.12-.39-.3-.51-.51-.11-.19-.17-.41-.17-.64Z"/><path class="cls-5" d="M95.8,81.25c0-.73,.59-1.31,1.31-1.31,.23,0,.45,.06,.64,.17l-.66,.66c-.25,.01-.45,.21-.46,.46,0,0,0,.02,0,.03,0,.27,.22,.49,.49,.49,0,0,.02,0,.03,0,.25-.01,.45-.21,.46-.46l.66-.66c.11,.19,.17,.41,.17,.64,0,.73-.59,1.31-1.31,1.31-.23,0-.45-.06-.64-.17-.21-.12-.39-.3-.51-.51-.11-.19-.17-.41-.17-.64Z"/><path class="cls-5" d="M58.1,220.74c0-.73,.59-1.31,1.31-1.31,.23,0,.45,.06,.64,.17l-.66,.66c-.25,.01-.45,.21-.46,.46,0,0,0,.02,0,.03,0,.27,.22,.49,.49,.49,0,0,.02,0,.03,0,.25-.01,.45-.21,.46-.46l.66-.66c.11,.19,.17,.41,.17,.64,0,.73-.59,1.31-1.31,1.31-.23,0-.45-.06-.64-.17-.21-.12-.39-.3-.51-.51-.11-.19-.17-.41-.17-.64Z"/><path class="cls-6" d="M76.38,202.46c0-.73,.59-1.31,1.31-1.31,.23,0,.45,.06,.64,.17l-.66,.66c-.25,.01-.45,.21-.46,.46,0,0,0,.02,0,.03,0,.27,.22,.49,.49,.49,0,0,.02,0,.03,0,.25-.01,.45-.21,.46-.46l.66-.66c.11,.19,.17,.41,.17,.64,0,.73-.59,1.31-1.31,1.31-.23,0-.45-.06-.64-.17-.21-.12-.39-.3-.51-.51-.11-.19-.17-.41-.17-.64Z"/><path class="cls-5" d="M77.69,201.14c0-.73,.59-1.31,1.31-1.31,.23,0,.45,.06,.64,.17l-.66,.66c-.25,.01-.45,.21-.46,.46,0,0,0,.02,0,.03,0,.27,.22,.49,.49,.49,0,0,.02,0,.03,0,.25-.01,.45-.21,.46-.46l.66-.66c.11,.19,.17,.41,.17,.64,0,.73-.59,1.31-1.31,1.31-.23,0-.45-.06-.64-.17-.21-.12-.39-.3-.51-.51-.11-.19-.17-.41-.17-.64Z"/><path class="cls-6" d="M30.93,247.91c0-.73,.59-1.31,1.31-1.31,.23,0,.45,.06,.64,.17l-.66,.66c-.25,.01-.45,.21-.46,.46,0,0,0,.02,0,.03,0,.27,.22,.49,.49,.49,0,0,.02,0,.03,0,.25-.01,.45-.21,.46-.46l.66-.66c.11,.19,.17,.41,.17,.64,0,.73-.59,1.31-1.31,1.31-.23,0-.45-.06-.64-.17-.21-.12-.39-.3-.51-.51-.11-.19-.17-.41-.17-.64Z"/><path class="cls-5" d="M32.24,246.59c0-.73,.59-1.31,1.31-1.31,.23,0,.45,.06,.64,.17l-.66,.66c-.25,.01-.45,.21-.46,.46,0,0,0,.02,0,.03,0,.27,.22,.49,.49,.49,0,0,.02,0,.03,0,.25-.01,.45-.21,.46-.46l.66-.66c.11,.19,.17,.41,.17,.64,0,.73-.59,1.31-1.31,1.31-.23,0-.45-.06-.64-.17-.21-.12-.39-.3-.51-.51-.11-.19-.17-.41-.17-.64Z"/><path class="cls-6" d="M18.77,260.07c0-.73,.59-1.31,1.31-1.31,.23,0,.45,.06,.64,.17l-.66,.66c-.25,.01-.45,.21-.46,.46,0,0,0,.02,0,.03,0,.27,.22,.49,.49,.49,0,0,.02,0,.03,0,.25-.01,.45-.21,.46-.46l.66-.66c.11,.19,.17,.41,.17,.64,0,.73-.59,1.31-1.31,1.31-.23,0-.45-.06-.64-.17-.21-.12-.39-.3-.51-.51-.11-.19-.17-.41-.17-.64Z"/><path class="cls-5" d="M20.08,258.76c0-.73,.59-1.31,1.31-1.31,.23,0,.45,.06,.64,.17l-.66,.66c-.25,.01-.45,.21-.46,.46,0,0,0,.02,0,.03,0,.27,.22,.49,.49,.49,0,0,.02,0,.03,0,.25-.01,.45-.21,.46-.46l.66-.66c.11,.19,.17,.41,.17,.64,0,.73-.59,1.31-1.31,1.31-.23,0-.45-.06-.64-.17-.21-.12-.39-.3-.51-.51-.11-.19-.17-.41-.17-.64Z"/><path class="cls-6" d="M5.85,272.98c0-.73,.59-1.31,1.31-1.31,.23,0,.45,.06,.64,.17l-.66,.66c-.25,.01-.45,.21-.46,.46,0,0,0,.02,0,.03,0,.27,.22,.49,.49,.49,0,0,.02,0,.03,0,.25-.01,.45-.21,.46-.46l.66-.66c.11,.19,.17,.41,.17,.64,0,.73-.59,1.31-1.31,1.31-.23,0-.45-.06-.64-.17-.21-.12-.39-.3-.51-.51-.11-.19-.17-.41-.17-.64Z"/><path class="cls-5" d="M7.17,271.67c0-.73,.59-1.31,1.31-1.31,.23,0,.45,.06,.64,.17l-.66,.66c-.25,.01-.45,.21-.46,.46,0,0,0,.02,0,.03,0,.27,.22,.49,.49,.49,0,0,.02,0,.03,0,.25-.01,.45-.21,.46-.46l.66-.66c.11,.19,.17,.41,.17,.64,0,.73-.59,1.31-1.31,1.31-.23,0-.45-.06-.64-.17-.21-.12-.39-.3-.51-.51-.11-.19-.17-.41-.17-.64Z"/><path class="cls-6" d="M-2.26,281.1c0-.73,.59-1.31,1.31-1.31,.23,0,.45,.06,.64,.17l-.66,.66c-.25,.01-.45,.21-.46,.46,0,0,0,.02,0,.03,0,.27,.22,.49,.49,.49,0,0,.02,0,.03,0,.25-.01,.45-.21,.46-.46l.66-.66c.11,.19,.17,.41,.17,.64,0,.73-.59,1.31-1.31,1.31-.23,0-.45-.06-.64-.17-.21-.12-.39-.3-.51-.51-.11-.19-.17-.41-.17-.64Z"/><path class="cls-5" d="M40.08,238.76c0-.73,.59-1.31,1.31-1.31,.23,0,.45,.06,.64,.17l-.66,.66c-.25,.01-.45,.21-.46,.46,0,0,0,.02,0,.03,0,.27,.22,.49,.49,.49,0,0,.02,0,.03,0,.25-.01,.45-.21,.46-.46l.66-.66c.11,.19,.17,.41,.17,.64,0,.73-.59,1.31-1.31,1.31-.23,0-.45-.06-.64-.17-.21-.12-.39-.3-.51-.51-.11-.19-.17-.41-.17-.64Z"/><path class="cls-6" d="M8.48,270.36c0-.73,.59-1.31,1.31-1.31,.23,0,.45,.06,.64,.17l-.66,.66c-.25,.01-.45,.21-.46,.46,0,0,0,.02,0,.03,0,.27,.22,.49,.49,.49,0,0,.02,0,.03,0,.25-.01,.45-.21,.46-.46l.66-.66c.11,.19,.17,.41,.17,.64,0,.73-.59,1.31-1.31,1.31-.23,0-.45-.06-.64-.17-.21-.12-.39-.3-.51-.51-.11-.19-.17-.41-.17-.64Z"/><path class="cls-5" d="M9.79,269.05c0-.73,.59-1.31,1.31-1.31,.23,0,.45,.06,.64,.17l-.66,.66c-.25,.01-.45,.21-.46,.46,0,0,0,.02,0,.03,0,.27,.22,.49,.49,.49,0,0,.02,0,.03,0,.25-.01,.45-.21,.46-.46l.66-.66c.11,.19,.17,.41,.17,.64,0,.73-.59,1.31-1.31,1.31-.23,0-.45-.06-.64-.17-.21-.12-.39-.3-.51-.51-.11-.19-.17-.41-.17-.64Z"/><path class="cls-6" d="M33.58,245.26c0-.73,.59-1.31,1.31-1.31,.23,0,.45,.06,.64,.17l-.66,.66c-.25,.01-.45,.21-.46,.46,0,0,0,.02,0,.03,0,.27,.22,.49,.49,.49,0,0,.02,0,.03,0,.25-.01,.45-.21,.46-.46l.66-.66c.11,.19,.17,.41,.17,.64,0,.73-.59,1.31-1.31,1.31-.23,0-.45-.06-.64-.17-.21-.12-.39-.3-.51-.51-.11-.19-.17-.41-.17-.64Z"/><path class="cls-5" d="M34.89,243.94c0-.73,.59-1.31,1.31-1.31,.23,0,.45,.06,.64,.17l-.66,.66c-.25,.01-.45,.21-.46,.46,0,0,0,.02,0,.03,0,.27,.22,.49,.49,.49,0,0,.02,0,.03,0,.25-.01,.45-.21,.46-.46l.66-.66c.11,.19,.17,.41,.17,.64,0,.73-.59,1.31-1.31,1.31-.23,0-.45-.06-.64-.17-.21-.12-.39-.3-.51-.51-.11-.19-.17-.41-.17-.64Z"/><path class="cls-6" d="M95.97,182.87c0-.73,.59-1.31,1.31-1.31,.23,0,.45,.06,.64,.17l-.66,.66c-.25,.01-.45,.21-.46,.46,0,0,0,.02,0,.03,0,.27,.22,.49,.49,.49,0,0,.02,0,.03,0,.25-.01,.45-.21,.46-.46l.66-.66c.11,.19,.17,.41,.17,.64,0,.73-.59,1.31-1.31,1.31-.23,0-.45-.06-.64-.17-.21-.12-.39-.3-.51-.51-.11-.19-.17-.41-.17-.64Z"/><path class="cls-5" d="M97.28,181.55c0-.73,.59-1.31,1.31-1.31,.23,0,.45,.06,.64,.17l-.66,.66c-.25,.01-.45,.21-.46,.46,0,0,0,.02,0,.03,0,.27,.22,.49,.49,.49,0,0,.02,0,.03,0,.25-.01,.45-.21,.46-.46l.66-.66c.11,.19,.17,.41,.17,.64,0,.73-.59,1.31-1.31,1.31-.23,0-.45-.06-.64-.17-.21-.12-.39-.3-.51-.51-.11-.19-.17-.41-.17-.64Z"/><path class="cls-6" d="M98.32,180.52c0-.73,.59-1.31,1.31-1.31,.23,0,.45,.06,.64,.17l-.66,.66c-.25,.01-.45,.21-.46,.46,0,0,0,.02,0,.03,0,.27,.22,.49,.49,.49,0,0,.02,0,.03,0,.25-.01,.45-.21,.46-.46l.66-.66c.11,.19,.17,.41,.17,.64,0,.73-.59,1.31-1.31,1.31-.23,0-.45-.06-.64-.17-.21-.12-.39-.3-.51-.51-.11-.19-.17-.41-.17-.64Z"/><path class="cls-5" d="M71.15,207.69c0-.73,.59-1.31,1.31-1.31,.23,0,.45,.06,.64,.17l-.66,.66c-.25,.01-.45,.21-.46,.46,0,0,0,.02,0,.03,0,.27,.22,.49,.49,.49,0,0,.02,0,.03,0,.25-.01,.45-.21,.46-.46l.66-.66c.11,.19,.17,.41,.17,.64,0,.73-.59,1.31-1.31,1.31-.23,0-.45-.06-.64-.17-.21-.12-.39-.3-.51-.51-.11-.19-.17-.41-.17-.64Z"/><path class="cls-5" d="M21.07,278.86c0-.73,.59-1.31,1.31-1.31,.23,0,.45,.06,.64,.17l-.66,.66c-.25,.01-.45,.21-.46,.46,0,0,0,.02,0,.03,0,.27,.22,.49,.49,.49,0,0,.02,0,.03,0,.25-.01,.45-.21,.46-.46l.66-.66c.11,.19,.17,.41,.17,.64,0,.73-.59,1.31-1.31,1.31-.23,0-.45-.06-.64-.17-.21-.12-.39-.3-.51-.51-.11-.19-.17-.41-.17-.64Z"/><path class="cls-10" d="M11.15,288.77c0-.73,.59-1.31,1.31-1.31,.23,0,.45,.06,.64,.17l-.66,.66c-.25,.01-.45,.21-.46,.46,0,0,0,.02,0,.03,0,.27,.22,.49,.49,.49,0,0,.02,0,.03,0,.25-.01,.45-.21,.46-.46l.66-.66c.11,.19,.17,.41,.17,.64,0,.73-.59,1.31-1.31,1.31-.23,0-.45-.06-.64-.17-.21-.12-.39-.3-.51-.51-.11-.19-.17-.41-.17-.64Z"/><path class="cls-10" d="M22.2,277.72c0-.73,.59-1.31,1.31-1.31,.23,0,.45,.06,.64,.17l-.66,.66c-.25,.01-.45,.21-.46,.46,0,0,0,.02,0,.03,0,.27,.22,.49,.49,.49,0,0,.02,0,.03,0,.25-.01,.45-.21,.46-.46l.66-.66c.11,.19,.17,.41,.17,.64,0,.73-.59,1.31-1.31,1.31-.23,0-.45-.06-.64-.17-.21-.12-.39-.3-.51-.51-.11-.19-.17-.41-.17-.64Z"/><path class="cls-5" d="M12.46,287.46c0-.73,.59-1.31,1.31-1.31,.23,0,.45,.06,.64,.17l-.66,.66c-.25,.01-.45,.21-.46,.46,0,0,0,.02,0,.03,0,.27,.22,.49,.49,.49,0,0,.02,0,.03,0,.25-.01,.45-.21,.46-.46l.66-.66c.11,.19,.17,.41,.17,.64,0,.73-.59,1.31-1.31,1.31-.23,0-.45-.06-.64-.17-.21-.12-.39-.3-.51-.51-.11-.19-.17-.41-.17-.64Z"/><path class="cls-10" d="M13.6,286.33c0-.73,.59-1.31,1.31-1.31,.23,0,.45,.06,.64,.17l-.66,.66c-.25,.01-.45,.21-.46,.46,0,0,0,.02,0,.03,0,.27,.22,.49,.49,.49,0,0,.02,0,.03,0,.25-.01,.45-.21,.46-.46l.66-.66c.11,.19,.17,.41,.17,.64,0,.73-.59,1.31-1.31,1.31-.23,0-.45-.06-.64-.17-.21-.12-.39-.3-.51-.51-.11-.19-.17-.41-.17-.64Z"/><path class="cls-6" d="M107.86,176.66c0-1.63,1.32-2.94,2.94-2.94,.52,0,1.01,.13,1.43,.37l-1.49,1.49c-.55,.03-1,.47-1.03,1.03,0,.02,0,.04,0,.06,0,.6,.49,1.09,1.09,1.09,.02,0,.04,0,.06,0,.56-.03,1-.47,1.03-1.03l1.49-1.49c.24,.42,.37,.91,.37,1.43,0,1.63-1.32,2.94-2.94,2.94-.52,0-1.01-.13-1.43-.37-.48-.27-.88-.66-1.14-1.14-.24-.42-.37-.91-.37-1.43Z"/><path class="cls-10" d="M110.95,173.57c0-1.63,1.32-2.94,2.94-2.94,.52,0,1.01,.13,1.43,.37l-1.49,1.49c-.55,.03-1,.47-1.03,1.03,0,.02,0,.04,0,.06,0,.6,.49,1.09,1.09,1.09,.02,0,.04,0,.06,0,.56-.03,1-.47,1.03-1.03l1.49-1.49c.24,.42,.37,.91,.37,1.43,0,1.63-1.32,2.94-2.94,2.94-.52,0-1.01-.13-1.43-.37-.48-.27-.88-.66-1.14-1.14-.24-.42-.37-.91-.37-1.43Z"/><path class="cls-6" d="M86.36,198.16c0-1.63,1.32-2.94,2.94-2.94,.52,0,1.01,.13,1.43,.37l-1.49,1.49c-.55,.03-1,.47-1.03,1.03,0,.02,0,.04,0,.06,0,.6,.49,1.09,1.09,1.09,.02,0,.04,0,.06,0,.56-.03,1-.47,1.03-1.03l1.49-1.49c.24,.42,.37,.91,.37,1.43,0,1.63-1.32,2.94-2.94,2.94-.52,0-1.01-.13-1.43-.37-.48-.27-.88-.66-1.14-1.14-.24-.42-.37-.91-.37-1.43Z"/><path class="cls-10" d="M89.45,195.07c0-1.63,1.32-2.94,2.94-2.94,.52,0,1.01,.13,1.43,.37l-1.49,1.49c-.55,.03-1,.47-1.03,1.03,0,.02,0,.04,0,.06,0,.6,.49,1.09,1.09,1.09,.02,0,.04,0,.06,0,.56-.03,1-.47,1.03-1.03l1.49-1.49c.24,.42,.37,.91,.37,1.43,0,1.63-1.32,2.94-2.94,2.94-.52,0-1.01-.13-1.43-.37-.48-.27-.88-.66-1.14-1.14-.24-.42-.37-.91-.37-1.43Z"/><path class="cls-6" d="M92.28,192.24c0-1.63,1.32-2.94,2.94-2.94,.52,0,1.01,.13,1.43,.37l-1.49,1.49c-.55,.03-1,.47-1.03,1.03,0,.02,0,.04,0,.06,0,.6,.49,1.09,1.09,1.09,.02,0,.04,0,.06,0,.56-.03,1-.47,1.03-1.03l1.49-1.49c.24,.42,.37,.91,.37,1.43,0,1.63-1.32,2.94-2.94,2.94-.52,0-1.01-.13-1.43-.37-.48-.27-.88-.66-1.14-1.14-.24-.42-.37-.91-.37-1.43Z"/><path class="cls-10" d="M95.37,189.15c0-1.63,1.32-2.94,2.94-2.94,.52,0,1.01,.13,1.43,.37l-1.49,1.49c-.55,.03-1,.47-1.03,1.03,0,.02,0,.04,0,.06,0,.6,.49,1.09,1.09,1.09,.02,0,.04,0,.06,0,.56-.03,1-.47,1.03-1.03l1.49-1.49c.24,.42,.37,.91,.37,1.43,0,1.63-1.32,2.94-2.94,2.94-.52,0-1.01-.13-1.43-.37-.48-.27-.88-.66-1.14-1.14-.24-.42-.37-.91-.37-1.43Z"/><path class="cls-10" d="M196.28,302.33c0-3.5,2.84-6.34,6.34-6.34,1.12,0,2.17,.29,3.08,.8l-3.21,3.21c-1.2,.06-2.16,1.02-2.22,2.22,0,.04,0,.08,0,.12,0,1.29,1.05,2.34,2.34,2.34,.04,0,.08,0,.12,0,1.2-.06,2.16-1.02,2.22-2.22l3.21-3.21c.51,.91,.8,1.96,.8,3.08,0,3.5-2.84,6.34-6.34,6.34-1.12,0-2.17-.29-3.08-.8-1.03-.58-1.89-1.43-2.46-2.46-.51-.91-.8-1.96-.8-3.08Z"/><path class="cls-6" d="M191.96,290.46c0,.73-.59,1.31-1.31,1.31-.23,0-.45-.06-.64-.17l.66-.66c.25-.01,.45-.21,.46-.46,0,0,0-.02,0-.03,0-.27-.22-.49-.49-.49,0,0-.02,0-.03,0-.25,.01-.45,.21-.46,.46l-.66,.66c-.11-.19-.17-.41-.17-.64,0-.73,.59-1.31,1.31-1.31,.23,0,.45,.06,.64,.17,.21,.12,.39,.3,.51,.51,.11,.19,.17,.41,.17,.64Z"/><path class="cls-6" d="M200.47,281.95c0,.73-.59,1.31-1.31,1.31-.23,0-.45-.06-.64-.17l.66-.66c.25-.01,.45-.21,.46-.46,0,0,0-.02,0-.03,0-.27-.22-.49-.49-.49,0,0-.02,0-.03,0-.25,.01-.45,.21-.46,.46l-.66,.66c-.11-.19-.17-.41-.17-.64,0-.73,.59-1.31,1.31-1.31,.23,0,.45,.06,.64,.17,.21,.12,.39,.3,.51,.51,.11,.19,.17,.41,.17,.64Z"/><path class="cls-10" d="M199.34,283.08c0,.73-.59,1.31-1.31,1.31-.23,0-.45-.06-.64-.17l.66-.66c.25-.01,.45-.21,.46-.46,0,0,0-.02,0-.03,0-.27-.22-.49-.49-.49,0,0-.02,0-.03,0-.25,.01-.45,.21-.46,.46l-.66,.66c-.11-.19-.17-.41-.17-.64,0-.73,.59-1.31,1.31-1.31,.23,0,.45,.06,.64,.17,.21,.12,.39,.3,.51,.51,.11,.19,.17,.41,.17,.64Z"/><path class="cls-10" d="M190.82,291.59c0,.73-.59,1.31-1.31,1.31-.23,0-.45-.06-.64-.17l.66-.66c.25-.01,.45-.21,.46-.46,0,0,0-.02,0-.03,0-.27-.22-.49-.49-.49,0,0-.02,0-.03,0-.25,.01-.45,.21-.46,.46l-.66,.66c-.11-.19-.17-.41-.17-.64,0-.73,.59-1.31,1.31-1.31,.23,0,.45,.06,.64,.17,.21,.12,.39,.3,.51,.51,.11,.19,.17,.41,.17,.64Z"/><path class="cls-6" d="M198.03,284.39c0,.73-.59,1.31-1.31,1.31-.23,0-.45-.06-.64-.17l.66-.66c.25-.01,.45-.21,.46-.46,0,0,0-.02,0-.03,0-.27-.22-.49-.49-.49,0,0-.02,0-.03,0-.25,.01-.45,.21-.46,.46l-.66,.66c-.11-.19-.17-.41-.17-.64,0-.73,.59-1.31,1.31-1.31,.23,0,.45,.06,.64,.17,.21,.12,.39,.3,.51,.51,.11,.19,.17,.41,.17,.64Z"/><path class="cls-10" d="M196.89,285.52c0,.73-.59,1.31-1.31,1.31-.23,0-.45-.06-.64-.17l.66-.66c.25-.01,.45-.21,.46-.46,0,0,0-.02,0-.03,0-.27-.22-.49-.49-.49,0,0-.02,0-.03,0-.25,.01-.45,.21-.46,.46l-.66,.66c-.11-.19-.17-.41-.17-.64,0-.73,.59-1.31,1.31-1.31,.23,0,.45,.06,.64,.17,.21,.12,.39,.3,.51,.51,.11,.19,.17,.41,.17,.64Z"/><path class="cls-5" d="M178.3,31.83c0,1.63-1.32,2.94-2.94,2.94-.52,0-1.01-.13-1.43-.37l1.49-1.49c.55-.03,1-.47,1.03-1.03,0-.02,0-.04,0-.06,0-.6-.49-1.09-1.09-1.09-.02,0-.04,0-.06,0-.56,.03-1,.47-1.03,1.03l-1.49,1.49c-.24-.42-.37-.91-.37-1.43,0-1.63,1.32-2.94,2.94-2.94,.52,0,1.01,.13,1.43,.37,.48,.27,.88,.66,1.14,1.14,.24,.42,.37,.91,.37,1.43Z"/><path class="cls-6" d="M175.2,34.93c0,1.63-1.32,2.94-2.94,2.94-.52,0-1.01-.13-1.43-.37l1.49-1.49c.55-.03,1-.47,1.03-1.03,0-.02,0-.04,0-.06,0-.6-.49-1.09-1.09-1.09-.02,0-.04,0-.06,0-.56,.03-1,.47-1.03,1.03l-1.49,1.49c-.24-.42-.37-.91-.37-1.43,0-1.63,1.32-2.94,2.94-2.94,.52,0,1.01,.13,1.43,.37,.48,.27,.88,.66,1.14,1.14,.24,.42,.37,.91,.37,1.43Z"/><path class="cls-5" d="M172.58,37.55c0,1.63-1.32,2.94-2.94,2.94-.52,0-1.01-.13-1.43-.37l1.49-1.49c.55-.03,1-.47,1.03-1.03,0-.02,0-.04,0-.06,0-.6-.49-1.09-1.09-1.09-.02,0-.04,0-.06,0-.56,.03-1,.47-1.03,1.03l-1.49,1.49c-.24-.42-.37-.91-.37-1.43,0-1.63,1.32-2.94,2.94-2.94,.52,0,1.01,.13,1.43,.37,.48,.27,.88,.66,1.14,1.14,.24,.42,.37,.91,.37,1.43Z"/><path class="cls-6" d="M169.49,40.64c0,1.63-1.32,2.94-2.94,2.94-.52,0-1.01-.13-1.43-.37l1.49-1.49c.55-.03,1-.47,1.03-1.03,0-.02,0-.04,0-.06,0-.6-.49-1.09-1.09-1.09-.02,0-.04,0-.06,0-.56,.03-1,.47-1.03,1.03l-1.49,1.49c-.24-.42-.37-.91-.37-1.43,0-1.63,1.32-2.94,2.94-2.94,.52,0,1.01,.13,1.43,.37,.48,.27,.88,.66,1.14,1.14,.24,.42,.37,.91,.37,1.43Z"/><path class="cls-5" d="M146.88,63.25c0,1.63-1.32,2.94-2.94,2.94-.52,0-1.01-.13-1.43-.37l1.49-1.49c.55-.03,1-.47,1.03-1.03,0-.02,0-.04,0-.06,0-.6-.49-1.09-1.09-1.09-.02,0-.04,0-.06,0-.56,.03-1,.47-1.03,1.03l-1.49,1.49c-.24-.42-.37-.91-.37-1.43,0-1.63,1.32-2.94,2.94-2.94,.52,0,1.01,.13,1.43,.37,.48,.27,.88,.66,1.14,1.14,.24,.42,.37,.91,.37,1.43Z"/><path class="cls-6" d="M143.78,66.35c0,1.63-1.32,2.94-2.94,2.94-.52,0-1.01-.13-1.43-.37l1.49-1.49c.55-.03,1-.47,1.03-1.03,0-.02,0-.04,0-.06,0-.6-.49-1.09-1.09-1.09-.02,0-.04,0-.06,0-.56,.03-1,.47-1.03,1.03l-1.49,1.49c-.24-.42-.37-.91-.37-1.43,0-1.63,1.32-2.94,2.94-2.94,.52,0,1.01,.13,1.43,.37,.48,.27,.88,.66,1.14,1.14,.24,.42,.37,.91,.37,1.43Z"/><path class="cls-5" d="M141.16,68.97c0,1.63-1.32,2.94-2.94,2.94-.52,0-1.01-.13-1.43-.37l1.49-1.49c.55-.03,1-.47,1.03-1.03,0-.02,0-.04,0-.06,0-.6-.49-1.09-1.09-1.09-.02,0-.04,0-.06,0-.56,.03-1,.47-1.03,1.03l-1.49,1.49c-.24-.42-.37-.91-.37-1.43,0-1.63,1.32-2.94,2.94-2.94,.52,0,1.01,.13,1.43,.37,.48,.27,.88,.66,1.14,1.14,.24,.42,.37,.91,.37,1.43Z"/><path class="cls-5" d="M50.28,160.05c0,1.73-1.41,3.14-3.14,3.14-.55,0-1.07-.14-1.53-.4l1.59-1.59c.59-.03,1.07-.51,1.1-1.1,0-.02,0-.04,0-.06,0-.64-.52-1.16-1.16-1.16-.02,0-.04,0-.06,0-.59,.03-1.07,.51-1.1,1.1l-1.59,1.59c-.25-.45-.4-.97-.4-1.53,0-1.73,1.41-3.14,3.14-3.14,.55,0,1.07,.14,1.53,.4,.51,.28,.93,.71,1.22,1.22,.25,.45,.4,.97,.4,1.53Z"/><path class="cls-6" d="M46.97,163.35c0,1.73-1.41,3.14-3.14,3.14-.55,0-1.07-.14-1.53-.4l1.59-1.59c.59-.03,1.07-.51,1.1-1.1,0-.02,0-.04,0-.06,0-.64-.52-1.16-1.16-1.16-.02,0-.04,0-.06,0-.59,.03-1.07,.51-1.1,1.1l-1.59,1.59c-.25-.45-.4-.97-.4-1.53,0-1.73,1.41-3.14,3.14-3.14,.55,0,1.07,.14,1.53,.4,.51,.28,.93,.71,1.22,1.22,.25,.45,.4,.97,.4,1.53Z"/><path class="cls-5" d="M44.18,166.15c0,1.73-1.41,3.14-3.14,3.14-.55,0-1.07-.14-1.53-.4l1.59-1.59c.59-.03,1.07-.51,1.1-1.1,0-.02,0-.04,0-.06,0-.64-.52-1.16-1.16-1.16-.02,0-.04,0-.06,0-.59,.03-1.07,.51-1.1,1.1l-1.59,1.59c-.25-.45-.4-.97-.4-1.53,0-1.73,1.41-3.14,3.14-3.14,.55,0,1.07,.14,1.53,.4,.51,.28,.93,.71,1.22,1.22,.25,.45,.4,.97,.4,1.53Z"/><path class="cls-6" d="M40.88,169.45c0,1.73-1.41,3.14-3.14,3.14-.55,0-1.07-.14-1.53-.4l1.59-1.59c.59-.03,1.07-.51,1.1-1.1,0-.02,0-.04,0-.06,0-.64-.52-1.16-1.16-1.16-.02,0-.04,0-.06,0-.59,.03-1.07,.51-1.1,1.1l-1.59,1.59c-.25-.45-.4-.97-.4-1.53,0-1.73,1.41-3.14,3.14-3.14,.55,0,1.07,.14,1.53,.4,.51,.28,.93,.71,1.22,1.22,.25,.45,.4,.97,.4,1.53Z"/><path class="cls-6" d="M138.07,72.06c0,1.63-1.32,2.94-2.94,2.94-.52,0-1.01-.13-1.43-.37l1.49-1.49c.55-.03,1-.47,1.03-1.03,0-.02,0-.04,0-.06,0-.6-.49-1.09-1.09-1.09-.02,0-.04,0-.06,0-.56,.03-1,.47-1.03,1.03l-1.49,1.49c-.24-.42-.37-.91-.37-1.43,0-1.63,1.32-2.94,2.94-2.94,.52,0,1.01,.13,1.43,.37,.48,.27,.88,.66,1.14,1.14,.24,.42,.37,.91,.37,1.43Z"/><path class="cls-5" d="M171.79,101.9c-1.63,0-2.94-1.32-2.94-2.94,0-.52,.13-1.01,.37-1.43l1.49,1.49c.03,.55,.47,1,1.03,1.03,.02,0,.04,0,.06,0,.6,0,1.09-.49,1.09-1.09,0-.02,0-.04,0-.06-.03-.56-.47-1-1.03-1.03l-1.49-1.49c.42-.24,.91-.37,1.43-.37,1.63,0,2.94,1.32,2.94,2.94,0,.52-.13,1.01-.37,1.43-.27,.48-.66,.88-1.14,1.14-.42,.24-.91,.37-1.43,.37Z"/><path class="cls-6" d="M168.69,98.81c-1.63,0-2.94-1.32-2.94-2.94,0-.52,.13-1.01,.37-1.43l1.49,1.49c.03,.55,.47,1,1.03,1.03,.02,0,.04,0,.06,0,.6,0,1.09-.49,1.09-1.09,0-.02,0-.04,0-.06-.03-.56-.47-1-1.03-1.03l-1.49-1.49c.42-.24,.91-.37,1.43-.37,1.63,0,2.94,1.32,2.94,2.94,0,.52-.13,1.01-.37,1.43-.27,.48-.66,.88-1.14,1.14-.42,.24-.91,.37-1.43,.37Z"/><path class="cls-5" d="M166.07,96.19c-1.63,0-2.94-1.32-2.94-2.94,0-.52,.13-1.01,.37-1.43l1.49,1.49c.03,.55,.47,1,1.03,1.03,.02,0,.04,0,.06,0,.6,0,1.09-.49,1.09-1.09,0-.02,0-.04,0-.06-.03-.56-.47-1-1.03-1.03l-1.49-1.49c.42-.24,.91-.37,1.43-.37,1.63,0,2.94,1.32,2.94,2.94,0,.52-.13,1.01-.37,1.43-.27,.48-.66,.88-1.14,1.14-.42,.24-.91,.37-1.43,.37Z"/><path class="cls-6" d="M162.98,93.09c-1.63,0-2.94-1.32-2.94-2.94,0-.52,.13-1.01,.37-1.43l1.49,1.49c.03,.55,.47,1,1.03,1.03,.02,0,.04,0,.06,0,.6,0,1.09-.49,1.09-1.09,0-.02,0-.04,0-.06-.03-.56-.47-1-1.03-1.03l-1.49-1.49c.42-.24,.91-.37,1.43-.37,1.63,0,2.94,1.32,2.94,2.94,0,.52-.13,1.01-.37,1.43-.27,.48-.66,.88-1.14,1.14-.42,.24-.91,.37-1.43,.37Z"/><path class="cls-5" d="M203.53,133.64c-1.63,0-2.94-1.32-2.94-2.94,0-.52,.13-1.01,.37-1.43l1.49,1.49c.03,.55,.47,1,1.03,1.03,.02,0,.04,0,.06,0,.6,0,1.09-.49,1.09-1.09,0-.02,0-.04,0-.06-.03-.56-.47-1-1.03-1.03l-1.49-1.49c.42-.24,.91-.37,1.43-.37,1.63,0,2.94,1.32,2.94,2.94,0,.52-.13,1.01-.37,1.43-.27,.48-.66,.88-1.14,1.14-.42,.24-.91,.37-1.43,.37Z"/><path class="cls-6" d="M200.44,130.55c-1.63,0-2.94-1.32-2.94-2.94,0-.52,.13-1.01,.37-1.43l1.49,1.49c.03,.55,.47,1,1.03,1.03,.02,0,.04,0,.06,0,.6,0,1.09-.49,1.09-1.09,0-.02,0-.04,0-.06-.03-.56-.47-1-1.03-1.03l-1.49-1.49c.42-.24,.91-.37,1.43-.37,1.63,0,2.94,1.32,2.94,2.94,0,.52-.13,1.01-.37,1.43-.27,.48-.66,.88-1.14,1.14-.42,.24-.91,.37-1.43,.37Z"/><path class="cls-5" d="M246.7,176.82c-1.63,0-2.94-1.32-2.94-2.94,0-.52,.13-1.01,.37-1.43l1.49,1.49c.03,.55,.47,1,1.03,1.03,.02,0,.04,0,.06,0,.6,0,1.09-.49,1.09-1.09,0-.02,0-.04,0-.06-.03-.56-.47-1-1.03-1.03l-1.49-1.49c.42-.24,.91-.37,1.43-.37,1.63,0,2.94,1.32,2.94,2.94,0,.52-.13,1.01-.37,1.43-.27,.48-.66,.88-1.14,1.14-.42,.24-.91,.37-1.43,.37Z"/><path class="cls-6" d="M243.61,173.72c-1.63,0-2.94-1.32-2.94-2.94,0-.52,.13-1.01,.37-1.43l1.49,1.49c.03,.55,.47,1,1.03,1.03,.02,0,.04,0,.06,0,.6,0,1.09-.49,1.09-1.09,0-.02,0-.04,0-.06-.03-.56-.47-1-1.03-1.03l-1.49-1.49c.42-.24,.91-.37,1.43-.37,1.63,0,2.94,1.32,2.94,2.94,0,.52-.13,1.01-.37,1.43-.27,.48-.66,.88-1.14,1.14-.42,.24-.91,.37-1.43,.37Z"/><path class="cls-5" d="M240.99,171.1c-1.63,0-2.94-1.32-2.94-2.94,0-.52,.13-1.01,.37-1.43l1.49,1.49c.03,.55,.47,1,1.03,1.03,.02,0,.04,0,.06,0,.6,0,1.09-.49,1.09-1.09,0-.02,0-.04,0-.06-.03-.56-.47-1-1.03-1.03l-1.49-1.49c.42-.24,.91-.37,1.43-.37,1.63,0,2.94,1.32,2.94,2.94,0,.52-.13,1.01-.37,1.43-.27,.48-.66,.88-1.14,1.14-.42,.24-.91,.37-1.43,.37Z"/><path class="cls-6" d="M237.89,168.01c-1.63,0-2.94-1.32-2.94-2.94,0-.52,.13-1.01,.37-1.43l1.49,1.49c.03,.55,.47,1,1.03,1.03,.02,0,.04,0,.06,0,.6,0,1.09-.49,1.09-1.09,0-.02,0-.04,0-.06-.03-.56-.47-1-1.03-1.03l-1.49-1.49c.42-.24,.91-.37,1.43-.37,1.63,0,2.94,1.32,2.94,2.94,0,.52-.13,1.01-.37,1.43-.27,.48-.66,.88-1.14,1.14-.42,.24-.91,.37-1.43,.37Z"/><path class="cls-6" d="M281.06,211.18c-1.63,0-2.94-1.32-2.94-2.94,0-.52,.13-1.01,.37-1.43l1.49,1.49c.03,.55,.47,1,1.03,1.03,.02,0,.04,0,.06,0,.6,0,1.09-.49,1.09-1.09,0-.02,0-.04,0-.06-.03-.56-.47-1-1.03-1.03l-1.49-1.49c.42-.24,.91-.37,1.43-.37,1.63,0,2.94,1.32,2.94,2.94,0,.52-.13,1.01-.37,1.43-.27,.48-.66,.88-1.14,1.14-.42,.24-.91,.37-1.43,.37Z"/><path class="cls-5" d="M278.44,208.56c-1.63,0-2.94-1.32-2.94-2.94,0-.52,.13-1.01,.37-1.43l1.49,1.49c.03,.55,.47,1,1.03,1.03,.02,0,.04,0,.06,0,.6,0,1.09-.49,1.09-1.09,0-.02,0-.04,0-.06-.03-.56-.47-1-1.03-1.03l-1.49-1.49c.42-.24,.91-.37,1.43-.37,1.63,0,2.94,1.32,2.94,2.94,0,.52-.13,1.01-.37,1.43-.27,.48-.66,.88-1.14,1.14-.42,.24-.91,.37-1.43,.37Z"/><path class="cls-6" d="M275.35,205.47c-1.63,0-2.94-1.32-2.94-2.94,0-.52,.13-1.01,.37-1.43l1.49,1.49c.03,.55,.47,1,1.03,1.03,.02,0,.04,0,.06,0,.6,0,1.09-.49,1.09-1.09,0-.02,0-.04,0-.06-.03-.56-.47-1-1.03-1.03l-1.49-1.49c.42-.24,.91-.37,1.43-.37,1.63,0,2.94,1.32,2.94,2.94,0,.52-.13,1.01-.37,1.43-.27,.48-.66,.88-1.14,1.14-.42,.24-.91,.37-1.43,.37Z"/><path class="cls-5" d="M321.61,251.73c-1.63,0-2.94-1.32-2.94-2.94,0-.52,.13-1.01,.37-1.43l1.49,1.49c.03,.55,.47,1,1.03,1.03,.02,0,.04,0,.06,0,.6,0,1.09-.49,1.09-1.09,0-.02,0-.04,0-.06-.03-.56-.47-1-1.03-1.03l-1.49-1.49c.42-.24,.91-.37,1.43-.37,1.63,0,2.94,1.32,2.94,2.94,0,.52-.13,1.01-.37,1.43-.27,.48-.66,.88-1.14,1.14-.42,.24-.91,.37-1.43,.37Z"/><path class="cls-6" d="M318.52,248.64c-1.63,0-2.94-1.32-2.94-2.94,0-.52,.13-1.01,.37-1.43l1.49,1.49c.03,.55,.47,1,1.03,1.03,.02,0,.04,0,.06,0,.6,0,1.09-.49,1.09-1.09,0-.02,0-.04,0-.06-.03-.56-.47-1-1.03-1.03l-1.49-1.49c.42-.24,.91-.37,1.43-.37,1.63,0,2.94,1.32,2.94,2.94,0,.52-.13,1.01-.37,1.43-.27,.48-.66,.88-1.14,1.14-.42,.24-.91,.37-1.43,.37Z"/><path class="cls-5" d="M315.9,246.02c-1.63,0-2.94-1.32-2.94-2.94,0-.52,.13-1.01,.37-1.43l1.49,1.49c.03,.55,.47,1,1.03,1.03,.02,0,.04,0,.06,0,.6,0,1.09-.49,1.09-1.09,0-.02,0-.04,0-.06-.03-.56-.47-1-1.03-1.03l-1.49-1.49c.42-.24,.91-.37,1.43-.37,1.63,0,2.94,1.32,2.94,2.94,0,.52-.13,1.01-.37,1.43-.27,.48-.66,.88-1.14,1.14-.42,.24-.91,.37-1.43,.37Z"/><path class="cls-6" d="M312.81,242.92c-1.63,0-2.94-1.32-2.94-2.94,0-.52,.13-1.01,.37-1.43l1.49,1.49c.03,.55,.47,1,1.03,1.03,.02,0,.04,0,.06,0,.6,0,1.09-.49,1.09-1.09,0-.02,0-.04,0-.06-.03-.56-.47-1-1.03-1.03l-1.49-1.49c.42-.24,.91-.37,1.43-.37,1.63,0,2.94,1.32,2.94,2.94,0,.52-.13,1.01-.37,1.43-.27,.48-.66,.88-1.14,1.14-.42,.24-.91,.37-1.43,.37Z"/><path class="cls-5" d="M359.07,289.19c-1.63,0-2.94-1.32-2.94-2.94,0-.52,.13-1.01,.37-1.43l1.49,1.49c.03,.55,.47,1,1.03,1.03,.02,0,.04,0,.06,0,.6,0,1.09-.49,1.09-1.09,0-.02,0-.04,0-.06-.03-.56-.47-1-1.03-1.03l-1.49-1.49c.42-.24,.91-.37,1.43-.37,1.63,0,2.94,1.32,2.94,2.94,0,.52-.13,1.01-.37,1.43-.27,.48-.66,.88-1.14,1.14-.42,.24-.91,.37-1.43,.37Z"/><path class="cls-6" d="M355.98,286.09c-1.63,0-2.94-1.32-2.94-2.94,0-.52,.13-1.01,.37-1.43l1.49,1.49c.03,.55,.47,1,1.03,1.03,.02,0,.04,0,.06,0,.6,0,1.09-.49,1.09-1.09,0-.02,0-.04,0-.06-.03-.56-.47-1-1.03-1.03l-1.49-1.49c.42-.24,.91-.37,1.43-.37,1.63,0,2.94,1.32,2.94,2.94,0,.52-.13,1.01-.37,1.43-.27,.48-.66,.88-1.14,1.14-.42,.24-.91,.37-1.43,.37Z"/><path class="cls-5" d="M353.36,283.47c-1.63,0-2.94-1.32-2.94-2.94,0-.52,.13-1.01,.37-1.43l1.49,1.49c.03,.55,.47,1,1.03,1.03,.02,0,.04,0,.06,0,.6,0,1.09-.49,1.09-1.09,0-.02,0-.04,0-.06-.03-.56-.47-1-1.03-1.03l-1.49-1.49c.42-.24,.91-.37,1.43-.37,1.63,0,2.94,1.32,2.94,2.94,0,.52-.13,1.01-.37,1.43-.27,.48-.66,.88-1.14,1.14-.42,.24-.91,.37-1.43,.37Z"/><path class="cls-6" d="M350.26,280.38c-1.63,0-2.94-1.32-2.94-2.94,0-.52,.13-1.01,.37-1.43l1.49,1.49c.03,.55,.47,1,1.03,1.03,.02,0,.04,0,.06,0,.6,0,1.09-.49,1.09-1.09,0-.02,0-.04,0-.06-.03-.56-.47-1-1.03-1.03l-1.49-1.49c.42-.24,.91-.37,1.43-.37,1.63,0,2.94,1.32,2.94,2.94,0,.52-.13,1.01-.37,1.43-.27,.48-.66,.88-1.14,1.14-.42,.24-.91,.37-1.43,.37Z"/><path class="cls-5" d="M37.31,173.02c0,1.73-1.41,3.14-3.14,3.14-.55,0-1.07-.14-1.53-.4l1.59-1.59c.59-.03,1.07-.51,1.1-1.1,0-.02,0-.04,0-.06,0-.64-.52-1.16-1.16-1.16-.02,0-.04,0-.06,0-.59,.03-1.07,.51-1.1,1.1l-1.59,1.59c-.25-.45-.4-.97-.4-1.53,0-1.73,1.41-3.14,3.14-3.14,.55,0,1.07,.14,1.53,.4,.51,.28,.93,.71,1.22,1.22,.25,.45,.4,.97,.4,1.53Z"/><path class="cls-6" d="M34.01,176.32c0,1.73-1.41,3.14-3.14,3.14-.55,0-1.07-.14-1.53-.4l1.59-1.59c.59-.03,1.07-.51,1.1-1.1,0-.02,0-.04,0-.06,0-.64-.52-1.16-1.16-1.16-.02,0-.04,0-.06,0-.59,.03-1.07,.51-1.1,1.1l-1.59,1.59c-.25-.45-.4-.97-.4-1.53,0-1.73,1.41-3.14,3.14-3.14,.55,0,1.07,.14,1.53,.4,.51,.28,.93,.71,1.22,1.22,.25,.45,.4,.97,.4,1.53Z"/><path class="cls-5" d="M31.21,179.11c0,1.73-1.41,3.14-3.14,3.14-.55,0-1.07-.14-1.53-.4l1.59-1.59c.59-.03,1.07-.51,1.1-1.1,0-.02,0-.04,0-.06,0-.64-.52-1.16-1.16-1.16-.02,0-.04,0-.06,0-.59,.03-1.07,.51-1.1,1.1l-1.59,1.59c-.25-.45-.4-.97-.4-1.53,0-1.73,1.41-3.14,3.14-3.14,.55,0,1.07,.14,1.53,.4,.51,.28,.93,.71,1.22,1.22,.25,.45,.4,.97,.4,1.53Z"/><path class="cls-6" d="M27.91,182.41c0,1.73-1.41,3.14-3.14,3.14-.55,0-1.07-.14-1.53-.4l1.59-1.59c.59-.03,1.07-.51,1.1-1.1,0-.02,0-.04,0-.06,0-.64-.52-1.16-1.16-1.16-.02,0-.04,0-.06,0-.59,.03-1.07,.51-1.1,1.1l-1.59,1.59c-.25-.45-.4-.97-.4-1.53,0-1.73,1.41-3.14,3.14-3.14,.55,0,1.07,.14,1.53,.4,.51,.28,.93,.71,1.22,1.22,.25,.45,.4,.97,.4,1.53Z"/><path class="cls-5" d="M234.81,164.92c-1.63,0-2.94-1.32-2.94-2.94,0-.52,.13-1.01,.37-1.43l1.49,1.49c.03,.55,.47,1,1.03,1.03,.02,0,.04,0,.06,0,.6,0,1.09-.49,1.09-1.09,0-.02,0-.04,0-.06-.03-.56-.47-1-1.03-1.03l-1.49-1.49c.42-.24,.91-.37,1.43-.37,1.63,0,2.94,1.32,2.94,2.94,0,.52-.13,1.01-.37,1.43-.27,.48-.66,.88-1.14,1.14-.42,.24-.91,.37-1.43,.37Z"/><path class="cls-6" d="M231.71,161.83c-1.63,0-2.94-1.32-2.94-2.94,0-.52,.13-1.01,.37-1.43l1.49,1.49c.03,.55,.47,1,1.03,1.03,.02,0,.04,0,.06,0,.6,0,1.09-.49,1.09-1.09,0-.02,0-.04,0-.06-.03-.56-.47-1-1.03-1.03l-1.49-1.49c.42-.24,.91-.37,1.43-.37,1.63,0,2.94,1.32,2.94,2.94,0,.52-.13,1.01-.37,1.43-.27,.48-.66,.88-1.14,1.14-.42,.24-.91,.37-1.43,.37Z"/></g></g><g class="cls-3"><g class="cls-11"><image width="1000" height="788" transform="translate(487.47 -82.16) scale(.56)" xlink:href="../cat-character-design.png"/></g></g></svg>