<?xml version="1.0" encoding="UTF-8"?><svg id="Layer_1" xmlns="http://www.w3.org/2000/svg" xmlns:xlink="http://www.w3.org/1999/xlink" viewBox="0 0 500 300"><defs><style>.cls-1{fill:#fff;}.cls-2{clip-path:url(#clippath-2);}.cls-3{fill:#303030;}.cls-4{clip-path:url(#clippath-1);}.cls-5{clip-path:url(#clippath-4);}.cls-6{fill:#eb008b;}.cls-7{fill:#00adee;}.cls-8{clip-path:url(#clippath);}.cls-9{fill:none;}.cls-10{clip-path:url(#clippath-3);}.cls-11{fill:#fff100;}</style><clipPath id="clippath"><rect class="cls-9" x="-530" y="-329.84" width="500" height="300"/></clipPath><clipPath id="clippath-1"><rect class="cls-9" x="-530" width="500" height="300"/></clipPath><clipPath id="clippath-2"><rect class="cls-9" x="-.92" width="500.92" height="300"/></clipPath><clipPath id="clippath-3"><rect class="cls-9" y="-330" width="500" height="300"/></clipPath><clipPath id="clippath-4"><rect class="cls-9" x="-.92" y="-347.25" width="500.92" height="334.5"/></clipPath></defs><g class="cls-8"><g><rect class="cls-7" x="7.06" y="118.98" width="13" height="784.34" transform="translate(-338.28 882.17) rotate(-135)"/><polygon class="cls-11" points="-554.57 615.74 -336.31 397.48 -336.31 397.48 -239.78 300.96 -239.78 300.96 -206.65 267.82 -140.72 201.89 270.88 -209.7 220.2 -260.38 -191.39 151.22 -257.32 217.15 -287.3 247.12 -302.94 262.76 -368.87 328.69 -382.12 341.94 -606.2 566.02 -554.57 615.74"/><rect class="cls-6" x="56.5" y="-12.03" width=".64" height="320.45" transform="translate(-88.15 83.58) rotate(-45)"/><rect class="cls-6" x="103.01" y="-9.49" width=".64" height="275.14" transform="translate(-60.31 110.58) rotate(-45)"/><rect class="cls-6" x="79.2" y="-114.87" width=".64" height="320.45" transform="translate(103.68 133.65) rotate(-135)"/><path class="cls-7" d="M39.35,86.84c0,.73-.59,1.31-1.31,1.31-.23,0-.45-.06-.64-.17l.66-.66c.25-.01,.45-.21,.46-.46,0,0,0-.02,0-.03,0-.27-.22-.49-.49-.49,0,0-.02,0-.03,0-.25,.01-.45,.21-.46,.46l-.66,.66c-.11-.19-.17-.41-.17-.64,0-.73,.59-1.31,1.31-1.31,.23,0,.45,.06,.64,.17,.21,.12,.39,.3,.51,.51,.11,.19,.17,.41,.17,.64Z"/><path class="cls-7" d="M47.86,78.32c0,.73-.59,1.31-1.31,1.31-.23,0-.45-.06-.64-.17l.66-.66c.25-.01,.45-.21,.46-.46,0,0,0-.02,0-.03,0-.27-.22-.49-.49-.49,0,0-.02,0-.03,0-.25,.01-.45,.21-.46,.46l-.66,.66c-.11-.19-.17-.41-.17-.64,0-.73,.59-1.31,1.31-1.31,.23,0,.45,.06,.64,.17,.21,.12,.39,.3,.51,.51,.11,.19,.17,.41,.17,.64Z"/><path class="cls-11" d="M46.73,79.46c0,.73-.59,1.31-1.31,1.31-.23,0-.45-.06-.64-.17l.66-.66c.25-.01,.45-.21,.46-.46,0,0,0-.02,0-.03,0-.27-.22-.49-.49-.49,0,0-.02,0-.03,0-.25,.01-.45,.21-.46,.46l-.66,.66c-.11-.19-.17-.41-.17-.64,0-.73,.59-1.31,1.31-1.31,.23,0,.45,.06,.64,.17,.21,.12,.39,.3,.51,.51,.11,.19,.17,.41,.17,.64Z"/><path class="cls-11" d="M38.21,87.97c0,.73-.59,1.31-1.31,1.31-.23,0-.45-.06-.64-.17l.66-.66c.25-.01,.45-.21,.46-.46,0,0,0-.02,0-.03,0-.27-.22-.49-.49-.49,0,0-.02,0-.03,0-.25,.01-.45,.21-.46,.46l-.66,.66c-.11-.19-.17-.41-.17-.64,0-.73,.59-1.31,1.31-1.31,.23,0,.45,.06,.64,.17,.21,.12,.39,.3,.51,.51,.11,.19,.17,.41,.17,.64Z"/><path class="cls-11" d="M61.89,64.3c0,.73-.59,1.31-1.31,1.31-.23,0-.45-.06-.64-.17l.66-.66c.25-.01,.45-.21,.46-.46,0,0,0-.02,0-.03,0-.27-.22-.49-.49-.49,0,0-.02,0-.03,0-.25,.01-.45,.21-.46,.46l-.66,.66c-.11-.19-.17-.41-.17-.64,0-.73,.59-1.31,1.31-1.31,.23,0,.45,.06,.64,.17,.21,.12,.39,.3,.51,.51,.11,.19,.17,.41,.17,.64Z"/><path class="cls-7" d="M60.58,65.61c0,.73-.59,1.31-1.31,1.31-.23,0-.45-.06-.64-.17l.66-.66c.25-.01,.45-.21,.46-.46,0,0,0-.02,0-.03,0-.27-.22-.49-.49-.49,0,0-.02,0-.03,0-.25,.01-.45,.21-.46,.46l-.66,.66c-.11-.19-.17-.41-.17-.64,0-.73,.59-1.31,1.31-1.31,.23,0,.45,.06,.64,.17,.21,.12,.39,.3,.51,.51,.11,.19,.17,.41,.17,.64Z"/><path class="cls-11" d="M59.45,66.74c0,.73-.59,1.31-1.31,1.31-.23,0-.45-.06-.64-.17l.66-.66c.25-.01,.45-.21,.46-.46,0,0,0-.02,0-.03,0-.27-.22-.49-.49-.49,0,0-.02,0-.03,0-.25,.01-.45,.21-.46,.46l-.66,.66c-.11-.19-.17-.41-.17-.64,0-.73,.59-1.31,1.31-1.31,.23,0,.45,.06,.64,.17,.21,.12,.39,.3,.51,.51,.11,.19,.17,.41,.17,.64Z"/><path class="cls-11" d="M54.11,72.07c0,.73-.59,1.31-1.31,1.31-.23,0-.45-.06-.64-.17l.66-.66c.25-.01,.45-.21,.46-.46,0,0,0-.02,0-.03,0-.27-.22-.49-.49-.49,0,0-.02,0-.03,0-.25,.01-.45,.21-.46,.46l-.66,.66c-.11-.19-.17-.41-.17-.64,0-.73,.59-1.31,1.31-1.31,.23,0,.45,.06,.64,.17,.21,.12,.39,.3,.51,.51,.11,.19,.17,.41,.17,.64Z"/><rect class="cls-6" x="223.25" y="-123.33" width=".64" height="320.45" transform="translate(355.57 221.07) rotate(-135)"/><path class="cls-7" d="M183.4,78.38c0,.73-.59,1.31-1.31,1.31-.23,0-.45-.06-.64-.17l.66-.66c.25-.01,.45-.21,.46-.46,0,0,0-.02,0-.03,0-.27-.22-.49-.49-.49,0,0-.02,0-.03,0-.25,.01-.45,.21-.46,.46l-.66,.66c-.11-.19-.17-.41-.17-.64,0-.73,.59-1.31,1.31-1.31,.23,0,.45,.06,.64,.17,.21,.12,.39,.3,.51,.51,.11,.19,.17,.41,.17,.64Z"/><path class="cls-7" d="M191.91,69.87c0,.73-.59,1.31-1.31,1.31-.23,0-.45-.06-.64-.17l.66-.66c.25-.01,.45-.21,.46-.46,0,0,0-.02,0-.03,0-.27-.22-.49-.49-.49,0,0-.02,0-.03,0-.25,.01-.45,.21-.46,.46l-.66,.66c-.11-.19-.17-.41-.17-.64,0-.73,.59-1.31,1.31-1.31,.23,0,.45,.06,.64,.17,.21,.12,.39,.3,.51,.51,.11,.19,.17,.41,.17,.64Z"/><path class="cls-11" d="M190.78,71c0,.73-.59,1.31-1.31,1.31-.23,0-.45-.06-.64-.17l.66-.66c.25-.01,.45-.21,.46-.46,0,0,0-.02,0-.03,0-.27-.22-.49-.49-.49,0,0-.02,0-.03,0-.25,.01-.45,.21-.46,.46l-.66,.66c-.11-.19-.17-.41-.17-.64,0-.73,.59-1.31,1.31-1.31,.23,0,.45,.06,.64,.17,.21,.12,.39,.3,.51,.51,.11,.19,.17,.41,.17,.64Z"/><path class="cls-11" d="M182.26,79.51c0,.73-.59,1.31-1.31,1.31-.23,0-.45-.06-.64-.17l.66-.66c.25-.01,.45-.21,.46-.46,0,0,0-.02,0-.03,0-.27-.22-.49-.49-.49,0,0-.02,0-.03,0-.25,.01-.45,.21-.46,.46l-.66,.66c-.11-.19-.17-.41-.17-.64,0-.73,.59-1.31,1.31-1.31,.23,0,.45,.06,.64,.17,.21,.12,.39,.3,.51,.51,.11,.19,.17,.41,.17,.64Z"/><path class="cls-11" d="M205.94,55.84c0,.73-.59,1.31-1.31,1.31-.23,0-.45-.06-.64-.17l.66-.66c.25-.01,.45-.21,.46-.46,0,0,0-.02,0-.03,0-.27-.22-.49-.49-.49,0,0-.02,0-.03,0-.25,.01-.45,.21-.46,.46l-.66,.66c-.11-.19-.17-.41-.17-.64,0-.73,.59-1.31,1.31-1.31,.23,0,.45,.06,.64,.17,.21,.12,.39,.3,.51,.51,.11,.19,.17,.41,.17,.64Z"/><path class="cls-7" d="M204.63,57.15c0,.73-.59,1.31-1.31,1.31-.23,0-.45-.06-.64-.17l.66-.66c.25-.01,.45-.21,.46-.46,0,0,0-.02,0-.03,0-.27-.22-.49-.49-.49,0,0-.02,0-.03,0-.25,.01-.45,.21-.46,.46l-.66,.66c-.11-.19-.17-.41-.17-.64,0-.73,.59-1.31,1.31-1.31,.23,0,.45,.06,.64,.17,.21,.12,.39,.3,.51,.51,.11,.19,.17,.41,.17,.64Z"/><path class="cls-11" d="M203.49,58.28c0,.73-.59,1.31-1.31,1.31-.23,0-.45-.06-.64-.17l.66-.66c.25-.01,.45-.21,.46-.46,0,0,0-.02,0-.03,0-.27-.22-.49-.49-.49,0,0-.02,0-.03,0-.25,.01-.45,.21-.46,.46l-.66,.66c-.11-.19-.17-.41-.17-.64,0-.73,.59-1.31,1.31-1.31,.23,0,.45,.06,.64,.17,.21,.12,.39,.3,.51,.51,.11,.19,.17,.41,.17,.64Z"/><path class="cls-11" d="M198.16,63.62c0,.73-.59,1.31-1.31,1.31-.23,0-.45-.06-.64-.17l.66-.66c.25-.01,.45-.21,.46-.46,0,0,0-.02,0-.03,0-.27-.22-.49-.49-.49,0,0-.02,0-.03,0-.25,.01-.45,.21-.46,.46l-.66,.66c-.11-.19-.17-.41-.17-.64,0-.73,.59-1.31,1.31-1.31,.23,0,.45,.06,.64,.17,.21,.12,.39,.3,.51,.51,.11,.19,.17,.41,.17,.64Z"/><rect class="cls-7" x="-58.97" y="202.8" width="3.47" height="353.12" transform="translate(-285.01 70.64) rotate(-45)"/><rect class="cls-11" x="267.08" y="-717.21" width="7.6" height="1072.31" transform="translate(590.44 -117.54) rotate(-135)"/><rect class="cls-6" x="-29.73" y="126.68" width=".64" height="964.65" transform="translate(-439.24 157.58) rotate(-45)"/><rect class="cls-7" x="-27.51" y="124.5" width=".64" height="964.65" transform="translate(-437.05 158.51) rotate(-45)"/><rect class="cls-6" x="-282.28" y="-704.82" width="5.25" height="888.88" transform="translate(-293.28 -642.24) rotate(-135)"/><rect class="cls-11" x="247.08" y="-61.92" width="7.6" height="497.78" transform="translate(-58.73 232.16) rotate(-45)"/><rect class="cls-6" x="-72.18" y="-178.17" width="7.6" height="887.42" transform="translate(-304.5 404.96) rotate(-135)"/><path class="cls-6" d="M225.19,323.04c0,12.99-10.53,23.52-23.52,23.52-4.15,0-8.04-1.07-11.42-2.96l11.88-11.88c4.43-.23,7.99-3.78,8.22-8.22,0-.15,.01-.3,.01-.46,0-4.8-3.89-8.69-8.69-8.69-.15,0-.31,0-.46,.01-4.44,.23-7.99,3.79-8.22,8.22l-11.88,11.88c-1.89-3.38-2.96-7.28-2.96-11.42,0-12.99,10.53-23.52,23.52-23.52,4.15,0,8.04,1.07,11.43,2.96,3.83,2.13,7,5.3,9.13,9.13,1.88,3.38,2.96,7.28,2.96,11.43Z"/><path class="cls-11" d="M88.42,122.64c0,7.67-6.22,13.89-13.89,13.89-2.45,0-4.75-.63-6.75-1.75l7.02-7.02c2.62-.14,4.72-2.24,4.86-4.86,0-.09,0-.18,0-.27,0-2.84-2.3-5.13-5.13-5.13-.09,0-.18,0-.27,0-2.62,.14-4.72,2.24-4.86,4.86l-7.02,7.02c-1.11-2-1.75-4.3-1.75-6.75,0-7.67,6.22-13.89,13.89-13.89,2.45,0,4.75,.63,6.75,1.75,2.26,1.26,4.14,3.13,5.4,5.4,1.11,2,1.75,4.3,1.75,6.75Z"/><path class="cls-7" d="M173.72,37.34c0,7.67-6.22,13.89-13.89,13.89-2.45,0-4.75-.63-6.75-1.75l7.02-7.02c2.62-.14,4.72-2.24,4.86-4.86,0-.09,0-.18,0-.27,0-2.84-2.3-5.13-5.13-5.13-.09,0-.18,0-.27,0-2.62,.14-4.72,2.24-4.86,4.86l-7.02,7.02c-1.11-2-1.75-4.3-1.75-6.75,0-7.67,6.22-13.89,13.89-13.89,2.45,0,4.75,.63,6.75,1.75,2.26,1.26,4.14,3.13,5.4,5.4,1.11,2,1.75,4.3,1.75,6.75Z"/><rect class="cls-11" x="-163.72" y="-367.78" width="23.99" height="1485.59" transform="translate(-309.61 2.56) rotate(-45)"/><rect class="cls-7" x="-520.01" y="-701.22" width="23.99" height="1563.87" transform="translate(-91.72 382.86) rotate(45)"/><rect class="cls-7" x="-200.32" y="-222.02" width="23.99" height="1485.59" transform="translate(313.08 285.7) rotate(45)"/><rect class="cls-7" x="14.74" y="-582.12" width="1.61" height="779.51" transform="translate(140.57 -45.35) rotate(-45)"/><rect class="cls-6" x="-235.2" y="-255.57" width=".64" height="964.65" transform="translate(-229.14 -99.67) rotate(-45)"/><rect class="cls-7" x="-232.98" y="-257.75" width=".64" height="964.65" transform="translate(-226.94 -98.74) rotate(-45)"/><rect class="cls-11" x="3.16" y="-529.44" width="1.77" height="674.15" transform="translate(-129.11 -331.25) rotate(135)"/><rect class="cls-7" x="35.2" y="73.35" width="1.77" height="526.74" transform="translate(248.66 73.11) rotate(45)"/><rect class="cls-11" x="55.04" y="29.58" width="1.77" height="136.72" transform="translate(164.72 127.66) rotate(135)"/><rect class="cls-11" x="83.19" y="-52.19" width="1.77" height="215.09" transform="translate(182.67 35.05) rotate(135)"/><path class="cls-7" d="M20.19,65.15c-1.63,0-2.94-1.32-2.94-2.94,0-.52,.13-1.01,.37-1.43l1.49,1.49c.03,.55,.47,1,1.03,1.03,.02,0,.04,0,.06,0,.6,0,1.09-.49,1.09-1.09,0-.02,0-.04,0-.06-.03-.56-.47-1-1.03-1.03l-1.49-1.49c.42-.24,.91-.37,1.43-.37,1.63,0,2.94,1.32,2.94,2.94,0,.52-.13,1.01-.37,1.43-.27,.48-.66,.88-1.14,1.14-.42,.24-.91,.37-1.43,.37Z"/><path class="cls-6" d="M17.24,62.2c-1.63,0-2.94-1.32-2.94-2.94,0-.52,.13-1.01,.37-1.43l1.49,1.49c.03,.55,.47,1,1.03,1.03,.02,0,.04,0,.06,0,.6,0,1.09-.49,1.09-1.09,0-.02,0-.04,0-.06-.03-.56-.47-1-1.03-1.03l-1.49-1.49c.42-.24,.91-.37,1.43-.37,1.63,0,2.94,1.32,2.94,2.94,0,.52-.13,1.01-.37,1.43-.27,.48-.66,.88-1.14,1.14-.42,.24-.91,.37-1.43,.37Z"/><path class="cls-7" d="M14.3,59.26c-1.63,0-2.94-1.32-2.94-2.94,0-.52,.13-1.01,.37-1.43l1.49,1.49c.03,.55,.47,1,1.03,1.03,.02,0,.04,0,.06,0,.6,0,1.09-.49,1.09-1.09,0-.02,0-.04,0-.06-.03-.56-.47-1-1.03-1.03l-1.49-1.49c.42-.24,.91-.37,1.43-.37,1.63,0,2.94,1.32,2.94,2.94,0,.52-.13,1.01-.37,1.43-.27,.48-.66,.88-1.14,1.14-.42,.24-.91,.37-1.43,.37Z"/><path class="cls-7" d="M49.06,94.03c-1.63,0-2.94-1.32-2.94-2.94,0-.52,.13-1.01,.37-1.43l1.49,1.49c.03,.55,.47,1,1.03,1.03,.02,0,.04,0,.06,0,.6,0,1.09-.49,1.09-1.09,0-.02,0-.04,0-.06-.03-.56-.47-1-1.03-1.03l-1.49-1.49c.42-.24,.91-.37,1.43-.37,1.63,0,2.94,1.32,2.94,2.94,0,.52-.13,1.01-.37,1.43-.27,.48-.66,.88-1.14,1.14-.42,.24-.91,.37-1.43,.37Z"/><path class="cls-6" d="M46.12,91.09c-1.63,0-2.94-1.32-2.94-2.94,0-.52,.13-1.01,.37-1.43l1.49,1.49c.03,.55,.47,1,1.03,1.03,.02,0,.04,0,.06,0,.6,0,1.09-.49,1.09-1.09,0-.02,0-.04,0-.06-.03-.56-.47-1-1.03-1.03l-1.49-1.49c.42-.24,.91-.37,1.43-.37,1.63,0,2.94,1.32,2.94,2.94,0,.52-.13,1.01-.37,1.43-.27,.48-.66,.88-1.14,1.14-.42,.24-.91,.37-1.43,.37Z"/><path class="cls-7" d="M43.18,88.14c-1.63,0-2.94-1.32-2.94-2.94,0-.52,.13-1.01,.37-1.43l1.49,1.49c.03,.55,.47,1,1.03,1.03,.02,0,.04,0,.06,0,.6,0,1.09-.49,1.09-1.09,0-.02,0-.04,0-.06-.03-.56-.47-1-1.03-1.03l-1.49-1.49c.42-.24,.91-.37,1.43-.37,1.63,0,2.94,1.32,2.94,2.94,0,.52-.13,1.01-.37,1.43-.27,.48-.66,.88-1.14,1.14-.42,.24-.91,.37-1.43,.37Z"/><path class="cls-6" d="M40.23,85.2c-1.63,0-2.94-1.32-2.94-2.94,0-.52,.13-1.01,.37-1.43l1.49,1.49c.03,.55,.47,1,1.03,1.03,.02,0,.04,0,.06,0,.6,0,1.09-.49,1.09-1.09,0-.02,0-.04,0-.06-.03-.56-.47-1-1.03-1.03l-1.49-1.49c.42-.24,.91-.37,1.43-.37,1.63,0,2.94,1.32,2.94,2.94,0,.52-.13,1.01-.37,1.43-.27,.48-.66,.88-1.14,1.14-.42,.24-.91,.37-1.43,.37Z"/><rect class="cls-7" x="92.95" y="-121.92" width="1.61" height="388.76" transform="translate(78.69 -45.07) rotate(45)"/><path class="cls-6" d="M132.41,36.75c0,1.63-1.32,2.94-2.94,2.94-.52,0-1.01-.13-1.43-.37l1.49-1.49c.55-.03,1-.47,1.03-1.03,0-.02,0-.04,0-.06,0-.6-.49-1.09-1.09-1.09-.02,0-.04,0-.06,0-.56,.03-1,.47-1.03,1.03l-1.49,1.49c-.24-.42-.37-.91-.37-1.43,0-1.63,1.32-2.94,2.94-2.94,.52,0,1.01,.13,1.43,.37,.48,.27,.88,.66,1.14,1.14,.24,.42,.37,.91,.37,1.43Z"/><path class="cls-11" d="M129.31,39.84c0,1.63-1.32,2.94-2.94,2.94-.52,0-1.01-.13-1.43-.37l1.49-1.49c.55-.03,1-.47,1.03-1.03,0-.02,0-.04,0-.06,0-.6-.49-1.09-1.09-1.09-.02,0-.04,0-.06,0-.56,.03-1,.47-1.03,1.03l-1.49,1.49c-.24-.42-.37-.91-.37-1.43,0-1.63,1.32-2.94,2.94-2.94,.52,0,1.01,.13,1.43,.37,.48,.27,.88,.66,1.14,1.14,.24,.42,.37,.91,.37,1.43Z"/><path class="cls-6" d="M104.83,64.32c0,1.63-1.32,2.94-2.94,2.94-.52,0-1.01-.13-1.43-.37l1.49-1.49c.55-.03,1-.47,1.03-1.03,0-.02,0-.04,0-.06,0-.6-.49-1.09-1.09-1.09-.02,0-.04,0-.06,0-.56,.03-1,.47-1.03,1.03l-1.49,1.49c-.24-.42-.37-.91-.37-1.43,0-1.63,1.32-2.94,2.94-2.94,.52,0,1.01,.13,1.43,.37,.48,.27,.88,.66,1.14,1.14,.24,.42,.37,.91,.37,1.43Z"/><path class="cls-11" d="M101.74,67.41c0,1.63-1.32,2.94-2.94,2.94-.52,0-1.01-.13-1.43-.37l1.49-1.49c.55-.03,1-.47,1.03-1.03,0-.02,0-.04,0-.06,0-.6-.49-1.09-1.09-1.09-.02,0-.04,0-.06,0-.56,.03-1,.47-1.03,1.03l-1.49,1.49c-.24-.42-.37-.91-.37-1.43,0-1.63,1.32-2.94,2.94-2.94,.52,0,1.01,.13,1.43,.37,.48,.27,.88,.66,1.14,1.14,.24,.42,.37,.91,.37,1.43Z"/><rect class="cls-11" x="68.71" y="-22.43" width="1.77" height="215.09" transform="translate(58.62 194.51) rotate(-135)"/><rect class="cls-6" x="138.29" y="-101.54" width="1.77" height="283.41" transform="translate(209.19 166.98) rotate(-135)"/><rect class="cls-6" x="131.58" y="-51.5" width="1.77" height="301.99" transform="translate(155.77 263.52) rotate(-135)"/><path class="cls-6" d="M99.84,69.31c0,1.63-1.32,2.94-2.94,2.94-.52,0-1.01-.13-1.43-.37l1.49-1.49c.55-.03,1-.47,1.03-1.03,0-.02,0-.04,0-.06,0-.6-.49-1.09-1.09-1.09-.02,0-.04,0-.06,0-.56,.03-1,.47-1.03,1.03l-1.49,1.49c-.24-.42-.37-.91-.37-1.43,0-1.63,1.32-2.94,2.94-2.94,.52,0,1.01,.13,1.43,.37,.48,.27,.88,.66,1.14,1.14,.24,.42,.37,.91,.37,1.43Z"/><path class="cls-11" d="M96.75,72.41c0,1.63-1.32,2.94-2.94,2.94-.52,0-1.01-.13-1.43-.37l1.49-1.49c.55-.03,1-.47,1.03-1.03,0-.02,0-.04,0-.06,0-.6-.49-1.09-1.09-1.09-.02,0-.04,0-.06,0-.56,.03-1,.47-1.03,1.03l-1.49,1.49c-.24-.42-.37-.91-.37-1.43,0-1.63,1.32-2.94,2.94-2.94,.52,0,1.01,.13,1.43,.37,.48,.27,.88,.66,1.14,1.14,.24,.42,.37,.91,.37,1.43Z"/><path class="cls-6" d="M85.41,72.25c0,1.63-1.32,2.94-2.94,2.94-.52,0-1.01-.13-1.43-.37l1.49-1.49c.55-.03,1-.47,1.03-1.03,0-.02,0-.04,0-.06,0-.6-.49-1.09-1.09-1.09-.02,0-.04,0-.06,0-.56,.03-1,.47-1.03,1.03l-1.49,1.49c-.24-.42-.37-.91-.37-1.43,0-1.63,1.32-2.94,2.94-2.94,.52,0,1.01,.13,1.43,.37,.48,.27,.88,.66,1.14,1.14,.24,.42,.37,.91,.37,1.43Z"/><path class="cls-6" d="M80.41,77.24c0,1.63-1.32,2.94-2.94,2.94-.52,0-1.01-.13-1.43-.37l1.49-1.49c.55-.03,1-.47,1.03-1.03,0-.02,0-.04,0-.06,0-.6-.49-1.09-1.09-1.09-.02,0-.04,0-.06,0-.56,.03-1,.47-1.03,1.03l-1.49,1.49c-.24-.42-.37-.91-.37-1.43,0-1.63,1.32-2.94,2.94-2.94,.52,0,1.01,.13,1.43,.37,.48,.27,.88,.66,1.14,1.14,.24,.42,.37,.91,.37,1.43Z"/><path class="cls-7" d="M77.32,80.34c0,1.63-1.32,2.94-2.94,2.94-.52,0-1.01-.13-1.43-.37l1.49-1.49c.55-.03,1-.47,1.03-1.03,0-.02,0-.04,0-.06,0-.6-.49-1.09-1.09-1.09-.02,0-.04,0-.06,0-.56,.03-1,.47-1.03,1.03l-1.49,1.49c-.24-.42-.37-.91-.37-1.43,0-1.63,1.32-2.94,2.94-2.94,.52,0,1.01,.13,1.43,.37,.48,.27,.88,.66,1.14,1.14,.24,.42,.37,.91,.37,1.43Z"/><path class="cls-6" d="M69.6,37.94c1.63,0,2.94,1.32,2.94,2.94,0,.52-.13,1.01-.37,1.43l-1.49-1.49c-.03-.55-.47-1-1.03-1.03-.02,0-.04,0-.06,0-.6,0-1.09,.49-1.09,1.09,0,.02,0,.04,0,.06,.03,.56,.47,1,1.03,1.03l1.49,1.49c-.42,.24-.91,.37-1.43,.37-1.63,0-2.94-1.32-2.94-2.94,0-.52,.13-1.01,.37-1.43,.27-.48,.66-.88,1.14-1.14,.42-.24,.91-.37,1.43-.37Z"/><path class="cls-6" d="M74.59,42.93c1.63,0,2.94,1.32,2.94,2.94,0,.52-.13,1.01-.37,1.43l-1.49-1.49c-.03-.55-.47-1-1.03-1.03-.02,0-.04,0-.06,0-.6,0-1.09,.49-1.09,1.09,0,.02,0,.04,0,.06,.03,.56,.47,1,1.03,1.03l1.49,1.49c-.42,.24-.91,.37-1.43,.37-1.63,0-2.94-1.32-2.94-2.94,0-.52,.13-1.01,.37-1.43,.27-.48,.66-.88,1.14-1.14,.42-.24,.91-.37,1.43-.37Z"/><path class="cls-7" d="M77.69,46.03c1.63,0,2.94,1.32,2.94,2.94,0,.52-.13,1.01-.37,1.43l-1.49-1.49c-.03-.55-.47-1-1.03-1.03-.02,0-.04,0-.06,0-.6,0-1.09,.49-1.09,1.09,0,.02,0,.04,0,.06,.03,.56,.47,1,1.03,1.03l1.49,1.49c-.42,.24-.91,.37-1.43,.37-1.63,0-2.94-1.32-2.94-2.94,0-.52,.13-1.01,.37-1.43,.27-.48,.66-.88,1.14-1.14,.42-.24,.91-.37,1.43-.37Z"/><path class="cls-11" d="M82.34,86.81c0,1.63-1.32,2.94-2.94,2.94-.52,0-1.01-.13-1.43-.37l1.49-1.49c.55-.03,1-.47,1.03-1.03,0-.02,0-.04,0-.06,0-.6-.49-1.09-1.09-1.09-.02,0-.04,0-.06,0-.56,.03-1,.47-1.03,1.03l-1.49,1.49c-.24-.42-.37-.91-.37-1.43,0-1.63,1.32-2.94,2.94-2.94,.52,0,1.01,.13,1.43,.37,.48,.27,.88,.66,1.14,1.14,.24,.42,.37,.91,.37,1.43Z"/><path class="cls-7" d="M123.32,59.34c0,1.83-1.49,3.32-3.32,3.32-.58,0-1.13-.15-1.61-.42l1.68-1.68c.63-.03,1.13-.53,1.16-1.16,0-.02,0-.04,0-.06,0-.68-.55-1.23-1.23-1.23-.02,0-.04,0-.06,0-.63,.03-1.13,.53-1.16,1.16l-1.68,1.68c-.27-.48-.42-1.03-.42-1.61,0-1.83,1.49-3.32,3.32-3.32,.58,0,1.13,.15,1.61,.42,.54,.3,.99,.75,1.29,1.29,.27,.48,.42,1.03,.42,1.61Z"/><path class="cls-11" d="M120,62.66c0,1.83-1.49,3.32-3.32,3.32-.58,0-1.13-.15-1.61-.42l1.68-1.68c.63-.03,1.13-.53,1.16-1.16,0-.02,0-.04,0-.06,0-.68-.55-1.23-1.23-1.23-.02,0-.04,0-.06,0-.63,.03-1.13,.53-1.16,1.16l-1.68,1.68c-.27-.48-.42-1.03-.42-1.61,0-1.83,1.49-3.32,3.32-3.32,.58,0,1.13,.15,1.61,.42,.54,.3,.99,.75,1.29,1.29,.27,.48,.42,1.03,.42,1.61Z"/><path class="cls-7" d="M116.68,65.97c0,1.83-1.49,3.32-3.32,3.32-.58,0-1.13-.15-1.61-.42l1.68-1.68c.63-.03,1.13-.53,1.16-1.16,0-.02,0-.04,0-.06,0-.68-.55-1.23-1.23-1.23-.02,0-.04,0-.06,0-.63,.03-1.13,.53-1.16,1.16l-1.68,1.68c-.27-.48-.42-1.03-.42-1.61,0-1.83,1.49-3.32,3.32-3.32,.58,0,1.13,.15,1.61,.42,.54,.3,.99,.75,1.29,1.29,.27,.48,.42,1.03,.42,1.61Z"/><path class="cls-11" d="M113.37,69.29c0,1.83-1.49,3.32-3.32,3.32-.58,0-1.13-.15-1.61-.42l1.68-1.68c.63-.03,1.13-.53,1.16-1.16,0-.02,0-.04,0-.06,0-.68-.55-1.23-1.23-1.23-.02,0-.04,0-.06,0-.63,.03-1.13,.53-1.16,1.16l-1.68,1.68c-.27-.48-.42-1.03-.42-1.61,0-1.83,1.49-3.32,3.32-3.32,.58,0,1.13,.15,1.61,.42,.54,.3,.99,.75,1.29,1.29,.27,.48,.42,1.03,.42,1.61Z"/><path class="cls-7" d="M116.99,117.92c0,1.63-1.32,2.94-2.94,2.94-.52,0-1.01-.13-1.43-.37l1.49-1.49c.55-.03,1-.47,1.03-1.03,0-.02,0-.04,0-.06,0-.6-.49-1.09-1.09-1.09-.02,0-.04,0-.06,0-.56,.03-1,.47-1.03,1.03l-1.49,1.49c-.24-.42-.37-.91-.37-1.43,0-1.63,1.32-2.94,2.94-2.94,.52,0,1.01,.13,1.43,.37,.48,.27,.88,.66,1.14,1.14,.24,.42,.37,.91,.37,1.43Z"/><path class="cls-11" d="M114.05,120.86c0,1.63-1.32,2.94-2.94,2.94-.52,0-1.01-.13-1.43-.37l1.49-1.49c.55-.03,1-.47,1.03-1.03,0-.02,0-.04,0-.06,0-.6-.49-1.09-1.09-1.09-.02,0-.04,0-.06,0-.56,.03-1,.47-1.03,1.03l-1.49,1.49c-.24-.42-.37-.91-.37-1.43,0-1.63,1.32-2.94,2.94-2.94,.52,0,1.01,.13,1.43,.37,.48,.27,.88,.66,1.14,1.14,.24,.42,.37,.91,.37,1.43Z"/><path class="cls-7" d="M111.1,123.8c0,1.63-1.32,2.94-2.94,2.94-.52,0-1.01-.13-1.43-.37l1.49-1.49c.55-.03,1-.47,1.03-1.03,0-.02,0-.04,0-.06,0-.6-.49-1.09-1.09-1.09-.02,0-.04,0-.06,0-.56,.03-1,.47-1.03,1.03l-1.49,1.49c-.24-.42-.37-.91-.37-1.43,0-1.63,1.32-2.94,2.94-2.94,.52,0,1.01,.13,1.43,.37,.48,.27,.88,.66,1.14,1.14,.24,.42,.37,.91,.37,1.43Z"/><path class="cls-11" d="M108.16,126.75c0,1.63-1.32,2.94-2.94,2.94-.52,0-1.01-.13-1.43-.37l1.49-1.49c.55-.03,1-.47,1.03-1.03,0-.02,0-.04,0-.06,0-.6-.49-1.09-1.09-1.09-.02,0-.04,0-.06,0-.56,.03-1,.47-1.03,1.03l-1.49,1.49c-.24-.42-.37-.91-.37-1.43,0-1.63,1.32-2.94,2.94-2.94,.52,0,1.01,.13,1.43,.37,.48,.27,.88,.66,1.14,1.14,.24,.42,.37,.91,.37,1.43Z"/><path class="cls-7" d="M145.87,89.04c0,1.63-1.32,2.94-2.94,2.94-.52,0-1.01-.13-1.43-.37l1.49-1.49c.55-.03,1-.47,1.03-1.03,0-.02,0-.04,0-.06,0-.6-.49-1.09-1.09-1.09-.02,0-.04,0-.06,0-.56,.03-1,.47-1.03,1.03l-1.49,1.49c-.24-.42-.37-.91-.37-1.43,0-1.63,1.32-2.94,2.94-2.94,.52,0,1.01,.13,1.43,.37,.48,.27,.88,.66,1.14,1.14,.24,.42,.37,.91,.37,1.43Z"/><path class="cls-11" d="M142.93,91.98c0,1.63-1.32,2.94-2.94,2.94-.52,0-1.01-.13-1.43-.37l1.49-1.49c.55-.03,1-.47,1.03-1.03,0-.02,0-.04,0-.06,0-.6-.49-1.09-1.09-1.09-.02,0-.04,0-.06,0-.56,.03-1,.47-1.03,1.03l-1.49,1.49c-.24-.42-.37-.91-.37-1.43,0-1.63,1.32-2.94,2.94-2.94,.52,0,1.01,.13,1.43,.37,.48,.27,.88,.66,1.14,1.14,.24,.42,.37,.91,.37,1.43Z"/><path class="cls-7" d="M139.98,94.93c0,1.63-1.32,2.94-2.94,2.94-.52,0-1.01-.13-1.43-.37l1.49-1.49c.55-.03,1-.47,1.03-1.03,0-.02,0-.04,0-.06,0-.6-.49-1.09-1.09-1.09-.02,0-.04,0-.06,0-.56,.03-1,.47-1.03,1.03l-1.49,1.49c-.24-.42-.37-.91-.37-1.43,0-1.63,1.32-2.94,2.94-2.94,.52,0,1.01,.13,1.43,.37,.48,.27,.88,.66,1.14,1.14,.24,.42,.37,.91,.37,1.43Z"/><path class="cls-11" d="M137.04,97.87c0,1.63-1.32,2.94-2.94,2.94-.52,0-1.01-.13-1.43-.37l1.49-1.49c.55-.03,1-.47,1.03-1.03,0-.02,0-.04,0-.06,0-.6-.49-1.09-1.09-1.09-.02,0-.04,0-.06,0-.56,.03-1,.47-1.03,1.03l-1.49,1.49c-.24-.42-.37-.91-.37-1.43,0-1.63,1.32-2.94,2.94-2.94,.52,0,1.01,.13,1.43,.37,.48,.27,.88,.66,1.14,1.14,.24,.42,.37,.91,.37,1.43Z"/><path class="cls-11" d="M81.57,100.72c0,1.63-1.32,2.94-2.94,2.94-.52,0-1.01-.13-1.43-.37l1.49-1.49c.55-.03,1-.47,1.03-1.03,0-.02,0-.04,0-.06,0-.6-.49-1.09-1.09-1.09-.02,0-.04,0-.06,0-.56,.03-1,.47-1.03,1.03l-1.49,1.49c-.24-.42-.37-.91-.37-1.43,0-1.63,1.32-2.94,2.94-2.94,.52,0,1.01,.13,1.43,.37,.48,.27,.88,.66,1.14,1.14,.24,.42,.37,.91,.37,1.43Z"/><rect class="cls-7" x=".05" y="40.23" width="3.47" height="421.91" transform="translate(-174.58 430.07) rotate(-135)"/><path class="cls-11" d="M74.62,172.01c0-3.5,2.84-6.34,6.34-6.34,1.12,0,2.17,.29,3.08,.8l-3.21,3.21c-1.2,.06-2.16,1.02-2.22,2.22,0,.04,0,.08,0,.12,0,1.29,1.05,2.34,2.34,2.34,.04,0,.08,0,.12,0,1.2-.06,2.16-1.02,2.22-2.22l3.21-3.21c.51,.91,.8,1.96,.8,3.08,0,3.5-2.84,6.34-6.34,6.34-1.12,0-2.17-.29-3.08-.8-1.03-.58-1.89-1.43-2.46-2.46-.51-.91-.8-1.96-.8-3.08Z"/><path class="cls-6" d="M80.64,165.99c0-3.5,2.84-6.34,6.34-6.34,1.12,0,2.17,.29,3.08,.8l-3.21,3.21c-1.2,.06-2.16,1.02-2.22,2.22,0,.04,0,.08,0,.12,0,1.29,1.05,2.34,2.34,2.34,.04,0,.08,0,.12,0,1.2-.06,2.16-1.02,2.22-2.22l3.21-3.21c.51,.91,.8,1.96,.8,3.08,0,3.5-2.84,6.34-6.34,6.34-1.12,0-2.17-.29-3.08-.8-1.03-.58-1.89-1.43-2.46-2.46-.51-.91-.8-1.96-.8-3.08Z"/><path class="cls-11" d="M86.66,159.97c0-3.5,2.84-6.34,6.34-6.34,1.12,0,2.17,.29,3.08,.8l-3.21,3.21c-1.2,.06-2.16,1.02-2.22,2.22,0,.04,0,.08,0,.12,0,1.29,1.05,2.34,2.34,2.34,.04,0,.08,0,.12,0,1.2-.06,2.16-1.02,2.22-2.22l3.21-3.21c.51,.91,.8,1.96,.8,3.08,0,3.5-2.84,6.34-6.34,6.34-1.12,0-2.17-.29-3.08-.8-1.03-.58-1.89-1.43-2.46-2.46-.51-.91-.8-1.96-.8-3.08Z"/><path class="cls-11" d="M-6.43,253.06c0-3.5,2.84-6.34,6.34-6.34,1.12,0,2.17,.29,3.08,.8l-3.21,3.21c-1.2,.06-2.16,1.02-2.22,2.22,0,.04,0,.08,0,.12,0,1.29,1.05,2.34,2.34,2.34,.04,0,.08,0,.12,0,1.2-.06,2.16-1.02,2.22-2.22l3.21-3.21c.51,.91,.8,1.96,.8,3.08,0,3.5-2.84,6.34-6.34,6.34-1.12,0-2.17-.29-3.08-.8-1.03-.58-1.89-1.43-2.46-2.46-.51-.91-.8-1.96-.8-3.08Z"/><path class="cls-6" d="M-.41,247.04c0-3.5,2.84-6.34,6.34-6.34,1.12,0,2.17,.29,3.08,.8l-3.21,3.21c-1.2,.06-2.16,1.02-2.22,2.22,0,.04,0,.08,0,.12,0,1.29,1.05,2.34,2.34,2.34,.04,0,.08,0,.12,0,1.2-.06,2.16-1.02,2.22-2.22l3.21-3.21c.51,.91,.8,1.96,.8,3.08,0,3.5-2.84,6.34-6.34,6.34-1.12,0-2.17-.29-3.08-.8-1.03-.58-1.89-1.43-2.46-2.46-.51-.91-.8-1.96-.8-3.08Z"/><path class="cls-11" d="M5.61,241.02c0-3.5,2.84-6.34,6.34-6.34,1.12,0,2.17,.29,3.08,.8l-3.21,3.21c-1.2,.06-2.16,1.02-2.22,2.22,0,.04,0,.08,0,.12,0,1.29,1.05,2.34,2.34,2.34,.04,0,.08,0,.12,0,1.2-.06,2.16-1.02,2.22-2.22l3.21-3.21c.51,.91,.8,1.96,.8,3.08,0,3.5-2.84,6.34-6.34,6.34-1.12,0-2.17-.29-3.08-.8-1.03-.58-1.89-1.43-2.46-2.46-.51-.91-.8-1.96-.8-3.08Z"/><path class="cls-11" d="M104.85,264.71c0-1.79,1.45-3.24,3.24-3.24,.57,0,1.11,.15,1.57,.41l-1.64,1.64c-.61,.03-1.1,.52-1.13,1.13,0,.02,0,.04,0,.06,0,.66,.54,1.2,1.2,1.2,.02,0,.04,0,.06,0,.61-.03,1.1-.52,1.13-1.13l1.64-1.64c.26,.47,.41,1,.41,1.57,0,1.79-1.45,3.24-3.24,3.24-.57,0-1.11-.15-1.57-.41-.53-.29-.96-.73-1.26-1.26-.26-.47-.41-1-.41-1.57Z"/><path class="cls-6" d="M107.92,261.64c0-1.79,1.45-3.24,3.24-3.24,.57,0,1.11,.15,1.57,.41l-1.64,1.64c-.61,.03-1.1,.52-1.13,1.13,0,.02,0,.04,0,.06,0,.66,.54,1.2,1.2,1.2,.02,0,.04,0,.06,0,.61-.03,1.1-.52,1.13-1.13l1.64-1.64c.26,.47,.41,1,.41,1.57,0,1.79-1.45,3.24-3.24,3.24-.57,0-1.11-.15-1.57-.41-.53-.29-.96-.73-1.26-1.26-.26-.47-.41-1-.41-1.57Z"/><path class="cls-11" d="M110.99,258.57c0-1.79,1.45-3.24,3.24-3.24,.57,0,1.11,.15,1.57,.41l-1.64,1.64c-.61,.03-1.1,.52-1.13,1.13,0,.02,0,.04,0,.06,0,.66,.54,1.2,1.2,1.2,.02,0,.04,0,.06,0,.61-.03,1.1-.52,1.13-1.13l1.64-1.64c.26,.47,.41,1,.41,1.57,0,1.79-1.45,3.24-3.24,3.24-.57,0-1.11-.15-1.57-.41-.53-.29-.96-.73-1.26-1.26-.26-.47-.41-1-.41-1.57Z"/><path class="cls-11" d="M70.73,298.83c0-1.79,1.45-3.24,3.24-3.24,.57,0,1.11,.15,1.57,.41l-1.64,1.64c-.61,.03-1.1,.52-1.13,1.13,0,.02,0,.04,0,.06,0,.66,.54,1.2,1.2,1.2,.02,0,.04,0,.06,0,.61-.03,1.1-.52,1.13-1.13l1.64-1.64c.26,.47,.41,1,.41,1.57,0,1.79-1.45,3.24-3.24,3.24-.57,0-1.11-.15-1.57-.41-.53-.29-.96-.73-1.26-1.26-.26-.47-.41-1-.41-1.57Z"/><path class="cls-6" d="M73.8,295.76c0-1.79,1.45-3.24,3.24-3.24,.57,0,1.11,.15,1.57,.41l-1.64,1.64c-.61,.03-1.1,.52-1.13,1.13,0,.02,0,.04,0,.06,0,.66,.54,1.2,1.2,1.2,.02,0,.04,0,.06,0,.61-.03,1.1-.52,1.13-1.13l1.64-1.64c.26,.47,.41,1,.41,1.57,0,1.79-1.45,3.24-3.24,3.24-.57,0-1.11-.15-1.57-.41-.53-.29-.96-.73-1.26-1.26-.26-.47-.41-1-.41-1.57Z"/><path class="cls-11" d="M117.47,252.1c0-1.79,1.45-3.24,3.24-3.24,.57,0,1.11,.15,1.57,.41l-1.64,1.64c-.61,.03-1.1,.52-1.13,1.13,0,.02,0,.04,0,.06,0,.66,.54,1.2,1.2,1.2,.02,0,.04,0,.06,0,.61-.03,1.1-.52,1.13-1.13l1.64-1.64c.26,.47,.41,1,.41,1.57,0,1.79-1.45,3.24-3.24,3.24-.57,0-1.11-.15-1.57-.41-.53-.29-.96-.73-1.26-1.26-.26-.47-.41-1-.41-1.57Z"/><path class="cls-7" d="M45.83,71.9c-.73,0-1.31-.59-1.31-1.31,0-.23,.06-.45,.17-.64l.66,.66c.01,.25,.21,.45,.46,.46,0,0,.02,0,.03,0,.27,0,.49-.22,.49-.49,0,0,0-.02,0-.03-.01-.25-.21-.45-.46-.46l-.66-.66c.19-.11,.41-.17,.64-.17,.73,0,1.31,.59,1.31,1.31,0,.23-.06,.45-.17,.64-.12,.21-.3,.39-.51,.51-.19,.11-.41,.17-.64,.17Z"/><path class="cls-7" d="M54.34,80.41c-.73,0-1.31-.59-1.31-1.31,0-.23,.06-.45,.17-.64l.66,.66c.01,.25,.21,.45,.46,.46,0,0,.02,0,.03,0,.27,0,.49-.22,.49-.49,0,0,0-.02,0-.03-.01-.25-.21-.45-.46-.46l-.66-.66c.19-.11,.41-.17,.64-.17,.73,0,1.31,.59,1.31,1.31,0,.23-.06,.45-.17,.64-.12,.21-.3,.39-.51,.51-.19,.11-.41,.17-.64,.17Z"/><path class="cls-11" d="M53.21,79.28c-.73,0-1.31-.59-1.31-1.31,0-.23,.06-.45,.17-.64l.66,.66c.01,.25,.21,.45,.46,.46,0,0,.02,0,.03,0,.27,0,.49-.22,.49-.49,0,0,0-.02,0-.03-.01-.25-.21-.45-.46-.46l-.66-.66c.19-.11,.41-.17,.64-.17,.73,0,1.31,.59,1.31,1.31,0,.23-.06,.45-.17,.64-.12,.21-.3,.39-.51,.51-.19,.11-.41,.17-.64,.17Z"/><path class="cls-11" d="M44.69,70.76c-.73,0-1.31-.59-1.31-1.31,0-.23,.06-.45,.17-.64l.66,.66c.01,.25,.21,.45,.46,.46,0,0,.02,0,.03,0,.27,0,.49-.22,.49-.49,0,0,0-.02,0-.03-.01-.25-.21-.45-.46-.46l-.66-.66c.19-.11,.41-.17,.64-.17,.73,0,1.31,.59,1.31,1.31,0,.23-.06,.45-.17,.64-.12,.21-.3,.39-.51,.51-.19,.11-.41,.17-.64,.17Z"/><path class="cls-11" d="M68.37,94.44c-.73,0-1.31-.59-1.31-1.31,0-.23,.06-.45,.17-.64l.66,.66c.01,.25,.21,.45,.46,.46,0,0,.02,0,.03,0,.27,0,.49-.22,.49-.49,0,0,0-.02,0-.03-.01-.25-.21-.45-.46-.46l-.66-.66c.19-.11,.41-.17,.64-.17,.73,0,1.31,.59,1.31,1.31,0,.23-.06,.45-.17,.64-.12,.21-.3,.39-.51,.51-.19,.11-.41,.17-.64,.17Z"/><path class="cls-7" d="M67.06,93.13c-.73,0-1.31-.59-1.31-1.31,0-.23,.06-.45,.17-.64l.66,.66c.01,.25,.21,.45,.46,.46,0,0,.02,0,.03,0,.27,0,.49-.22,.49-.49,0,0,0-.02,0-.03-.01-.25-.21-.45-.46-.46l-.66-.66c.19-.11,.41-.17,.64-.17,.73,0,1.31,.59,1.31,1.31,0,.23-.06,.45-.17,.64-.12,.21-.3,.39-.51,.51-.19,.11-.41,.17-.64,.17Z"/><path class="cls-11" d="M65.92,91.99c-.73,0-1.31-.59-1.31-1.31,0-.23,.06-.45,.17-.64l.66,.66c.01,.25,.21,.45,.46,.46,0,0,.02,0,.03,0,.27,0,.49-.22,.49-.49,0,0,0-.02,0-.03-.01-.25-.21-.45-.46-.46l-.66-.66c.19-.11,.41-.17,.64-.17,.73,0,1.31,.59,1.31,1.31,0,.23-.06,.45-.17,.64-.12,.21-.3,.39-.51,.51-.19,.11-.41,.17-.64,.17Z"/><path class="cls-11" d="M60.59,86.66c-.73,0-1.31-.59-1.31-1.31,0-.23,.06-.45,.17-.64l.66,.66c.01,.25,.21,.45,.46,.46,0,0,.02,0,.03,0,.27,0,.49-.22,.49-.49,0,0,0-.02,0-.03-.01-.25-.21-.45-.46-.46l-.66-.66c.19-.11,.41-.17,.64-.17,.73,0,1.31,.59,1.31,1.31,0,.23-.06,.45-.17,.64-.12,.21-.3,.39-.51,.51-.19,.11-.41,.17-.64,.17Z"/><path class="cls-6" d="M142.76,111.1c1.63,0,2.94,1.32,2.94,2.94,0,.52-.13,1.01-.37,1.43l-1.49-1.49c-.03-.55-.47-1-1.03-1.03-.02,0-.04,0-.06,0-.6,0-1.09,.49-1.09,1.09,0,.02,0,.04,0,.06,.03,.56,.47,1,1.03,1.03l1.49,1.49c-.42,.24-.91,.37-1.43,.37-1.63,0-2.94-1.32-2.94-2.94,0-.52,.13-1.01,.37-1.43,.27-.48,.66-.88,1.14-1.14,.42-.24,.91-.37,1.43-.37Z"/><path class="cls-6" d="M147.75,116.09c1.63,0,2.94,1.32,2.94,2.94,0,.52-.13,1.01-.37,1.43l-1.49-1.49c-.03-.55-.47-1-1.03-1.03-.02,0-.04,0-.06,0-.6,0-1.09,.49-1.09,1.09,0,.02,0,.04,0,.06,.03,.56,.47,1,1.03,1.03l1.49,1.49c-.42,.24-.91,.37-1.43,.37-1.63,0-2.94-1.32-2.94-2.94,0-.52,.13-1.01,.37-1.43,.27-.48,.66-.88,1.14-1.14,.42-.24,.91-.37,1.43-.37Z"/><path class="cls-7" d="M150.85,119.19c1.63,0,2.94,1.32,2.94,2.94,0,.52-.13,1.01-.37,1.43l-1.49-1.49c-.03-.55-.47-1-1.03-1.03-.02,0-.04,0-.06,0-.6,0-1.09,.49-1.09,1.09,0,.02,0,.04,0,.06,.03,.56,.47,1,1.03,1.03l1.49,1.49c-.42,.24-.91,.37-1.43,.37-1.63,0-2.94-1.32-2.94-2.94,0-.52,.13-1.01,.37-1.43,.27-.48,.66-.88,1.14-1.14,.42-.24,.91-.37,1.43-.37Z"/><path class="cls-7" d="M15.33,108.02c-.73,0-1.31-.59-1.31-1.31,0-.23,.06-.45,.17-.64l.66,.66c.01,.25,.21,.45,.46,.46,0,0,.02,0,.03,0,.27,0,.49-.22,.49-.49,0,0,0-.02,0-.03-.01-.25-.21-.45-.46-.46l-.66-.66c.19-.11,.41-.17,.64-.17,.73,0,1.31,.59,1.31,1.31,0,.23-.06,.45-.17,.64-.12,.21-.3,.39-.51,.51-.19,.11-.41,.17-.64,.17Z"/><path class="cls-7" d="M23.85,116.54c-.73,0-1.31-.59-1.31-1.31,0-.23,.06-.45,.17-.64l.66,.66c.01,.25,.21,.45,.46,.46,0,0,.02,0,.03,0,.27,0,.49-.22,.49-.49,0,0,0-.02,0-.03-.01-.25-.21-.45-.46-.46l-.66-.66c.19-.11,.41-.17,.64-.17,.73,0,1.31,.59,1.31,1.31,0,.23-.06,.45-.17,.64-.12,.21-.3,.39-.51,.51-.19,.11-.41,.17-.64,.17Z"/><path class="cls-11" d="M22.72,115.4c-.73,0-1.31-.59-1.31-1.31,0-.23,.06-.45,.17-.64l.66,.66c.01,.25,.21,.45,.46,.46,0,0,.02,0,.03,0,.27,0,.49-.22,.49-.49,0,0,0-.02,0-.03-.01-.25-.21-.45-.46-.46l-.66-.66c.19-.11,.41-.17,.64-.17,.73,0,1.31,.59,1.31,1.31,0,.23-.06,.45-.17,.64-.12,.21-.3,.39-.51,.51-.19,.11-.41,.17-.64,.17Z"/><path class="cls-11" d="M14.2,106.89c-.73,0-1.31-.59-1.31-1.31,0-.23,.06-.45,.17-.64l.66,.66c.01,.25,.21,.45,.46,.46,0,0,.02,0,.03,0,.27,0,.49-.22,.49-.49,0,0,0-.02,0-.03-.01-.25-.21-.45-.46-.46l-.66-.66c.19-.11,.41-.17,.64-.17,.73,0,1.31,.59,1.31,1.31,0,.23-.06,.45-.17,.64-.12,.21-.3,.39-.51,.51-.19,.11-.41,.17-.64,.17Z"/><path class="cls-11" d="M37.88,130.56c-.73,0-1.31-.59-1.31-1.31,0-.23,.06-.45,.17-.64l.66,.66c.01,.25,.21,.45,.46,.46,0,0,.02,0,.03,0,.27,0,.49-.22,.49-.49,0,0,0-.02,0-.03-.01-.25-.21-.45-.46-.46l-.66-.66c.19-.11,.41-.17,.64-.17,.73,0,1.31,.59,1.31,1.31,0,.23-.06,.45-.17,.64-.12,.21-.3,.39-.51,.51-.19,.11-.41,.17-.64,.17Z"/><path class="cls-7" d="M36.56,129.25c-.73,0-1.31-.59-1.31-1.31,0-.23,.06-.45,.17-.64l.66,.66c.01,.25,.21,.45,.46,.46,0,0,.02,0,.03,0,.27,0,.49-.22,.49-.49,0,0,0-.02,0-.03-.01-.25-.21-.45-.46-.46l-.66-.66c.19-.11,.41-.17,.64-.17,.73,0,1.31,.59,1.31,1.31,0,.23-.06,.45-.17,.64-.12,.21-.3,.39-.51,.51-.19,.11-.41,.17-.64,.17Z"/><path class="cls-11" d="M35.43,128.12c-.73,0-1.31-.59-1.31-1.31,0-.23,.06-.45,.17-.64l.66,.66c.01,.25,.21,.45,.46,.46,0,0,.02,0,.03,0,.27,0,.49-.22,.49-.49,0,0,0-.02,0-.03-.01-.25-.21-.45-.46-.46l-.66-.66c.19-.11,.41-.17,.64-.17,.73,0,1.31,.59,1.31,1.31,0,.23-.06,.45-.17,.64-.12,.21-.3,.39-.51,.51-.19,.11-.41,.17-.64,.17Z"/><path class="cls-11" d="M30.1,122.79c-.73,0-1.31-.59-1.31-1.31,0-.23,.06-.45,.17-.64l.66,.66c.01,.25,.21,.45,.46,.46,0,0,.02,0,.03,0,.27,0,.49-.22,.49-.49,0,0,0-.02,0-.03-.01-.25-.21-.45-.46-.46l-.66-.66c.19-.11,.41-.17,.64-.17,.73,0,1.31,.59,1.31,1.31,0,.23-.06,.45-.17,.64-.12,.21-.3,.39-.51,.51-.19,.11-.41,.17-.64,.17Z"/><path class="cls-7" d="M75.03,136.03c0,7.67-6.22,13.89-13.89,13.89-2.45,0-4.75-.63-6.75-1.75l7.02-7.02c2.62-.14,4.72-2.24,4.86-4.86,0-.09,0-.18,0-.27,0-2.84-2.3-5.13-5.13-5.13-.09,0-.18,0-.27,0-2.62,.14-4.72,2.24-4.86,4.86l-7.02,7.02c-1.11-2-1.75-4.3-1.75-6.75,0-7.67,6.22-13.89,13.89-13.89,2.45,0,4.75,.63,6.75,1.75,2.26,1.26,4.14,3.13,5.4,5.4,1.11,2,1.75,4.3,1.75,6.75Z"/></g></g><g class="cls-4"><image width="1920" height="1080" transform="translate(-582.62) scale(.32)" xlink:href="../kebash-gameplay.png"/></g><g><g class="cls-2"><rect class="cls-3" x="-.09" width="500.09" height="300"/></g><g><path class="cls-1" d="M344.15,80.07h-72.87c-13.61,0-24.64,11.03-24.64,24.64v72.87c0,13.61,11.03,24.64,24.64,24.64h72.87c13.61,0,24.64-11.03,24.64-24.64V104.71c0-13.61-11.03-24.64-24.64-24.64Zm-17.8,61.08c0,12.55-12.4,22.2-25.61,17.37-7.06-2.58-11.67-9.41-11.67-16.92v-.03c0-9.72,7.27-18.13,16.94-18.98,11.06-.98,20.33,7.71,20.33,18.56h0Z"/><path class="cls-1" d="M239.94,177.03c0-8.12-3.8-15.92-10.54-20.45-3.59-2.42-6.32-6.06-7.45-10.46-2.14-8.28,1.27-16,7.3-20.24,6.64-4.67,10.7-12.18,10.7-20.3v-.88c0-13.6-11.03-24.63-24.63-24.63h-.88c-8.18,0-15.64,4.19-20.41,10.84-3.38,4.72-8.91,7.8-15.16,7.8s-11.78-3.08-15.16-7.8c-4.76-6.65-12.23-10.84-20.41-10.84h-.88c-13.6,0-24.63,11.03-24.63,24.63v.88c0,8.18,4.19,15.64,10.84,20.41,4.72,3.38,7.8,8.91,7.8,15.16s-3.08,11.78-7.8,15.16c-6.65,4.76-10.84,12.23-10.84,20.41v.88c0,13.6,11.03,24.63,24.63,24.63h.88c8.18,0,15.64-4.19,20.41-10.84,3.38-4.72,8.91-7.8,15.16-7.8s11.78,3.08,15.16,7.8c4.76,6.65,12.23,10.84,20.41,10.84h.88c13.6,0,24.63-11.03,24.63-24.63v-.57Z"/><g><path class="cls-1" d="M254.05,210.77h1.43c1.01,2.24,2.02,4.48,3.02,6.72h.02c1.01-2.24,2.01-4.48,3.02-6.72h1.44v8.47h-1.18v-6.25h-.04c-.92,2.08-1.86,4.17-2.78,6.25h-.93c-.92-2.08-1.86-4.17-2.78-6.25h-.03v6.25h-1.18v-8.47Z"/><path class="cls-1" d="M273.94,210.77h1.34l3.33,8.47h-1.25l-1.04-2.61h-3.46c-.35,.87-.67,1.74-1.02,2.61h-1.23l3.33-8.47Zm1.97,4.74c-.42-1.06-.88-2.24-1.29-3.35h-.02l-1.31,3.35h2.63Z"/><path class="cls-1" d="M285.71,215.03c0-2.71,1.93-4.43,4.26-4.43,1.73,0,3.26,.94,3.81,2.56l-1.07,.43c-.48-1.16-1.47-1.9-2.73-1.9-1.65,0-3.04,1.25-3.04,3.35,0,2.33,1.69,3.28,3.16,3.28s2.56-.98,2.74-2.37h-2.62v-.98h3.78v4.26h-.91c-.02-.53-.03-1.09-.05-1.62h-.05c-.59,1.14-1.62,1.8-3.08,1.8-2.44,0-4.18-1.82-4.18-4.4Z"/><path class="cls-1" d="M304.62,210.77h1.34l3.33,8.47h-1.25l-1.04-2.61h-3.46c-.35,.87-.67,1.74-1.02,2.61h-1.23l3.33-8.47Zm1.97,4.74c-.42-1.06-.88-2.24-1.29-3.35h-.02l-1.31,3.35h2.63Z"/><path class="cls-1" d="M321.21,211.86h0s-4.79-.01-4.79-.01v-1.07h6.25v1.11c-1.67,2.08-3.33,4.17-5,6.24v.02h5.1v1.1h-6.52v-1.11c1.65-2.08,3.31-4.18,4.96-6.27Z"/><path class="cls-1" d="M330.69,210.77h1.16v8.47h-1.16v-8.47Z"/><path class="cls-1" d="M340.42,210.77h1.23c1.48,2.14,2.95,4.24,4.44,6.48h.02v-6.48h1.16v8.47h-1.23c-1.47-2.11-2.95-4.18-4.44-6.38h-.02v6.38h-1.16v-8.47Z"/><path class="cls-1" d="M355.85,210.77h5.42v1.07h-4.26v2.51h4.04v1.12h-4.04v2.67h4.36v1.1h-5.53v-8.47Z"/></g></g></g><g class="cls-10"><g class="cls-5"><image width="1000" height="788" transform="translate(-42.53 -412.16) scale(.56)" xlink:href="../cat-character-design.png"/></g></g></svg>