<?xml version="1.0" encoding="UTF-8"?><svg id="Layer_1" xmlns="http://www.w3.org/2000/svg" xmlns:xlink="http://www.w3.org/1999/xlink" viewBox="0 0 500 300"><defs><style>.cls-1{fill:#fff;}.cls-2{fill:#bfbfbf;}.cls-3{clip-path:url(#clippath-1);}.cls-4{clip-path:url(#clippath);}.cls-5{fill:none;}.cls-6{fill:#fff100;}.cls-7{fill:#f7b81c;}</style><clipPath id="clippath"><rect class="cls-2" x="-2.6" y="-332" width="505.93" height="304"/></clipPath><clipPath id="clippath-1"><rect class="cls-5" x="-1060" y="-329.84" width="500" height="300"/></clipPath></defs><rect class="cls-1" width="500" height="300"/><g><rect class="cls-2" x="-2.6" y="-332" width="505.93" height="304"/><g class="cls-4"><image width="853" height="1788" transform="translate(39.77 -623.14) scale(.51)" xlink:href="../Asset 1.png"/></g></g><g class="cls-3"><rect class="cls-6" x="-262.92" y="-717.21" width="7.6" height="1072.31" transform="translate(-314.32 -492.31) rotate(-135)"/></g><path class="cls-7" d="M292.78,152.36c-1.02,3.49-2.27,6.88-4.06,10.07-2.19,3.92-4.95,7.39-8.28,10.4-1.66,1.5-3.41,2.87-5.27,4.09-2.57,1.68-5.32,2.97-8.26,3.85-.1,.03-.2,.05-.3,.09-.47,.17-.48,.18-.42,.66,.25,1.77,.03,3.47-.51,5.17-.73,2.33-1.67,4.56-2.73,6.75-.46,.93-1.09,1.76-1.75,2.53-1.32,1.54-2.83,2.89-4.53,3.99-1.39,.9-2.91,1.54-4.52,1.96-.86,.23-1.67,.05-2.46-.29,0,0,0,0,0,0-.02-.01-.04-.02-.06-.03-.14-.06-.27-.18-.38-.3-.36-.42-.32-.63,.2-.85,.25-.11,.48-.24,.68-.42h0c.09-.08,.18-.17,.26-.26,.44-.51,.9-1.02,1.31-1.56,.64-.86,1.04-1.76,1.2-2.71,.06-.38,.09-.78,.08-1.18,0-.4-.06-.82-.14-1.24-.29-1.51-.47-3.05-.77-4.56-.23-1.16-.15-2.29,.02-3.44,.06-.41,.23-.78,.37-1.23-1.54-.53-2.83-1.38-4.06-2.31-.66-.5-1.28-1.05-1.8-1.69-.77-.94-1.55-1.88-2.18-2.92-.77-1.28-1.84-2.27-3.03-3.13-.3-.21-.63-.36-.97-.5,0,0-.01,0-.02,0,0,0,0,0-.01,0s0,0-.01,0c0,0-.01,0-.02,0-.02,0-.04-.02-.06-.02-.16-.06-.32-.12-.47-.19-.52-.22-.65-.74-.18-1.04,.74-.47,1.47-.97,2.37-1.17,1.05-.24,2.12-.26,3.19-.27,1.46-.02,2.92-.04,4.38,.17,1.66,.24,3.27,.63,4.9,1.02,1.58,.38,3.09,.94,4.49,1.71,1.32,.72,2.69,1.34,3.91,2.23,.78,.56,.79,.53,1.57-.04,.95-.7,1.79-1.52,2.57-2.4,1.26-1.41,2.47-2.88,3.48-4.49,.37-.59,.62-1.25,.9-1.89,.86-1.92,1.64-3.87,2-5.96,.17-.97,.22-1.96,.19-2.95-.01-.33-.13-.46-.44-.54-1.24-.32-2.4-.87-3.53-1.47-.57-.3-1.07-.7-1.54-1.14-1.16-1.08-2.36-2.12-3.51-3.22-1.7-1.63-3.22-3.42-4.65-5.29-.1-.13-.2-.26-.3-.39-.67-.82-1.45-1-2.45-.59-.68,.28-1.38,.42-2.11,.25-.24-.06-.44-.02-.67,.05-.89,.27-1.7,.73-2.56,1.09-.81,.33-1.63,.56-2.5,.68-1.03,.13-2.01-.02-2.98-.37-.43-.15-.84-.33-1.27-.5-.9-.34-1.84-.43-2.78-.55-.87-.12-1.67-.05-2.46,.31-.45,.2-2.55,.42-3.1,.52-1.94,.36-3.89,.35-5.85,.09-1.94-.26-3.88-.52-5.83-.75-2.35-.28-4.69-.19-7,.37-1.28,.32-2.58,.53-3.92,.45-2.01-.12-3.89-.74-5.61-1.76-.98-.59-1.64-1.49-1.94-2.62-.06-.24-.17-.47-.27-.69-.62-1.38-.44-2.69,.38-3.94,.59-.91,1.38-1.63,2.21-2.32,.63-.53,1.31-1,2-1.46,1.29-.87,2.44-1.89,3.35-3.17,.79-1.12,1.17-2.4,1.61-3.66,.43-1.25,.6-2.57,.91-3.84,1.2-4.86,3.49-9.06,7.36-12.31,1.82-1.53,3.91-2.6,6.12-3.43,.78-.29,1.56-.56,2.35-.79,0-.02,0-.04,.01-.05-.09-.03-.13-.09-.08-.17,.46-.76,1.28-1.11,2.09-1.46,2.33-1.03,4.76-1.62,7.34-1.48,1.78,.1,3.37,.7,4.79,1.71,0,0,0,0,.02,0,1.87-.48,3.78-.6,5.7-.67,.44-.02,.71-.14,.95-.53,.53-.84,1.31-1.47,2.04-2.14,1.92-1.75,4.22-2.77,6.7-3.43,2.37-.63,4.79-.85,7.23-.73,1.21,.06,2.41,.27,3.5,.88,.87,.49,1.02,1.01,.5,1.85-.74,1.19-1.5,2.37-2.17,3.6-.77,1.42-.86,2.89-.57,4.44,.06,.31,.23,.45,.5,.56,1.1,.47,2.18,.98,3.21,1.59,1.01,.6,4.48,2.78,4.77,4.54-.02,.3,.1,.49,.33,.67,.9,.69,2.8,2.21,2.86,2.27,1.09,1.23,2.42,2.23,3.39,3.58,.17,.24,.34,.47,.53,.68,1.26,1.38,2.22,2.96,3.21,4.54,1.72,2.71,2.89,5.64,3.56,8.76,.5,2.34,.88,4.69,.95,7.09,.1,3.16-.33,6.25-1.21,9.28Z"/></svg>