<?xml version="1.0" encoding="UTF-8"?><svg id="Layer_1" xmlns="http://www.w3.org/2000/svg" viewBox="0 0 500 300"><defs><style>.cls-1{fill:#fff;}.cls-2{fill:#f7b81c;}</style></defs><rect class="cls-1" x=".5" y=".5" width="499.47" height="299.5"/><g><path class="cls-2" d="M292.36,144.44v28.01c0,8.5-4.92,15.87-12.07,19.41,3.79-4.68,6.07-10.65,6.07-17.13v-27.46c0-15.04-12.23-27.27-27.27-27.27h-18.2c-15.03,0-27.27,12.23-27.27,27.27v27.46c0,6.48,2.28,12.45,6.08,17.13-7.15-3.54-12.07-10.91-12.07-19.41v-27.66c0-23.36,19.01-42.36,42.36-42.36h.35c23.17,0,42.02,18.84,42.02,42.01Z"/><path class="cls-2" d="M259.09,124.42h-18.2c-12.59,0-22.84,10.25-22.84,22.85v27.46c0,8.15,4.29,15.32,10.74,19.36,1.44,.91,3,1.66,4.64,2.22,2.34,.82,4.85,1.26,7.46,1.26h18.2c2.62,0,5.13-.44,7.47-1.26,1.64-.56,3.19-1.31,4.64-2.22,6.45-4.04,10.74-11.21,10.74-19.36v-27.46c0-12.6-10.25-22.85-22.85-22.85Zm-22.89,54.36v-4.42h30.58v4.42h-30.58Zm23.06,3.68v4.43h-15.53v-4.43h15.53Zm9.84-33.96l-5.55-5.55h-1.1c-.86,0-1.56,.7-1.56,1.56v20.43c0,2.56-2.08,4.64-4.64,4.64h-10.2c-2.56,0-4.64-2.08-4.64-4.64v-20.43c0-.86-.69-1.56-1.55-1.56h-1.11l-5.54,5.55-9.98-9.98h16.63c3.3,0,5.98,2.69,5.98,5.99v20.43c0,.12,.09,.21,.21,.21h10.2c.12,0,.22-.09,.22-.21v-20.43c0-3.3,2.68-5.99,5.98-5.99h16.62l-9.97,9.98Z"/></g></svg>