<?xml version="1.0" encoding="UTF-8"?><svg id="Layer_1" xmlns="http://www.w3.org/2000/svg" xmlns:xlink="http://www.w3.org/1999/xlink" viewBox="0 0 500 300"><defs><style>.cls-1{fill:#fff;}.cls-2{fill:none;}.cls-3{fill:#f7b81c;}</style><clipPath id="clippath"><rect class="cls-2" x="-1060" y="-1319.84" width="500" height="300"/></clipPath></defs><rect class="cls-1" width="500" height="300"/><g><g><path class="cls-3" d="M231.73,197.84c-.76,1.55-2.34,2.53-4.06,2.53h-15.49c-2.5,0-4.53-2.02-4.53-4.53s2.02-4.53,4.53-4.53h7.46c-2.21-4.99-2.68-9.91-1.38-14.68,.45-1.66,1.1-3.2,1.89-4.64,2.23,2.12,4.69,4.02,7.32,5.64-.19,.46-.35,.93-.48,1.41-1.13,4.19,.3,8.91,4.25,14.03,1.05,1.37,1.24,3.21,.48,4.77Z"/><path class="cls-3" d="M292.35,195.84c0,2.5-2.02,4.53-4.53,4.53h-15.49c-1.73,0-3.3-.98-4.06-2.53-.76-1.55-.58-3.4,.48-4.77,3.95-5.12,5.38-9.84,4.26-14.03-.07-.27-.16-.53-.25-.8,2.69-1.56,5.21-3.4,7.5-5.47,.6,1.21,1.11,2.49,1.47,3.85,1.3,4.77,.84,9.69-1.38,14.68h7.46c2.5,0,4.53,2.02,4.53,4.53Z"/></g><path class="cls-3" d="M250.64,99.63c-22.28,0-40.34,18.06-40.34,40.34s18.06,40.34,40.34,40.34,40.34-18.06,40.34-40.34-18.06-40.34-40.34-40.34Zm-.27,59.73c-10.87,0-19.72-8.84-19.72-19.72s8.84-19.72,19.72-19.72,19.72,8.84,19.72,19.72-8.84,19.72-19.72,19.72Z"/><circle class="cls-3" cx="250.37" cy="139.65" r="14.98"/></g></svg>