<?xml version="1.0" encoding="UTF-8"?><svg id="Layer_1" xmlns="http://www.w3.org/2000/svg" viewBox="0 0 150 150"><defs><style>.cls-1{fill:#f7b81c;}</style></defs><path class="cls-1" d="M121.31,68.42v30.62c0,9.29-5.38,17.35-13.19,21.22,4.14-5.12,6.64-11.64,6.64-18.73v-30.02c0-16.44-13.37-29.81-29.81-29.81h-19.89c-16.43,0-29.81,13.37-29.81,29.81v30.02c0,7.08,2.49,13.61,6.65,18.73-7.82-3.87-13.19-11.93-13.19-21.22v-30.24c0-25.54,20.78-46.3,46.3-46.3h.38c25.33,0,45.93,20.59,45.93,45.92Z"/><path class="cls-1" d="M84.94,46.54h-19.89c-13.76,0-24.97,11.2-24.97,24.98v30.02c0,8.91,4.69,16.75,11.74,21.16,1.57,.99,3.28,1.81,5.07,2.43,2.56,.9,5.3,1.38,8.15,1.38h19.89c2.86,0,5.61-.48,8.17-1.38,1.79-.61,3.49-1.43,5.07-2.43,7.05-4.42,11.74-12.25,11.74-21.16v-30.02c0-13.77-11.2-24.98-24.98-24.98Zm-25.02,59.42v-4.83h33.43v4.83H59.92Zm25.21,4.02v4.84h-16.98v-4.84h16.98Zm10.76-37.12l-6.07-6.07h-1.2c-.94,0-1.71,.77-1.71,1.71v22.33c0,2.8-2.27,5.07-5.07,5.07h-11.15c-2.8,0-5.07-2.27-5.07-5.07v-22.33c0-.94-.75-1.71-1.69-1.71h-1.21l-6.06,6.07-10.91-10.91h18.18c3.61,0,6.54,2.94,6.54,6.55v22.33c0,.13,.1,.23,.23,.23h11.15c.13,0,.24-.1,.24-.23v-22.33c0-3.61,2.93-6.55,6.54-6.55h18.17l-10.9,10.91Z"/></svg>