<?xml version="1.0" encoding="UTF-8"?><svg id="Layer_1" xmlns="http://www.w3.org/2000/svg" viewBox="0 0 500 300"><defs><style>.cls-1{fill:#fff;}.cls-2{fill:#f7b81c;}</style></defs><rect class="cls-1" width="500" height="300"/><path class="cls-2" d="M200.83,167.68c4.7,4.11,6.26,10.36,6.26,14.54v4.26s0,0,0,0v.72c0,11.17,9.06,20.23,20.23,20.23h.72c6.72,0,12.85-3.44,16.76-8.91,2.78-3.88,7.32-6.4,12.45-6.4s9.68,2.53,12.45,6.4c3.91,5.46,10.04,8.91,16.76,8.91h.72c11.17,0,20.23-9.06,20.23-20.23v-.47c0-6.67-3.12-13.07-8.66-16.8-2.95-1.98-5.19-4.98-6.12-8.59-1.76-6.8,1.04-13.14,5.99-16.62,5.46-3.83,8.79-10.01,8.79-16.68v-.72c0-11.17-9.06-20.23-20.23-20.23h-5.08c-4.18-.03-10.36-1.6-14.44-6.26-3.55-4.06-4.74-8.27-10.41-8.27s-6.87,4.21-10.41,8.27c-4.08,4.66-10.26,6.23-14.45,6.26h-5.08c-11.17,0-20.23,9.06-20.23,20.23v.72s0,0,0,0v4.26c0,4.18-1.57,10.42-6.26,14.54-4.06,3.55-8.27,4.74-8.27,10.41s4.21,6.87,8.27,10.41Z"/></svg>