<?xml version="1.0" encoding="UTF-8"?><svg id="Layer_2" xmlns="http://www.w3.org/2000/svg" viewBox="0 0 363.49 548.56"><defs><style>.cls-1{fill:#fff;stroke:#000;stroke-miterlimit:10;}</style></defs><g id="Layer_1-2"><g><g><polygon class="cls-1" points="362.99 540.18 14.94 481.86 14.94 .59 362.99 58.91 362.99 540.18"/><polygon class="cls-1" points="359.38 542.13 11.33 483.81 11.33 2.54 359.38 60.86 359.38 542.13"/><polygon class="cls-1" points="355.77 544.07 7.72 485.75 7.72 4.49 355.77 62.81 355.77 544.07"/><polygon class="cls-1" points="352.16 546.02 4.11 487.7 4.11 6.44 352.16 64.76 352.16 546.02"/><polygon class="cls-1" points="348.55 547.97 .5 489.65 .5 8.39 348.55 66.71 348.55 547.97"/></g><path d="M109.34,106.27c0,6.06,3.15,11.91,7.9,15.76,5.72,4.62,9.32,11.39,9.32,18.18v.93c0,10.78-8.76,18.08-19.57,16.29l-.93-.15c-6.8-1.13-12.99-5.75-16.67-12.06-3.06-5.25-8.4-9.27-14.48-10.28s-11.42,1.25-14.48,5.48c-3.68,5.09-9.87,7.67-16.67,6.54l-.93-.15c-10.81-1.79-19.57-11.99-19.57-22.77v-.93c0-6.79,3.6-12.36,9.32-15.09,4.75-2.27,7.9-7.08,7.9-13.14s-3.15-11.91-7.9-15.76c-5.67-4.59-9.26-11.29-9.32-18.02v-1.09c0-10.78,8.76-18.08,19.57-16.29l1.06,.17c6.75,1.16,12.88,5.76,16.55,12.04,3.06,5.25,8.4,9.27,14.48,10.28,6.08,1.01,11.42-1.25,14.48-5.48,3.68-5.09,9.87-7.67,16.67-6.54l.93,.15c10.81,1.79,19.57,11.99,19.57,22.77v1.09c-.06,6.71-3.65,12.22-9.32,14.93-4.75,2.27-7.9,7.08-7.9,13.14Z"/><path d="M106.98,163.72l-64.17-10.63c-10.81-1.79-19.57,5.5-19.57,16.29v64.03c0,10.79,8.76,20.98,19.57,22.77l64.17,10.63c10.81,1.79,19.57-5.5,19.57-16.29v-64.03c0-10.79-8.76-20.98-19.57-22.77Zm-32.08,63.41c-9.51-1.58-17.22-10.54-17.22-20.03s7.71-15.9,17.22-14.33,17.22,10.54,17.22,20.03-7.71,15.9-17.22,14.33Z"/></g></g></svg>