<?xml version="1.0" encoding="UTF-8"?><svg id="Layer_2" xmlns="http://www.w3.org/2000/svg" viewBox="0 0 742.83 406.34"><g id="Layer_1-2"><g><g><g><path d="M418.39,383.05h3.86c2.72,6.02,5.44,12.07,8.12,18.09h.06c2.72-6.02,5.41-12.07,8.12-18.09h3.89v22.79h-3.19v-16.83h-.12c-2.48,5.61-5,11.22-7.48,16.83h-2.51c-2.48-5.61-5-11.22-7.48-16.83h-.09v16.83h-3.19v-22.79Z"/><path d="M471.92,383.05h3.6l8.97,22.79h-3.36l-2.81-7.01h-9.32c-.94,2.34-1.81,4.68-2.75,7.01h-3.3l8.97-22.79Zm5.29,12.77c-1.14-2.86-2.37-6.02-3.48-9.03h-.06l-3.54,9.03h7.07Z"/><path d="M503.62,394.51c0-7.31,5.2-11.92,11.46-11.92,4.65,0,8.77,2.54,10.26,6.9l-2.89,1.17c-1.29-3.13-3.95-5.12-7.34-5.12-4.44,0-8.18,3.36-8.18,9.03,0,6.28,4.56,8.83,8.5,8.83s6.9-2.63,7.36-6.37h-7.04v-2.63h10.17v11.45h-2.45c-.06-1.43-.09-2.92-.15-4.35h-.15c-1.58,3.07-4.35,4.85-8.3,4.85-6.58,0-11.25-4.91-11.25-11.84Z"/><path d="M554.52,383.05h3.6l8.97,22.79h-3.36l-2.81-7.01h-9.32c-.94,2.34-1.81,4.68-2.75,7.01h-3.3l8.97-22.79Zm5.29,12.77c-1.14-2.86-2.37-6.02-3.48-9.03h-.06l-3.54,9.03h7.07Z"/><path d="M599.16,385.97v-.03h-12.89v-2.89h16.83v2.98c-4.5,5.61-8.97,11.22-13.47,16.8v.06h13.73v2.95h-17.56v-2.98c4.44-5.61,8.91-11.25,13.35-16.89Z"/><path d="M624.67,383.05h3.13v22.79h-3.13v-22.79Z"/><path d="M650.87,383.05h3.3c3.97,5.76,7.95,11.43,11.95,17.45h.06v-17.45h3.13v22.79h-3.3c-3.95-5.67-7.95-11.25-11.95-17.18h-.06v17.18h-3.13v-22.79Z"/><path d="M692.39,383.05h14.58v2.89h-11.46v6.75h10.87v3.01h-10.87v7.19h11.75v2.95h-14.87v-22.79Z"/></g><path d="M674.63,1.25h-223.6c-37.67,0-68.2,30.53-68.2,68.2v223.6c0,37.67,30.53,68.2,68.2,68.2h223.6c37.67,0,68.2-30.53,68.2-68.2V69.45c0-37.67-30.53-68.2-68.2-68.2Zm-111.8,240c-33.14,0-60-26.86-60-60s26.86-60,60-60,60,26.86,60,60-26.86,60-60,60Z"/></g><path d="M300,180c0-21.17,10.97-39.78,27.53-50.46,19.91-12.84,32.47-34.4,32.47-58.09v-3.25C360,30.53,329.47,0,291.8,0h-3.25c-23.69,0-45.25,12.56-58.09,32.47-10.68,16.56-29.29,27.53-50.46,27.53s-39.78-10.97-50.46-27.53C116.7,12.56,95.14,0,71.45,0h-3.25C30.53,0,0,30.53,0,68.2v3.25c0,23.69,12.56,45.25,32.47,58.09,16.56,10.68,27.53,29.29,27.53,50.46s-10.97,39.78-27.53,50.46C12.56,243.3,0,264.86,0,288.55v3.25c0,37.67,30.53,68.2,68.2,68.2h3.25c23.69,0,45.25-12.56,58.09-32.47,10.68-16.56,29.29-27.53,50.46-27.53s39.78,10.97,50.46,27.53c12.84,19.91,34.4,32.47,58.09,32.47h3.25c37.67,0,68.2-30.53,68.2-68.2v-3.25c0-23.69-12.56-45.25-32.47-58.09-16.56-10.68-27.53-29.29-27.53-50.46Z"/></g></g></svg>