<?xml version="1.0" encoding="UTF-8"?><svg id="Layer_2" xmlns="http://www.w3.org/2000/svg" viewBox="0 0 832.53 355.5"><defs><style>.cls-1{stroke-dasharray:0 0 4.97 4.97;}.cls-1,.cls-2,.cls-3,.cls-4,.cls-5{fill:none;stroke:#000;stroke-miterlimit:10;}.cls-3,.cls-4{stroke-width:.75px;}.cls-4,.cls-5{stroke-dasharray:0 0 5.02 5.02;}.cls-6{opacity:.3;}</style></defs><g id="Layer_1-2"><g><g><rect class="cls-2" x="58.32" y="145" width="180" height="180" rx="34.1" ry="34.1"/><circle class="cls-2" cx="148.32" cy="325" r="30"/><circle class="cls-2" cx="148.32" cy="145" r="30"/><circle class="cls-2" cx="238.32" cy="235" r="30"/><circle class="cls-2" cx="58.32" cy="235" r="30"/><circle class="cls-2" cx="43.32" cy="235" r="15"/><circle class="cls-2" cx="253.32" cy="235" r="15"/><circle class="cls-2" cx="148.32" cy="340" r="15"/><circle class="cls-2" cx="148.32" cy="130" r="15"/></g><g><path class="cls-2" d="M754.07,235c0,10.59,5.48,19.89,13.76,25.23,9.96,6.42,16.24,17.2,16.24,29.05v1.62c0,18.83-15.27,34.1-34.1,34.1h-1.62c-11.85,0-22.63-6.28-29.05-16.24-5.34-8.28-14.64-13.76-25.23-13.76s-19.89,5.48-25.23,13.76c-6.42,9.96-17.2,16.24-29.05,16.24h-1.62c-18.83,0-34.1-15.27-34.1-34.1v-1.62c0-11.85,6.28-22.63,16.24-29.05,8.28-5.34,13.76-14.64,13.76-25.23s-5.48-19.89-13.76-25.23c-9.88-6.37-16.14-17.03-16.24-28.77v-1.9c0-18.83,15.27-34.1,34.1-34.1h1.84c11.76,.08,22.45,6.34,28.83,16.24,5.34,8.28,14.64,13.76,25.23,13.76s19.89-5.48,25.23-13.76c6.42-9.96,17.2-16.24,29.05-16.24h1.62c18.83,0,34.1,15.27,34.1,34.1v1.9c-.1,11.74-6.36,22.4-16.24,28.77-8.28,5.34-13.76,14.65-13.76,25.23Z"/><g><path class="cls-2" d="M748.35,145c-11.85,0-22.63,6.28-29.05,16.24-5.34,8.28-14.64,13.76-25.23,13.76s-19.89-5.48-25.23-13.76c-6.38-9.9-17.07-16.16-28.83-16.24,13.06,0,19.95-2,28.95-11,8.32-8.32,10.66-17.5,22.83-18.83,.17-.02,.33-.04,.5-.06,.67-.06,1.37-.09,2.1-.1,.01,0,.03-.01,.05-.01s.04,.01,.05,.01c.12,0,.23,0,.35,.01,14.25,.35,16.34,10.15,25.17,18.98,8.86,8.86,15.67,10.94,28.34,11Z"/><path class="cls-2" d="M749.04,325c-13.05,0-19.94,2-28.94,11s-10.93,18.67-25.26,18.98c-.06,.01-.13,.01-.19,.01h-.08s-.02,.01-.03,.01-.02-.01-.03-.01c-1-.01-1.94-.07-2.83-.18-12-1.4-14.36-10.53-22.64-18.81-9-9-15.89-11-28.94-11h-.31c11.85,0,22.63-6.28,29.05-16.24,5.34-8.28,14.64-13.76,25.23-13.76s19.89,5.48,25.23,13.76c6.42,9.96,17.2,16.24,29.05,16.24h.69Z"/><path class="cls-2" d="M634.07,235c0,10.59-5.48,19.89-13.76,25.23-9.96,6.42-16.24,17.2-16.24,29.05v.67c0-13.06-2-19.95-11-28.95-8.84-8.84-18.65-10.93-18.98-25.23-.01-.07-.01-.14-.01-.2v-.09s0-.02,0-.03c0,0,0-.01,0-.02,.01-.96,.07-1.86,.16-2.71,0-.02,.01-.05,.01-.07,1.38-12.06,10.53-14.41,18.82-22.7,9-9,11-15.89,11-28.95,.1,11.74,6.36,22.4,16.24,28.77,8.28,5.34,13.76,14.65,13.76,25.23Z"/><path class="cls-2" d="M814.07,235.45s0,.02,0,.03v.09c0,.06,0,.13-.01,.2-.33,14.3-10.14,16.39-18.98,25.23-9,9-11,15.89-11,28.95v-.67c0-11.85-6.28-22.63-16.24-29.05-8.28-5.34-13.76-14.64-13.76-25.23s5.48-19.89,13.76-25.23c9.88-6.37,16.14-17.03,16.24-28.77,0,13.06,2,19.95,11,28.95,8.29,8.29,17.44,10.64,18.82,22.7,0,.02,.01,.05,.01,.07,.09,.85,.15,1.75,.16,2.71,0,.01,0,.02,0,.02Z"/></g></g><g><path class="cls-2" d="M481.19,235c0-10.59,5.48-19.89,13.76-25.23,9.95-6.42,16.24-17.2,16.24-29.05v-1.62c0-18.83-15.27-34.1-34.1-34.1h-1.62c-11.85,0-22.63,6.28-29.05,16.24-5.34,8.28-14.64,13.76-25.23,13.76s-19.89-5.48-25.23-13.76c-6.42-9.95-17.2-16.24-29.05-16.24h-1.62c-18.83,0-34.1,15.27-34.1,34.1v1.62c0,11.85,6.28,22.63,16.24,29.05,8.28,5.34,13.76,14.64,13.76,25.23s-5.48,19.89-13.76,25.23c-9.95,6.42-16.24,17.2-16.24,29.05v1.62c0,18.83,15.27,34.1,34.1,34.1h1.62c11.85,0,22.63-6.28,29.05-16.24,5.34-8.28,14.64-13.76,25.23-13.76s19.89,5.48,25.23,13.76c6.42,9.95,17.2,16.24,29.05,16.24h1.62c18.83,0,34.1-15.27,34.1-34.1v-1.62c0-11.85-6.28-22.63-16.24-29.05-8.28-5.34-13.76-14.64-13.76-25.23Z"/><g><g><rect class="cls-2" x="331.19" y="145" width="180" height="180" rx="34.1" ry="34.1"/><circle class="cls-2" cx="316.19" cy="235" r="15"/><circle class="cls-2" cx="526.19" cy="235" r="15"/><circle class="cls-2" cx="421.19" cy="340" r="15"/><circle class="cls-2" cx="421.19" cy="130" r="15"/><path class="cls-2" d="M331.19,289.94c0-13.06-2-19.94-11-28.94s-19-11-19-26v.94c0-15,10-17,19-26s11-15.89,11-28.94v108.94Z"/><path class="cls-2" d="M511.19,289.94c0-13.06,2-19.94,11-28.94,9-9,19-11,19-26v.94c0-15-10-17-19-26-9-9-11-15.89-11-28.94v108.94Z"/></g><path class="cls-2" d="M476.08,145c-13.06,0-19.94-2-28.94-11s-11-19-26-19h.94c-15,0-17,10-26,19s-15.89,11-28.94,11h108.94Z"/><path class="cls-2" d="M367.22,325c13.06,0,19.94,2,28.94,11,9,9,11,19,26,19h-.94c15,0,17-10,26-19,9-9,15.89-11,28.94-11h-108.94Z"/></g></g><g class="cls-6"><g><line class="cls-2" y1="115" x2="2.5" y2="115"/><line class="cls-5" x1="7.52" y1="115" x2="827.52" y2="115"/><line class="cls-2" x1="830.03" y1="115" x2="832.53" y2="115"/></g></g><g class="cls-6"><g><line class="cls-2" y1="145" x2="2.5" y2="145"/><line class="cls-5" x1="7.52" y1="145" x2="827.52" y2="145"/><line class="cls-2" x1="830.03" y1="145" x2="832.53" y2="145"/></g></g><g class="cls-6"><g><line class="cls-2" y1="325" x2="2.5" y2="325"/><line class="cls-5" x1="7.52" y1="325" x2="827.52" y2="325"/><line class="cls-2" x1="830.03" y1="325" x2="832.53" y2="325"/></g></g><g class="cls-6"><g><line class="cls-3" y1="355" x2="2.5" y2="355"/><line class="cls-4" x1="7.52" y1="355" x2="827.52" y2="355"/><line class="cls-3" x1="830.03" y1="355" x2="832.53" y2="355"/></g></g><g><g class="cls-6"><g><line class="cls-2" x1="270.52" y1=".5" x2="273.02" y2=".5"/><line class="cls-1" x1="277.99" y1=".5" x2="603.68" y2=".5"/><line class="cls-2" x1="606.16" y1=".5" x2="608.66" y2=".5"/></g></g><g class="cls-6"><g><line class="cls-2" x1="270.52" y1="30.5" x2="273.02" y2="30.5"/><line class="cls-1" x1="277.99" y1="30.5" x2="603.68" y2="30.5"/><line class="cls-2" x1="606.16" y1="30.5" x2="608.66" y2="30.5"/></g></g><g class="cls-6"><g><line class="cls-2" x1="270.52" y1="60.5" x2="273.02" y2="60.5"/><line class="cls-1" x1="277.99" y1="60.5" x2="603.68" y2="60.5"/><line class="cls-2" x1="606.16" y1="60.5" x2="608.66" y2="60.5"/></g></g><circle class="cls-2" cx="519.52" cy="30.5" r="30"/><circle class="cls-2" cx="420.55" cy="30.5" r="30"/><circle class="cls-2" cx="519.52" cy="15.5" r="15"/><circle class="cls-2" cx="328.52" cy="15.5" r="15"/></g><path d="M643.52,35.2l-2.94-4.05-2.9,4.05h-1.61l3.68-5.03-3.46-4.77h1.6l2.74,3.77,2.72-3.77h1.53l-3.46,4.73,3.71,5.07h-1.61Z"/><line class="cls-2" x1="627.61" y1="60.5" x2="627.61" y2=".5"/><line class="cls-2" x1="623.01" y1="60.5" x2="632.01" y2="60.5"/><line class="cls-2" x1="623.01" y1=".5" x2="632.01" y2=".5"/><line class="cls-2" x1="627.61" y1="60.5" x2="627.61" y2=".5"/><line class="cls-2" x1="623.01" y1="60.5" x2="632.01" y2="60.5"/><line class="cls-2" x1="623.01" y1=".5" x2="632.01" y2=".5"/><line class="cls-2" x1="255.53" y1="30.5" x2="255.53" y2=".5"/><line class="cls-2" x1="250.92" y1="30.5" x2="259.92" y2="30.5"/><line class="cls-2" x1="250.92" y1=".5" x2="259.92" y2=".5"/><line class="cls-2" x1="255.53" y1="30.5" x2="255.53" y2=".5"/><line class="cls-2" x1="250.92" y1="30.5" x2="259.92" y2="30.5"/><line class="cls-2" x1="250.92" y1=".5" x2="259.92" y2=".5"/><g><path d="M211.92,10.11v9.8h-1.39V11.33h-2.21v-1.22h3.6Z"/><path d="M219.01,8.12h1.22l-4.62,13.19h-1.22l4.62-13.19Z"/><path d="M228.67,18.69v1.22h-7.04v-.95l3.99-3.85c.49-.47,.81-.87,.98-1.21s.25-.68,.25-1.03c0-.51-.18-.91-.54-1.2-.36-.28-.88-.43-1.55-.43-1.08,0-1.92,.35-2.51,1.06l-.95-.83c.38-.47,.88-.83,1.5-1.09,.62-.26,1.31-.39,2.08-.39,1.03,0,1.84,.25,2.45,.74,.61,.49,.91,1.15,.91,2,0,.52-.11,1.02-.34,1.48-.22,.47-.65,1-1.27,1.6l-3,2.88h5.03Z"/><path d="M238.18,19.91l-2.94-4.05-2.9,4.05h-1.61l3.68-5.03-3.46-4.77h1.6l2.74,3.77,2.72-3.77h1.53l-3.46,4.73,3.71,5.07h-1.61Z"/></g></g></g></svg>