<?xml version="1.0" encoding="UTF-8"?><svg id="Layer_2" xmlns="http://www.w3.org/2000/svg" viewBox="0 0 767.08 211.16"><defs><style>.cls-1{stroke:#fff;stroke-miterlimit:10;}.cls-2{fill:none;stroke:#000;stroke-linecap:round;stroke-linejoin:round;stroke-width:1.69px;}</style></defs><g id="Layer_1-2"><g><path d="M197.46,134.11c-6.53-2.76-11.11-9.23-11.11-16.76s4.58-14.01,11.11-16.77c4.38-1.85,7.08-6.31,7.08-11.07V42.88c0-10.04-8.14-18.19-18.19-18.19h-52.32c-3.77,0-7.22-2.34-8.39-5.92-2.39-7.41-7.81-12.57-14.11-12.57s-11.74,5.17-14.13,12.57c-1.16,3.59-4.62,5.92-8.39,5.92H36.7c-10.05,0-18.19,8.15-18.19,18.19v52.32c0,3.77-2.34,7.22-5.93,8.39-7.41,2.39-12.58,7.81-12.58,14.11s5.17,11.74,12.58,14.13c3.59,1.16,5.93,4.62,5.93,8.39v52.32c0,10.04,8.14,18.19,18.19,18.19h46.38c4.75,0,9.2-2.71,11.07-7.09,2.75-6.45,9.16-10.99,16.64-10.99s13.88,4.54,16.64,10.99c1.86,4.38,6.32,7.09,11.07,7.09h47.84c10.05,0,18.19-8.15,18.19-18.19v-47.36c0-4.75-2.7-9.22-7.08-11.07Z"/><path d="M296.67,137.75c7.17,2.6,12.08,9.25,12.08,16.88v2.51s0,0,0,0v35.66c0,9.91,8.03,17.94,17.94,17.94h35.66c5.1,0,9.71-3.25,11.2-8.13,3.48-11.46,14.13-19.8,26.73-19.8s23.25,8.34,26.73,19.8c1.48,4.88,6.1,8.13,11.2,8.13h35.66c9.91,0,17.94-8.03,17.94-17.94v-35.65c0-5.17-3.37-9.73-8.32-11.25-8.96-2.75-16.22-9.84-18.65-19.23-4.02-15.55,5.02-29.78,18.49-34.07,4.99-1.59,8.48-6.07,8.48-11.31V45.63c0-9.91-8.03-17.94-17.94-17.94h-35.66s0,0,0,0h-1.34c-7.63,0-14.28-4.9-16.88-12.08-3.35-9.24-10.39-15.61-18.54-15.61s-15.19,6.37-18.54,15.61c-2.6,7.17-9.25,12.08-16.88,12.08h-3.68s0,0,0,0h-35.66c-9.91,0-17.94,8.03-17.94,17.94v35.66s0,0,0,0v2.51c0,7.63-4.9,14.28-12.08,16.88-9.24,3.35-15.61,10.39-15.61,18.54s6.37,15.19,15.61,18.54Z"/><g><line class="cls-2" x1="255.74" y1="117.89" x2="231.42" y2="117.89"/><polyline class="cls-2" points="246.74 129.37 257.28 117.89 246.74 105.37"/></g><g><line class="cls-2" x1="528.9" y1="117.89" x2="504.57" y2="117.89"/><polyline class="cls-2" points="519.89 129.37 530.44 117.89 519.89 105.37"/></g><path class="cls-1" d="M750.34,95.43c9.88-6.37,16.14-17.03,16.24-28.77v-1.9c0-18.83-15.27-34.1-34.1-34.1h-1.62c-12.67-.06-19.48-2.14-28.34-11-8.83-8.83-10.92-18.63-25.17-18.98-.12-.01-.23-.01-.35-.01,0,0-.03-.01-.05-.01s-.04,.01-.05,.01c-.73,.01-1.43,.04-2.1,.1-.17,.02-.33,.04-.5,.06-12.17,1.33-14.51,10.51-22.83,18.83-9,9-15.89,11-28.95,11h-1.84c-18.83,0-34.1,15.27-34.1,34.1v1.9c0,13.06-2,19.95-11,28.95-8.29,8.29-17.44,10.64-18.82,22.7,0,.02-.01,.05-.01,.07-.09,.85-.15,1.75-.16,2.71,0,.01,0,.02,0,.02,0,.01,0,.02,0,.03v.09c0,.06,0,.13,.01,.2,.33,14.3,10.14,16.39,18.98,25.23,9,9,11,15.89,11,28.95v.95c0,18.83,15.27,34.1,34.1,34.1h1.62c11.85,0,22.63-6.28,29.05-16.24,5.34-8.28,14.64-13.76,25.23-13.76s19.89,5.48,25.23,13.76c6.42,9.96,17.2,16.24,29.05,16.24h1.62c18.83,0,34.1-15.27,34.1-34.1v-1.62c0-11.85-6.28-22.63-16.24-29.05-8.28-5.34-13.76-14.64-13.76-25.23s5.48-19.89,13.76-25.23Z"/></g></g></svg>