<?xml version="1.0" encoding="UTF-8"?><svg id="Layer_2" xmlns="http://www.w3.org/2000/svg" viewBox="0 0 905.59 733.99"><defs><style>.cls-1{opacity:.3;}.cls-2{fill:#c4c4c4;}</style></defs><g id="Layer_1-2"><g><g><g><path class="cls-2" d="M757.21,103.58h-111.8c-18.83,0-34.1,15.27-34.1,34.1v111.8c0,18.83,15.27,34.1,34.1,34.1h111.8c18.83,0,34.1-15.27,34.1-34.1v-111.8c0-18.83-15.27-34.1-34.1-34.1Zm-55.9,120c-16.57,0-30-13.43-30-30s13.43-30,30-30,30,13.43,30,30-13.43,30-30,30Z"/><path d="M701.31,224.08c-16.82,0-30.5-13.68-30.5-30.5s13.68-30.5,30.5-30.5,30.5,13.68,30.5,30.5-13.68,30.5-30.5,30.5Zm0-60c-16.27,0-29.5,13.23-29.5,29.5s13.23,29.5,29.5,29.5,29.5-13.23,29.5-29.5-13.23-29.5-29.5-29.5Z"/></g><path d="M260.2,284.08H79.2V103.08h181v181Zm-180-1h179V104.08H80.2v179Z"/><path d="M169.7,224.08c-16.82,0-30.5-13.68-30.5-30.5s13.68-30.5,30.5-30.5,30.5,13.68,30.5,30.5-13.68,30.5-30.5,30.5Zm0-60c-16.27,0-29.5,13.23-29.5,29.5s13.23,29.5,29.5,29.5,29.5-13.23,29.5-29.5-13.23-29.5-29.5-29.5Z"/><path d="M169.7,314.08c-16.82,0-30.5-13.68-30.5-30.5s13.68-30.5,30.5-30.5,30.5,13.68,30.5,30.5-13.68,30.5-30.5,30.5Zm0-60c-16.27,0-29.5,13.23-29.5,29.5s13.23,29.5,29.5,29.5,29.5-13.23,29.5-29.5-13.23-29.5-29.5-29.5Z"/><path d="M169.7,134.08c-16.82,0-30.5-13.68-30.5-30.5s13.68-30.5,30.5-30.5,30.5,13.68,30.5,30.5-13.68,30.5-30.5,30.5Zm0-60c-16.27,0-29.5,13.23-29.5,29.5s13.23,29.5,29.5,29.5,29.5-13.23,29.5-29.5-13.23-29.5-29.5-29.5Z"/><path d="M259.7,224.08c-16.82,0-30.5-13.68-30.5-30.5s13.68-30.5,30.5-30.5,30.5,13.68,30.5,30.5-13.68,30.5-30.5,30.5Zm0-60c-16.27,0-29.5,13.23-29.5,29.5s13.23,29.5,29.5,29.5,29.5-13.23,29.5-29.5-13.23-29.5-29.5-29.5Z"/><path d="M79.7,224.08c-16.82,0-30.5-13.68-30.5-30.5s13.68-30.5,30.5-30.5,30.5,13.68,30.5,30.5-13.68,30.5-30.5,30.5Zm0-60c-16.27,0-29.5,13.23-29.5,29.5s13.23,29.5,29.5,29.5,29.5-13.23,29.5-29.5-13.23-29.5-29.5-29.5Z"/><g><path class="cls-2" d="M490.84,193.58c0-10.59,5.48-19.89,13.76-25.23,9.95-6.42,16.24-17.2,16.24-29.05v-1.62c0-18.83-15.27-34.1-34.1-34.1h-1.62c-11.85,0-22.63,6.28-29.05,16.24-5.34,8.28-14.64,13.76-25.23,13.76s-19.89-5.48-25.23-13.76c-6.42-9.95-17.2-16.24-29.05-16.24h-1.62c-18.83,0-34.1,15.27-34.1,34.1v1.62c0,11.85,6.28,22.63,16.24,29.05,8.28,5.34,13.76,14.64,13.76,25.23s-5.48,19.89-13.76,25.23c-9.95,6.42-16.24,17.2-16.24,29.05v1.62c0,18.83,15.27,34.1,34.1,34.1h1.62c11.85,0,22.63-6.28,29.05-16.24,5.34-8.28,14.64-13.76,25.23-13.76s19.89,5.48,25.23,13.76c6.42,9.95,17.2,16.24,29.05,16.24h1.62c18.83,0,34.1-15.27,34.1-34.1v-1.62c0-11.85-6.28-22.63-16.24-29.05-8.28-5.34-13.76-14.64-13.76-25.23Z"/><g><path d="M430.84,314.08c-16.82,0-30.5-13.68-30.5-30.5s13.68-30.5,30.5-30.5,30.5,13.68,30.5,30.5-13.68,30.5-30.5,30.5Zm0-60c-16.27,0-29.5,13.23-29.5,29.5s13.23,29.5,29.5,29.5,29.5-13.23,29.5-29.5-13.23-29.5-29.5-29.5Z"/><path d="M430.84,134.08c-16.82,0-30.5-13.68-30.5-30.5s13.68-30.5,30.5-30.5,30.5,13.68,30.5,30.5-13.68,30.5-30.5,30.5Zm0-60c-16.27,0-29.5,13.23-29.5,29.5s13.23,29.5,29.5,29.5,29.5-13.23,29.5-29.5-13.23-29.5-29.5-29.5Z"/><path d="M375.19,172.77c-19.21,0-34.85-15.63-34.85-34.85s15.63-34.85,34.85-34.85,34.85,15.63,34.85,34.85-15.63,34.85-34.85,34.85Zm0-68.69c-18.66,0-33.85,15.18-33.85,33.85s15.18,33.85,33.85,33.85,33.85-15.18,33.85-33.85-15.18-33.85-33.85-33.85Z"/><path d="M486.35,172.77c-19.21,0-34.85-15.63-34.85-34.85s15.63-34.85,34.85-34.85,34.85,15.63,34.85,34.85-15.63,34.85-34.85,34.85Zm0-68.69c-18.66,0-33.85,15.18-33.85,33.85s15.18,33.85,33.85,33.85,33.85-15.18,33.85-33.85-15.18-33.85-33.85-33.85Z"/><path d="M375.19,284.08c-19.21,0-34.85-15.63-34.85-34.85s15.63-34.85,34.85-34.85,34.85,15.63,34.85,34.85-15.63,34.85-34.85,34.85Zm0-68.69c-18.66,0-33.85,15.18-33.85,33.85s15.18,33.85,33.85,33.85,33.85-15.18,33.85-33.85-15.18-33.85-33.85-33.85Z"/><path d="M486.35,284.08c-19.21,0-34.85-15.63-34.85-34.85s15.63-34.85,34.85-34.85,34.85,15.63,34.85,34.85-15.63,34.85-34.85,34.85Zm0-68.69c-18.66,0-33.85,15.18-33.85,33.85s15.18,33.85,33.85,33.85,33.85-15.18,33.85-33.85-15.18-33.85-33.85-33.85Z"/><path d="M520.84,224.08c-16.82,0-30.5-13.68-30.5-30.5s13.68-30.5,30.5-30.5,30.5,13.68,30.5,30.5-13.68,30.5-30.5,30.5Zm0-60c-16.27,0-29.5,13.23-29.5,29.5s13.23,29.5,29.5,29.5,29.5-13.23,29.5-29.5-13.23-29.5-29.5-29.5Z"/><path d="M340.84,224.08c-16.82,0-30.5-13.68-30.5-30.5s13.68-30.5,30.5-30.5,30.5,13.68,30.5,30.5-13.68,30.5-30.5,30.5Zm0-60c-16.27,0-29.5,13.23-29.5,29.5s13.23,29.5,29.5,29.5,29.5-13.23,29.5-29.5-13.23-29.5-29.5-29.5Z"/></g></g><g class="cls-1"><rect x="31.15" y="163.08" width="2.5" height="1"/><path d="M846.55,164.08h-5.02v-1h5.02v1Zm-10.04,0h-5.02v-1h5.02v1Zm-10.04,0h-5.02v-1h5.02v1Zm-10.04,0h-5.02v-1h5.02v1Zm-10.04,0h-5.02v-1h5.02v1Zm-10.04,0h-5.02v-1h5.02v1Zm-10.04,0h-5.02v-1h5.02v1Zm-10.04,0h-5.02v-1h5.02v1Zm-10.04,0h-5.02v-1h5.02v1Zm-10.04,0h-5.02v-1h5.02v1Zm-10.04,0h-5.02v-1h5.02v1Zm-10.04,0h-5.02v-1h5.02v1Zm-10.04,0h-5.02v-1h5.02v1Zm-10.04,0h-5.02v-1h5.02v1Zm-10.04,0h-5.02v-1h5.02v1Zm-10.04,0h-5.02v-1h5.02v1Zm-10.04,0h-5.02v-1h5.02v1Zm-10.04,0h-5.02v-1h5.02v1Zm-10.04,0h-5.02v-1h5.02v1Zm-10.04,0h-5.02v-1h5.02v1Zm-10.04,0h-5.02v-1h5.02v1Zm-10.04,0h-5.02v-1h5.02v1Zm-10.04,0h-5.02v-1h5.02v1Zm-10.04,0h-5.02v-1h5.02v1Zm-10.04,0h-5.02v-1h5.02v1Zm-10.04,0h-5.02v-1h5.02v1Zm-10.04,0h-5.02v-1h5.02v1Zm-10.04,0h-5.02v-1h5.02v1Zm-10.04,0h-5.02v-1h5.02v1Zm-10.04,0h-5.02v-1h5.02v1Zm-10.04,0h-5.02v-1h5.02v1Zm-10.04,0h-5.02v-1h5.02v1Zm-10.04,0h-5.02v-1h5.02v1Zm-10.04,0h-5.02v-1h5.02v1Zm-10.04,0h-5.02v-1h5.02v1Zm-10.04,0h-5.02v-1h5.02v1Zm-10.04,0h-5.02v-1h5.02v1Zm-10.04,0h-5.02v-1h5.02v1Zm-10.04,0h-5.02v-1h5.02v1Zm-10.04,0h-5.02v-1h5.02v1Zm-10.04,0h-5.02v-1h5.02v1Zm-10.04,0h-5.02v-1h5.02v1Zm-10.04,0h-5.02v-1h5.02v1Zm-10.04,0h-5.02v-1h5.02v1Zm-10.04,0h-5.02v-1h5.02v1Zm-10.04,0h-5.02v-1h5.02v1Zm-10.04,0h-5.02v-1h5.02v1Zm-10.04,0h-5.02v-1h5.02v1Zm-10.04,0h-5.02v-1h5.02v1Zm-10.04,0h-5.02v-1h5.02v1Zm-10.04,0h-5.02v-1h5.02v1Zm-10.04,0h-5.02v-1h5.02v1Zm-10.04,0h-5.02v-1h5.02v1Zm-10.04,0h-5.02v-1h5.02v1Zm-10.04,0h-5.02v-1h5.02v1Zm-10.04,0h-5.02v-1h5.02v1Zm-10.04,0h-5.02v-1h5.02v1Zm-10.04,0h-5.02v-1h5.02v1Zm-10.04,0h-5.02v-1h5.02v1Zm-10.04,0h-5.02v-1h5.02v1Zm-10.04,0h-5.02v-1h5.02v1Zm-10.04,0h-5.02v-1h5.02v1Zm-10.04,0h-5.02v-1h5.02v1Zm-10.04,0h-5.02v-1h5.02v1Zm-10.04,0h-5.02v-1h5.02v1Zm-10.04,0h-5.02v-1h5.02v1Zm-10.04,0h-5.02v-1h5.02v1Zm-10.04,0h-5.02v-1h5.02v1Zm-10.04,0h-5.02v-1h5.02v1Zm-10.04,0h-5.02v-1h5.02v1Zm-10.04,0h-5.02v-1h5.02v1Zm-10.04,0h-5.02v-1h5.02v1Zm-10.04,0h-5.02v-1h5.02v1Zm-10.04,0h-5.02v-1h5.02v1Zm-10.04,0h-5.02v-1h5.02v1Zm-10.04,0h-5.02v-1h5.02v1Zm-10.04,0h-5.02v-1h5.02v1Zm-10.04,0h-5.02v-1h5.02v1Zm-10.04,0h-5.02v-1h5.02v1Zm-10.04,0h-5.02v-1h5.02v1Zm-10.04,0h-5.02v-1h5.02v1Z"/><rect x="851.57" y="163.08" width="2.5" height="1"/></g><g class="cls-1"><rect x="31.15" y="103.08" width="2.5" height="1"/><path d="M846.55,104.08h-5.02v-1h5.02v1Zm-10.04,0h-5.02v-1h5.02v1Zm-10.04,0h-5.02v-1h5.02v1Zm-10.04,0h-5.02v-1h5.02v1Zm-10.04,0h-5.02v-1h5.02v1Zm-10.04,0h-5.02v-1h5.02v1Zm-10.04,0h-5.02v-1h5.02v1Zm-10.04,0h-5.02v-1h5.02v1Zm-10.04,0h-5.02v-1h5.02v1Zm-10.04,0h-5.02v-1h5.02v1Zm-10.04,0h-5.02v-1h5.02v1Zm-10.04,0h-5.02v-1h5.02v1Zm-10.04,0h-5.02v-1h5.02v1Zm-10.04,0h-5.02v-1h5.02v1Zm-10.04,0h-5.02v-1h5.02v1Zm-10.04,0h-5.02v-1h5.02v1Zm-10.04,0h-5.02v-1h5.02v1Zm-10.04,0h-5.02v-1h5.02v1Zm-10.04,0h-5.02v-1h5.02v1Zm-10.04,0h-5.02v-1h5.02v1Zm-10.04,0h-5.02v-1h5.02v1Zm-10.04,0h-5.02v-1h5.02v1Zm-10.04,0h-5.02v-1h5.02v1Zm-10.04,0h-5.02v-1h5.02v1Zm-10.04,0h-5.02v-1h5.02v1Zm-10.04,0h-5.02v-1h5.02v1Zm-10.04,0h-5.02v-1h5.02v1Zm-10.04,0h-5.02v-1h5.02v1Zm-10.04,0h-5.02v-1h5.02v1Zm-10.04,0h-5.02v-1h5.02v1Zm-10.04,0h-5.02v-1h5.02v1Zm-10.04,0h-5.02v-1h5.02v1Zm-10.04,0h-5.02v-1h5.02v1Zm-10.04,0h-5.02v-1h5.02v1Zm-10.04,0h-5.02v-1h5.02v1Zm-10.04,0h-5.02v-1h5.02v1Zm-10.04,0h-5.02v-1h5.02v1Zm-10.04,0h-5.02v-1h5.02v1Zm-10.04,0h-5.02v-1h5.02v1Zm-10.04,0h-5.02v-1h5.02v1Zm-10.04,0h-5.02v-1h5.02v1Zm-10.04,0h-5.02v-1h5.02v1Zm-10.04,0h-5.02v-1h5.02v1Zm-10.04,0h-5.02v-1h5.02v1Zm-10.04,0h-5.02v-1h5.02v1Zm-10.04,0h-5.02v-1h5.02v1Zm-10.04,0h-5.02v-1h5.02v1Zm-10.04,0h-5.02v-1h5.02v1Zm-10.04,0h-5.02v-1h5.02v1Zm-10.04,0h-5.02v-1h5.02v1Zm-10.04,0h-5.02v-1h5.02v1Zm-10.04,0h-5.02v-1h5.02v1Zm-10.04,0h-5.02v-1h5.02v1Zm-10.04,0h-5.02v-1h5.02v1Zm-10.04,0h-5.02v-1h5.02v1Zm-10.04,0h-5.02v-1h5.02v1Zm-10.04,0h-5.02v-1h5.02v1Zm-10.04,0h-5.02v-1h5.02v1Zm-10.04,0h-5.02v-1h5.02v1Zm-10.04,0h-5.02v-1h5.02v1Zm-10.04,0h-5.02v-1h5.02v1Zm-10.04,0h-5.02v-1h5.02v1Zm-10.04,0h-5.02v-1h5.02v1Zm-10.04,0h-5.02v-1h5.02v1Zm-10.04,0h-5.02v-1h5.02v1Zm-10.04,0h-5.02v-1h5.02v1Zm-10.04,0h-5.02v-1h5.02v1Zm-10.04,0h-5.02v-1h5.02v1Zm-10.04,0h-5.02v-1h5.02v1Zm-10.04,0h-5.02v-1h5.02v1Zm-10.04,0h-5.02v-1h5.02v1Zm-10.04,0h-5.02v-1h5.02v1Zm-10.04,0h-5.02v-1h5.02v1Zm-10.04,0h-5.02v-1h5.02v1Zm-10.04,0h-5.02v-1h5.02v1Zm-10.04,0h-5.02v-1h5.02v1Zm-10.04,0h-5.02v-1h5.02v1Zm-10.04,0h-5.02v-1h5.02v1Zm-10.04,0h-5.02v-1h5.02v1Zm-10.04,0h-5.02v-1h5.02v1Zm-10.04,0h-5.02v-1h5.02v1Z"/><rect x="851.57" y="103.08" width="2.5" height="1"/></g><g class="cls-1"><rect x="31.15" y="223.08" width="2.5" height="1"/><path d="M846.55,224.08h-5.02v-1h5.02v1Zm-10.04,0h-5.02v-1h5.02v1Zm-10.04,0h-5.02v-1h5.02v1Zm-10.04,0h-5.02v-1h5.02v1Zm-10.04,0h-5.02v-1h5.02v1Zm-10.04,0h-5.02v-1h5.02v1Zm-10.04,0h-5.02v-1h5.02v1Zm-10.04,0h-5.02v-1h5.02v1Zm-10.04,0h-5.02v-1h5.02v1Zm-10.04,0h-5.02v-1h5.02v1Zm-10.04,0h-5.02v-1h5.02v1Zm-10.04,0h-5.02v-1h5.02v1Zm-10.04,0h-5.02v-1h5.02v1Zm-10.04,0h-5.02v-1h5.02v1Zm-10.04,0h-5.02v-1h5.02v1Zm-10.04,0h-5.02v-1h5.02v1Zm-10.04,0h-5.02v-1h5.02v1Zm-10.04,0h-5.02v-1h5.02v1Zm-10.04,0h-5.02v-1h5.02v1Zm-10.04,0h-5.02v-1h5.02v1Zm-10.04,0h-5.02v-1h5.02v1Zm-10.04,0h-5.02v-1h5.02v1Zm-10.04,0h-5.02v-1h5.02v1Zm-10.04,0h-5.02v-1h5.02v1Zm-10.04,0h-5.02v-1h5.02v1Zm-10.04,0h-5.02v-1h5.02v1Zm-10.04,0h-5.02v-1h5.02v1Zm-10.04,0h-5.02v-1h5.02v1Zm-10.04,0h-5.02v-1h5.02v1Zm-10.04,0h-5.02v-1h5.02v1Zm-10.04,0h-5.02v-1h5.02v1Zm-10.04,0h-5.02v-1h5.02v1Zm-10.04,0h-5.02v-1h5.02v1Zm-10.04,0h-5.02v-1h5.02v1Zm-10.04,0h-5.02v-1h5.02v1Zm-10.04,0h-5.02v-1h5.02v1Zm-10.04,0h-5.02v-1h5.02v1Zm-10.04,0h-5.02v-1h5.02v1Zm-10.04,0h-5.02v-1h5.02v1Zm-10.04,0h-5.02v-1h5.02v1Zm-10.04,0h-5.02v-1h5.02v1Zm-10.04,0h-5.02v-1h5.02v1Zm-10.04,0h-5.02v-1h5.02v1Zm-10.04,0h-5.02v-1h5.02v1Zm-10.04,0h-5.02v-1h5.02v1Zm-10.04,0h-5.02v-1h5.02v1Zm-10.04,0h-5.02v-1h5.02v1Zm-10.04,0h-5.02v-1h5.02v1Zm-10.04,0h-5.02v-1h5.02v1Zm-10.04,0h-5.02v-1h5.02v1Zm-10.04,0h-5.02v-1h5.02v1Zm-10.04,0h-5.02v-1h5.02v1Zm-10.04,0h-5.02v-1h5.02v1Zm-10.04,0h-5.02v-1h5.02v1Zm-10.04,0h-5.02v-1h5.02v1Zm-10.04,0h-5.02v-1h5.02v1Zm-10.04,0h-5.02v-1h5.02v1Zm-10.04,0h-5.02v-1h5.02v1Zm-10.04,0h-5.02v-1h5.02v1Zm-10.04,0h-5.02v-1h5.02v1Zm-10.04,0h-5.02v-1h5.02v1Zm-10.04,0h-5.02v-1h5.02v1Zm-10.04,0h-5.02v-1h5.02v1Zm-10.04,0h-5.02v-1h5.02v1Zm-10.04,0h-5.02v-1h5.02v1Zm-10.04,0h-5.02v-1h5.02v1Zm-10.04,0h-5.02v-1h5.02v1Zm-10.04,0h-5.02v-1h5.02v1Zm-10.04,0h-5.02v-1h5.02v1Zm-10.04,0h-5.02v-1h5.02v1Zm-10.04,0h-5.02v-1h5.02v1Zm-10.04,0h-5.02v-1h5.02v1Zm-10.04,0h-5.02v-1h5.02v1Zm-10.04,0h-5.02v-1h5.02v1Zm-10.04,0h-5.02v-1h5.02v1Zm-10.04,0h-5.02v-1h5.02v1Zm-10.04,0h-5.02v-1h5.02v1Zm-10.04,0h-5.02v-1h5.02v1Zm-10.04,0h-5.02v-1h5.02v1Zm-10.04,0h-5.02v-1h5.02v1Zm-10.04,0h-5.02v-1h5.02v1Z"/><rect x="851.57" y="223.08" width="2.5" height="1"/></g><g class="cls-1"><rect x="31.15" y="283.08" width="2.5" height="1"/><path d="M846.55,284.08h-5.02v-1h5.02v1Zm-10.04,0h-5.02v-1h5.02v1Zm-10.04,0h-5.02v-1h5.02v1Zm-10.04,0h-5.02v-1h5.02v1Zm-10.04,0h-5.02v-1h5.02v1Zm-10.04,0h-5.02v-1h5.02v1Zm-10.04,0h-5.02v-1h5.02v1Zm-10.04,0h-5.02v-1h5.02v1Zm-10.04,0h-5.02v-1h5.02v1Zm-10.04,0h-5.02v-1h5.02v1Zm-10.04,0h-5.02v-1h5.02v1Zm-10.04,0h-5.02v-1h5.02v1Zm-10.04,0h-5.02v-1h5.02v1Zm-10.04,0h-5.02v-1h5.02v1Zm-10.04,0h-5.02v-1h5.02v1Zm-10.04,0h-5.02v-1h5.02v1Zm-10.04,0h-5.02v-1h5.02v1Zm-10.04,0h-5.02v-1h5.02v1Zm-10.04,0h-5.02v-1h5.02v1Zm-10.04,0h-5.02v-1h5.02v1Zm-10.04,0h-5.02v-1h5.02v1Zm-10.04,0h-5.02v-1h5.02v1Zm-10.04,0h-5.02v-1h5.02v1Zm-10.04,0h-5.02v-1h5.02v1Zm-10.04,0h-5.02v-1h5.02v1Zm-10.04,0h-5.02v-1h5.02v1Zm-10.04,0h-5.02v-1h5.02v1Zm-10.04,0h-5.02v-1h5.02v1Zm-10.04,0h-5.02v-1h5.02v1Zm-10.04,0h-5.02v-1h5.02v1Zm-10.04,0h-5.02v-1h5.02v1Zm-10.04,0h-5.02v-1h5.02v1Zm-10.04,0h-5.02v-1h5.02v1Zm-10.04,0h-5.02v-1h5.02v1Zm-10.04,0h-5.02v-1h5.02v1Zm-10.04,0h-5.02v-1h5.02v1Zm-10.04,0h-5.02v-1h5.02v1Zm-10.04,0h-5.02v-1h5.02v1Zm-10.04,0h-5.02v-1h5.02v1Zm-10.04,0h-5.02v-1h5.02v1Zm-10.04,0h-5.02v-1h5.02v1Zm-10.04,0h-5.02v-1h5.02v1Zm-10.04,0h-5.02v-1h5.02v1Zm-10.04,0h-5.02v-1h5.02v1Zm-10.04,0h-5.02v-1h5.02v1Zm-10.04,0h-5.02v-1h5.02v1Zm-10.04,0h-5.02v-1h5.02v1Zm-10.04,0h-5.02v-1h5.02v1Zm-10.04,0h-5.02v-1h5.02v1Zm-10.04,0h-5.02v-1h5.02v1Zm-10.04,0h-5.02v-1h5.02v1Zm-10.04,0h-5.02v-1h5.02v1Zm-10.04,0h-5.02v-1h5.02v1Zm-10.04,0h-5.02v-1h5.02v1Zm-10.04,0h-5.02v-1h5.02v1Zm-10.04,0h-5.02v-1h5.02v1Zm-10.04,0h-5.02v-1h5.02v1Zm-10.04,0h-5.02v-1h5.02v1Zm-10.04,0h-5.02v-1h5.02v1Zm-10.04,0h-5.02v-1h5.02v1Zm-10.04,0h-5.02v-1h5.02v1Zm-10.04,0h-5.02v-1h5.02v1Zm-10.04,0h-5.02v-1h5.02v1Zm-10.04,0h-5.02v-1h5.02v1Zm-10.04,0h-5.02v-1h5.02v1Zm-10.04,0h-5.02v-1h5.02v1Zm-10.04,0h-5.02v-1h5.02v1Zm-10.04,0h-5.02v-1h5.02v1Zm-10.04,0h-5.02v-1h5.02v1Zm-10.04,0h-5.02v-1h5.02v1Zm-10.04,0h-5.02v-1h5.02v1Zm-10.04,0h-5.02v-1h5.02v1Zm-10.04,0h-5.02v-1h5.02v1Zm-10.04,0h-5.02v-1h5.02v1Zm-10.04,0h-5.02v-1h5.02v1Zm-10.04,0h-5.02v-1h5.02v1Zm-10.04,0h-5.02v-1h5.02v1Zm-10.04,0h-5.02v-1h5.02v1Zm-10.04,0h-5.02v-1h5.02v1Zm-10.04,0h-5.02v-1h5.02v1Zm-10.04,0h-5.02v-1h5.02v1Z"/><rect x="851.57" y="283.08" width="2.5" height="1"/></g><path class="cls-1" d="M80.2,347.27h-1v-3.35h1v3.35Zm0-8.35h-1v-5h1v5Zm0-10h-1v-5h1v5Zm0-10h-1v-5h1v5Zm0-10h-1v-5h1v5Zm0-10h-1v-5h1v5Zm0-10h-1v-5h1v5Zm0-10h-1v-5h1v5Zm0-10h-1v-5h1v5Zm0-10h-1v-5h1v5Zm0-10h-1v-5h1v5Zm0-10h-1v-5h1v5Zm0-10h-1v-5h1v5Zm0-10h-1v-5h1v5Zm0-10h-1v-5h1v5Zm0-10h-1v-5h1v5Zm0-10h-1v-5h1v5Zm0-10h-1v-5h1v5Zm0-10h-1v-5h1v5Zm0-10h-1v-5h1v5Zm0-10h-1v-5h1v5Zm0-10h-1v-5h1v5Zm0-10h-1v-5h1v5Zm0-10h-1v-5h1v5Zm0-10h-1v-5h1v5Zm0-10h-1v-5h1v5Zm0-10h-1v-5h1v5Zm0-10h-1v-5h1v5Zm0-10h-1v-5h1v5Zm0-10h-1v-5h1v5Zm0-10h-1v-5h1v5Zm0-10h-1v-5h1v5Z"/><path class="cls-1" d="M140.2,347.27h-1v-3.35h1v3.35Zm0-8.35h-1v-5h1v5Zm0-10h-1v-5h1v5Zm0-10h-1v-5h1v5Zm0-10h-1v-5h1v5Zm0-10h-1v-5h1v5Zm0-10h-1v-5h1v5Zm0-10h-1v-5h1v5Zm0-10h-1v-5h1v5Zm0-10h-1v-5h1v5Zm0-10h-1v-5h1v5Zm0-10h-1v-5h1v5Zm0-10h-1v-5h1v5Zm0-10h-1v-5h1v5Zm0-10h-1v-5h1v5Zm0-10h-1v-5h1v5Zm0-10h-1v-5h1v5Zm0-10h-1v-5h1v5Zm0-10h-1v-5h1v5Zm0-10h-1v-5h1v5Zm0-10h-1v-5h1v5Zm0-10h-1v-5h1v5Zm0-10h-1v-5h1v5Zm0-10h-1v-5h1v5Zm0-10h-1v-5h1v5Zm0-10h-1v-5h1v5Zm0-10h-1v-5h1v5Zm0-10h-1v-5h1v5Zm0-10h-1v-5h1v5Zm0-10h-1v-5h1v5Zm0-10h-1v-5h1v5Zm0-10h-1v-5h1v5Z"/><path class="cls-1" d="M200.2,347.27h-1v-3.35h1v3.35Zm0-8.35h-1v-5h1v5Zm0-10h-1v-5h1v5Zm0-10h-1v-5h1v5Zm0-10h-1v-5h1v5Zm0-10h-1v-5h1v5Zm0-10h-1v-5h1v5Zm0-10h-1v-5h1v5Zm0-10h-1v-5h1v5Zm0-10h-1v-5h1v5Zm0-10h-1v-5h1v5Zm0-10h-1v-5h1v5Zm0-10h-1v-5h1v5Zm0-10h-1v-5h1v5Zm0-10h-1v-5h1v5Zm0-10h-1v-5h1v5Zm0-10h-1v-5h1v5Zm0-10h-1v-5h1v5Zm0-10h-1v-5h1v5Zm0-10h-1v-5h1v5Zm0-10h-1v-5h1v5Zm0-10h-1v-5h1v5Zm0-10h-1v-5h1v5Zm0-10h-1v-5h1v5Zm0-10h-1v-5h1v5Zm0-10h-1v-5h1v5Zm0-10h-1v-5h1v5Zm0-10h-1v-5h1v5Zm0-10h-1v-5h1v5Zm0-10h-1v-5h1v5Zm0-10h-1v-5h1v5Zm0-10h-1v-5h1v5Z"/><path class="cls-1" d="M260.2,347.27h-1v-3.35h1v3.35Zm0-8.35h-1v-5h1v5Zm0-10h-1v-5h1v5Zm0-10h-1v-5h1v5Zm0-10h-1v-5h1v5Zm0-10h-1v-5h1v5Zm0-10h-1v-5h1v5Zm0-10h-1v-5h1v5Zm0-10h-1v-5h1v5Zm0-10h-1v-5h1v5Zm0-10h-1v-5h1v5Zm0-10h-1v-5h1v5Zm0-10h-1v-5h1v5Zm0-10h-1v-5h1v5Zm0-10h-1v-5h1v5Zm0-10h-1v-5h1v5Zm0-10h-1v-5h1v5Zm0-10h-1v-5h1v5Zm0-10h-1v-5h1v5Zm0-10h-1v-5h1v5Zm0-10h-1v-5h1v5Zm0-10h-1v-5h1v5Zm0-10h-1v-5h1v5Zm0-10h-1v-5h1v5Zm0-10h-1v-5h1v5Zm0-10h-1v-5h1v5Zm0-10h-1v-5h1v5Zm0-10h-1v-5h1v5Zm0-10h-1v-5h1v5Zm0-10h-1v-5h1v5Zm0-10h-1v-5h1v5Zm0-10h-1v-5h1v5Z"/><path class="cls-1" d="M341.2,347.27h-1v-3.35h1v3.35Zm0-8.35h-1v-5h1v5Zm0-10h-1v-5h1v5Zm0-10h-1v-5h1v5Zm0-10h-1v-5h1v5Zm0-10h-1v-5h1v5Zm0-10h-1v-5h1v5Zm0-10h-1v-5h1v5Zm0-10h-1v-5h1v5Zm0-10h-1v-5h1v5Zm0-10h-1v-5h1v5Zm0-10h-1v-5h1v5Zm0-10h-1v-5h1v5Zm0-10h-1v-5h1v5Zm0-10h-1v-5h1v5Zm0-10h-1v-5h1v5Zm0-10h-1v-5h1v5Zm0-10h-1v-5h1v5Zm0-10h-1v-5h1v5Zm0-10h-1v-5h1v5Zm0-10h-1v-5h1v5Zm0-10h-1v-5h1v5Zm0-10h-1v-5h1v5Zm0-10h-1v-5h1v5Zm0-10h-1v-5h1v5Zm0-10h-1v-5h1v5Zm0-10h-1v-5h1v5Zm0-10h-1v-5h1v5Zm0-10h-1v-5h1v5Zm0-10h-1v-5h1v5Zm0-10h-1v-5h1v5Zm0-10h-1v-5h1v5Z"/><path class="cls-1" d="M401.2,347.27h-1v-3.35h1v3.35Zm0-8.35h-1v-5h1v5Zm0-10h-1v-5h1v5Zm0-10h-1v-5h1v5Zm0-10h-1v-5h1v5Zm0-10h-1v-5h1v5Zm0-10h-1v-5h1v5Zm0-10h-1v-5h1v5Zm0-10h-1v-5h1v5Zm0-10h-1v-5h1v5Zm0-10h-1v-5h1v5Zm0-10h-1v-5h1v5Zm0-10h-1v-5h1v5Zm0-10h-1v-5h1v5Zm0-10h-1v-5h1v5Zm0-10h-1v-5h1v5Zm0-10h-1v-5h1v5Zm0-10h-1v-5h1v5Zm0-10h-1v-5h1v5Zm0-10h-1v-5h1v5Zm0-10h-1v-5h1v5Zm0-10h-1v-5h1v5Zm0-10h-1v-5h1v5Zm0-10h-1v-5h1v5Zm0-10h-1v-5h1v5Zm0-10h-1v-5h1v5Zm0-10h-1v-5h1v5Zm0-10h-1v-5h1v5Zm0-10h-1v-5h1v5Zm0-10h-1v-5h1v5Zm0-10h-1v-5h1v5Zm0-10h-1v-5h1v5Z"/><path class="cls-1" d="M461.2,347.27h-1v-3.35h1v3.35Zm0-8.35h-1v-5h1v5Zm0-10h-1v-5h1v5Zm0-10h-1v-5h1v5Zm0-10h-1v-5h1v5Zm0-10h-1v-5h1v5Zm0-10h-1v-5h1v5Zm0-10h-1v-5h1v5Zm0-10h-1v-5h1v5Zm0-10h-1v-5h1v5Zm0-10h-1v-5h1v5Zm0-10h-1v-5h1v5Zm0-10h-1v-5h1v5Zm0-10h-1v-5h1v5Zm0-10h-1v-5h1v5Zm0-10h-1v-5h1v5Zm0-10h-1v-5h1v5Zm0-10h-1v-5h1v5Zm0-10h-1v-5h1v5Zm0-10h-1v-5h1v5Zm0-10h-1v-5h1v5Zm0-10h-1v-5h1v5Zm0-10h-1v-5h1v5Zm0-10h-1v-5h1v5Zm0-10h-1v-5h1v5Zm0-10h-1v-5h1v5Zm0-10h-1v-5h1v5Zm0-10h-1v-5h1v5Zm0-10h-1v-5h1v5Zm0-10h-1v-5h1v5Zm0-10h-1v-5h1v5Zm0-10h-1v-5h1v5Z"/><path class="cls-1" d="M521.2,347.27h-1v-3.35h1v3.35Zm0-8.35h-1v-5h1v5Zm0-10h-1v-5h1v5Zm0-10h-1v-5h1v5Zm0-10h-1v-5h1v5Zm0-10h-1v-5h1v5Zm0-10h-1v-5h1v5Zm0-10h-1v-5h1v5Zm0-10h-1v-5h1v5Zm0-10h-1v-5h1v5Zm0-10h-1v-5h1v5Zm0-10h-1v-5h1v5Zm0-10h-1v-5h1v5Zm0-10h-1v-5h1v5Zm0-10h-1v-5h1v5Zm0-10h-1v-5h1v5Zm0-10h-1v-5h1v5Zm0-10h-1v-5h1v5Zm0-10h-1v-5h1v5Zm0-10h-1v-5h1v5Zm0-10h-1v-5h1v5Zm0-10h-1v-5h1v5Zm0-10h-1v-5h1v5Zm0-10h-1v-5h1v5Zm0-10h-1v-5h1v5Zm0-10h-1v-5h1v5Zm0-10h-1v-5h1v5Zm0-10h-1v-5h1v5Zm0-10h-1v-5h1v5Zm0-10h-1v-5h1v5Zm0-10h-1v-5h1v5Zm0-10h-1v-5h1v5Z"/><path class="cls-1" d="M611.81,347.27h-1v-3.35h1v3.35Zm0-8.35h-1v-5h1v5Zm0-10h-1v-5h1v5Zm0-10h-1v-5h1v5Zm0-10h-1v-5h1v5Zm0-10h-1v-5h1v5Zm0-10h-1v-5h1v5Zm0-10h-1v-5h1v5Zm0-10h-1v-5h1v5Zm0-10h-1v-5h1v5Zm0-10h-1v-5h1v5Zm0-10h-1v-5h1v5Zm0-10h-1v-5h1v5Zm0-10h-1v-5h1v5Zm0-10h-1v-5h1v5Zm0-10h-1v-5h1v5Zm0-10h-1v-5h1v5Zm0-10h-1v-5h1v5Zm0-10h-1v-5h1v5Zm0-10h-1v-5h1v5Zm0-10h-1v-5h1v5Zm0-10h-1v-5h1v5Zm0-10h-1v-5h1v5Zm0-10h-1v-5h1v5Zm0-10h-1v-5h1v5Zm0-10h-1v-5h1v5Zm0-10h-1v-5h1v5Zm0-10h-1v-5h1v5Zm0-10h-1v-5h1v5Zm0-10h-1v-5h1v5Zm0-10h-1v-5h1v5Zm0-10h-1v-5h1v5Z"/><path class="cls-1" d="M671.81,347.27h-1v-3.35h1v3.35Zm0-8.35h-1v-5h1v5Zm0-10h-1v-5h1v5Zm0-10h-1v-5h1v5Zm0-10h-1v-5h1v5Zm0-10h-1v-5h1v5Zm0-10h-1v-5h1v5Zm0-10h-1v-5h1v5Zm0-10h-1v-5h1v5Zm0-10h-1v-5h1v5Zm0-10h-1v-5h1v5Zm0-10h-1v-5h1v5Zm0-10h-1v-5h1v5Zm0-10h-1v-5h1v5Zm0-10h-1v-5h1v5Zm0-10h-1v-5h1v5Zm0-10h-1v-5h1v5Zm0-10h-1v-5h1v5Zm0-10h-1v-5h1v5Zm0-10h-1v-5h1v5Zm0-10h-1v-5h1v5Zm0-10h-1v-5h1v5Zm0-10h-1v-5h1v5Zm0-10h-1v-5h1v5Zm0-10h-1v-5h1v5Zm0-10h-1v-5h1v5Zm0-10h-1v-5h1v5Zm0-10h-1v-5h1v5Zm0-10h-1v-5h1v5Zm0-10h-1v-5h1v5Zm0-10h-1v-5h1v5Zm0-10h-1v-5h1v5Z"/><path class="cls-1" d="M731.81,347.27h-1v-3.35h1v3.35Zm0-8.35h-1v-5h1v5Zm0-10h-1v-5h1v5Zm0-10h-1v-5h1v5Zm0-10h-1v-5h1v5Zm0-10h-1v-5h1v5Zm0-10h-1v-5h1v5Zm0-10h-1v-5h1v5Zm0-10h-1v-5h1v5Zm0-10h-1v-5h1v5Zm0-10h-1v-5h1v5Zm0-10h-1v-5h1v5Zm0-10h-1v-5h1v5Zm0-10h-1v-5h1v5Zm0-10h-1v-5h1v5Zm0-10h-1v-5h1v5Zm0-10h-1v-5h1v5Zm0-10h-1v-5h1v5Zm0-10h-1v-5h1v5Zm0-10h-1v-5h1v5Zm0-10h-1v-5h1v5Zm0-10h-1v-5h1v5Zm0-10h-1v-5h1v5Zm0-10h-1v-5h1v5Zm0-10h-1v-5h1v5Zm0-10h-1v-5h1v5Zm0-10h-1v-5h1v5Zm0-10h-1v-5h1v5Zm0-10h-1v-5h1v5Zm0-10h-1v-5h1v5Zm0-10h-1v-5h1v5Zm0-10h-1v-5h1v5Z"/><path class="cls-1" d="M791.81,347.27h-1v-3.35h1v3.35Zm0-8.35h-1v-5h1v5Zm0-10h-1v-5h1v5Zm0-10h-1v-5h1v5Zm0-10h-1v-5h1v5Zm0-10h-1v-5h1v5Zm0-10h-1v-5h1v5Zm0-10h-1v-5h1v5Zm0-10h-1v-5h1v5Zm0-10h-1v-5h1v5Zm0-10h-1v-5h1v5Zm0-10h-1v-5h1v5Zm0-10h-1v-5h1v5Zm0-10h-1v-5h1v5Zm0-10h-1v-5h1v5Zm0-10h-1v-5h1v5Zm0-10h-1v-5h1v5Zm0-10h-1v-5h1v5Zm0-10h-1v-5h1v5Zm0-10h-1v-5h1v5Zm0-10h-1v-5h1v5Zm0-10h-1v-5h1v5Zm0-10h-1v-5h1v5Zm0-10h-1v-5h1v5Zm0-10h-1v-5h1v5Zm0-10h-1v-5h1v5Zm0-10h-1v-5h1v5Zm0-10h-1v-5h1v5Zm0-10h-1v-5h1v5Zm0-10h-1v-5h1v5Zm0-10h-1v-5h1v5Zm0-10h-1v-5h1v5Z"/><g><g><path d="M166.97,356.79c.5,.5,.76,1.14,.76,1.91,0,.56-.14,1.07-.42,1.52-.28,.45-.7,.81-1.25,1.08-.56,.27-1.23,.4-2.04,.4-.7,0-1.37-.11-2.02-.32-.64-.21-1.17-.5-1.58-.88l.64-1.11c.34,.32,.77,.57,1.29,.76s1.08,.29,1.67,.29c.73,0,1.29-.15,1.7-.46,.41-.31,.61-.73,.61-1.27s-.2-.96-.6-1.26-1.01-.45-1.82-.45h-.78v-.98l2.46-3.02h-4.72v-1.22h6.47v.95l-2.56,3.16c.96,.09,1.69,.39,2.2,.89Z"/><path d="M177.25,361.59l-2.94-4.05-2.9,4.05h-1.61l3.68-5.03-3.46-4.77h1.6l2.74,3.77,2.72-3.77h1.53l-3.46,4.73,3.71,5.07h-1.61Z"/></g><rect x="79.7" y="371.41" width="180" height="1"/><rect x="79.2" y="367.31" width="1" height="9"/><rect x="259.2" y="367.31" width="1" height="9"/></g><g><path d="M893.71,193.48c.5,.5,.76,1.14,.76,1.91,0,.56-.14,1.07-.42,1.52-.28,.45-.7,.81-1.25,1.08-.56,.27-1.23,.4-2.04,.4-.7,0-1.37-.11-2.02-.32-.64-.21-1.17-.5-1.58-.88l.64-1.11c.34,.32,.77,.57,1.29,.76s1.08,.29,1.67,.29c.73,0,1.29-.15,1.7-.46,.41-.31,.61-.73,.61-1.27s-.2-.96-.6-1.26-1.01-.45-1.82-.45h-.78v-.98l2.46-3.02h-4.72v-1.22h6.47v.95l-2.56,3.16c.96,.09,1.69,.39,2.2,.89Z"/><path d="M903.98,198.27l-2.94-4.05-2.9,4.05h-1.61l3.68-5.03-3.46-4.77h1.6l2.74,3.77,2.72-3.77h1.53l-3.46,4.73,3.71,5.07h-1.61Z"/></g><path d="M7.45,198.27l-2.94-4.05-2.9,4.05H0l3.68-5.03-3.46-4.77H1.82l2.74,3.77,2.72-3.77h1.53l-3.46,4.73,3.71,5.07h-1.61Z"/><rect x="876.79" y="103.58" width="1" height="180"/><rect x="872.69" y="103.08" width="9" height="1"/><rect x="876.79" y="103.58" width="1" height="180"/><rect x="872.79" y="283.08" width="9" height="1"/><rect x="872.69" y="103.08" width="9" height="1"/><rect x="16.73" y="163.58" width="1" height="60"/><rect x="12.63" y="223.08" width="9" height="1"/><rect x="12.63" y="163.08" width="9" height="1"/><rect x="16.73" y="163.58" width="1" height="60"/><rect x="12.63" y="223.08" width="9" height="1"/><rect x="12.63" y="163.08" width="9" height="1"/><g><path d="M171.33,9.8l-2.94-4.05-2.9,4.05h-1.61l3.68-5.03-3.46-4.77h1.6l2.74,3.77,2.72-3.77h1.53l-3.46,4.73,3.71,5.07h-1.61Z"/><rect x="139.7" y="17.2" width="60" height="1"/><rect x="139.2" y="13.1" width="1" height="9"/><rect x="199.2" y="13.1" width="1" height="9"/></g></g><g><g><path d="M425.69,583.12c0,10.53,5.45,19.78,13.68,25.09,9.9,6.38,16.15,17.1,16.15,28.89v1.61c0,18.73-15.19,33.91-33.91,33.91h-1.61c-11.78,0-22.51-6.25-28.89-16.15-5.31-8.23-14.56-13.68-25.09-13.68s-19.78,5.45-25.09,13.68c-6.38,9.9-17.11,16.15-28.89,16.15h-1.61c-18.73,0-33.91-15.19-33.91-33.91v-1.61c0-11.78,6.25-22.51,16.15-28.89,8.23-5.31,13.68-14.56,13.68-25.09s-5.45-19.78-13.68-25.09c-9.83-6.33-16.05-16.94-16.15-28.61v-1.89c0-18.73,15.19-33.91,33.91-33.91h1.83c11.7,.08,22.33,6.3,28.67,16.15,5.31,8.23,14.56,13.68,25.09,13.68s19.78-5.45,25.09-13.68c6.38-9.9,17.11-16.15,28.89-16.15h1.61c18.73,0,33.91,15.19,33.91,33.91v1.89c-.1,11.68-6.32,22.28-16.15,28.61-8.23,5.31-13.68,14.57-13.68,25.09Z"/><path d="M611.56,494.61h-111.18c-18.73,0-33.91,15.18-33.91,33.91v111.18c0,18.73,15.18,33.91,33.91,33.91h111.18c18.73,0,33.91-15.18,33.91-33.91v-111.18c0-18.73-15.18-33.91-33.91-33.91Zm-55.59,119.34c-16.48,0-29.83-13.36-29.83-29.83s13.36-29.83,29.83-29.83,29.83,13.36,29.83,29.83-13.36,29.83-29.83,29.83Z"/></g><g class="cls-1"><g><rect x="206.57" y="494.11" width="2.5" height="1"/><path d="M702.57,495.11h-5.04v-1h5.04v1Zm-10.07,0h-5.04v-1h5.04v1Zm-10.07,0h-5.04v-1h5.04v1Zm-10.07,0h-5.04v-1h5.04v1Zm-10.07,0h-5.04v-1h5.04v1Zm-10.07,0h-5.04v-1h5.04v1Zm-10.07,0h-5.04v-1h5.04v1Zm-10.07,0h-5.04v-1h5.04v1Zm-10.07,0h-5.04v-1h5.04v1Zm-10.07,0h-5.04v-1h5.04v1Zm-10.07,0h-5.04v-1h5.04v1Zm-10.07,0h-5.04v-1h5.04v1Zm-10.07,0h-5.04v-1h5.04v1Zm-10.07,0h-5.04v-1h5.04v1Zm-10.07,0h-5.04v-1h5.04v1Zm-10.07,0h-5.04v-1h5.04v1Zm-10.07,0h-5.04v-1h5.04v1Zm-10.07,0h-5.04v-1h5.04v1Zm-10.07,0h-5.04v-1h5.04v1Zm-10.07,0h-5.04v-1h5.04v1Zm-10.07,0h-5.04v-1h5.04v1Zm-10.07,0h-5.04v-1h5.04v1Zm-10.07,0h-5.04v-1h5.04v1Zm-10.07,0h-5.04v-1h5.04v1Zm-10.07,0h-5.04v-1h5.04v1Zm-10.07,0h-5.04v-1h5.04v1Zm-10.07,0h-5.04v-1h5.04v1Zm-10.07,0h-5.04v-1h5.04v1Zm-10.07,0h-5.04v-1h5.04v1Zm-10.07,0h-5.04v-1h5.04v1Zm-10.07,0h-5.04v-1h5.04v1Zm-10.07,0h-5.04v-1h5.04v1Zm-10.07,0h-5.04v-1h5.04v1Zm-10.07,0h-5.04v-1h5.04v1Zm-10.07,0h-5.04v-1h5.04v1Zm-10.07,0h-5.04v-1h5.04v1Zm-10.07,0h-5.04v-1h5.04v1Zm-10.07,0h-5.04v-1h5.04v1Zm-10.07,0h-5.04v-1h5.04v1Zm-10.07,0h-5.04v-1h5.04v1Zm-10.07,0h-5.04v-1h5.04v1Zm-10.07,0h-5.04v-1h5.04v1Zm-10.07,0h-5.04v-1h5.04v1Zm-10.07,0h-5.04v-1h5.04v1Zm-10.07,0h-5.04v-1h5.04v1Zm-10.07,0h-5.04v-1h5.04v1Zm-10.07,0h-5.04v-1h5.04v1Zm-10.07,0h-5.04v-1h5.04v1Zm-10.07,0h-5.04v-1h5.04v1Z"/><rect x="707.61" y="494.11" width="2.5" height="1"/></g><g><rect x="206.57" y="672.12" width="2.5" height="1"/><path d="M702.57,673.12h-5.04v-1h5.04v1Zm-10.07,0h-5.04v-1h5.04v1Zm-10.07,0h-5.04v-1h5.04v1Zm-10.07,0h-5.04v-1h5.04v1Zm-10.07,0h-5.04v-1h5.04v1Zm-10.07,0h-5.04v-1h5.04v1Zm-10.07,0h-5.04v-1h5.04v1Zm-10.07,0h-5.04v-1h5.04v1Zm-10.07,0h-5.04v-1h5.04v1Zm-10.07,0h-5.04v-1h5.04v1Zm-10.07,0h-5.04v-1h5.04v1Zm-10.07,0h-5.04v-1h5.04v1Zm-10.07,0h-5.04v-1h5.04v1Zm-10.07,0h-5.04v-1h5.04v1Zm-10.07,0h-5.04v-1h5.04v1Zm-10.07,0h-5.04v-1h5.04v1Zm-10.07,0h-5.04v-1h5.04v1Zm-10.07,0h-5.04v-1h5.04v1Zm-10.07,0h-5.04v-1h5.04v1Zm-10.07,0h-5.04v-1h5.04v1Zm-10.07,0h-5.04v-1h5.04v1Zm-10.07,0h-5.04v-1h5.04v1Zm-10.07,0h-5.04v-1h5.04v1Zm-10.07,0h-5.04v-1h5.04v1Zm-10.07,0h-5.04v-1h5.04v1Zm-10.07,0h-5.04v-1h5.04v1Zm-10.07,0h-5.04v-1h5.04v1Zm-10.07,0h-5.04v-1h5.04v1Zm-10.07,0h-5.04v-1h5.04v1Zm-10.07,0h-5.04v-1h5.04v1Zm-10.07,0h-5.04v-1h5.04v1Zm-10.07,0h-5.04v-1h5.04v1Zm-10.07,0h-5.04v-1h5.04v1Zm-10.07,0h-5.04v-1h5.04v1Zm-10.07,0h-5.04v-1h5.04v1Zm-10.07,0h-5.04v-1h5.04v1Zm-10.07,0h-5.04v-1h5.04v1Zm-10.07,0h-5.04v-1h5.04v1Zm-10.07,0h-5.04v-1h5.04v1Zm-10.07,0h-5.04v-1h5.04v1Zm-10.07,0h-5.04v-1h5.04v1Zm-10.07,0h-5.04v-1h5.04v1Zm-10.07,0h-5.04v-1h5.04v1Zm-10.07,0h-5.04v-1h5.04v1Zm-10.07,0h-5.04v-1h5.04v1Zm-10.07,0h-5.04v-1h5.04v1Zm-10.07,0h-5.04v-1h5.04v1Zm-10.07,0h-5.04v-1h5.04v1Zm-10.07,0h-5.04v-1h5.04v1Z"/><rect x="707.61" y="672.12" width="2.5" height="1"/></g><path d="M277.02,705.26h-1v-4.29h1v4.29Zm0-9.29h-1v-5h1v5Zm0-10h-1v-5h1v5Zm0-10h-1v-5h1v5Zm0-10h-1v-5h1v5Zm0-10h-1v-5h1v5Zm0-10h-1v-5h1v5Zm0-10h-1v-5h1v5Zm0-10h-1v-5h1v5Zm0-10h-1v-5h1v5Zm0-10h-1v-5h1v5Zm0-10h-1v-5h1v5Zm0-10h-1v-5h1v5Zm0-10h-1v-5h1v5Zm0-10h-1v-5h1v5Zm0-10h-1v-5h1v5Zm0-10h-1v-5h1v5Zm0-10h-1v-5h1v5Zm0-10h-1v-5h1v5Zm0-10h-1v-5h1v5Zm0-10h-1v-5h1v5Zm0-10h-1v-5h1v5Zm0-10h-1v-5h1v5Zm0-10h-1v-5h1v5Zm0-10h-1v-5h1v5Z"/><path d="M456.03,705.26h-1v-4.29h1v4.29Zm0-9.29h-1v-5h1v5Zm0-10h-1v-5h1v5Zm0-10h-1v-5h1v5Zm0-10h-1v-5h1v5Zm0-10h-1v-5h1v5Zm0-10h-1v-5h1v5Zm0-10h-1v-5h1v5Zm0-10h-1v-5h1v5Zm0-10h-1v-5h1v5Zm0-10h-1v-5h1v5Zm0-10h-1v-5h1v5Zm0-10h-1v-5h1v5Zm0-10h-1v-5h1v5Zm0-10h-1v-5h1v5Zm0-10h-1v-5h1v5Zm0-10h-1v-5h1v5Zm0-10h-1v-5h1v5Zm0-10h-1v-5h1v5Zm0-10h-1v-5h1v5Zm0-10h-1v-5h1v5Zm0-10h-1v-5h1v5Zm0-10h-1v-5h1v5Zm0-10h-1v-5h1v5Zm0-10h-1v-5h1v5Z"/><path d="M526.63,705.26h-1v-4.29h1v4.29Zm0-9.29h-1v-5h1v5Zm0-10h-1v-5h1v5Zm0-10h-1v-5h1v5Zm0-10h-1v-5h1v5Zm0-10h-1v-5h1v5Zm0-10h-1v-5h1v5Zm0-10h-1v-5h1v5Zm0-10h-1v-5h1v5Zm0-10h-1v-5h1v5Zm0-10h-1v-5h1v5Zm0-10h-1v-5h1v5Zm0-10h-1v-5h1v5Zm0-10h-1v-5h1v5Zm0-10h-1v-5h1v5Zm0-10h-1v-5h1v5Zm0-10h-1v-5h1v5Zm0-10h-1v-5h1v5Zm0-10h-1v-5h1v5Zm0-10h-1v-5h1v5Zm0-10h-1v-5h1v5Zm0-10h-1v-5h1v5Zm0-10h-1v-5h1v5Zm0-10h-1v-5h1v5Zm0-10h-1v-5h1v5Z"/><path d="M586.3,705.26h-1v-4.29h1v4.29Zm0-9.29h-1v-5h1v5Zm0-10h-1v-5h1v5Zm0-10h-1v-5h1v5Zm0-10h-1v-5h1v5Zm0-10h-1v-5h1v5Zm0-10h-1v-5h1v5Zm0-10h-1v-5h1v5Zm0-10h-1v-5h1v5Zm0-10h-1v-5h1v5Zm0-10h-1v-5h1v5Zm0-10h-1v-5h1v5Zm0-10h-1v-5h1v5Zm0-10h-1v-5h1v5Zm0-10h-1v-5h1v5Zm0-10h-1v-5h1v5Zm0-10h-1v-5h1v5Zm0-10h-1v-5h1v5Zm0-10h-1v-5h1v5Zm0-10h-1v-5h1v5Zm0-10h-1v-5h1v5Zm0-10h-1v-5h1v5Zm0-10h-1v-5h1v5Zm0-10h-1v-5h1v5Zm0-10h-1v-5h1v5Z"/><path d="M466.96,705.26h-1v-4.29h1v4.29Zm0-9.29h-1v-5h1v5Zm0-10h-1v-5h1v5Zm0-10h-1v-5h1v5Zm0-10h-1v-5h1v5Zm0-10h-1v-5h1v5Zm0-10h-1v-5h1v5Zm0-10h-1v-5h1v5Zm0-10h-1v-5h1v5Zm0-10h-1v-5h1v5Zm0-10h-1v-5h1v5Zm0-10h-1v-5h1v5Zm0-10h-1v-5h1v5Zm0-10h-1v-5h1v5Zm0-10h-1v-5h1v5Zm0-10h-1v-5h1v5Zm0-10h-1v-5h1v5Zm0-10h-1v-5h1v5Zm0-10h-1v-5h1v5Zm0-10h-1v-5h1v5Zm0-10h-1v-5h1v5Zm0-10h-1v-5h1v5Zm0-10h-1v-5h1v5Zm0-10h-1v-5h1v5Zm0-10h-1v-5h1v5Z"/><path d="M645.97,705.26h-1v-4.29h1v4.29Zm0-9.29h-1v-5h1v5Zm0-10h-1v-5h1v5Zm0-10h-1v-5h1v5Zm0-10h-1v-5h1v5Zm0-10h-1v-5h1v5Zm0-10h-1v-5h1v5Zm0-10h-1v-5h1v5Zm0-10h-1v-5h1v5Zm0-10h-1v-5h1v5Zm0-10h-1v-5h1v5Zm0-10h-1v-5h1v5Zm0-10h-1v-5h1v5Zm0-10h-1v-5h1v5Zm0-10h-1v-5h1v5Zm0-10h-1v-5h1v5Zm0-10h-1v-5h1v5Zm0-10h-1v-5h1v5Zm0-10h-1v-5h1v5Zm0-10h-1v-5h1v5Zm0-10h-1v-5h1v5Zm0-10h-1v-5h1v5Zm0-10h-1v-5h1v5Zm0-10h-1v-5h1v5Zm0-10h-1v-5h1v5Z"/></g><g><rect x="455.53" y="439.41" width="10.94" height="1"/><rect x="455.03" y="435.31" width="1" height="9"/><rect x="465.96" y="435.31" width="1" height="9"/></g><g><path d="M447.26,418.4v9.8h-1.39v-8.58h-2.21v-1.22h3.6Z"/><path d="M454.35,416.41h1.22l-4.62,13.19h-1.22l4.62-13.19Z"/><path d="M462.8,422.61c.51,.24,.91,.59,1.2,1.04,.29,.45,.43,.97,.43,1.56s-.15,1.16-.46,1.62c-.3,.47-.72,.83-1.25,1.08-.53,.26-1.12,.39-1.77,.39-1.32,0-2.33-.42-3.04-1.27-.71-.85-1.07-2.05-1.07-3.61,0-1.09,.19-2.02,.58-2.79,.39-.77,.93-1.35,1.62-1.75,.7-.4,1.5-.59,2.43-.59,.48,0,.92,.05,1.34,.15,.42,.1,.78,.24,1.09,.43l-.53,1.09c-.47-.31-1.09-.46-1.88-.46-1.02,0-1.82,.32-2.39,.95-.58,.63-.87,1.55-.87,2.75,0,.15,0,.27,.01,.35,.28-.42,.67-.74,1.16-.96,.49-.22,1.04-.33,1.66-.33s1.22,.12,1.73,.36Zm-.33,4.05c.4-.34,.6-.81,.6-1.39s-.2-1.04-.61-1.38-.95-.51-1.63-.51c-.44,0-.83,.08-1.17,.25s-.61,.4-.8,.69c-.19,.29-.29,.61-.29,.97s.09,.66,.27,.95c.18,.28,.45,.51,.8,.69,.35,.17,.77,.26,1.25,.26,.64,0,1.17-.17,1.57-.52Z"/><path d="M479.01,428.19l-2.94-4.05-2.9,4.05h-1.61l3.68-5.03-3.46-4.77h1.6l2.74,3.77,2.72-3.77h1.53l-3.46,4.73,3.71,5.07h-1.61Z"/></g><g><g><path d="M363.3,714.48c.5,.5,.76,1.14,.76,1.91,0,.56-.14,1.07-.42,1.52-.28,.45-.7,.81-1.25,1.08-.56,.27-1.23,.4-2.04,.4-.7,0-1.37-.11-2.02-.32-.64-.21-1.17-.5-1.58-.88l.64-1.11c.34,.32,.77,.57,1.29,.76s1.08,.29,1.67,.29c.73,0,1.29-.15,1.7-.46,.41-.31,.61-.73,.61-1.27s-.2-.96-.6-1.26-1.01-.45-1.82-.45h-.78v-.98l2.46-3.02h-4.72v-1.22h6.47v.95l-2.56,3.16c.96,.09,1.69,.39,2.2,.89Z"/><path d="M373.57,719.27l-2.94-4.05-2.9,4.05h-1.61l3.68-5.03-3.46-4.77h1.6l2.74,3.77,2.72-3.77h1.53l-3.46,4.73,3.71,5.07h-1.61Z"/></g><rect x="276.02" y="729.1" width="180" height="1"/><rect x="275.52" y="724.99" width="1" height="9"/><rect x="455.52" y="724.99" width="1" height="9"/></g></g><path d="M645.73,172.77c-19.21,0-34.85-15.63-34.85-34.85s15.63-34.85,34.85-34.85,34.85,15.63,34.85,34.85-15.63,34.85-34.85,34.85Zm0-68.69c-18.66,0-33.85,15.18-33.85,33.85s15.18,33.85,33.85,33.85,33.85-15.18,33.85-33.85-15.18-33.85-33.85-33.85Z"/><path d="M756.89,172.77c-19.21,0-34.85-15.63-34.85-34.85s15.63-34.85,34.85-34.85,34.85,15.63,34.85,34.85-15.63,34.85-34.85,34.85Zm0-68.69c-18.66,0-33.85,15.18-33.85,33.85s15.18,33.85,33.85,33.85,33.85-15.18,33.85-33.85-15.18-33.85-33.85-33.85Z"/><path d="M645.73,284.08c-19.21,0-34.85-15.63-34.85-34.85s15.63-34.85,34.85-34.85,34.85,15.63,34.85,34.85-15.63,34.85-34.85,34.85Zm0-68.69c-18.66,0-33.85,15.18-33.85,33.85s15.18,33.85,33.85,33.85,33.85-15.18,33.85-33.85-15.18-33.85-33.85-33.85Z"/><path d="M756.89,284.08c-19.21,0-34.85-15.63-34.85-34.85s15.63-34.85,34.85-34.85,34.85,15.63,34.85,34.85-15.63,34.85-34.85,34.85Zm0-68.69c-18.66,0-33.85,15.18-33.85,33.85s15.18,33.85,33.85,33.85,33.85-15.18,33.85-33.85-15.18-33.85-33.85-33.85Z"/></g></g></svg>