<?xml version="1.0" encoding="UTF-8"?><svg id="Layer_2" xmlns="http://www.w3.org/2000/svg" viewBox="0 0 349.71 349.04"><defs><style>.cls-1{fill:#00aeef;}.cls-2{fill:#fff200;}.cls-3{fill:#ec008c;}</style></defs><g id="Layer_1-2"><polygon class="cls-2" points="36.15 349.04 112.53 272.66 112.53 272.66 180.12 205.07 180.12 205.07 203.33 181.87 249.49 135.7 349.71 35.49 314.22 0 214 100.21 167.84 146.38 146.85 167.37 135.9 178.32 89.73 224.49 80.45 233.77 0 314.22 36.15 349.04"/><path class="cls-3" d="M291.02,150.07c0,50.46-40.91,91.38-91.38,91.38-16.11,0-31.24-4.18-44.39-11.5l46.17-46.17c17.23-.89,31.05-14.7,31.94-31.94,.03-.59,.05-1.18,.05-1.77,0-18.65-15.12-33.76-33.76-33.76-.59,0-1.19,.02-1.77,.05-17.24,.89-31.05,14.71-31.94,31.94l-46.17,46.17c-7.32-13.15-11.5-28.28-11.5-44.39,0-50.47,40.91-91.38,91.38-91.38,16.11,0,31.25,4.18,44.4,11.5,14.88,8.29,27.2,20.61,35.49,35.49,7.32,13.15,11.5,28.28,11.5,44.4Z"/><path class="cls-1" d="M237.92,203.17c0,50.46-40.91,91.38-91.38,91.38-16.11,0-31.24-4.18-44.39-11.5l46.17-46.17c17.23-.89,31.05-14.7,31.94-31.94,.03-.59,.05-1.18,.05-1.77,0-18.65-15.12-33.76-33.76-33.76-.59,0-1.19,.02-1.77,.05-17.24,.89-31.05,14.71-31.94,31.94l-46.17,46.17c-7.32-13.15-11.5-28.28-11.5-44.39,0-50.47,40.91-91.38,91.38-91.38,16.11,0,31.25,4.18,44.4,11.5,14.88,8.29,27.2,20.61,35.49,35.49,7.32,13.15,11.5,28.28,11.5,44.4Z"/></g></svg>