<?xml version="1.0" encoding="UTF-8"?><svg id="Layer_2" xmlns="http://www.w3.org/2000/svg" viewBox="0 0 801.15 281"><defs><style>.cls-1,.cls-2{fill:none;stroke:#000;stroke-linecap:round;stroke-miterlimit:10;}.cls-2{stroke-width:2px;}</style></defs><g id="Layer_1-2"><g><g><circle class="cls-1" cx="70.5" cy="210.5" r="70"/><circle class="cls-1" cx="70.5" cy="140.5" r="70"/><circle class="cls-1" cx="70.5" cy="70.5" r="70"/></g><g><line class="cls-2" x1="168.07" y1="140.5" x2="197.64" y2="140.5"/><line class="cls-2" x1="182.86" y1="125.71" x2="182.86" y2="155.29"/></g><g><line class="cls-2" x1="392.78" y1="140.5" x2="422.36" y2="140.5"/><line class="cls-2" x1="407.57" y1="125.71" x2="407.57" y2="155.29"/></g><g><circle class="cls-1" cx="293.71" cy="226" r="28"/><circle class="cls-1" cx="294.21" cy="197.5" r="28"/><circle class="cls-1" cx="294.71" cy="169" r="28"/><circle class="cls-1" cx="295.21" cy="140.5" r="28"/><circle class="cls-1" cx="295.71" cy="112" r="28"/><circle class="cls-1" cx="296.21" cy="83.5" r="28"/><circle class="cls-1" cx="296.71" cy="55" r="28"/></g><g><rect class="cls-1" x="491.93" y="140.5" width="56" height="56"/><rect class="cls-1" x="491.93" y="196.5" width="56" height="56"/><rect class="cls-1" x="491.93" y="28.5" width="56" height="56"/><rect class="cls-1" x="491.93" y="84.5" width="56" height="56"/></g><g><g><path class="cls-1" d="M744.65,56.55v-22.73c-.37,3.99-1.16,7.86-2.33,11.56,1.49,3.42,2.33,7.2,2.33,11.17Z"/><path class="cls-1" d="M744.65,84.55s0,0,0,0v-28c0,4.1-.89,7.99-2.47,11.5,1.61,5.22,2.47,10.75,2.47,16.5Z"/><path class="cls-1" d="M737.39,56.55h7.25c0-3.97-.83-7.75-2.33-11.17-1.24,3.93-2.9,7.67-4.93,11.17Z"/><path class="cls-1" d="M737.28,56.77c2.03,3.54,3.68,7.32,4.9,11.29,1.58-3.51,2.47-7.4,2.47-11.5h0s-7.25,0-7.25,0c-.04,.07-.08,.14-.12,.21Z"/><path class="cls-1" d="M744.65,84.55c0-5.74-.87-11.28-2.47-16.5-.39,.86-.83,1.69-1.3,2.51,2.38,4.12,3.77,8.89,3.77,13.99Z"/><path class="cls-1" d="M740.88,70.56c.47-.81,.91-1.64,1.3-2.51-1.22-3.97-2.87-7.75-4.9-11.29-1.12,1.92-2.37,3.75-3.7,5.52,2.95,2.25,5.44,5.05,7.3,8.28Z"/><path class="cls-1" d="M740.87,42.55c.53,.91,1.03,1.85,1.45,2.83,1.16-3.7,1.95-7.57,2.33-11.56v-5.27h0c0,5.11-1.39,9.88-3.78,14Z"/><path class="cls-1" d="M737.28,56.77c.04-.07,.08-.14,.12-.21h-.25c.04,.07,.09,.14,.13,.21Z"/><path class="cls-1" d="M733.41,50.94c1.35,1.79,2.6,3.66,3.73,5.61h.25c2.03-3.5,3.69-7.24,4.93-11.17-.43-.98-.92-1.91-1.45-2.83-1.9,3.28-4.44,6.13-7.46,8.39Z"/><path class="cls-1" d="M716.68,56.55c6.36,0,12.2,2.16,16.9,5.73,1.33-1.76,2.58-3.6,3.7-5.52-.04-.07-.09-.14-.13-.21h-20.46Z"/><path class="cls-1" d="M716.68,56.55h20.46c-1.13-1.95-2.39-3.82-3.73-5.61-4.67,3.51-10.46,5.61-16.75,5.61,0,0,.01,0,.02,0Z"/><path class="cls-1" d="M744.53,28.56s.06,0,.09,0h-27.97c4.1,0,7.99,.89,11.5,2.47,5.18-1.6,10.68-2.46,16.38-2.47Z"/><path class="cls-1" d="M705.14,31.02c3.51-1.58,7.4-2.47,11.5-2.47h-27.97s.06,0,.09,0c5.7,.01,11.2,.87,16.38,2.47Z"/><path class="cls-1" d="M728.15,31.02c-3.51-1.58-7.4-2.47-11.5-2.47v7.49c3.6-2.08,7.45-3.78,11.5-5.02Z"/><path class="cls-1" d="M716.64,36.05v-7.49h0c-4.1,0-7.99,.89-11.5,2.47,4.05,1.25,7.9,2.94,11.5,5.02Z"/><path class="cls-1" d="M688.77,28.56c5.06,.02,9.78,1.4,13.87,3.77,.81-.47,1.64-.91,2.5-1.3-5.18-1.59-10.68-2.46-16.38-2.47Z"/><path class="cls-1" d="M711.03,39.78c1.79-1.35,3.66-2.61,5.61-3.74-3.6-2.08-7.45-3.78-11.5-5.02-.86,.39-1.69,.83-2.5,1.3,3.28,1.9,6.13,4.44,8.39,7.46Z"/><path class="cls-1" d="M730.65,32.32c4.09-2.37,8.82-3.75,13.88-3.77-5.7,.01-11.2,.87-16.38,2.47,.86,.39,1.69,.83,2.51,1.3Z"/><path class="cls-1" d="M730.65,32.32c-.81-.47-1.65-.91-2.51-1.3-4.05,1.25-7.9,2.94-11.5,5.02,1.95,1.13,3.82,2.39,5.62,3.74,2.26-3.02,5.11-5.56,8.39-7.46Z"/><path class="cls-1" d="M716.65,56.53c0-6.29,2.11-12.08,5.61-16.75-1.79-1.35-3.66-2.61-5.62-3.74v20.47s0,.01,0,.02Z"/><path class="cls-1" d="M716.64,56.51v-20.47c-1.95,1.13-3.82,2.39-5.61,3.74,3.5,4.67,5.61,10.45,5.61,16.73Z"/><path class="cls-1" d="M744.65,28.55s0,0,0,0c-.01,0-.02,0-.03,0h.03Z"/><path class="cls-1" d="M744.53,28.56s.08,0,.12,0h-.03s-.06,0-.09,0Z"/><path class="cls-1" d="M740.87,42.55c2.39-4.12,3.78-8.89,3.78-14-.04,0-.08,0-.12,0-5.06,.02-9.79,1.4-13.88,3.77,4.24,2.46,7.76,5.99,10.22,10.23Z"/><path class="cls-1" d="M730.65,32.32c-3.28,1.9-6.13,4.44-8.39,7.46,4.22,3.18,7.98,6.93,11.15,11.16,3.02-2.26,5.56-5.11,7.46-8.39-2.46-4.24-5.98-7.78-10.22-10.23Z"/><path class="cls-1" d="M716.65,56.55s.01,0,.02,0c6.29,0,12.08-2.11,16.75-5.61-3.18-4.22-6.93-7.98-11.15-11.16-3.51,4.67-5.61,10.46-5.61,16.75,0,0,0,.01,0,.02Z"/><path class="cls-1" d="M728.15,82.09c-3.51,1.58-7.4,2.47-11.5,2.47h28c-5.74,0-11.29-.87-16.5-2.47Z"/><path class="cls-1" d="M688.89,84.56h27.76c-4.06,0-7.92-.87-11.4-2.43-5.17,1.58-10.66,2.43-16.35,2.43Z"/><path class="cls-1" d="M688.67,84.56s-.02,0-.03,0c0,0,0,0,0,0h0s0,0,0,0h.25c-.07,0-.15,0-.22,0Z"/><path class="cls-1" d="M716.64,77.21v7.35c4.1,0,7.99-.89,11.5-2.47-4-1.23-7.81-2.9-11.38-4.95-.04,.02-.08,.04-.12,.07Z"/><path class="cls-1" d="M705.24,82.13c3.48,1.56,7.34,2.43,11.4,2.43h0v-7.35c-3.57,2.04-7.39,3.7-11.4,4.93Z"/><path class="cls-1" d="M728.15,82.09c5.22,1.61,10.76,2.47,16.5,2.47,0,0,0,0,0,0-5.1,0-9.87-1.39-13.99-3.77-.81,.47-1.65,.91-2.51,1.3Z"/><path class="cls-1" d="M722.35,73.45c-1.79,1.33-3.64,2.58-5.58,3.69,3.56,2.05,7.38,3.72,11.38,4.95,.86-.39,1.7-.83,2.51-1.3-3.24-1.87-6.05-4.37-8.3-7.34Z"/><path class="cls-1" d="M702.64,80.79c-4.11,2.38-8.87,3.77-13.97,3.77,.07,0,.15,0,.22,0h0c5.69,0,11.18-.85,16.35-2.43-.9-.4-1.76-.86-2.6-1.35Z"/><path class="cls-1" d="M716.64,77.21s.08-.04,.12-.07c-.04-.02-.08-.05-.12-.08v.14Z"/><path class="cls-1" d="M711.03,73.33c-2.26,3.02-5.11,5.56-8.39,7.46,.84,.49,1.71,.95,2.6,1.35,4.01-1.22,7.83-2.88,11.4-4.93v-.14c-1.95-1.13-3.82-2.39-5.61-3.74Z"/><path class="cls-1" d="M716.64,56.6v20.47s.08,.05,.12,.08c1.94-1.12,3.8-2.36,5.58-3.69-3.56-4.69-5.7-10.53-5.71-16.87,0,0,0,.01,0,.02Z"/><path class="cls-1" d="M716.64,77.06v-20.47c0,6.28-2.11,12.06-5.61,16.73,1.79,1.35,3.66,2.61,5.61,3.74Z"/><path class="cls-1" d="M740.88,70.56c-2.45,4.24-5.98,7.77-10.22,10.22,4.12,2.38,8.89,3.77,13.99,3.77,0,0,0,0,0,0,0,0,0,0,0,0,0-5.1-1.39-9.87-3.77-13.99Z"/><path class="cls-1" d="M733.58,62.29c-3.2,4.23-6.98,7.99-11.22,11.16,2.25,2.96,5.07,5.47,8.3,7.34,4.24-2.46,7.77-5.99,10.22-10.22-1.87-3.22-4.35-6.03-7.3-8.28Z"/><path class="cls-1" d="M733.58,62.29c-4.7-3.58-10.54-5.73-16.9-5.73h-.03s0,.01,0,.02c0,6.35,2.14,12.18,5.71,16.87,4.25-3.17,8.03-6.93,11.22-11.16Z"/><path class="cls-1" d="M716.65,56.55h.03s-.01,0-.02,0c0,0-.01,0-.02,0Z"/><path class="cls-1" d="M716.66,56.55s-.01,0-.02,0c0,0,0,0,0,0,0,0,.01,0,.02,0Z"/><path class="cls-1" d="M691.11,68.06c-1.58-3.51-2.47-7.4-2.47-11.5v28s0,0,0,0c0-5.74,.87-11.28,2.47-16.49Z"/><path class="cls-1" d="M691.11,45.05c-1.61-5.22-2.47-10.76-2.47-16.5v28h0c0-4.1,.89-7.99,2.47-11.5Z"/><path class="cls-1" d="M696.13,56.56s0,0,0,0h-7.49s0,0,0,0c0,4.1,.89,7.99,2.47,11.5,1.25-4.05,2.94-7.9,5.02-11.5Z"/><path class="cls-1" d="M688.64,56.55h7.49c-2.08-3.6-3.78-7.45-5.02-11.5-1.58,3.51-2.47,7.4-2.47,11.5Z"/><path class="cls-1" d="M688.64,84.55c0-5.1,1.39-9.87,3.77-13.99-.47-.81-.91-1.64-1.3-2.51-1.61,5.21-2.47,10.75-2.47,16.49Z"/><path class="cls-1" d="M699.87,62.17c-1.35-1.79-2.61-3.66-3.74-5.61-2.08,3.6-3.78,7.45-5.02,11.5,.39,.86,.83,1.69,1.3,2.51,1.9-3.28,4.44-6.13,7.46-8.39Z"/><path class="cls-1" d="M692.41,42.55c-2.39-4.12-3.77-8.89-3.77-13.99h0c0,5.75,.87,11.29,2.47,16.5,.39-.86,.83-1.69,1.3-2.51Z"/><path class="cls-1" d="M699.87,50.94c-3.02-2.26-5.56-5.11-7.46-8.39-.47,.81-.91,1.65-1.3,2.51,1.25,4.05,2.94,7.9,5.02,11.5h0c1.13-1.95,2.39-3.82,3.74-5.62Z"/><path class="cls-1" d="M699.87,50.94c-1.35,1.79-2.61,3.66-3.74,5.62h20.47s.01,0,.02,0c-6.29,0-12.08-2.11-16.75-5.62Z"/><path class="cls-1" d="M716.61,56.55h-20.47s0,0,0,0c1.13,1.95,2.39,3.82,3.74,5.61,4.67-3.5,10.45-5.61,16.74-5.62Z"/><path class="cls-1" d="M688.64,28.55h.03s-.02,0-.03,0h0s0,0,0,0h0Z"/><path class="cls-1" d="M688.67,28.55h-.03s.08,0,.13,0c-.03,0-.06,0-.09,0Z"/><path class="cls-1" d="M702.64,32.32c-4.09-2.37-8.81-3.74-13.87-3.77-.04,0-.08,0-.13,0h0c0,5.1,1.39,9.87,3.77,13.99,2.46-4.24,5.99-7.77,10.22-10.22Z"/><path class="cls-1" d="M699.87,50.94c3.18-4.22,6.93-7.98,11.16-11.16-2.26-3.02-5.11-5.56-8.39-7.46-4.24,2.46-7.77,5.99-10.22,10.22,1.9,3.28,4.44,6.13,7.46,8.39Z"/><path class="cls-1" d="M716.64,56.55s0-.01,0-.02c0,0,0-.01,0-.02v.04h0Z"/><path class="cls-1" d="M716.64,56.55h0v-.04c0-6.28-2.11-12.06-5.61-16.73-4.22,3.18-7.98,6.93-11.16,11.16,4.67,3.51,10.46,5.61,16.75,5.62,0,0,.01,0,.02,0Z"/><path class="cls-1" d="M716.65,56.55s0-.01,0-.02c0,0,0,.01,0,.02,0,0,0,0,0,0Z"/><path class="cls-1" d="M688.64,84.56h0s0,0,0,0c0,0,.02,0,.03,0,0,0-.02,0-.03,0h0Z"/><polygon class="cls-1" points="688.64 84.55 688.64 84.56 688.64 84.55 688.64 84.55"/><path class="cls-1" d="M692.41,70.56c-2.38,4.12-3.77,8.89-3.77,13.99,0,0,0,0,0,0,0,0,.02,0,.03,0,5.09,0,9.85-1.39,13.97-3.77-4.24-2.46-7.77-5.98-10.23-10.22Z"/><path class="cls-1" d="M711.03,73.33c-4.22-3.18-7.98-6.93-11.16-11.16-3.02,2.26-5.56,5.11-7.46,8.39,2.46,4.24,5.99,7.77,10.23,10.22,3.28-1.9,6.13-4.44,8.39-7.46Z"/><path class="cls-1" d="M716.64,56.6s0-.01,0-.02,0-.01,0-.02v.04Z"/><path class="cls-1" d="M716.63,56.55s-.01,0-.02,0h.04s-.01,0-.02,0Z"/><path class="cls-1" d="M716.64,56.55h-.04c-6.29,0-12.07,2.11-16.74,5.62,3.18,4.22,6.93,7.98,11.16,11.16,3.5-4.67,5.61-10.45,5.61-16.73v-.04h0Z"/><path class="cls-1" d="M716.65,56.58s0-.01,0-.02h0s0,.01,0,.02Z"/><path class="cls-1" d="M716.64,56.55h0s-.01,0-.02,0c0,0,.01,0,.02,0h0Z"/></g><g><path class="cls-1" d="M744.65,112.52v-22.73c-.37,3.99-1.16,7.86-2.33,11.56,1.49,3.42,2.33,7.2,2.33,11.17Z"/><path class="cls-1" d="M744.65,140.52s0,0,0,0v-28c0,4.1-.89,7.99-2.47,11.5,1.61,5.22,2.47,10.75,2.47,16.5Z"/><path class="cls-1" d="M737.39,112.52h7.25c0-3.97-.83-7.75-2.33-11.17-1.24,3.93-2.9,7.67-4.93,11.17Z"/><path class="cls-1" d="M737.28,112.73c2.03,3.54,3.68,7.32,4.9,11.29,1.58-3.51,2.47-7.4,2.47-11.5h0s-7.25,0-7.25,0c-.04,.07-.08,.14-.12,.21Z"/><path class="cls-1" d="M744.65,140.52c0-5.74-.87-11.28-2.47-16.5-.39,.86-.83,1.69-1.3,2.51,2.38,4.12,3.77,8.89,3.77,13.99Z"/><path class="cls-1" d="M740.88,126.53c.47-.81,.91-1.64,1.3-2.51-1.22-3.97-2.87-7.75-4.9-11.29-1.12,1.92-2.37,3.75-3.7,5.52,2.95,2.25,5.44,5.05,7.3,8.28Z"/><path class="cls-1" d="M740.87,98.52c.53,.91,1.03,1.85,1.45,2.83,1.16-3.7,1.95-7.57,2.33-11.56v-5.27h0c0,5.11-1.39,9.88-3.78,14Z"/><path class="cls-1" d="M737.28,112.73c.04-.07,.08-.14,.12-.21h-.25c.04,.07,.09,.14,.13,.21Z"/><path class="cls-1" d="M733.41,106.91c1.35,1.79,2.6,3.66,3.73,5.61h.25c2.03-3.5,3.69-7.24,4.93-11.17-.43-.98-.92-1.91-1.45-2.83-1.9,3.28-4.44,6.13-7.46,8.39Z"/><path class="cls-1" d="M716.68,112.52c6.36,0,12.2,2.16,16.9,5.73,1.33-1.76,2.58-3.6,3.7-5.52-.04-.07-.09-.14-.13-.21h-20.46Z"/><path class="cls-1" d="M716.68,112.52h20.46c-1.13-1.95-2.39-3.82-3.73-5.61-4.67,3.51-10.46,5.61-16.75,5.61,0,0,.01,0,.02,0Z"/><path class="cls-1" d="M744.53,84.52s.06,0,.09,0h-27.97c4.1,0,7.99,.89,11.5,2.47,5.18-1.6,10.68-2.46,16.38-2.47Z"/><path class="cls-1" d="M705.14,86.99c3.51-1.58,7.4-2.47,11.5-2.47h-27.97s.06,0,.09,0c5.7,.01,11.2,.87,16.38,2.47Z"/><path class="cls-1" d="M728.15,86.99c-3.51-1.58-7.4-2.47-11.5-2.47v7.49c3.6-2.08,7.45-3.78,11.5-5.02Z"/><path class="cls-1" d="M716.64,92.01v-7.49h0c-4.1,0-7.99,.89-11.5,2.47,4.05,1.25,7.9,2.94,11.5,5.02Z"/><path class="cls-1" d="M688.77,84.52c5.06,.02,9.78,1.4,13.87,3.77,.81-.47,1.64-.91,2.5-1.3-5.18-1.59-10.68-2.46-16.38-2.47Z"/><path class="cls-1" d="M711.03,95.75c1.79-1.35,3.66-2.61,5.61-3.74-3.6-2.08-7.45-3.78-11.5-5.02-.86,.39-1.69,.83-2.5,1.3,3.28,1.9,6.13,4.44,8.39,7.46Z"/><path class="cls-1" d="M730.65,88.29c4.09-2.37,8.82-3.75,13.88-3.77-5.7,.01-11.2,.87-16.38,2.47,.86,.39,1.69,.83,2.51,1.3Z"/><path class="cls-1" d="M730.65,88.29c-.81-.47-1.65-.91-2.51-1.3-4.05,1.25-7.9,2.94-11.5,5.02,1.95,1.13,3.82,2.39,5.62,3.74,2.26-3.02,5.11-5.56,8.39-7.46Z"/><path class="cls-1" d="M716.65,112.5c0-6.29,2.11-12.08,5.61-16.75-1.79-1.35-3.66-2.61-5.62-3.74v20.47s0,.01,0,.02Z"/><path class="cls-1" d="M716.64,112.48v-20.47c-1.95,1.13-3.82,2.39-5.61,3.74,3.5,4.67,5.61,10.45,5.61,16.73Z"/><path class="cls-1" d="M744.65,84.52s0,0,0,0c-.01,0-.02,0-.03,0h.03Z"/><path class="cls-1" d="M744.53,84.52s.08,0,.12,0h-.03s-.06,0-.09,0Z"/><path class="cls-1" d="M740.87,98.52c2.39-4.12,3.78-8.89,3.78-14-.04,0-.08,0-.12,0-5.06,.02-9.79,1.4-13.88,3.77,4.24,2.46,7.76,5.99,10.22,10.23Z"/><path class="cls-1" d="M730.65,88.29c-3.28,1.9-6.13,4.44-8.39,7.46,4.22,3.18,7.98,6.93,11.15,11.16,3.02-2.26,5.56-5.11,7.46-8.39-2.46-4.24-5.98-7.78-10.22-10.23Z"/><path class="cls-1" d="M716.65,112.52s.01,0,.02,0c6.29,0,12.08-2.11,16.75-5.61-3.18-4.22-6.93-7.98-11.15-11.16-3.51,4.67-5.61,10.46-5.61,16.75,0,0,0,.01,0,.02Z"/><path class="cls-1" d="M728.15,138.05c-3.51,1.58-7.4,2.47-11.5,2.47h28c-5.74,0-11.29-.87-16.5-2.47Z"/><path class="cls-1" d="M688.89,140.52h27.76c-4.06,0-7.92-.87-11.4-2.43-5.17,1.58-10.66,2.43-16.35,2.43Z"/><path class="cls-1" d="M688.67,140.52s-.02,0-.03,0c0,0,0,0,0,0h0s0,0,0,0h.25c-.07,0-.15,0-.22,0Z"/><path class="cls-1" d="M716.64,133.17v7.35c4.1,0,7.99-.89,11.5-2.47-4-1.23-7.81-2.9-11.38-4.95-.04,.02-.08,.04-.12,.07Z"/><path class="cls-1" d="M705.24,138.09c3.48,1.56,7.34,2.43,11.4,2.43h0v-7.35c-3.57,2.04-7.39,3.7-11.4,4.93Z"/><path class="cls-1" d="M728.15,138.05c5.22,1.61,10.76,2.47,16.5,2.47,0,0,0,0,0,0-5.1,0-9.87-1.39-13.99-3.77-.81,.47-1.65,.91-2.51,1.3Z"/><path class="cls-1" d="M722.35,129.41c-1.79,1.33-3.64,2.58-5.58,3.69,3.56,2.05,7.38,3.72,11.38,4.95,.86-.39,1.7-.83,2.51-1.3-3.24-1.87-6.05-4.37-8.3-7.34Z"/><path class="cls-1" d="M702.64,136.75c-4.11,2.38-8.87,3.77-13.97,3.77,.07,0,.15,0,.22,0h0c5.69,0,11.18-.85,16.35-2.43-.9-.4-1.76-.86-2.6-1.35Z"/><path class="cls-1" d="M716.64,133.17s.08-.04,.12-.07c-.04-.02-.08-.05-.12-.08v.14Z"/><path class="cls-1" d="M711.03,129.29c-2.26,3.02-5.11,5.56-8.39,7.46,.84,.49,1.71,.95,2.6,1.35,4.01-1.22,7.83-2.88,11.4-4.93v-.14c-1.95-1.13-3.82-2.39-5.61-3.74Z"/><path class="cls-1" d="M716.64,112.56v20.47s.08,.05,.12,.08c1.94-1.12,3.8-2.36,5.58-3.69-3.56-4.69-5.7-10.53-5.71-16.87,0,0,0,.01,0,.02Z"/><path class="cls-1" d="M716.64,133.02v-20.47c0,6.28-2.11,12.06-5.61,16.73,1.79,1.35,3.66,2.61,5.61,3.74Z"/><path class="cls-1" d="M740.88,126.53c-2.45,4.24-5.98,7.77-10.22,10.22,4.12,2.38,8.89,3.77,13.99,3.77,0,0,0,0,0,0,0,0,0,0,0,0,0-5.1-1.39-9.87-3.77-13.99Z"/><path class="cls-1" d="M733.58,118.25c-3.2,4.23-6.98,7.99-11.22,11.16,2.25,2.96,5.07,5.47,8.3,7.34,4.24-2.46,7.77-5.99,10.22-10.22-1.87-3.22-4.35-6.03-7.3-8.28Z"/><path class="cls-1" d="M733.58,118.25c-4.7-3.58-10.54-5.73-16.9-5.73h-.03s0,.01,0,.02c0,6.35,2.14,12.18,5.71,16.87,4.25-3.17,8.03-6.93,11.22-11.16Z"/><path class="cls-1" d="M716.65,112.52h.03s-.01,0-.02,0c0,0-.01,0-.02,0Z"/><path class="cls-1" d="M716.66,112.52s-.01,0-.02,0c0,0,0,0,0,0,0,0,.01,0,.02,0Z"/><path class="cls-1" d="M691.11,124.02c-1.58-3.51-2.47-7.4-2.47-11.5v28s0,0,0,0c0-5.74,.87-11.28,2.47-16.49Z"/><path class="cls-1" d="M691.11,101.02c-1.61-5.22-2.47-10.76-2.47-16.5v28h0c0-4.1,.89-7.99,2.47-11.5Z"/><path class="cls-1" d="M696.13,112.52s0,0,0,0h-7.49s0,0,0,0c0,4.1,.89,7.99,2.47,11.5,1.25-4.05,2.94-7.9,5.02-11.5Z"/><path class="cls-1" d="M688.64,112.52h7.49c-2.08-3.6-3.78-7.45-5.02-11.5-1.58,3.51-2.47,7.4-2.47,11.5Z"/><path class="cls-1" d="M688.64,140.51c0-5.1,1.39-9.87,3.77-13.99-.47-.81-.91-1.64-1.3-2.51-1.61,5.21-2.47,10.75-2.47,16.49Z"/><path class="cls-1" d="M699.87,118.13c-1.35-1.79-2.61-3.66-3.74-5.61-2.08,3.6-3.78,7.45-5.02,11.5,.39,.86,.83,1.69,1.3,2.51,1.9-3.28,4.44-6.13,7.46-8.39Z"/><path class="cls-1" d="M692.41,98.51c-2.39-4.12-3.77-8.89-3.77-13.99h0c0,5.75,.87,11.29,2.47,16.5,.39-.86,.83-1.69,1.3-2.51Z"/><path class="cls-1" d="M699.87,106.9c-3.02-2.26-5.56-5.11-7.46-8.39-.47,.81-.91,1.65-1.3,2.51,1.25,4.05,2.94,7.9,5.02,11.5h0c1.13-1.95,2.39-3.82,3.74-5.62Z"/><path class="cls-1" d="M699.87,106.9c-1.35,1.79-2.61,3.66-3.74,5.62h20.47s.01,0,.02,0c-6.29,0-12.08-2.11-16.75-5.62Z"/><path class="cls-1" d="M716.61,112.52h-20.47s0,0,0,0c1.13,1.95,2.39,3.82,3.74,5.61,4.67-3.5,10.45-5.61,16.74-5.62Z"/><path class="cls-1" d="M688.64,84.52h.03s-.02,0-.03,0h0s0,0,0,0h0Z"/><path class="cls-1" d="M688.67,84.52h-.03s.08,0,.13,0c-.03,0-.06,0-.09,0Z"/><path class="cls-1" d="M702.64,88.29c-4.09-2.37-8.81-3.74-13.87-3.77-.04,0-.08,0-.13,0h0c0,5.1,1.39,9.87,3.77,13.99,2.46-4.24,5.99-7.77,10.22-10.22Z"/><path class="cls-1" d="M699.87,106.9c3.18-4.22,6.93-7.98,11.16-11.16-2.26-3.02-5.11-5.56-8.39-7.46-4.24,2.46-7.77,5.99-10.22,10.22,1.9,3.28,4.44,6.13,7.46,8.39Z"/><path class="cls-1" d="M716.64,112.52s0-.01,0-.02c0,0,0-.01,0-.02v.04h0Z"/><path class="cls-1" d="M716.64,112.52h0v-.04c0-6.28-2.11-12.06-5.61-16.73-4.22,3.18-7.98,6.93-11.16,11.16,4.67,3.51,10.46,5.61,16.75,5.62,0,0,.01,0,.02,0Z"/><path class="cls-1" d="M716.65,112.52s0-.01,0-.02c0,0,0,.01,0,.02,0,0,0,0,0,0Z"/><path class="cls-1" d="M688.64,140.52h0s0,0,0,0c0,0,.02,0,.03,0,0,0-.02,0-.03,0h0Z"/><polygon class="cls-1" points="688.64 140.52 688.64 140.52 688.64 140.51 688.64 140.52"/><path class="cls-1" d="M692.41,126.53c-2.38,4.12-3.77,8.89-3.77,13.99,0,0,0,0,0,0,0,0,.02,0,.03,0,5.09,0,9.85-1.39,13.97-3.77-4.24-2.46-7.77-5.98-10.23-10.22Z"/><path class="cls-1" d="M711.03,129.29c-4.22-3.18-7.98-6.93-11.16-11.16-3.02,2.26-5.56,5.11-7.46,8.39,2.46,4.24,5.99,7.77,10.23,10.22,3.28-1.9,6.13-4.44,8.39-7.46Z"/><path class="cls-1" d="M716.64,112.56s0-.01,0-.02,0-.01,0-.02v.04Z"/><path class="cls-1" d="M716.63,112.52s-.01,0-.02,0h.04s-.01,0-.02,0Z"/><path class="cls-1" d="M716.64,112.52h-.04c-6.29,0-12.07,2.11-16.74,5.62,3.18,4.22,6.93,7.98,11.16,11.16,3.5-4.67,5.61-10.45,5.61-16.73v-.04h0Z"/><path class="cls-1" d="M716.65,112.54s0-.01,0-.02h0s0,.01,0,.02Z"/><path class="cls-1" d="M716.64,112.52h0s-.01,0-.02,0c0,0,.01,0,.02,0h0Z"/></g><g><path class="cls-1" d="M744.65,168.48v-22.73c-.37,3.99-1.16,7.86-2.33,11.56,1.49,3.42,2.33,7.2,2.33,11.17Z"/><path class="cls-1" d="M744.65,196.48s0,0,0,0v-28c0,4.1-.89,7.99-2.47,11.5,1.61,5.22,2.47,10.75,2.47,16.5Z"/><path class="cls-1" d="M737.39,168.48h7.25c0-3.97-.83-7.75-2.33-11.17-1.24,3.93-2.9,7.67-4.93,11.17Z"/><path class="cls-1" d="M737.28,168.69c2.03,3.54,3.68,7.32,4.9,11.29,1.58-3.51,2.47-7.4,2.47-11.5h0s-7.25,0-7.25,0c-.04,.07-.08,.14-.12,.21Z"/><path class="cls-1" d="M744.65,196.48c0-5.74-.87-11.28-2.47-16.5-.39,.86-.83,1.69-1.3,2.51,2.38,4.12,3.77,8.89,3.77,13.99Z"/><path class="cls-1" d="M740.88,182.49c.47-.81,.91-1.64,1.3-2.51-1.22-3.97-2.87-7.75-4.9-11.29-1.12,1.92-2.37,3.75-3.7,5.52,2.95,2.25,5.44,5.05,7.3,8.28Z"/><path class="cls-1" d="M740.87,154.48c.53,.91,1.03,1.85,1.45,2.83,1.16-3.7,1.95-7.57,2.33-11.56v-5.27h0c0,5.11-1.39,9.88-3.78,14Z"/><path class="cls-1" d="M737.28,168.69c.04-.07,.08-.14,.12-.21h-.25c.04,.07,.09,.14,.13,.21Z"/><path class="cls-1" d="M733.41,162.87c1.35,1.79,2.6,3.66,3.73,5.61h.25c2.03-3.5,3.69-7.24,4.93-11.17-.43-.98-.92-1.91-1.45-2.83-1.9,3.28-4.44,6.13-7.46,8.39Z"/><path class="cls-1" d="M716.68,168.48c6.36,0,12.2,2.16,16.9,5.73,1.33-1.76,2.58-3.6,3.7-5.52-.04-.07-.09-.14-.13-.21h-20.46Z"/><path class="cls-1" d="M716.68,168.48h20.46c-1.13-1.95-2.39-3.82-3.73-5.61-4.67,3.51-10.46,5.61-16.75,5.61,0,0,.01,0,.02,0Z"/><path class="cls-1" d="M744.53,140.48s.06,0,.09,0h-27.97c4.1,0,7.99,.89,11.5,2.47,5.18-1.6,10.68-2.46,16.38-2.47Z"/><path class="cls-1" d="M705.14,142.95c3.51-1.58,7.4-2.47,11.5-2.47h-27.97s.06,0,.09,0c5.7,.01,11.2,.87,16.38,2.47Z"/><path class="cls-1" d="M728.15,142.95c-3.51-1.58-7.4-2.47-11.5-2.47v7.49c3.6-2.08,7.45-3.78,11.5-5.02Z"/><path class="cls-1" d="M716.64,147.97v-7.49h0c-4.1,0-7.99,.89-11.5,2.47,4.05,1.25,7.9,2.94,11.5,5.02Z"/><path class="cls-1" d="M688.77,140.48c5.06,.02,9.78,1.4,13.87,3.77,.81-.47,1.64-.91,2.5-1.3-5.18-1.59-10.68-2.46-16.38-2.47Z"/><path class="cls-1" d="M711.03,151.71c1.79-1.35,3.66-2.61,5.61-3.74-3.6-2.08-7.45-3.78-11.5-5.02-.86,.39-1.69,.83-2.5,1.3,3.28,1.9,6.13,4.44,8.39,7.46Z"/><path class="cls-1" d="M730.65,144.25c4.09-2.37,8.82-3.75,13.88-3.77-5.7,.01-11.2,.87-16.38,2.47,.86,.39,1.69,.83,2.51,1.3Z"/><path class="cls-1" d="M730.65,144.25c-.81-.47-1.65-.91-2.51-1.3-4.05,1.25-7.9,2.94-11.5,5.02,1.95,1.13,3.82,2.39,5.62,3.74,2.26-3.02,5.11-5.56,8.39-7.46Z"/><path class="cls-1" d="M716.65,168.46c0-6.29,2.11-12.08,5.61-16.75-1.79-1.35-3.66-2.61-5.62-3.74v20.47s0,.01,0,.02Z"/><path class="cls-1" d="M716.64,168.44v-20.47c-1.95,1.13-3.82,2.39-5.61,3.74,3.5,4.67,5.61,10.45,5.61,16.73Z"/><path class="cls-1" d="M744.65,140.48s0,0,0,0c-.01,0-.02,0-.03,0h.03Z"/><path class="cls-1" d="M744.53,140.48s.08,0,.12,0h-.03s-.06,0-.09,0Z"/><path class="cls-1" d="M740.87,154.48c2.39-4.12,3.78-8.89,3.78-14-.04,0-.08,0-.12,0-5.06,.02-9.79,1.4-13.88,3.77,4.24,2.46,7.76,5.99,10.22,10.23Z"/><path class="cls-1" d="M730.65,144.25c-3.28,1.9-6.13,4.44-8.39,7.46,4.22,3.18,7.98,6.93,11.15,11.16,3.02-2.26,5.56-5.11,7.46-8.39-2.46-4.24-5.98-7.78-10.22-10.23Z"/><path class="cls-1" d="M716.65,168.48s.01,0,.02,0c6.29,0,12.08-2.11,16.75-5.61-3.18-4.22-6.93-7.98-11.15-11.16-3.51,4.67-5.61,10.46-5.61,16.75,0,0,0,.01,0,.02Z"/><path class="cls-1" d="M728.15,194.01c-3.51,1.58-7.4,2.47-11.5,2.47h28c-5.74,0-11.29-.87-16.5-2.47Z"/><path class="cls-1" d="M688.89,196.49h27.76c-4.06,0-7.92-.87-11.4-2.43-5.17,1.58-10.66,2.43-16.35,2.43Z"/><path class="cls-1" d="M688.67,196.48s-.02,0-.03,0c0,0,0,0,0,0h0s0,0,0,0h.25c-.07,0-.15,0-.22,0Z"/><path class="cls-1" d="M716.64,189.13v7.35c4.1,0,7.99-.89,11.5-2.47-4-1.23-7.81-2.9-11.38-4.95-.04,.02-.08,.04-.12,.07Z"/><path class="cls-1" d="M705.24,194.06c3.48,1.56,7.34,2.43,11.4,2.43h0v-7.35c-3.57,2.04-7.39,3.7-11.4,4.93Z"/><path class="cls-1" d="M728.15,194.01c5.22,1.61,10.76,2.47,16.5,2.47,0,0,0,0,0,0-5.1,0-9.87-1.39-13.99-3.77-.81,.47-1.65,.91-2.51,1.3Z"/><path class="cls-1" d="M722.35,185.37c-1.79,1.33-3.64,2.58-5.58,3.69,3.56,2.05,7.38,3.72,11.38,4.95,.86-.39,1.7-.83,2.51-1.3-3.24-1.87-6.05-4.37-8.3-7.34Z"/><path class="cls-1" d="M702.64,192.71c-4.11,2.38-8.87,3.77-13.97,3.77,.07,0,.15,0,.22,0h0c5.69,0,11.18-.85,16.35-2.43-.9-.4-1.76-.86-2.6-1.35Z"/><path class="cls-1" d="M716.64,189.13s.08-.04,.12-.07c-.04-.02-.08-.05-.12-.08v.14Z"/><path class="cls-1" d="M711.03,185.25c-2.26,3.02-5.11,5.56-8.39,7.46,.84,.49,1.71,.95,2.6,1.35,4.01-1.22,7.83-2.88,11.4-4.93v-.14c-1.95-1.13-3.82-2.39-5.61-3.74Z"/><path class="cls-1" d="M716.64,168.52v20.47s.08,.05,.12,.08c1.94-1.12,3.8-2.36,5.58-3.69-3.56-4.69-5.7-10.53-5.71-16.87,0,0,0,.01,0,.02Z"/><path class="cls-1" d="M716.64,188.99v-20.47c0,6.28-2.11,12.06-5.61,16.73,1.79,1.35,3.66,2.61,5.61,3.74Z"/><path class="cls-1" d="M740.88,182.49c-2.45,4.24-5.98,7.77-10.22,10.22,4.12,2.38,8.89,3.77,13.99,3.77,0,0,0,0,0,0,0,0,0,0,0,0,0-5.1-1.39-9.87-3.77-13.99Z"/><path class="cls-1" d="M733.58,174.21c-3.2,4.23-6.98,7.99-11.22,11.16,2.25,2.96,5.07,5.47,8.3,7.34,4.24-2.46,7.77-5.99,10.22-10.22-1.87-3.22-4.35-6.03-7.3-8.28Z"/><path class="cls-1" d="M733.58,174.21c-4.7-3.58-10.54-5.73-16.9-5.73h-.03s0,.01,0,.02c0,6.35,2.14,12.18,5.71,16.87,4.25-3.17,8.03-6.93,11.22-11.16Z"/><path class="cls-1" d="M716.65,168.48h.03s-.01,0-.02,0c0,0-.01,0-.02,0Z"/><path class="cls-1" d="M716.66,168.48s-.01,0-.02,0c0,0,0,0,0,0,0,0,.01,0,.02,0Z"/><path class="cls-1" d="M691.11,179.98c-1.58-3.51-2.47-7.4-2.47-11.5v28s0,0,0,0c0-5.74,.87-11.28,2.47-16.49Z"/><path class="cls-1" d="M691.11,156.98c-1.61-5.22-2.47-10.76-2.47-16.5v28h0c0-4.1,.89-7.99,2.47-11.5Z"/><path class="cls-1" d="M696.13,168.48s0,0,0,0h-7.49s0,0,0,0c0,4.1,.89,7.99,2.47,11.5,1.25-4.05,2.94-7.9,5.02-11.5Z"/><path class="cls-1" d="M688.64,168.48h7.49c-2.08-3.6-3.78-7.45-5.02-11.5-1.58,3.51-2.47,7.4-2.47,11.5Z"/><path class="cls-1" d="M688.64,196.48c0-5.1,1.39-9.87,3.77-13.99-.47-.81-.91-1.64-1.3-2.51-1.61,5.21-2.47,10.75-2.47,16.49Z"/><path class="cls-1" d="M699.87,174.1c-1.35-1.79-2.61-3.66-3.74-5.61-2.08,3.6-3.78,7.45-5.02,11.5,.39,.86,.83,1.69,1.3,2.51,1.9-3.28,4.44-6.13,7.46-8.39Z"/><path class="cls-1" d="M692.41,154.47c-2.39-4.12-3.77-8.89-3.77-13.99h0c0,5.75,.87,11.29,2.47,16.5,.39-.86,.83-1.69,1.3-2.51Z"/><path class="cls-1" d="M699.87,162.86c-3.02-2.26-5.56-5.11-7.46-8.39-.47,.81-.91,1.65-1.3,2.51,1.25,4.05,2.94,7.9,5.02,11.5h0c1.13-1.95,2.39-3.82,3.74-5.62Z"/><path class="cls-1" d="M699.87,162.86c-1.35,1.79-2.61,3.66-3.74,5.62h20.47s.01,0,.02,0c-6.29,0-12.08-2.11-16.75-5.62Z"/><path class="cls-1" d="M716.61,168.48h-20.47s0,0,0,0c1.13,1.95,2.39,3.82,3.74,5.61,4.67-3.5,10.45-5.61,16.74-5.62Z"/><path class="cls-1" d="M688.64,140.48h.03s-.02,0-.03,0h0s0,0,0,0h0Z"/><path class="cls-1" d="M688.67,140.48h-.03s.08,0,.13,0c-.03,0-.06,0-.09,0Z"/><path class="cls-1" d="M702.64,144.25c-4.09-2.37-8.81-3.74-13.87-3.77-.04,0-.08,0-.13,0h0c0,5.1,1.39,9.87,3.77,13.99,2.46-4.24,5.99-7.77,10.22-10.22Z"/><path class="cls-1" d="M699.87,162.86c3.18-4.22,6.93-7.98,11.16-11.16-2.26-3.02-5.11-5.56-8.39-7.46-4.24,2.46-7.77,5.99-10.22,10.22,1.9,3.28,4.44,6.13,7.46,8.39Z"/><path class="cls-1" d="M716.64,168.48s0-.01,0-.02c0,0,0-.01,0-.02v.04h0Z"/><path class="cls-1" d="M716.64,168.48h0v-.04c0-6.28-2.11-12.06-5.61-16.73-4.22,3.18-7.98,6.93-11.16,11.16,4.67,3.51,10.46,5.61,16.75,5.62,0,0,.01,0,.02,0Z"/><path class="cls-1" d="M716.65,168.48s0-.01,0-.02c0,0,0,.01,0,.02,0,0,0,0,0,0Z"/><path class="cls-1" d="M688.64,196.48h0s0,0,0,0c0,0,.02,0,.03,0,0,0-.02,0-.03,0h0Z"/><polygon class="cls-1" points="688.64 196.48 688.64 196.48 688.64 196.48 688.64 196.48"/><path class="cls-1" d="M692.41,182.49c-2.38,4.12-3.77,8.89-3.77,13.99,0,0,0,0,0,0,0,0,.02,0,.03,0,5.09,0,9.85-1.39,13.97-3.77-4.24-2.46-7.77-5.98-10.23-10.22Z"/><path class="cls-1" d="M711.03,185.25c-4.22-3.18-7.98-6.93-11.16-11.16-3.02,2.26-5.56,5.11-7.46,8.39,2.46,4.24,5.99,7.77,10.23,10.22,3.28-1.9,6.13-4.44,8.39-7.46Z"/><path class="cls-1" d="M716.64,168.52s0-.01,0-.02,0-.01,0-.02v.04Z"/><path class="cls-1" d="M716.63,168.48s-.01,0-.02,0h.04s-.01,0-.02,0Z"/><path class="cls-1" d="M716.64,168.48h-.04c-6.29,0-12.07,2.11-16.74,5.62,3.18,4.22,6.93,7.98,11.16,11.16,3.5-4.67,5.61-10.45,5.61-16.73v-.04h0Z"/><path class="cls-1" d="M716.65,168.5s0-.01,0-.02h0s0,.01,0,.02Z"/><path class="cls-1" d="M716.64,168.48h0s-.01,0-.02,0c0,0,.01,0,.02,0h0Z"/></g><g><path class="cls-1" d="M744.65,224.44v-22.73c-.37,3.99-1.16,7.86-2.33,11.56,1.49,3.42,2.33,7.2,2.33,11.17Z"/><path class="cls-1" d="M744.65,252.44s0,0,0,0v-28c0,4.1-.89,7.99-2.47,11.5,1.61,5.22,2.47,10.75,2.47,16.5Z"/><path class="cls-1" d="M737.39,224.44h7.25c0-3.97-.83-7.75-2.33-11.17-1.24,3.93-2.9,7.67-4.93,11.17Z"/><path class="cls-1" d="M737.28,224.66c2.03,3.54,3.68,7.32,4.9,11.29,1.58-3.51,2.47-7.4,2.47-11.5h0s-7.25,0-7.25,0c-.04,.07-.08,.14-.12,.21Z"/><path class="cls-1" d="M744.65,252.44c0-5.74-.87-11.28-2.47-16.5-.39,.86-.83,1.69-1.3,2.51,2.38,4.12,3.77,8.89,3.77,13.99Z"/><path class="cls-1" d="M740.88,238.45c.47-.81,.91-1.64,1.3-2.51-1.22-3.97-2.87-7.75-4.9-11.29-1.12,1.92-2.37,3.75-3.7,5.52,2.95,2.25,5.44,5.05,7.3,8.28Z"/><path class="cls-1" d="M740.87,210.44c.53,.91,1.03,1.85,1.45,2.83,1.16-3.7,1.95-7.57,2.33-11.56v-5.27h0c0,5.11-1.39,9.88-3.78,14Z"/><path class="cls-1" d="M737.28,224.66c.04-.07,.08-.14,.12-.21h-.25c.04,.07,.09,.14,.13,.21Z"/><path class="cls-1" d="M733.41,218.83c1.35,1.79,2.6,3.66,3.73,5.61h.25c2.03-3.5,3.69-7.24,4.93-11.17-.43-.98-.92-1.91-1.45-2.83-1.9,3.28-4.44,6.13-7.46,8.39Z"/><path class="cls-1" d="M716.68,224.44c6.36,0,12.2,2.16,16.9,5.73,1.33-1.76,2.58-3.6,3.7-5.52-.04-.07-.09-.14-.13-.21h-20.46Z"/><path class="cls-1" d="M716.68,224.44h20.46c-1.13-1.95-2.39-3.82-3.73-5.61-4.67,3.51-10.46,5.61-16.75,5.61,0,0,.01,0,.02,0Z"/><path class="cls-1" d="M744.53,196.45s.06,0,.09,0h-27.97c4.1,0,7.99,.89,11.5,2.47,5.18-1.6,10.68-2.46,16.38-2.47Z"/><path class="cls-1" d="M705.14,198.91c3.51-1.58,7.4-2.47,11.5-2.47h-27.97s.06,0,.09,0c5.7,.01,11.2,.87,16.38,2.47Z"/><path class="cls-1" d="M728.15,198.91c-3.51-1.58-7.4-2.47-11.5-2.47v7.49c3.6-2.08,7.45-3.78,11.5-5.02Z"/><path class="cls-1" d="M716.64,203.94v-7.49h0c-4.1,0-7.99,.89-11.5,2.47,4.05,1.25,7.9,2.94,11.5,5.02Z"/><path class="cls-1" d="M688.77,196.45c5.06,.02,9.78,1.4,13.87,3.77,.81-.47,1.64-.91,2.5-1.3-5.18-1.59-10.68-2.46-16.38-2.47Z"/><path class="cls-1" d="M711.03,207.67c1.79-1.35,3.66-2.61,5.61-3.74-3.6-2.08-7.45-3.78-11.5-5.02-.86,.39-1.69,.83-2.5,1.3,3.28,1.9,6.13,4.44,8.39,7.46Z"/><path class="cls-1" d="M730.65,200.21c4.09-2.37,8.82-3.75,13.88-3.77-5.7,.01-11.2,.87-16.38,2.47,.86,.39,1.69,.83,2.51,1.3Z"/><path class="cls-1" d="M730.65,200.21c-.81-.47-1.65-.91-2.51-1.3-4.05,1.25-7.9,2.94-11.5,5.02,1.95,1.13,3.82,2.39,5.62,3.74,2.26-3.02,5.11-5.56,8.39-7.46Z"/><path class="cls-1" d="M716.65,224.42c0-6.29,2.11-12.08,5.61-16.75-1.79-1.35-3.66-2.61-5.62-3.74v20.47s0,.01,0,.02Z"/><path class="cls-1" d="M716.64,224.4v-20.47c-1.95,1.13-3.82,2.39-5.61,3.74,3.5,4.67,5.61,10.45,5.61,16.73Z"/><path class="cls-1" d="M744.65,196.44s0,0,0,0c-.01,0-.02,0-.03,0h.03Z"/><path class="cls-1" d="M744.53,196.45s.08,0,.12,0h-.03s-.06,0-.09,0Z"/><path class="cls-1" d="M740.87,210.44c2.39-4.12,3.78-8.89,3.78-14-.04,0-.08,0-.12,0-5.06,.02-9.79,1.4-13.88,3.77,4.24,2.46,7.76,5.99,10.22,10.23Z"/><path class="cls-1" d="M730.65,200.21c-3.28,1.9-6.13,4.44-8.39,7.46,4.22,3.18,7.98,6.93,11.15,11.16,3.02-2.26,5.56-5.11,7.46-8.39-2.46-4.24-5.98-7.78-10.22-10.23Z"/><path class="cls-1" d="M716.65,224.44s.01,0,.02,0c6.29,0,12.08-2.11,16.75-5.61-3.18-4.22-6.93-7.98-11.15-11.16-3.51,4.67-5.61,10.46-5.61,16.75,0,0,0,.01,0,.02Z"/><path class="cls-1" d="M728.15,249.98c-3.51,1.58-7.4,2.47-11.5,2.47h28c-5.74,0-11.29-.87-16.5-2.47Z"/><path class="cls-1" d="M688.89,252.45h27.76c-4.06,0-7.92-.87-11.4-2.43-5.17,1.58-10.66,2.43-16.35,2.43Z"/><path class="cls-1" d="M688.67,252.45s-.02,0-.03,0c0,0,0,0,0,0h0s0,0,0,0h.25c-.07,0-.15,0-.22,0Z"/><path class="cls-1" d="M716.64,245.09v7.35c4.1,0,7.99-.89,11.5-2.47-4-1.23-7.81-2.9-11.38-4.95-.04,.02-.08,.04-.12,.07Z"/><path class="cls-1" d="M705.24,250.02c3.48,1.56,7.34,2.43,11.4,2.43h0v-7.35c-3.57,2.04-7.39,3.7-11.4,4.93Z"/><path class="cls-1" d="M728.15,249.98c5.22,1.61,10.76,2.47,16.5,2.47,0,0,0,0,0,0-5.1,0-9.87-1.39-13.99-3.77-.81,.47-1.65,.91-2.51,1.3Z"/><path class="cls-1" d="M722.35,241.34c-1.79,1.33-3.64,2.58-5.58,3.69,3.56,2.05,7.38,3.72,11.38,4.95,.86-.39,1.7-.83,2.51-1.3-3.24-1.87-6.05-4.37-8.3-7.34Z"/><path class="cls-1" d="M702.64,248.67c-4.11,2.38-8.87,3.77-13.97,3.77,.07,0,.15,0,.22,0h0c5.69,0,11.18-.85,16.35-2.43-.9-.4-1.76-.86-2.6-1.35Z"/><path class="cls-1" d="M716.64,245.09s.08-.04,.12-.07c-.04-.02-.08-.05-.12-.08v.14Z"/><path class="cls-1" d="M711.03,241.22c-2.26,3.02-5.11,5.56-8.39,7.46,.84,.49,1.71,.95,2.6,1.35,4.01-1.22,7.83-2.88,11.4-4.93v-.14c-1.95-1.13-3.82-2.39-5.61-3.74Z"/><path class="cls-1" d="M716.64,224.48v20.47s.08,.05,.12,.08c1.94-1.12,3.8-2.36,5.58-3.69-3.56-4.69-5.7-10.53-5.71-16.87,0,0,0,.01,0,.02Z"/><path class="cls-1" d="M716.64,244.95v-20.47c0,6.28-2.11,12.06-5.61,16.73,1.79,1.35,3.66,2.61,5.61,3.74Z"/><path class="cls-1" d="M740.88,238.45c-2.45,4.24-5.98,7.77-10.22,10.22,4.12,2.38,8.89,3.77,13.99,3.77,0,0,0,0,0,0,0,0,0,0,0,0,0-5.1-1.39-9.87-3.77-13.99Z"/><path class="cls-1" d="M733.58,230.18c-3.2,4.23-6.98,7.99-11.22,11.16,2.25,2.96,5.07,5.47,8.3,7.34,4.24-2.46,7.77-5.99,10.22-10.22-1.87-3.22-4.35-6.03-7.3-8.28Z"/><path class="cls-1" d="M733.58,230.18c-4.7-3.58-10.54-5.73-16.9-5.73h-.03s0,.01,0,.02c0,6.35,2.14,12.18,5.71,16.87,4.25-3.17,8.03-6.93,11.22-11.16Z"/><path class="cls-1" d="M716.65,224.44h.03s-.01,0-.02,0c0,0-.01,0-.02,0Z"/><path class="cls-1" d="M716.66,224.44s-.01,0-.02,0c0,0,0,0,0,0,0,0,.01,0,.02,0Z"/><path class="cls-1" d="M691.11,235.95c-1.58-3.51-2.47-7.4-2.47-11.5v28s0,0,0,0c0-5.74,.87-11.28,2.47-16.49Z"/><path class="cls-1" d="M691.11,212.94c-1.61-5.22-2.47-10.76-2.47-16.5v28h0c0-4.1,.89-7.99,2.47-11.5Z"/><path class="cls-1" d="M696.13,224.45s0,0,0,0h-7.49s0,0,0,0c0,4.1,.89,7.99,2.47,11.5,1.25-4.05,2.94-7.9,5.02-11.5Z"/><path class="cls-1" d="M688.64,224.44h7.49c-2.08-3.6-3.78-7.45-5.02-11.5-1.58,3.51-2.47,7.4-2.47,11.5Z"/><path class="cls-1" d="M688.64,252.44c0-5.1,1.39-9.87,3.77-13.99-.47-.81-.91-1.64-1.3-2.51-1.61,5.21-2.47,10.75-2.47,16.49Z"/><path class="cls-1" d="M699.87,230.06c-1.35-1.79-2.61-3.66-3.74-5.61-2.08,3.6-3.78,7.45-5.02,11.5,.39,.86,.83,1.69,1.3,2.51,1.9-3.28,4.44-6.13,7.46-8.39Z"/><path class="cls-1" d="M692.41,210.44c-2.39-4.12-3.77-8.89-3.77-13.99h0c0,5.75,.87,11.29,2.47,16.5,.39-.86,.83-1.69,1.3-2.51Z"/><path class="cls-1" d="M699.87,218.83c-3.02-2.26-5.56-5.11-7.46-8.39-.47,.81-.91,1.65-1.3,2.51,1.25,4.05,2.94,7.9,5.02,11.5h0c1.13-1.95,2.39-3.82,3.74-5.62Z"/><path class="cls-1" d="M699.87,218.83c-1.35,1.79-2.61,3.66-3.74,5.62h20.47s.01,0,.02,0c-6.29,0-12.08-2.11-16.75-5.62Z"/><path class="cls-1" d="M716.61,224.44h-20.47s0,0,0,0c1.13,1.95,2.39,3.82,3.74,5.61,4.67-3.5,10.45-5.61,16.74-5.62Z"/><path class="cls-1" d="M688.64,196.44h.03s-.02,0-.03,0h0s0,0,0,0h0Z"/><path class="cls-1" d="M688.67,196.44h-.03s.08,0,.13,0c-.03,0-.06,0-.09,0Z"/><path class="cls-1" d="M702.64,200.21c-4.09-2.37-8.81-3.74-13.87-3.77-.04,0-.08,0-.13,0h0c0,5.1,1.39,9.87,3.77,13.99,2.46-4.24,5.99-7.77,10.22-10.22Z"/><path class="cls-1" d="M699.87,218.83c3.18-4.22,6.93-7.98,11.16-11.16-2.26-3.02-5.11-5.56-8.39-7.46-4.24,2.46-7.77,5.99-10.22,10.22,1.9,3.28,4.44,6.13,7.46,8.39Z"/><path class="cls-1" d="M716.64,224.44s0-.01,0-.02c0,0,0-.01,0-.02v.04h0Z"/><path class="cls-1" d="M716.64,224.44h0v-.04c0-6.28-2.11-12.06-5.61-16.73-4.22,3.18-7.98,6.93-11.16,11.16,4.67,3.51,10.46,5.61,16.75,5.62,0,0,.01,0,.02,0Z"/><path class="cls-1" d="M716.65,224.44s0-.01,0-.02c0,0,0,.01,0,.02,0,0,0,0,0,0Z"/><path class="cls-1" d="M688.64,252.45h0s0,0,0,0c0,0,.02,0,.03,0,0,0-.02,0-.03,0h0Z"/><polygon class="cls-1" points="688.64 252.44 688.64 252.45 688.64 252.44 688.64 252.44"/><path class="cls-1" d="M692.41,238.45c-2.38,4.12-3.77,8.89-3.77,13.99,0,0,0,0,0,0,0,0,.02,0,.03,0,5.09,0,9.85-1.39,13.97-3.77-4.24-2.46-7.77-5.98-10.23-10.22Z"/><path class="cls-1" d="M711.03,241.22c-4.22-3.18-7.98-6.93-11.16-11.16-3.02,2.26-5.56,5.11-7.46,8.39,2.46,4.24,5.99,7.77,10.23,10.22,3.28-1.9,6.13-4.44,8.39-7.46Z"/><path class="cls-1" d="M716.64,224.48s0-.01,0-.02,0-.01,0-.02v.04Z"/><path class="cls-1" d="M716.63,224.44s-.01,0-.02,0h.04s-.01,0-.02,0Z"/><path class="cls-1" d="M716.64,224.44h-.04c-6.29,0-12.07,2.11-16.74,5.62,3.18,4.22,6.93,7.98,11.16,11.16,3.5-4.67,5.61-10.45,5.61-16.73v-.04h0Z"/><path class="cls-1" d="M716.65,224.46s0-.01,0-.02h0s0,.01,0,.02Z"/><path class="cls-1" d="M716.64,224.44h0s-.01,0-.02,0c0,0,.01,0,.02,0h0Z"/></g><g><path class="cls-1" d="M800.65,56.55v-22.73c-.37,3.99-1.16,7.86-2.33,11.56,1.49,3.42,2.33,7.2,2.33,11.17Z"/><path class="cls-1" d="M800.65,84.55s0,0,0,0v-28c0,4.1-.89,7.99-2.47,11.5,1.61,5.22,2.47,10.75,2.47,16.5Z"/><path class="cls-1" d="M793.39,56.55h7.25c0-3.97-.83-7.75-2.33-11.17-1.24,3.93-2.9,7.67-4.93,11.17Z"/><path class="cls-1" d="M793.28,56.77c2.03,3.54,3.68,7.32,4.9,11.29,1.58-3.51,2.47-7.4,2.47-11.5h0s-7.25,0-7.25,0c-.04,.07-.08,.14-.12,.21Z"/><path class="cls-1" d="M800.65,84.55c0-5.74-.87-11.28-2.47-16.5-.39,.86-.83,1.69-1.3,2.51,2.38,4.12,3.77,8.89,3.77,13.99Z"/><path class="cls-1" d="M796.88,70.56c.47-.81,.91-1.64,1.3-2.51-1.22-3.97-2.87-7.75-4.9-11.29-1.12,1.92-2.37,3.75-3.7,5.52,2.95,2.25,5.44,5.05,7.3,8.28Z"/><path class="cls-1" d="M796.87,42.55c.53,.91,1.03,1.85,1.45,2.83,1.16-3.7,1.95-7.57,2.33-11.56v-5.27h0c0,5.11-1.39,9.88-3.78,14Z"/><path class="cls-1" d="M793.28,56.77c.04-.07,.08-.14,.12-.21h-.25c.04,.07,.09,.14,.13,.21Z"/><path class="cls-1" d="M789.41,50.94c1.35,1.79,2.6,3.66,3.73,5.61h.25c2.03-3.5,3.69-7.24,4.93-11.17-.43-.98-.92-1.91-1.45-2.83-1.9,3.28-4.44,6.13-7.46,8.39Z"/><path class="cls-1" d="M772.68,56.55c6.36,0,12.2,2.16,16.9,5.73,1.33-1.76,2.58-3.6,3.7-5.52-.04-.07-.09-.14-.13-.21h-20.46Z"/><path class="cls-1" d="M772.68,56.55h20.46c-1.13-1.95-2.39-3.82-3.73-5.61-4.67,3.51-10.46,5.61-16.75,5.61,0,0,.01,0,.02,0Z"/><path class="cls-1" d="M800.53,28.56s.06,0,.09,0h-27.97c4.1,0,7.99,.89,11.5,2.47,5.18-1.6,10.68-2.46,16.38-2.47Z"/><path class="cls-1" d="M761.14,31.02c3.51-1.58,7.4-2.47,11.5-2.47h-27.97s.06,0,.09,0c5.7,.01,11.2,.87,16.38,2.47Z"/><path class="cls-1" d="M784.15,31.02c-3.51-1.58-7.4-2.47-11.5-2.47v7.49c3.6-2.08,7.45-3.78,11.5-5.02Z"/><path class="cls-1" d="M772.64,36.05v-7.49h0c-4.1,0-7.99,.89-11.5,2.47,4.05,1.25,7.9,2.94,11.5,5.02Z"/><path class="cls-1" d="M744.77,28.56c5.06,.02,9.78,1.4,13.87,3.77,.81-.47,1.64-.91,2.5-1.3-5.18-1.59-10.68-2.46-16.38-2.47Z"/><path class="cls-1" d="M767.03,39.78c1.79-1.35,3.66-2.61,5.61-3.74-3.6-2.08-7.45-3.78-11.5-5.02-.86,.39-1.69,.83-2.5,1.3,3.28,1.9,6.13,4.44,8.39,7.46Z"/><path class="cls-1" d="M786.65,32.32c4.09-2.37,8.82-3.75,13.88-3.77-5.7,.01-11.2,.87-16.38,2.47,.86,.39,1.69,.83,2.51,1.3Z"/><path class="cls-1" d="M786.65,32.32c-.81-.47-1.65-.91-2.51-1.3-4.05,1.25-7.9,2.94-11.5,5.02,1.95,1.13,3.82,2.39,5.62,3.74,2.26-3.02,5.11-5.56,8.39-7.46Z"/><path class="cls-1" d="M772.64,56.53c0-6.29,2.11-12.08,5.61-16.75-1.79-1.35-3.66-2.61-5.62-3.74v20.47s0,.01,0,.02Z"/><path class="cls-1" d="M772.64,56.51v-20.47c-1.95,1.13-3.82,2.39-5.61,3.74,3.5,4.67,5.61,10.45,5.61,16.73Z"/><path class="cls-1" d="M800.65,28.55s0,0,0,0c-.01,0-.02,0-.03,0h.03Z"/><path class="cls-1" d="M800.53,28.56s.08,0,.12,0h-.03s-.06,0-.09,0Z"/><path class="cls-1" d="M796.87,42.55c2.39-4.12,3.78-8.89,3.78-14-.04,0-.08,0-.12,0-5.06,.02-9.79,1.4-13.88,3.77,4.24,2.46,7.76,5.99,10.22,10.23Z"/><path class="cls-1" d="M786.65,32.32c-3.28,1.9-6.13,4.44-8.39,7.46,4.22,3.18,7.98,6.93,11.15,11.16,3.02-2.26,5.56-5.11,7.46-8.39-2.46-4.24-5.98-7.78-10.22-10.23Z"/><path class="cls-1" d="M772.65,56.55s.01,0,.02,0c6.29,0,12.08-2.11,16.75-5.61-3.18-4.22-6.93-7.98-11.15-11.16-3.51,4.67-5.61,10.46-5.61,16.75,0,0,0,.01,0,.02Z"/><path class="cls-1" d="M784.15,82.09c-3.51,1.58-7.4,2.47-11.5,2.47h28c-5.74,0-11.29-.87-16.5-2.47Z"/><path class="cls-1" d="M744.89,84.56h27.76c-4.06,0-7.92-.87-11.4-2.43-5.17,1.58-10.66,2.43-16.35,2.43Z"/><path class="cls-1" d="M744.67,84.56s-.02,0-.03,0c0,0,0,0,0,0h0s0,0,0,0h.25c-.07,0-.15,0-.22,0Z"/><path class="cls-1" d="M772.64,77.21v7.35c4.1,0,7.99-.89,11.5-2.47-4-1.23-7.81-2.9-11.38-4.95-.04,.02-.08,.04-.12,.07Z"/><path class="cls-1" d="M761.24,82.13c3.48,1.56,7.34,2.43,11.4,2.43h0v-7.35c-3.57,2.04-7.39,3.7-11.4,4.93Z"/><path class="cls-1" d="M784.15,82.09c5.22,1.61,10.76,2.47,16.5,2.47,0,0,0,0,0,0-5.1,0-9.87-1.39-13.99-3.77-.81,.47-1.65,.91-2.51,1.3Z"/><path class="cls-1" d="M778.35,73.45c-1.79,1.33-3.64,2.58-5.58,3.69,3.56,2.05,7.38,3.72,11.38,4.95,.86-.39,1.7-.83,2.51-1.3-3.24-1.87-6.05-4.37-8.3-7.34Z"/><path class="cls-1" d="M758.64,80.79c-4.11,2.38-8.87,3.77-13.97,3.77,.07,0,.15,0,.22,0h0c5.69,0,11.18-.85,16.35-2.43-.9-.4-1.76-.86-2.6-1.35Z"/><path class="cls-1" d="M772.64,77.21s.08-.04,.12-.07c-.04-.02-.08-.05-.12-.08v.14Z"/><path class="cls-1" d="M767.03,73.33c-2.26,3.02-5.11,5.56-8.39,7.46,.84,.49,1.71,.95,2.6,1.35,4.01-1.22,7.83-2.88,11.4-4.93v-.14c-1.95-1.13-3.82-2.39-5.61-3.74Z"/><path class="cls-1" d="M772.64,56.6v20.47s.08,.05,.12,.08c1.94-1.12,3.8-2.36,5.58-3.69-3.56-4.69-5.7-10.53-5.71-16.87,0,0,0,.01,0,.02Z"/><path class="cls-1" d="M772.64,77.06v-20.47c0,6.28-2.11,12.06-5.61,16.73,1.79,1.35,3.66,2.61,5.61,3.74Z"/><path class="cls-1" d="M796.88,70.56c-2.45,4.24-5.98,7.77-10.22,10.22,4.12,2.38,8.89,3.77,13.99,3.77,0,0,0,0,0,0,0,0,0,0,0,0,0-5.1-1.39-9.87-3.77-13.99Z"/><path class="cls-1" d="M789.57,62.29c-3.2,4.23-6.98,7.99-11.22,11.16,2.25,2.96,5.07,5.47,8.3,7.34,4.24-2.46,7.77-5.99,10.22-10.22-1.87-3.22-4.35-6.03-7.3-8.28Z"/><path class="cls-1" d="M789.57,62.29c-4.7-3.58-10.54-5.73-16.9-5.73h-.03s0,.01,0,.02c0,6.35,2.14,12.18,5.71,16.87,4.25-3.17,8.03-6.93,11.22-11.16Z"/><path class="cls-1" d="M772.65,56.55h.03s-.01,0-.02,0c0,0-.01,0-.02,0Z"/><path class="cls-1" d="M772.66,56.55s-.01,0-.02,0c0,0,0,0,0,0,0,0,.01,0,.02,0Z"/><path class="cls-1" d="M747.11,68.06c-1.58-3.51-2.47-7.4-2.47-11.5v28s0,0,0,0c0-5.74,.87-11.28,2.47-16.49Z"/><path class="cls-1" d="M747.11,45.05c-1.61-5.22-2.47-10.76-2.47-16.5v28h0c0-4.1,.89-7.99,2.47-11.5Z"/><path class="cls-1" d="M752.13,56.56s0,0,0,0h-7.49s0,0,0,0c0,4.1,.89,7.99,2.47,11.5,1.25-4.05,2.94-7.9,5.02-11.5Z"/><path class="cls-1" d="M744.64,56.55h7.49c-2.08-3.6-3.78-7.45-5.02-11.5-1.58,3.51-2.47,7.4-2.47,11.5Z"/><path class="cls-1" d="M744.64,84.55c0-5.1,1.39-9.87,3.77-13.99-.47-.81-.91-1.64-1.3-2.51-1.61,5.21-2.47,10.75-2.47,16.49Z"/><path class="cls-1" d="M755.87,62.17c-1.35-1.79-2.61-3.66-3.74-5.61-2.08,3.6-3.78,7.45-5.02,11.5,.39,.86,.83,1.69,1.3,2.51,1.9-3.28,4.44-6.13,7.46-8.39Z"/><path class="cls-1" d="M748.41,42.55c-2.39-4.12-3.77-8.89-3.77-13.99h0c0,5.75,.87,11.29,2.47,16.5,.39-.86,.83-1.69,1.3-2.51Z"/><path class="cls-1" d="M755.87,50.94c-3.02-2.26-5.56-5.11-7.46-8.39-.47,.81-.91,1.65-1.3,2.51,1.25,4.05,2.94,7.9,5.02,11.5h0c1.13-1.95,2.39-3.82,3.74-5.62Z"/><path class="cls-1" d="M755.87,50.94c-1.35,1.79-2.61,3.66-3.74,5.62h20.47s.01,0,.02,0c-6.29,0-12.08-2.11-16.75-5.62Z"/><path class="cls-1" d="M772.61,56.55h-20.47s0,0,0,0c1.13,1.95,2.39,3.82,3.74,5.61,4.67-3.5,10.45-5.61,16.74-5.62Z"/><path class="cls-1" d="M744.64,28.55h.03s-.02,0-.03,0h0s0,0,0,0h0Z"/><path class="cls-1" d="M744.67,28.55h-.03s.08,0,.13,0c-.03,0-.06,0-.09,0Z"/><path class="cls-1" d="M758.64,32.32c-4.09-2.37-8.81-3.74-13.87-3.77-.04,0-.08,0-.13,0h0c0,5.1,1.39,9.87,3.77,13.99,2.46-4.24,5.99-7.77,10.22-10.22Z"/><path class="cls-1" d="M755.87,50.94c3.18-4.22,6.93-7.98,11.16-11.16-2.26-3.02-5.11-5.56-8.39-7.46-4.24,2.46-7.77,5.99-10.22,10.22,1.9,3.28,4.44,6.13,7.46,8.39Z"/><path class="cls-1" d="M772.64,56.55s0-.01,0-.02c0,0,0-.01,0-.02v.04h0Z"/><path class="cls-1" d="M772.64,56.55h0v-.04c0-6.28-2.11-12.06-5.61-16.73-4.22,3.18-7.98,6.93-11.16,11.16,4.67,3.51,10.46,5.61,16.75,5.62,0,0,.01,0,.02,0Z"/><path class="cls-1" d="M772.65,56.55s0-.01,0-.02c0,0,0,.01,0,.02,0,0,0,0,0,0Z"/><path class="cls-1" d="M744.64,84.56h0s0,0,0,0c0,0,.02,0,.03,0,0,0-.02,0-.03,0h0Z"/><polygon class="cls-1" points="744.64 84.55 744.64 84.56 744.64 84.55 744.64 84.55"/><path class="cls-1" d="M748.41,70.56c-2.38,4.12-3.77,8.89-3.77,13.99,0,0,0,0,0,0,0,0,.02,0,.03,0,5.09,0,9.85-1.39,13.97-3.77-4.24-2.46-7.77-5.98-10.23-10.22Z"/><path class="cls-1" d="M767.03,73.33c-4.22-3.18-7.98-6.93-11.16-11.16-3.02,2.26-5.56,5.11-7.46,8.39,2.46,4.24,5.99,7.77,10.23,10.22,3.28-1.9,6.13-4.44,8.39-7.46Z"/><path class="cls-1" d="M772.64,56.6s0-.01,0-.02,0-.01,0-.02v.04Z"/><path class="cls-1" d="M772.63,56.55s-.01,0-.02,0h.04s-.01,0-.02,0Z"/><path class="cls-1" d="M772.64,56.55h-.04c-6.29,0-12.07,2.11-16.74,5.62,3.18,4.22,6.93,7.98,11.16,11.16,3.5-4.67,5.61-10.45,5.61-16.73v-.04h0Z"/><path class="cls-1" d="M772.64,56.58s0-.01,0-.02h0s0,.01,0,.02Z"/><path class="cls-1" d="M772.64,56.55h0s-.01,0-.02,0c0,0,.01,0,.02,0h0Z"/></g><g><path class="cls-1" d="M800.65,112.52v-22.73c-.37,3.99-1.16,7.86-2.33,11.56,1.49,3.42,2.33,7.2,2.33,11.17Z"/><path class="cls-1" d="M800.65,140.52s0,0,0,0v-28c0,4.1-.89,7.99-2.47,11.5,1.61,5.22,2.47,10.75,2.47,16.5Z"/><path class="cls-1" d="M793.39,112.52h7.25c0-3.97-.83-7.75-2.33-11.17-1.24,3.93-2.9,7.67-4.93,11.17Z"/><path class="cls-1" d="M793.28,112.73c2.03,3.54,3.68,7.32,4.9,11.29,1.58-3.51,2.47-7.4,2.47-11.5h0s-7.25,0-7.25,0c-.04,.07-.08,.14-.12,.21Z"/><path class="cls-1" d="M800.65,140.52c0-5.74-.87-11.28-2.47-16.5-.39,.86-.83,1.69-1.3,2.51,2.38,4.12,3.77,8.89,3.77,13.99Z"/><path class="cls-1" d="M796.88,126.53c.47-.81,.91-1.64,1.3-2.51-1.22-3.97-2.87-7.75-4.9-11.29-1.12,1.92-2.37,3.75-3.7,5.52,2.95,2.25,5.44,5.05,7.3,8.28Z"/><path class="cls-1" d="M796.87,98.52c.53,.91,1.03,1.85,1.45,2.83,1.16-3.7,1.95-7.57,2.33-11.56v-5.27h0c0,5.11-1.39,9.88-3.78,14Z"/><path class="cls-1" d="M793.28,112.73c.04-.07,.08-.14,.12-.21h-.25c.04,.07,.09,.14,.13,.21Z"/><path class="cls-1" d="M789.41,106.91c1.35,1.79,2.6,3.66,3.73,5.61h.25c2.03-3.5,3.69-7.24,4.93-11.17-.43-.98-.92-1.91-1.45-2.83-1.9,3.28-4.44,6.13-7.46,8.39Z"/><path class="cls-1" d="M772.68,112.52c6.36,0,12.2,2.16,16.9,5.73,1.33-1.76,2.58-3.6,3.7-5.52-.04-.07-.09-.14-.13-.21h-20.46Z"/><path class="cls-1" d="M772.68,112.52h20.46c-1.13-1.95-2.39-3.82-3.73-5.61-4.67,3.51-10.46,5.61-16.75,5.61,0,0,.01,0,.02,0Z"/><path class="cls-1" d="M800.53,84.52s.06,0,.09,0h-27.97c4.1,0,7.99,.89,11.5,2.47,5.18-1.6,10.68-2.46,16.38-2.47Z"/><path class="cls-1" d="M761.14,86.99c3.51-1.58,7.4-2.47,11.5-2.47h-27.97s.06,0,.09,0c5.7,.01,11.2,.87,16.38,2.47Z"/><path class="cls-1" d="M784.15,86.99c-3.51-1.58-7.4-2.47-11.5-2.47v7.49c3.6-2.08,7.45-3.78,11.5-5.02Z"/><path class="cls-1" d="M772.64,92.01v-7.49h0c-4.1,0-7.99,.89-11.5,2.47,4.05,1.25,7.9,2.94,11.5,5.02Z"/><path class="cls-1" d="M744.77,84.52c5.06,.02,9.78,1.4,13.87,3.77,.81-.47,1.64-.91,2.5-1.3-5.18-1.59-10.68-2.46-16.38-2.47Z"/><path class="cls-1" d="M767.03,95.75c1.79-1.35,3.66-2.61,5.61-3.74-3.6-2.08-7.45-3.78-11.5-5.02-.86,.39-1.69,.83-2.5,1.3,3.28,1.9,6.13,4.44,8.39,7.46Z"/><path class="cls-1" d="M786.65,88.29c4.09-2.37,8.82-3.75,13.88-3.77-5.7,.01-11.2,.87-16.38,2.47,.86,.39,1.69,.83,2.51,1.3Z"/><path class="cls-1" d="M786.65,88.29c-.81-.47-1.65-.91-2.51-1.3-4.05,1.25-7.9,2.94-11.5,5.02,1.95,1.13,3.82,2.39,5.62,3.74,2.26-3.02,5.11-5.56,8.39-7.46Z"/><path class="cls-1" d="M772.64,112.5c0-6.29,2.11-12.08,5.61-16.75-1.79-1.35-3.66-2.61-5.62-3.74v20.47s0,.01,0,.02Z"/><path class="cls-1" d="M772.64,112.48v-20.47c-1.95,1.13-3.82,2.39-5.61,3.74,3.5,4.67,5.61,10.45,5.61,16.73Z"/><path class="cls-1" d="M800.65,84.52s0,0,0,0c-.01,0-.02,0-.03,0h.03Z"/><path class="cls-1" d="M800.53,84.52s.08,0,.12,0h-.03s-.06,0-.09,0Z"/><path class="cls-1" d="M796.87,98.52c2.39-4.12,3.78-8.89,3.78-14-.04,0-.08,0-.12,0-5.06,.02-9.79,1.4-13.88,3.77,4.24,2.46,7.76,5.99,10.22,10.23Z"/><path class="cls-1" d="M786.65,88.29c-3.28,1.9-6.13,4.44-8.39,7.46,4.22,3.18,7.98,6.93,11.15,11.16,3.02-2.26,5.56-5.11,7.46-8.39-2.46-4.24-5.98-7.78-10.22-10.23Z"/><path class="cls-1" d="M772.65,112.52s.01,0,.02,0c6.29,0,12.08-2.11,16.75-5.61-3.18-4.22-6.93-7.98-11.15-11.16-3.51,4.67-5.61,10.46-5.61,16.75,0,0,0,.01,0,.02Z"/><path class="cls-1" d="M784.15,138.05c-3.51,1.58-7.4,2.47-11.5,2.47h28c-5.74,0-11.29-.87-16.5-2.47Z"/><path class="cls-1" d="M744.89,140.52h27.76c-4.06,0-7.92-.87-11.4-2.43-5.17,1.58-10.66,2.43-16.35,2.43Z"/><path class="cls-1" d="M744.67,140.52s-.02,0-.03,0c0,0,0,0,0,0h0s0,0,0,0h.25c-.07,0-.15,0-.22,0Z"/><path class="cls-1" d="M772.64,133.17v7.35c4.1,0,7.99-.89,11.5-2.47-4-1.23-7.81-2.9-11.38-4.95-.04,.02-.08,.04-.12,.07Z"/><path class="cls-1" d="M761.24,138.09c3.48,1.56,7.34,2.43,11.4,2.43h0v-7.35c-3.57,2.04-7.39,3.7-11.4,4.93Z"/><path class="cls-1" d="M784.15,138.05c5.22,1.61,10.76,2.47,16.5,2.47,0,0,0,0,0,0-5.1,0-9.87-1.39-13.99-3.77-.81,.47-1.65,.91-2.51,1.3Z"/><path class="cls-1" d="M778.35,129.41c-1.79,1.33-3.64,2.58-5.58,3.69,3.56,2.05,7.38,3.72,11.38,4.95,.86-.39,1.7-.83,2.51-1.3-3.24-1.87-6.05-4.37-8.3-7.34Z"/><path class="cls-1" d="M758.64,136.75c-4.11,2.38-8.87,3.77-13.97,3.77,.07,0,.15,0,.22,0h0c5.69,0,11.18-.85,16.35-2.43-.9-.4-1.76-.86-2.6-1.35Z"/><path class="cls-1" d="M772.64,133.17s.08-.04,.12-.07c-.04-.02-.08-.05-.12-.08v.14Z"/><path class="cls-1" d="M767.03,129.29c-2.26,3.02-5.11,5.56-8.39,7.46,.84,.49,1.71,.95,2.6,1.35,4.01-1.22,7.83-2.88,11.4-4.93v-.14c-1.95-1.13-3.82-2.39-5.61-3.74Z"/><path class="cls-1" d="M772.64,112.56v20.47s.08,.05,.12,.08c1.94-1.12,3.8-2.36,5.58-3.69-3.56-4.69-5.7-10.53-5.71-16.87,0,0,0,.01,0,.02Z"/><path class="cls-1" d="M772.64,133.02v-20.47c0,6.28-2.11,12.06-5.61,16.73,1.79,1.35,3.66,2.61,5.61,3.74Z"/><path class="cls-1" d="M796.88,126.53c-2.45,4.24-5.98,7.77-10.22,10.22,4.12,2.38,8.89,3.77,13.99,3.77,0,0,0,0,0,0,0,0,0,0,0,0,0-5.1-1.39-9.87-3.77-13.99Z"/><path class="cls-1" d="M789.57,118.25c-3.2,4.23-6.98,7.99-11.22,11.16,2.25,2.96,5.07,5.47,8.3,7.34,4.24-2.46,7.77-5.99,10.22-10.22-1.87-3.22-4.35-6.03-7.3-8.28Z"/><path class="cls-1" d="M789.57,118.25c-4.7-3.58-10.54-5.73-16.9-5.73h-.03s0,.01,0,.02c0,6.35,2.14,12.18,5.71,16.87,4.25-3.17,8.03-6.93,11.22-11.16Z"/><path class="cls-1" d="M772.65,112.52h.03s-.01,0-.02,0c0,0-.01,0-.02,0Z"/><path class="cls-1" d="M772.66,112.52s-.01,0-.02,0c0,0,0,0,0,0,0,0,.01,0,.02,0Z"/><path class="cls-1" d="M747.11,124.02c-1.58-3.51-2.47-7.4-2.47-11.5v28s0,0,0,0c0-5.74,.87-11.28,2.47-16.49Z"/><path class="cls-1" d="M747.11,101.02c-1.61-5.22-2.47-10.76-2.47-16.5v28h0c0-4.1,.89-7.99,2.47-11.5Z"/><path class="cls-1" d="M752.13,112.52s0,0,0,0h-7.49s0,0,0,0c0,4.1,.89,7.99,2.47,11.5,1.25-4.05,2.94-7.9,5.02-11.5Z"/><path class="cls-1" d="M744.64,112.52h7.49c-2.08-3.6-3.78-7.45-5.02-11.5-1.58,3.51-2.47,7.4-2.47,11.5Z"/><path class="cls-1" d="M744.64,140.51c0-5.1,1.39-9.87,3.77-13.99-.47-.81-.91-1.64-1.3-2.51-1.61,5.21-2.47,10.75-2.47,16.49Z"/><path class="cls-1" d="M755.87,118.13c-1.35-1.79-2.61-3.66-3.74-5.61-2.08,3.6-3.78,7.45-5.02,11.5,.39,.86,.83,1.69,1.3,2.51,1.9-3.28,4.44-6.13,7.46-8.39Z"/><path class="cls-1" d="M748.41,98.51c-2.39-4.12-3.77-8.89-3.77-13.99h0c0,5.75,.87,11.29,2.47,16.5,.39-.86,.83-1.69,1.3-2.51Z"/><path class="cls-1" d="M755.87,106.9c-3.02-2.26-5.56-5.11-7.46-8.39-.47,.81-.91,1.65-1.3,2.51,1.25,4.05,2.94,7.9,5.02,11.5h0c1.13-1.95,2.39-3.82,3.74-5.62Z"/><path class="cls-1" d="M755.87,106.9c-1.35,1.79-2.61,3.66-3.74,5.62h20.47s.01,0,.02,0c-6.29,0-12.08-2.11-16.75-5.62Z"/><path class="cls-1" d="M772.61,112.52h-20.47s0,0,0,0c1.13,1.95,2.39,3.82,3.74,5.61,4.67-3.5,10.45-5.61,16.74-5.62Z"/><path class="cls-1" d="M744.64,84.52h.03s-.02,0-.03,0h0s0,0,0,0h0Z"/><path class="cls-1" d="M744.67,84.52h-.03s.08,0,.13,0c-.03,0-.06,0-.09,0Z"/><path class="cls-1" d="M758.64,88.29c-4.09-2.37-8.81-3.74-13.87-3.77-.04,0-.08,0-.13,0h0c0,5.1,1.39,9.87,3.77,13.99,2.46-4.24,5.99-7.77,10.22-10.22Z"/><path class="cls-1" d="M755.87,106.9c3.18-4.22,6.93-7.98,11.16-11.16-2.26-3.02-5.11-5.56-8.39-7.46-4.24,2.46-7.77,5.99-10.22,10.22,1.9,3.28,4.44,6.13,7.46,8.39Z"/><path class="cls-1" d="M772.64,112.52s0-.01,0-.02c0,0,0-.01,0-.02v.04h0Z"/><path class="cls-1" d="M772.64,112.52h0v-.04c0-6.28-2.11-12.06-5.61-16.73-4.22,3.18-7.98,6.93-11.16,11.16,4.67,3.51,10.46,5.61,16.75,5.62,0,0,.01,0,.02,0Z"/><path class="cls-1" d="M772.65,112.52s0-.01,0-.02c0,0,0,.01,0,.02,0,0,0,0,0,0Z"/><path class="cls-1" d="M744.64,140.52h0s0,0,0,0c0,0,.02,0,.03,0,0,0-.02,0-.03,0h0Z"/><polygon class="cls-1" points="744.64 140.52 744.64 140.52 744.64 140.51 744.64 140.52"/><path class="cls-1" d="M748.41,126.53c-2.38,4.12-3.77,8.89-3.77,13.99,0,0,0,0,0,0,0,0,.02,0,.03,0,5.09,0,9.85-1.39,13.97-3.77-4.24-2.46-7.77-5.98-10.23-10.22Z"/><path class="cls-1" d="M767.03,129.29c-4.22-3.18-7.98-6.93-11.16-11.16-3.02,2.26-5.56,5.11-7.46,8.39,2.46,4.24,5.99,7.77,10.23,10.22,3.28-1.9,6.13-4.44,8.39-7.46Z"/><path class="cls-1" d="M772.64,112.56s0-.01,0-.02,0-.01,0-.02v.04Z"/><path class="cls-1" d="M772.63,112.52s-.01,0-.02,0h.04s-.01,0-.02,0Z"/><path class="cls-1" d="M772.64,112.52h-.04c-6.29,0-12.07,2.11-16.74,5.62,3.18,4.22,6.93,7.98,11.16,11.16,3.5-4.67,5.61-10.45,5.61-16.73v-.04h0Z"/><path class="cls-1" d="M772.64,112.54s0-.01,0-.02h0s0,.01,0,.02Z"/><path class="cls-1" d="M772.64,112.52h0s-.01,0-.02,0c0,0,.01,0,.02,0h0Z"/></g><g><path class="cls-1" d="M800.65,168.48v-22.73c-.37,3.99-1.16,7.86-2.33,11.56,1.49,3.42,2.33,7.2,2.33,11.17Z"/><path class="cls-1" d="M800.65,196.48s0,0,0,0v-28c0,4.1-.89,7.99-2.47,11.5,1.61,5.22,2.47,10.75,2.47,16.5Z"/><path class="cls-1" d="M793.39,168.48h7.25c0-3.97-.83-7.75-2.33-11.17-1.24,3.93-2.9,7.67-4.93,11.17Z"/><path class="cls-1" d="M793.28,168.69c2.03,3.54,3.68,7.32,4.9,11.29,1.58-3.51,2.47-7.4,2.47-11.5h0s-7.25,0-7.25,0c-.04,.07-.08,.14-.12,.21Z"/><path class="cls-1" d="M800.65,196.48c0-5.74-.87-11.28-2.47-16.5-.39,.86-.83,1.69-1.3,2.51,2.38,4.12,3.77,8.89,3.77,13.99Z"/><path class="cls-1" d="M796.88,182.49c.47-.81,.91-1.64,1.3-2.51-1.22-3.97-2.87-7.75-4.9-11.29-1.12,1.92-2.37,3.75-3.7,5.52,2.95,2.25,5.44,5.05,7.3,8.28Z"/><path class="cls-1" d="M796.87,154.48c.53,.91,1.03,1.85,1.45,2.83,1.16-3.7,1.95-7.57,2.33-11.56v-5.27h0c0,5.11-1.39,9.88-3.78,14Z"/><path class="cls-1" d="M793.28,168.69c.04-.07,.08-.14,.12-.21h-.25c.04,.07,.09,.14,.13,.21Z"/><path class="cls-1" d="M789.41,162.87c1.35,1.79,2.6,3.66,3.73,5.61h.25c2.03-3.5,3.69-7.24,4.93-11.17-.43-.98-.92-1.91-1.45-2.83-1.9,3.28-4.44,6.13-7.46,8.39Z"/><path class="cls-1" d="M772.68,168.48c6.36,0,12.2,2.16,16.9,5.73,1.33-1.76,2.58-3.6,3.7-5.52-.04-.07-.09-.14-.13-.21h-20.46Z"/><path class="cls-1" d="M772.68,168.48h20.46c-1.13-1.95-2.39-3.82-3.73-5.61-4.67,3.51-10.46,5.61-16.75,5.61,0,0,.01,0,.02,0Z"/><path class="cls-1" d="M800.53,140.48s.06,0,.09,0h-27.97c4.1,0,7.99,.89,11.5,2.47,5.18-1.6,10.68-2.46,16.38-2.47Z"/><path class="cls-1" d="M761.14,142.95c3.51-1.58,7.4-2.47,11.5-2.47h-27.97s.06,0,.09,0c5.7,.01,11.2,.87,16.38,2.47Z"/><path class="cls-1" d="M784.15,142.95c-3.51-1.58-7.4-2.47-11.5-2.47v7.49c3.6-2.08,7.45-3.78,11.5-5.02Z"/><path class="cls-1" d="M772.64,147.97v-7.49h0c-4.1,0-7.99,.89-11.5,2.47,4.05,1.25,7.9,2.94,11.5,5.02Z"/><path class="cls-1" d="M744.77,140.48c5.06,.02,9.78,1.4,13.87,3.77,.81-.47,1.64-.91,2.5-1.3-5.18-1.59-10.68-2.46-16.38-2.47Z"/><path class="cls-1" d="M767.03,151.71c1.79-1.35,3.66-2.61,5.61-3.74-3.6-2.08-7.45-3.78-11.5-5.02-.86,.39-1.69,.83-2.5,1.3,3.28,1.9,6.13,4.44,8.39,7.46Z"/><path class="cls-1" d="M786.65,144.25c4.09-2.37,8.82-3.75,13.88-3.77-5.7,.01-11.2,.87-16.38,2.47,.86,.39,1.69,.83,2.51,1.3Z"/><path class="cls-1" d="M786.65,144.25c-.81-.47-1.65-.91-2.51-1.3-4.05,1.25-7.9,2.94-11.5,5.02,1.95,1.13,3.82,2.39,5.62,3.74,2.26-3.02,5.11-5.56,8.39-7.46Z"/><path class="cls-1" d="M772.64,168.46c0-6.29,2.11-12.08,5.61-16.75-1.79-1.35-3.66-2.61-5.62-3.74v20.47s0,.01,0,.02Z"/><path class="cls-1" d="M772.64,168.44v-20.47c-1.95,1.13-3.82,2.39-5.61,3.74,3.5,4.67,5.61,10.45,5.61,16.73Z"/><path class="cls-1" d="M800.65,140.48s0,0,0,0c-.01,0-.02,0-.03,0h.03Z"/><path class="cls-1" d="M800.53,140.48s.08,0,.12,0h-.03s-.06,0-.09,0Z"/><path class="cls-1" d="M796.87,154.48c2.39-4.12,3.78-8.89,3.78-14-.04,0-.08,0-.12,0-5.06,.02-9.79,1.4-13.88,3.77,4.24,2.46,7.76,5.99,10.22,10.23Z"/><path class="cls-1" d="M786.65,144.25c-3.28,1.9-6.13,4.44-8.39,7.46,4.22,3.18,7.98,6.93,11.15,11.16,3.02-2.26,5.56-5.11,7.46-8.39-2.46-4.24-5.98-7.78-10.22-10.23Z"/><path class="cls-1" d="M772.65,168.48s.01,0,.02,0c6.29,0,12.08-2.11,16.75-5.61-3.18-4.22-6.93-7.98-11.15-11.16-3.51,4.67-5.61,10.46-5.61,16.75,0,0,0,.01,0,.02Z"/><path class="cls-1" d="M784.15,194.01c-3.51,1.58-7.4,2.47-11.5,2.47h28c-5.74,0-11.29-.87-16.5-2.47Z"/><path class="cls-1" d="M744.89,196.49h27.76c-4.06,0-7.92-.87-11.4-2.43-5.17,1.58-10.66,2.43-16.35,2.43Z"/><path class="cls-1" d="M744.67,196.48s-.02,0-.03,0c0,0,0,0,0,0h0s0,0,0,0h.25c-.07,0-.15,0-.22,0Z"/><path class="cls-1" d="M772.64,189.13v7.35c4.1,0,7.99-.89,11.5-2.47-4-1.23-7.81-2.9-11.38-4.95-.04,.02-.08,.04-.12,.07Z"/><path class="cls-1" d="M761.24,194.06c3.48,1.56,7.34,2.43,11.4,2.43h0v-7.35c-3.57,2.04-7.39,3.7-11.4,4.93Z"/><path class="cls-1" d="M784.15,194.01c5.22,1.61,10.76,2.47,16.5,2.47,0,0,0,0,0,0-5.1,0-9.87-1.39-13.99-3.77-.81,.47-1.65,.91-2.51,1.3Z"/><path class="cls-1" d="M778.35,185.37c-1.79,1.33-3.64,2.58-5.58,3.69,3.56,2.05,7.38,3.72,11.38,4.95,.86-.39,1.7-.83,2.51-1.3-3.24-1.87-6.05-4.37-8.3-7.34Z"/><path class="cls-1" d="M758.64,192.71c-4.11,2.38-8.87,3.77-13.97,3.77,.07,0,.15,0,.22,0h0c5.69,0,11.18-.85,16.35-2.43-.9-.4-1.76-.86-2.6-1.35Z"/><path class="cls-1" d="M772.64,189.13s.08-.04,.12-.07c-.04-.02-.08-.05-.12-.08v.14Z"/><path class="cls-1" d="M767.03,185.25c-2.26,3.02-5.11,5.56-8.39,7.46,.84,.49,1.71,.95,2.6,1.35,4.01-1.22,7.83-2.88,11.4-4.93v-.14c-1.95-1.13-3.82-2.39-5.61-3.74Z"/><path class="cls-1" d="M772.64,168.52v20.47s.08,.05,.12,.08c1.94-1.12,3.8-2.36,5.58-3.69-3.56-4.69-5.7-10.53-5.71-16.87,0,0,0,.01,0,.02Z"/><path class="cls-1" d="M772.64,188.99v-20.47c0,6.28-2.11,12.06-5.61,16.73,1.79,1.35,3.66,2.61,5.61,3.74Z"/><path class="cls-1" d="M796.88,182.49c-2.45,4.24-5.98,7.77-10.22,10.22,4.12,2.38,8.89,3.77,13.99,3.77,0,0,0,0,0,0,0,0,0,0,0,0,0-5.1-1.39-9.87-3.77-13.99Z"/><path class="cls-1" d="M789.57,174.21c-3.2,4.23-6.98,7.99-11.22,11.16,2.25,2.96,5.07,5.47,8.3,7.34,4.24-2.46,7.77-5.99,10.22-10.22-1.87-3.22-4.35-6.03-7.3-8.28Z"/><path class="cls-1" d="M789.57,174.21c-4.7-3.58-10.54-5.73-16.9-5.73h-.03s0,.01,0,.02c0,6.35,2.14,12.18,5.71,16.87,4.25-3.17,8.03-6.93,11.22-11.16Z"/><path class="cls-1" d="M772.65,168.48h.03s-.01,0-.02,0c0,0-.01,0-.02,0Z"/><path class="cls-1" d="M772.66,168.48s-.01,0-.02,0c0,0,0,0,0,0,0,0,.01,0,.02,0Z"/><path class="cls-1" d="M747.11,179.98c-1.58-3.51-2.47-7.4-2.47-11.5v28s0,0,0,0c0-5.74,.87-11.28,2.47-16.49Z"/><path class="cls-1" d="M747.11,156.98c-1.61-5.22-2.47-10.76-2.47-16.5v28h0c0-4.1,.89-7.99,2.47-11.5Z"/><path class="cls-1" d="M752.13,168.48s0,0,0,0h-7.49s0,0,0,0c0,4.1,.89,7.99,2.47,11.5,1.25-4.05,2.94-7.9,5.02-11.5Z"/><path class="cls-1" d="M744.64,168.48h7.49c-2.08-3.6-3.78-7.45-5.02-11.5-1.58,3.51-2.47,7.4-2.47,11.5Z"/><path class="cls-1" d="M744.64,196.48c0-5.1,1.39-9.87,3.77-13.99-.47-.81-.91-1.64-1.3-2.51-1.61,5.21-2.47,10.75-2.47,16.49Z"/><path class="cls-1" d="M755.87,174.1c-1.35-1.79-2.61-3.66-3.74-5.61-2.08,3.6-3.78,7.45-5.02,11.5,.39,.86,.83,1.69,1.3,2.51,1.9-3.28,4.44-6.13,7.46-8.39Z"/><path class="cls-1" d="M748.41,154.47c-2.39-4.12-3.77-8.89-3.77-13.99h0c0,5.75,.87,11.29,2.47,16.5,.39-.86,.83-1.69,1.3-2.51Z"/><path class="cls-1" d="M755.87,162.86c-3.02-2.26-5.56-5.11-7.46-8.39-.47,.81-.91,1.65-1.3,2.51,1.25,4.05,2.94,7.9,5.02,11.5h0c1.13-1.95,2.39-3.82,3.74-5.62Z"/><path class="cls-1" d="M755.87,162.86c-1.35,1.79-2.61,3.66-3.74,5.62h20.47s.01,0,.02,0c-6.29,0-12.08-2.11-16.75-5.62Z"/><path class="cls-1" d="M772.61,168.48h-20.47s0,0,0,0c1.13,1.95,2.39,3.82,3.74,5.61,4.67-3.5,10.45-5.61,16.74-5.62Z"/><path class="cls-1" d="M744.64,140.48h.03s-.02,0-.03,0h0s0,0,0,0h0Z"/><path class="cls-1" d="M744.67,140.48h-.03s.08,0,.13,0c-.03,0-.06,0-.09,0Z"/><path class="cls-1" d="M758.64,144.25c-4.09-2.37-8.81-3.74-13.87-3.77-.04,0-.08,0-.13,0h0c0,5.1,1.39,9.87,3.77,13.99,2.46-4.24,5.99-7.77,10.22-10.22Z"/><path class="cls-1" d="M755.87,162.86c3.18-4.22,6.93-7.98,11.16-11.16-2.26-3.02-5.11-5.56-8.39-7.46-4.24,2.46-7.77,5.99-10.22,10.22,1.9,3.28,4.44,6.13,7.46,8.39Z"/><path class="cls-1" d="M772.64,168.48s0-.01,0-.02c0,0,0-.01,0-.02v.04h0Z"/><path class="cls-1" d="M772.64,168.48h0v-.04c0-6.28-2.11-12.06-5.61-16.73-4.22,3.18-7.98,6.93-11.16,11.16,4.67,3.51,10.46,5.61,16.75,5.62,0,0,.01,0,.02,0Z"/><path class="cls-1" d="M772.65,168.48s0-.01,0-.02c0,0,0,.01,0,.02,0,0,0,0,0,0Z"/><path class="cls-1" d="M744.64,196.48h0s0,0,0,0c0,0,.02,0,.03,0,0,0-.02,0-.03,0h0Z"/><polygon class="cls-1" points="744.64 196.48 744.64 196.48 744.64 196.48 744.64 196.48"/><path class="cls-1" d="M748.41,182.49c-2.38,4.12-3.77,8.89-3.77,13.99,0,0,0,0,0,0,0,0,.02,0,.03,0,5.09,0,9.85-1.39,13.97-3.77-4.24-2.46-7.77-5.98-10.23-10.22Z"/><path class="cls-1" d="M767.03,185.25c-4.22-3.18-7.98-6.93-11.16-11.16-3.02,2.26-5.56,5.11-7.46,8.39,2.46,4.24,5.99,7.77,10.23,10.22,3.28-1.9,6.13-4.44,8.39-7.46Z"/><path class="cls-1" d="M772.64,168.52s0-.01,0-.02,0-.01,0-.02v.04Z"/><path class="cls-1" d="M772.63,168.48s-.01,0-.02,0h.04s-.01,0-.02,0Z"/><path class="cls-1" d="M772.64,168.48h-.04c-6.29,0-12.07,2.11-16.74,5.62,3.18,4.22,6.93,7.98,11.16,11.16,3.5-4.67,5.61-10.45,5.61-16.73v-.04h0Z"/><path class="cls-1" d="M772.64,168.5s0-.01,0-.02h0s0,.01,0,.02Z"/><path class="cls-1" d="M772.64,168.48h0s-.01,0-.02,0c0,0,.01,0,.02,0h0Z"/></g><g><path class="cls-1" d="M800.65,224.44v-22.73c-.37,3.99-1.16,7.86-2.33,11.56,1.49,3.42,2.33,7.2,2.33,11.17Z"/><path class="cls-1" d="M800.65,252.44s0,0,0,0v-28c0,4.1-.89,7.99-2.47,11.5,1.61,5.22,2.47,10.75,2.47,16.5Z"/><path class="cls-1" d="M793.39,224.44h7.25c0-3.97-.83-7.75-2.33-11.17-1.24,3.93-2.9,7.67-4.93,11.17Z"/><path class="cls-1" d="M793.28,224.66c2.03,3.54,3.68,7.32,4.9,11.29,1.58-3.51,2.47-7.4,2.47-11.5h0s-7.25,0-7.25,0c-.04,.07-.08,.14-.12,.21Z"/><path class="cls-1" d="M800.65,252.44c0-5.74-.87-11.28-2.47-16.5-.39,.86-.83,1.69-1.3,2.51,2.38,4.12,3.77,8.89,3.77,13.99Z"/><path class="cls-1" d="M796.88,238.45c.47-.81,.91-1.64,1.3-2.51-1.22-3.97-2.87-7.75-4.9-11.29-1.12,1.92-2.37,3.75-3.7,5.52,2.95,2.25,5.44,5.05,7.3,8.28Z"/><path class="cls-1" d="M796.87,210.44c.53,.91,1.03,1.85,1.45,2.83,1.16-3.7,1.95-7.57,2.33-11.56v-5.27h0c0,5.11-1.39,9.88-3.78,14Z"/><path class="cls-1" d="M793.28,224.66c.04-.07,.08-.14,.12-.21h-.25c.04,.07,.09,.14,.13,.21Z"/><path class="cls-1" d="M789.41,218.83c1.35,1.79,2.6,3.66,3.73,5.61h.25c2.03-3.5,3.69-7.24,4.93-11.17-.43-.98-.92-1.91-1.45-2.83-1.9,3.28-4.44,6.13-7.46,8.39Z"/><path class="cls-1" d="M772.68,224.44c6.36,0,12.2,2.16,16.9,5.73,1.33-1.76,2.58-3.6,3.7-5.52-.04-.07-.09-.14-.13-.21h-20.46Z"/><path class="cls-1" d="M772.68,224.44h20.46c-1.13-1.95-2.39-3.82-3.73-5.61-4.67,3.51-10.46,5.61-16.75,5.61,0,0,.01,0,.02,0Z"/><path class="cls-1" d="M800.53,196.45s.06,0,.09,0h-27.97c4.1,0,7.99,.89,11.5,2.47,5.18-1.6,10.68-2.46,16.38-2.47Z"/><path class="cls-1" d="M761.14,198.91c3.51-1.58,7.4-2.47,11.5-2.47h-27.97s.06,0,.09,0c5.7,.01,11.2,.87,16.38,2.47Z"/><path class="cls-1" d="M784.15,198.91c-3.51-1.58-7.4-2.47-11.5-2.47v7.49c3.6-2.08,7.45-3.78,11.5-5.02Z"/><path class="cls-1" d="M772.64,203.94v-7.49h0c-4.1,0-7.99,.89-11.5,2.47,4.05,1.25,7.9,2.94,11.5,5.02Z"/><path class="cls-1" d="M744.77,196.45c5.06,.02,9.78,1.4,13.87,3.77,.81-.47,1.64-.91,2.5-1.3-5.18-1.59-10.68-2.46-16.38-2.47Z"/><path class="cls-1" d="M767.03,207.67c1.79-1.35,3.66-2.61,5.61-3.74-3.6-2.08-7.45-3.78-11.5-5.02-.86,.39-1.69,.83-2.5,1.3,3.28,1.9,6.13,4.44,8.39,7.46Z"/><path class="cls-1" d="M786.65,200.21c4.09-2.37,8.82-3.75,13.88-3.77-5.7,.01-11.2,.87-16.38,2.47,.86,.39,1.69,.83,2.51,1.3Z"/><path class="cls-1" d="M786.65,200.21c-.81-.47-1.65-.91-2.51-1.3-4.05,1.25-7.9,2.94-11.5,5.02,1.95,1.13,3.82,2.39,5.62,3.74,2.26-3.02,5.11-5.56,8.39-7.46Z"/><path class="cls-1" d="M772.64,224.42c0-6.29,2.11-12.08,5.61-16.75-1.79-1.35-3.66-2.61-5.62-3.74v20.47s0,.01,0,.02Z"/><path class="cls-1" d="M772.64,224.4v-20.47c-1.95,1.13-3.82,2.39-5.61,3.74,3.5,4.67,5.61,10.45,5.61,16.73Z"/><path class="cls-1" d="M800.65,196.44s0,0,0,0c-.01,0-.02,0-.03,0h.03Z"/><path class="cls-1" d="M800.53,196.45s.08,0,.12,0h-.03s-.06,0-.09,0Z"/><path class="cls-1" d="M796.87,210.44c2.39-4.12,3.78-8.89,3.78-14-.04,0-.08,0-.12,0-5.06,.02-9.79,1.4-13.88,3.77,4.24,2.46,7.76,5.99,10.22,10.23Z"/><path class="cls-1" d="M786.65,200.21c-3.28,1.9-6.13,4.44-8.39,7.46,4.22,3.18,7.98,6.93,11.15,11.16,3.02-2.26,5.56-5.11,7.46-8.39-2.46-4.24-5.98-7.78-10.22-10.23Z"/><path class="cls-1" d="M772.65,224.44s.01,0,.02,0c6.29,0,12.08-2.11,16.75-5.61-3.18-4.22-6.93-7.98-11.15-11.16-3.51,4.67-5.61,10.46-5.61,16.75,0,0,0,.01,0,.02Z"/><path class="cls-1" d="M784.15,249.98c-3.51,1.58-7.4,2.47-11.5,2.47h28c-5.74,0-11.29-.87-16.5-2.47Z"/><path class="cls-1" d="M744.89,252.45h27.76c-4.06,0-7.92-.87-11.4-2.43-5.17,1.58-10.66,2.43-16.35,2.43Z"/><path class="cls-1" d="M744.67,252.45s-.02,0-.03,0c0,0,0,0,0,0h0s0,0,0,0h.25c-.07,0-.15,0-.22,0Z"/><path class="cls-1" d="M772.64,245.09v7.35c4.1,0,7.99-.89,11.5-2.47-4-1.23-7.81-2.9-11.38-4.95-.04,.02-.08,.04-.12,.07Z"/><path class="cls-1" d="M761.24,250.02c3.48,1.56,7.34,2.43,11.4,2.43h0v-7.35c-3.57,2.04-7.39,3.7-11.4,4.93Z"/><path class="cls-1" d="M784.15,249.98c5.22,1.61,10.76,2.47,16.5,2.47,0,0,0,0,0,0-5.1,0-9.87-1.39-13.99-3.77-.81,.47-1.65,.91-2.51,1.3Z"/><path class="cls-1" d="M778.35,241.34c-1.79,1.33-3.64,2.58-5.58,3.69,3.56,2.05,7.38,3.72,11.38,4.95,.86-.39,1.7-.83,2.51-1.3-3.24-1.87-6.05-4.37-8.3-7.34Z"/><path class="cls-1" d="M758.64,248.67c-4.11,2.38-8.87,3.77-13.97,3.77,.07,0,.15,0,.22,0h0c5.69,0,11.18-.85,16.35-2.43-.9-.4-1.76-.86-2.6-1.35Z"/><path class="cls-1" d="M772.64,245.09s.08-.04,.12-.07c-.04-.02-.08-.05-.12-.08v.14Z"/><path class="cls-1" d="M767.03,241.22c-2.26,3.02-5.11,5.56-8.39,7.46,.84,.49,1.71,.95,2.6,1.35,4.01-1.22,7.83-2.88,11.4-4.93v-.14c-1.95-1.13-3.82-2.39-5.61-3.74Z"/><path class="cls-1" d="M772.64,224.48v20.47s.08,.05,.12,.08c1.94-1.12,3.8-2.36,5.58-3.69-3.56-4.69-5.7-10.53-5.71-16.87,0,0,0,.01,0,.02Z"/><path class="cls-1" d="M772.64,244.95v-20.47c0,6.28-2.11,12.06-5.61,16.73,1.79,1.35,3.66,2.61,5.61,3.74Z"/><path class="cls-1" d="M796.88,238.45c-2.45,4.24-5.98,7.77-10.22,10.22,4.12,2.38,8.89,3.77,13.99,3.77,0,0,0,0,0,0,0,0,0,0,0,0,0-5.1-1.39-9.87-3.77-13.99Z"/><path class="cls-1" d="M789.57,230.18c-3.2,4.23-6.98,7.99-11.22,11.16,2.25,2.96,5.07,5.47,8.3,7.34,4.24-2.46,7.77-5.99,10.22-10.22-1.87-3.22-4.35-6.03-7.3-8.28Z"/><path class="cls-1" d="M789.57,230.18c-4.7-3.58-10.54-5.73-16.9-5.73h-.03s0,.01,0,.02c0,6.35,2.14,12.18,5.71,16.87,4.25-3.17,8.03-6.93,11.22-11.16Z"/><path class="cls-1" d="M772.65,224.44h.03s-.01,0-.02,0c0,0-.01,0-.02,0Z"/><path class="cls-1" d="M772.66,224.44s-.01,0-.02,0c0,0,0,0,0,0,0,0,.01,0,.02,0Z"/><path class="cls-1" d="M747.11,235.95c-1.58-3.51-2.47-7.4-2.47-11.5v28s0,0,0,0c0-5.74,.87-11.28,2.47-16.49Z"/><path class="cls-1" d="M747.11,212.94c-1.61-5.22-2.47-10.76-2.47-16.5v28h0c0-4.1,.89-7.99,2.47-11.5Z"/><path class="cls-1" d="M752.13,224.45s0,0,0,0h-7.49s0,0,0,0c0,4.1,.89,7.99,2.47,11.5,1.25-4.05,2.94-7.9,5.02-11.5Z"/><path class="cls-1" d="M744.64,224.44h7.49c-2.08-3.6-3.78-7.45-5.02-11.5-1.58,3.51-2.47,7.4-2.47,11.5Z"/><path class="cls-1" d="M744.64,252.44c0-5.1,1.39-9.87,3.77-13.99-.47-.81-.91-1.64-1.3-2.51-1.61,5.21-2.47,10.75-2.47,16.49Z"/><path class="cls-1" d="M755.87,230.06c-1.35-1.79-2.61-3.66-3.74-5.61-2.08,3.6-3.78,7.45-5.02,11.5,.39,.86,.83,1.69,1.3,2.51,1.9-3.28,4.44-6.13,7.46-8.39Z"/><path class="cls-1" d="M748.41,210.44c-2.39-4.12-3.77-8.89-3.77-13.99h0c0,5.75,.87,11.29,2.47,16.5,.39-.86,.83-1.69,1.3-2.51Z"/><path class="cls-1" d="M755.87,218.83c-3.02-2.26-5.56-5.11-7.46-8.39-.47,.81-.91,1.65-1.3,2.51,1.25,4.05,2.94,7.9,5.02,11.5h0c1.13-1.95,2.39-3.82,3.74-5.62Z"/><path class="cls-1" d="M755.87,218.83c-1.35,1.79-2.61,3.66-3.74,5.62h20.47s.01,0,.02,0c-6.29,0-12.08-2.11-16.75-5.62Z"/><path class="cls-1" d="M772.61,224.44h-20.47s0,0,0,0c1.13,1.95,2.39,3.82,3.74,5.61,4.67-3.5,10.45-5.61,16.74-5.62Z"/><path class="cls-1" d="M744.64,196.44h.03s-.02,0-.03,0h0s0,0,0,0h0Z"/><path class="cls-1" d="M744.67,196.44h-.03s.08,0,.13,0c-.03,0-.06,0-.09,0Z"/><path class="cls-1" d="M758.64,200.21c-4.09-2.37-8.81-3.74-13.87-3.77-.04,0-.08,0-.13,0h0c0,5.1,1.39,9.87,3.77,13.99,2.46-4.24,5.99-7.77,10.22-10.22Z"/><path class="cls-1" d="M755.87,218.83c3.18-4.22,6.93-7.98,11.16-11.16-2.26-3.02-5.11-5.56-8.39-7.46-4.24,2.46-7.77,5.99-10.22,10.22,1.9,3.28,4.44,6.13,7.46,8.39Z"/><path class="cls-1" d="M772.64,224.44s0-.01,0-.02c0,0,0-.01,0-.02v.04h0Z"/><path class="cls-1" d="M772.64,224.44h0v-.04c0-6.28-2.11-12.06-5.61-16.73-4.22,3.18-7.98,6.93-11.16,11.16,4.67,3.51,10.46,5.61,16.75,5.62,0,0,.01,0,.02,0Z"/><path class="cls-1" d="M772.65,224.44s0-.01,0-.02c0,0,0,.01,0,.02,0,0,0,0,0,0Z"/><path class="cls-1" d="M744.64,252.45h0s0,0,0,0c0,0,.02,0,.03,0,0,0-.02,0-.03,0h0Z"/><polygon class="cls-1" points="744.64 252.44 744.64 252.45 744.64 252.44 744.64 252.44"/><path class="cls-1" d="M748.41,238.45c-2.38,4.12-3.77,8.89-3.77,13.99,0,0,0,0,0,0,0,0,.02,0,.03,0,5.09,0,9.85-1.39,13.97-3.77-4.24-2.46-7.77-5.98-10.23-10.22Z"/><path class="cls-1" d="M767.03,241.22c-4.22-3.18-7.98-6.93-11.16-11.16-3.02,2.26-5.56,5.11-7.46,8.39,2.46,4.24,5.99,7.77,10.23,10.22,3.28-1.9,6.13-4.44,8.39-7.46Z"/><path class="cls-1" d="M772.64,224.48s0-.01,0-.02,0-.01,0-.02v.04Z"/><path class="cls-1" d="M772.63,224.44s-.01,0-.02,0h.04s-.01,0-.02,0Z"/><path class="cls-1" d="M772.64,224.44h-.04c-6.29,0-12.07,2.11-16.74,5.62,3.18,4.22,6.93,7.98,11.16,11.16,3.5-4.67,5.61-10.45,5.61-16.73v-.04h0Z"/><path class="cls-1" d="M772.64,224.46s0-.01,0-.02h0s0,.01,0,.02Z"/><path class="cls-1" d="M772.64,224.44h0s-.01,0-.02,0c0,0,.01,0,.02,0h0Z"/></g></g><g><line class="cls-2" x1="617.5" y1="135.5" x2="647.07" y2="135.5"/><line class="cls-2" x1="617.5" y1="145.5" x2="647.07" y2="145.5"/></g></g></g></svg>