<?xml version="1.0" encoding="UTF-8"?><svg id="Layer_2" xmlns="http://www.w3.org/2000/svg" viewBox="0 0 1889.37 1012.81"><defs><style>.cls-1{fill:#231f20;}</style></defs><g id="Layer_2-2"><g><path class="cls-1" d="M313.33,513.73c-9.03,0-18.02-.76-26.74-2.27-46.97-7.98-87.44-36.44-111.02-78.07-4.29-7.55-7.96-15.47-10.91-23.55l-.08-.23c-.04-.11-.08-.21-.11-.32-3.48-9.55-6.04-19.59-7.59-29.79-1.2-7.97-1.81-16.07-1.81-24.06s.61-16.09,1.81-24.06c1.37-8.93,3.5-17.73,6.33-26.17l.13-.4c2.76-8.2,6.26-16.28,10.4-24.02,27.63-51.58,81.12-83.62,139.59-83.62s111.98,32.04,139.61,83.62c4.14,7.74,7.64,15.82,10.4,24.02l.13,.42c2.83,8.44,4.96,17.23,6.32,26.15,1.2,7.97,1.81,16.07,1.81,24.07s-.61,16.09-1.81,24.06c-1.55,10.2-4.12,20.24-7.61,29.86-.01,.04-.05,.15-.09,.25l-.06,.17c-3,8.23-6.67,16.15-10.94,23.62-23.58,41.62-64.05,70.08-111.04,78.06-8.71,1.5-17.71,2.27-26.74,2.27Zm-144.98-207.67h0s-.14,.42-.14,.42c-2.8,8.28-4.91,16.92-6.25,25.68-1.17,7.71-1.76,15.55-1.76,23.29s.59,15.58,1.76,23.29c1.5,9.86,3.98,19.57,7.36,28.86l.19,.54c2.82,7.74,6.37,15.4,10.53,22.71,22.82,40.28,61.97,67.81,107.41,75.53,16.87,2.91,34.88,2.91,51.74,0,45.46-7.73,84.62-35.26,107.43-75.53,4.13-7.22,7.68-14.88,10.55-22.77l.15-.42c3.4-9.36,5.88-19.07,7.38-28.93,1.17-7.71,1.76-15.55,1.76-23.29s-.59-15.58-1.76-23.29c-1.34-8.76-3.44-17.4-6.25-25.67l-.14-.42c-2.65-7.79-5.99-15.48-9.93-22.83-26.74-49.9-78.49-80.9-135.07-80.9s-108.32,31-135.05,80.9c-3.94,7.36-7.28,15.04-9.93,22.83Z"/><path class="cls-1" d="M166.91,411.06H2.58c-1.42,0-2.58-1.15-2.58-2.58v-102.85c0-1.42,1.15-2.58,2.58-2.58H165.77c1.42,0,2.58,1.15,2.58,2.58,0,.28-.05,.58-.14,.84-2.8,8.28-4.91,16.92-6.25,25.68-1.17,7.71-1.76,15.55-1.76,23.29s.59,15.58,1.76,23.29c1.5,9.86,3.98,19.57,7.36,28.86,.29,.79,.17,1.67-.31,2.36-.48,.69-1.27,1.1-2.11,1.1Zm-161.76-5.15H163.28c-2.88-8.55-5.03-17.42-6.4-26.4-1.2-7.97-1.81-16.07-1.81-24.06s.61-16.09,1.81-24.06c1.21-7.88,3-15.65,5.36-23.17H5.15v97.69Z"/><path class="cls-1" d="M497.34,411.06h-37.57c-.84,0-1.63-.41-2.11-1.1-.48-.69-.6-1.57-.31-2.36,3.38-9.3,5.86-19.01,7.36-28.87,1.17-7.71,1.76-15.55,1.76-23.29s-.59-15.58-1.76-23.29c-1.34-8.75-3.44-17.39-6.25-25.67-.09-.27-.14-.55-.14-.83,0-1.42,1.15-2.59,2.58-2.59h36.43c1.42,0,2.58,1.15,2.58,2.58v102.85c0,1.42-1.15,2.58-2.58,2.58Zm-33.94-5.15h31.36v-97.69h-30.32c2.36,7.52,4.15,15.3,5.36,23.17,1.21,7.97,1.82,16.07,1.82,24.07s-.61,16.09-1.81,24.06c-1.37,8.98-3.52,17.84-6.4,26.4Z"/><path class="cls-1" d="M619.9,411.06h-34.42c-1.42,0-2.58-1.15-2.58-2.58v-102.85c0-1.42,1.15-2.58,2.58-2.58h34.42c1.42,0,2.58,1.15,2.58,2.58v102.85c0,1.42-1.15,2.58-2.58,2.58Zm-31.85-5.15h29.27v-97.69h-29.27v97.69Z"/><path class="cls-1" d="M742.47,411.06h-34.44c-1.42,0-2.58-1.15-2.58-2.58v-102.85c0-1.42,1.15-2.58,2.58-2.58h34.44c1.42,0,2.58,1.15,2.58,2.58v102.85c0,1.42-1.15,2.58-2.58,2.58Zm-31.87-5.15h29.29v-97.69h-29.29v97.69Z"/><path class="cls-1" d="M865.03,411.06h-34.44c-1.42,0-2.58-1.15-2.58-2.58v-102.85c0-1.42,1.15-2.58,2.58-2.58h34.44c1.42,0,2.58,1.15,2.58,2.58v102.85c0,1.42-1.15,2.58-2.58,2.58Zm-31.87-5.15h29.29v-97.69h-29.29v97.69Z"/><path class="cls-1" d="M979.97,411.06h-26.82c-1.42,0-2.58-1.15-2.58-2.58v-102.85c0-1.42,1.15-2.58,2.58-2.58h26.82c1.42,0,2.58,1.15,2.58,2.58v102.85c0,1.42-1.15,2.58-2.58,2.58Zm-24.24-5.15h21.67v-97.69h-21.67v97.69Z"/><path class="cls-1" d="M979.96,411.29c-.51,0-1.02-.15-1.45-.45-.7-.48-1.12-1.28-1.12-2.13v-103.32c0-.85,.42-1.65,1.12-2.13,.7-.48,1.6-.58,2.39-.27l89.59,34.94c9.18,3.58,14.89,10.91,14.89,19.12s-5.71,15.54-14.89,19.12l-89.59,34.94c-.3,.12-.62,.18-.94,.18Zm2.58-102.13v95.78l86.08-33.57c7.27-2.83,11.61-8.19,11.61-14.32s-4.34-11.49-11.61-14.32l-86.08-33.57Z"/><path class="cls-1" d="M313.33,1011.21c-9.03,0-18.02-.76-26.74-2.27-46.97-7.98-87.44-36.44-111.02-78.07-4.29-7.55-7.96-15.47-10.91-23.55l-.08-.23c-.04-.11-.08-.21-.11-.32-3.48-9.55-6.04-19.59-7.59-29.79-1.2-7.97-1.81-16.07-1.81-24.06s.61-16.09,1.81-24.06c1.37-8.93,3.5-17.73,6.33-26.17l.13-.4c2.76-8.2,6.26-16.28,10.4-24.02,27.63-51.58,81.12-83.62,139.59-83.62s111.98,32.04,139.61,83.62c4.14,7.74,7.64,15.82,10.4,24.02l.13,.42c2.83,8.44,4.96,17.23,6.32,26.15,1.2,7.97,1.81,16.07,1.81,24.07s-.61,16.09-1.81,24.06c-1.55,10.2-4.12,20.24-7.61,29.86-.01,.04-.05,.15-.09,.25l-.06,.17c-3,8.23-6.67,16.15-10.94,23.62-23.58,41.62-64.05,70.08-111.04,78.06-8.71,1.5-17.71,2.27-26.74,2.27Zm-144.98-207.67h0s-.14,.42-.14,.42c-2.8,8.28-4.91,16.92-6.25,25.68-1.17,7.71-1.76,15.55-1.76,23.29s.59,15.58,1.76,23.29c1.5,9.86,3.98,19.57,7.36,28.86l.19,.54c2.82,7.74,6.37,15.4,10.53,22.71,22.82,40.28,61.97,67.81,107.41,75.53,16.87,2.91,34.88,2.91,51.74,0,45.46-7.73,84.62-35.26,107.43-75.53,4.13-7.22,7.68-14.88,10.55-22.77l.15-.42c3.4-9.36,5.88-19.07,7.38-28.93,1.17-7.71,1.76-15.55,1.76-23.29s-.59-15.58-1.76-23.29c-1.34-8.76-3.44-17.4-6.25-25.67l-.14-.42c-2.65-7.79-5.99-15.48-9.93-22.83-26.74-49.9-78.49-80.9-135.07-80.9s-108.32,31-135.05,80.9c-3.94,7.36-7.28,15.04-9.93,22.83Z"/><path class="cls-1" d="M166.91,908.53H2.58c-1.42,0-2.58-1.15-2.58-2.58v-102.85c0-1.42,1.15-2.58,2.58-2.58H165.77c1.42,0,2.58,1.15,2.58,2.58,0,.28-.05,.58-.14,.84-2.8,8.28-4.91,16.92-6.25,25.68-1.17,7.71-1.76,15.55-1.76,23.29s.59,15.58,1.76,23.29c1.5,9.86,3.98,19.57,7.36,28.86,.29,.79,.17,1.67-.31,2.36-.48,.69-1.27,1.1-2.11,1.1Zm-161.76-5.15H163.28c-2.88-8.55-5.03-17.42-6.4-26.4-1.2-7.97-1.81-16.07-1.81-24.06s.61-16.09,1.81-24.06c1.21-7.88,3-15.65,5.36-23.17H5.15v97.69Z"/><path class="cls-1" d="M497.34,908.53h-37.57c-.84,0-1.63-.41-2.11-1.1-.48-.69-.6-1.57-.31-2.36,3.38-9.3,5.86-19.01,7.36-28.87,1.17-7.71,1.76-15.55,1.76-23.29s-.59-15.58-1.76-23.29c-1.34-8.75-3.44-17.39-6.25-25.67-.09-.27-.14-.55-.14-.83,0-1.42,1.15-2.59,2.58-2.59h36.43c1.42,0,2.58,1.15,2.58,2.58v102.85c0,1.42-1.15,2.58-2.58,2.58Zm-33.94-5.15h31.36v-97.7h-30.32c2.36,7.53,4.15,15.3,5.36,23.17,1.21,7.97,1.82,16.07,1.82,24.07s-.61,16.09-1.81,24.06c-1.37,8.98-3.52,17.84-6.4,26.4Z"/><path class="cls-1" d="M619.9,908.53h-34.42c-1.42,0-2.58-1.15-2.58-2.58v-102.85c0-1.42,1.15-2.58,2.58-2.58h34.42c1.42,0,2.58,1.15,2.58,2.58v102.85c0,1.42-1.15,2.58-2.58,2.58Zm-31.85-5.15h29.27v-97.7h-29.27v97.7Z"/><path class="cls-1" d="M742.47,908.53h-34.44c-1.42,0-2.58-1.15-2.58-2.58v-102.85c0-1.42,1.15-2.58,2.58-2.58h34.44c1.42,0,2.58,1.15,2.58,2.58v102.85c0,1.42-1.15,2.58-2.58,2.58Zm-31.87-5.15h29.29v-97.7h-29.29v97.7Z"/><path class="cls-1" d="M865.03,908.53h-34.44c-1.42,0-2.58-1.15-2.58-2.58v-102.85c0-1.42,1.15-2.58,2.58-2.58h34.44c1.42,0,2.58,1.15,2.58,2.58v102.85c0,1.42-1.15,2.58-2.58,2.58Zm-31.87-5.15h29.29v-97.7h-29.29v97.7Z"/><path class="cls-1" d="M979.97,908.53h-26.82c-1.42,0-2.58-1.15-2.58-2.58v-102.85c0-1.42,1.15-2.58,2.58-2.58h26.82c1.42,0,2.58,1.15,2.58,2.58v102.85c0,1.42-1.15,2.58-2.58,2.58Zm-24.24-5.15h21.67v-97.7h-21.67v97.7Z"/><path class="cls-1" d="M979.96,908.77c-.51,0-1.02-.15-1.45-.45-.7-.48-1.12-1.28-1.12-2.13v-103.32c0-.85,.42-1.65,1.12-2.13,.7-.48,1.6-.58,2.39-.27l89.59,34.94c9.18,3.58,14.89,10.91,14.89,19.12s-5.71,15.54-14.89,19.12l-89.59,34.94c-.3,.12-.62,.18-.94,.18Zm2.58-102.13v95.78l86.08-33.57c7.27-2.83,11.61-8.19,11.61-14.32,0-6.13-4.34-11.49-11.61-14.32l-86.08-33.57Z"/><path class="cls-1" d="M588.05,515.33h-93.28V198.77h93.28v316.56Zm-88.13-5.15h82.98V203.92h-82.98V510.18Z"/><path class="cls-1" d="M710.61,515.33h-93.28V198.77h93.28v316.56Zm-88.13-5.15h82.98V203.92h-82.98V510.18Z"/><path class="cls-1" d="M833.17,515.33h-93.27V198.77h93.27v316.56Zm-88.12-5.15h82.96V203.92h-82.96V510.18Z"/><path class="cls-1" d="M955.72,515.33h-93.27V198.77h93.27v316.56Zm-88.12-5.15h82.96V203.92h-82.96V510.18Z"/><path class="cls-1" d="M588.05,1012.81h-93.28v-316.56h93.28v316.56Zm-88.13-5.15h82.98v-306.26h-82.98v306.26Z"/><path class="cls-1" d="M710.61,1012.81h-93.28v-316.56h93.28v316.56Zm-88.13-5.15h82.98v-306.26h-82.98v306.26Z"/><path class="cls-1" d="M833.17,1012.81h-93.27v-316.56h93.27v316.56Zm-88.12-5.15h82.96v-306.26h-82.96v306.26Z"/><path class="cls-1" d="M955.72,1012.81h-93.27v-316.56h93.27v316.56Zm-88.12-5.15h82.96v-306.26h-82.96v306.26Z"/><path class="cls-1" d="M1577.01,515.34c-15.75,0-31.28-2.31-46.17-6.86-19.54-5.93-37.54-15.5-53.48-28.45-37.27-30.21-58.64-75.04-58.64-122.98,0-87.27,71.01-158.27,158.29-158.27s158.29,71,158.29,158.27c0,47.94-21.38,92.76-58.64,122.98-15.94,12.95-33.93,22.52-53.48,28.45-14.88,4.55-30.41,6.86-46.16,6.86Zm0-311.41c-84.44,0-153.14,68.69-153.14,153.12,0,46.38,20.68,89.74,56.74,118.98,15.42,12.53,32.83,21.79,51.73,27.52,14.4,4.4,29.43,6.64,44.67,6.64s30.27-2.23,44.66-6.63c18.91-5.74,36.32-15,51.74-27.52,36.06-29.23,56.74-72.6,56.74-118.98,0-84.43-68.7-153.12-153.14-153.12Z"/><path class="cls-1" d="M1541.25,618.66h-71.89c-7.69,0-14.93-2.89-20.38-8.15-5.48-5.26-8.5-12.28-8.5-19.77,0-15.39,12.96-27.92,28.88-27.92h7.06v-90.08l4.16,3.26c15.42,12.07,32.83,20.99,51.74,26.52l1.85,.54v59.76h7.07c7.69,0,14.93,2.89,20.38,8.15,5.48,5.28,8.5,12.3,8.5,19.77,0,15.39-12.96,27.92-28.88,27.92Zm-71.89-50.68c-13.08,0-23.73,10.21-23.73,22.77,0,6.07,2.46,11.77,6.92,16.06,4.49,4.33,10.46,6.71,16.81,6.71h71.89c13.08,0,23.73-10.21,23.73-22.77,0-6.06-2.46-11.76-6.92-16.06-4.49-4.32-10.46-6.71-16.81-6.71h-12.22v-61.07c-17.16-5.23-33.09-13.19-47.46-23.7v84.77h-12.21Z"/><path class="cls-1" d="M1684.67,618.66h-71.89c-7.69,0-14.93-2.89-20.38-8.15-5.48-5.28-8.5-12.3-8.5-19.77,0-15.39,12.96-27.92,28.88-27.92h7.07v-59.76l1.85-.54c18.92-5.53,36.32-14.45,51.74-26.52l4.16-3.26v90.08h7.06c7.69,0,14.93,2.89,20.38,8.15,5.48,5.26,8.5,12.28,8.5,19.77,0,15.39-12.96,27.92-28.88,27.92Zm-71.89-50.68c-13.08,0-23.73,10.21-23.73,22.77,0,6.06,2.46,11.76,6.92,16.06,4.49,4.33,10.46,6.71,16.81,6.71h71.89c13.08,0,23.73-10.21,23.73-22.77,0-6.07-2.46-11.77-6.92-16.06-4.49-4.33-10.46-6.71-16.81-6.71h-12.21v-84.77c-14.37,10.51-30.3,18.47-47.46,23.7v61.07h-12.22Z"/><path class="cls-1" d="M1579.49,411.54c-30.04,0-54.48-24.44-54.48-54.48s24.44-54.48,54.48-54.48,54.48,24.44,54.48,54.48-24.44,54.48-54.48,54.48Zm0-103.8c-27.2,0-49.33,22.13-49.33,49.33s22.13,49.33,49.33,49.33,49.33-22.13,49.33-49.33-22.13-49.33-49.33-49.33Z"/><path class="cls-1" d="M375.15,619.21h-93.83c-17.55,0-31.83-13.77-31.83-30.7s14.28-30.68,31.83-30.68h3.12v-51.94l3,.5c16.88,2.8,34.89,2.8,51.76,0l3-.5v51.94h32.95c17.54,0,31.81,13.77,31.81,30.68s-14.27,30.7-31.81,30.7Zm-93.83-56.23c-14.71,0-26.68,11.45-26.68,25.53s11.97,25.55,26.68,25.55h93.83c14.7,0,26.66-11.46,26.66-25.55s-11.96-25.53-26.66-25.53h-38.1v-51.05c-15.55,2.27-31.91,2.27-47.46,0v51.05h-8.28Z"/></g><g><g><rect class="cls-1" x="1836.88" y="200.5" width="6.01" height="1.72"/><path class="cls-1" d="M1824.76,202.21h-12.11v-1.72h12.11v1.72Zm-24.23,0h-12.11v-1.72h12.11v1.72Zm-24.23,0h-12.11v-1.72h12.11v1.72Zm-24.23,0h-12.11v-1.72h12.11v1.72Zm-24.23,0h-12.11v-1.72h12.11v1.72Zm-24.23,0h-12.11v-1.72h12.11v1.72Zm-24.23,0h-12.11v-1.72h12.11v1.72Zm-24.23,0h-12.11v-1.72h12.11v1.72Zm-24.23,0h-12.11v-1.72h12.11v1.72Zm-24.23,0h-12.11v-1.72h12.11v1.72Zm-24.23,0h-12.11v-1.72h12.11v1.72Zm-24.23,0h-12.11v-1.72h12.11v1.72Zm-24.23,0h-12.11v-1.72h12.11v1.72Zm-24.23,0h-12.11v-1.72h12.11v1.72Zm-24.23,0h-12.11v-1.72h12.11v1.72Zm-24.23,0h-12.11v-1.72h12.11v1.72Zm-24.23,0h-12.11v-1.72h12.11v1.72Zm-24.23,0h-12.11v-1.72h12.11v1.72Zm-24.23,0h-12.11v-1.72h12.11v1.72Zm-24.23,0h-12.11v-1.72h12.11v1.72Zm-24.23,0h-12.11v-1.72h12.11v1.72Zm-24.23,0h-12.11v-1.72h12.11v1.72Zm-24.23,0h-12.11v-1.72h12.11v1.72Zm-24.23,0h-12.11v-1.72h12.11v1.72Zm-24.23,0h-12.11v-1.72h12.11v1.72Zm-24.23,0h-12.11v-1.72h12.11v1.72Zm-24.23,0h-12.11v-1.72h12.11v1.72Zm-24.23,0h-12.11v-1.72h12.11v1.72Zm-24.23,0h-12.11v-1.72h12.11v1.72Zm-24.23,0h-12.11v-1.72h12.11v1.72Zm-24.23,0h-12.11v-1.72h12.11v1.72Zm-24.23,0h-12.11v-1.72h12.11v1.72Zm-24.23,0h-12.11v-1.72h12.11v1.72Zm-24.23,0h-12.11v-1.72h12.11v1.72Zm-24.23,0h-12.11v-1.72h12.11v1.72Zm-24.23,0h-12.11v-1.72h12.11v1.72Zm-24.23,0h-12.11v-1.72h12.11v1.72Zm-24.23,0h-12.11v-1.72h12.11v1.72Zm-24.23,0h-12.11v-1.72h12.11v1.72Zm-24.23,0h-12.11v-1.72h12.11v1.72Zm-24.23,0h-12.11v-1.72h12.11v1.72Zm-24.23,0h-12.11v-1.72h12.11v1.72Zm-24.23,0h-12.11v-1.72h12.11v1.72Zm-24.23,0h-12.11v-1.72h12.11v1.72Zm-24.23,0h-12.11v-1.72h12.11v1.72Zm-24.23,0h-12.11v-1.72h12.11v1.72Zm-24.23,0h-12.11v-1.72h12.11v1.72Zm-24.23,0h-12.11v-1.72h12.11v1.72Zm-24.23,0h-12.11v-1.72h12.11v1.72Zm-24.23,0h-12.11v-1.72h12.11v1.72Zm-24.23,0h-12.11v-1.72h12.11v1.72Zm-24.23,0h-12.11v-1.72h12.11v1.72Zm-24.23,0h-12.11v-1.72h12.11v1.72Zm-24.23,0h-12.11v-1.72h12.11v1.72Zm-24.23,0h-12.11v-1.72h12.11v1.72Zm-24.23,0h-12.11v-1.72h12.11v1.72Zm-24.23,0h-12.11v-1.72h12.11v1.72Zm-24.23,0h-12.11v-1.72h12.11v1.72Zm-24.23,0h-12.11v-1.72h12.11v1.72Zm-24.23,0h-12.11v-1.72h12.11v1.72Zm-24.23,0h-12.11v-1.72h12.11v1.72Zm-24.23,0h-12.11v-1.72h12.11v1.72Z"/><rect class="cls-1" x="316.61" y="200.5" width="6.01" height="1.72"/></g><g><rect class="cls-1" x="341.45" y="511.91" width="6.01" height="1.72"/><path class="cls-1" d="M1826.83,513.62h-11.93v-1.72h11.93v1.72Zm-23.86,0h-11.93v-1.72h11.93v1.72Zm-23.86,0h-11.93v-1.72h11.93v1.72Zm-23.86,0h-11.93v-1.72h11.93v1.72Zm-23.86,0h-11.93v-1.72h11.93v1.72Zm-23.86,0h-11.93v-1.72h11.93v1.72Zm-23.86,0h-11.93v-1.72h11.93v1.72Zm-23.86,0h-11.93v-1.72h11.93v1.72Zm-23.86,0h-11.93v-1.72h11.93v1.72Zm-23.86,0h-11.93v-1.72h11.93v1.72Zm-23.86,0h-11.93v-1.72h11.93v1.72Zm-23.86,0h-11.93v-1.72h11.93v1.72Zm-23.86,0h-11.93v-1.72h11.93v1.72Zm-23.86,0h-11.93v-1.72h11.93v1.72Zm-23.86,0h-11.93v-1.72h11.93v1.72Zm-23.86,0h-11.93v-1.72h11.93v1.72Zm-23.86,0h-11.93v-1.72h11.93v1.72Zm-23.86,0h-11.93v-1.72h11.93v1.72Zm-23.86,0h-11.93v-1.72h11.93v1.72Zm-23.86,0h-11.93v-1.72h11.93v1.72Zm-23.86,0h-11.93v-1.72h11.93v1.72Zm-23.86,0h-11.93v-1.72h11.93v1.72Zm-23.86,0h-11.93v-1.72h11.93v1.72Zm-23.86,0h-11.93v-1.72h11.93v1.72Zm-23.86,0h-11.93v-1.72h11.93v1.72Zm-23.86,0h-11.93v-1.72h11.93v1.72Zm-23.86,0h-11.93v-1.72h11.93v1.72Zm-23.86,0h-11.93v-1.72h11.93v1.72Zm-23.86,0h-11.93v-1.72h11.93v1.72Zm-23.86,0h-11.93v-1.72h11.93v1.72Zm-23.86,0h-11.93v-1.72h11.93v1.72Zm-23.86,0h-11.93v-1.72h11.93v1.72Zm-23.86,0h-11.93v-1.72h11.93v1.72Zm-23.86,0h-11.93v-1.72h11.93v1.72Zm-23.86,0h-11.93v-1.72h11.93v1.72Zm-23.86,0h-11.93v-1.72h11.93v1.72Zm-23.86,0h-11.93v-1.72h11.93v1.72Zm-23.86,0h-11.93v-1.72h11.93v1.72Zm-23.86,0h-11.93v-1.72h11.93v1.72Zm-23.86,0h-11.93v-1.72h11.93v1.72Zm-23.86,0h-11.93v-1.72h11.93v1.72Zm-23.86,0h-11.93v-1.72h11.93v1.72Zm-23.86,0h-11.93v-1.72h11.93v1.72Zm-23.86,0h-11.93v-1.72h11.93v1.72Zm-23.86,0h-11.93v-1.72h11.93v1.72Zm-23.86,0h-11.93v-1.72h11.93v1.72Zm-23.86,0h-11.93v-1.72h11.93v1.72Zm-23.86,0h-11.93v-1.72h11.93v1.72Zm-23.86,0h-11.93v-1.72h11.93v1.72Zm-23.86,0h-11.93v-1.72h11.93v1.72Zm-23.86,0h-11.93v-1.72h11.93v1.72Zm-23.86,0h-11.93v-1.72h11.93v1.72Zm-23.86,0h-11.93v-1.72h11.93v1.72Zm-23.86,0h-11.93v-1.72h11.93v1.72Zm-23.86,0h-11.93v-1.72h11.93v1.72Zm-23.86,0h-11.93v-1.72h11.93v1.72Zm-23.86,0h-11.93v-1.72h11.93v1.72Zm-23.86,0h-11.93v-1.72h11.93v1.72Zm-23.86,0h-11.93v-1.72h11.93v1.72Zm-23.86,0h-11.93v-1.72h11.93v1.72Zm-23.86,0h-11.93v-1.72h11.93v1.72Zm-23.86,0h-11.93v-1.72h11.93v1.72Z"/><rect class="cls-1" x="1838.76" y="511.91" width="6.01" height="1.72"/></g><g><rect class="cls-1" x="1843.19" y="615.77" width="6.01" height="1.72"/><path class="cls-1" d="M1831.14,617.49h-12.05v-1.72h12.05v1.72Zm-24.1,0h-12.05v-1.72h12.05v1.72Zm-24.1,0h-12.05v-1.72h12.05v1.72Zm-24.1,0h-12.05v-1.72h12.05v1.72Zm-24.1,0h-12.05v-1.72h12.05v1.72Zm-24.1,0h-12.05v-1.72h12.05v1.72Zm-24.1,0h-12.05v-1.72h12.05v1.72Zm-24.1,0h-12.05v-1.72h12.05v1.72Zm-24.1,0h-12.05v-1.72h12.05v1.72Zm-24.1,0h-12.05v-1.72h12.05v1.72Zm-24.1,0h-12.05v-1.72h12.05v1.72Zm-24.1,0h-12.05v-1.72h12.05v1.72Zm-24.1,0h-12.05v-1.72h12.05v1.72Zm-24.1,0h-12.05v-1.72h12.05v1.72Zm-24.1,0h-12.05v-1.72h12.05v1.72Zm-24.1,0h-12.05v-1.72h12.05v1.72Zm-24.1,0h-12.05v-1.72h12.05v1.72Zm-24.1,0h-12.05v-1.72h12.05v1.72Zm-24.1,0h-12.05v-1.72h12.05v1.72Zm-24.1,0h-12.05v-1.72h12.05v1.72Zm-24.1,0h-12.05v-1.72h12.05v1.72Zm-24.1,0h-12.05v-1.72h12.05v1.72Zm-24.1,0h-12.05v-1.72h12.05v1.72Zm-24.1,0h-12.05v-1.72h12.05v1.72Zm-24.1,0h-12.05v-1.72h12.05v1.72Zm-24.1,0h-12.05v-1.72h12.05v1.72Zm-24.1,0h-12.05v-1.72h12.05v1.72Zm-24.1,0h-12.05v-1.72h12.05v1.72Zm-24.1,0h-12.05v-1.72h12.05v1.72Zm-24.1,0h-12.05v-1.72h12.05v1.72Zm-24.1,0h-12.05v-1.72h12.05v1.72Zm-24.1,0h-12.05v-1.72h12.05v1.72Zm-24.1,0h-12.05v-1.72h12.05v1.72Zm-24.1,0h-12.05v-1.72h12.05v1.72Zm-24.1,0h-12.05v-1.72h12.05v1.72Zm-24.1,0h-12.05v-1.72h12.05v1.72Zm-24.1,0h-12.05v-1.72h12.05v1.72Zm-24.1,0h-12.05v-1.72h12.05v1.72Zm-24.1,0h-12.05v-1.72h12.05v1.72Zm-24.1,0h-12.05v-1.72h12.05v1.72Zm-24.1,0h-12.05v-1.72h12.05v1.72Zm-24.1,0h-12.05v-1.72h12.05v1.72Zm-24.1,0h-12.05v-1.72h12.05v1.72Zm-24.1,0h-12.05v-1.72h12.05v1.72Zm-24.1,0h-12.05v-1.72h12.05v1.72Zm-24.1,0h-12.05v-1.72h12.05v1.72Zm-24.1,0h-12.05v-1.72h12.05v1.72Zm-24.1,0h-12.05v-1.72h12.05v1.72Zm-24.1,0h-12.05v-1.72h12.05v1.72Zm-24.1,0h-12.05v-1.72h12.05v1.72Zm-24.1,0h-12.05v-1.72h12.05v1.72Zm-24.1,0h-12.05v-1.72h12.05v1.72Zm-24.1,0h-12.05v-1.72h12.05v1.72Zm-24.1,0h-12.05v-1.72h12.05v1.72Zm-24.1,0h-12.05v-1.72h12.05v1.72Zm-24.1,0h-12.05v-1.72h12.05v1.72Zm-24.1,0h-12.05v-1.72h12.05v1.72Zm-24.1,0h-12.05v-1.72h12.05v1.72Zm-24.1,0h-12.05v-1.72h12.05v1.72Zm-24.1,0h-12.05v-1.72h12.05v1.72Zm-24.1,0h-12.05v-1.72h12.05v1.72Zm-24.1,0h-12.05v-1.72h12.05v1.72Z"/><rect class="cls-1" x="330.67" y="615.77" width="6.01" height="1.72"/></g><g><rect class="cls-1" x="1779.46" y="304.78" width="6.01" height="1.72"/><path class="cls-1" d="M1767.53,306.5h-11.92v-1.72h11.92v1.72Zm-23.85,0h-11.92v-1.72h11.92v1.72Zm-23.85,0h-11.92v-1.72h11.92v1.72Zm-23.85,0h-11.92v-1.72h11.92v1.72Zm-23.85,0h-11.92v-1.72h11.92v1.72Zm-23.85,0h-11.92v-1.72h11.92v1.72Zm-23.85,0h-11.92v-1.72h11.92v1.72Zm-23.85,0h-11.92v-1.72h11.92v1.72Zm-23.85,0h-11.92v-1.72h11.92v1.72Zm-23.85,0h-11.92v-1.72h11.92v1.72Zm-23.85,0h-11.92v-1.72h11.92v1.72Zm-23.85,0h-11.92v-1.72h11.92v1.72Zm-23.85,0h-11.92v-1.72h11.92v1.72Zm-23.85,0h-11.92v-1.72h11.92v1.72Zm-23.85,0h-11.92v-1.72h11.92v1.72Zm-23.85,0h-11.92v-1.72h11.92v1.72Zm-23.85,0h-11.92v-1.72h11.92v1.72Zm-23.85,0h-11.92v-1.72h11.92v1.72Zm-23.85,0h-11.92v-1.72h11.92v1.72Zm-23.85,0h-11.92v-1.72h11.92v1.72Zm-23.85,0h-11.92v-1.72h11.92v1.72Zm-23.85,0h-11.92v-1.72h11.92v1.72Zm-23.85,0h-11.92v-1.72h11.92v1.72Zm-23.85,0h-11.92v-1.72h11.92v1.72Zm-23.85,0h-11.92v-1.72h11.92v1.72Zm-23.85,0h-11.92v-1.72h11.92v1.72Zm-23.85,0h-11.92v-1.72h11.92v1.72Zm-23.85,0h-11.92v-1.72h11.92v1.72Zm-23.85,0h-11.92v-1.72h11.92v1.72Z"/><rect class="cls-1" x="1069.91" y="304.78" width="6.01" height="1.72"/></g><g><rect class="cls-1" x="1779.46" y="407.62" width="6.01" height="1.72"/><path class="cls-1" d="M1767.53,409.34h-11.92v-1.72h11.92v1.72Zm-23.85,0h-11.92v-1.72h11.92v1.72Zm-23.85,0h-11.92v-1.72h11.92v1.72Zm-23.85,0h-11.92v-1.72h11.92v1.72Zm-23.85,0h-11.92v-1.72h11.92v1.72Zm-23.85,0h-11.92v-1.72h11.92v1.72Zm-23.85,0h-11.92v-1.72h11.92v1.72Zm-23.85,0h-11.92v-1.72h11.92v1.72Zm-23.85,0h-11.92v-1.72h11.92v1.72Zm-23.85,0h-11.92v-1.72h11.92v1.72Zm-23.85,0h-11.92v-1.72h11.92v1.72Zm-23.85,0h-11.92v-1.72h11.92v1.72Zm-23.85,0h-11.92v-1.72h11.92v1.72Zm-23.85,0h-11.92v-1.72h11.92v1.72Zm-23.85,0h-11.92v-1.72h11.92v1.72Zm-23.85,0h-11.92v-1.72h11.92v1.72Zm-23.85,0h-11.92v-1.72h11.92v1.72Zm-23.85,0h-11.92v-1.72h11.92v1.72Zm-23.85,0h-11.92v-1.72h11.92v1.72Zm-23.85,0h-11.92v-1.72h11.92v1.72Zm-23.85,0h-11.92v-1.72h11.92v1.72Zm-23.85,0h-11.92v-1.72h11.92v1.72Zm-23.85,0h-11.92v-1.72h11.92v1.72Zm-23.85,0h-11.92v-1.72h11.92v1.72Zm-23.85,0h-11.92v-1.72h11.92v1.72Zm-23.85,0h-11.92v-1.72h11.92v1.72Zm-23.85,0h-11.92v-1.72h11.92v1.72Zm-23.85,0h-11.92v-1.72h11.92v1.72Zm-23.85,0h-11.92v-1.72h11.92v1.72Z"/><rect class="cls-1" x="1069.91" y="407.62" width="6.01" height="1.72"/></g><rect class="cls-1" x="1833.71" y="200.5" width="30.98" height="1.72"/><g><rect class="cls-1" x="1848.05" y="201.36" width="1.72" height="311.41"/><rect class="cls-1" x="1833.42" y="511.91" width="30.98" height="1.72"/></g><g><rect class="cls-1" x="1799.83" y="305.64" width="1.72" height="102.84"/><rect class="cls-1" x="1785.2" y="304.3" width="30.98" height="1.72"/><rect class="cls-1" x="1785.2" y="408.1" width="30.98" height="1.72"/></g><path class="cls-1" d="M1823.08,360.62h-2.41l5.29-7.58-4.96-7.2h2.5l3.77,5.65,3.74-5.65h2.38l-4.96,7.2,5.2,7.58h-2.49l-3.98-6.08-4.09,6.08Z"/><path class="cls-1" d="M1027.35,91.47h-2.41l5.29-7.58-4.96-7.2h2.5l3.77,5.65,3.74-5.65h2.38l-4.96,7.2,5.2,7.58h-2.49l-3.98-6.08-4.09,6.08Z"/><rect class="cls-1" x="1804.24" y="513.25" width="1.72" height="102.84"/><rect class="cls-1" x="1789.61" y="511.91" width="30.98" height="1.72"/><rect class="cls-1" x="1789.61" y="615.71" width="30.98" height="1.72"/><path class="cls-1" d="M1823.08,568.22h-2.41l5.29-7.58-4.96-7.2h2.5l3.77,5.65,3.74-5.65h2.38l-4.96,7.2,5.2,7.58h-2.49l-3.98-6.08-4.09,6.08Z"/><g><path class="cls-1" d="M1866.16,365.97c-.77-.94-1.15-2.07-1.15-3.42h1.89c.08,.93,.25,1.61,.52,2.03,.47,.76,1.32,1.14,2.55,1.14,.95,0,1.72-.25,2.29-.76,.58-.51,.87-1.17,.87-1.97,0-.99-.3-1.69-.91-2.08-.61-.4-1.45-.59-2.53-.59-.12,0-.24,0-.37,0s-.25,0-.38,.02v-1.6c.19,.02,.34,.03,.47,.04,.13,0,.26,.01,.41,.01,.68,0,1.23-.11,1.67-.32,.76-.38,1.15-1.05,1.15-2.01,0-.72-.25-1.27-.76-1.66-.51-.39-1.1-.58-1.78-.58-1.21,0-2.04,.4-2.51,1.21-.25,.44-.4,1.07-.43,1.89h-1.79c0-1.07,.21-1.98,.64-2.74,.74-1.34,2.04-2.01,3.89-2.01,1.47,0,2.61,.33,3.41,.98s1.21,1.6,1.21,2.84c0,.89-.24,1.6-.71,2.15-.29,.34-.68,.61-1.15,.8,.76,.21,1.35,.61,1.78,1.2,.43,.59,.64,1.32,.64,2.18,0,1.38-.45,2.5-1.36,3.36s-2.19,1.3-3.85,1.3-2.94-.47-3.71-1.4Z"/><path class="cls-1" d="M1878.81,366.98h-2.41l5.29-7.58-4.96-7.2h2.5l3.77,5.65,3.74-5.65h2.38l-4.96,7.2,5.2,7.58h-2.49l-3.98-6.08-4.09,6.08Z"/></g><g><rect class="cls-1" x="2.58" y="103.39" width="154.32" height="1.72"/><rect class="cls-1" x="1" y="88.76" width="1.72" height="30.98"/><rect class="cls-1" x="156.77" y="88.76" width="1.72" height="30.98"/><g><path class="cls-1" d="M60.52,76.38v-1.39c1.31-.13,2.22-.34,2.74-.64,.52-.3,.9-1,1.16-2.12h1.43v14.35h-1.93v-10.2h-3.39Z"/><path class="cls-1" d="M71.77,84.39h2.1v2.19h-2.1v-2.19Z"/><path class="cls-1" d="M78.28,82.91c.12,1.03,.6,1.75,1.44,2.14,.43,.2,.92,.3,1.49,.3,1.07,0,1.87-.34,2.38-1.03s.77-1.44,.77-2.27c0-1.01-.31-1.78-.92-2.33-.61-.55-1.35-.82-2.21-.82-.62,0-1.16,.12-1.6,.36-.45,.24-.83,.58-1.14,1.01l-1.57-.09,1.1-7.76h7.48v1.75h-6.13l-.61,4c.33-.25,.65-.45,.96-.57,.54-.22,1.16-.33,1.86-.33,1.32,0,2.44,.43,3.36,1.28,.92,.85,1.38,1.93,1.38,3.24s-.42,2.56-1.26,3.6c-.84,1.04-2.19,1.56-4.03,1.56-1.17,0-2.21-.33-3.11-.99-.9-.66-1.41-1.67-1.51-3.04h1.88Z"/><path class="cls-1" d="M90.03,86.58h-2.41l5.29-7.58-4.96-7.2h2.5l3.77,5.65,3.74-5.65h2.38l-4.96,7.2,5.2,7.58h-2.49l-3.98-6.08-4.09,6.08Z"/></g></g><rect class="cls-1" x="157.63" y="103.39" width="310.77" height="1.72"/><rect class="cls-1" x="156.05" y="88.76" width="1.72" height="30.98"/><rect class="cls-1" x="469" y="88.76" width="1.72" height="30.98"/><g><path class="cls-1" d="M302.79,85.57c-.77-.94-1.15-2.07-1.15-3.42h1.89c.08,.93,.25,1.61,.52,2.03,.47,.76,1.32,1.14,2.55,1.14,.95,0,1.72-.25,2.29-.76,.58-.51,.87-1.17,.87-1.97,0-.99-.3-1.69-.91-2.08-.61-.4-1.45-.59-2.53-.59-.12,0-.24,0-.37,0s-.25,0-.38,.02v-1.6c.19,.02,.34,.03,.47,.04,.13,0,.26,.01,.41,.01,.68,0,1.23-.11,1.67-.32,.76-.38,1.15-1.05,1.15-2.01,0-.72-.25-1.27-.76-1.66-.51-.39-1.1-.58-1.78-.58-1.21,0-2.04,.4-2.51,1.21-.25,.44-.4,1.07-.43,1.89h-1.79c0-1.07,.21-1.98,.64-2.74,.74-1.34,2.04-2.01,3.89-2.01,1.47,0,2.61,.33,3.41,.98s1.21,1.6,1.21,2.84c0,.89-.24,1.6-.71,2.15-.29,.34-.68,.61-1.15,.8,.76,.21,1.35,.61,1.78,1.2,.43,.59,.64,1.32,.64,2.18,0,1.38-.45,2.5-1.36,3.36s-2.19,1.3-3.85,1.3-2.94-.47-3.71-1.4Z"/><path class="cls-1" d="M315.44,86.58h-2.41l5.29-7.58-4.96-7.2h2.5l3.77,5.65,3.74-5.65h2.38l-4.96,7.2,5.2,7.58h-2.49l-3.98-6.08-4.09,6.08Z"/></g><rect class="cls-1" x="470.29" y="103.39" width="509.91" height="1.72"/><rect class="cls-1" x="979.34" y="88.76" width="1.72" height="30.98"/><rect class="cls-1" x="1081.7" y="88.76" width="1.72" height="30.98"/><g><path class="cls-1" d="M706.61,86.58v-3.52h-6.32v-1.77l6.6-9.15h1.53v9.35h2.12v1.58h-2.12v3.52h-1.81Zm-.03-5.1v-6.53l-4.62,6.53h4.62Z"/><path class="cls-1" d="M714.07,86.58h-2.41l5.29-7.58-4.96-7.2h2.5l3.77,5.65,3.74-5.65h2.38l-4.96,7.2,5.2,7.58h-2.49l-3.98-6.08-4.09,6.08Z"/></g><path class="cls-1" d="M537.37,15.82h-2.41l5.29-8.11-4.96-7.71h2.5l3.77,6.05,3.74-6.05h2.38l-4.96,7.71,5.2,8.11h-2.49l-3.98-6.51-4.09,6.51Z"/><rect class="cls-1" x="980.2" y="103.39" width="102.36" height="1.72"/><g><rect class="cls-1" x="1.72" y="900.18" width="1.72" height="6.01"/><path class="cls-1" d="M3.44,888.03H1.72v-12.15h1.72v12.15Zm0-24.31H1.72v-12.15h1.72v12.15Zm0-24.31H1.72v-12.15h1.72v12.15Zm0-24.31H1.72v-12.15h1.72v12.15Zm0-24.31H1.72v-12.15h1.72v12.15Zm0-24.31H1.72v-12.15h1.72v12.15Zm0-24.31H1.72v-12.15h1.72v12.15Zm0-24.31H1.72v-12.15h1.72v12.15Zm0-24.31H1.72v-12.15h1.72v12.15Zm0-24.31H1.72v-12.15h1.72v12.15Zm0-24.31H1.72v-12.15h1.72v12.15Zm0-24.31H1.72v-12.15h1.72v12.15Zm0-24.31H1.72v-12.15h1.72v12.15Zm0-24.31H1.72v-12.15h1.72v12.15Zm0-24.31H1.72v-12.15h1.72v12.15Zm0-24.31H1.72v-12.15h1.72v12.15Zm0-24.31H1.72v-12.15h1.72v12.15Zm0-24.31H1.72v-12.15h1.72v12.15Zm0-24.31H1.72v-12.15h1.72v12.15Zm0-24.31H1.72v-12.15h1.72v12.15Zm0-24.31H1.72v-12.15h1.72v12.15Zm0-24.31H1.72v-12.15h1.72v12.15Zm0-24.31H1.72v-12.15h1.72v12.15Zm0-24.31H1.72v-12.15h1.72v12.15Zm0-24.31H1.72v-12.15h1.72v12.15Zm0-24.31H1.72v-12.15h1.72v12.15Zm0-24.31H1.72v-12.15h1.72v12.15Zm0-24.31H1.72v-12.15h1.72v12.15Zm0-24.31H1.72v-12.15h1.72v12.15Zm0-24.31H1.72v-12.15h1.72v12.15Zm0-24.31H1.72v-12.15h1.72v12.15Zm0-24.31H1.72v-12.15h1.72v12.15Z"/><rect class="cls-1" x="1.72" y="104.25" width="1.72" height="6.01"/></g><g><rect class="cls-1" x="156.05" y="900.18" width="1.72" height="6.01"/><path class="cls-1" d="M157.76,888.03h-1.72v-12.15h1.72v12.15Zm0-24.31h-1.72v-12.15h1.72v12.15Zm0-24.31h-1.72v-12.15h1.72v12.15Zm0-24.31h-1.72v-12.15h1.72v12.15Zm0-24.31h-1.72v-12.15h1.72v12.15Zm0-24.31h-1.72v-12.15h1.72v12.15Zm0-24.31h-1.72v-12.15h1.72v12.15Zm0-24.31h-1.72v-12.15h1.72v12.15Zm0-24.31h-1.72v-12.15h1.72v12.15Zm0-24.31h-1.72v-12.15h1.72v12.15Zm0-24.31h-1.72v-12.15h1.72v12.15Zm0-24.31h-1.72v-12.15h1.72v12.15Zm0-24.31h-1.72v-12.15h1.72v12.15Zm0-24.31h-1.72v-12.15h1.72v12.15Zm0-24.31h-1.72v-12.15h1.72v12.15Zm0-24.31h-1.72v-12.15h1.72v12.15Zm0-24.31h-1.72v-12.15h1.72v12.15Zm0-24.31h-1.72v-12.15h1.72v12.15Zm0-24.31h-1.72v-12.15h1.72v12.15Zm0-24.31h-1.72v-12.15h1.72v12.15Zm0-24.31h-1.72v-12.15h1.72v12.15Zm0-24.31h-1.72v-12.15h1.72v12.15Zm0-24.31h-1.72v-12.15h1.72v12.15Zm0-24.31h-1.72v-12.15h1.72v12.15Zm0-24.31h-1.72v-12.15h1.72v12.15Zm0-24.31h-1.72v-12.15h1.72v12.15Zm0-24.31h-1.72v-12.15h1.72v12.15Zm0-24.31h-1.72v-12.15h1.72v12.15Zm0-24.31h-1.72v-12.15h1.72v12.15Zm0-24.31h-1.72v-12.15h1.72v12.15Zm0-24.31h-1.72v-12.15h1.72v12.15Zm0-24.31h-1.72v-12.15h1.72v12.15Z"/><rect class="cls-1" x="156.05" y="104.25" width="1.72" height="6.01"/></g><g><rect class="cls-1" x="469" y="900.18" width="1.72" height="6.01"/><path class="cls-1" d="M470.71,888.03h-1.72v-12.15h1.72v12.15Zm0-24.31h-1.72v-12.15h1.72v12.15Zm0-24.31h-1.72v-12.15h1.72v12.15Zm0-24.31h-1.72v-12.15h1.72v12.15Zm0-24.31h-1.72v-12.15h1.72v12.15Zm0-24.31h-1.72v-12.15h1.72v12.15Zm0-24.31h-1.72v-12.15h1.72v12.15Zm0-24.31h-1.72v-12.15h1.72v12.15Zm0-24.31h-1.72v-12.15h1.72v12.15Zm0-24.31h-1.72v-12.15h1.72v12.15Zm0-24.31h-1.72v-12.15h1.72v12.15Zm0-24.31h-1.72v-12.15h1.72v12.15Zm0-24.31h-1.72v-12.15h1.72v12.15Zm0-24.31h-1.72v-12.15h1.72v12.15Zm0-24.31h-1.72v-12.15h1.72v12.15Zm0-24.31h-1.72v-12.15h1.72v12.15Zm0-24.31h-1.72v-12.15h1.72v12.15Zm0-24.31h-1.72v-12.15h1.72v12.15Zm0-24.31h-1.72v-12.15h1.72v12.15Zm0-24.31h-1.72v-12.15h1.72v12.15Zm0-24.31h-1.72v-12.15h1.72v12.15Zm0-24.31h-1.72v-12.15h1.72v12.15Zm0-24.31h-1.72v-12.15h1.72v12.15Zm0-24.31h-1.72v-12.15h1.72v12.15Zm0-24.31h-1.72v-12.15h1.72v12.15Zm0-24.31h-1.72v-12.15h1.72v12.15Zm0-24.31h-1.72v-12.15h1.72v12.15Zm0-24.31h-1.72v-12.15h1.72v12.15Zm0-24.31h-1.72v-12.15h1.72v12.15Zm0-24.31h-1.72v-12.15h1.72v12.15Zm0-24.31h-1.72v-12.15h1.72v12.15Zm0-24.31h-1.72v-12.15h1.72v12.15Z"/><rect class="cls-1" x="469" y="104.25" width="1.72" height="6.01"/></g><g><rect class="cls-1" x="979.34" y="900.18" width="1.72" height="6.01"/><path class="cls-1" d="M981.06,888.03h-1.72v-12.15h1.72v12.15Zm0-24.31h-1.72v-12.15h1.72v12.15Zm0-24.31h-1.72v-12.15h1.72v12.15Zm0-24.31h-1.72v-12.15h1.72v12.15Zm0-24.31h-1.72v-12.15h1.72v12.15Zm0-24.31h-1.72v-12.15h1.72v12.15Zm0-24.31h-1.72v-12.15h1.72v12.15Zm0-24.31h-1.72v-12.15h1.72v12.15Zm0-24.31h-1.72v-12.15h1.72v12.15Zm0-24.31h-1.72v-12.15h1.72v12.15Zm0-24.31h-1.72v-12.15h1.72v12.15Zm0-24.31h-1.72v-12.15h1.72v12.15Zm0-24.31h-1.72v-12.15h1.72v12.15Zm0-24.31h-1.72v-12.15h1.72v12.15Zm0-24.31h-1.72v-12.15h1.72v12.15Zm0-24.31h-1.72v-12.15h1.72v12.15Zm0-24.31h-1.72v-12.15h1.72v12.15Zm0-24.31h-1.72v-12.15h1.72v12.15Zm0-24.31h-1.72v-12.15h1.72v12.15Zm0-24.31h-1.72v-12.15h1.72v12.15Zm0-24.31h-1.72v-12.15h1.72v12.15Zm0-24.31h-1.72v-12.15h1.72v12.15Zm0-24.31h-1.72v-12.15h1.72v12.15Zm0-24.31h-1.72v-12.15h1.72v12.15Zm0-24.31h-1.72v-12.15h1.72v12.15Zm0-24.31h-1.72v-12.15h1.72v12.15Zm0-24.31h-1.72v-12.15h1.72v12.15Zm0-24.31h-1.72v-12.15h1.72v12.15Zm0-24.31h-1.72v-12.15h1.72v12.15Zm0-24.31h-1.72v-12.15h1.72v12.15Zm0-24.31h-1.72v-12.15h1.72v12.15Zm0-24.31h-1.72v-12.15h1.72v12.15Z"/><rect class="cls-1" x="979.34" y="104.25" width="1.72" height="6.01"/></g><g><rect class="cls-1" x="1081.94" y="848.52" width="1.72" height="6.01"/><path class="cls-1" d="M1083.66,836.42h-1.72v-12.1h1.72v12.1Zm0-24.21h-1.72v-12.1h1.72v12.1Zm0-24.21h-1.72v-12.1h1.72v12.1Zm0-24.21h-1.72v-12.1h1.72v12.1Zm0-24.21h-1.72v-12.1h1.72v12.1Zm0-24.21h-1.72v-12.1h1.72v12.1Zm0-24.21h-1.72v-12.1h1.72v12.1Zm0-24.21h-1.72v-12.1h1.72v12.1Zm0-24.21h-1.72v-12.1h1.72v12.1Zm0-24.21h-1.72v-12.1h1.72v12.1Zm0-24.21h-1.72v-12.1h1.72v12.1Zm0-24.21h-1.72v-12.1h1.72v12.1Zm0-24.21h-1.72v-12.1h1.72v12.1Zm0-24.21h-1.72v-12.1h1.72v12.1Zm0-24.21h-1.72v-12.1h1.72v12.1Zm0-24.21h-1.72v-12.1h1.72v12.1Zm0-24.21h-1.72v-12.1h1.72v12.1Zm0-24.21h-1.72v-12.1h1.72v12.1Zm0-24.21h-1.72v-12.1h1.72v12.1Zm0-24.21h-1.72v-12.1h1.72v12.1Zm0-24.21h-1.72v-12.1h1.72v12.1Zm0-24.21h-1.72v-12.1h1.72v12.1Zm0-24.21h-1.72v-12.1h1.72v12.1Zm0-24.21h-1.72v-12.1h1.72v12.1Zm0-24.21h-1.72v-12.1h1.72v12.1Zm0-24.21h-1.72v-12.1h1.72v12.1Zm0-24.21h-1.72v-12.1h1.72v12.1Zm0-24.21h-1.72v-12.1h1.72v12.1Zm0-24.21h-1.72v-12.1h1.72v12.1Zm0-24.21h-1.72v-12.1h1.72v12.1Z"/><rect class="cls-1" x="1081.94" y="104.25" width="1.72" height="6.01"/></g><rect class="cls-1" x="496.48" y="26.08" width="1.72" height="24.75"/><rect class="cls-1" x="584.62" y="26.08" width="1.72" height="24.75"/><rect class="cls-1" x="497.34" y="37.6" width="88.13" height="1.72"/><path class="cls-1" d="M498.2,201.35h-1.72v-12.02h1.72v12.02Zm0-24.04h-1.72v-12.02h1.72v12.02Zm0-24.04h-1.72v-12.02h1.72v12.02Zm0-24.04h-1.72v-12.02h1.72v12.02Zm0-24.04h-1.72v-12.02h1.72v12.02Zm0-24.04h-1.72v-12.02h1.72v12.02Zm0-24.04h-1.72v-8.51h1.72v8.51Z"/><path class="cls-1" d="M586.33,201.35h-1.72v-12.02h1.72v12.02Zm0-24.04h-1.72v-12.02h1.72v12.02Zm0-24.04h-1.72v-12.02h1.72v12.02Zm0-24.04h-1.72v-12.02h1.72v12.02Zm0-24.04h-1.72v-12.02h1.72v12.02Zm0-24.04h-1.72v-12.02h1.72v12.02Zm0-24.04h-1.72v-8.51h1.72v8.51Z"/></g></g></svg>