<?xml version="1.0" encoding="UTF-8"?><svg id="Layer_2" xmlns="http://www.w3.org/2000/svg" viewBox="0 0 1456.25 484.29"><defs><style>.cls-1{fill:#ff6635;}</style></defs><g id="Layer_4"><g><path class="cls-1" d="M53.64,76.11l11.77-1.43,13.75,46.83h34.79L65.22,6.81l-19.41-2.12L0,121.52H46.93l6.7-45.41Zm1.23-37.72l6.45,23.13h-10.38l3.92-23.13Z"/><path class="cls-1" d="M340.32,6.55l-7.48,114.79s15.81,.1,32.7,.1,61.4,4.23,61.4-50.79S389.55,5.87,340.32,6.55Zm37.74,71.22V32.64s27.3-5.23,27.3,24.67c0,24.73-27.3,20.46-27.3,20.46Z"/><path class="cls-1" d="M189.92,54.1c7.12-1.89,14.01-8.21,13.11-22.79-1.2-19.5-13.32-26.83-71.86-26.83l-9.56,117.04h63.65c20.46,0,33.69-11.21,33.69-36.64,0-19.27-14.57-29.7-29.04-30.78Zm-24.71-33.2s20.97-1.64,20.57,10.26-21.27,10.59-21.27,10.59l.7-20.85Zm34.64,61.14c-.04,15.98-23.91,13.04-23.91,13.04l-.7-23.15s24.65-3.22,24.61,10.12Z"/><path class="cls-1" d="M287.22,22.22c-12.02-4.85-35.92,21.64-25.06,46.78,15.29,35.4,40.02,6.74,40.02,6.74l20.42,19.61s-17.69,32.45-52.46,25.07c-34.77-7.38-44.51-40.42-43.22-58.62,1.52-21.4,14.19-42.77,31.83-50.45,24.85-10.82,50.05,2.16,50.05,2.16l-3.89,16.47h-18.29s1.01-7.6,.6-7.77Z"/><polygon class="cls-1" points="485.91 82.53 486.25 61.1 527.7 62.83 525.46 33.86 489.22 39.05 488.57 19.48 521.97 18.92 519.49 4.57 456.46 4.2 437.2 121.52 541.24 121.52 535.5 76.08 485.91 82.53"/><polygon class="cls-1" points="611.81 71.93 650.85 70.68 647.79 37.98 611.45 43.37 611.04 19.7 645.64 18.36 643.17 4.01 580.14 3.64 560.57 121.52 619.39 121.52 611.81 71.93"/><path class="cls-1" d="M758.88,17.34s-9.41-11.48-33.83-12.66c-24.42-1.18-48.89,15.24-54.21,34.46-5.32,19.21-15.82,74.17,43.5,81.81,42.65,5.49,55.75-14.21,55.75-14.21l-6.9-60.99-45.7,1.69,2.12,19.69,18.68-3.22,.66,8.97s-35.91,20.85-42.09-6.56c-6.18-27.41,10.6-40.56,17.56-42.12,6.96-1.56,24.05-4.02,32.58,5.85l11.87-12.71Z"/><polygon class="cls-1" points="846.59 56.89 861.43 57.83 856.77 119.7 898.51 119.7 889.26 2.26 859.87 2.5 858.61 31.22 845.83 30.64 849.84 2.5 815.82 2.26 794.68 119.3 838.62 119.3 846.59 56.89"/><polygon class="cls-1" points="939.84 2.5 939.84 29.29 950.54 24.51 950.86 78.14 928.92 72.95 926.36 118.28 1007.09 119.3 1002.93 73.62 981.24 78.45 975.31 25.74 988.2 27.44 985.88 2.5 939.84 2.5"/><path class="cls-1" d="M1043.71,4.13l.56,24.83,22.89-3.4s2.1,19.78,2.85,37.02c.34,7.89-3,18.43-12.29,19.33-8.28,.8-13.18-3.13-17.85-15.58l-23.62,17.11s20.35,53.23,71.81,30.74c25.12-10.98,13.28-43.61,7.09-68.54-3.56-14.35-4.21-20.08-4.21-20.08l11.61-.42-3.95-22.89-54.9,1.87Z"/><polygon class="cls-1" points="1136.9 4.64 1162.16 2.06 1163.9 52.96 1196.62 0 1229.55 20.99 1195.56 54.78 1236.83 115.29 1193.06 123.05 1170.33 75.55 1168.16 119.17 1126.54 118.97 1136.9 4.64"/><polygon class="cls-1" points="1253.33 2.26 1243.49 119.19 1326.31 115.8 1319.33 71.1 1275.65 79.82 1282.54 4.23 1253.33 2.26"/><path class="cls-1" d="M1342.45,118.59h41.76s2.99-68.95,3.67-67.29c.67,1.67,5.2,41.11,5.2,41.11h17.12l7.64-40.04,2.29,66.22,36.12,.2-19.69-112.41-30.07-4.22-7.12,48.91-4.65-44.95-33.34,2.08-18.93,110.4Z"/></g><g><polygon class="cls-1" points="43.26 305.24 55.47 189.41 84.65 189.41 99.48 252.88 99.96 188.03 120.86 188.03 133.61 305.24 95.62 305.24 79.39 240.01 85.16 305.24 43.26 305.24"/><path class="cls-1" d="M508.29,300.24l39.99-17.14-25.38-32.79s16.63-6.01,13.04-33.19c-3.59-27.18-20.08-32.45-80.93-32.45l-5.77,115.57h46.18l-3.6-40.05,1.73-.76,14.73,40.8Zm-16.46-92.28s18.5-3.76,18.5,8.77-18.5,9.82-18.5,9.82v-18.59Z"/><path class="cls-1" d="M334.09,223.62c0-32.18-15.27-40.53-75.18-39.12l-10.77,114.96h48.94l-6.87-45.61s43.88,0,43.88-30.24Zm-39.57,3.38v-21.54s21.44-4.36,21.44,10.17-21.44,11.38-21.44,11.38Z"/><path class="cls-1" d="M240.32,234.17c-3.01-33.99-13.73-51.13-46.45-51.13-19.55,0-34.9,15.36-42.01,53.93-7.11,38.57,10.74,63.27,47.98,63.27s43.44-32.58,40.47-66.07Zm-35.43,12.44c-7.67-.45-14.19-9.63-12.67-20.33,2.02-14.18,7.44-19.15,15.11-18.7,7.67,.45,13.17,4.67,12.67,20.33-.44,13.61-7.44,19.15-15.11,18.7Z"/><path class="cls-1" d="M413.73,291.7c13.43-12.04,15.67-34.94,13.67-58.28-2.95-34.47-13.44-51.85-45.49-51.85-19.14,0-34.18,15.58-41.14,54.69-6.4,35.96,7.87,60.02,38.56,63.66,3.24,12.26,12.38,27.64,37.62,30.62l17.39-30.39s-12.56,2.93-20.61-8.44Zm-35.25-67.97c1.98-14.38,7.29-19.42,14.8-18.96,7.51,.46,12.9,4.74,12.4,20.61-.43,13.8-7.29,19.42-14.8,18.96-7.51-.45-13.9-9.76-12.4-20.61Z"/><path class="cls-1" d="M632.01,194.67l-11.78,15.57s-14.58-5.89-18.64,1.12c-4.05,7.01,2.48,8.86,14.24,12.61,24.43,7.79,34.1,24.39,34.1,41.82s-18.3,34.46-48.04,34.46-48.21-12.87-48.21-12.87c0,0,23.69-34.52,24.62-34.09,.94,.43,19.3,12.49,25.55,5.2,6.26-7.29,5.11-13.46-14.96-20.2-20.06-6.74-21.58-23.18-15.73-35.91,6.89-15.02,28.43-26.98,58.84-7.7Z"/><polygon class="cls-1" points="661.28 182.94 655.54 209.16 684.71 206.91 674.65 300.24 723.75 300.24 712.04 205.71 742.21 209.16 736.72 184.83 661.28 182.94"/><path class="cls-1" d="M849.25,241.33c-6.83-27.7-11.56-53.1-11.56-53.1h-28.08c1.75,7.59,4.15,18.94,6.05,33.81,3.87,30.13-21.4,23.38-26.8,15.04-3.85-5.94-.15-32.29,2.31-48.86h-22.92s-3.77,10.11-11.16,51.42c-7.39,41.31,15.36,62.98,50.41,62.98s48.58-33.61,41.74-61.3Z"/><polygon class="cls-1" points="938.63 187.11 924.08 244.29 912.84 187.11 864.75 187.11 898.9 304.08 936.91 304.08 971.06 187.11 938.63 187.11"/><polygon class="cls-1" points="981.94 194.64 997.15 304.08 1030.12 301.73 1034.09 264.53 1038.9 300.19 1072.88 301.5 1093.31 193.72 1058.92 184.67 1052.68 252.86 1045.38 220.03 1027.88 217.98 1021.25 250.23 1015.15 187.11 981.94 194.64"/><polygon class="cls-1" points="1101.88 199.06 1124.72 188.12 1144.79 222.67 1162.1 184.67 1194.43 190.68 1162.1 244.88 1202.78 301.84 1161.2 304.08 1143.06 266.77 1128.3 303.07 1101.88 295.4 1124.79 244.88 1101.88 199.06"/><polygon class="cls-1" points="1203.99 207.94 1239.45 242 1239.44 304.08 1280.36 303.07 1269.62 244.6 1308.98 199.03 1279.6 187.11 1257.22 221.24 1236.02 184.67 1203.99 207.94"/><polygon class="cls-1" points="1332.6 188.31 1328.61 223.87 1365.33 214.05 1322.17 276.36 1336.6 304.08 1404.66 304.08 1412.99 256.88 1369.83 266.77 1404 191.38 1332.6 188.31"/></g><g><path class="cls-1" d="M1121.02,412.47c-3.01-33.99-13.73-51.13-46.45-51.13-19.55,0-34.9,15.36-42.01,53.93-7.11,38.57,10.74,63.27,47.98,63.27s43.44-32.58,40.47-66.07Zm-34.67,9.93c-7.63,.87-15.63-7.05-15.97-17.85-.44-14.32,4.05-20.14,11.68-21.02,7.63-.87,13.77,2.34,15.97,17.85,1.91,13.48-4.05,20.14-11.68,21.02Z"/><g><polygon class="cls-1" points="1286.01 442.24 1249.45 439.09 1249.45 362.27 1289.98 361.31 1286.01 442.24"/><polygon class="cls-1" points="1281.72 478.57 1248.03 473.38 1249.98 449.11 1283.86 451.85 1281.72 478.57"/></g><polygon class="cls-1" points="109.58 382.82 126.3 402.42 135.29 391.61 126.33 441.97 101.49 441.97 97.9 477.14 173.02 477.64 173.02 441.17 154.85 443.27 160.47 363.85 136.99 362.25 109.58 382.82"/><path class="cls-1" d="M196.62,391.18l14.95,12.62s3.34-7.64,6.49-11.06c3.15-3.42,17.12-9.53,23.16-3.6,6.04,5.93,11.02,22.26-37.99,53.51l-9.89,32.54h95.06l-5.13-37.34-38.37,3.75s12.79-9.17,21.28-32.37c7.19-19.65-3.15-36.02-18.21-41.87-13.53-5.26-40.69-5.2-51.34,23.82Z"/><path class="cls-1" d="M308.82,368.9l19.03,24.28s4.03-12.11,13.71-10.89,17.09,12.24,9.45,19.65c-6.84,6.64-14.84,5.17-14.84,5.17l-.9,13.59s17.14-1.72,21.54,5.7c5.3,8.94,3,17.69-5.99,20.26-10.92,3.13-18.73-.64-27.5-9.86l-20.77,37.41s25.69,10.97,47.25,8.05c21.56-2.92,36.3-9.63,41.03-21.16s3.71-23.49-4.05-34.96c-8.04-11.88-19.9-12.59-19.9-12.59,0,0,12.26-7.66,15.18-16.3,3.3-9.76-.13-22.72-7.25-29.4-9.22-8.65-17.97-12-33.26-10.3s-32.74,11.34-32.74,11.34Z"/><path class="cls-1" d="M499.4,437.12v-35.68l-21.9,3.84-4.16-48.16h-26.03l-39.46,60.12,6.99,28.97,31.87-4.08-4.99,40.62h48.83l-10.63-45.35,19.48-.28Zm-55.13-27.86l12.02-24.23,1.03,23.1-13.05,1.13Z"/><path class="cls-1" d="M531.53,364.47l-6.05,43.54,17.44,13.42s2.45-5.8,9.02-8.2c6.57-2.4,14.89,.86,17.21,4.41,3.3,5.03,3.3,17.23-4.5,20.38-7.79,3.15-16.87,2.79-30.77-5.45l-21.69,30.72s23.5,25.96,54.86,18.29c28.18-6.89,36.57-18.73,38.67-37.17,2.1-18.43-4.8-57.1-55.3-50.06l2.4-9.89,42.42-2.85-3.75-24.73-59.95,7.58Z"/><path class="cls-1" d="M925.48,392.13c.65,11.47,1.46,21.38,12.81,29.23,9.35,6.47,21.55,14.39,42.49,2.7,0,0,4.05,22.26-9.89,28.55-13.94,6.29-30.8-13.94-30.8-13.94l-13.98,25.63s10.91,13.48,25.02,16.01c18.55,3.32,31.36-2.31,38.87-9.04,7.52-6.72,15.09-23.99,16.01-35.7,.91-11.71,1.43-35.15-2.67-46.1-4.09-10.95-16.08-29.04-32.72-30.38-16.64-1.35-22.98,.02-32.33,6.07-9.34,6.05-13.46,15.51-12.81,26.98Zm43.08-18.3c6.49-.54,12.2,4.88,12.74,11.37l.29,3.43c.54,6.49-4.29,12.2-10.78,12.74-6.49,.54-12.2-4.29-12.74-10.78l-.29-3.43c-.54-6.49,4.29-12.79,10.78-13.33Z"/><path class="cls-1" d="M712.21,447.91c1.08-11.54,2.47-21.33-8.99-35.67-7.1-8.88-26.31-20.85-48.83-4.97,0,0-1-17.69,13.06-23.72,20.98-8.99,30.58,8.69,30.58,8.69l11.88-16.65s-10.91-13.48-25.02-16.01c-18.55-3.32-31.36,2.31-38.87,9.04-7.52,6.72-15.09,23.99-16.01,35.7-.91,11.71-1.43,35.15,2.67,46.1,4.09,10.95,16.08,29.04,32.72,30.38,16.64,1.35,22.98-.02,32.33-6.07,9.34-6.05,13.42-15.39,14.49-26.82Zm-26.54,6.25c-6.49,.54-12.2-4.88-12.74-11.37l-.29-3.43c-.54-6.49,4.29-12.2,10.78-12.74,6.49-.54,12.2,4.29,12.74,10.78l.29,3.43c.54,6.49-4.29,12.79-10.78,13.33Z"/><path class="cls-1" d="M724.8,361.13l3.78,31.3,37.21-7.9s-32.24,42.28-28.23,92.22l43.25,2.01s-8.46-34.86,0-59.62c8.46-24.77,22.22-38.45,22.22-38.45l-4.6-18.54-73.63-1.01Z"/><path class="cls-1" d="M884.75,415.15c7.51-5.08,12.35-13.29,12.35-23.53,0-17.61-14.72-31.82-32.33-31.82s-36.11,11.36-36.11,28.97c0,10.1,6.24,19.16,14.89,25.06-14.08,3.53-23.69,12.33-23.69,32.09,0,25.01,19.86,34.18,44.36,34.18s44.36-4.4,44.36-34.18c0-14.86-9.67-25.61-23.83-30.76Zm-19.45-34.05c2.52-4.36,8.66-5.54,13.71-2.62,5.05,2.92,7.11,8.82,4.59,13.18-2.52,4.36-8.66,5.54-13.71,2.62-5.05-2.92-7.11-8.82-4.59-13.18Zm21.02,64.71c-1.72,3.9-3.82,5.92-9.59,6.62-2.26,.27-4.17-.33-8.02-1.07,0,0-6.89-1.8-11.09-7.04-2.87-3.59-3.18-9.26-1.27-13.19,2.27-4.68,5.59-6.95,10.91-6.39,1.84,.19,4.81,.87,6.47,1.67,0,0,8.27,2.25,11.32,8.02,2.36,4.47,2.89,7.74,1.27,11.39Z"/><g><polygon class="cls-1" points="1164.53 484.29 1196.34 483.67 1196.18 460.88 1164.37 461.13 1164.53 484.29"/><path class="cls-1" d="M1146.52,411.48l27.33-7.42s-6.27-14,6.51-15.7c13.67-1.82,11.47,10.53,8.06,16.84-6.25,11.53-16.27,11.96-21.23,25.94-3.89,10.96-2.59,21.85-2.59,21.85l30.36-1.23s-2.04-7.88,5.55-19.12c8.22-12.17,25.68-16.74,24.67-38.04-.79-16.72-6.81-28.53-20.66-34.2-11.73-4.81-30.84-8.62-44.16,2.07-9.2,7.38-20.93,24.67-13.83,49.02Z"/></g><g><polygon class="cls-1" points="1358.35 458.93 1319.64 458.32 1322.71 431.1 1356.8 431.1 1358.35 458.93"/><polygon class="cls-1" points="1353.49 408.67 1320.38 408.67 1322.36 381.88 1350.07 380.95 1353.49 408.67"/></g></g></g></svg>