<?xml version="1.0" encoding="UTF-8"?><svg id="Layer_2" xmlns="http://www.w3.org/2000/svg" viewBox="0 0 3311.45 753.27"><defs><style>.cls-1{fill:#fff;}.cls-2{fill:#ff6635;}</style></defs><g id="Layer_4"><rect class="cls-2" width="3311.45" height="753.27"/><g><polygon class="cls-2" points="2121.73 544.08 2125.1 499.34 2119.52 543.1 1965.25 543.1 2025.57 209.22 2141.43 210.01 2245.98 209.19 2272.33 544.08 2121.73 544.08"/><polygon class="cls-1" points="2120.05 366.58 2156.84 368.9 2145.26 522.25 2248.72 522.25 2225.81 231.17 2152.96 231.75 2149.84 302.95 2118.15 301.52 2128.11 231.75 2043.78 231.17 1991.37 521.27 2100.3 521.27 2120.05 366.58"/><polygon class="cls-2" points="2282.68 448.63 2282.68 199.07 2437.33 195.41 2424.3 460.85 2282.68 448.63"/><polygon class="cls-1" points="2403.61 437.16 2304.51 428.61 2304.51 220.39 2414.38 217.79 2403.61 437.16"/><polygon class="cls-2" points="2277.3 540.07 2285.92 432.25 2421.28 443.2 2411.88 560.78 2277.3 540.07"/><polygon class="cls-1" points="2391.99 535.64 2300.67 521.58 2305.93 455.77 2397.78 463.2 2391.99 535.64"/><path class="cls-2" d="M1900.72,544.08c-79.66,0-129.87-34.35-131.97-35.81l-17.78-12.39,12.26-17.87c.14-.21,14.74-21.48,29.52-42.47,8.73-12.4,15.84-22.32,21.12-29.47,10.86-14.69,16.31-22.06,28.35-22.06h4.79l4.4,2.01c1.24,.57,2.15,1.11,3.8,2.09,21.33,12.65,31.58,14.46,35.32,14.58,.04-.05,.08-.11,.12-.16-3.39-2.54-11.33-7.22-29.06-13.17-33.71-11.32-48.5-31.55-54.98-46.52-9.41-21.76-8.31-47.43,3.1-72.29,12.56-27.36,43.24-56.59,91.68-56.59,27.36,0,56.19,9.48,85.69,28.17l20.03,12.7-48.3,63.83c52.89,22.48,82.82,64.77,82.82,118.19,0,28.5-14.7,56.25-40.34,76.15-26.21,20.34-60.98,31.08-100.57,31.08Z"/><path class="cls-1" d="M1975.39,260.57l-29.2,38.59s-36.15-14.6-46.19,2.79c-10.04,17.38,6.14,21.96,35.29,31.26,60.55,19.32,84.52,60.45,84.52,103.65s-45.36,85.4-119.08,85.4-119.49-31.89-119.49-31.89c0,0,58.72-85.58,61.04-84.51,2.32,1.07,47.83,30.96,63.34,12.88,15.51-18.08,12.66-33.36-37.07-50.06-49.73-16.7-53.48-57.44-38.99-89.02,17.09-37.23,70.46-66.87,145.85-19.09Z"/><polygon class="cls-2" points="1734.71 553.88 1704.98 452.59 1690.03 553.88 1522.87 553.88 1654.18 218.95 1731.6 227.41 1870.27 553.88 1734.71 553.88"/><path class="cls-1" d="M1687.8,419.5l29.17-3.54,34.08,116.09h86.23l-120.78-284.33-48.1-5.26-113.54,289.58h116.32l16.61-112.54Zm3.05-93.49l16,57.33h-25.72l9.72-57.33Z"/><path class="cls-2" d="M1327.1,554.73l27.27-333.75h20.12c131.8,0,195.33,13.02,199.89,86.99,1.33,21.61-2.96,37.46-9.6,49.04,27.9,15.6,49.11,44.61,49.11,85.08,0,71.59-38.39,112.64-105.33,112.64h-181.46Zm179.5-109.34c4.35-.6,8.11-1.58,11.01-2.91,4.65-2.12,5.23-3.96,5.26-7.3-1.67-1.15-6.74-3.25-16.7-3.97l.43,14.18Zm-26.86-133.91c3.51-.87,6.03-1.9,7.44-2.79-1.51-.73-3.93-1.55-7.27-2.22l-.17,5.01Z"/><path class="cls-1" d="M1520.09,365.8c17.64-4.68,34.73-20.34,32.51-56.48-2.98-48.34-33.02-66.51-178.11-66.51l-23.7,290.1h157.78c50.72,0,83.5-27.78,83.5-90.82,0-47.76-36.13-73.61-71.97-76.29Zm-61.24-82.28s51.97-4.06,50.97,25.42c-1,29.48-52.72,26.25-52.72,26.25l1.75-51.67Zm85.86,151.54c-.11,39.6-59.27,32.31-59.27,32.31l-1.73-57.39s61.1-7.99,61,25.08Z"/><path class="cls-2" d="M1080.3,555.08l54.94-334.55,193.15,1.12,12.08,70.02,4.28-.61,8.26,107.11,15.55-2.02,20.07,158.93h-308.33Zm168.66-143.36l31.91-4.15-31.82-1.34-.09,5.49Zm6.98-107.94l15.71-2.25-15.77,.26,.07,1.98Z"/><polygon class="cls-1" points="1226.74 436.62 1227.58 383.48 1330.32 387.79 1324.78 315.97 1234.94 328.83 1233.32 280.34 1316.12 278.95 1309.98 243.37 1153.75 242.46 1106 533.25 1363.87 533.25 1349.65 420.62 1226.74 436.62"/><polygon class="cls-2" points="1024.06 509.77 1021.92 552.66 874.12 551.96 903.57 226.96 1007.3 216.38 1009.96 293.78 1064.77 205.05 1188.07 283.63 1097.33 373.82 1208.44 536.72 1050.37 564.75 1024.06 509.77"/><polygon class="cls-1" points="923.68 246.85 986.29 240.46 990.61 366.63 1071.7 235.36 1153.34 287.38 1069.08 371.14 1171.38 521.12 1062.9 540.36 1006.55 422.63 1001.16 530.73 898 530.24 923.68 246.85"/></g></g></svg>