<?xml version="1.0" encoding="UTF-8"?><svg id="Layer_2" xmlns="http://www.w3.org/2000/svg" viewBox="0 0 735.76 327.27"><defs><style>.cls-1{fill:#fff;}.cls-2{fill:#5fc1d2;}.cls-3{fill:#e26da9;}.cls-4{fill:#474747;}.cls-5{fill:none;stroke:#000;stroke-linecap:round;stroke-linejoin:round;stroke-width:2px;}</style></defs><g id="Layer_1-2"><g><g><g><path class="cls-4" d="M220.63,178.69c-1.81,.32-8.57,1.63-16.18,4.33-1.95,.69-17.98,8.37-26.68,11.56-11.1,4.07-28.01,2.94-24.63,3.49,0,0,0,0,.01,0,5.97,.97,17.66,1.7,23.29,.31,5.33-1.32,10.39-3.35,15.49-5.31,4.8-1.84,9.48-3.97,14.31-5.76,4.76-1.77,9.6-3.31,14.39-4.96,4.5-1.55,9.11-2.77,13.84-3.32h0c.02-.09-.13-.17-.42-.24h0c-1.92-.5-9.92-.71-13.43-.1Z"/><path class="cls-4" d="M38.77,208.92c-1.92-.28-2.67-.05-5.09,.58-8.79,2.27-24.17,14.62-25.57,15.76-.03,.03-.06,.05-.08,.06-.01,0-.02,.02-.02,.02,.33-.12,21.35-7.74,27.84-8.27,2.07-.17,4.3,.35,6.45,1.22,.27,.11,.54,.22,.81,.34,5.84,2.6,10.99,7.45,10.99,7.45-.55-3.7-3.19-12.05-9.6-15.56-.26-1.12-.39-2.3-.27-3.48,.49-4.5,18.7-22.02,18.99-22.29,0,0,0,0,0,0-13.86,7.17-21.46,20.26-24.46,24.19Z"/><path class="cls-4" d="M390.27,226.14c-.64-2.25-1.71-4.29-2.87-6.31-2.03-3.53-4.72-6.58-7.12-9.85-2.98-4.06-5.08-8.53-5.72-13.55-.6-4.73-.45-9.5-.09-14.25,.22-2.88,.76-5.74,.89-8.62,.38-8.31,.05-16.56-1.82-24.74-3.39-14.8-10.81-26.97-22.95-36.23-5.91-4.51-12.13-8.45-18.8-11.73-3.98-1.96-7.8-4.24-11.91-5.96-1.02-.43-2.03-.84-3.06-1.22-.84-.32-1.68-.62-2.52-.91-3.35-1.13-6.77-1.98-10.34-2.28-2.08-.17-4.04-.61-5.74-1.93-.55-.43-1.22-.71-1.86-1.02-13.32-6.63-27.28-11.43-41.8-14.62-1.99-.44-3.64-1.33-5.05-2.65-3-2.82-6.01-5.64-8.64-8.83-3.97-4.82-8.04-9.56-12.93-13.5-8.35-6.74-17.62-12.53-28.67-12.98-3.24-.13-5.38,.52-6.17,4.05-.24,1.09,1.41,5.86,1.65,6.68,.83,2.84,1.56,5.72,1.02,8.72-.85,4.74-2.7,9.11-5.14,13.24-1.98,3.37-4.58,6.25-7.63,8.62-3.34,2.59-6.98,4.6-11.09,6.01-14.5,4.98-27.86,12.35-40.79,20.49-10.53,6.62-20.39,14.17-30.07,21.97-8.07,6.51-16.05,13.1-23.42,20.4-3.93,3.9-7.62,8.03-11.18,12.26-5.59,6.65-11.01,13.44-16.04,20.54-4.81,6.8-8.88,14.02-12.25,21.63-.52,1.18-1.12,1.91-2.53,1.89-1.08-.02-2.18,.19-3.24,.43-14.92,3.44-24.95,12.97-32.17,25.94-.55,.98-.13,1.53,1.06,1.59,.91,.05,1.82,.09,2.73,.12,3.39,.12,6.78,.13,10.18-.1,3.13-.21,6.24-.53,9.34-.95,3.08-.42,6.14-.95,9.19-1.6,1.54-.33,2.82-.2,4.22,.6,6.33,3.62,13.24,4.83,20.46,4.49,1.89-.09,2.02-.32,2.09-2.21,.12-3.18-.32-6.29-1.01-9.37-1.3-5.8-3.37-11.34-5.71-16.79-.39-.91-.53-1.6,.22-2.44,2.24-2.5,4.59-4.85,7.24-6.92,2.27-1.78,4.65-3.39,7.08-4.91,1.64-1.02,3.3-2,4.97-2.96,1.53-.88,3.07-1.73,4.61-2.59,10.4-5.79,21.25-10.4,32.84-13.23,5.05-1.23,10.14-2.13,15.25-2.74,1.92-.23,3.85-.42,5.78-.57,3.93-.31,7.88-.48,11.84-.52,4.32-.05,8.62,.11,12.88,.85,2.98,.52,5.95,1.04,8.93,1.55,5.83,1,11.63,2.17,17.33,3.79,1.08,.31,2.21,.56,3.11,1.3-.29,.71-.9,.86-1.36,1.17-1.96,1.35-2.9,3.37-4.8,4.79-5.91,4.4-10.43,8.03-17.31,10.76-3.12,1.24-8.08,2.51-11.39,3.11-1.9,.34-4.74-.09-6.66,.11-2.44,.26-4.74,.35-4.52,1.97,.19,1.37,7.59,4.32,12.21,6.2,4.13,1.68,10.17,3.44,14.65,3.66,6.27,.31,12.03-.53,18.05-2.28,9.08-2.64,15.5-4.7,24.07-8.78,2.73-1.3,7.93-2.57,10.85-3.35,2.7-.72,5.66-.63,7.37,1.11,2.02,2.07,4.51,3.41,7.32,4.1,.71,.18,1.28,.54,1.87,.96,2.58,1.84,4.78,4.11,7.14,6.19,3.66,3.22,7.64,5.87,12.32,7.4,2.97,.98,6.06,1.16,9.13,1.33,2.91,.16,5.76,.53,8.53,1.45,1.34,.45,2.69,.91,4.06,1.24,1.22,.3,2.26,.85,3.24,1.61,1.98,1.53,3.88,3.2,6.23,4.2,1.96,.84,3.8,1.88,5.64,2.95,3.85,2.23,7.89,4.06,12.16,5.35,6.17,1.86,12.46,3.19,18.75,4.55,9.79,2.12,19.32,4.88,27.92,10.3,6.96,4.39,14.58,5.88,22.75,4.71,3.98-.57,7.6-1.75,10.63-4.55,1.84-1.69,2.98-3.86,4.49-5.77,3-3.81,3.35-8.08,2.06-12.61ZM197.8,38.07c.38-.02,6.24,.52,6.61,.61,5.23,1.22,5.15,1.48,9.72,4.29,3.71,2.29,7.56,4.99,10.75,7.99,3.95,3.72,6.98,7.88,10.01,12.38,.55,.82,1.86,3.7,1.73,4.69,.19,1.15-1.05,1.87-2.47,2.22-.97,.24-2.03,.3-2.76,.21-.51-.07-1.02-.12-1.53-.17,.17-.43,.11-.93-.15-1.78-1.99-6.41-5.4-11.94-10.43-16.39-6.1-5.4-13.32-8.66-21.1-10.79-.3-.09-.61-.14-.92-.18-.24-.03-.49-.04-.73-.04-.1-.39-.18-.79-.26-1.19-.25-1.27,.21-1.79,1.53-1.85Zm-.64,4.58c-.16-.27-.29-.54-.4-.83,1.47,.23,2.89,.64,4.28,1.15,9.06,3.31,16.61,8.39,20.6,17.63,.66,1.54,1.28,3.08,1.46,4.77,.2,1.83-.29,3.29-1.92,4.29-.21,.13-.42,.27-.62,.42-.82,.02-1.64,.03-2.46,.04-4.31,.07-8.58,.61-12.83,1.32-1.79,.3-3.02,.61-5.02,.79-.85,.08-2.41-.43-3.06-.95-1.05-.84-.68-2.6-.16-3.88,.97-2.39,1.75-4.82,2.41-7.32,1.61-6.14,1.08-11.96-2.27-17.43Zm-15.98,43.21c1.14-.34,1.35-.72,2.16,.95,.25,.51,.52,1.01,.81,1.49,2.08,3.53,5.03,6.17,8.85,7.83,.29,.12,.58,.24,.88,.36,6.11,2.34,11.7,5.64,17.07,9.31,5.06,3.46,8.51,8.15,10.34,14.02,.48,1.54,.77,3.11,.97,4.71,.02,.13,.03,.26,.04,.38-1.41-.55-2.82-1.07-4.27-1.54-4.12-1.34-8.43-1.74-12.66-2.54-8.29-1.58-16.63-2.31-25.11-1.81-5.77,.34-11.55,.47-17.32,.86-1.02,.07-2.06,.05-3.09,.03-1.25-.03-2.2-.64-2.92-1.63-.61-.84-1.02-1.78-1.28-2.79-.61-2.41-.69-4.86-.15-7.27,.27-1.24,.59-2.46,.95-3.67,.72-2.45,1.62-4.85,2.67-7.17,.66-1.45,1.39-2.89,2.17-4.29,6.45-2.78,13.07-5.2,19.87-7.24Zm-15.88,76.83c-5.2-1.18-10.49-1.89-15.86-1.9-12.94-.03-25.85,.42-38.48,3.56-15.97,3.97-30.74,10.64-43.93,20.56-5.83,4.39-11,9.52-15.71,15.09-.15,.18-.3,.37-.43,.56-3.16,4.42-2.45,5.52,.02,8.81,3.9,5.22,5.86,11.11,6.44,17.51,.25,2.68-.14,2.99-2.72,2.61-1.91-.28-3.81-.61-5.7-1.01-1.65-.35-3.24-.81-4.75-1.42-2.39-.95-4.59-2.27-6.53-4.12-.18-.17-.36-.32-.53-.44-.92-.65-1.8-.66-3.06-.15-6.71,2.73-13.7,4.4-20.94,4.96-2.76,.21-5.51,.5-8.26,.72-.11,0-.22,.02-.34,.02-.53,.02-1.11-.01-1.91-.01,.58-.81,.9-1.37,1.33-1.83,6.97-7.72,14.77-14.31,24.76-17.85,2.13-.76,4.31-1.27,6.53-1.68,1.68-.31,2.33-.69,3.47-2.02,.53-.61,1.41-3.75,1.77-4.34,4.21-6.93,8.4-13.87,13.61-20.13,5.6-6.72,11.22-13.42,17.12-19.89,6.33-6.95,12.9-13.68,19.99-19.84,13.46-11.69,27.27-22.95,42.34-32.57,8.52-5.45,17.36-10.21,26.53-14.24-.81,1.39-1.56,2.81-2.26,4.27-1.1,2.3-2.05,4.68-2.86,7.11-.29,.88-.57,1.76-.83,2.66-.92,3.15-.83,6.37,.19,9.51,1.01,3.1,3.23,4.69,6.48,4.79,1.36,.04,2.69-.26,4.03-.3,4.63-.12,9.24-.52,13.88-.46,5.08,.06,10.13-.37,15.19,.21,4.8,.55,9.62,1.53,14.34,2.47,3.21,.64,6.41,1.37,9.56,2.36,1.46,.46,2.91,.99,4.36,1.47-.58,2.58-2.25,4.69-4.14,6.7-.48,.51-.97,1.01-1.46,1.5-4.12,2.75-8.43,4.62-12.17,7.46-1.8,1.37-3.6,2.72-4.93,4.58-.61,.86-1.44,1-2.38,.93-3.2-.25-6.4-.1-9.61-.08-8.36,.07-16.72-.13-25.05,.8-4.21,.47-8.44,.86-12.64,1.44-4.39,.6-8.76,1.41-13.14,2.09-7.7,1.19-15.29,2.9-22.73,5.24-9.92,3.11-18.38,7.03-28.54,12.17-2.16,1.09-4.28,2.31-6.54,3.53,.46,.03,.78,.06,1.05,.05,.42,0,.73-.1,1.34-.45,8.69-4.88,17.73-8.28,27.18-11.28,1-.32,1.97-.63,2.92-.94,0,0,0,0,.01,0,4.16-1.33,8.01-2.54,12.51-3.37,4.78-.88,8.62-1.35,11.88-1.68,5.82-.58,11.82-1.25,17.66-1.48,4.35-.17,8.52-.22,12.73-.09h0c2.7,.08,5.41,.24,8.18,.48,2.62,.23,7.39,.8,9.96,1.38,1.79,.4,5.72,1.78,6.22,4.92,.36,2.3-1.78,4.48-1.15,6.75-7.91-2.27-15.97-3.89-23.99-5.7Zm76.67,22.04c-.43,.05-.9-.07-1.32-.2-.57-.18-.91-.39-1.03-.68,.43-.25,.85-.5,1.27-.75,1.88-1.11,2.42-4.13,1.37-6.06-1.32-2.43-5.04-3.93-7.79-3.49-.31,.05-.55-.61-.62-.22-.05,.34,.18,.62,.44,.8,.33,.23,1.56,.46,1.85,.73,.61,.24,1.71,.89,1.97,1.15,.99,.99,.79,2.5,.2,3.52-.03,.06-.07,.11-.11,.16-.69,.89-2.48,1.18-4.01,1.58,0,0,0,0-.01,0-1.14,.37-2.32,.59-3.49,.68-4.63,.36-8.48,2.99-12.74,4.64-8.76,3.39-12.66,4.84-21.31,8.49-6.52,2.75-18.2,6.51-25.25,7.1-7.1,.59-10.86-1.34-14.64-1.75-1.29-.14-4.06-.81-6.66-1.54h0s0,0,0,0c-1.9-.54-3.71-1.11-4.77-1.53-.33-.13-.59-.25-.76-.34l11.06-.74c6.73-1.09,12.99-3.9,18.93-7.79,6.68-4.37,13.39-8.67,20.6-12.14,3.53-1.7,7.04-3.5,10.96-4.18,2.65-.46,5.31-.95,8.04-.53,.8,.12,1.66-.12,2.49-.16,2.35-.1,4.57,.64,6.85,.99,1.37,.21,2.7,.18,3.98-.34,1.14-.47,1.26-1.43,.31-2.22-.46-.38-1.03-.48-1.6-.62-1.37-.34-2.75-.68-4.08-1.15-1.14-.41-1.19-1-.23-1.78,2.8-2.27,5.99-3.13,9.56-2.57,2.22,.35,4.44,.72,6.65,1.17,4.66,.95,7.7,3.92,9.99,7.83,.81,1.39,1.46,2.87,1.8,4.46,.31,1.48,.31,2.91-.21,4.29-.72,.92-1.71,1.66-3.02,2.18-1.52,.6-3.1,.83-4.69,1.01Zm26.05,10.76c.15,2.06,.28,3.31,.49,5.36,.11,1.1,1.4,7.17-4.38,6.18-2.09-.36-3.96-.4-6-.98-2.75-.77-4.74-2.17-8.03-3.51h0c-1.02-.42-2.44-1.59-3.67-2.83-1.5-1.52-2.72-3.13-2.59-3.55,.18-.56,.06-1.16,.61-1.38,0,0,0,0,.01,0,.48-.19,1.01-.16,1.46,.09,1.19,.68,2.4,1.32,3.66,1.87,3.53,1.55,6.18,3.19,9.83,4.46,1.62,.56,4.12,1.85,5.97,1.58,.7-.1,1.02-.22,1.28-.94,.28-.76-1.33-1.51-1.83-1.83-2.27-1.45-3.46-2.59-5.69-4.1-1.97-1.33-3.77-2.82-5.04-4.95-.53-.89-.99-1.76-1.26-2.64,3.26-4.05,3.98-8.61,2.3-13.72-1.61-4.9-4.62-8.72-8.93-11.51-4.35-2.81-9.04-4.55-14.32-4.56-2.96,0-5.91-.23-8.8,.69-1.11,.35-2.25,.62-3.25,1.2-2.99,1.73-6.28,3.05-8.47,5.92-.39,.51-.92,.66-1.53,.65-3.25-.07-6.39,.62-9.53,1.3-1.59,.34-1.78,.18-1.81-1.45-.04-1.91,.52-3.68,1.3-5.39,2.2-4.85,5.61-8.73,9.64-12.13,3.88-3.28,7.74-6.59,11.57-9.92,1.75-1.52,2.92-2.94,4.32-4.79,3.71-4.9,4.36-8.17,3.1-13.8-1.6-7.16-3.95-10.95-10.06-16.08-4.86-4.08-8.06-6.42-13.94-8.75-.84-.33-6.39-2.97-7.24-3.29-3.1-1.16-5.92-3.34-7.73-5.82-.77-1.05,.34-3.55,1.18-4.51,2.54-2.91,5.51-5.21,9.44-5.92,7.94-1.43,15.96-1.69,24.01-1.61,10.52,.11,20.93,1.13,31.16,3.58,9.52,2.28,18.82,5.29,27.93,8.89,1.28,.51,2.42,1.16,3.25,2.3,0,.01,.02,.03,.03,.04,1.4,1.94,2.69,5.67,.71,6.93-7.68,4.89-14.41,11.04-19.29,18.5-2.41,3.68-4.29,8.47-5.72,13.36,0,0,0,0,0,0-1.27,4.32-2.19,8.72-2.83,12.53-1.78,10.57-.16,17.34,3.13,27.57,.48,1.49,1,4.22,1.66,5.62,.58,1.97,3.45,7.35,4.16,9.27,1.92,5.23-.66,6.54-.26,12.04Zm-2.1-33.8c-1.74-7.26-2.21-14.59-1.43-22.02,.6-5.73,1.82-11.29,3.91-16.66,1.84-4.74,4.62-8.87,8.04-12.61,.65-.71,1.31-1.39,2-2.06,3.96-3.83,8.51-6.86,13.46-9.33,2.04-1.02,4.17-1.82,6.35-2.4h0c1.98-.53,3.99-.89,6.03-1.08,2.98-.28,6.04,.3,8.93,1.24,4.52,1.48,8.87,3.29,13.04,5.43-.41-.02-.82-.02-1.23,.03-1.68,.17-3.36,.36-5.03,.63-2.85,.44-5.65,1.09-8.34,2.15-4.1,1.62-7.86,3.64-11.28,6.05-7.4,5.2-13.18,12.2-17.31,20.88-3.03,6.37-3.64,12.99-2.83,19.99,.56,4.84,1.74,7.99,4.08,12.17,1.97,3.53,6.43,7.18,10.13,8.88,1.23,.56,3.65,1.53,4.87,2.1,6.26,2.95,10.11,5.06,16.17,8.42-.07,1.3-.12,3.5,.21,4.95,.54,2.35,1.74,4.15,3.16,5.22,1.68,1.27,4,2.04,6.88-.28,.12-.09,.2-.23,.3-.35,.14,.21,.28,.43,.42,.65,.51,.82,1.11,1.58,1.72,2.33,2.51,3.1,4.33,6.52,5.04,10.5,.17,.94,.5,1.87,.85,2.76,.14,.35,.28,.69,.42,1.03-3.16-1.85-6-1.9-9.5-3.16-9.44-3.4-19.66-6.23-28.85-10.29-5.55-2.45-11.94-5.78-16.65-9.7-2.39-1.99-5.21-5.11-6.96-7.7-3.66-5.41-5.07-11.33-6.61-17.77Zm89.57,80.66c-3.15-1.73-6.99-4.22-10.16-5.92-7.48-4.01-20.12-8.32-26.24-8.88-7.62-.7-27.52-10.33-28.51-12.13,2.29,.02,6.67,.19,8.79,.74,1.49,.39,3.02,.63,4.54,.9,7.91,1.42,15.87,2.6,23.47,5.36,7.01,2.55,14.11,4.93,19.88,9.97,.4,.35,.86,.76,1.47,.57,.14-.71-.3-1.06-.59-1.46-1.01-1.36-2.25-2.49-3.62-3.45-5.66-3.94-11.54-7.56-17.96-10.1-9.09-3.6-18.38-5.01-27.8-7.64-5.14-1.44-11.03-2.87-15.88-5.15-2.76-1.29-5.65-3-7.51-5.33-1.39-1.74-1.26-5.79-.68-7.14,.8-.82,2.56-.21,3.66,.39,.5,.28,.99,.61,1.42,.99,3.46,3.1,7.56,5.07,11.81,6.79,4.66,1.89,9.5,3.2,14.32,4.58,5.5,1.57,10.93,3.4,16.36,5.19,4.92,1.61,9.23,4.23,13.23,7.4,3.93,3.12,7.82,6.28,11.69,9.47,3.09,2.54,5.61,5.66,8.54,8.37,3.23,2.99,10.88,7.59,11.21,7.96-3.85,1.18-7.94,.44-11.45-1.48Zm22.72-6.1c-1.64,.33-3.28,.64-4.93,.91-2.35,.39-4.58,.08-6.71-1.1-4.21-2.32-7.79-5.45-11.35-8.62-4.51-4.02-8.8-8.29-13.49-12.12-1.01-.82-2.05-1.61-3.1-2.35-.54-.75-.99-1.56-1.4-2.4-.75-1.58-1.18-3.26-1.6-4.95-.55-2.18-.99-4.42-2.22-6.35-1.83-2.87-3.8-5.64-5.98-8.23,1.08-1.82,1.72-3.9,1.69-6.37,.16-1.84-.5-3.77-1.68-5.51-2.23-3.29-7.38-3.82-9.73-.95-.88,1.08-1.53,2.21-1.93,3.39-1.02-.54-2.05-1.07-3.07-1.6-6.28-3.26-12.13-5.74-18.48-8.89-2.97-1.47-6.06-4.14-7.76-6.97-3.64-6.05-5.43-13.08-4.75-20.26,.48-5.02,1.94-9.2,4.32-13.64,3.53-6.58,8.34-12.08,14.2-16.6,.76-.59,1.53-1.16,2.31-1.72,4.86-3.5,10.09-6.39,16.17-7.47,1.1-.19,2.11-.41,3.14-.6h0c1.52-.27,3.1-.46,5.1-.37,.8,.03,.98,.13,2.41,.39,4.42,2.49,8.63,5.35,12.64,8.58,2.86,2.3,5.68,4.63,8.34,7.17,7.28,6.95,12.16,15.4,15.61,24.76,2.78,7.53,3.83,15.32,3.5,22.96,.16,5.12-.32,9.85-.68,14.59-.4,5.21-.12,10.42,.81,15.57,.93,5.1,3.38,9.55,6.31,13.76,1.36,1.96,2.78,3.87,4.08,5.87,1.98,3.04,3.46,6.32,4.25,9.88,1.04,4.69-1.34,8.3-6.03,9.24Z"/></g><g><path class="cls-2" d="M366.94,243.83c-3.85,1.18-7.94,.44-11.45-1.48-3.15-1.73-6.99-4.22-10.16-5.92-7.48-4.01-20.12-8.32-26.24-8.88-7.62-.7-27.52-10.33-28.51-12.13,2.29,.02,6.67,.19,8.79,.74,1.49,.39,3.02,.63,4.54,.9,7.91,1.42,15.87,2.6,23.47,5.36,7.01,2.55,14.11,4.93,19.88,9.97,.4,.35,.86,.76,1.47,.57,.14-.71-.3-1.06-.59-1.46-1.01-1.36-2.25-2.49-3.62-3.45-5.66-3.94-11.54-7.56-17.96-10.1-9.09-3.6-18.38-5.01-27.8-7.64-5.14-1.44-11.03-2.87-15.88-5.15-2.76-1.29-5.65-3-7.51-5.33-1.39-1.74-1.26-5.79-.68-7.14,.8-.82,2.56-.21,3.66,.39,.5,.28,.99,.61,1.42,.99,3.46,3.1,7.56,5.07,11.81,6.79,4.66,1.89,9.5,3.2,14.32,4.58,5.5,1.57,10.93,3.4,16.36,5.19,4.92,1.61,9.23,4.23,13.23,7.4,3.93,3.12,7.82,6.28,11.69,9.47,3.09,2.54,5.61,5.66,8.54,8.37,3.23,2.99,10.88,7.59,11.21,7.96Z"/><path class="cls-2" d="M238.21,179.7c-.69,.89-2.48,1.18-4.01,1.58,0,0,0,0-.01,0-1.14,.37-2.32,.59-3.49,.68-4.63,.36-8.48,2.99-12.74,4.64-8.76,3.39-12.66,4.84-21.31,8.49-6.52,2.75-18.2,6.51-25.25,7.1-7.1,.59-10.86-1.34-14.64-1.75-1.29-.14-4.06-.81-6.66-1.54h0s0,0,0,0c-1.9-.54-3.71-1.11-4.77-1.53,2.58,.52,5.19,.67,7.82,.69,0,0,0,0,.01,0,5.97,.97,17.66,1.7,23.29,.31,5.33-1.32,10.39-3.35,15.49-5.31,4.8-1.84,9.48-3.97,14.31-5.76,4.76-1.77,9.6-3.31,14.39-4.96,4.5-1.55,9.11-2.77,13.84-3.32h0c.02-.09-.13-.17-.42-.24,1.05,.14,2.1,.34,3.14,.62,.34,.09,.68,.19,1.01,.3Z"/><path class="cls-2" d="M286.46,89.66c-.96,.98-2.8,1.44-4.17,1.29-.34-.03-6.89-1.96-9.66-3.07-8.16-3.27-16.63-5.39-25.18-7.28-5.97-1.32-12-2.24-18.09-2.81-4.7-.43-9.38-.4-14.07-.13-5.2,.3-10.21,1.79-15.26,2.97-1.01,.24-2,.59-2.94,1.03-.51,.24-1.07,.5-1.52,1.5,.69-.34,1.29-.64,1.85-.9,.56-.26,1.08-.47,1.61-.63,3.16-.95,6.44-1.31,9.7-1.53,6.06-.4,12.07,.08,18.02,1.39,8.67,1.91,17.25,4.17,25.73,6.84,4.79,1.51,9.54,3.11,14.23,4.9,4.66,1.79,9.49,2.3,2.76,10.97-2.41,3.11-3.84,6.82-4.86,10.66-1.19,4.47-1.82,9.02-2.45,13.58,0,0,0,0,0,0-1.27,4.32-2.19,8.72-2.83,12.53-1.78,10.57-.16,17.34,3.13,27.57,.48,1.49,1,4.22,1.66,5.62,.58,1.97,3.45,7.35,4.16,9.27,1.92,5.23-.66,6.54-.26,12.04,.15,2.06,.28,3.31,.49,5.36,.11,1.1,1.4,7.17-4.38,6.18-2.09-.36-3.96-.4-6-.98-2.75-.77-4.74-2.17-8.03-3.51h0c-1.02-.42-2.44-1.59-3.67-2.83-1.5-1.52-2.72-3.13-2.59-3.55,.18-.56,.06-1.16,.61-1.38,0,0,0,0,.01,0,.48-.19,1.01-.16,1.46,.09,1.19,.68,2.4,1.32,3.66,1.87,3.53,1.55,6.18,3.19,9.83,4.46,1.62,.56,4.12,1.85,5.97,1.58,.7-.1,1.02-.22,1.28-.94,.28-.76-1.33-1.51-1.83-1.83-2.27-1.45-3.46-2.59-5.69-4.1-1.97-1.33-3.77-2.82-5.04-4.95-.53-.89-.99-1.76-1.26-2.64,3.26-4.05,3.98-8.61,2.3-13.72-1.61-4.9-4.62-8.72-8.93-11.51-4.35-2.81-9.04-4.55-14.32-4.56-2.96,0-5.91-.23-8.8,.69-1.11,.35-2.25,.62-3.25,1.2-2.99,1.73-6.28,3.05-8.47,5.92-.39,.51-.92,.66-1.53,.65-3.25-.07-6.39,.62-9.53,1.3-1.59,.34-1.78,.18-1.81-1.45-.04-1.91,.52-3.68,1.3-5.39,2.2-4.85,5.61-8.73,9.64-12.13,3.88-3.28,7.74-6.59,11.57-9.92,1.75-1.52,2.92-2.94,4.32-4.79,3.71-4.9,4.36-8.17,3.1-13.8-1.6-7.16-3.95-10.95-10.06-16.08-4.86-4.08-8.06-6.42-13.94-8.75-.84-.33-6.39-2.97-7.24-3.29-3.1-1.16-5.92-3.34-7.73-5.82-.77-1.05,.34-3.55,1.18-4.51,2.54-2.91,5.51-5.21,9.44-5.92,7.94-1.43,15.96-1.69,24.01-1.61,10.52,.11,20.93,1.13,31.16,3.58,9.52,2.28,18.82,5.29,27.93,8.89,1.28,.51,2.42,1.16,3.25,2.3,0,.01,.02,.03,.03,.04Z"/><path class="cls-2" d="M189.3,168.39c-7.91-2.27-15.97-3.89-23.99-5.7-5.2-1.18-10.49-1.89-15.86-1.9-12.94-.03-25.85,.42-38.48,3.56-15.97,3.97-30.74,10.64-43.93,20.56-5.83,4.39-11,9.52-15.71,15.09-.15,.18-.3,.37-.43,.56-3.16,4.42-2.45,5.52,.02,8.81,3.9,5.22,5.86,11.11,6.44,17.51,.25,2.68-.14,2.99-2.72,2.61-1.91-.28-3.81-.61-5.7-1.01-1.65-.35-3.24-.81-4.75-1.42-2.39-.95-4.59-2.27-6.53-4.12-.18-.17-.36-.32-.53-.44-.92-.65-1.8-.66-3.06-.15-6.71,2.73-13.7,4.4-20.94,4.96-2.76,.21-5.51,.5-8.26,.72-.11,0-.22,.02-.34,.02,.19-.16,.4-.31,.6-.47,.96-.75,1.93-1.5,2.9-2.25,0,0,0,0,0,0,.33-.12,21.35-7.74,27.84-8.27,2.07-.17,4.3,.35,6.45,1.22,.27,.11,.54,.22,.81,.34,5.84,2.6,10.99,7.45,10.99,7.45-.55-3.7-3.19-12.05-9.6-15.56-.26-1.12-.39-2.3-.27-3.48,.49-4.5,18.7-22.02,18.99-22.29,0,0,0,0,0,0,2.36-1.86,4.87-3.55,7.42-5.17,3.02-1.93,6.08-3.74,9.19-5.43,.42,0,.73-.1,1.34-.45,8.69-4.88,17.73-8.28,27.18-11.28,1-.32,1.97-.63,2.92-.94,0,0,0,0,.01,0,4.48-1.24,9.03-2.28,13.66-3.12,7.16-1.31,14.38-2.04,21.65-2.49,6.49-.4,12.98-.74,19.47-1.01h0c2.7,.08,5.41,.24,8.18,.48,2.62,.23,7.39,.8,9.96,1.38,1.79,.4,5.72,1.78,6.22,4.92,.36,2.3-1.78,4.48-1.15,6.75Z"/></g><g><path class="cls-3" d="M249.68,181.54c-.72,.92-1.71,1.66-3.02,2.18-1.52,.6-3.1,.83-4.69,1.01-.43,.05-.9-.07-1.32-.2-.57-.18-.91-.39-1.03-.68,.43-.25,.85-.5,1.27-.75,1.88-1.11,2.42-4.13,1.37-6.06-1.32-2.43-5.04-3.93-7.79-3.49-.31,.05-.55-.61-.62-.22-.05,.34,.18,.62,.44,.8,.33,.23,1.56,.46,1.85,.73,.61,.24,1.71,.89,1.97,1.15,.99,.99,.79,2.5,.2,3.52-.03,.06-.07,.11-.11,.16-.33-.11-.67-.21-1.01-.3-1.04-.28-2.09-.48-3.14-.62h0c-1.92-.5-9.92-.71-13.43-.1-1.81,.32-8.57,1.63-16.18,4.33-1.95,.69-17.98,8.37-26.68,11.56-11.1,4.07-28.01,2.94-24.63,3.49-2.63-.02-5.24-.17-7.82-.69-.33-.13-.59-.25-.76-.34l11.06-.74c6.73-1.09,12.99-3.9,18.93-7.79,6.68-4.37,13.39-8.67,20.6-12.14,3.53-1.7,7.04-3.5,10.96-4.18,2.65-.46,5.31-.95,8.04-.53,.8,.12,1.66-.12,2.49-.16,2.35-.1,4.57,.64,6.85,.99,1.37,.21,2.7,.18,3.98-.34,1.14-.47,1.26-1.43,.31-2.22-.46-.38-1.03-.48-1.6-.62-1.37-.34-2.75-.68-4.08-1.15-1.14-.41-1.19-1-.23-1.78,2.8-2.27,5.99-3.13,9.56-2.57,2.22,.35,4.44,.72,6.65,1.17,4.66,.95,7.7,3.92,9.99,7.83,.81,1.39,1.46,2.87,1.8,4.46,.31,1.48,.31,2.91-.21,4.29Z"/><path class="cls-3" d="M378.21,236.25c-1.64,.33-3.28,.64-4.93,.91-2.35,.39-4.58,.08-6.71-1.1-4.21-2.32-7.79-5.45-11.35-8.62-4.51-4.02-8.8-8.29-13.49-12.12-1.01-.82-2.05-1.61-3.1-2.35-.54-.75-.99-1.56-1.4-2.4-.75-1.58-1.18-3.26-1.6-4.95-.55-2.18-.99-4.42-2.22-6.35-1.83-2.87-3.8-5.64-5.98-8.23,1.08-1.82,1.72-3.9,1.69-6.37,.16-1.84-.5-3.77-1.68-5.51-2.23-3.29-7.38-3.82-9.73-.95-.88,1.08-1.53,2.21-1.93,3.39-1.02-.54-2.05-1.07-3.07-1.6-6.28-3.26-12.13-5.74-18.48-8.89-2.97-1.47-6.06-4.14-7.76-6.97-3.64-6.05-5.43-13.08-4.75-20.26,.48-5.02,1.94-9.2,4.32-13.64,3.53-6.58,8.34-12.08,14.2-16.6,.76-.59,1.53-1.16,2.31-1.72,.57,.24,1.07,.46,1.43,.63l1.12,.45c-.3,.21-.49,.34-.67,.48-2.77,2.1-5.51,4.24-7.83,6.86-.38,.43-.73,.9-1.04,1.38-.18,.29-.15,.64,.15,.85,.24,.17,.47,.04,.66-.12,.13-.11,.25-.24,.36-.37,2.71-3.08,6.09-5.2,9.7-7.04,1.08-.55,2.05-.64,3.1-.24,.2,.1,.41,.19,.62,.29l.08,.04s0,0,0,0c5.34,2.58,22.68,13.57,26.11,16.25,3.39,2.65,20.5,13.27,24.61,39.53,.61,3.87,1.18,7.77,1.12,11.67-.07,5.21-.28,10.61,1.2,15.56,2.03,6.76,5.93,12.75,10.02,18.53,1.53,2.16,2.87,4.42,3.61,6.99,1.53,5.37-2.85,9.38-7.49,8.45-.35-.07-.76-.23-1.1,.27,.37,.6,3.52,1.5,6.3,1.5,.71,0,1.39-.06,2-.19,2.14-.48,3.74-1.29,4.34-3.78,.71-3.01,.38-6.41-2.69-11.2-2.02-3.15-3.86-5.34-6.21-9.33-3.23-5.49-5.98-8.67-6.82-14.99-.66-5-.29-20.94-.58-24.8-.25-3.27-.6-6.52-1.01-9.77-2.82-22.58-21.75-43.59-30.8-49.25-.31-.19-5.24-3.52-11-6.72,1.52-.27,3.1-.46,5.1-.37,.8,.03,.98,.13,2.41,.39,4.42,2.49,8.63,5.35,12.64,8.58,2.86,2.3,5.68,4.63,8.34,7.17,7.28,6.95,12.16,15.4,15.61,24.76,2.78,7.53,3.83,15.32,3.5,22.96,.16,5.12-.32,9.85-.68,14.59-.4,5.21-.12,10.42,.81,15.57,.93,5.1,3.38,9.55,6.31,13.76,1.36,1.96,2.78,3.87,4.08,5.87,1.98,3.04,3.46,6.32,4.25,9.88,1.04,4.69-1.34,8.3-6.03,9.24Z"/><path class="cls-3" d="M334.48,210.3c-3.16-1.85-6-1.9-9.5-3.16-9.44-3.4-19.66-6.23-28.85-10.29-5.55-2.45-11.94-5.78-16.65-9.7-2.39-1.99-5.21-5.11-6.96-7.7-3.66-5.41-5.07-11.33-6.61-17.77-1.74-7.26-2.21-14.59-1.43-22.02,.6-5.73,1.82-11.29,3.91-16.66,1.84-4.74,4.62-8.87,8.04-12.61,.65-.71,1.31-1.39,2-2.06,1.32-.91,2.75-1.86,3.56-1.89,3.03-.09,11.35,1.43,8.95,5.09-1.25,1.91-2.28,3.77-3.37,5.76-.99,1.8-1.44,3.38-1.75,4.81,.44-.86,.84-1.51,1.21-2.05,.37-.54,.71-.98,1.04-1.43,1.73-2.36,5.81-6.14,7.79-7.88,.68-.6,1.64-.78,2.49-.47,.59,.21,1.29,.48,2.01,.77-7.4,5.2-13.18,12.2-17.31,20.88-3.03,6.37-3.64,12.99-2.83,19.99,.56,4.84,1.74,7.99,4.08,12.17,1.97,3.53,6.43,7.18,10.13,8.88,1.23,.56,3.65,1.53,4.87,2.1,6.26,2.95,10.11,5.06,16.17,8.42-.07,1.3-.12,3.5,.21,4.95,.54,2.35,1.74,4.15,3.16,5.22,1.68,1.27,4,2.04,6.88-.28,.12-.09,.2-.23,.3-.35,.14,.21,.28,.43,.42,.65,.51,.82,1.11,1.58,1.72,2.33,2.51,3.1,4.33,6.52,5.04,10.5,.17,.94,.5,1.87,.85,2.76,.14,.35,.28,.69,.42,1.03Z"/><path class="cls-3" d="M221.18,69.66c-.21,.13-.42,.27-.62,.42-.82,.02-1.64,.03-2.46,.04-4.31,.07-8.58,.61-12.83,1.32-1.79,.3-3.02,.61-5.02,.79-.85,.08-2.41-.43-3.06-.95-1.05-.84-.68-2.6-.16-3.88,.97-2.39,1.75-4.82,2.41-7.32,1.61-6.14,1.08-11.96-2.27-17.43-.16-.27-.29-.54-.4-.83,1.47,.23,2.89,.64,4.28,1.15,9.06,3.31,16.61,8.39,20.6,17.63,.66,1.54,1.28,3.08,1.46,4.77,.2,1.83-.29,3.29-1.92,4.29Z"/><path class="cls-3" d="M184.15,88.31c-5.81,1.51-11.43,3.6-17.02,5.76-1.32,.51-2.63,1.06-3.95,1.57-.67,.26-.97,.01-.91-.72,.04-.44,.56-1.08-.22-1.26-.62-.14-.78,.54-1.02,.98-.09,.17-.19,.35-.23,.53-.26,1.13-.88,1.79-1.67,2.22,.66-1.45,1.39-2.89,2.17-4.29,6.45-2.78,13.07-5.2,19.87-7.24,1.14-.34,1.35-.72,2.16,.95,.25,.51,.52,1.01,.81,1.49Z"/><path class="cls-3" d="M222.31,124.93c-1.41-.55-2.82-1.07-4.27-1.54-4.12-1.34-8.43-1.74-12.66-2.54-8.29-1.58-16.63-2.31-25.11-1.81-5.77,.34-11.55,.47-17.32,.86-1.02,.07-2.06,.05-3.09,.03-1.25-.03-2.2-.64-2.92-1.63-.61-.84-1.02-1.78-1.28-2.79-.61-2.41-.69-4.86-.15-7.27,.27-1.24,.59-2.46,.95-3.67,.05,.01,.1,.03,.16,.05,.85,.36,.19,1.35,.03,2.05-.28,1.19-.63,2.36-.65,3.59,0,.25,.14,.54,.45,.51,.15-.02,.34-.19,.42-.34,.14-.28,.22-.6,.3-.91,.48-1.97,1.48-3.68,2.58-5.36,.78-1.19,1.84-1.86,3.19-2.32,6.1-2.07,12.37-3.52,18.55-5.29,3.04-.87,6.05-.88,9.16-.53,.78,.09,1.58,.12,2.38,.12,.29,.12,.58,.24,.88,.36,6.11,2.34,11.7,5.64,17.07,9.31,5.06,3.46,8.51,8.15,10.34,14.02,.48,1.54,.77,3.11,.97,4.71,.02,.13,.03,.26,.04,.38Z"/><path class="cls-3" d="M222.13,127.74c-.58,2.58-2.25,4.69-4.14,6.7-.48,.51-.97,1.01-1.46,1.5-4.12,2.75-8.43,4.62-12.17,7.46-1.8,1.37-3.6,2.72-4.93,4.58-.61,.86-1.44,1-2.38,.93-3.2-.25-6.4-.1-9.61-.08-8.36,.07-16.72-.13-25.05,.8-4.21,.47-8.44,.86-12.64,1.44-4.39,.6-8.76,1.41-13.14,2.09-7.7,1.19-15.29,2.9-22.73,5.24-9.92,3.11-18.38,7.03-28.54,12.17-2.16,1.09-4.28,2.31-6.54,3.53,.46,.03,.78,.06,1.05,.05-3.11,1.69-6.18,3.5-9.19,5.43-2.55,1.63-5.05,3.31-7.42,5.17-13.86,7.17-21.46,20.26-24.46,24.19-1.92-.28-2.67-.05-5.09,.58-8.79,2.27-24.17,14.62-25.57,15.76-.03,.03-.06,.05-.08,.06-.01,0-.02,.02-.02,.02,0,0,0,0,0,0-.97,.75-1.94,1.5-2.9,2.25-.2,.16-.41,.31-.6,.47-.53,.02-1.11-.01-1.91-.01,.58-.81,.9-1.37,1.33-1.83,6.97-7.72,14.77-14.31,24.76-17.85,2.13-.76,4.31-1.27,6.53-1.68,1.68-.31,2.33-.69,3.47-2.02,.53-.61,1.41-3.75,1.77-4.34,4.21-6.93,8.4-13.87,13.61-20.13,5.6-6.72,11.22-13.42,17.12-19.89,6.33-6.95,12.9-13.68,19.99-19.84,13.46-11.69,27.27-22.95,42.34-32.57,8.52-5.45,17.36-10.21,26.53-14.24-.81,1.39-1.56,2.81-2.26,4.27-.18,.05-.36,.1-.54,.14-.26-.23-.23-.42-.21-.61,.03-.41,.37-.95-.29-1.12-.46-.11-.88,.12-1.16,.53-.11,.16-.22,.32-.3,.5-.71,1.64-2.01,2.59-3.59,3.31-3.04,1.4-6.11,2.72-9.04,4.36-10.43,5.82-19.97,12.92-29.3,20.32-.5,.4-33.67,29.58-33.79,30.33,.41,.14,32.08-27.7,32.28-27.85,2.01-1.49,5.11-3.72,7.13-5.2,5.51-4,11.76-6.98,17.86-9.86,3.08-1.45,6.25-2.73,9.39-4.06,1.07-.45,2.17-.83,3.33-.95,1.62-.16,2.11,.31,2.04,1.93-.04,.88-.19,1.77,.37,2.8,.81-.78,.87-1.68,.95-2.53,.1-1.17,.43-2.27,.83-3.36,.13-.36,.26-.77,.52-1.02,.2-.19,.43-.39,.66-.56-.29,.88-.57,1.76-.83,2.66-.92,3.15-.83,6.37,.19,9.51,1.01,3.1,3.23,4.69,6.48,4.79,1.36,.04,2.69-.26,4.03-.3,4.63-.12,9.24-.52,13.88-.46,5.08,.06,10.13-.37,15.19,.21,4.8,.55,9.62,1.53,14.34,2.47,3.21,.64,6.41,1.37,9.56,2.36,1.46,.46,2.91,.99,4.36,1.47Z"/><path class="cls-3" d="M234.15,70.24c.2-.78,.11-1.53-.37-2.29-1-1.57-2-3.15-2.85-4.81-2.37-4.57-5.58-8.47-9.35-11.93-4.14-3.8-8.79-6.68-14.34-7.96-3.07-.71-6.15-1.37-9.13-2.39-.28-.1-.61-.22-.91,.18,.03,.04,.05,.07,.08,.1-.24-.03-.49-.04-.73-.04-.1-.39-.18-.79-.26-1.19-.25-1.27,.21-1.79,1.53-1.85,.38-.02,6.24,.52,6.61,.61,5.23,1.22,5.15,1.48,9.72,4.29,3.71,2.29,7.56,4.99,10.75,7.99,3.95,3.72,6.98,7.88,10.01,12.38,.55,.82,1.86,3.7,1.73,4.69,.19,1.15-1.05,1.87-2.47,2.22Z"/><path class="cls-3" d="M326.24,102.19c-.41-.02-.82-.02-1.23,.03-1.68,.17-3.36,.36-5.03,.63-3.94-2.09-8.07-3.96-11.26-4.65-3.75-.81-7.4-1.33-10.48-1.59,1.98-.53,3.99-.89,6.03-1.08,2.98-.28,6.04,.3,8.93,1.24,4.52,1.48,8.87,3.29,13.04,5.43Z"/></g><g><path class="cls-1" d="M380.97,229.92c-.59,2.5-2.2,3.31-4.34,3.78-.61,.14-1.29,.19-2,.19-2.79,0-5.93-.9-6.3-1.5,.34-.49,.75-.34,1.1-.27,4.64,.93,9.02-3.08,7.49-8.45-.74-2.58-2.08-4.83-3.61-6.99-4.09-5.78-7.99-11.77-10.02-18.53-1.49-4.95-1.28-10.35-1.2-15.56,.06-3.9-.52-7.8-1.12-11.67-4.11-26.27-21.22-36.88-24.61-39.53-3.43-2.68-20.77-13.67-26.11-16.25,0,0,0,0,0,0l-.08-.04c-.2-.1-.41-.2-.62-.29-1.05-.4-2.02-.31-3.1,.24-3.61,1.83-7,3.96-9.7,7.04-.11,.13-.23,.25-.36,.37-.19,.16-.42,.29-.66,.12-.31-.21-.34-.56-.15-.85,.31-.48,.66-.95,1.04-1.38,2.32-2.62,5.06-4.75,7.83-6.86,.19-.14,.37-.27,.67-.48l-1.12-.45c-.36-.17-.86-.39-1.43-.63,4.86-3.5,10.09-6.39,16.17-7.47,1.1-.19,2.11-.41,3.14-.6h0c5.77,3.2,10.7,6.52,11,6.72,9.05,5.66,27.98,26.67,30.8,49.25,.41,3.25,.77,6.5,1.01,9.77,.29,3.86-.08,19.8,.58,24.8,.83,6.33,3.58,9.5,6.82,14.99,2.35,3.99,4.19,6.18,6.21,9.33,3.07,4.78,3.4,8.19,2.69,11.2Z"/><path class="cls-1" d="M319.98,102.85c-2.85,.44-5.65,1.09-8.34,2.15-4.1,1.62-7.86,3.64-11.28,6.05-.72-.28-1.42-.55-2.01-.77-.85-.31-1.81-.13-2.49,.47-1.98,1.74-6.06,5.52-7.79,7.88-.33,.45-.67,.89-1.04,1.43-.37,.54-.77,1.19-1.21,2.05,.31-1.43,.77-3.01,1.75-4.81,1.09-1.99,2.12-3.85,3.37-5.76,2.4-3.66-5.92-5.18-8.95-5.09-.82,.02-2.25,.98-3.56,1.89,3.96-3.83,8.51-6.86,13.46-9.33,2.04-1.02,4.17-1.82,6.35-2.4h0c3.07,.26,6.73,.78,10.48,1.59,3.19,.69,7.32,2.56,11.26,4.65Z"/><path class="cls-1" d="M234.15,70.24c-.97,.24-2.03,.3-2.76,.21-.51-.07-1.02-.12-1.53-.17,.17-.43,.11-.93-.15-1.78-1.99-6.41-5.4-11.94-10.43-16.39-6.1-5.4-13.32-8.66-21.1-10.79-.3-.09-.61-.14-.92-.18-.03-.03-.05-.07-.08-.1,.3-.4,.63-.28,.91-.18,2.99,1.02,6.07,1.68,9.13,2.39,5.55,1.28,10.2,4.16,14.34,7.96,3.77,3.46,6.99,7.36,9.35,11.93,.85,1.65,1.85,3.24,2.85,4.81,.48,.76,.58,1.51,.37,2.29Z"/><path class="cls-1" d="M287.18,96.59c-7.68,4.89-14.41,11.04-19.29,18.5-2.41,3.68-4.29,8.47-5.72,13.36,.62-4.56,1.26-9.12,2.45-13.58,1.03-3.84,2.45-7.55,4.86-10.66,6.73-8.67,1.9-9.18-2.76-10.97-4.69-1.8-9.44-3.4-14.23-4.9-8.47-2.67-17.05-4.93-25.73-6.84-5.94-1.31-11.96-1.79-18.02-1.39-3.26,.22-6.53,.58-9.7,1.53-.54,.16-1.06,.37-1.61,.63-.56,.26-1.16,.56-1.85,.9,.46-1,1.01-1.26,1.52-1.5,.94-.44,1.93-.79,2.94-1.03,5.05-1.18,10.05-2.68,15.26-2.97,4.69-.27,9.37-.3,14.07,.13,6.1,.56,12.12,1.49,18.09,2.81,8.55,1.88,17.02,4.01,25.18,7.28,2.77,1.11,9.32,3.04,9.66,3.07,1.37,.15,3.2-.31,4.17-1.29,1.4,1.94,2.69,5.67,.71,6.93Z"/><path class="cls-1" d="M157.78,97.92c-1.1,2.3-2.05,4.68-2.86,7.11-.24,.17-.46,.37-.66,.56-.26,.25-.38,.66-.52,1.02-.41,1.09-.73,2.19-.83,3.36-.07,.85-.14,1.76-.95,2.53-.55-1.03-.41-1.91-.37-2.8,.07-1.62-.42-2.09-2.04-1.93-1.16,.12-2.26,.5-3.33,.95-3.14,1.33-6.31,2.6-9.39,4.06-6.1,2.88-12.35,5.86-17.86,9.86-2.03,1.47-5.12,3.71-7.13,5.2-.2,.15-31.87,27.98-32.28,27.85,.12-.75,33.29-29.93,33.79-30.33,9.33-7.4,18.87-14.5,29.3-20.32,2.93-1.63,6-2.96,9.04-4.36,1.58-.72,2.88-1.68,3.59-3.31,.08-.18,.19-.34,.3-.5,.28-.41,.7-.64,1.16-.53,.67,.17,.32,.71,.29,1.12-.01,.19-.04,.38,.21,.61,.18-.04,.36-.09,.54-.14Z"/><path class="cls-1" d="M193.01,96.15c-.8,0-1.59-.03-2.38-.12-3.11-.36-6.12-.34-9.16,.53-6.18,1.77-12.46,3.21-18.55,5.29-1.35,.46-2.41,1.13-3.19,2.32-1.1,1.68-2.09,3.39-2.58,5.36-.08,.31-.16,.63-.3,.91-.07,.15-.26,.32-.42,.34-.32,.03-.46-.26-.45-.51,.03-1.23,.38-2.41,.65-3.59,.16-.7,.83-1.69-.03-2.05-.05-.02-.1-.04-.16-.05,.72-2.45,1.62-4.85,2.67-7.17,.79-.43,1.41-1.09,1.67-2.22,.04-.19,.14-.36,.23-.53,.24-.44,.4-1.12,1.02-.98,.79,.18,.26,.82,.22,1.26-.06,.73,.24,.98,.91,.72,1.32-.51,2.63-1.06,3.95-1.57,5.59-2.16,11.21-4.25,17.02-5.76,2.08,3.53,5.03,6.17,8.85,7.83Z"/></g></g><ellipse class="cls-1" cx="324.48" cy="184.19" rx="2.74" ry="3.34"/></g><g><g><g><path class="cls-1" d="M538.44,105.2c-.03,.79-.17,1.56-.57,2.23-.64,1.07-1.76,1.12-2.54,.16-.88-1.11-.93-3.37-.07-4.56,.73-1.03,1.82-1.03,2.53,0,.45,.65,.61,1.41,.65,2.18Z"/><path class="cls-1" d="M663.1,165.77c-.89-.19-2.79-1.29-3.35-1.56-2.57-1.24-5.17-4.31-5.63-4.79-3.07-3.24-6.14-6.49-9.23-9.71-2.31-2.39-4.87-4.46-7.7-6.2-1.49-.92-2.87-1.98-4.33-2.95-.38-.25-.78-.61-1.48-.4-2.62-2.68-4.88-5.12-6.1-6.88-.91-1.32-.46-4.16,.06-5.08,.51,.5,1.05,.99,1.77,1.2,3.73,1.08,6.99,3.06,10.08,5.33,1.56,1.15,3.2,2.15,4.83,3.17,0,0,.03,.02,.04,.03,1.21,.84,2.44,1.65,3.63,2.51,.36,.26,.72,.52,1.07,.78t.02,.02c.53,.42,1.05,.84,1.48,1.34,3.13,3.73,6.09,7.57,8.78,11.64,1.54,2.32,3.17,4.58,4.74,6.89,.93,1.36,1.54,2.82,1.33,4.67Z"/><path class="cls-1" d="M717.12,182.69c-2.94,7.84-15.3,26.96-17.42,27.62-1.93,2.52-3.87,5.01-5.99,7.39-3.19,3.58-6.31,7.22-9.47,10.83-.4,.46-.83,.88-1.43,1.16,.41-.63,.79-1.29,1.25-1.89,3.75-4.97,7.24-10.11,10.64-15.31,2.62-4.01,4.73-8.33,6.92-12.59,1.64-3.17,10.27-16.83,10.95-44.17,.35-5.72,.13-11.39-.18-17.07-.45-8.17-2.48-15.95-6.14-23.3-1.52-3.08-3.07-6.14-4.99-9-.83-1.24-1.9-2.1-3.32-2.55-1.37-.43-1.98-.23-2.79,.97-.43,.65-.73,1.37-.75,2.18,0,.32,.04,.65-.04,.96-.11,.43-.27,.95-.82,.94-.44,0-.57-.48-.7-.84-.41-1.17-1.21-8.03-.12-10.35,2.02-4.31,4.7-8.82,5.65-13.47,.5-2.46-.04-5.54-.5-7.98-.11-.57-.26-1.13-.13-1.82,.72,.69,1.41,1.37,2.11,2.08h0c.03,.08,.05,.16,.08,.23,1.29,3.67,2.57,7.98,4.24,11.49,.84,1.79,7.25,10.1,8.89,13.09,1.83,3.33,3.55,6.75,5.14,10.24,1.8,3.98,3.02,8.12,4.27,12.26,1.23,4.05,1.5,8.27,1.7,12.48,.51,11.67-1.01,31.35-7.06,46.45Z"/><path class="cls-1" d="M688.97,87.91c-1.91,4.62-5.18,9.03-4.73,13.43,.45,4.4-2.94,.11-2.48-3.27,.45-3.39,2.95-7.36-2.71-17.16-2.66-4.62-6.86-7.76-10.57-9.8,2.52,.12,5.03,.11,7.56-.27,3.55-.54,6.55-1.95,8.87-4.73,.55-.65,.88-.91,1.33-.83,.92,2.32,2.3,6.14,2.74,9.2,.68,4.74,1.91,8.8,0,13.43Z"/><path class="cls-1" d="M651.64,8.43c.1,.5-.27,.74-.65,.91-1.45-.11-2.88,.11-4.31,.42-4.53,.98-8.84,2.51-12.69,5.19-2.16,1.5-3.97,3.33-5.21,5.68-.47,.88-.96,1.18-1.99,.91-.76-.19-1.53-.34-2.31-.42,.02-.04,.04-.08,.07-.11,1.2-1.7,2.48-3.32,4.09-4.67,4.37-3.65,9.46-5.81,14.87-7.34,2.13-.6,4.31-.9,6.3-1.2,.25,0,.32,0,.38,0,.55,.07,1.28-.12,1.42,.65Z"/><path class="cls-1" d="M674.35,55.97c-.69,.72-1.47,1.31-2.31,1.78-.84,.47-1.75,.82-2.71,1.07-3.52,.89-7.06,1.67-11.15,1.35-4.49-.18-8.93,1.11-12.85,4.11-.42,.31-.89,1.03-1.43,.33-.48-.63-.08-1.19,.49-1.65,1.92-1.54,5.29-6.07,5.46-6.42,.4-.8,.25-1.31-.64-1.65-6.59-2.62-13.25-4.9-20.44-5.1-.91-.03-1.83-.04-2.71-.21-1.79-.34-3.29,.2-4.77,1.16-3.85,2.49-6.19,5.97-7.17,10.44-.51,2.35-.65,4.75-.96,7.12-.52,3.99-1.51,7.89-2.16,11.86-.34,2.03-1.04,4-2.19,5.78-.65,1.03-1.08,2.21-1.54,3.35-.27,.65-.62,1.18-1.11,1.58,2.74-9.33,3.62-18.89,2.64-28.66-.65-6.54-2.28-12.88-4.79-18.97-1.24-2.99-2.23-6.1-4.23-8.72-.43-.57-.86-1.13-1.29-1.7-1.83-2.37-1.32-4.74,1.34-6.13,.45-.24,.94-.43,1.43-.54,.04,.2,0,.44-.09,.72-.23,.65-.73,1.23-.19,1.97,.62,.84,1.41,1.33,2.47,1.34,1.42,.03,2.86,.17,4.27,.03,4.62-.43,9.2-.12,13.76,.55,5.07,.75,10.15,1.33,15.06,2.94,5.65,1.85,11.16,3.99,16.51,6.56,.5,.24,1,.48,1.49,.72,1.45,.72,2.86,1.51,4.33,2.2,.27,.12,.52,.25,.79,.38h0c.11,.06,.24,.12,.36,.19,3.66,1.87,7.01,4.27,10.66,6.16,.86,.44,1.7,.91,2.61,1.27,2.33,.92,2.77,2.98,1.04,4.78Z"/><path class="cls-1" d="M582.75,69.85c-.99-13.03-1.23-14.45-9.81-23.36-13.09-13.21-67.82,20.74-68.62,52.03,.16,10.57,2.87,13.43,4.07,14.09-.85-.17-1.71-.36-2.48-.73-1.89-.88-3.78-.7-5.69-.19-4.11-.88-26.89,13.87-25.67,20.22,.05,.43,.19,.88-.05,1.33-.65,.18-.78-.38-.9-.76-.7-2.24-.63-4.44,.32-6.63,1.85-4.27,5.16-7.26,8.74-9.97,2.96-2.41,12.69-13.48,14.17-15.96,1.73-2.69,2.6-5.74,3.47-8.79,2.45-8.56,5.47-16.89,9.94-24.62,6.42-11.14,15.19-19.97,26.25-26.51,5.25-3.09,10.69-5.83,16.47-7.82,1.53-.53,3.09-1.03,4.47-1.87,.5-.31,.94-.26,1.47-.08,2.48,.81,4.77,1.94,6.91,3.47,4.29,3.1,8.48,7.65,11.76,11.78,3.95,4.97,5.35,9.35,6.32,15.69,.62,4.02-1.14,8.86-1.14,8.69Z"/></g><g><path class="cls-2" d="M635.04,249.75c0,.12,0,.25-.03,.37-1.26,1.15-2.72,1.24-4.14,1.34-3.74,.26-7.46,.42-10.96,2.07-2.51,1.18-5.12,2.11-7.98,2.23-3.77,.15-7.12-1.03-10.37-2.75-4.16-2.2-7.68-5.23-11.09-8.44-1.64-1.55-3.4-2.99-5.4-4.11-1.41-.79-2.79-1.64-4.02-2.71-1.58-1.35-3.62-1.5-5.61-2.32,.26,.94,.8,1.23,1.33,1.41,1.9,.65,3.39,1.89,4.75,3.28,1.78,1.8,3.95,3.14,5.59,5.09,1.67,1.98,3.08,4.16,4.88,6.04,1.11,1.17,2.13,2.42,3.38,3.47,4.01,3.38,8.04,6.72,13.26,8.21-3.7,.09-7.29,.51-10.77-1.69-6.33-4.03-11.56-9.12-16.09-15.04-3.78-4.95-8.43-8.74-14.54-10.5-.3-.09-.58-.25-1.1-.48,3.76-2.01,23.62-2.63,30.66-1.33,13.86,2.56,26.75,7.29,38.25,15.85Z"/><path class="cls-2" d="M643.07,266.43c-.17,2.65-.19,5.31-.79,7.92-.37,1.64-.69,3.3-1.07,4.93-.2,.88-.36,1.8-.73,2.62-2.27,4.94-3.99,10.15-6.73,14.86-1.89,3.24-4.08,6.31-6.71,9.02-6.67,6.83-14.01,12.71-22.72,16.75-2.15,1-4.37,1.56-6.73,1.64-.72,.02-1.42,.03-1.95-.57h0v-.04c.02-.38,.28-.51,.6-.63,7.21-2.53,11.47-7.67,13.39-14.95,.71-2.68,.82-5.37,.59-8.08-.4-4.65-.8-9.29-1.26-13.93-.32-3.19-.33-6.39,.61-9.44,1.37-4.4,3.39-8.38,7.25-11.33h0c1.08-.42,2.17-.78,3.36-.65,.43,.04,.79,.11,1.09,.21-3.15,1.31-5.02,3.87-6.24,6.97-1.69,4.3-2.21,8.74-1.18,13.34,.8,3.55,.73,7.21,.93,10.82,.08,1.55,.34,3.11,.24,4.65-.3,4.92-1.6,9.55-4.46,13.66-.33,.48-.68,.95-1,1.43-.06,.08-.04,.23-.07,.67,1.9-1.11,3.4-2.32,4.76-3.71,4.16-4.3,6.34-9.55,7.45-15.33,.8-4.15,1.56-8.3,1.62-12.52,.06-4.73,2.24-8.33,5.67-11.25,2.81-2.39,5.84-4.52,8.99-6.45,1.22-.76,2.56-1.22,3.95-1.57,.92-.22,1.21,.14,1.16,.96Z"/><path class="cls-2" d="M681.49,190.93c-.15,3.06-1.12,5.99-1.51,9-.69,5.42-2.92,10.33-5.26,15.18-4.6,9.54-10.72,18.02-18.05,25.63-.79,.81-1.61,1.59-2.46,2.34t-.02,0s-.02,.02-.03,.02l-.02,.02c-2.38,1.49-4.88,2.76-7.5,3.9,1.53-1.13,2.96-2.35,4.35-3.63,.75-.7,1.49-1.41,2.23-2.14,1.03-1.03,2.06-2.07,3.05-3.14,.04-.04,.07-.07,.1-.11,2.96-3.16,5.73-6.49,8.18-10.07,3.42-5,6.16-10.27,8.21-15.78,2.02-5.41,3.38-11.08,4.05-16.99,.23-1.99,.21-4.01,.21-6.02,0-.9,.24-1.31,1.18-1.32,.22,0,.43,0,.63-.02,.79-.03,1.36-.09,1.77-.08h0c.27,.07,.55,.19,.81,.35h0c.19,.42,.14,1.24,.06,2.85Z"/><path class="cls-2" d="M676.94,62.7c-.77,.35-1.57,.6-2.36,.73-1,.33-2.02,.57-3.03,.73-1.02,.18-2.03,.28-3.07,.34-1.03,.05-2.07,.05-3.11,.03-3.7-.11-7.37,.06-11.03,.84-8.25,1.76-13.32,6.95-16.25,14.65-2.18,5.72-1.28,11.22,.79,16.68,1.9,5.03,4.27,9.87,6.56,14.74,2.12,4.52,4.11,9.1,4.95,14.08,.38,2.24,.7,4.48,.59,6.76-.05,1.24-.22,2.46-.64,3.63-.16,.44-.06,1.16-.83,1.09-.66-.06-1.36-1.1-1.09-1.74,.89-2.09,.15-3.91-.72-5.76-2.85-6.05-6.52-11.64-9.51-17.6-1.63-3.24-3.49-6.37-4.28-9.96-.03-.1-.18-.16-.47-.41-.12,1.32,.11,2.4,.41,3.45,1.16,4.1,2.3,8.22,3.96,12.17,.85,2.02,2.75,8.56,2.63,9.79-.05,.51-.35,.86-.87,.9-.47,.04-.64-.37-.8-.72-.83-1.78-2.02-3.32-3.06-4.97-2.53-4-5.96-6.84-10.36-8.76-3.55-1.54-7.07-2.41-10.92-2.09-10.34,.87-16.31,10.14-15.99,17.52,.06,1.3,.25,2.58,.6,3.83,.24,.83,.08,1.46-.52,2.12-1.64,1.82-3.51,3.21-5.92,3.89-2.38,.68-4.8,1.11-7.21,1.64-.44,.1-.9,.15-1.34,.27-.61,.17-.77,.65-.26,.95,.99,.58,1.97,1.31,3.17,1.31,4.41,0,8.81,.52,13.22,.07,.71-.08,1.41-.14,2.13-.2,.32-.03,.65-.09,.96-.06,.63,.04,1.95,1.01,2.14,1.61,.02,.05,.03,.09,.03,.13,.04,.95-.89,1.02-1.48,1.3-2.66,1.28-5.46,1.8-8.35,1.93h-.34c-.73,0-1.47,0-2.19,0h-.28c-.19-.02-.41-.03-.61-.04-2.2-.1-4.39-.42-6.6-.54-.07,0-.15,0-.22-.03,0,0-.02,0-.02,0-1.26-.11-2.29-.64-3.24-1.47-.97-.86-1.36-1.79-1.07-3.1,.3-1.34,.76-2.59,1.26-3.86,1.03-2.59,2.07-5.18,2.92-7.82,2.03-6.35,5.62-11.82,9.64-17,4.44-5.72,7.55-12.06,9.95-18.82,.48-1.35,.92-2.7,1.31-4.07h0c.5-.41,.85-.94,1.11-1.59,.46-1.14,.88-2.33,1.54-3.35,1.15-1.79,1.86-3.75,2.19-5.78,.65-3.97,1.64-7.87,2.16-11.86,.31-2.37,.45-4.77,.96-7.12,.98-4.47,3.32-7.95,7.17-10.44,1.48-.95,2.98-1.49,4.77-1.16,.88,.17,1.8,.19,2.71,.21,7.19,.2,13.85,2.48,20.44,5.1,.88,.34,1.03,.86,.64,1.65-.18,.34-3.55,4.88-5.46,6.42-.57,.46-.96,1.03-.49,1.65,.54,.71,1.02-.02,1.43-.33,3.92-3,8.36-4.29,12.85-4.11,4.08,.32,7.63-.46,11.15-1.35,.95-.25,1.87-.6,2.71-1.07,.84-.47,1.62-1.06,2.31-1.78,1.72-1.8,1.28-3.86-1.04-4.78-.91-.36-1.75-.83-2.61-1.27-3.65-1.89-7-4.3-10.66-6.16-.12-.06-.25-.12-.36-.19h0c-.27-.13-.52-.26-.79-.38-1.47-.69-2.88-1.48-4.33-2.2-.5-.25-.99-.49-1.49-.72-5.35-2.57-10.86-4.71-16.51-6.56-4.91-1.61-9.99-2.18-15.06-2.94-4.56-.67-9.14-.98-13.76-.55-1.41,.14-2.85,0-4.27-.03-1.05-.02-1.85-.5-2.47-1.34-.55-.74-.04-1.32,.19-1.97,.1-.28,.12-.52,.09-.72,.26-.06,.52-.09,.79-.1,7.3-.24,14.58-.13,21.78,.73,4.47,.53,8.9,1.35,13.3,2.56,.07,.02,.15,.04,.22,.06,2.6,.72,5.05,1.81,7.54,2.83,.03,0,.06,.03,.09,.04,.28,.11,.56,.23,.84,.35,1.31,.54,2.61,1.1,3.9,1.67,4.17,1.85,8.28,3.83,12.37,5.86,5.46,2.71,10.71,5.76,15.65,9.38,7.24,5.3,3.8,11.06-.8,13.16Z"/><path class="cls-2" d="M576.7,127.84c-.05,.84-.65,1.08-1.09,1.41-2.74,2.05-5.94,3.11-9.12,4.23-4.91,1.72-10.06,1.58-15.14,2.05-5.24,.49-10.5,.3-15.74,.2-7.49-.15-14.87,.65-22.12,2.52-4.53,1.17-8.82,3.01-13.04,4.99-.22,.11-.42,.28-.68,.47,.5,.36,.88,.13,1.29,.02,4.06-1.11,8.07-2.4,12.17-3.26,8.02-1.66,16.11-2.47,24.33-1.77,4.33,.36,8.61,1.12,12.94,1.47,3.75,.31,7.51,.46,11.26,.31,.31,0,.65-.1,1.03,.34-.48,.88-1.47,1.3-2.19,1.95-2.22,2.01-7.82,3.83-10.86,3.98-1.61,.09-11.06,.76-15.72,.22-6.31-.73-12.63-1.37-19-1.4-6.07-.02-12.02,.68-17.91,2.12-2.77,.67-5.54,1.33-8.39,1.61-2.94,.29-5.83,0-8.66-.84-.62-.18-4.23-1.62-5.08-2.49,7.89,.88,11.47,0,15.21-1.66,1.89-.84,3.81-1.67,5.58-2.73,7.16-4.31,15.01-7.02,22.76-9.98,3.58-1.37,7.29-2.37,11.17-2.42,2.91-.04,5.83,.08,8.74,.1,6.95,.03,13.83,1.08,20.77,1.21,3.77,.07,7.52-.02,11.21-.92,1.39-.34,2.74-.76,4.06-1.32,.68-.29,1.4-.62,2.21-.38Z"/></g><g><path class="cls-3" d="M678.18,183.91c-1.34-.18-2.67-.49-4.01-.73-4.48-.81-8.37-3.02-12.25-5.26-1.74-1-3.48-2.01-5.17-3.08-2.87-1.82-5.15-4.31-7.41-6.8-4.23-4.66-8.43-9.34-12.59-14.05-3.7-4.17-7.33-8.4-11.29-12.33-1.76-1.74-3.65-3.31-5.73-4.64-1.36-.88-2.56-1.97-3.77-3.07-.57-.52-1.03-1.16-1.39-1.86-.73-1.41-.59-2.25,.62-3.23,.9-.73,1.8-1.47,2.93-1.88,.71-.26,.72-.78,.06-1.06-1.75-.78-4.51-1.27-6.41-.35-1.16,.57-2.61,1.55-3.09,2.79-.77,2.02-.9,3.84,.44,5.94,.39,.62-.91-.11-1.26-.33-.83-.51-1.58-1.14-2.23-1.87-2.54-2.9-3.15-4.81-.96-8.84,1.79-3.28,4.62-5.54,8.14-6.91,1.13-.43,3.25-1.02,4.42-.89,3.26,.33,5.2,1.2,8.21,2.42,2.99,1.2,5.13,3.72,6.52,6.37,.54,1.03-.49,2.61-1.67,2.52-1.1-.07-2.18-.33-3.26-.5-.32-.05-.63-.15-.95-.19-.63-.09-1.19,.03-1.46,.67-.25,.6,.2,.97,.57,1.33,.04,.04,.08,.08,.12,.12-.52,.92-.97,3.77-.06,5.08,1.22,1.76,3.48,4.2,6.1,6.88-.04,0-.08,.02-.12,.04,.49,.41,.95,.82,1.39,1.25,.05,.05,.11,.11,.17,.17,.45,.46,.92,.93,1.39,1.4,.1,.1,.19,.19,.28,.28,.08,.08,.16,.16,.23,.24,.16,.16,.31,.32,.47,.48,4.47,4.55,8.04,9.81,11.9,14.85,2.78,3.6,5.92,6.87,9.27,9.93,2.87,2.62,5.69,5.3,8.97,7.42,6.08,3.92,15.5,6.59,22.48,8.21,.83,.19-6.4-.07-9.62-.5Z"/><path class="cls-3" d="M726.96,157.56c-1.12,13.39-4.92,25.92-11.36,37.69-8.28,15.14-19.17,28.14-32.46,39.12-9.43,7.81-19.71,14.32-30.63,19.83-.56,.27-1.06,.72-2.09,.67,1.76-1.17,3.24-2.18,4.75-3.16,5.7-3.72,11.28-7.6,16.54-11.95,9.02-7.45,16.07-16.42,21.79-26.61,3.82-6.82,6-14.18,8.4-21.49,3.73-11.36,4.59-23.08,3.92-34.94-.39-6.95-1.57-13.72-3.99-20.31-1.67-4.58-3.4-9.07-5.84-13.32-1.61-2.8-2.98-5.75-4.6-8.56-2.69-4.64-3.17-9.66-2.29-14.87,.17-1.03,.51-2.01,1.04-2.91,1.18-2.02,2.41-4,3.49-6.07,1.21-2.33,1.62-4.9,1.68-7.52,.1-4.04-.69-7.94-1.81-11.97,1.03,.16,1.69,.8,2.32,1.37,.65,.59,1.29,1.19,1.92,1.8-.12,.69,.02,1.26,.13,1.82,.46,2.44,1.01,5.53,.5,7.98-.95,4.65-3.63,9.16-5.65,13.47-1.09,2.33-.28,9.19,.12,10.35,.12,.36,.26,.83,.7,.84,.56,0,.72-.5,.82-.94,.07-.31,.03-.65,.04-.96,.03-.8,.32-1.52,.75-2.18,.8-1.2,1.41-1.41,2.79-.97,1.41,.45,2.48,1.31,3.32,2.55,1.92,2.86,3.47,5.92,4.99,9,3.65,7.35,5.69,15.13,6.14,23.3,.31,5.69,.53,11.35,.18,17.07-.68,27.34-9.31,41-10.95,44.17-2.19,4.26-4.31,8.59-6.92,12.59-3.4,5.2-6.89,10.34-10.64,15.31-.46,.6-.84,1.26-1.25,1.89,.6-.27,1.03-.7,1.43-1.16,3.16-3.61,6.28-7.25,9.47-10.83,2.11-2.38,4.06-4.87,5.99-7.39,2.11-.66,14.48-19.78,17.42-27.62,6.06-15.09,7.58-34.77,7.06-46.45-.19-4.21-.47-8.43-1.7-12.48-1.25-4.15-2.47-8.28-4.27-12.26-1.58-3.49-3.31-6.91-5.14-10.24-1.64-3-8.05-11.31-8.89-13.09-1.66-3.5-2.94-7.82-4.24-11.49-.03-.07-.05-.15-.08-.22,10.45,10.57,18.43,22.8,23.24,37.1,2.08,6.14,3.41,12.44,3.92,18.96,.65,8.37,.63,16.68-.07,25.04Z"/><path class="cls-3" d="M704.15,165.4c-.19,7.35-.87,14.64-2.94,21.71-2.14,7.27-4.03,14.65-7.56,21.41-3.46,6.61-7.35,12.95-12.19,18.68-3.29,3.88-7.01,7.29-10.82,10.61-6.63,5.76-14.01,10.49-21.4,15.17-5.84,3.7-12.23,6.24-18.72,8.52-2.81,.99-5.61,2.03-8.43,2.95-.28,.1-.55,.19-.81,.31h0c-.3-.11-.65-.17-1.09-.21-1.19-.13-2.28,.22-3.36,.64,0,0,.03-.02,.04-.03,3.38-2.56,6.9-4.8,10.59-6.78,0,0,.02,0,.03,0,.37-.11,.67-.27,.93-.5,1-.53,2.02-1.03,3.06-1.52,3.02-1.42,6.14-2.76,8.79-4.92,1.2-.98,2.5-1.87,3.83-2.68,.88-.53,1.72-1.11,2.55-1.71h0s.02,0,.03-.02c2.62-1.14,5.12-2.4,7.5-3.9-.92,.84-1.88,1.64-2.84,2.42-.48,.39-1.03,.72-1.48,1.5,.94-.15,1.49-.59,2.06-.97,5.34-3.53,9.99-7.85,14.15-12.68,5.68-6.6,10.79-13.58,15.19-21.12,2.76-4.71,5.38-9.45,7.21-14.59,1.23-3.42,2.32-6.9,2.14-10.6-.04-.83,.26-1.33,1.08-1.6,.72-.24,1.48-.46,2.26-1.15-1-.44-1.88-.88-2.8-1.23-.74-.27-1.23-.71-1.26-1.53-.09-3.1-1.34-5.92-2.23-8.81-3.6-11.64-8.94-22.34-16.91-31.67-3.71-4.34-7.46-8.62-11.87-12.28-1.88-1.56-3.23-3.59-4.09-5.84-3.48-9.08-7.94-17.75-11.41-26.83-.13-.36-.26-.73-.42-1.09-2.71-6.41-1.09-12.02,3.11-17.18,3.06-3.75,6.9-5.91,11.78-6.42,3.36-.34,6.69-.55,10.07-.38,.19,0,.39,.02,.58,.03,3.7,2.03,7.9,5.18,10.57,9.8,5.67,9.81,3.17,13.78,2.71,17.16-.45,3.39,2.94,7.67,2.48,3.27-.45-4.4,2.82-8.81,4.73-13.43,1.91-4.63,.68-8.69,0-13.43-.44-3.07-1.82-6.89-2.74-9.2,.26,.04,.56,.19,.95,.45,1.52,1,2.82,2.12,3.43,4.02,1.17,3.59,2.21,7.19,2.72,10.92,.6,4.45-.53,8.49-3.12,12.13-4.54,6.38-4.29,13.19-1.77,20.19,.35,.97,.8,1.93,1.34,2.8,2.4,3.93,4.2,8.19,6.56,12.15,.99,1.68,1.73,3.47,2.34,5.32,1.07,3.26,2.4,6.45,3.21,9.78,1.8,7.33,2.44,14.81,2.25,22.36Z"/><path class="cls-3" d="M667.52,7.93c-5.83,4.52-9.05,10.54-10.26,17.72-.17,.98-.48,1.89-1.03,2.7-.61,.89-1.41,1.41-2.6,1.4-2.11-.03-4.04-.43-5.92-1.52-2.52-1.46-5.33-2.33-8.08-3.29-1.34-.47-2.71-.9-4.08-1.27-1.03-.27-1.32-.93-1.24-1.88,.28-3.55,1.64-6.34,5.29-7.59,2.33-.8,4.67-1.58,7.06-2.13,2.16-.49,4.19-1.26,6.13-2.41-.6-.16-1.2-.26-1.8-.29,.38-.17,.74-.42,.65-.91-.14-.77-.88-.57-1.42-.65-.06,0-.13,0-.38,0-2,.3-4.17,.6-6.3,1.2-5.41,1.53-10.5,3.69-14.87,7.34-1.62,1.34-2.89,2.97-4.09,4.67-.03,.04-.05,.08-.07,.11-1.26-.16-2.56-.19-3.9-.17,.11-1.11,.65-1.77,1.11-2.44,1.61-2.33,3.69-4.13,6.14-5.53,6.31-3.61,13.08-5.91,20.21-7.2,4.34-.78,8.68-1.47,13.11-1.48,1.56,0,3.1,.21,4.64,.4,.51,.05,1.03,.22,1.48,.46,1.29,.68,1.41,1.87,.24,2.78Z"/><path class="cls-3" d="M605.33,67.93c-.29,6.98-1.38,13.84-3.41,20.52,0,.03-.02,.04-.03,.07,0,.04-.03,.08-.04,.12-.06,.17-.11,.34-.16,.5h0c-.04,.13-.08,.24-.11,.36-3.4,10.57-9,19.6-17.87,26.52-4.16,3.24-8.82,5.15-13.89,6.21-5.42,1.13-10.95,1.23-16.45,1.48-6.22,.29-12.44,.34-18.67,.37-4.41,.02-8.82,.19-13.17,1.05-.26,.05-.51,.04-.73-.15-.15-.52,.28-.81,.51-1.18,.59-.94,1.28-1.81,1.79-2.79,1.58-2.99,3.81-5.38,6.56-7.31,1.22-.86,2.41-1.76,3.58-2.69,.69-.56,1.13-.55,1.75,.19,1.87,2.22,4.44,2.3,6.57,.27,1.2-1.14,2.01-2.58,2.46-4.14,.39-1.36,1.21-1.78,2.48-2.02,6.31-1.22,12.7-1.88,19.08-2.51,1.23-.11,2.45-.29,3.68-.42,3.49-.34,6.42-1.83,9.01-4.16,6.97-6.24,10.74-14.16,11.5-23.33,1.34-16.09-4.02-29.7-16.21-40.43-3.45-3.04-7.61-4.89-11.89-6.46-.36-.13-.77-.18-1.11-.73,1.94-.81,3.9-.87,5.8-1.12,4.71-.63,9.43-.83,14.11,.34,.75,.19,1.56,.32,2.23,.68,1.75,.93,3.47,1.92,5.08,3.02-.29-.07-.59-.14-.88-.2-4.96-1.06-9.99-1.43-15.06-1.41-.44,0-.91-.07-1.56,.41,13.08,9.47,21.18,21.96,23.88,37.89,.63-1.22,.73-2.64,.88-4.01,.34-3.15-.29-6.76-.87-9.96-.35-1.99,1.27-2.2,3.07-3.06,.46-.22,.95-.42,1.46-.52,1-.19,1.75-.73,2.52-1.35,.11-.09,.2-.18,.28-.26,.66,1.51,1.25,3.07,1.76,4.66,1.62,5.04,2.3,10.23,2.08,15.54Z"/><path class="cls-3" d="M582.91,48.35c-4.48-8.45-10.33-15.57-19.58-19.12-2.46-.95-5-1.77-7.75-1.09-9.5,2.33-18.63,5.73-27,10.77-15.69,9.45-25.68,23.23-30.14,41.03-1.33,5.27-2.47,10.58-4.43,15.69-2.48,6.49-5.97,12.21-11.45,16.59-2.18,1.74-4.35,3.49-6.59,5.15-3.09,2.31-5.69,5.1-8.04,8.14-1.01,1.3-1.68,2.77-2.09,4.35-5.65,6.58,10.05,14.95,18.16,11.56,6.21-2.7,9.66-4.67,14.8-7.12,5.03-2.4,9.96-5.03,15.23-6.88,2.33-.82,4.05-2.25,5.41-4.22,.59-.85,1.18-1.72,1.66-2.63,2.02-3.91,4.97-6.92,8.66-9.26,.65-.42,1.28-.88,1.92-1.34,2.02-1.43,1.58-1.28,1.03-3.14-.97-3.3-.73-7.7,2.38-9.88,3.34-2.18,7.04-.65,8.57,2.51,.5,1.06,.8,2.2,.95,3.35,.11,.85,.5,1.11,1.31,.95,1.14-.24,2.29-.45,3.44-.65,6.64-1.18,13.36-1.81,20.04-2.65,2.86-.35,5.37-1.48,7.51-3.39,1.2-1.08,2.35-2.23,3.44-3.43,5.98-6.61,7.99-14.65,8.32-23.09-.32-7.96-2.12-15.34-5.76-22.22Zm-9.97-1.87c-13.09-13.21-67.82,20.74-68.62,52.03,.16,10.57,2.87,13.43,4.07,14.09,.11,.02,.22,.04,.33,.06,.43,.09,.2,.23-.33-.06-.85-.17-1.71-.36-2.48-.73-1.89-.88-3.78-.7-5.69-.19-4.11-.88-26.89,13.87-25.67,20.22,.05,.43,.19,.88-.05,1.33-.65,.18-.78-.38-.9-.76-.7-2.24-.63-4.44,.32-6.63,1.85-4.27,5.16-7.26,8.74-9.97,2.96-2.41,12.69-13.48,14.17-15.96,1.73-2.69,2.6-5.74,3.47-8.79,2.45-8.56,5.47-16.89,9.94-24.62,6.42-11.14,15.19-19.97,26.25-26.51,5.25-3.09,10.69-5.83,16.47-7.82,1.53-.53,3.09-1.03,4.47-1.87,.5-.31,.94-.26,1.47-.08,2.48,.81,7.39,.72,9.53,2.26,4.29,3.1,8.97,6.59,12.25,10.72,3.95,4.97,6.36,14.55,7.34,20.88,.62,4.02-5.27,5.93-5.27,5.77-.99-13.03-1.23-14.45-9.81-23.36Z"/><path class="cls-3" d="M601.49,47.73c-.08,.08-.18,.17-.28,.26-.77,.63-1.52,1.17-2.52,1.35-.5,.1-1,.3-1.46,.52-1.79,.86-3.42,1.07-3.07,3.06,.57,3.19,1.2,6.81,.87,9.96-.14,1.36-.25,2.79-.88,4.01-2.71-15.92-10.8-28.42-23.88-37.89,.65-.48,1.11-.41,1.56-.41,5.07-.03,10.1,.34,15.06,1.41,.29,.06,.59,.13,.88,.2h0c1.84,1.26,3.55,2.66,5.09,4.34,3.63,3.96,6.51,8.36,8.62,13.19Z"/></g><path class="cls-4" d="M631.37,140.16s-.08,.02-.12,.04c.49,.41,.95,.82,1.39,1.25-.43-.43-.85-.86-1.26-1.28Zm0,0s-.08,.02-.12,.04c.49,.41,.95,.82,1.39,1.25-.43-.43-.85-.86-1.26-1.28Zm0,0s-.08,.02-.12,.04c.49,.41,.95,.82,1.39,1.25-.43-.43-.85-.86-1.26-1.28Zm0,0s-.08,.02-.12,.04c.49,.41,.95,.82,1.39,1.25-.43-.43-.85-.86-1.26-1.28Zm104.34,1.71c-.23-7.54-1.44-14.96-3.01-22.31-2.1-9.83-5.79-19.04-11.19-27.57-3.12-4.94-6.12-9.94-10.1-14.27-.61-.66-1.14-1.41-1.67-2.15-3.05-4.24-7.24-7.4-10.68-11.27-.17-.19-6.16-4.96-8.98-7.14-.73-.57-1.1-1.17-1.04-2.11-.89-5.54-11.81-12.39-15-14.28-3.24-1.92-6.64-3.53-10.1-5.01-.82-.35-1.37-.78-1.56-1.76-.89-4.86-.62-9.51,1.8-13.97,2.1-3.87,4.47-7.59,6.82-11.32,1.65-2.63,1.18-4.28-1.56-5.83-3.45-1.94-7.21-2.6-11.02-2.78-7.68-.37-15.29,.31-22.74,2.31-7.8,2.1-15.04,5.28-21.09,10.8-2.29,2.1-4.73,4.09-6.4,6.74-.77,1.21-1.63,1.61-2.99,1.65-6.03,.21-12.05,.59-17.93,2.1-.58,.15-1.15,.12-1.72-.04-3.93-1.03-7.88-1.27-11.86-1.11,0,0-.03,0-.04,0-.99,.04-1.98,.1-2.98,.19-.45,.03-.89,.07-1.34,.11-4.28,.42-8.43,1.42-12.65,2.16-7.3,1.26-14.43,3.16-21.37,5.77-6.97,2.63-13.54,5.99-19.26,10.8-12.16,10.22-19.38,23.44-23.15,38.71-.99,4.02-1.52,8.15-2.87,12.1-1.37,3.98-2.58,8.01-5.06,11.52-2.86,4.05-6.46,7.25-10.53,9.98-2.16,1.44-4.29,2.93-6.28,4.59-2.6,2.17-5.07,4.45-6.94,7.3-2.58,3.93-3.14,8.03-1.19,12.38,.31,.71,.64,1.41,.84,2.18,.94,3.55,3.02,6.4,6.1,8.24,5.4,3.22,11.3,5.15,17.64,5.53,4.2,.26,8.29-.41,12.33-1.41,7.28-1.79,14.62-2.04,22.02-1.18,6.12,.72,12.23,1.52,18.33,2.35,6.15,.83,12.29,.86,18.4-.28,1.72-.32,8.33-1,9.75-1.64,2.5-1.13,5.02-1.36,7.75-.99,2.96,.4,5.92,.68,8.74,1.75,1.34,.51,2.64,1.08,3.98,1.56,3.03,1.1,6.13,1.58,9.36,1.16,2.72-.36,5.32-1.1,7.86-2.14,2.69-1.11,5.24-2.56,8.05-3.41,.7-.21,1.34-.34,2.09-.16,2.3,.54,4.51,.09,6.64-.8,3.15-1.3,5.58-.74,7.7,1.86,.33,.41,.64,.81,.95,1.23,4.5,5.87,9.27,11.51,14.62,16.64,3.62,3.45,7.39,6.71,11.03,10.11,1.48,1.38,3.04,2.63,4.83,3.58,3.55,1.9,7.19,3.61,11.11,4.63,.98,.26,1.35,.65,1.39,1.7,.1,3.12-.05,6.22-.59,9.29-1.16,6.56-3.61,12.71-6.3,18.74-.89,2.02-1.69,4.1-2.85,5.96-3.17,5.07-6.97,9.67-10.94,14.12-2.47,2.76-5.11,5.34-8.11,7.54-2.45,1.8-2.46,1.9-4.92,.13-3.85-2.78-8.18-4.75-12.32-7-4.42-2.4-9.16-4.18-14.13-5.38-5.11-1.23-10.19-2.47-15.4-3.23-4.58-.66-9.17-.58-13.77-.54-3.36,.04-6.71,.1-10.04,.85-2.81,.64-5.11,2.2-7.44,3.69-1.46,.94-1.05,2.56,.57,3.26,.49,.21,.98,.4,1.48,.59,.06,.03,.13,.05,.19,.08,.02,0,.04,.02,.05,.03,.02,0,.03,0,.04,.02,0,0,.03,0,.04,0,.02,0,.04,.02,.06,.03,1.07,.43,2.11,.89,3.05,1.56,3.77,2.71,7.11,5.84,9.54,9.85,1.98,3.29,4.42,6.24,6.85,9.2,1.64,2,3.58,3.75,5.65,5.31,3.89,2.94,7.94,5.61,12.78,7.28-.45,1.4-.98,2.58-1.17,3.86-.54,3.61-.77,7.17-.05,10.81,.95,4.76,1.5,9.59,2.42,14.36,.26,1.33,.41,2.63,.43,3.9,.04,1.26-.05,2.5-.26,3.71-.51,3.01-1.75,5.84-3.78,8.53-1.29,1.72-2.72,3.3-4.12,4.92-.26,.3-.53,.57-.82,.81h0c-.64,.56-1.35,.98-2.14,1.32-1.62,.69-1.78,1.34-.63,2.66,.34,.38,.75,.75,1.2,.95,.06,.04,.13,.05,.19,.09,0,0,0,0,.02,0,2.47,1.08,5.02,1.64,7.72,.93,5.05-1.33,9.81-3.35,14.2-6.17,5.38-3.46,10.11-7.73,14.26-12.56,2.1-2.44,4.08-5.03,5.52-7.98,3.35-6.88,6.29-13.91,8.59-21.22,1.7-5.37,2.38-10.72,1.61-16.28-.2-1.51-.15-1.55,1.32-2.07,.31-.11,.63-.18,.94-.27,9.25-2.78,17.9-6.84,25.98-12.12,5.88-3.84,11.37-8.16,16.59-12.86,10.49-9.47,19.15-20.38,26.06-32.71,5.61-10.02,9.55-20.7,12.76-31.67,2.79-9.52,4.12-19.25,3.82-29.19Zm-114.01-123.36c1.61-2.33,3.69-4.13,6.14-5.53,6.31-3.61,13.08-5.91,20.21-7.2,4.34-.78,8.68-1.47,13.11-1.48,1.56,0,3.1,.21,4.64,.4,.51,.05,1.03,.22,1.48,.46,1.29,.68,1.41,1.87,.24,2.78-5.83,4.52-9.04,10.54-10.26,17.72-.17,.98-.48,1.89-1.03,2.7-.61,.89-1.41,1.41-2.6,1.4-2.11-.03-4.04-.43-5.92-1.52-2.52-1.46-5.33-2.33-8.08-3.29-1.34-.47-2.71-.9-4.08-1.27-1.03-.27-1.32-.93-1.24-1.88,.28-3.55,1.64-6.34,5.29-7.59,2.33-.8,4.67-1.58,7.06-2.13,2.16-.49,4.19-1.26,6.13-2.41-.6-.16-1.2-.26-1.8-.29-1.45-.11-2.88,.11-4.31,.42-4.53,.98-8.84,2.51-12.69,5.19-2.16,1.5-3.97,3.33-5.21,5.68-.47,.88-.96,1.18-1.99,.91-.76-.19-1.53-.34-2.31-.42-1.26-.16-2.56-.19-3.9-.17,.11-1.11,.65-1.77,1.11-2.44Zm-55.36,7.65c4.71-.63,9.43-.83,14.11,.34,.75,.19,1.56,.32,2.23,.68,1.75,.93,3.47,1.92,5.08,3.02h0c1.84,1.26,3.55,2.66,5.09,4.34,3.63,3.96,6.51,8.36,8.62,13.19,.66,1.51,1.25,3.07,1.76,4.66,1.62,5.04,2.3,10.23,2.08,15.54-.29,6.98-1.38,13.84-3.41,20.52,0,.03-.02,.04-.03,.07,0,.04-.03,.08-.04,.12-.06,.17-.11,.34-.16,.5h0c-.04,.13-.08,.24-.11,.36-3.4,10.57-9,19.6-17.87,26.52-4.16,3.24-8.82,5.15-13.89,6.21-5.42,1.13-10.95,1.23-16.45,1.48-6.22,.29-12.44,.34-18.67,.37-4.41,.02-8.82,.19-13.17,1.05-.26,.05-.51,.04-.73-.15-.15-.52,.28-.81,.51-1.18,.59-.94,1.28-1.81,1.79-2.79,1.58-2.99,3.81-5.38,6.56-7.31,1.22-.86,2.41-1.76,3.58-2.69,.69-.56,1.13-.55,1.75,.19,1.87,2.22,4.44,2.3,6.57,.27,1.2-1.14,2.01-2.58,2.46-4.14,.39-1.36,1.21-1.78,2.48-2.02,6.31-1.22,12.7-1.88,19.08-2.51,1.23-.11,2.45-.29,3.68-.42,3.49-.34,6.42-1.83,9.01-4.16,6.97-6.24,10.74-14.16,11.5-23.33,1.34-16.09-4.02-29.7-16.21-40.43-3.45-3.04-7.61-4.89-11.89-6.46-.36-.13-.77-.18-1.11-.73,1.94-.81,3.9-.87,5.8-1.12Zm-31.09,76.87c.73-1.03,1.82-1.03,2.53,0,.45,.65,.61,1.41,.65,2.18-.03,.79-.17,1.56-.57,2.23-.64,1.07-1.76,1.12-2.54,.16-.88-1.11-.93-3.37-.07-4.56Zm-69.42,26.85c.41-1.58,1.08-3.05,2.09-4.35,2.35-3.04,4.94-5.84,8.04-8.14,2.24-1.66,4.41-3.41,6.59-5.15,5.48-4.38,8.97-10.1,11.45-16.59,1.96-5.11,3.1-10.42,4.43-15.69,4.47-17.8,14.46-31.57,30.14-41.03,8.37-5.04,17.5-8.44,27-10.77,2.75-.68,5.3,.14,7.75,1.09,9.26,3.55,15.1,10.66,19.58,19.12,3.64,6.88,5.45,14.26,5.76,22.22-.33,8.44-2.34,16.48-8.32,23.09-1.09,1.2-2.24,2.35-3.44,3.43-2.14,1.91-4.64,3.03-7.51,3.39-6.68,.84-13.4,1.47-20.04,2.65-1.15,.2-2.3,.42-3.44,.65-.81,.16-1.19-.11-1.31-.95-.16-1.15-.45-2.29-.95-3.35-1.53-3.17-5.23-4.69-8.57-2.51-3.1,2.18-3.35,6.58-2.38,9.88,.55,1.86,.99,1.71-1.03,3.14-.64,.45-1.26,.92-1.92,1.34-3.7,2.33-6.65,5.35-8.66,9.26-.48,.92-1.07,1.79-1.66,2.63-1.36,1.96-3.08,3.4-5.41,4.22-5.27,1.85-10.19,4.48-15.23,6.88-5.15,2.45-8.59,4.42-14.8,7.12-8.11,3.4-23.81-4.98-18.16-11.56Zm109.78-.63c-2.74,2.05-5.94,3.11-9.12,4.23-4.91,1.72-10.06,1.58-15.14,2.05-5.24,.49-10.5,.3-15.74,.2-7.49-.15-14.87,.65-22.12,2.52-4.53,1.17-8.82,3.01-13.04,4.99-.22,.11-.42,.28-.68,.47,.5,.36,.88,.13,1.29,.02,4.06-1.11,8.07-2.4,12.17-3.26,8.02-1.66,16.11-2.47,24.33-1.77,4.33,.36,8.61,1.12,12.94,1.47,3.75,.31,7.51,.46,11.26,.31,.31,0,.65-.1,1.03,.34-.48,.88-1.47,1.3-2.19,1.95-2.22,2.01-7.82,3.83-10.86,3.98-1.61,.09-11.06,.76-15.72,.22-6.31-.73-12.63-1.37-19-1.4-6.07-.02-12.02,.68-17.91,2.12-2.77,.67-5.54,1.33-8.39,1.61-2.94,.29-5.83,0-8.66-.84-.62-.18-4.23-1.62-5.08-2.49,7.89,.88,11.47,0,15.21-1.66,1.89-.84,3.81-1.67,5.58-2.73,7.16-4.31,15.01-7.02,22.76-9.98,3.58-1.37,7.29-2.37,11.17-2.42,2.91-.04,5.83,.08,8.74,.1,6.95,.03,13.83,1.08,20.77,1.21,3.77,.07,7.52-.02,11.21-.92,1.39-.34,2.74-.76,4.06-1.32,.68-.29,1.4-.62,2.21-.38-.05,.84-.65,1.08-1.09,1.41Zm28.39,16.44c-2.66,1.28-5.46,1.8-8.35,1.93h-.34c-.73,.03-1.46,.03-2.19,0h-.28c-.19-.02-.41-.03-.61-.04-2.2-.1-4.39-.42-6.6-.54-.07,0-.15,0-.22-.03,0,0-.02,0-.02,0-1.26-.11-2.29-.64-3.24-1.47-.97-.86-1.36-1.79-1.07-3.1,.3-1.34,.76-2.59,1.26-3.86,1.03-2.59,2.07-5.18,2.92-7.82,2.03-6.35,5.62-11.82,9.64-17,4.44-5.72,7.55-12.06,9.95-18.82,.48-1.35,.92-2.7,1.31-4.07h0c2.74-9.34,3.62-18.89,2.64-28.66-.65-6.54-2.28-12.88-4.79-18.97-1.24-2.99-2.23-6.1-4.23-8.72-.43-.57-.86-1.13-1.29-1.7-1.83-2.37-1.32-4.74,1.34-6.13,.45-.24,.94-.43,1.43-.54,.26-.06,.52-.09,.79-.1,7.3-.24,14.58-.13,21.78,.73,4.47,.53,8.9,1.35,13.3,2.56,.07,.02,.15,.04,.22,.06,2.6,.72,5.05,1.81,7.54,2.83,.03,0,.06,.03,.09,.04,.28,.11,.56,.23,.84,.35,1.31,.54,2.61,1.1,3.9,1.67,4.17,1.85,8.28,3.83,12.37,5.86,5.46,2.71,10.71,5.76,15.65,9.38,7.24,5.3,3.8,11.06-.8,13.16-.77,.35-1.57,.6-2.36,.73-1,.33-2.02,.57-3.03,.73-1.02,.18-2.03,.28-3.07,.34-1.03,.05-2.07,.05-3.11,.03-3.7-.11-7.37,.06-11.03,.84-8.25,1.76-13.32,6.95-16.25,14.65-2.18,5.72-1.28,11.22,.79,16.68,1.9,5.03,4.27,9.87,6.56,14.74,2.12,4.52,4.11,9.1,4.95,14.08,.38,2.24,.7,4.48,.59,6.76-.05,1.24-.22,2.46-.64,3.63-.16,.44-.06,1.16-.83,1.09-.66-.06-1.36-1.1-1.09-1.74,.89-2.09,.15-3.91-.72-5.76-2.85-6.05-6.52-11.64-9.51-17.6-1.63-3.24-3.49-6.37-4.28-9.96-.03-.1-.18-.16-.47-.41-.12,1.32,.11,2.4,.41,3.45,1.16,4.1,2.3,8.22,3.96,12.17,.85,2.02,2.75,8.56,2.63,9.79-.05,.51-.35,.86-.87,.9-.47,.04-.64-.37-.8-.72-.83-1.78-2.02-3.32-3.06-4.97-2.53-4-5.96-6.84-10.36-8.76-3.55-1.54-7.07-2.41-10.92-2.09-10.34,.87-16.31,10.14-15.99,17.52,.06,1.3,.25,2.58,.6,3.83,.24,.83,.08,1.46-.52,2.12-1.64,1.82-3.51,3.21-5.92,3.89-2.38,.68-4.8,1.11-7.21,1.64-.44,.1-.9,.15-1.34,.27-.61,.17-.77,.65-.26,.95,.99,.58,1.97,1.31,3.17,1.31,4.41,0,8.81,.52,13.22,.07,.71-.08,1.41-.14,2.13-.2,.32-.03,.65-.09,.96-.06,.63,.04,1.95,1.01,2.14,1.61,.02,.05,.03,.09,.03,.13,.04,.95-.89,1.02-1.48,1.3Zm57.91,32.24c-1.74-1-3.48-2.01-5.17-3.08-2.87-1.82-5.15-4.31-7.41-6.8-4.23-4.66-8.43-9.34-12.59-14.05-3.7-4.17-7.33-8.4-11.29-12.33-1.76-1.74-3.65-3.31-5.73-4.64-1.36-.88-2.56-1.97-3.77-3.07-.57-.52-1.03-1.16-1.39-1.86-.73-1.41-.59-2.25,.62-3.23,.9-.73,1.8-1.47,2.93-1.88,.71-.26,.72-.78,.06-1.06-1.75-.78-4.51-1.27-6.41-.35-1.16,.57-2.61,1.55-3.09,2.79-.77,2.02-.9,3.84,.44,5.94,.39,.62-.91-.11-1.26-.33-.83-.51-1.58-1.14-2.23-1.87-2.54-2.9-3.15-4.81-.96-8.84,1.79-3.28,4.62-5.54,8.14-6.91,1.13-.43,3.25-1.02,4.42-.89,3.26,.33,5.2,1.2,8.21,2.42,2.99,1.2,5.13,3.72,6.52,6.37,.54,1.03-.49,2.61-1.67,2.52-1.1-.07-2.18-.33-3.26-.5-.32-.05-.63-.15-.95-.19-.63-.09-1.19,.03-1.46,.67-.25,.6,.2,.97,.57,1.33l.12,.12c.51,.5,1.05,.99,1.77,1.2,3.73,1.08,6.99,3.06,10.08,5.33,1.56,1.15,3.2,2.15,4.83,3.17,0,0,.03,.02,.04,.03,1.53,.97,3.05,1.96,4.47,3.1,.08,.06,.16,.12,.24,.19l.02,.02c.53,.42,1.05,.84,1.48,1.34,3.13,3.73,6.09,7.57,8.78,11.64,1.54,2.32,3.17,4.58,4.74,6.89,.93,1.36,1.54,2.82,1.33,4.67-.89-.19-2.79-1.29-3.35-1.56-2.57-1.24-5.17-4.31-5.63-4.79-3.07-3.24-6.14-6.49-9.23-9.71-2.31-2.39-4.87-4.46-7.7-6.2-1.49-.92-2.87-1.98-4.33-2.95-.38-.25-.78-.61-1.48-.4-.04,0-.08,.02-.12,.04,.49,.41,.95,.82,1.39,1.25,.05,.05,.11,.11,.17,.17,.48,.46,.95,.93,1.39,1.4,.11,.1,.19,.19,.28,.28,.08,.08,.16,.16,.23,.24,.16,.16,.31,.32,.47,.48,4.47,4.55,8.04,9.81,11.9,14.85,2.78,3.6,5.92,6.87,9.27,9.93,2.87,2.62,5.69,5.3,8.97,7.42,6.08,3.92,15.5,6.59,22.48,8.21,.83,.19-6.4-.07-9.62-.5-1.34-.18-2.67-.49-4.01-.73-4.48-.81-8.37-3.02-12.25-5.26Zm-6.94-35.21c.04-.38,.04-.83,.39-1.05,.43-.28,.72,.12,.98,.37,2.38,2.13,4.28,4.69,6.37,7.06,3.17,3.61,6.12,7.37,8.85,11.33,1.31,1.87,2.25,3.93,3.18,5.99,.94,2.06,2.12,4.01,2.82,6.17,.1,.3,.31,.58-.04,1.19-.78-.79-1.55-1.57-2.29-2.36-1.93-2.02-3.74-4.07-5.35-6.29-2.42-3.37-4.49-6.97-6.63-10.51-.62-1.03-1.26-2.04-1.96-3.02-.65-.92-1.35-1.8-2.13-2.64-1.46-1.56-2.53-3.44-3.78-5.17-.23-.32-.44-.66-.41-1.07Zm-57.13,118.53c-6.33-4.03-11.56-9.12-16.09-15.04-3.78-4.95-8.43-8.74-14.54-10.5-.3-.09-.58-.25-1.1-.48,3.76-2.01,23.62-2.63,30.66-1.33,13.86,2.56,26.75,7.29,38.25,15.85,.07,.05,.13,.1,.2,.15-.08,.08-.15,.15-.23,.22-1.26,1.15-2.72,1.24-4.14,1.34-3.74,.26-7.46,.42-10.96,2.07-2.51,1.18-5.12,2.11-7.98,2.23-3.77,.15-7.12-1.03-10.37-2.75-4.16-2.2-7.68-5.23-11.09-8.44-1.64-1.55-3.4-2.99-5.4-4.11-1.41-.79-2.79-1.64-4.02-2.71-1.58-1.35-3.62-1.5-5.61-2.32,.26,.94,.8,1.23,1.33,1.41,1.9,.65,3.39,1.89,4.75,3.28,1.78,1.8,3.95,3.14,5.59,5.09,1.67,1.98,3.08,4.16,4.88,6.04,1.11,1.17,2.13,2.42,3.38,3.47,4.01,3.38,8.04,6.72,13.26,8.21-3.7,.09-7.29,.51-10.77-1.69Zm51.38-8.27c-5.84,3.7-12.23,6.24-18.72,8.52-2.81,.99-5.61,2.03-8.43,2.95-.28,.1-.55,.19-.81,.31h0c-3.15,1.31-5.02,3.87-6.24,6.97-1.69,4.3-2.21,8.74-1.18,13.34,.8,3.55,.73,7.21,.93,10.82,.08,1.55,.34,3.11,.24,4.65-.3,4.92-1.6,9.55-4.46,13.66-.33,.48-.68,.95-1,1.43-.06,.08-.04,.23-.07,.67,1.9-1.11,3.4-2.32,4.76-3.71,4.16-4.3,6.34-9.55,7.45-15.33,.8-4.15,1.56-8.3,1.62-12.52,.06-4.73,2.24-8.33,5.67-11.25,2.81-2.39,5.84-4.52,8.99-6.45,1.22-.76,2.56-1.22,3.95-1.57,.92-.22,1.21,.14,1.16,.96-.17,2.65-.19,5.31-.79,7.92-.37,1.64-.69,3.3-1.07,4.93-.2,.88-.36,1.8-.73,2.62-2.27,4.94-3.99,10.15-6.73,14.86-1.89,3.24-4.08,6.31-6.71,9.02-6.67,6.83-14.01,12.71-22.72,16.75-2.15,1-4.37,1.56-6.73,1.64-.72,.02-1.42,.03-1.95-.57h0v-.04c.02-.38,.28-.51,.6-.63,7.21-2.53,11.47-7.67,13.39-14.95,.71-2.68,.82-5.37,.59-8.08-.4-4.65-.8-9.29-1.26-13.93-.32-3.19-.33-6.39,.61-9.44,1.37-4.4,3.39-8.38,7.25-11.33h0s.03-.03,.04-.04c3.38-2.56,6.9-4.8,10.59-6.78,0,0,.02,0,.03,0,.31-.18,.61-.34,.93-.5,1-.53,2.02-1.03,3.06-1.52,3.02-1.42,6.14-2.76,8.79-4.92,1.2-.98,2.5-1.87,3.83-2.68,.88-.53,1.72-1.11,2.55-1.71h0s.02,0,.03-.02c1.53-1.13,2.96-2.35,4.35-3.63,.75-.7,1.49-1.41,2.23-2.14,1.03-1.03,2.06-2.07,3.05-3.14,.04-.04,.07-.07,.1-.11,2.96-3.16,5.73-6.49,8.18-10.07,3.42-5,6.16-10.27,8.21-15.78,2.02-5.41,3.38-11.08,4.05-16.99,.23-1.99,.21-4.01,.21-6.02,0-.9,.24-1.31,1.18-1.32,.22,0,.43,0,.63-.02,.79-.03,1.36-.09,1.77-.08h0c.43,0,.68,.09,.81,.35h0c.19,.42,.14,1.24,.06,2.85-.15,3.06-1.12,5.99-1.51,9-.69,5.42-2.92,10.33-5.26,15.18-4.6,9.54-10.72,18.02-18.05,25.63-.79,.81-1.61,1.59-2.46,2.34t-.02,0s-.02,.02-.03,.02l-.02,.02c-.92,.84-1.88,1.64-2.84,2.42-.48,.39-1.03,.72-1.48,1.5,.94-.15,1.49-.59,2.06-.97,5.34-3.53,9.99-7.85,14.15-12.68,5.68-6.6,10.79-13.58,15.19-21.12,2.76-4.71,5.38-9.45,7.21-14.59,1.23-3.42,2.32-6.9,2.14-10.6-.04-.83,.26-1.33,1.08-1.6,.72-.24,1.48-.46,2.26-1.15-1-.44-1.88-.88-2.8-1.23-.74-.27-1.23-.71-1.26-1.53-.09-3.1-1.34-5.92-2.23-8.81-3.6-11.64-8.94-22.34-16.91-31.67-3.71-4.34-7.46-8.62-11.87-12.28-1.88-1.56-3.23-3.59-4.09-5.84-3.48-9.08-7.94-17.75-11.41-26.83-.13-.36-.26-.73-.42-1.09-2.71-6.41-1.09-12.02,3.11-17.18,3.06-3.75,6.9-5.91,11.78-6.42,3.36-.34,6.69-.55,10.07-.38,.19,0,.39,.02,.58,.03,2.52,.12,5.03,.11,7.56-.27,3.55-.54,6.55-1.95,8.87-4.73,.55-.65,.88-.91,1.33-.83,.26,.04,.56,.19,.95,.45,1.52,1,2.82,2.12,3.43,4.02,1.17,3.59,2.21,7.19,2.72,10.92,.6,4.45-.53,8.49-3.12,12.13-4.54,6.38-4.29,13.19-1.77,20.19,.35,.97,.8,1.93,1.34,2.8,2.4,3.93,4.2,8.19,6.56,12.15,.99,1.68,1.73,3.47,2.34,5.32,1.07,3.26,2.4,6.45,3.21,9.78,1.8,7.33,2.44,14.81,2.25,22.36-.19,7.35-.87,14.64-2.94,21.71-2.14,7.27-4.03,14.65-7.56,21.41-3.46,6.61-7.35,12.95-12.19,18.68-3.29,3.88-7.01,7.29-10.82,10.61-6.63,5.76-14.01,10.49-21.4,15.17Zm77.73-95.42c-1.12,13.39-4.92,25.92-11.36,37.69-8.28,15.14-19.17,28.14-32.46,39.12-9.43,7.81-19.71,14.32-30.63,19.83-.56,.27-1.06,.72-2.09,.67,1.76-1.17,3.24-2.18,4.75-3.16,5.7-3.72,11.28-7.6,16.54-11.95,9.02-7.45,16.07-16.42,21.79-26.61,3.82-6.82,6-14.18,8.4-21.49,3.73-11.36,4.59-23.08,3.92-34.94-.39-6.95-1.57-13.72-3.99-20.31-1.67-4.58-3.4-9.07-5.84-13.32-1.61-2.8-2.98-5.75-4.6-8.56-2.69-4.64-3.17-9.66-2.29-14.87,.17-1.03,.51-2.01,1.04-2.91,1.18-2.02,2.41-4,3.49-6.07,1.21-2.33,1.62-4.9,1.68-7.52,.1-4.04-.69-7.94-1.81-11.97,1.03,.16,1.69,.8,2.32,1.37,.65,.59,1.29,1.19,1.92,1.8,.72,.69,1.41,1.37,2.11,2.08h0c10.45,10.58,18.43,22.81,23.24,37.11,2.08,6.14,3.41,12.44,3.92,18.96,.65,8.37,.63,16.68-.07,25.04Zm-95.59-17.4s-.08,.02-.12,.04c.49,.41,.95,.82,1.39,1.25-.43-.43-.85-.86-1.26-1.28Zm0,0s-.08,.02-.12,.04c.49,.41,.95,.82,1.39,1.25-.43-.43-.85-.86-1.26-1.28Zm0,0s-.08,.02-.12,.04c.49,.41,.95,.82,1.39,1.25-.43-.43-.85-.86-1.26-1.28Z"/></g><g><path class="cls-1" d="M600.72,62.01c-.03,.96-.44,1.71-1.3,2.16-.34,.18-.67,.34-1.01,.51-.11-.18-.22-.37-.33-.53-.63-.91-.86-1.95-.92-3.04-.39-6.88-2.11-13.46-4.87-19.73-1.41-3.21-2.86-6.46-5.15-9.24-3.78-4.59-8.74-7.18-14.43-8.56-1.53-.37-3.07-.69-4.6-1.08,1.38,0,2.77,.06,4.17,.22,4.57,.51,8.79,1.82,12.48,4.65,1.96,1.51,3.79,3.15,5.55,4.89,4.81,4.78,7.02,10.89,8.75,17.19,1.05,3.83,.86,7.89,1.65,11.79,.05,.24,.02,.5,.01,.76Z"/><g><path class="cls-2" d="M600.22,72.24c-1.84-.24-3.65-.25-5.45,.23-.58,.15-.98,.04-.99-.69,0-.73-.69-1.16-.92-1.75,.49-.7,1.19-.5,1.78-.64,1.78-.44,3.55-.87,5.32-1.32,1.21-.31,1.35-.28,1.86,.9,.2,.46,.39,.95,.42,1.44,.08,1.18-.81,2-2.02,1.84Z"/><path class="cls-2" d="M604.45,87.06c-.25,3.34-.95,6.48-3.96,8.61-.78,.55-1.62,.9-2.51,1.15-.23-.06-.46-.16-.68-.27-2.03-1.02-3.72-2.41-4.92-4.34-1.18-1.9-1.93-3.99-2.45-6.14-.66-2.75,.05-5.38,.95-7.96,.21-.6,.63-1.09,1.08-1.55,.2-.2,.41-.39,.64-.57,.23-.09,.47-.19,.7-.29,.69-.31,1.43-.49,2.22-.43,3.9,.3,8.65,2.92,8.78,8.01,.03,1.26,.25,2.53,.16,3.77Z"/><path class="cls-2" d="M598.4,64.68c-.51,.25-1.03,.5-1.54,.76-.79,.41-1.25,.24-1.58-.63-.53-1.42-1.07-2.83-1.46-4.3-1.31-4.96-3.32-9.67-5.48-14.31-.43-.93-1.01-1.74-1.89-2.35,2.39,7.39,3.93,14.86,3.33,22.78-.96-.32-.98-1-1.18-1.59-1.12-3.24-1.73-6.6-2.13-9.98-.58-4.87-2.28-9.36-4.86-13.43-5.51-8.71-13.45-13.74-23.87-14.54-2.86-.22-5.7,.23-8.42,1.17-.62,.22-2.88-.81-4.05-.32,1.19-1.37,2.47-.7,4.2-1.35,6.05-2.29,12.19-4.03,18.64-4.07,1.53,.39,3.07,.7,4.6,1.08,5.69,1.38,10.64,3.97,14.43,8.56,2.29,2.77,3.74,6.02,5.15,9.24,2.76,6.27,4.48,12.85,4.87,19.73,.06,1.09,.29,2.13,.92,3.04,.11,.17,.22,.35,.33,.53Z"/><ellipse class="cls-2" cx="597.55" cy="85.06" rx="14.82" ry="16.82"/><path class="cls-2" d="M612.21,87.8c-.02,.11-.04,.22-.06,.33-.87,4.86-2.72,9.17-6.21,12.73-.68,.7-1.46,1.19-2.37,1.53-5.69,2.17-12.67,.34-16.6-4.34-2.08-2.48-4.09-5-5.24-8.07-.08-.21-.13-.5-.6-.58-.17,3.48,1.18,6.47,2.62,9.47,1.49,3.1,3.65,5.55,6.8,7.23-.79,.43-1.34,.1-1.92-.1-5.33-1.87-8.8-5.64-10.79-10.77-2.58-6.65-2.46-13.33,.22-19.94,.86-2.13,2.24-3.94,3.72-5.7,.71-.83,1.54-1.06,2.52-1.01,2.45,.14,4.42,1.46,6.39,2.72,.82,.52,.69,2.32-.22,2.99-2.27,1.68-3.33,4.02-4.17,6.6-.65,1.99-.7,3.98-.51,5.99,.4,4.17,1.64,7.99,4.46,11.26,2.82,3.27,7.94,4.97,12.64,1.73,1.8-1.24,3.57-2.4,4.49-4.47,.15-.35,.33-.68,.44-1.04,.21-.7,.3-1.56-.37-1.9-.14-.07-.28-.11-.4-.1,0,0,0,0,0-.01,2-3.82,1.91-7.89,1.36-12-.11-.81-.53-1.53-.91-2.27-.48-.92-1.1-1.64-1.82-2.25-.22-.47-.63-.82-1.02-1.15-.52-.44-.62-.79-.21-1.42,.55-.85,.74-1.86,.6-3.09,1.8,.87,3.01,2.14,4,3.56,1.36,1.95,2.32,3.99,2.87,6.13,.03,.18,.05,.37,.07,.55,.26,2.48,.36,4.93,.22,7.39Z"/></g><path class="cls-4" d="M616.58,73.89c-2.04-4.57-5.33-8.11-9.59-10.75-.59-.37-1.2-.6-1.14-1.52,.18-2.67-.41-5.27-.75-7.9-.93-7.14-3.66-13.6-7.48-19.66-2.29-3.64-5.45-6.48-8.76-9.15-4.87-3.92-10.4-6.24-16.69-6.59-8.1-.46-15.75,1.4-23.09,4.65-2.54,1.12-5.11,2.21-6.56,4.61-.5,.83,1.75,.77,2.18,.29,1.19-1.37,3.04-.64,4.78-1.3,6.05-2.29,12.19-4.03,18.64-4.07,1.38,0,2.77,.06,4.17,.22,4.57,.51,8.79,1.82,12.48,4.65,1.96,1.51,3.79,3.15,5.55,4.89,4.81,4.78,7.02,10.89,8.75,17.19,1.05,3.83,.86,7.89,1.65,11.79,.05,.24,.02,.5,.01,.76-.03,.96-.44,1.71-1.3,2.16-.34,.18-.67,.34-1.01,.51-.51,.25-1.03,.5-1.54,.76-.79,.41-1.25,.24-1.58-.63-.53-1.42-1.07-2.83-1.46-4.3-1.31-4.96-3.32-9.67-5.48-14.31-.43-.93-1.01-1.74-1.89-2.35,2.39,7.39,3.93,14.86,3.33,22.78-.96-.32-.98-1-1.18-1.59-1.12-3.24-1.73-6.6-2.13-9.98-.58-4.87-2.28-9.36-4.86-13.43-5.51-8.71-13.45-13.74-23.87-14.54-2.86-.22-10.81-1.07-13.54-.12-.62,.22-1.73,.81-1.45,1.74,0,.03,1.35-.45,6.9-.11,2.99,.19,5.35,.83,8.02,1.21,5.98,.86,11.08,3.47,15.43,7.59,4.6,4.36,7.42,9.69,8.6,15.89,.57,2.97,.75,6.01,1.44,8.96,.5,2.14,.48,2.13-1.34,3.3-5.72,3.71-9.19,8.95-10.58,15.57-.93,4.42-.54,8.82,.69,13.11,2.18,7.65,6.59,13.43,14.35,16.22,5.5,1.98,10.84,1.52,16.02-1.06,1.36-.68,2.7-1.39,4.1-1.99,2.11-.91,3.68-2.44,4.69-4.49,.25-.52,.55-.98,.93-1.42,1.46-1.68,2.65-3.55,3.66-5.52,3.68-7.21,4.26-14.59,.93-22.08Zm-21.94-4.51c1.78-.44,3.55-.87,5.32-1.32,1.21-.31,1.35-.28,1.86,.9,.2,.46,.39,.95,.42,1.44,.08,1.18-.81,2-2.02,1.84-1.84-.24-3.65-.25-5.45,.23-.58,.15-.98,.04-.99-.69,0-.73-.69-1.16-.92-1.75,.49-.7,1.19-.5,1.78-.64Zm17.57,18.42c-.02,.11-.04,.22-.06,.33-.87,4.86-2.72,9.17-6.21,12.73-.68,.7-1.46,1.19-2.37,1.53-5.69,2.17-12.67,.34-16.6-4.34-2.08-2.48-4.09-5-5.24-8.07-.08-.21-.13-.5-.6-.58-.17,3.48,1.18,6.47,2.62,9.47,1.49,3.1,3.65,5.55,6.8,7.23-.79,.43-1.34,.1-1.92-.1-5.33-1.87-8.8-5.64-10.79-10.77-2.58-6.65-2.46-13.33,.22-19.94,.86-2.13,2.24-3.94,3.72-5.7,.71-.83,1.54-1.06,2.52-1.01,2.45,.14,4.42,1.46,6.39,2.72,.82,.52,.69,2.32-.22,2.99-2.27,1.68-3.33,4.02-4.17,6.6-.65,1.99-.7,3.98-.51,5.99,.4,4.17,1.64,7.99,4.46,11.26,2.82,3.27,7.94,4.97,12.64,1.73,1.8-1.24,3.57-2.4,4.49-4.47,.15-.35,.33-.68,.44-1.04,.21-.7,.3-1.56-.37-1.9-.14-.07-.28-.11-.4-.1-.55,0-.93,.64-1.17,1.1-1.53,2.93-4.29,3.24-7.13,3.43-.27,.02-.53-.02-.78-.08-.23-.06-.46-.16-.68-.27-2.03-1.02-3.72-2.41-4.92-4.34-1.18-1.9-1.93-3.99-2.45-6.14-.66-2.75,.05-5.38,.95-7.96,.21-.6,.63-1.09,1.08-1.55,.2-.2,.41-.39,.64-.57,2.4-1.84,6.53-2.37,9.25-1.27,1.42,.57,2.64,1.4,3.97,2.31,.08-.48,.02-.86-.13-1.18-.22-.47-.63-.82-1.02-1.15-.52-.44-.62-.79-.21-1.42,.55-.85,.74-1.86,.6-3.09,1.8,.87,3.01,2.14,4,3.56,1.36,1.95,2.32,3.99,2.87,6.13,.65,2.52,.75,5.17,.29,7.95Z"/></g></g><line class="cls-5" x1="440.46" y1="164.15" x2="406.24" y2="164.15"/><polyline class="cls-5" points="427.79 175.63 442.63 164.15 427.79 151.63"/></g></svg>