<?xml version="1.0" encoding="UTF-8"?><svg id="Layer_2" xmlns="http://www.w3.org/2000/svg" xmlns:xlink="http://www.w3.org/1999/xlink" viewBox="0 0 1095.92 714.31"><defs><style>.cls-1{fill:#474747;}.cls-1,.cls-2,.cls-3,.cls-4,.cls-5,.cls-6,.cls-7{stroke:#474747;stroke-linecap:round;stroke-linejoin:round;stroke-width:1.3px;}.cls-8,.cls-9,.cls-7{fill:#fff;}.cls-2,.cls-10{fill:none;}.cls-11{clip-path:url(#clippath-2);}.cls-3{fill:#e73e8e;}.cls-12{clip-path:url(#clippath-6);}.cls-13{fill:#3f3b3c;}.cls-4{fill:#f2c1db;}.cls-14{clip-path:url(#clippath-1);}.cls-5{fill:#91dae2;}.cls-15{clip-path:url(#clippath-4);}.cls-9{font-family:Montserrat-Bold, Montserrat;font-size:17.69px;font-weight:700;}.cls-6{fill:#5fc1d2;}.cls-16{clip-path:url(#clippath);}.cls-17{clip-path:url(#clippath-3);}.cls-18{clip-path:url(#clippath-5);}.cls-19{fill:#8acfdb;}</style><clipPath id="clippath"><path class="cls-10" d="M571.3,176.92c-8.44,1.7-20.45-6.27-28.78-5.38-3.4,7.77-15.26,11.28-27.81,11.28s-23.88-2.94-27.34-10.64c-8.42-.88-21.49,9.03-29.81,7.28-7.57-1.6-5.57-24.49-1.92-31.31,6.52-12.15,20.47-28.68,48.94-32.06-.05-1.02-.07-2.06-.07-3.12,0-15.03,4.4-27.22,9.82-27.22s9.81,12.19,9.81,27.22c0,.99-.02,1.95-.06,2.91,29.99,2.83,43.78,20.13,49.88,32.59,3.32,6.78,4.73,26.97-2.67,28.46Z"/></clipPath><clipPath id="clippath-1"><path class="cls-10" d="M326.06,148.02c-2-8.19-10.79-13.4-21.19-13.4-10.68-12.91-31.45-28.65-57.87-27.27-12.66,.66-22.33,2.59-30.29,5.59-4.02-3.99-9.06-8.52-13.8-11.49-10.16-6.36-22.48-13.26-22.95-.22-.36,9.89,2.27,28.34,3.56,36.7-1.7,1.8-3.44,3.67-5.26,5.58-18.91,19.97-14,43.7-25.48,55.02-10.91,.47-26.55,3.56-41.14,15.21-25.95,20.73,14.19,18.66,22,18.26,5.7-.29,20.74,.22,31.78-7.17,9-4.14,16.61-8.55,23.39-12.91,.37,8.45,1.43,18.68,4.3,24.69,5.53,11.61,12.09,22.43,18.65,18.33,6.56-4.1,28.62-36.21,19.28-65.35-.42-1.33-.9-2.51-1.42-3.57,8.18-3.46,17.2-5.44,28.55-5.08,15.6,.5,27.33-2.96,35.85-7.87,3.77,.54,7.88,.37,12.04-.64,13.51-3.3,22.45-14.22,19.97-24.4Z"/></clipPath><clipPath id="clippath-2"><path class="cls-10" d="M231.74,101.49h14.16c3.07,0,5.56,2.49,5.56,5.56v58.87c0,5.88-4.78,10.66-10.66,10.66h-3.96c-5.88,0-10.66-4.78-10.66-10.66v-58.87c0-3.07,2.49-5.56,5.56-5.56Z" transform="translate(-12.42 23.95) rotate(-5.6)"/></clipPath><clipPath id="clippath-3"><path class="cls-10" d="M163.55,536.1s7.14-128.81,87.63-131.33c80.49-2.51,92.83,62.07,92.83,62.07,0,0,61.29,12.1,63.64,33.9,2.88,26.77-17.1,31.48-37.99,35.35-20.9,3.88-37.73,10.71-49.63,41.63-11.9,30.92-19.95,52.24-19.95,52.24,0,0-56.14-5.46-86.12-52.24-29.99-46.78-50.41-41.63-50.41-41.63Z"/></clipPath><clipPath id="clippath-4"><path class="cls-10" d="M234.47,402.69h14.16c3.07,0,5.56,2.49,5.56,5.56v58.87c0,5.88-4.78,10.66-10.66,10.66h-3.96c-5.88,0-10.66-4.78-10.66-10.66v-58.87c0-3.07,2.49-5.56,5.56-5.56Z" transform="translate(-41.78 25.66) rotate(-5.6)"/></clipPath><clipPath id="clippath-5"><path class="cls-10" d="M583.06,517.47v-38.11c0-38.47-18.22-78.83-68-78.83s-68,40.37-68,78.83v38.11s-5,66.26,22.46,91.98c27.46,25.71,45.54,19.98,45.54,19.98,0,0,18.08,5.74,45.54-19.98,27.46-25.71,22.46-91.98,22.46-91.98Z"/></clipPath><clipPath id="clippath-6"><path class="cls-10" d="M784.01,202.88s110.68-29.05,181.02,64.11c70.35,93.16-4.4,39.4-48.63,40.85-44.23,1.44-125.85,19.83-132.82,9.55-6.96-10.29-7.74-106.62,.43-114.51Z"/></clipPath></defs><g id="Layer_1-2"><rect class="cls-13" width="1095.92" height="714.31"/><g><path class="cls-3" d="M172.65,513.37c-.29-.73-31.25-33.15-41.04-44.54-9.79-11.39-4.45-20.46,14.13-23.39,18.58-2.93,54.57-9.46,54.57-9.46l-27.66,77.39Z"/><path class="cls-6" d="M515.31,395.62h0s-.06,0-.09,0-.06,0-.09,0h0c-61.25,.1-72.14,50.03-72.14,63s4.69,12.17,4.69,12.17l67.53-44.72,67.53,44.72s4.69,.81,4.69-12.17-10.89-62.91-72.14-63Z"/><g><rect class="cls-3" x="427.6" y="478.13" width="11.82" height="41.44" rx="5.91" ry="5.91" transform="translate(3.78 -3.26) rotate(.43)"/><path class="cls-4" d="M454.49,474.58h0c4.8,0,8.7,3.9,8.7,8.7v30.29c0,4.8-3.9,8.7-8.7,8.7h0v-47.69h0Z" transform="translate(3.78 -3.45) rotate(.43)"/><rect class="cls-4" x="447.03" y="461.11" width="5.04" height="20.48" transform="translate(43.9 -38.27) rotate(5.13)"/><path class="cls-6" d="M443.24,472.63h11.94v51.37h-11.94c-4.9,0-8.88-3.98-8.88-8.88v-33.62c0-4.9,3.98-8.88,8.88-8.88Z" transform="translate(3.78 -3.35) rotate(.43)"/><rect class="cls-5" x="443.2" y="505.08" width="4" height="12.18" transform="translate(3.87 -3.35) rotate(.43)"/><circle class="cls-5" cx="445.35" cy="498.03" r="2.34"/></g><g><rect class="cls-3" x="590.91" y="478.13" width="11.82" height="41.44" rx="5.91" ry="5.91" transform="translate(1197.39 993.17) rotate(179.57)"/><path class="cls-4" d="M567.14,474.58h0c4.8,0,8.7,3.9,8.7,8.7v30.29c0,4.8-3.9,8.7-8.7,8.7h0v-47.69h0Z" transform="translate(1146.73 992.51) rotate(179.57)"/><rect class="cls-4" x="578.26" y="461.11" width="5.04" height="20.48" transform="translate(1201.35 888.93) rotate(174.87)"/><path class="cls-6" d="M584.03,472.63h11.94v51.37h-11.94c-4.9,0-8.88-3.98-8.88-8.88v-33.62c0-4.9,3.98-8.88,8.88-8.88Z" transform="translate(1174.87 992.19) rotate(179.57)"/></g><g><path class="cls-3" d="M457.09,156.03c-2.59-.59-29.18,54.58-25.7,62.75,3.48,8.17,20.91-3.85,31.73-13.06s20.3-43.68-6.03-49.69Z"/><path class="cls-19" d="M465.23,160.66l-32.02,60.22s2.36,2.1,7.87-.56c5.51-2.67,20.96-12.56,24.99-17.77,4.03-5.2,11.05-23.83,8-30.37-3.05-6.55-8.65-12.62-8.65-12.62l-.19,1.1Z"/><path class="cls-2" d="M457.09,156.03c-2.59-.59-29.18,54.58-25.7,62.75,3.48,8.17,20.91-3.85,31.73-13.06s20.3-43.68-6.03-49.69Z"/><path class="cls-3" d="M575.01,156.03c2.59-.59,29.18,54.58,25.7,62.75-3.48,8.17-20.91-3.85-31.73-13.06-10.82-9.21-20.3-43.68,6.03-49.69Z"/><path class="cls-19" d="M566.88,160.66l32.02,60.22s-2.36,2.1-7.87-.56c-5.51-2.67-20.96-12.56-24.99-17.77-4.03-5.2-11.05-23.83-8-30.37,3.05-6.55,8.65-12.62,8.65-12.62l.19,1.1Z"/><path class="cls-2" d="M575.01,156.03c2.59-.59,29.18,54.58,25.7,62.75-3.48,8.17-20.91-3.85-31.73-13.06-10.82-9.21-20.3-43.68,6.03-49.69Z"/><path class="cls-7" d="M631.01,344.5c-4.58-16.74-18.93-29.44-36.54-31.59-7.09-.86-14.09-2.29-21.06-3.86l-28.09-6.31v-41.5h-60.17v41.71l-33.65,7.68c-4.59,1.05-9.25,1.72-13.92,2.28-17.61,2.15-31.96,14.85-36.54,31.59h229.98Z"/><g><g><g><path class="cls-7" d="M562.95,216.07c-1.84,10.06-5.32,21.59,3.69,19.49,2.68-.63,4.49-6.83,10.35-16.93,5.07-8.73,.18-18.78-3.69-19.49-3.88-.71-8.51,6.87-10.35,16.93Z"/><path class="cls-7" d="M572.57,219.36s2.69-6.25,2.69-8.31-.06-5.68-2.25-6.31-3.56,7-2.56,9"/></g><g><path class="cls-7" d="M467.31,216.07c1.84,10.06,5.32,21.59-3.69,19.49-2.68-.63-4.49-6.83-10.35-16.93-5.07-8.73-.18-18.78,3.69-19.49,3.88-.71,8.51,6.87,10.35,16.93Z"/><path class="cls-7" d="M457.68,219.36s-2.69-6.25-2.69-8.31,.06-5.68,2.25-6.31c2.19-.62,3.56,7,2.56,9"/></g></g><g><rect class="cls-3" x="576.89" y="204.12" width="8.36" height="29.31" rx="4.18" ry="4.18" transform="translate(1144.98 478.59) rotate(-175.89)"/><path class="cls-3" d="M560.15,200.19h0c3.4,0,6.15,2.76,6.15,6.15v21.42c0,3.4-2.76,6.15-6.15,6.15h0v-33.73h0Z" transform="translate(1109.48 473.88) rotate(-175.89)"/><rect class="cls-4" x="569.52" y="191.25" width="3.57" height="14.49" transform="translate(1144.6 391.12) rotate(179.41)"/><path class="cls-6" d="M574.67,199.6h5.84v36.34h-5.84c-4.9,0-8.88-3.98-8.88-8.88v-18.58c0-4.9,3.98-8.88,8.88-8.88Z" transform="translate(1129.25 476.02) rotate(-175.89)"/></g><g><rect class="cls-3" x="445.01" y="204.12" width="8.36" height="29.31" rx="4.18" ry="4.18" transform="translate(-14.51 32.72) rotate(-4.11)"/><path class="cls-3" d="M463.94,200.19h0c3.4,0,6.15,2.76,6.15,6.15v21.42c0,3.4-2.76,6.15-6.15,6.15h0v-33.73h0Z" transform="translate(-14.34 33.99) rotate(-4.11)"/><rect class="cls-4" x="457.17" y="191.25" width="3.57" height="14.49" transform="translate(2.06 -4.69) rotate(.59)"/><path class="cls-6" d="M458.61,199.6h5.84v36.34h-5.84c-4.9,0-8.88-3.98-8.88-8.88v-18.58c0-4.9,3.98-8.88,8.88-8.88Z" transform="translate(-14.42 33.28) rotate(-4.11)"/></g><path class="cls-7" d="M515.88,126.93h-2.33c-28.89,0-52.32,24.06-52.32,53.74v14c0,11.27,1.1,22.53,3.51,33.53,.01,.06,.03,.12,.04,.17,.24,1.09,.55,2.14,.92,3.18,4.54,12.78,14.97,36.33,34.44,47.19,9.33,5.2,20.72,4.99,29.98-.34,26.69-15.34,38.07-51.71,38.07-68.85v-28.89c0-29.68-23.42-53.73-52.32-53.73Z"/><path class="cls-7" d="M521.68,258.38c-4.25,1.25-8.5,1.25-12.74,0"/><path class="cls-7" d="M521.92,237.51l-3.44,.82c-2.01,.48-4.22,.49-6.23,.02l-4.05-.93"/><path class="cls-7" d="M503.03,252.66c8.1,1.15,16.14,1.1,24.08,0"/><rect class="cls-6" x="455.62" y="178.51" width="5.61" height="12.51"/><rect class="cls-6" x="568.49" y="178.51" width="5.61" height="12.51"/></g><path class="cls-6" d="M455.92,160.49s-1.28-48.17,58.56-48.17,61.71,48.17,61.71,48.17h-120.26Z"/><path class="cls-3" d="M571.3,176.92c-8.44,1.7-20.45-6.27-28.78-5.38-3.4,7.77-15.26,11.28-27.81,11.28s-23.88-2.94-27.34-10.64c-8.42-.88-21.49,9.03-29.81,7.28-7.57-1.6-5.57-24.49-1.92-31.31,6.52-12.15,20.47-28.68,48.94-32.06-.05-1.02-.07-2.06-.07-3.12,0-15.03,4.4-27.22,9.82-27.22s9.81,12.19,9.81,27.22c0,.99-.02,1.95-.06,2.91,29.99,2.83,43.78,20.13,49.88,32.59,3.32,6.78,4.73,26.97-2.67,28.46Z"/><g class="cls-16"><g><path class="cls-19" d="M486.96,172.17c0-2.45-.89-5.05,.13-7.53-.12,.03-.25,.06-.37,.09-21.77,5.7-34.32,4.12-34.32,4.12l-6.28,19.91,55.85-1.61c-10.28-2.74-15.01-8.06-15.01-14.97Z"/><path class="cls-19" d="M576.27,169.05c-12.64,1.78-33.27-4.32-33.27-4.32,0,0,.34-.32-.09-.38,1.63,2.12,.57,4.66-.38,7.19-2.22,5.88-3.57,11.78-12.38,14.79l46.12-1.33s12.64-17.73,0-15.94Z"/></g></g><path class="cls-19" d="M486.77,167.47s4.17,7.8,27.76,7.8,28.95-9.88,28.95-9.88c0,0,3.39,17.44-28.76,17.44s-27.95-15.35-27.95-15.35Z"/><path class="cls-2" d="M571.3,176.92c-8.44,1.7-20.45-6.27-28.78-5.38-3.4,7.77-15.26,11.28-27.81,11.28s-23.88-2.94-27.34-10.64c-8.42-.88-21.49,9.03-29.81,7.28-7.57-1.6-5.57-24.49-1.92-31.31,6.52-12.15,20.47-28.68,48.94-32.06-.05-1.02-.07-2.06-.07-3.12,0-15.03,4.4-27.22,9.82-27.22s9.81,12.19,9.81,27.22c0,.99-.02,1.95-.06,2.91,29.99,2.83,43.78,20.13,49.88,32.59,3.32,6.78,4.73,26.97-2.67,28.46Z"/><path class="cls-2" d="M487.37,172.17s-2.55-6.29,2.44-10.57"/><path class="cls-2" d="M542.52,171.54s2.15-3.4,0-8.15"/><circle class="cls-1" cx="477.35" cy="150.92" r="3.28"/><circle class="cls-1" cx="554.02" cy="150.92" r="3.28"/><path class="cls-2" d="M504.58,116.09s8.76-1.42,19.51-.21"/><path class="cls-2" d="M549.66,166.45s.92-22.6,17.51-28.76"/><path class="cls-2" d="M463.32,136.95s14.49,4.65,16.15,29.5"/></g><g><g><path class="cls-7" d="M212.23,259.59c.08,.21,.12,.43,.14,.65,2.07,27.22-.62,37.6-28.94,69.77-5.2,5.91-9.25,11.8-12.4,17.47h100.47l-11.02-18.38c-.33-.55-.43-1.22-.25-1.84,1.55-5.6,9.54-33.7,16.36-41.97,7.59-9.2,26.16-4.68,34.87-5.01,8.72-.32,8.07-11.95,7.27-15.82-.81-3.87,1.13-5.17,2.91-8.56,.89-1.7,.61-3.23,.1-4.34-.51-1.11-.15-2.42,.91-3.04,0,0,1.35-1,1.51-1.56,.22-.76,.24-1.99-.59-3.82-1.19-2.61-1.33-6.8-1.32-8.83,0-.74,.36-1.42,.94-1.87,6.99-5.4,8.66-8.7,4.58-11.58-2.25-1.59-8.29-7.11-12.35-13.72-.32-.52-.43-1.14-.29-1.73,.46-1.97,1.66-4.73,1.66-6.4,0-37.37-29.67-67.82-66.74-69.06-38.76-1.3-71.45,30.26-71.46,69.04,0,24.67,20.77,39.2,32.37,58.55,.37,.61,1.07,1.48,1.27,2.05Z"/><line class="cls-7" x1="321.02" y1="250.3" x2="314.45" y2="251.35"/><g><path class="cls-7" d="M250.04,214.96s-3.2-10.02-12.19-6.34c-8.99,3.68-10.52,16.72-1.92,23.43,8.6,6.71,14.5,8.63,17.21,4.43"/><path class="cls-2" d="M241.09,231.67c-1.02-.8-2.33-1.76-3.52-3.2-1.02-1.24-1.96-2.83-2.56-4.98-1.64-5.53-.22-9.19,4.22-10.84,4.53-1.68,6.97,4.76,6.97,4.76,1.44,4.3-3.2,6.48-3.2,6.48"/><path class="cls-2" d="M242.08,218.55s-3.1,3.2-1.4,5.83c1.7,2.63,4.07,4.03,8.01,3"/></g></g><g><path class="cls-3" d="M326.06,148.02c-2-8.19-10.79-13.4-21.19-13.4-10.68-12.91-31.45-28.65-57.87-27.27-12.66,.66-22.33,2.59-30.29,5.59-4.02-3.99-9.06-8.52-13.8-11.49-10.16-6.36-22.48-13.26-22.95-.22-.36,9.89,2.27,28.34,3.56,36.7-1.7,1.8-3.44,3.67-5.26,5.58-18.91,19.97-14,43.7-25.48,55.02-10.91,.47-26.55,3.56-41.14,15.21-25.95,20.73,14.19,18.66,22,18.26,5.7-.29,20.74,.22,31.78-7.17,9-4.14,16.61-8.55,23.39-12.91,.37,8.45,1.43,18.68,4.3,24.69,5.53,11.61,12.09,22.43,18.65,18.33,6.56-4.1,28.62-36.21,19.28-65.35-.42-1.33-.9-2.51-1.42-3.57,8.18-3.46,17.2-5.44,28.55-5.08,15.6,.5,27.33-2.96,35.85-7.87,3.77,.54,7.88,.37,12.04-.64,13.51-3.3,22.45-14.22,19.97-24.4Z"/><g class="cls-14"><path class="cls-19" d="M328.82,147.16s-6.81,10.45-14.88,12.82-14.25-3.01-28.34,0c-14.09,3.01-45.91,3.48-63.79,11.4l7.83,14.62,32.22,16.25,60.15-19.47,14.72-27.86-7.91-7.76Z"/><path class="cls-19" d="M154.18,236.17s7.6-5.46,9.62-14.84,28.02-25.29,28.02-25.29c0,0-2.13,12.72-2.97,16.33s-8.67,13.51-8.67,13.51l-26,10.28Z"/></g><path class="cls-2" d="M326.06,148.02c-2-8.19-10.79-13.4-21.19-13.4-10.68-12.91-31.45-28.65-57.87-27.27-12.66,.66-22.33,2.59-30.29,5.59-4.02-3.99-9.06-8.52-13.8-11.49-10.16-6.36-22.48-13.26-22.95-.22-.36,9.89,2.27,28.34,3.56,36.7-1.7,1.8-3.44,3.67-5.26,5.58-18.91,19.97-14,43.7-25.48,55.02-10.91,.47-26.55,3.56-41.14,15.21-25.95,20.73,14.19,18.66,22,18.26,5.7-.29,20.74,.22,31.78-7.17,9-4.14,16.61-8.55,23.39-12.91,.37,8.45,1.43,18.68,4.3,24.69,5.53,11.61,12.09,22.43,18.65,18.33,6.56-4.1,28.62-36.21,19.28-65.35-.42-1.33-.9-2.51-1.42-3.57,8.18-3.46,17.2-5.44,28.55-5.08,15.6,.5,27.33-2.96,35.85-7.87,3.77,.54,7.88,.37,12.04-.64,13.51-3.3,22.45-14.22,19.97-24.4Z"/></g><path class="cls-6" d="M179.71,135.71c-6.26,5.11-9.81,12.83-9.7,20.91,.29,20.93,1.97,65.42,10.95,62.74,11.71-3.5,7.98-5.05,7.98-5.05,0,0,3.42-34.86,18.93-42.77,15.51-7.91,22.35,15.78,22.35,15.78,0,0,13.4-1.4,14.2-5.58s-3.76-72.36-6.21-76.35c-1.99-3.22-39.44,14.78-58.5,30.32Z"/><g><rect class="cls-4" x="238.14" y="169.55" width="9.31" height="19.94" transform="translate(-16.35 24.53) rotate(-5.6)"/><circle class="cls-6" cx="245.96" cy="211.91" r="26.78"/><circle class="cls-3" cx="245.96" cy="211.91" r="20.62"/><path class="cls-6" d="M231.69,100.96h14.16c3.07,0,5.56,2.49,5.56,5.56v58.87c0,5.88-4.78,10.66-10.66,10.66h-3.96c-5.88,0-10.66-4.78-10.66-10.66v-58.87c0-3.07,2.49-5.56,5.56-5.56Z" transform="translate(-12.37 23.95) rotate(-5.6)"/><text class="cls-9" transform="translate(235.08 218.57) rotate(-5.6)"><tspan x="0" y="0">B3</tspan></text><g class="cls-11"><g><path class="cls-8" d="M234.54,90.41l-5.74,4.24-.41-4.21,3.43-2.63-1.08-.96-2.72-.26-.36-3.71,11.42,1.14,.36,3.71-4.05-.41,4.39,3.87,.42,4.33-5.66-5.12Z"/><path class="cls-8" d="M240.26,96.24l.37,3.78-11.42-1.14-.37-3.78,11.42,1.14Z"/><path class="cls-8" d="M235.41,111.42c-.79-.45-1.42-1.14-1.88-2.07l-3.08,2.19-.38-3.92,2.66-1.86-.09-.93-2.87-.28-.37-3.78,11.42,1.14,.49,5.03c.14,1.47-.07,2.65-.63,3.53-.57,.88-1.43,1.38-2.59,1.49-.99,.1-1.89-.08-2.68-.54Zm2.94-4.77l-.12-1.27-2.68-.27,.15,1.55c.05,.52,.22,.91,.51,1.18,.29,.27,.67,.37,1.14,.33,.76-.07,1.09-.58,1-1.52Z"/><path class="cls-8" d="M233.31,120.63l-.42-4.27-2.06-.93-.39-3.99,11.9,6.04,.36,3.71-10.94,3.75-.37-3.76,1.92-.56Zm2.67-.79l2.81-.83-3.03-1.37,.21,2.19Z"/><path class="cls-8" d="M238.72,133.08l-5.74,4.25-.41-4.21,3.43-2.63-1.08-.96-2.72-.26-.36-3.71,11.42,1.14,.36,3.71-4.05-.41,4.39,3.87,.43,4.34-5.66-5.12Z"/><path class="cls-8" d="M244.45,138.99l.37,3.78-11.42-1.14-.37-3.78,11.42,1.14Z"/><path class="cls-8" d="M239.58,154.04c-.79-.45-1.42-1.14-1.88-2.07l-3.08,2.2-.38-3.92,2.66-1.86-.09-.93-2.87-.29-.37-3.78,11.42,1.14,.49,5.03c.14,1.47-.07,2.65-.63,3.53s-1.43,1.38-2.59,1.49c-.99,.1-1.89-.08-2.68-.54Zm2.94-4.77l-.12-1.26-2.68-.27,.15,1.55c.05,.53,.22,.92,.51,1.18,.29,.26,.67,.37,1.14,.33,.76-.07,1.09-.58,1-1.52Z"/><path class="cls-8" d="M237.5,163.33l-.42-4.28-2.06-.93-.39-3.99,11.9,6.04,.36,3.71-10.94,3.75-.37-3.76,1.92-.56Zm2.67-.8l2.81-.82-3.03-1.37,.21,2.19Z"/></g></g></g><ellipse class="cls-1" cx="285.7" cy="139.03" rx="1.64" ry="3.28" transform="translate(-12.2 28.53) rotate(-5.6)"/><path class="cls-2" d="M250.87,132.34s30.76,1.09,36.47,6.53c5.71,5.44,9.19,20.01,9.19,20.01"/><path class="cls-2" d="M159.87,185.14c-.24,.77,.59,8.33,11.16,3.62"/><path class="cls-2" d="M180.54,114.37l5.46-2.82c1.31-.68,2.93-.17,3.62,1.13l1.7,3.21c.67,1.27,.23,2.85-1.01,3.58l-8.65,5.12"/></g><g><path class="cls-3" d="M163.55,536.1s7.14-128.81,87.63-131.33c80.49-2.51,92.83,62.07,92.83,62.07,0,0,61.29,12.1,63.64,33.9,2.88,26.77-17.1,31.48-37.99,35.35-20.9,3.88-37.73,10.71-49.63,41.63-11.9,30.92-19.95,52.24-19.95,52.24,0,0-56.14-5.46-86.12-52.24-29.99-46.78-50.41-41.63-50.41-41.63Z"/><g class="cls-17"><path class="cls-19" d="M204.47,584.39c4.91-9.82,22.98-77.97,44.23-83.51,21.24-5.53,40.24,2.52,63.03,12.31,22.79,9.79,96.17-5.79,96.17-5.79,0,0-14.01,114.26-14.96,115.69-.95,1.42-155.14,47.01-157.83,47.01s-30.63-85.72-30.63-85.72Z"/></g><path class="cls-2" d="M163.55,536.1s7.14-128.81,87.63-131.33c80.49-2.51,92.83,62.07,92.83,62.07,0,0,61.29,12.1,63.64,33.9,2.88,26.77-17.1,31.48-37.99,35.35-20.9,3.88-37.73,10.71-49.63,41.63-11.9,30.92-19.95,52.24-19.95,52.24,0,0-56.14-5.46-86.12-52.24-29.99-46.78-50.41-41.63-50.41-41.63Z"/></g><g><rect class="cls-4" x="240.86" y="470.75" width="9.31" height="19.94" transform="translate(-45.71 26.24) rotate(-5.6)"/><circle class="cls-6" cx="248.69" cy="513.12" r="26.78"/><circle class="cls-3" cx="248.69" cy="513.12" r="20.62"/><path class="cls-6" d="M234.42,402.17h14.16c3.07,0,5.56,2.49,5.56,5.56v58.87c0,5.88-4.78,10.66-10.66,10.66h-3.96c-5.88,0-10.66-4.78-10.66-10.66v-58.87c0-3.07,2.49-5.56,5.56-5.56Z" transform="translate(-41.73 25.65) rotate(-5.6)"/><text class="cls-9" transform="translate(237.81 519.77) rotate(-5.6)"><tspan x="0" y="0">B3</tspan></text><g class="cls-15"><g><path class="cls-8" d="M237.26,391.62l-5.74,4.24-.41-4.21,3.43-2.63-1.08-.96-2.72-.26-.36-3.71,11.42,1.14,.36,3.71-4.05-.41,4.39,3.87,.42,4.33-5.66-5.12Z"/><path class="cls-8" d="M242.99,397.44l.37,3.78-11.42-1.14-.37-3.78,11.42,1.14Z"/><path class="cls-8" d="M238.13,412.63c-.79-.45-1.42-1.14-1.88-2.07l-3.08,2.19-.38-3.92,2.66-1.86-.09-.93-2.87-.28-.37-3.78,11.42,1.14,.49,5.03c.14,1.47-.07,2.65-.63,3.53-.57,.88-1.43,1.38-2.59,1.49-.99,.1-1.89-.08-2.68-.54Zm2.94-4.77l-.12-1.27-2.68-.27,.15,1.55c.05,.52,.22,.91,.51,1.18,.29,.27,.67,.37,1.14,.33,.76-.07,1.09-.58,1-1.52Z"/><path class="cls-8" d="M236.04,421.83l-.42-4.27-2.06-.93-.39-3.99,11.9,6.04,.36,3.71-10.94,3.75-.37-3.76,1.92-.56Zm2.67-.79l2.81-.83-3.03-1.37,.21,2.19Z"/><path class="cls-8" d="M241.44,434.28l-5.74,4.25-.41-4.21,3.43-2.63-1.08-.96-2.72-.26-.36-3.71,11.42,1.14,.36,3.71-4.05-.41,4.39,3.87,.43,4.34-5.66-5.12Z"/><path class="cls-8" d="M247.18,440.19l.37,3.78-11.42-1.14-.37-3.78,11.42,1.14Z"/><path class="cls-8" d="M242.31,455.25c-.79-.45-1.42-1.14-1.88-2.07l-3.08,2.2-.38-3.92,2.66-1.86-.09-.93-2.87-.29-.37-3.78,11.42,1.14,.49,5.03c.14,1.47-.07,2.65-.63,3.53s-1.43,1.38-2.59,1.49c-.99,.1-1.89-.08-2.68-.54Zm2.94-4.77l-.12-1.26-2.68-.27,.15,1.55c.05,.53,.22,.92,.51,1.18,.29,.26,.67,.37,1.14,.33,.76-.07,1.09-.58,1-1.52Z"/><path class="cls-8" d="M240.22,464.54l-.42-4.28-2.06-.93-.39-3.99,11.9,6.04,.36,3.71-10.94,3.75-.37-3.76,1.92-.56Zm2.67-.8l2.81-.82-3.03-1.37,.21,2.19Z"/></g></g></g><path class="cls-3" d="M583.06,517.47v-38.11c0-38.47-18.22-78.83-68-78.83s-68,40.37-68,78.83v38.11s-5,66.26,22.46,91.98c27.46,25.71,45.54,19.98,45.54,19.98,0,0,18.08,5.74,45.54-19.98,27.46-25.71,22.46-91.98,22.46-91.98Z"/><g class="cls-18"><path class="cls-19" d="M592.86,511.17s-17.51-5.48-22.59-3.76c-5.09,1.71-24.28,3.01-27.39,12.81-3.1,9.8-18.17,14.5-26.78,14.5-8.61,0-23.68-4.69-26.78-14.5-3.1-9.8-22.3-11.09-27.39-12.81-5.09-1.71-22.59,3.76-22.59,3.76l7.38,100.05,62.23,43.22,48.3-9.02,26.18-44.17,9.44-90.08Z"/></g><path class="cls-2" d="M583.06,517.47v-38.11c0-38.47-18.22-78.83-68-78.83s-68,40.37-68,78.83v38.11s-5,66.26,22.46,91.98c27.46,25.71,45.54,19.98,45.54,19.98,0,0,18.08,5.74,45.54-19.98,27.46-25.71,22.46-91.98,22.46-91.98Z"/><ellipse class="cls-1" cx="314.45" cy="486.34" rx="3.74" ry="7.49" transform="translate(-45.93 32.99) rotate(-5.6)"/><ellipse class="cls-1" cx="469.53" cy="489.49" rx="3.74" ry="7.49" transform="translate(-45.5 48.13) rotate(-5.6)"/><ellipse class="cls-1" cx="560.72" cy="487.02" rx="7.49" ry="3.74" transform="translate(21.34 997.57) rotate(-84.4)"/><path class="cls-2" d="M256.76,467.54s31.73,3.84,61.41,18.44c26.3,12.94,22.99,31.35,22.99,31.35"/><path class="cls-2" d="M230.23,467.54s-10.63-1.39-16.09,9.05c-5.46,10.45-26.56,3.31-37.62-3.33"/><path class="cls-2" d="M487.37,509.6s-5.77,40.21,28.65,40.21,28.65-41.47,28.65-41.47"/><g><g><path class="cls-3" d="M784.01,202.88s110.68-29.05,181.02,64.11c70.35,93.16-4.4,39.4-48.63,40.85-44.23,1.44-125.85,19.83-132.82,9.55-6.96-10.29-7.74-106.62,.43-114.51Z"/><path class="cls-3" d="M784.01,202.88s110.68-29.05,181.02,64.11c70.35,93.16-4.4,39.4-48.63,40.85-44.23,1.44-125.85,19.83-132.82,9.55-6.96-10.29-7.74-106.62,.43-114.51Z"/><g class="cls-12"><path class="cls-19" d="M768.83,213.18s53.05-7.54,74.88-3.57c21.82,3.97,96.81,25,135.3,92.85,38.49,67.85-16.66,62.69-24.6,61.1-7.94-1.59-170.62-29.76-172.6-29.76s-12.98-120.62-12.98-120.62Z"/></g><path class="cls-2" d="M784.01,202.88s110.68-29.05,181.02,64.11c70.35,93.16-4.4,39.4-48.63,40.85-44.23,1.44-125.85,19.83-132.82,9.55-6.96-10.29-7.74-106.62,.43-114.51Z"/><path class="cls-2" d="M784.01,202.88s110.68-29.05,181.02,64.11c70.35,93.16-4.4,39.4-48.63,40.85-44.23,1.44-125.85,19.83-132.82,9.55-6.96-10.29-7.74-106.62,.43-114.51Z"/></g><g><path class="cls-7" d="M685.24,231.59l125.95,10.2c.31-.69,.64-1.36,.99-2.04,0,0,5.44-7.6,7.93-9.62,2.49-2.02,32.51-22.91,32.51-22.91h0s19.37-18,19.37-18c.35-.32,.91-.08,.91,.4,4.74,5.1,4.45,13.09-.66,17.83l-9.54,8.86c-6.37,8.55-2.77,11.88,1.41,13.18,5.47,.72,11.29,1.41,17.45,1.86l53.78-4.44c3.72-.31,6.76,2.49,6.76,6.23h0c0,3.73-3.04,7.04-6.76,7.34l-47.25,3.9c-1.51,.12-2.59,1.51-2.35,3,.08,.47,.15,.95,.22,1.44,.17,1.19,1.13,2.12,2.33,2.23l55.72,5.21c3.72,.35,6.76,3.69,6.76,7.42h0c0,3.73-3.04,6.51-6.76,6.16l-55.43-5.18c-1.06-.1-2.02,.69-2.13,1.75-.02,.17-.03,.35-.05,.52-.11,1.01,.58,1.93,1.58,2.12l46.76,8.97c3.72,.71,6.76,4.39,6.76,8.18h0c0,3.79-3.04,6.3-6.76,5.59l-50.09-9.61c-1.12-.22-2.24,.37-2.72,1.4-.03,.07-.07,.15-.1,.22-.62,1.33,.06,2.9,1.44,3.38l35.15,12.12c3.72,1.28,6.76,5.55,6.76,9.48h0c0,3.93-3.04,6.1-6.76,4.82l-46.5-16.03s-21.14,.99-40.29-2.8c-7.38-1.46-13.71-5.75-17.82-11.71l-128.57,4.42c-7.31-16.82-8.35-35.2,0-55.9Z"/><path class="cls-7" d="M859.32,223.25s-.81,18.82-12.98,25.46"/></g></g><g><g><path class="cls-7" d="M685.24,416.82l125.95,10.2c.31-.69,.64-1.36,.99-2.04,0,0,5.44-7.6,7.93-9.62,2.49-2.02,32.51-22.91,32.51-22.91h0s19.37-18,19.37-18c.35-.32,.91-.08,.91,.4,4.74,5.1,4.45,13.09-.66,17.83l-9.54,8.86c-6.37,8.55-2.77,11.88,1.41,13.18,5.47,.72,11.29,1.41,17.45,1.86l53.78-4.44c3.72-.31,6.76,2.49,6.76,6.23h0c0,3.73-3.04,7.04-6.76,7.34l-47.25,3.9c-1.51,.12-2.59,1.51-2.35,3,.08,.47,.15,.95,.22,1.44,.17,1.19,1.13,2.12,2.33,2.23l55.72,5.21c3.72,.35,6.76,3.69,6.76,7.42h0c0,3.73-3.04,6.51-6.76,6.16l-55.43-5.18c-1.06-.1-2.02,.69-2.13,1.75-.02,.17-.03,.35-.05,.52-.11,1.01,.58,1.93,1.58,2.12l46.76,8.97c3.72,.71,6.76,4.39,6.76,8.18h0c0,3.79-3.04,6.3-6.76,5.59l-50.09-9.61c-1.12-.22-2.24,.37-2.72,1.4-.03,.07-.07,.15-.1,.22-.62,1.33,.06,2.9,1.44,3.38l35.15,12.12c3.72,1.28,6.76,5.55,6.76,9.48h0c0,3.93-3.04,6.1-6.76,4.82l-46.5-16.03s-21.14,.99-40.29-2.8c-7.38-1.46-13.71-5.75-17.82-11.71l-128.57,4.42c-8.2-18.3-7.92-36.94,0-55.9Z"/><path class="cls-7" d="M859.32,408.48s-.81,18.82-12.98,25.46"/></g><path class="cls-3" d="M761.19,377.7s119.12-31.27,194.83,69c75.71,100.27-4.73,42.41-52.34,43.96-47.61,1.55-135.45,21.35-142.95,10.28-7.49-11.07-8.33-114.76,.46-123.24Z"/></g><path class="cls-6" d="M809.54,227.18s-5.83,18.52-4.41,38.47c1.42,19.95,8.07,41.79,8.07,41.79h-23.95s-6.22-22.79-6.57-40.13c-.35-17.33,3.28-40.13,3.28-40.13h23.57Z"/></g></g></svg>