<?xml version="1.0" encoding="UTF-8"?><svg id="Layer_2" xmlns="http://www.w3.org/2000/svg" viewBox="0 0 1027 227.07"><defs><style>.cls-1{fill:#fff;}.cls-2{fill:#5fc1d2;}.cls-3{fill:#e26da9;}</style></defs><g id="Layer_1-2"><rect class="cls-3" width="1027" height="113.53"/><g><g><path class="cls-1" d="M473.54,49.1h4.67v10.29l5.07-10.29h5.07l-5.9,11.06,6.36,11.67h-5.37l-5.22-10.44v10.44h-4.67v-22.72Z"/><path class="cls-1" d="M493.68,49.1h4.67v22.72h-4.67v-22.72Z"/><path class="cls-1" d="M505.29,49.1h5.9c3.22,0,5.28,.83,6.26,2,1.17,1.41,1.84,3.04,1.84,5.25,0,1.23-.21,2.43-.68,3.44-.68,1.47-1.6,2.4-2.67,2.98l4.3,9.06h-5.22l-5.01-11.55c.52,0,.8,0,1.17-.03,.83-.06,1.72-.28,2.3-.86,.77-.74,1.01-1.72,1.01-2.61,0-1.11-.21-2.06-1.07-2.76-.49-.43-1.26-.61-2.4-.61h-1.07v18.42h-4.67v-22.72Z"/><path class="cls-1" d="M528.28,71.83h-4.73l6.2-22.72h4.3l6.45,22.72h-4.73l-1.17-4.33h-5.22l-1.11,4.33Zm3.69-16.06l-1.44,7.43h2.89l-1.44-7.43Z"/><path class="cls-1" d="M553.37,62.43h-9.27v-2.86c2.33-2.06,3.72-3.25,4.58-4.08,1.17-1.11,1.29-1.47,1.29-2.24,0-.95-.49-1.44-1.23-1.44-.68,0-1.41,.4-1.41,1.72h-3.25c0-1.07,.21-1.97,.61-2.67,.8-1.35,2.27-2,4.08-2,2.89,0,4.7,1.81,4.7,4.42,0,1.5-.49,2.43-1.54,3.44-.74,.74-2.21,1.78-3.26,2.64h4.7v3.07Z"/></g><path class="cls-1" d="M572.56,33.3v54.08h-118.11V33.3h118.11m3.01-3.01h-124.14v60.11h124.14V30.29h0Z"/></g><rect class="cls-2" y="113.53" width="1027" height="113.53"/><g><g><path class="cls-1" d="M473.54,162.64h4.67v10.29l5.07-10.29h5.07l-5.9,11.06,6.36,11.67h-5.37l-5.22-10.44v10.44h-4.67v-22.72Z"/><path class="cls-1" d="M493.68,162.64h4.67v22.72h-4.67v-22.72Z"/><path class="cls-1" d="M505.29,162.64h5.9c3.22,0,5.28,.83,6.26,2,1.17,1.41,1.84,3.04,1.84,5.25,0,1.23-.21,2.43-.68,3.44-.68,1.47-1.6,2.4-2.67,2.98l4.3,9.06h-5.22l-5.01-11.55c.52,0,.8,0,1.17-.03,.83-.06,1.72-.28,2.3-.86,.77-.74,1.01-1.72,1.01-2.61,0-1.11-.21-2.06-1.07-2.76-.49-.43-1.26-.61-2.4-.61h-1.07v18.42h-4.67v-22.72Z"/><path class="cls-1" d="M528.28,185.36h-4.73l6.2-22.72h4.3l6.45,22.72h-4.73l-1.17-4.33h-5.22l-1.11,4.33Zm3.69-16.06l-1.44,7.43h2.89l-1.44-7.43Z"/><path class="cls-1" d="M553.37,175.96h-9.27v-2.86c2.33-2.06,3.72-3.25,4.58-4.08,1.17-1.11,1.29-1.47,1.29-2.24,0-.95-.49-1.44-1.23-1.44-.68,0-1.41,.4-1.41,1.72h-3.25c0-1.07,.21-1.97,.61-2.67,.8-1.35,2.27-2,4.08-2,2.89,0,4.7,1.81,4.7,4.42,0,1.5-.49,2.43-1.54,3.44-.74,.74-2.21,1.78-3.26,2.64h4.7v3.07Z"/></g><path class="cls-1" d="M572.56,146.83v54.08h-118.11v-54.08h118.11m3.01-3.01h-124.14v60.11h124.14v-60.11h0Z"/></g></g></svg>