<?xml version="1.0" encoding="UTF-8"?><svg id="Layer_1" xmlns="http://www.w3.org/2000/svg" viewBox="0 0 500 300"><defs><style>.cls-1{fill:#fff;}.cls-2{fill:#f7b81c;}</style></defs><rect class="cls-1" x="-4" y="-3" width="510" height="306"/><rect class="cls-1" width="500" height="300"/><g><path class="cls-2" d="M272.04,173.77h-65.04c-3.04,0-5.5-2.46-5.5-5.5V103.23c0-3.04,2.46-5.5,5.5-5.5h65.04c3.04,0,5.5,2.46,5.5,5.5v65.04c0,3.04-2.46,5.5-5.5,5.5Zm-59.54-11h54.04v-54.04h-54.04v54.04Z"/><path class="cls-2" d="M293,202.27h-49.69c-3.04,0-5.5-2.46-5.5-5.5v-65.04c0-3.04,2.46-5.5,5.5-5.5h49.69c3.04,0,5.5,2.46,5.5,5.5v65.04c0,3.04-2.46,5.5-5.5,5.5Zm-44.19-11h38.69v-54.04h-38.69v54.04Z"/></g></svg>