<?xml version="1.0" encoding="UTF-8"?><svg id="Layer_1" xmlns="http://www.w3.org/2000/svg" viewBox="0 0 150 150"><defs><style>.cls-1{fill:#fff;}.cls-2{fill:#f7b81c;}</style></defs><rect class="cls-1" y="-.5" width="149.5" height="150"/><g><path class="cls-2" d="M100.54,97.5H35.5c-3.04,0-5.5-2.46-5.5-5.5V26.96c0-3.04,2.46-5.5,5.5-5.5H100.54c3.04,0,5.5,2.46,5.5,5.5V92c0,3.04-2.46,5.5-5.5,5.5Zm-59.54-11h54.04V32.46H41v54.04Z"/><path class="cls-2" d="M121.5,126h-49.69c-3.04,0-5.5-2.46-5.5-5.5V55.46c0-3.04,2.46-5.5,5.5-5.5h49.69c3.04,0,5.5,2.46,5.5,5.5V120.5c0,3.04-2.46,5.5-5.5,5.5Zm-44.19-11h38.69V60.96h-38.69v54.04Z"/></g></svg>