<?xml version="1.0" encoding="UTF-8"?><svg id="Layer_2" xmlns="http://www.w3.org/2000/svg" viewBox="0 0 410 640.91"><defs><style>.cls-1{fill:none;}.cls-1,.cls-2,.cls-3{stroke:#000;stroke-linecap:round;stroke-linejoin:round;stroke-width:4px;}.cls-2{fill:#fff;}.cls-4{fill:#f7b81c;}</style></defs><g id="Layer_2-2"><path class="cls-2" d="M321.17,134.55s12-9,23-1c5.66,4.11,7.05,18.3,4.81,26.89-4.52,17.35-14.82,25.04-34.81,25.11"/><polygon class="cls-3" points="318.37 101.55 316 147.55 332 122.55 318.37 101.55"/><line class="cls-1" x1="350" y1="499.55" x2="350" y2="638.91"/><path class="cls-2" d="M22,292.55v-27.77c-7.87-5.62-16-14.82-16-25.23v-5c0-2.88,.16-5.67,.56-8.32-2.89-4.64-4.56-10.12-4.56-15.99h0c2.25-11.77,6.19-16.96,14.33-20.63,5.08-2.29,10.63-3.34,16.21-3.34h12.32c21.14,0,22,14.28,22,14.28v-55.32c0-13.8,21.28-17.25,21.28,0s.86,72.32,.86,72.32v31c0,14-11,20-11,20v24"/><ellipse class="cls-3" cx="233.5" cy="155.05" rx="99.5" ry="82.5"/><path class="cls-4" d="M410,638.91H71.67v-240.88c0-75.02,60.81-135.83,135.83-135.83h52.67c75.02,0,149.83,60.81,149.83,135.83v240.88Z"/><path class="cls-2" d="M282,265.55v-42c29.97-15.47,45-52.91,45-92l9.01-8.56c0-59.61-46.54-112.44-103.96-112.44h0c-57.41,0-103.96,52.84-103.96,112.44l11.91,7.56c0,39.78,15.15,75.75,46,91v42"/><path class="cls-2" d="M215.04,134.47s7.01-3.9,16.03-3.9,16.03,3.9,16.03,3.9"/><path class="cls-2" d="M210.77,171.05c13.98-1.84,27.76-2.16,41.23,0"/><path class="cls-3" d="M214.83,61.16c-1.53,4.17-6.14,11.85-6.17,11.88-4,4.53-11.26,3.97-14.69-1.01-1.94-2.82-3.04-11.67-2.97-14.48-3.01,4.33-8.59,12.92-13,24-2.27,5.69-4,11-12.17,13.42-3.93,1.16-7.49-7.33-7.83-11.42-2.04,11.53-3.38,28.63-13.78,34-.5,2.3-1.22,4.55-2.17,6.7-.33,.76-1.74-.08-.93,.09,1.11,6.22-2.38,12.28-6.17,17.34-2.69,3.59-5.74,7.12-9.78,9.06s2.13,3.85-1.17,.8c-2.2-34.78-5.42-68.04,10.3-99.14,3.17-6.28,6.71-12.43,11.36-17.71,9.74-11.07,25.22-20.88,39.34-25.15,17.98-5.43,34.37-8.4,53.13-7.34,15.88,.89,39.39,6.76,53.87,13.34,33,15,50,48,53,62,4.64,21.64-3.41,69.07-11,72-.66,.26-4.54-3.26-5-4-9.01-14.28-6.2-31.88-13.16-47.26,1.24,4.1-4.78,7.27-8.61,5.33s-5.53-6.38-6.9-10.44c-1.85-5.48-9.48-26.14-11.33-31.63-3.98,6.15-4,18-15,14-6.88-2.5-8.76-6.87-11.82-13.52-2.23-4.85-14.81-40.47-27.18-38.48-10.77,1.73-17.45,30.21-20.17,37.61Z"/><path class="cls-2" d="M145,134.55s-12-9-23-1c-5.66,4.11-7.05,18.3-4.81,26.89,4.52,17.35,14.82,25.04,34.81,25.11"/><path class="cls-1" d="M195.72,121.64l-8.55,.22c-5.66-.28-11.27-1.5-16.4-3.89-9.14-4.26-14.76-10.75-14.76-21.5h0c0-9.89,8.02-17.91,17.91-17.91h32.82c9.89,0,17.91,8.02,17.91,17.91h0c0,12.28-7.09,20.47-19.19,23.82-3.17,.88-6.45,1.27-9.74,1.35Z"/><path class="cls-1" d="M269.94,121.64l8.55,.22c5.66-.28,11.27-1.5,16.4-3.89,9.14-4.26,14.76-10.75,14.76-21.5h0c0-9.89-8.02-17.91-17.91-17.91h-32.82c-9.89,0-17.91,8.02-17.91,17.91h0c0,12.28,7.09,20.47,19.19,23.82,3.17,.88,6.45,1.27,9.74,1.35Z"/><path class="cls-1" d="M224.37,93.36s3.19-2.94,7.87-2.94,6.69,2.94,6.69,2.94"/><path class="cls-3" d="M196,102.3c0,5.11-2.24,9.25-5,9.25s-5-4.14-5-9.25c0-.4,.01-.79,.05-1.17,.03-.52,.09-1.04,.16-1.53,3.51-.44,6.53-.5,9.55-.17,.09,.55,.16,1.13,.2,1.73,.03,.37,.04,.76,.04,1.14Z"/><path class="cls-3" d="M178,101.55c3.08-.85,5.76-1.47,8.21-1.86,3.51-.55,6.53-.62,9.55-.21,2.68,.35,5.35,1.08,8.35,2.19"/><path class="cls-3" d="M279,102.05c0,4.69-2.24,8.5-5,8.5s-5-3.81-5-8.5c0-.37,.01-.72,.05-1.08,.03-.48,.09-.95,.16-1.4,3.51-.41,6.53-.46,9.55-.16,.09,.51,.16,1.04,.2,1.59,.03,.34,.04,.69,.04,1.05Z"/><path class="cls-3" d="M261,101.55c3.08-.85,5.76-1.47,8.21-1.86,3.51-.55,6.53-.62,9.55-.21,2.68,.35,5.35,1.08,8.35,2.19"/><path class="cls-1" d="M286.22,86.11c-8.78-1.63-17.56-1.63-26.33,0"/><path class="cls-1" d="M177.89,86.11c8.78-1.63,17.56-1.63,26.33,0"/><polygon class="cls-3" points="149.63 98.55 152 144.55 136 119.55 149.63 98.55"/><path class="cls-2" d="M74,225.55s-14-5-26-9-18,11-7,18,24,19,24,19"/><path class="cls-2" d="M42.52,235.55c-18.52,0-22.4,2.37-35.96-9.31"/><line class="cls-2" x1="59" y1="202.55" x2="57" y2="219.55"/><path class="cls-4" d="M53,493.55h0c-25.41,0-46-20.59-46-46L3,285.55l86-5,10,167c0,25.41-20.59,46-46,46Z"/><path class="cls-1" d="M71.67,489.59s27.33-8.49,27.33-49.26"/><g><path d="M213.62,391.07h16.75v24.19c-3.38,2.34-7.3,4.14-11.77,5.39s-8.85,1.88-13.16,1.88c-6.1,0-11.58-1.27-16.43-3.8-4.85-2.53-8.65-6.07-11.4-10.62-2.75-4.55-4.13-9.71-4.13-15.49s1.38-10.94,4.13-15.49c2.75-4.55,6.59-8.09,11.52-10.62,4.93-2.53,10.5-3.8,16.71-3.8,5.61,0,10.64,.94,15.08,2.82,4.44,1.88,8.13,4.62,11.07,8.21l-12.34,10.87c-3.6-4.2-7.87-6.29-12.83-6.29-4.25,0-7.63,1.28-10.13,3.84-2.51,2.56-3.76,6.05-3.76,10.46s1.24,7.76,3.72,10.38c2.48,2.62,5.79,3.92,9.93,3.92,2.45,0,4.79-.46,7.03-1.39v-14.47Z"/><path d="M254.08,418.7c-4.9-2.56-8.75-6.12-11.52-10.67-2.78-4.55-4.17-9.69-4.17-15.41s1.39-10.86,4.17-15.41c2.78-4.55,6.62-8.1,11.52-10.67,4.9-2.56,10.43-3.84,16.59-3.84s11.69,1.28,16.59,3.84c4.9,2.56,8.75,6.12,11.52,10.67s4.17,9.68,4.17,15.41-1.39,10.86-4.17,15.41c-2.78,4.55-6.62,8.11-11.52,10.67-4.9,2.56-10.43,3.84-16.59,3.84s-11.69-1.28-16.59-3.84Zm23.09-13.53c1.93-1.17,3.47-2.83,4.62-4.99,1.14-2.15,1.72-4.67,1.72-7.56s-.57-5.41-1.72-7.56c-1.14-2.15-2.68-3.81-4.62-4.99-1.93-1.17-4.1-1.76-6.5-1.76s-4.56,.59-6.5,1.76c-1.93,1.17-3.47,2.83-4.62,4.99-1.14,2.15-1.72,4.67-1.72,7.56s.57,5.41,1.72,7.56c1.14,2.15,2.68,3.81,4.62,4.99,1.93,1.17,4.1,1.76,6.5,1.76s4.56-.58,6.5-1.76Z"/><path d="M185.6,497.5c-4.9-4.74-7.36-11.39-7.36-19.94v-31.47h19.29v30.89c0,4.2,.75,7.25,2.25,9.15,1.5,1.91,3.66,2.86,6.5,2.86s5-.95,6.5-2.86c1.5-1.91,2.25-4.96,2.25-9.15v-30.89h18.96v31.47c0,8.55-2.45,15.2-7.36,19.94-4.9,4.74-11.74,7.11-20.51,7.11s-15.61-2.37-20.51-7.11Z"/><path d="M286.21,448.71c3.92,1.75,6.95,4.25,9.07,7.52s3.19,7.08,3.19,11.44-1.06,8.17-3.19,11.44-5.15,5.78-9.07,7.52c-3.92,1.74-8.53,2.62-13.81,2.62h-8.25v14.06h-19.29v-57.21h27.54c5.28,0,9.89,.87,13.81,2.62Zm-9.15,23.91c1.31-1.17,1.96-2.82,1.96-4.94s-.65-3.77-1.96-4.94-3.27-1.76-5.88-1.76h-7.03v13.4h7.03c2.62,0,4.58-.58,5.88-1.76Z"/></g></g></svg>