<?xml version="1.0" encoding="UTF-8"?><svg id="Layer_2" xmlns="http://www.w3.org/2000/svg" viewBox="0 0 324.34 386.31"><defs><style>.cls-1{fill:#fff;}.cls-1,.cls-2,.cls-3{stroke:#000;stroke-linecap:round;stroke-linejoin:round;stroke-width:1.91px;}.cls-2{fill:none;}.cls-4{fill:#f7b81c;}</style></defs><g id="Layer_1-2"><g><polygon class="cls-4" points="5.46 297.23 13.58 386.17 82.88 386.17 70.43 294.67 5.46 297.23"/><path class="cls-4" d="M202.8,238.4h-48.37c-67.13,0-121.54,69.61-121.54,145.47v2.44H324.34v-2.44c0-75.85-54.42-145.47-121.54-145.47Z"/><path class="cls-1" d="M217.26,246.29v-38.57c24.6-13.81,34.63-54.7,34.63-89.59l11.81-7.1c0-53.2-38.21-100.36-85.34-100.36h0c-47.13,0-85.34,47.16-85.34,100.36l11.01,6.66c0,35.5,14.37,75.73,39.7,89.35v38.57s13.44,9,39,9,34.52-8.31,34.52-8.31Z"/><path class="cls-2" d="M170.93,161.34s9.62,3.34,22.76-.03"/><g><path class="cls-3" d="M138.07,119.01s3.14-1.08,8.44-1.32c2.03-.09,4.37-.06,6.98,.2,2.07,.21,4.3,.56,6.67,1.12"/><path class="cls-3" d="M154.37,122.76c0,4.5-1.97,8.15-4.4,8.15s-4.4-3.65-4.4-8.15c0-1.35,.18-2.63,.49-3.74,.13-.47,.29-.91,.46-1.32,2.03-.09,4.37-.06,6.98,.2,.15,.35,.27,.72,.38,1.12,.32,1.12,.49,2.39,.49,3.74Z"/></g><g><path class="cls-3" d="M226.68,119.01s-3.14-1.08-8.44-1.32c-2.03-.09-4.37-.06-6.98,.2-2.07,.21-4.3,.56-6.67,1.12"/><path class="cls-3" d="M210.38,122.76c0,4.5,1.97,8.15,4.4,8.15s4.4-3.65,4.4-8.15c0-1.35-.18-2.63-.49-3.74-.13-.47-.29-.91-.46-1.32-2.03-.09-4.37-.06-6.98,.2-.15,.35-.27,.72-.38,1.12-.32,1.12-.49,2.39-.49,3.74Z"/></g><path class="cls-2" d="M202.96,96.69c8.49-1.11,16.52-.95,24.25,0"/><path class="cls-2" d="M138.63,96.31c8.61-.84,16.6-.43,24.21,.76"/><path class="cls-3" d="M178.99,.96C56.75,.96,89.33,127.94,89.33,127.94l20.17,4.73,.17-10.98s1.17-5.46,17.22-17.87c4.71-3.64,9.04-7.44,13.02-11.29-3.81,10.25-9.84,29.59,4.15,16.93,15.41-13.94,31.81-61.24,36.92-76.83,1.61,2.34,4.84,6.94,9.33,12.87,9.19,19.12,27.02,49.22,32.74,52.38,4.79,2.64-.66-22.63,2.65-24.36,7.96-2.71,25.28,59.55,25.28,59.55l17.54-2.15S305.11,.96,178.99,.96"/><g><path class="cls-1" d="M111.84,123.85s-11.41-9.73-20.52-2.59c-4.69,3.67-5.84,20.73-3.99,28.41,3.75,15.49,13.9,26.63,30.47,26.7"/><path class="cls-1" d="M240.7,175.83c16.56-.06,24.64-10.67,28.39-26.16,1.86-7.67,2.28-23.23-2.41-26.9-9.11-7.14-20.03,.54-20.03,.54"/></g><g><path class="cls-2" d="M152.47,146.36l-7.07,.23c-4.68-.29-9.31-1.58-13.56-4.1-7.55-4.49-12.2-11.33-12.2-22.65h0c0-10.42,6.63-18.88,14.81-18.88h27.13c8.18,0,14.81,8.45,14.81,18.88h0c0,12.95-5.86,21.57-15.87,25.1-2.62,.92-5.33,1.34-8.05,1.42Z"/><path class="cls-2" d="M176.15,116.55s3.21-2.81,7.07-2.81,6.87,2.89,6.87,2.89"/><path class="cls-2" d="M213.82,146.36l7.07,.23c4.68-.29,9.31-1.58,13.56-4.1,7.55-4.49,12.2-11.33,12.2-22.65h0c0-10.42-6.63-18.88-14.81-18.88h-27.13c-8.18,0-14.81,8.45-14.81,18.88h0c0,12.95,5.86,21.57,15.87,25.1,2.62,.92,5.33,1.34,8.05,1.42Z"/></g><g><path class="cls-1" d="M59.64,171.68c-1.83,9.88-6.97,37.63-7.98,43.07-1.58-5.3-9.63-32.35-12.49-41.99-3.18-10.7-20.48-8.47-16.5,4.91,1.97,6.63,5.92,20.51,9.41,32.83-.92-.03-1.89-.02-2.92,.03l-4.54,.53c-4.5,.24-8.94,1.33-12.95,3.4-6.42,3.31-9.38,7.67-10.7,17.28h0c.25,4.74,1.84,9.1,4.37,12.72-.21,2.16-.22,4.42-.1,6.75l.21,4.04c.45,8.41,7.41,15.5,14.01,19.7l1.19,22.44,39.83-2.4-1.03-19.39s8.63-5.32,8.03-16.63c-.41-7.68-.87-16.47-1.13-21.33,.69-4.43,7.8-49.77,10.22-62.82,2.54-13.72-14.89-14.12-16.93-3.14Z"/><path class="cls-1" d="M56.17,236.3s-11.53-3.44-21.39-6.16c-9.87-2.72-14.07,9.66-4.88,14.84,9.19,5.18,20.2,14.32,20.2,14.32"/><path class="cls-1" d="M5.33,244.46s-1.07,8.95,19.09,5.61c5.49-.91,9.15-2.87,9.15-2.87"/><path class="cls-1" d="M32.07,210.5s6.03,5.3,6.4,12.33c.37,7.03,.31,8.43,.31,8.43"/></g><path class="cls-1" d="M166.97,186.63c10.59,1.12,21.18,1.12,31.77,0"/><polyline class="cls-2" points="79.36 352.87 70.7 294.79 60.47 294.98"/></g></g></svg>