<?xml version="1.0" encoding="UTF-8"?><svg id="Layer_2" xmlns="http://www.w3.org/2000/svg" viewBox="0 0 324.64 386.65"><defs><style>.cls-1{fill:#fff;}.cls-1,.cls-2,.cls-3{stroke:#000;stroke-linecap:round;stroke-linejoin:round;stroke-width:2.03px;}.cls-4{fill:#f7b81c;}.cls-3{fill:none;}</style></defs><g id="Layer_1-2"><g><polygon class="cls-4" points="5.52 297.5 13.65 386.5 83 386.5 70.53 294.94 5.52 297.5"/><path class="cls-4" d="M203.01,238.63h-48.41c-67.17,0-121.63,69.66-121.63,145.57v2.44H324.64v-2.44c0-75.91-54.46-145.57-121.63-145.57Z"/><path class="cls-1" d="M178.55,10.73c-23.58,0-44.92,11.79-60.38,30.25-15.46,18.45-25.02,43.57-25.02,70.19l11.02,6.67c0,35.52,14.38,75.79,39.73,89.4v38.6s13.45,9,39.03,9,34.55-8.31,34.55-8.31v-38.6c24.62-13.83,34.66-54.74,34.66-89.66l11.82-7.1c0-53.24-38.24-100.43-85.41-100.43Zm4.82,183.75c-10.13,0-16.47-3.61-20.29-7.22h41.12c-3.64,3.6-9.99,7.22-20.83,7.22Z"/><path class="cls-3" d="M171.11,161.51s9.63,3.34,22.77-.03"/><g><path class="cls-2" d="M138.23,119.16s3.15-1.08,8.45-1.32c2.03-.09,4.38-.06,6.99,.2,2.07,.21,4.31,.56,6.68,1.12"/><path class="cls-2" d="M154.54,122.9c0,4.5-1.97,8.15-4.41,8.15s-4.41-3.65-4.41-8.15c0-1.35,.18-2.63,.49-3.75,.13-.47,.29-.91,.46-1.32,2.03-.09,4.38-.06,6.99,.2,.15,.35,.27,.72,.38,1.12,.32,1.12,.49,2.39,.49,3.75Z"/></g><g><path class="cls-2" d="M226.9,119.16s-3.15-1.08-8.45-1.32c-2.03-.09-4.38-.06-6.99,.2-2.07,.21-4.31,.56-6.68,1.12"/><path class="cls-2" d="M210.59,122.9c0,4.5,1.97,8.15,4.41,8.15s4.41-3.65,4.41-8.15c0-1.35-.18-2.63-.49-3.75-.13-.47-.29-.91-.46-1.32-2.03-.09-4.38-.06-6.99,.2-.15,.35-.27,.72-.38,1.12-.32,1.12-.49,2.39-.49,3.75Z"/></g><path class="cls-3" d="M203.16,93.12c8.5-1.11,16.53-.95,24.27,0"/><path class="cls-3" d="M138.78,92.74c8.62-.84,16.62-.43,24.22,.76"/><path class="cls-2" d="M179.17,1.01c-122.32,0-89.72,127.08-89.72,127.08l20.19,4.73,.17-10.99s1.17-5.47,17.23-17.89c4.71-3.65,9.05-7.44,13.03-11.3-3.81,10.26-9.85,29.61,4.16,16.94,15.42-13.95,31.83-61.28,36.94-76.89,1.61,2.34,4.84,6.94,9.33,12.88,9.2,19.13,27.04,49.26,32.77,52.41,4.79,2.64-.66-22.64,2.66-24.38,7.97-2.71,25.3,59.6,25.3,59.6l17.55-2.15S305.39,1.01,179.17,1.01"/><g><path class="cls-1" d="M111.98,124s-11.42-9.74-20.54-2.59c-4.69,3.67-5.85,20.75-3.99,28.43,3.75,15.5,13.91,26.65,30.49,26.72"/><path class="cls-1" d="M240.93,176.02c16.58-.06,24.66-10.68,28.41-26.18,1.86-7.68,2.28-23.24-2.41-26.92-9.12-7.15-20.05,.54-20.05,.54"/></g><g><path class="cls-3" d="M152.64,146.52l-7.07,.23c-4.68-.29-9.32-1.58-13.57-4.1-7.56-4.49-12.21-11.33-12.21-22.67h0c0-10.43,6.63-18.89,14.82-18.89h27.15c8.18,0,14.82,8.46,14.82,18.89h0c0,12.95-5.87,21.59-15.88,25.12-2.62,.92-5.34,1.34-8.06,1.42Z"/><path class="cls-3" d="M176.33,116.7s3.21-2.81,7.08-2.81,6.88,2.89,6.88,2.89"/><path class="cls-3" d="M214.03,146.52l7.07,.23c4.68-.29,9.32-1.58,13.57-4.1,7.56-4.49,12.21-11.33,12.21-22.67h0c0-10.43-6.63-18.89-14.82-18.89h-27.15c-8.18,0-14.82,8.46-14.82,18.89h0c0,12.95,5.87,21.59,15.88,25.12,2.62,.92,5.34,1.34,8.06,1.42Z"/></g><g><path class="cls-1" d="M59.74,171.86c-1.83,9.89-6.98,37.66-7.99,43.1-1.58-5.31-9.63-32.38-12.5-42.02-3.19-10.71-20.5-8.47-16.51,4.91,1.97,6.63,5.93,20.52,9.41,32.85-.92-.03-1.89-.02-2.93,.03l-4.54,.53c-4.51,.24-8.95,1.33-12.96,3.4-6.43,3.31-9.39,7.68-10.7,17.29h0c.25,4.75,1.84,9.11,4.37,12.73-.21,2.16-.22,4.42-.1,6.75l.21,4.04c.45,8.42,7.41,15.51,14.02,19.71l1.19,22.45,39.86-2.4-1.03-19.4s8.64-5.32,8.04-16.64c-.41-7.68-.87-16.48-1.13-21.34,.69-4.43,7.81-49.8,10.23-62.86,2.54-13.73-14.91-14.13-16.94-3.14Z"/><path class="cls-1" d="M56.27,236.53s-11.53-3.44-21.41-6.16c-9.87-2.72-14.08,9.67-4.89,14.85,9.19,5.19,20.22,14.33,20.22,14.33"/><path class="cls-1" d="M5.39,244.69s-1.07,8.96,19.11,5.61c5.5-.91,9.15-2.87,9.15-2.87"/><path class="cls-1" d="M32.15,210.71s6.03,5.3,6.4,12.33,.31,8.44,.31,8.44"/></g><path class="cls-3" d="M208.77,180.06s-.93,3.61-4.56,7.22h-41.12c-3.82-3.6-5.12-7.22-5.12-7.22h50.81Z"/><polyline class="cls-3" points="79.47 353.18 70.8 295.06 60.57 295.25"/><path class="cls-2" d="M204.21,186.04c-3.64,3.6-9.99,7.22-20.83,7.22-10.13,0-16.47-3.61-20.29-7.22h41.12Z"/><path class="cls-3" d="M150.8,184.81s-4.93-8.63,3.7-13.57"/></g></g></svg>