<?xml version="1.0" encoding="UTF-8"?><svg id="Layer_2" xmlns="http://www.w3.org/2000/svg" viewBox="0 0 986.17 970.15"><g id="Layer_1-2"><g><g><path d="M737.21,107.66v-.09s.05,.03,.08,.05c-.03,.01-.06,.03-.08,.04Zm19.02-71.12h0s.01,0,.01,0c0,0-.01,0-.01,0Zm38.23,0h-.01s0-.29,0-.29h.01v.29Zm19.19,71.13v-.09s.06,.03,.09,.05c-.03,.01-.06,.03-.09,.04Zm13.99-52.16s-.06-.09-.09-.14h.17s-.05,.09-.08,.14Z"/><g><path d="M86.48,0V3.7c-.25,2.69-.79,5.31-1.58,7.8-.84,2.68-1.98,5.23-3.36,7.62h-.17s.06,.1,.09,.15c-3.37,5.77-8.21,10.57-14,13.91-.03-.02-.06-.04-.09-.06v.1c-2.43,1.4-5.04,2.53-7.77,3.36-3.54,1.08-7.29,1.66-11.17,1.66h-.16v-.24s-.01-.08-.01-.13v-.08s0-.02,.01-.04c.04-3.76,.64-7.36,1.68-10.77,.86-2.76,2.01-5.4,3.43-7.86,3.35-5.79,8.2-10.64,13.99-13.99,2.46-1.42,5.1-2.58,7.86-3.43C78.79,.61,82.56,0,86.48,0Z"/><path d="M124.71,75.96V38.23h0c-3.93,0-7.7,.59-11.27,1.69-2.76,.84-5.39,2-7.84,3.43-5.81,3.35-10.64,8.18-14,13.99-1.42,2.46-2.58,5.09-3.43,7.85-.1,.33-.2,.66-.3,.99-.06,.22-.12,.44-.18,.68-.09,.34-.17,.69-.25,1.04-.09,.4-.18,.8-.25,1.21-.09,.44-.17,.89-.24,1.34-.05,.34-.1,.68-.15,1.03-.01,.11-.03,.22-.04,.33-.04,.36-.08,.73-.11,1.1-.03,.3-.05,.59-.07,.89-.02,.29-.04,.59-.05,.88,0,.17-.02,.34-.02,.51-.01,.13-.01,.26-.01,.39-.01,.12-.01,.24-.01,.37h0s-.01,.06-.01,.09v-.08c-.04-3.75-.63-7.36-1.68-10.77-.21-.68-.43-1.35-.68-2-.24-.66-.51-1.32-.79-1.96-.14-.32-.28-.64-.43-.95-.45-.96-.93-1.89-1.45-2.8-.03-.04-.06-.09-.09-.14-3.35-5.81-8.18-10.64-13.99-13.99-2.45-1.43-5.08-2.59-7.85-3.43-3.5-1.08-7.23-1.67-11.09-1.69h-.16v57.58c0,.06,0,.08,0,.11h0c0,.19,0,.36,.02,.53,0,.12,0,.24,.02,.38,0,.11,.01,.23,.02,.34,.02,.21,.04,.42,.06,.62,.04,.3,.08,.59,.12,.88,.05,.33,.12,.65,.19,.98,.03,.18,.08,.36,.13,.54,.04,.18,.09,.37,.14,.55,.07,.23,.13,.46,.21,.69,.07,.22,.15,.45,.24,.67,.16,.45,.33,.88,.53,1.32,1.93,4.27,5.36,7.69,9.64,9.6,2.37,1.07,5.01,1.66,7.78,1.66h.01c2.79,0,5.44-.6,7.84-1.69h.01c4.24-1.91,7.65-5.32,9.57-9.57,1.03-2.29,1.64-4.84,1.68-7.5v-.04s0,.03,.01,.04h0c0,.19,.01,.36,.02,.53,0,.13,.01,.25,.02,.38l.14,1.36s.01,.07,.01,.1c.03,.19,.06,.38,.09,.56l.86,3.23c.08,.21,.16,.43,.24,.64l.3,.7c1.92,4.27,5.37,7.69,9.64,9.6,2.38,1.07,5.01,1.66,7.79,1.66h.01c2.79,0,5.44-.6,7.83-1.69,3.99-1.79,7.24-4.9,9.21-8.79,.13-.26,.26-.49,.38-.78,1.02-2.29,1.64-4.84,1.68-7.5v-.09s0-.06,0-.09v-.17h0v-.17c0-.28-.01-.56-.03-.85,.02,.22,.02,.43,.03,.64v.21c0,.06,0,.11,0,.17v-19.36s0-.03,0-.04v-.09s0-.08,0-.12Zm-38.23,19.88s-.01,0-.01,.02v-.1s0,.01,.01,.01v.07Zm0-19.65h-.01s0-.02,0-.02h.01v.02Zm0-.04h-.01s0-.09,0-.09c0,.02,0,.04,.01,.06v.03Z"/><path d="M124.7,38.24c-3.92,0-7.7-.59-11.26-1.69-2.73-.84-5.33-1.98-7.77-3.38-.03-.02-.05-.04-.08-.06-2.9-1.68-5.57-3.73-7.92-6.08-2.35-2.35-4.4-5.01-6.08-7.92h-.01c-1.42-2.45-2.57-5.08-3.43-7.85l-.97-3.92c-.08-.4-.15-.8-.22-1.21l-.03-.17c-.06-.41-.12-.83-.17-1.25v-.08c-.05-.37-.09-.74-.13-1.13l-.03-.35c-.02-.3-.04-.61-.06-.92l-.02-.47c-.02-.42-.04-.84-.04-1.27V.01c3.93,0,7.7,.59,11.25,1.69,2.77,.84,5.39,2.01,7.86,3.43,5.8,3.36,10.63,8.2,13.99,13.99,.02,.05,.06,.1,.09,.15,1.38,2.41,2.5,4.99,3.34,7.71,1.1,3.56,1.69,7.33,1.69,11.26Z"/></g><g><path d="M185.41,95.71c-.03-.05-.06-.09-.09-.14-3.36-5.81-8.19-10.65-13.99-14.01-2.46-1.42-5.09-2.57-7.86-3.43-3.51-1.08-7.23-1.67-11.09-1.69,3.89,0,7.64-.57,11.16-1.65,2.73-.84,5.34-1.97,7.79-3.37v-.1s.05,.04,.08,.05c5.8-3.33,10.63-8.14,14-13.91-.03-.04-.06-.09-.09-.14-3.36-5.81-8.19-10.64-13.99-14-2.46-1.43-5.09-2.58-7.86-3.43-3.51-1.08-7.23-1.67-11.09-1.69,3.89,0,7.64-.58,11.16-1.66,2.73-.83,5.34-1.97,7.79-3.37v-.1s.05,.04,.08,.06c5.8-3.34,10.63-8.14,14-13.91-.03-.05-.06-.1-.09-.15h.17c1.39-2.39,2.52-4.94,3.37-7.63,.79-2.52,1.34-5.16,1.59-7.89V0c-3.92,0-7.71,.59-11.26,1.69-2.76,.84-5.4,2.01-7.85,3.43-5.81,3.36-10.64,8.2-14.01,14-1.42,2.46-2.57,5.09-3.43,7.86-1.1,3.56-1.69,7.33-1.69,11.26V114.68h38.23c0-3.92-.59-7.71-1.69-11.26-.83-2.71-1.96-5.28-3.35-7.71Z"/><path d="M195.56,19.11c1.68,2.9,3.73,5.57,6.09,7.92,2.35,2.35,5.01,4.4,7.92,6.08,.02,.02,.05,.04,.08,.06,2.43,1.4,5.03,2.53,7.77,3.38,3.56,1.1,7.34,1.69,11.26,1.69,0-3.93-.59-7.71-1.69-11.26-.83-2.71-1.96-5.29-3.35-7.71-.03-.05-.06-.1-.09-.15-3.36-5.8-8.19-10.64-13.99-14-2.46-1.42-5.09-2.58-7.86-3.43C198.15,.6,194.36,0,190.45,0c0,3.92,.59,7.71,1.69,11.26,.85,2.76,2.01,5.4,3.43,7.85Z"/><path d="M227.09,49.71c.79-2.53,1.34-5.16,1.59-7.89v-3.6c-3.92,0-7.71,.58-11.26,1.69-2.76,.84-5.4,2-7.85,3.43-5.81,3.36-10.65,8.19-14.01,14,1.68,2.9,3.73,5.57,6.09,7.92,2.35,2.35,5.01,4.4,7.92,6.08,.02,.02,.05,.04,.08,.05,2.43,1.41,5.03,2.54,7.77,3.39,3.56,1.1,7.34,1.68,11.26,1.68,0-3.92-.59-7.7-1.69-11.26-.83-2.7-1.96-5.28-3.35-7.71-.03-.04-.06-.09-.09-.14h.17c1.39-2.39,2.52-4.94,3.37-7.63Z"/><path d="M209.57,81.56c-5.81,3.37-10.65,8.2-14.01,14.01-1.42,2.45-2.57,5.08-3.43,7.85-1.1,3.56-1.69,7.34-1.69,11.26h.17c3.89,0,7.63-.58,11.16-1.66,2.73-.83,5.34-1.97,7.79-3.36v-.1s.05,.03,.08,.05c5.8-3.33,10.63-8.14,14-13.9-.03-.05-.06-.09-.09-.14h.17c1.39-2.39,2.52-4.94,3.37-7.64,.79-2.52,1.34-5.16,1.59-7.89v-3.6c-3.92,0-7.71,.59-11.26,1.69-2.76,.85-5.4,2.01-7.85,3.43Z"/></g><g><path d="M294.41,0V3.6c-.26,2.72-.79,5.36-1.59,7.89-.84,2.68-1.98,5.23-3.37,7.63h-.17c.03,.05,.06,.1,.09,.15-3.37,5.77-8.21,10.57-14,13.9-.03-.02-.06-.04-.09-.06v.1c-2.43,1.4-5.04,2.53-7.78,3.37-3.54,1.07-7.28,1.66-11.16,1.66h-.17c0-3.93,.59-7.71,1.69-11.26,.84-2.76,2.01-5.4,3.43-7.86,3.36-5.8,8.2-10.64,14-14,2.46-1.42,5.09-2.58,7.86-3.43C286.7,.6,290.49,0,294.41,0Z"/><path d="M292.72,65.19c-.83-2.7-1.96-5.28-3.35-7.71-.03-.04-.06-.09-.09-.14-3.36-5.81-8.19-10.64-14-14-2.45-1.43-5.08-2.58-7.85-3.43-3.52-1.09-7.23-1.67-11.09-1.69h-.17v38.22c0,3.93,.59,7.71,1.69,11.26,.84,2.76,2,5.39,3.43,7.86,1.68,2.89,3.73,5.56,6.08,7.92,2.36,2.35,5.02,4.4,7.92,6.08,.03,.01,.06,.03,.09,.05,2.43,1.4,5.03,2.54,7.77,3.38,3.56,1.1,7.34,1.69,11.26,1.69v-38.23c0-3.92-.59-7.7-1.69-11.26Zm-17.43,6.25v-.1s.06,.04,.09,.05c-.03,.02-.06,.03-.09,.05Z"/><path d="M332.63,38.23c-3.93,0-7.71-.59-11.26-1.69-2.73-.84-5.33-1.98-7.77-3.38-.03-.02-.06-.04-.09-.06-2.9-1.68-5.56-3.73-7.92-6.08-2.35-2.35-4.4-5.01-6.08-7.92-1.43-2.45-2.58-5.08-3.43-7.85-1.1-3.56-1.69-7.34-1.69-11.26,3.92,0,7.7,.59,11.26,1.69,2.76,.84,5.4,2.01,7.85,3.43,5.81,3.36,10.64,8.2,14,14,.03,.05,.06,.1,.09,.15,1.39,2.41,2.51,4.99,3.35,7.71,1.1,3.56,1.69,7.33,1.69,11.26Z"/><path d="M332.63,76.45v3.6c-.26,2.72-.79,5.37-1.59,7.89-.84,2.69-1.98,5.24-3.37,7.64h-.17c.03,.05,.06,.09,.09,.14-3.38,5.77-8.21,10.58-14,13.9-.03-.02-.06-.04-.09-.05v.1c-2.44,1.39-5.04,2.52-7.78,3.36-3.54,1.08-7.28,1.66-11.16,1.66h-.17c0-3.92,.59-7.71,1.69-11.26,.84-2.76,2-5.39,3.43-7.85,3.36-5.81,8.2-10.64,14-14.01,2.46-1.42,5.09-2.57,7.86-3.43,3.56-1.1,7.33-1.69,11.26-1.69Z"/></g><g><path d="M398.36,0V3.6c-.25,2.72-.78,5.36-1.59,7.89-.84,2.68-1.98,5.23-3.36,7.63h-.17c.02,.05,.06,.1,.09,.15-3.38,5.77-8.21,10.57-14.01,13.9-.03-.02-.05-.04-.08-.06v.1c-2.44,1.4-5.04,2.53-7.79,3.37-3.53,1.07-7.27,1.66-11.16,1.66h-.17V0h38.23Z"/><path d="M436.59,38.23v41.81c-.25,2.72-.79,5.37-1.59,7.89-.84,2.69-1.98,5.24-3.37,7.64h-.16c.02,.05,.06,.09,.09,.14-3.38,5.77-8.21,10.58-14.01,13.9-.03-.02-.05-.04-.08-.05v.1c-2.44,1.39-5.04,2.52-7.79,3.36-3.53,1.08-7.27,1.66-11.16,1.66h-38.4V38.23h.17c3.87,.02,7.59,.6,11.1,1.69,2.76,.84,5.39,2,7.85,3.43,5.8,3.36,10.63,8.19,14,14,.02,.05,.06,.1,.09,.14,1.38,2.42,2.5,5,3.34,7.71,1.11,3.57,1.69,7.34,1.69,11.26,0-3.92,.59-7.7,1.69-11.26,.85-2.76,2.01-5.39,3.44-7.85,3.36-5.81,8.19-10.64,14-14,2.45-1.43,5.08-2.58,7.85-3.43,3.57-1.11,7.34-1.69,11.26-1.69Z"/><path d="M436.59,38.23c-3.92,0-7.7-.59-11.26-1.69-2.73-.84-5.33-1.98-7.77-3.38-.03-.02-.05-.04-.08-.06-2.9-1.68-5.57-3.73-7.92-6.08-2.35-2.35-4.4-5.01-6.08-7.92h-.01c-1.42-2.45-2.57-5.08-3.43-7.85-1.1-3.56-1.69-7.34-1.69-11.26,3.93,0,7.71,.59,11.26,1.69,2.77,.84,5.4,2.01,7.86,3.43,5.8,3.36,10.63,8.2,14,14,.02,.05,.06,.1,.09,.15,1.38,2.41,2.5,4.99,3.34,7.71,1.1,3.56,1.69,7.33,1.69,11.26Z"/></g><path d="M538.97,11.49c.79-2.52,1.34-5.16,1.59-7.89V0h-38.23c-3.92,0-7.71,.59-11.26,1.69-2.76,.84-5.4,2.01-7.85,3.43-5.81,3.36-10.65,8.2-14.01,14-1.42,2.46-2.57,5.09-3.43,7.86-1.1,3.56-1.69,7.33-1.69,11.26v38.22c0,3.93,.59,7.71,1.69,11.26,.85,2.76,2.01,5.39,3.43,7.86,1.68,2.89,3.73,5.56,6.09,7.92,2.35,2.35,5.01,4.4,7.92,6.08,.02,0,.05,.03,.08,.05,2.43,1.4,5.03,2.54,7.77,3.38,3.56,1.1,7.34,1.69,11.26,1.69h38.23c0-3.92-.59-7.71-1.69-11.26-.83-2.71-1.96-5.28-3.35-7.71-.03-.05-.06-.09-.09-.14-3.36-5.81-8.19-10.65-14-14.01-2.45-1.42-5.08-2.57-7.85-3.43-3.51-1.08-7.23-1.67-11.09-1.69,3.88,0,7.63-.57,11.16-1.65,2.73-.84,5.34-1.97,7.78-3.37v-.1s.06,.04,.09,.05c5.79-3.33,10.63-8.14,14-13.9-.03-.04-.06-.09-.09-.14-3.36-5.81-8.19-10.64-14-14-2.45-1.43-5.08-2.58-7.85-3.43-3.51-1.08-7.23-1.67-11.09-1.69,3.88,0,7.63-.58,11.16-1.66,2.73-.83,5.34-1.97,7.78-3.37v-.1l.09,.06c5.79-3.34,10.63-8.14,14-13.9-.03-.05-.06-.1-.09-.15h.17c1.39-2.39,2.52-4.94,3.37-7.63Z"/><path d="M606.38,0c-3.94,0-7.72,.58-11.3,1.69-2.77,.84-5.4,2-7.87,3.43-5.82,3.36-10.67,8.19-14.03,14-1.43,2.46-2.59,5.08-3.43,7.85-1.11,3.57-1.69,7.34-1.69,11.26h.41s-.02,0-.02,.01h-.03s-.01-.01-.02-.01-.01,0-.02,.01h-.32v57.33h0c0,2.8,.6,5.46,1.69,7.86,1.92,4.27,5.38,7.7,9.66,9.6,2.39,1.07,5.03,1.66,7.81,1.66s5.47-.6,7.87-1.69c4.26-1.92,7.68-5.33,9.61-9.57,1.08-2.4,1.68-5.05,1.69-7.85h-.02v-19.12h19.16v-.03c0-4.29-1.44-8.23-3.84-11.42-1.55-2.06-3.49-3.79-5.74-5.08-.35-.2-.7-.39-1.07-.57-.3-.15-.6-.29-.91-.42-.02-.01-.04-.02-.06-.02-.11-.06-.22-.1-.33-.14-.01,0-.01-.01-.02-.01-.02-.01-.03-.01-.05-.02-.29-.12-.58-.23-.89-.33-.3-.11-.6-.2-.91-.29-.05-.01-.11-.03-.16-.04-.03-.01-.06-.02-.09-.03t-.02-.01c-.28-.08-.56-.15-.85-.21-.02-.01-.05-.01-.07-.02-.18-.04-.36-.08-.53-.11-.16-.03-.31-.06-.46-.08-.38-.07-.78-.12-1.16-.16-.21-.02-.42-.04-.63-.05-.15-.02-.31-.03-.47-.03-.03-.01-.06-.01-.09-.01-.23,0-.46-.01-.7-.01h-.02s-.04-.01-.06-.01h0s-.02,.01-.02,.01h0s.01-.01,.02-.01v-19.1h-.24s-.02-.01-.02-.01c-.01,0-.02,0-.03,.01h-.02s-.04-.01-.05-.01h1.01c3.73-.04,7.32-.61,10.71-1.65,2.75-.83,5.36-1.97,7.81-3.37v-.1s.06,.04,.08,.05c5.81-3.33,10.66-8.13,14.04-13.89-.03-.05-.06-.1-.09-.15h.17c1.38-2.39,2.52-4.94,3.36-7.63,.81-2.53,1.34-5.16,1.59-7.89V0h-38.31Zm-37.86,38.23s-.01-.01-.02-.01h.2c-.06,.01-.12,.01-.18,.01Zm18.69,71.42v-.09s.06,.03,.08,.05c-.02,.01-.05,.03-.08,.04Z"/><g><path d="M710.34,0V3.6c-.26,2.72-.8,5.35-1.6,7.89-.84,2.68-1.98,5.23-3.37,7.62h-.17s.06,.1,.09,.15c-3.37,5.77-8.22,10.57-14.03,13.9-.03,0-.05-.03-.08-.05v.1c-2.45,1.39-5.06,2.53-7.8,3.36-3.39,1.04-6.98,1.61-10.71,1.65h-.65c0-3.92,.59-7.7,1.69-11.26,.85-2.76,2.01-5.39,3.43-7.85,3.38-5.81,8.22-10.64,14.04-13.99,2.46-1.43,5.1-2.59,7.87-3.43,3.56-1.1,7.36-1.69,11.29-1.69Z"/><path d="M710.34,76.45v19.11h0v19.12c-3.93,0-7.73-.6-11.29-1.69-2.74-.84-5.35-1.98-7.79-3.38-.03-.02-.05-.04-.08-.05-5.82-3.36-10.67-8.19-14.04-13.99h0c-1.42-2.46-2.58-5.1-3.43-7.86-1.1-3.56-1.69-7.34-1.69-11.26V38.23h.17s.11,0,.16,0h0s0-.01,.01,0c.02-.01,.04-.01,.05-.01h.01s.03,0,.05,.01c0-.01,.01-.01,.02-.01h.01s.01,.01,.01,.01c.42,0,.85,.02,1.27,.04,.16,0,.31,0,.47,.02,.31,.02,.63,.04,.93,.06,.12,.01,.23,.02,.35,.03,.38,.04,.76,.08,1.13,.12,.03,0,.05,0,.08,.01,.41,.05,.84,.11,1.25,.17,.06,.01,.11,.02,.17,.03,.4,.07,.8,.14,1.21,.22,1.34,.26,2.65,.59,3.93,.98,2.76,.85,5.4,2.01,7.87,3.42,5.81,3.37,10.66,8.2,14.02,14.01,.03,.05,.06,.09,.09,.14,1.39,2.42,2.52,5,3.35,7.71,1.1,3.56,1.7,7.34,1.7,11.26Z"/><path d="M748.66,38.22h-.49c-3.76-.04-7.38-.63-10.8-1.68-2.74-.84-5.35-1.98-7.78-3.39-.03-.01-.06-.03-.08-.05-2.91-1.68-5.58-3.73-7.94-6.08-2.37-2.35-4.42-5.01-6.1-7.92-1.42-2.46-2.58-5.08-3.43-7.85-1.1-3.57-1.69-7.34-1.69-11.26,3.93,0,7.72,.58,11.29,1.69,2.77,.84,5.41,2,7.88,3.43,5.81,3.36,10.66,8.2,14.02,14,.03,.05,.06,.1,.09,.15,1.39,2.41,2.52,4.99,3.35,7.7,1.1,3.57,1.69,7.34,1.69,11.26Z"/><path d="M748.66,76.45v19.11h0v19.12c-3.93,0-7.73-.6-11.29-1.69-2.74-.84-5.35-1.98-7.79-3.38-.03-.02-.06-.04-.08-.05-5.82-3.36-10.67-8.19-14.04-13.99h0c-1.42-2.46-2.58-5.1-3.43-7.86-1.1-3.56-1.69-7.34-1.69-11.26h38.32Z"/></g><path d="M926.65,2.26c-2.76,.84-5.4,2-7.85,3.43-5.81,3.36-10.64,8.19-14,14-1.43,2.46-2.58,5.08-3.44,7.85-1.1,3.57-1.69,7.34-1.69,11.26h.65c-.1,.01-.21,.01-.32,.01h-.33v57.33h0v19.12h.17c3.89,0,7.64-.58,11.16-1.66,2.74-.83,5.34-1.97,7.79-3.37v-.09s.05,.03,.08,.05c5.8-3.34,10.63-8.14,14.01-13.9-.03-.05-.07-.1-.09-.15h.16c1.39-2.39,2.52-4.94,3.37-7.63,.79-2.52,1.34-5.16,1.59-7.89V38.8h-.24c-.08,0-.17,0-.25-.01h.49V.58c-3.92,0-7.7,.58-11.26,1.69Zm-7.85,31.42s.05,.04,.08,.05c-.02,.02-.05,.03-.08,.05v-.1Zm-14.01,62.45h0Z"/><g><path d="M852.59,38.81v3.59c-.26,2.72-.79,5.36-1.59,7.9-.84,2.68-1.98,5.23-3.37,7.62h-.17c.03,.05,.06,.09,.09,.14-3.38,5.77-8.21,10.58-13.99,13.9-.03-.02-.06-.03-.09-.05-2.9-1.68-5.56-3.73-7.92-6.08-2.35-2.36-4.4-5.01-6.08-7.92-1.43-2.46-2.58-5.09-3.43-7.86-1.1-3.55-1.69-7.31-1.69-11.25h.33s.05-.01,.08-.01c.01,0,.02,0,.03,.01,0-.01,.02,0,.02,0,.01-.01,.02,0,.03,0h18.79s.06-.01,.09-.01h.05s.03,0,.04,.01h18.27s.05-.01,.07-.01h.06s.08,0,.12,.01h.24Z"/><path d="M871.7,.59V38.8h-.17c-.06,0-.12,0-.18,.01h.35V115.25c-2.77,0-5.4-.59-7.79-1.66-4.27-1.91-7.72-5.33-9.63-9.6-1.08-2.4-1.69-5.05-1.69-7.85h0V38.81h.33c.11,0,.21,0,.32-.01h-.65V19.69c0-2.8,.6-5.45,1.69-7.85,1.91-4.25,5.32-7.66,9.57-9.57,2.39-1.08,5.05-1.69,7.85-1.69Z"/><path d="M776.58,38.81h-.04s.02-.01,.02-.01t.02,.01Z"/><path d="M814.08,38.81h.32v57.33c0,2.79-.61,5.44-1.69,7.85-.27,.58-.57,1.16-.89,1.71-1.67,2.89-4.08,5.3-6.97,6.98-.55,.32-1.13,.62-1.72,.88-2.39,1.09-5.04,1.69-7.85,1.69s-5.4-.59-7.79-1.66c-.61-.27-1.2-.58-1.78-.91-2.89-1.68-5.3-4.09-6.97-6.98-.32-.55-.62-1.13-.89-1.71-1.07-2.4-1.69-5.05-1.69-7.86V38.81h.41c.08,0,.16,0,.24-.01h-.65V.58h.03s.04,.01,.06,.01c.26,0,.52,.01,.77,.02,3.62,.07,7.11,.64,10.41,1.66,2.76,.85,5.38,2.01,7.85,3.44,1.34,.76,2.61,1.63,3.83,2.55,2.88,2.16,5.44,4.73,7.61,7.61,.92,1.22,1.78,2.49,2.55,3.83,.03,.05,.06,.1,.09,.14,1.38,2.42,2.51,5,3.35,7.71,1.02,3.33,1.61,6.84,1.67,10.48l.02,.78h-.41s.06,0,.09,.01Z"/></g></g><g><g><path d="M247.72,153.16v57.33h0v38.22h0v19.12c-3.92,0-7.71-.59-11.26-1.69-2.73-.84-5.33-1.98-7.77-3.38-.03-.02-.05-.04-.08-.05-5.81-3.37-10.65-8.2-14-13.99h0c-1.42-2.46-2.57-5.09-3.43-7.86-1.09-3.56-1.69-7.34-1.69-11.26v-19.11h0v-19.12c0-3.92,.59-7.7,1.69-11.26,.85-2.76,2.01-5.39,3.43-7.85,3.37-5.81,8.2-10.64,14-13.99,2.45-1.43,5.08-2.58,7.85-3.44,3.56-1.1,7.34-1.69,11.26-1.69Z"/><path d="M285.95,229.61v3.6c-.25,2.72-.79,5.36-1.59,7.89-.84,2.68-1.98,5.23-3.37,7.62h-.17c.03,.05,.06,.1,.09,.15-3.37,5.77-8.2,10.57-13.99,13.9-.03-.02-.06-.04-.08-.05v.09c-2.44,1.4-5.05,2.53-7.79,3.37-3.54,1.07-7.27,1.66-11.16,1.66h-.17c0-3.92,.59-7.71,1.69-11.26,.85-2.76,2.01-5.39,3.43-7.85h0c3.36-5.81,8.2-10.65,14-14,2.45-1.42,5.08-2.57,7.85-3.43,3.56-1.1,7.34-1.69,11.26-1.69Z"/></g><path d="M428.14,229.02v20.81c-.19,2.17-.76,4.25-1.61,6.16-1.92,4.24-5.33,7.65-9.57,9.57-2.4,1.09-5.06,1.69-7.86,1.69h-.08c-.33,0-.64-.01-.95-.03-.35-.02-.69-.04-1.03-.08-.23-.02-.47-.05-.7-.09-.01,0-.03,0-.04-.01-.28-.04-.56-.08-.85-.14-.47-.09-.93-.2-1.38-.33-.32-.09-.64-.18-.94-.28-.62-.2-1.22-.44-1.82-.7-4.27-1.91-7.71-5.33-9.64-9.6-1.06-2.36-1.67-4.97-1.69-7.71v-19.26h-.08v-.24s-.01-.03-.01-.04,0-.03,.01-.04c-.01-.11,0-.22,0-.33v-18.1s-.01-.03-.01-.04v-.08s.01-.01,0-.02c0,0,.01-.01,0-.02h0v-.02s0-.04,.01-.06v-18.9s-.01-.01-.01-.02v3.38c-.26,2.69-.79,5.3-1.57,7.79-.85,2.69-1.99,5.24-3.37,7.64h-.17s.06,.09,.09,.14c-.76,1.31-1.62,2.56-2.53,3.76-2.18,2.9-4.76,5.46-7.66,7.62-1.22,.91-2.49,1.76-3.81,2.52-.02-.01-.05-.03-.08-.05-1.34-.77-2.62-1.63-3.83-2.55-2.89-2.17-5.46-4.73-7.63-7.62-.91-1.22-1.78-2.5-2.54-3.82-1.43-2.47-2.58-5.1-3.43-7.86-.14-.41-.26-.83-.37-1.26-.07-.24-.13-.48-.18-.72l-.18-.73c-.11-.45-.2-.91-.29-1.37l-.39-2.51c-.04-.33-.07-.65-.1-.98l-.03-.31c-.03-.41-.06-.82-.08-1.23-.02-.29-.03-.57-.03-.86l-.02-.51s-.01-.05-.01-.07v-.38s0-.01,0-.02v56.73s0-.04,0-.06c0,.12,0,.23,0,.35h0v1.83c-.2,2.13-.76,4.15-1.6,6.03-.12,.26-.25,.52-.38,.78s-.27,.51-.41,.76-.29,.51-.45,.75c-.15,.25-.3,.48-.47,.72-.33,.47-.68,.92-1.04,1.37-.2,.24-.4,.47-.62,.7-.22,.23-.43,.45-.66,.67-.15,.16-.31,.31-.47,.45-.26,.25-.52,.49-.8,.71-.18,.15-.37,.29-.56,.43-.24,.2-.49,.38-.74,.55-.22,.15-.45,.3-.68,.44-.24,.16-.5,.31-.75,.45-.25,.15-.5,.28-.76,.41-.26,.13-.52,.26-.78,.38-2.39,1.09-5.06,1.69-7.85,1.69h-.09c-.31,0-.63-.01-.94-.03-.64-.03-1.27-.09-1.89-.19-.09-.01-.18-.03-.27-.05-.03,0-.07-.01-.1-.02-.26-.04-.51-.08-.75-.14-.32-.07-.63-.14-.93-.23-.21-.06-.41-.12-.62-.18-.04-.01-.1-.03-.14-.04-.1-.03-.2-.07-.3-.1-.2-.06-.4-.13-.59-.21-.13-.05-.27-.1-.4-.15-.26-.1-.51-.21-.76-.32-4.28-1.91-7.72-5.33-9.65-9.6-1.06-2.36-1.67-4.97-1.69-7.71v-19.26h-.08v-38.22c0-.26,.01-.52,.02-.79,.06-3.63,.65-7.15,1.67-10.46,.85-2.78,2.01-5.4,3.43-7.86,.77-1.34,1.62-2.61,2.55-3.84,2.17-2.88,4.73-5.44,7.61-7.61,1.23-.92,2.5-1.78,3.83-2.54,2.46-1.43,5.09-2.59,7.86-3.44,3.29-1.01,6.79-1.59,10.4-1.66,.26-.01,.52-.02,.78-.02h.16c.26,0,.52,.01,.77,.02,3.17,.14,6.12,1.06,8.69,2.56,2.24,1.29,4.19,3.02,5.74,5.08,2.39,3.19,3.82,7.13,3.83,11.42,0-4.29,1.43-8.23,3.83-11.41,1.54-2.06,3.49-3.8,5.73-5.09,2.58-1.5,5.54-2.43,8.71-2.56,.25-.01,.5-.02,.76-.02h.15c.26,0,.52,.01,.77,.02,3.62,.07,7.11,.65,10.41,1.66,2.77,.85,5.4,2.01,7.87,3.44,1.33,.76,2.6,1.62,3.83,2.55,2.88,2.16,5.44,4.73,7.61,7.61,.92,1.23,1.78,2.49,2.54,3.83,.03,.05,.06,.1,.09,.15,1.39,2.41,2.52,4.99,3.35,7.71,1.02,3.31,1.61,6.83,1.67,10.46l.02,.79s0,38.22,0,38.22h.01Z"/><g><path d="M532.06,229.61c-3.92,0-7.7-.59-11.26-1.69-2.73-.84-5.33-1.98-7.77-3.38-.03-.02-.05-.04-.08-.05-5.81-3.36-10.64-8.2-14-13.99,0,0,.01,0,.01-.01h-.01c-1.42-2.45-2.57-5.08-3.43-7.85-1.09-3.56-1.69-7.34-1.69-11.26h.17c3.87,.02,7.58,.61,11.09,1.69,2.76,.85,5.39,2.01,7.86,3.43,5.8,3.36,10.63,8.2,13.98,13.99,.03,.05,.07,.1,.09,.15,1.39,2.41,2.51,4.99,3.35,7.71,1.1,3.56,1.69,7.34,1.69,11.26Z"/><path d="M551.25,153.16v114.67h-.08c-2.74,0-5.34-.6-7.71-1.66-.6-.27-1.2-.58-1.77-.92-2.89-1.67-5.3-4.08-6.98-6.97-.32-.55-.62-1.13-.88-1.71-1.08-2.4-1.69-5.05-1.69-7.86v-19.11h0v-19.11h0v-38.22c0-2.8,.6-5.45,1.69-7.86,.26-.58,.56-1.16,.88-1.71,1.68-2.89,4.09-5.3,6.98-6.98,.55-.32,1.12-.61,1.71-.88,2.39-1.07,5.05-1.69,7.85-1.69Z"/><path d="M493.86,190.6c-.06-3.64-.64-7.15-1.67-10.48-.83-2.7-1.97-5.28-3.35-7.71-.03-.05-.06-.09-.09-.14-.77-1.34-1.63-2.61-2.55-3.84-2.17-2.88-4.73-5.44-7.6-7.61-1.23-.91-2.5-1.78-3.84-2.55-2.46-1.42-5.08-2.57-7.85-3.43-3.3-1.01-6.79-1.6-10.41-1.66-.25-.01-.51-.02-.77-.02-.02,0-.04,0-.06-.01h-.03v57.33h0v19.11h0v19.12c0,2.8,.61,5.45,1.69,7.86,.27,.58,.57,1.16,.89,1.71,1.67,2.89,4.08,5.3,6.97,6.97,.58,.34,1.17,.65,1.78,.92,2.38,1.06,5.01,1.66,7.79,1.66s5.45-.61,7.85-1.69c.59-.27,1.17-.57,1.72-.89,2.89-1.67,5.3-4.08,6.97-6.97,.32-.55,.62-1.13,.89-1.71,1.07-2.4,1.69-5.05,1.69-7.86v-57.33l-.02-.78Zm-19.1-4.33s.06,.04,.08,.05c-.02,.02-.05,.03-.08,.05v-.1Zm0,76.54v-.1s.06,.04,.08,.06c-.02,.01-.05,.03-.08,.04Zm14.08-13.94c-.03-.05-.06-.1-.09-.15h.17c-.03,.05-.05,.1-.08,.15Zm4.85-21.82c.09,.58,.14,1.18,.16,1.78-.02-.6-.08-1.2-.16-1.78Z"/></g><g><path d="M38.23,267.83c-3.92,0-7.71-.59-11.26-1.69-2.73-.84-5.33-1.98-7.77-3.38-.03-.02-.06-.04-.08-.05-5.81-3.37-10.65-8.2-14.01-14h0c-1.42-2.46-2.57-5.09-3.43-7.86-1.1-3.56-1.69-7.34-1.69-11.26H.17c3.86,.02,7.59,.61,11.09,1.69,2.76,.85,5.4,2.01,7.86,3.43,5.8,3.36,10.63,8.2,13.99,14,.03,.05,.06,.1,.09,.15,1.39,2.41,2.51,4.99,3.35,7.71,1.1,3.56,1.69,7.34,1.69,11.26Z"/><path d="M65.19,154.84c-2.76,.84-5.4,2-7.85,3.43-5.81,3.36-10.65,8.19-14.01,14-1.42,2.46-2.57,5.08-3.43,7.85-1.1,3.57-1.69,7.34-1.69,11.26h.41s-.02,0-.02,.01h-.04s-.02-.01-.02,0h-.33v57.33h0v19.12h.17c3.88,0,7.63-.58,11.16-1.66,2.73-.83,5.34-1.97,7.79-3.37v-.09s.05,.03,.08,.05c5.8-3.34,10.63-8.14,14-13.9-.03-.05-.06-.1-.09-.15h.17c1.39-2.39,2.52-4.94,3.37-7.63,.79-2.52,1.34-5.16,1.59-7.89v-41.81h-.24c-.08,0-.17,0-.25-.01h.49v-38.22c-3.92,0-7.71,.58-11.26,1.69Zm-26.47,36.54s-.01-.01-.02-.01h.18c-.06,0-.11,.01-.16,.01Z"/></g><g><path d="M182,153.16v3.61c-.25,2.71-.78,5.35-1.59,7.89-.84,2.68-1.98,5.23-3.36,7.62h-.17c.03,.05,.06,.09,.09,.14-3.38,5.77-8.21,10.58-14,13.9-.02-.01-.05-.03-.08-.05v.1c-2.44,1.39-5.04,2.52-7.79,3.36-3.53,1.09-7.27,1.66-11.16,1.66h-.16c0-3.92,.58-7.7,1.68-11.26,.85-2.76,2.01-5.39,3.44-7.85,3.36-5.81,8.19-10.64,13.99-13.99,2.46-1.43,5.08-2.58,7.85-3.44,3.57-1.1,7.34-1.69,11.26-1.69Z"/><path d="M182,229.61v19.11h0v19.12c-3.92,0-7.7-.59-11.26-1.69-2.73-.84-5.32-1.98-7.77-3.38-.02-.02-.05-.04-.08-.05-5.81-3.37-10.64-8.2-13.99-13.99h0c-1.43-2.46-2.58-5.09-3.44-7.86-1.09-3.56-1.68-7.34-1.68-11.26v19.11h0c-.01,2.8-.61,5.45-1.69,7.86-1.92,4.24-5.33,7.66-9.58,9.57-2.39,1.09-5.04,1.69-7.85,1.69s-5.4-.59-7.79-1.66c-4.27-1.91-7.72-5.33-9.63-9.6-1.08-2.4-1.69-5.05-1.69-7.85h0v-38.22h0v-57.34c3.92,0,7.7,.59,11.26,1.69,2.76,.85,5.38,2.01,7.85,3.44,5.81,3.36,10.64,8.19,13.99,13.99,.03,.05,.06,.09,.09,.14,1.38,2.42,2.51,5,3.35,7.71,1.09,3.57,1.68,7.34,1.69,11.26h.16c3.86,.02,7.58,.6,11.1,1.69,2.76,.85,5.38,2.01,7.85,3.43,5.8,3.36,10.64,8.2,13.99,13.99,.03,.05,.06,.1,.09,.15,1.38,2.41,2.5,4.99,3.34,7.71,1.11,3.56,1.69,7.34,1.69,11.26Z"/></g><g><path d="M616.97,153.19v3.59c-.26,2.72-.78,5.37-1.58,7.9-.84,2.68-2,5.24-3.38,7.63h-.16s.06,.09,.09,.13c-3.38,5.77-8.21,10.57-14.01,13.91-.01-.01-.04-.04-.07-.04v.09c-2.45,1.39-5.06,2.54-7.79,3.36-3.52,1.07-7.27,1.67-11.15,1.67h-.16c0-3.93,.58-7.71,1.68-11.27,.84-2.75,2-5.39,3.43-7.84,3.35-5.81,8.18-10.65,13.99-14.01,2.46-1.42,5.08-2.58,7.84-3.43,3.56-1.09,7.34-1.68,11.27-1.68Z"/><path d="M655.19,191.41c-3.92,0-7.7-.59-11.26-1.69-2.73-.84-5.32-1.98-7.77-3.38-.02-.02-.05-.04-.08-.05-2.9-1.68-5.57-3.73-7.92-6.08-2.35-2.36-4.4-5.02-6.08-7.92-1.43-2.46-2.58-5.09-3.44-7.86-1.1-3.56-1.68-7.33-1.68-11.26,3.92,0,7.7,.59,11.26,1.69,2.76,.85,5.38,2.01,7.85,3.43,5.8,3.36,10.64,8.2,13.99,14,.03,.04,.06,.09,.09,.14,1.38,2.41,2.5,4.99,3.34,7.71,1.11,3.56,1.69,7.34,1.69,11.26Z"/><path d="M655.19,191.42v41.82c-.25,2.72-.78,5.36-1.58,7.88-.84,2.68-1.98,5.23-3.36,7.63h-.17s.07,.09,.1,.14c-3.38,5.77-8.21,10.56-14.01,13.91-.01-.03-.06-.04-.09-.06v.1c-2.43,1.39-5.04,2.52-7.78,3.36-3.52,1.07-7.27,1.65-11.17,1.65h-.16c-3.93,0-7.71-.59-11.27-1.68-2.72-.84-5.32-1.98-7.76-3.38-.01-.03-.04-.04-.07-.06-2.91-1.68-5.58-3.74-7.92-6.08-2.35-2.35-4.4-5.01-6.07-7.91-1.43-2.46-2.59-5.08-3.43-7.85-1.1-3.56-1.68-7.34-1.68-11.27v-38.21h.16c3.85,.01,7.58,.59,11.1,1.68,2.77,.85,5.39,2.01,7.85,3.43,5.79,3.35,10.63,8.2,13.99,13.99,.03,.04,.06,.1,.09,.14,1.38,2.42,2.51,5,3.35,7.71,1.09,3.56,1.68,7.34,1.68,11.26,0-3.91,.59-7.69,1.68-11.26,.85-2.77,2.01-5.39,3.43-7.85,3.36-5.79,8.2-10.65,13.99-13.99,2.46-1.42,5.08-2.58,7.85-3.43,3.56-1.09,7.34-1.68,11.26-1.68Z"/></g><g><path d="M824.88,153.19v3.6c-.26,2.72-.79,5.36-1.59,7.88-.84,2.68-1.98,5.25-3.36,7.64h-.17s.06,.09,.09,.14c-3.37,5.76-8.21,10.57-14,13.9-.03-.02-.06-.04-.09-.05v.09c-2.43,1.4-5.04,2.53-7.77,3.37-3.54,1.07-7.29,1.65-11.16,1.65h-.17c0-3.91,.59-7.7,1.68-11.26,.85-2.76,2.01-5.39,3.43-7.84,3.35-5.81,8.2-10.65,13.99-14.01,2.46-1.41,5.1-2.57,7.86-3.42,3.56-1.1,7.34-1.69,11.26-1.69Z"/><path d="M863.11,191.41c-3.93,0-7.71-.59-11.26-1.69-2.73-.84-5.33-1.98-7.77-3.38-.03-.02-.06-.04-.09-.05-2.9-1.68-5.56-3.73-7.92-6.08-2.35-2.36-4.4-5.02-6.08-7.92-1.43-2.46-2.58-5.09-3.43-7.86-1.1-3.56-1.69-7.33-1.69-11.26,3.92,0,7.7,.59,11.26,1.69,2.76,.85,5.39,2.01,7.85,3.43,5.81,3.36,10.64,8.2,13.99,14,.03,.04,.06,.09,.09,.14,1.39,2.41,2.51,4.99,3.35,7.71,1.09,3.56,1.69,7.34,1.69,11.26Z"/><path d="M882.21,262.74v.1c-2.44,1.4-5.04,2.53-7.78,3.37-3.53,1.07-7.28,1.65-11.15,1.65h-.17c-3.93,0-7.71-.59-11.27-1.68-2.73-.85-5.33-1.98-7.76-3.38-.03-.02-.06-.04-.09-.06v.1c-2.44,1.4-5.04,2.53-7.78,3.37-3.53,1.07-7.28,1.65-11.16,1.65h-.17c-3.92,0-7.7-.59-11.26-1.68-2.73-.85-5.33-1.98-7.77-3.38-.03-.02-.06-.04-.09-.06-2.89-1.68-5.55-3.73-7.91-6.08-2.35-2.35-4.4-5.01-6.08-7.91-1.43-2.46-2.58-5.09-3.43-7.85-1.09-3.56-1.68-7.34-1.68-11.26v-19.11h0v-19.12h.17c3.85,.02,7.57,.62,11.09,1.69,2.76,.86,5.39,2.01,7.84,3.43,5.81,3.35,10.64,8.19,14,13.99,.03,.05,.06,.1,.09,.15,1.38,2.41,2.51,4.99,3.34,7.71,1.1,3.55,1.69,7.34,1.69,11.26,0-3.92,.59-7.71,1.69-11.26,.84-2.77,2-5.4,3.42-7.85h0c3.36-5.81,8.2-10.65,14-14,2.46-1.42,5.09-2.57,7.85-3.43,3.56-1.09,7.34-1.69,11.27-1.69v19.11h0v19.12c0,3.92,.59,7.7,1.68,11.26,.85,2.76,2,5.39,3.43,7.85,1.68,2.9,3.73,5.56,6.08,7.91,2.36,2.35,5.02,4.4,7.91,6.08Z"/></g><g><path d="M947.94,153.19v3.6c-.25,2.72-.78,5.36-1.58,7.88-.85,2.68-1.98,5.25-3.36,7.64h-.17s.06,.09,.09,.14c-3.38,5.76-8.21,10.57-14,13.9-.03-.02-.05-.04-.08-.05v.09c-2.45,1.4-5.05,2.53-7.79,3.37-3.53,1.07-7.27,1.65-11.16,1.65h-.17c0-3.91,.59-7.7,1.69-11.26,.85-2.76,2.01-5.39,3.43-7.84,3.36-5.81,8.19-10.65,14-14.01,2.45-1.41,5.08-2.57,7.84-3.42,3.57-1.1,7.35-1.69,11.26-1.69Z"/><path d="M947.94,229.64v19.11c0,2.8-.6,5.45-1.68,7.85-1.91,4.24-5.33,7.66-9.58,9.58-2.39,1.07-5.04,1.68-7.84,1.68s-5.41-.6-7.79-1.65c-4.27-1.91-7.71-5.35-9.64-9.61-1.08-2.4-1.69-5.05-1.69-7.85v-38.22h0v-19.12h.17c3.87,.02,7.58,.62,11.1,1.69,2.76,.86,5.38,2.01,7.85,3.43,5.79,3.35,10.62,8.19,13.99,13.99,.02,.05,.06,.1,.09,.15,1.38,2.41,2.5,4.99,3.34,7.71,1.1,3.55,1.68,7.34,1.68,11.26Z"/><path d="M986.17,191.41c-3.92,0-7.7-.59-11.26-1.69-2.73-.84-5.33-1.98-7.77-3.38-.03-.02-.05-.04-.08-.05-2.9-1.68-5.57-3.73-7.92-6.08-2.35-2.36-4.4-5.02-6.08-7.92h-.01c-1.42-2.46-2.57-5.09-3.43-7.86-1.1-3.56-1.69-7.33-1.69-11.26,3.93,0,7.71,.59,11.26,1.69,2.77,.85,5.39,2.01,7.86,3.43,5.8,3.36,10.63,8.2,13.99,14,.02,.04,.06,.09,.09,.14,1.38,2.41,2.5,4.99,3.34,7.71,1.1,3.56,1.69,7.34,1.69,11.26Z"/><path d="M986.17,191.41v3.6c-.25,2.72-.79,5.36-1.59,7.89-.84,2.68-1.98,5.23-3.37,7.62h-.16c.02,.05,.06,.1,.09,.15-3.38,5.77-8.21,10.57-14,13.9-.03-.02-.05-.04-.08-.05v.09c-2.44,1.4-5.04,2.53-7.79,3.37-3.53,1.07-7.27,1.66-11.16,1.66h-.17c0-3.92,.59-7.71,1.69-11.26,.85-2.76,2.01-5.39,3.44-7.85h0c3.36-5.81,8.19-10.65,13.99-14,2.45-1.42,5.08-2.57,7.85-3.43,3.57-1.1,7.34-1.69,11.26-1.69Z"/><path d="M986.17,267.86c-3.92,0-7.7-.59-11.26-1.69-2.73-.84-5.33-1.98-7.77-3.38-.03-.02-.05-.04-.08-.06-2.9-1.68-5.57-3.73-7.92-6.08-2.35-2.35-4.4-5.01-6.08-7.92h-.01c-1.42-2.45-2.57-5.08-3.43-7.85-1.1-3.56-1.69-7.34-1.69-11.26h.17c3.87,.02,7.58,.61,11.09,1.69,2.77,.84,5.39,2,7.86,3.43,5.8,3.36,10.63,8.2,13.99,13.99,.02,.05,.06,.1,.09,.15,1.38,2.41,2.5,4.99,3.34,7.71,1.1,3.56,1.69,7.33,1.69,11.26Z"/></g><g><path d="M720.93,229.64v19.11c0,2.8-.6,5.45-1.69,7.85-1.91,4.24-5.33,7.66-9.57,9.57-2.39,1.08-5.05,1.69-7.85,1.69s-5.4-.6-7.78-1.65c-4.28-1.91-7.72-5.35-9.65-9.61-1.07-2.4-1.69-5.05-1.69-7.85v-38.22h0v-19.12h.18c3.85,.02,7.58,.62,11.09,1.69,2.76,.85,5.39,2.01,7.85,3.43,5.8,3.35,10.63,8.19,13.99,13.99,.03,.05,.06,.1,.09,.15,1.38,2.41,2.51,4.99,3.34,7.71,1.1,3.55,1.69,7.34,1.69,11.26Z"/><path d="M759.15,191.41c-3.92,0-7.71-.59-11.26-1.69-2.73-.84-5.33-1.98-7.77-3.38-.03-.02-.06-.04-.08-.05-2.9-1.68-5.57-3.73-7.92-6.08-2.36-2.36-4.41-5.02-6.09-7.92-1.42-2.46-2.57-5.09-3.43-7.86-1.09-3.56-1.69-7.33-1.69-11.26,3.92,0,7.71,.59,11.26,1.69,2.76,.85,5.39,2.01,7.86,3.43,5.8,3.36,10.63,8.2,13.98,14,.03,.04,.06,.09,.09,.14,1.39,2.41,2.51,4.99,3.35,7.71,1.1,3.56,1.69,7.34,1.69,11.26Z"/><path d="M720.94,153.19v.41c-.05,3.78-.64,7.42-1.69,10.85-.86,2.76-2.01,5.39-3.43,7.86-1.68,2.89-3.73,5.55-6.09,7.91-2.35,2.35-5.01,4.4-7.91,6.08-.02,.01-.05,.03-.08,.05-2.43,1.4-5.04,2.53-7.77,3.38-3.5,1.07-7.23,1.66-11.09,1.68h-.17c0-3.91,.59-7.7,1.69-11.26,.83-2.71,1.96-5.29,3.34-7.7,.03-.05,.06-.1,.09-.14,3.36-5.81,8.19-10.65,13.99-14.01,2.46-1.41,5.09-2.57,7.85-3.42,3.56-1.1,7.34-1.69,11.26-1.69h.01Z"/><path d="M759.15,191.41v3.6c-.25,2.72-.79,5.36-1.59,7.89-.84,2.68-1.98,5.23-3.37,7.62h-.17c.03,.05,.06,.1,.09,.15-3.37,5.77-8.2,10.57-13.99,13.9-.03-.02-.06-.04-.08-.05v.09c-2.44,1.4-5.05,2.53-7.79,3.37-3.54,1.07-7.27,1.66-11.16,1.66h-.17c0-3.92,.59-7.71,1.69-11.26,.85-2.76,2.01-5.39,3.43-7.85h0c3.36-5.81,8.2-10.65,14-14,2.45-1.42,5.08-2.57,7.85-3.43,3.56-1.1,7.34-1.69,11.26-1.69Z"/></g></g><g><g><path d="M93.51,302.86v3.6c-.25,2.72-.79,5.36-1.59,7.88-.84,2.68-1.98,5.25-3.36,7.64h-.17s.06,.09,.09,.14c-3.37,5.76-8.2,10.57-14,13.9-.03-.02-.06-.04-.08-.05v.09c-2.44,1.4-5.05,2.53-7.78,3.37-3.54,1.07-7.29,1.65-11.16,1.65h-.17c0-3.91,.59-7.7,1.68-11.26,.86-2.76,2.01-5.39,3.43-7.84,3.35-5.81,8.2-10.65,14-14.01,2.45-1.41,5.09-2.57,7.85-3.42,3.55-1.1,7.34-1.69,11.26-1.69Z"/><path d="M131.73,379.31h-38.22c-3.92,0-7.71-.59-11.26-1.69-2.73-.84-5.34-1.98-7.77-3.38-.03-.02-.06-.04-.08-.05-5.8-3.35-10.65-8.19-14-13.99h0c-1.42-2.46-2.57-5.09-3.43-7.86-1.09-3.55-1.68-7.34-1.68-11.26h38.39c3.86,.02,7.59,.62,11.09,1.69,2.76,.86,5.4,2.01,7.85,3.43,5.8,3.35,10.64,8.19,13.99,13.99,.03,.05,.06,.1,.09,.15,1.39,2.41,2.51,4.99,3.35,7.71,1.09,3.55,1.68,7.34,1.68,11.26Z"/><path d="M93.51,417.54c-3.92,0-7.71-.59-11.26-1.69-2.73-.84-5.33-1.98-7.77-3.38-.03-.02-.06-.04-.08-.06-2.9-1.68-5.57-3.73-7.92-6.08-2.36-2.35-4.41-5.01-6.09-7.92-1.42-2.45-2.57-5.08-3.43-7.85-1.1-3.56-1.69-7.34-1.69-11.26h.17c3.86,.02,7.58,.61,11.09,1.69,2.76,.84,5.39,2,7.86,3.43,5.8,3.36,10.63,8.2,13.98,13.99,.03,.05,.06,.1,.09,.15,1.39,2.41,2.51,4.99,3.35,7.71,1.1,3.56,1.69,7.33,1.69,11.26Z"/><path d="M131.73,341.09c-3.92,0-7.71-.59-11.26-1.69-2.73-.84-5.33-1.98-7.77-3.38-.03-.02-.06-.04-.09-.05-2.89-1.68-5.56-3.73-7.92-6.08-2.35-2.36-4.4-5.02-6.08-7.92-1.42-2.46-2.57-5.09-3.43-7.86-1.09-3.56-1.69-7.33-1.69-11.26,3.92,0,7.71,.59,11.26,1.69,2.76,.85,5.39,2.01,7.85,3.43,5.81,3.36,10.64,8.2,13.99,14,.03,.04,.06,.09,.09,.14,1.39,2.41,2.51,4.99,3.35,7.71,1.09,3.56,1.69,7.34,1.69,11.26Z"/><path d="M131.73,379.31v3.6c-.25,2.72-.79,5.36-1.59,7.89-.84,2.68-1.98,5.23-3.37,7.62h-.17c.03,.05,.06,.1,.09,.15-3.37,5.77-8.21,10.57-13.99,13.9l-.09-.06v.1c-2.43,1.4-5.04,2.53-7.78,3.37-3.54,1.07-7.28,1.66-11.16,1.66h-.17c0-3.93,.59-7.71,1.69-11.26,.85-2.76,2.01-5.39,3.43-7.86,3.36-5.8,8.2-10.64,13.99-13.99,2.46-1.43,5.09-2.58,7.86-3.43,3.56-1.09,7.34-1.69,11.26-1.69Z"/></g><g><path d="M324.67,341.09v3.6c-.25,2.72-.79,5.35-1.59,7.89-.84,2.68-1.98,5.23-3.37,7.63h-.17c.03,.05,.06,.1,.09,.14-3.37,5.77-8.21,10.58-14,13.9-.03-.01-.06-.03-.08-.05v.1c-2.44,1.4-5.05,2.52-7.79,3.37-3.54,1.08-7.28,1.65-11.16,1.65h-.17v-76.45c3.92,0,7.71,.59,11.26,1.69,2.76,.84,5.4,2.01,7.86,3.43,5.8,3.36,10.63,8.2,13.99,14,.03,.05,.06,.1,.09,.15,1.39,2.41,2.51,4.99,3.35,7.71,1.1,3.56,1.69,7.33,1.69,11.26Z"/><path d="M324.67,417.54c-3.92,0-7.71-.59-11.26-1.69-2.73-.83-5.33-1.98-7.77-3.38-.03-.02-.06-.04-.08-.05-2.9-1.68-5.57-3.73-7.93-6.08-2.35-2.36-4.4-5.02-6.08-7.92-1.42-2.46-2.57-5.09-3.43-7.86-1.1-3.56-1.69-7.33-1.69-11.26h.17c3.86,.02,7.59,.61,11.09,1.69,2.76,.85,5.4,2.01,7.86,3.43,5.8,3.36,10.63,8.2,13.99,14.01,.03,.05,.06,.09,.09,.14,1.39,2.42,2.51,4.99,3.35,7.71,1.1,3.56,1.69,7.34,1.69,11.26Z"/><path d="M362.9,302.86v76.45c-3.92,0-7.71-.58-11.26-1.68-2.73-.84-5.33-1.98-7.77-3.39-.03-.01-.06-.03-.09-.05-2.9-1.68-5.56-3.73-7.92-6.08-2.35-2.35-4.4-5.01-6.08-7.92-1.42-2.46-2.57-5.08-3.43-7.85-1.1-3.57-1.69-7.34-1.69-11.26s.59-7.71,1.69-11.26c.85-2.76,2.01-5.4,3.43-7.86,3.36-5.8,8.2-10.64,14-14,2.46-1.42,5.09-2.58,7.86-3.43,3.56-1.1,7.34-1.69,11.26-1.69Z"/><path d="M362.9,379.31v3.6c-.25,2.72-.79,5.37-1.59,7.89-.84,2.69-1.98,5.24-3.37,7.64h-.17c.03,.05,.06,.09,.09,.14-3.37,5.77-8.21,10.58-14,13.9-.03-.02-.06-.04-.09-.05v.1c-2.43,1.39-5.04,2.52-7.78,3.36-3.54,1.08-7.28,1.66-11.16,1.66h-.17c0-3.92,.59-7.71,1.69-11.26,.85-2.76,2.01-5.4,3.43-7.85,3.36-5.81,8.2-10.64,14-14.01,2.46-1.42,5.09-2.57,7.86-3.43,3.56-1.1,7.34-1.69,11.26-1.69Z"/></g><path d="M467.33,302.86v76.45c-3.93,0-7.71,.59-11.27,1.69-2.77,.85-5.39,2.01-7.85,3.42-5.81,3.37-10.64,8.2-14,14.01-1.42,2.45-2.58,5.08-3.42,7.85-1.11,3.55-1.69,7.34-1.69,11.26,0-3.92-.59-7.71-1.69-11.26-.83-2.72-1.97-5.29-3.34-7.71,.03-.05,.05-.1,.08-.14h-.17c-3.36-5.81-8.19-10.65-14-14.01-2.45-1.41-5.08-2.57-7.84-3.42-3.52-1.08-7.24-1.67-11.1-1.69h-.17v-76.45c3.92,0,7.7,.6,11.27,1.69,2.76,.85,5.39,2.01,7.84,3.43,5.81,3.35,10.64,8.2,14,13.99,.03,.05,.06,.1,.09,.15,1.37,2.42,2.51,5,3.34,7.71,1.1,3.56,1.69,7.33,1.69,11.26,0-3.93,.58-7.7,1.69-11.26,.84-2.76,2-5.4,3.42-7.86,3.36-5.79,8.19-10.64,14-13.99,2.46-1.42,5.08-2.58,7.85-3.43,3.56-1.09,7.34-1.69,11.27-1.69Z"/><path d="M609.52,302.86v80.05c-.25,2.72-.8,5.36-1.59,7.88-.84,2.7-1.98,5.25-3.37,7.64h-.17s.06,.09,.09,.14c-3.36,5.77-8.2,10.58-13.99,13.91-.03-.02-.06-.04-.08-.05v.1c-2.44,1.38-5.06,2.52-7.79,3.35-3.53,1.08-7.27,1.66-11.16,1.66h-.17c-3.92,0-7.71-.59-11.26-1.69-2.74-.83-5.34-1.98-7.77-3.37-.03-.02-.05-.04-.08-.05v.1c-2.44,1.38-5.05,2.52-7.79,3.35-3.52,1.08-7.27,1.66-11.16,1.66h-.17c-3.92,0-7.7-.59-11.26-1.69-2.73-.83-5.34-1.98-7.77-3.37-.03-.02-.05-.04-.08-.05-2.9-1.68-5.56-3.73-7.92-6.08-2.35-2.36-4.4-5.03-6.08-7.92-1.42-2.46-2.58-5.09-3.43-7.86-1.09-3.55-1.69-7.33-1.69-11.26v-76.45c3.93,0,7.71,.6,11.26,1.69,2.77,.85,5.4,2.01,7.86,3.43,5.8,3.35,10.63,8.2,13.99,13.99,.03,.05,.07,.1,.09,.15,1.38,2.42,2.51,5,3.34,7.71,1.1,3.56,1.69,7.33,1.69,11.26v38.22c0-3.92,.59-7.7,1.69-11.26,.85-2.76,2.01-5.39,3.42-7.85,3.37-5.81,8.2-10.64,14.01-13.99,5.8,3.35,10.63,8.18,13.98,13.99,.03,.05,.08,.1,.1,.14,1.38,2.42,2.51,5.01,3.34,7.71,1.1,3.56,1.69,7.34,1.69,11.26v-38.22c0-3.93,.59-7.7,1.69-11.26,.85-2.76,2.01-5.4,3.42-7.86,3.36-5.79,8.2-10.64,14.01-13.99,2.45-1.42,5.08-2.58,7.84-3.43,3.56-1.09,7.35-1.69,11.27-1.69Z"/><g><path d="M676.33,341.08h-.49c-3.75-.04-7.35-.63-10.77-1.68-2.73-.84-5.33-1.97-7.77-3.38-.03-.01-.05-.03-.08-.05-2.9-1.68-5.56-3.73-7.91-6.08-2.35-2.35-4.4-5.01-6.08-7.92-1.43-2.46-2.58-5.08-3.44-7.84-1.09-3.57-1.68-7.35-1.68-11.27,3.92,0,7.7,.59,11.26,1.69,2.77,.85,5.39,2,7.85,3.43,5.8,3.35,10.63,8.2,14,13.99,.02,.05,.06,.1,.09,.15,1.38,2.42,2.5,5,3.34,7.7,1.09,3.57,1.68,7.34,1.68,11.26Z"/><path d="M676.33,341.09v41.82c-.25,2.72-.79,5.36-1.58,7.88-.85,2.69-1.98,5.24-3.36,7.63h-.17s.06,.1,.09,.15c-3.38,5.77-8.21,10.57-14.01,13.91-.03-.02-.05-.04-.08-.05v.09c-2.44,1.39-5.04,2.53-7.78,3.36-3.53,1.08-7.28,1.66-11.16,1.66h-.17v-19.11h0v-19.12c0-3.92,.59-7.7,1.68-11.26,.86-2.76,2.01-5.4,3.44-7.85,3.35-5.81,8.19-10.64,13.99-14,2.46-1.42,5.09-2.58,7.85-3.43,1.28-.39,2.58-.72,3.92-.97,.44-.09,.89-.17,1.35-.25,.44-.07,.88-.13,1.33-.19h.02c.36-.04,.74-.08,1.11-.11,.12-.02,.25-.03,.37-.04,.31-.02,.62-.04,.93-.06,.15,0,.31-.02,.47-.02,.42-.02,.84-.04,1.26-.04h0s.06,0,.08,0h.04s.03,0,.05,0h.03s.02,0,.02,0c.01,0,.02,0,.03,0h.24Z"/><path d="M714.56,302.87v3.6c-.25,2.72-.79,5.35-1.59,7.89-.84,2.68-1.98,5.23-3.37,7.63h-.17c.03,.05,.07,.1,.09,.15-3.37,5.77-8.2,10.57-14,13.89-.03-.01-.05-.03-.08-.05v.1c-2.44,1.4-5.04,2.53-7.79,3.37-3.38,1.03-6.96,1.61-10.68,1.65h-.65c0-3.92,.59-7.7,1.69-11.26,.85-2.76,2.01-5.39,3.43-7.85h.01c3.36-5.81,8.19-10.64,14-14,2.45-1.43,5.08-2.58,7.85-3.43,3.57-1.11,7.34-1.69,11.26-1.69Z"/><path d="M714.56,379.31v19.11h0v19.12c-3.92,0-7.69-.59-11.26-1.69-2.73-.84-5.34-1.98-7.77-3.37-.03-.02-.05-.04-.08-.05-5.8-3.37-10.64-8.2-14-14h0s0-.01,0-.01c-1.42-2.45-2.57-5.08-3.43-7.85-1.09-3.55-1.69-7.34-1.69-11.26v-38.22h.17s.11,0,.17,0c0,0,.01,0,.01,0,0,0,.01,0,.01,0,.02,0,.04,0,.06,0,.01,0,.03,0,.05,0h.01s.02,0,.02,0h0c.42,0,.83,.02,1.25,.04,.18,0,.36,.01,.54,.03,.29,.01,.57,.03,.85,.05,.15,.01,.3,.02,.44,.04,.35,.03,.7,.07,1.06,.11,.03,0,.06,0,.08,.01,.42,.05,.83,.11,1.24,.17,.06,.01,.12,.02,.17,.03,.41,.08,.82,.15,1.21,.23,1.33,.25,2.64,.58,3.92,.97,2.77,.85,5.39,2.01,7.85,3.43,5.8,3.36,10.63,8.19,13.99,14,.03,.05,.07,.09,.09,.14,1.38,2.42,2.51,5.01,3.34,7.71,1.1,3.56,1.69,7.34,1.69,11.26Z"/></g><path d="M826.93,302.86c-3.92,0-7.71,.59-11.26,1.69-2.77,.85-5.4,2-7.86,3.43-5.8,3.35-10.64,8.19-14,13.99-1.41,2.46-2.57,5.09-3.42,7.85-1.1,3.57-1.69,7.34-1.69,11.26h.65c-.06,0-.11,0-.16,0-.01,0-.02,0-.03,0h-.13s-.11,0-.16,0h-.46s0,0-.01,0h.3c0-3.92-.59-7.69-1.69-11.26-.83-2.7-1.96-5.28-3.34-7.7-.03-.05-.06-.1-.09-.15-3.36-5.79-8.19-10.64-14-13.99-2.45-1.43-5.08-2.58-7.85-3.43-3.55-1.1-7.34-1.69-11.26-1.69v38.22h.65c-.11,0-.21,0-.32,0h-.33c0,3.93,.59,7.7,1.69,11.26,.85,2.76,2.01,5.39,3.43,7.85,1.67,2.91,3.72,5.56,6.07,7.92,2.36,2.35,5.03,4.4,7.92,6.08,.03,.02,.06,.03,.09,.05-.03,.02-.06,.03-.09,.05v5.01h0v19.1h0s.01,.01,.01,.01h-.01v.02h0c0,4.3,1.44,8.24,3.83,11.43,1.55,2.06,3.48,3.79,5.72,5.09,2.82,1.63,6.07,2.58,9.56,2.58l.78-.02c1.46-.06,2.89-.28,4.25-.65,1.6-.45,3.12-1.09,4.52-1.9,2.2-1.28,4.11-2.98,5.65-4.99,2.44-3.2,3.91-7.19,3.91-11.53h0v-.02h-.01s.01-.01,.01-.01v-24.22s.06,.03,.09,.05c5.79-3.33,10.63-8.14,13.99-13.91-.03-.05-.06-.09-.09-.14h.17c1.39-2.39,2.53-4.94,3.37-7.62,.79-2.54,1.34-5.18,1.59-7.9v-3.59h-.24s-.08,0-.12,0h.36v-38.22Zm-38.55,38.23s-.03,0-.05,0h.05Zm.31,75.66s0-.07-.01-.1c.01-.02,.01-.04,.01-.06v.16Z"/><g><path d="M892.64,302.87v3.69c-.26,2.69-.79,5.29-1.58,7.8-.84,2.68-1.98,5.23-3.37,7.63h-.17c.03,.05,.06,.1,.09,.15-3.37,5.77-8.21,10.57-14,13.89-.03-.01-.06-.03-.09-.05-2.89-1.68-5.56-3.73-7.92-6.08-2.35-2.35-4.4-5.01-6.08-7.92-1.42-2.46-2.57-5.08-3.43-7.85-1.1-3.56-1.69-7.33-1.69-11.24v-.02h38.22Z"/><path d="M930.89,417.53h0s-.24,.01-.24,.01c-.02,0-.04,0-.06-.01h-.04s-.01,.01-.01,.01h-37.88v-.49c.04-3.76,.63-7.37,1.68-10.77,.85-2.77,2.01-5.4,3.43-7.86,3.36-5.8,8.19-10.64,14-14,5.8,3.36,10.63,8.2,13.99,14,.02,.05,.06,.1,.08,.15,1.39,2.41,2.52,4.99,3.35,7.71h.01c1.09,3.55,1.69,7.33,1.69,11.25Z"/><path d="M930.88,302.86v38.23h-3.6c-2.72-.25-5.35-.79-7.89-1.58-2.68-.85-5.23-1.98-7.62-3.37v-.17c-.05,.03-.1,.06-.15,.09-1.31-.76-2.56-1.62-3.77-2.52-2.88-2.19-5.45-4.76-7.62-7.67-.9-1.21-1.75-2.48-2.52-3.81,.02-.03,.04-.06,.06-.09h-.1c-1.39-2.43-2.53-5.04-3.36-7.77-1.03-3.38-1.61-6.95-1.65-10.64v-.7h38.22Z"/><path d="M930.88,341.09v.09c0,.24-.01,.49-.01,.73,0,.03,0,.06-.01,.09-.07,3.59-.66,7.07-1.67,10.36-.84,2.76-2,5.39-3.43,7.85-.76,1.33-1.62,2.6-2.55,3.83-2.16,2.88-4.73,5.44-7.61,7.61-1.23,.92-2.5,1.78-3.83,2.55-.05,.03-.1,.07-.15,.09-2.41,1.38-5,2.51-7.71,3.34-3.31,1.03-6.83,1.61-10.47,1.67-.05,.01-.09,.01-.13,.01h-.65v-.48c-.01,.14-.01,.27-.01,.41v.07h-38.22c0-.26,.01-.51,.02-.77,.06-3.64,.63-7.17,1.67-10.48,.83-2.73,1.97-5.34,3.37-7.77,.01-.03,.03-.06,.05-.08,.78-1.33,1.63-2.61,2.56-3.84,2.17-2.88,4.73-5.44,7.61-7.61,1.23-.93,2.49-1.78,3.83-2.55,2.46-1.42,5.09-2.58,7.86-3.43,3.31-1.02,6.83-1.61,10.48-1.67l.77-.02v.17c0,.14,0,.28,.01,.43v-.6h38.22Z"/><path d="M892.65,417.46v.08h-38.22v-38.21h0s.24-.01,.24-.01c.02,0,.03-.01,.04-.01,.02,0,.03,0,.05,.01,.11-.01,.21,0,.32,0,.04,0,.09,0,.13,.01,3.64,.06,7.16,.64,10.48,1.67,2.77,.84,5.4,2.01,7.85,3.42,1.34,.78,2.61,1.63,3.84,2.56,2.88,2.17,5.44,4.73,7.61,7.61,.92,1.23,1.78,2.5,2.56,3.83,1.41,2.46,2.57,5.09,3.42,7.86,1.02,3.29,1.6,6.79,1.66,10.4,.01,.26,.02,.52,.02,.78Z"/></g><path d="M266.39,302.86c0,3.48-.96,6.74-2.58,9.55-1.3,2.24-3.04,4.18-5.1,5.73-3.18,2.39-7.12,3.83-11.41,3.83h-19.14v76.45c0,2.8-.6,5.46-1.69,7.85-1.91,4.25-5.32,7.67-9.57,9.58-2.39,1.08-5.06,1.68-7.85,1.68s-5.4-.59-7.78-1.65c-4.27-1.91-7.72-5.34-9.65-9.61-1.07-2.39-1.69-5.05-1.69-7.85v-76.45h-19.05c-4.29,0-8.23-1.44-11.42-3.83-2.06-1.55-3.8-3.5-5.09-5.74-.82-1.4-1.46-2.92-1.9-4.52-.37-1.36-.6-2.78-.65-4.24l-.03-.78h114.6Z"/></g><g><g><path d="M147.98,587.62c-3.91,0-7.67-.58-11.22-1.67-2.72-.84-5.32-1.97-7.74-3.37-.03-.01-.05-.03-.08-.05-5.79-3.34-10.6-8.16-13.96-13.95-1.41-2.45-2.56-5.07-3.41-7.82-1.09-3.55-1.68-7.32-1.68-11.22h.17c3.85,.02,7.56,.6,11.05,1.68,2.75,.84,5.38,1.99,7.83,3.41,5.78,3.34,10.59,8.16,13.94,13.95,.03,.05,.07,.1,.09,.14,1.38,2.41,2.5,4.99,3.33,7.68,1.09,3.55,1.68,7.32,1.68,11.22Z"/><path d="M167.03,620.62v.1c-2.43,1.38-5.02,2.51-7.76,3.34-3.51,1.07-7.25,1.65-11.12,1.65h-.17c-3.91,0-7.67-.59-11.23-1.68-2.72-.83-5.31-1.97-7.74-3.36-.03-.02-.05-.04-.08-.05v.1c-2.43,1.38-5.02,2.51-7.76,3.34-3.51,1.07-7.25,1.65-11.12,1.65h-.17c0-3.9,.59-7.68,1.68-11.22,.85-2.75,2-5.38,3.41-7.82h.01c3.35-5.79,8.17-10.6,13.95-13.96,2.45-1.41,5.07-2.56,7.82-3.41,3.56-1.09,7.32-1.68,11.23-1.68,0,3.91,.59,7.68,1.68,11.22,.85,2.75,2,5.38,3.41,7.83,1.69,2.88,3.73,5.54,6.07,7.89,2.34,2.34,5,4.39,7.89,6.06Z"/><path d="M109.88,549.53v3.58c-.25,2.71-.79,5.34-1.58,7.86-.84,2.67-1.97,5.22-3.35,7.6h-.16s.06,.1,.09,.14c-3.36,5.75-8.18,10.54-13.96,13.86-.03-.01-.05-.03-.08-.05v.1c-2.43,1.39-5.03,2.51-7.76,3.35-3.51,1.07-7.25,1.64-11.12,1.64h-.17c0-3.91,.59-7.67,1.68-11.22,.85-2.75,2-5.37,3.42-7.82,3.34-5.79,8.16-10.6,13.95-13.95,2.44-1.42,5.07-2.57,7.82-3.41,3.55-1.1,7.32-1.68,11.22-1.68Z"/><path d="M109.88,625.72c-3.91,0-7.67-.59-11.22-1.68-2.72-.83-5.32-1.97-7.74-3.36-.03-.02-.05-.04-.08-.05-2.89-1.67-5.55-3.71-7.89-6.06-2.34-2.35-4.39-5.01-6.06-7.89h-.01c-1.41-2.45-2.56-5.08-3.41-7.83-1.09-3.54-1.68-7.31-1.68-11.22h.17c3.85,.02,7.56,.61,11.05,1.68,2.76,.85,5.38,2,7.83,3.41,5.78,3.34,10.59,8.17,13.95,13.96,.02,.05,.06,.09,.09,.14,1.37,2.41,2.49,4.98,3.32,7.68,1.09,3.54,1.68,7.32,1.68,11.22Z"/></g><g><path d="M213.58,549.46v3.58c-.25,2.71-.79,5.34-1.58,7.86-.84,2.67-1.97,5.22-3.35,7.6h-.17s.06,.1,.09,.14c-3.35,5.75-8.18,10.54-13.95,13.86-.03-.01-.06-.03-.09-.05v.1c-2.42,1.39-5.03,2.51-7.75,3.35-3.52,1.07-7.26,1.64-11.12,1.64h-.17v-38.09h.04v-38.1h.09c.24,0,.48,.01,.72,.02,3.16,.14,6.13,1.05,8.71,2.54,2.23,1.29,4.17,3.02,5.71,5.08,2.38,3.17,3.81,7.11,3.82,11.38h0v.02s-.01,.01-.02,.01h.02v19.04h-.05v5.1c2.45-1.42,5.08-2.57,7.83-3.41,3.54-1.1,7.32-1.68,11.22-1.68Z"/><path d="M213.58,625.65c-3.91,0-7.68-.59-11.22-1.68-2.72-.83-5.32-1.97-7.74-3.36-.03-.02-.06-.04-.09-.05-2.89-1.67-5.54-3.71-7.89-6.06-2.34-2.35-4.39-5.01-6.06-7.89-1.41-2.45-2.56-5.08-3.41-7.83-1.09-3.54-1.68-7.31-1.68-11.22h.17c3.84,.02,7.56,.61,11.05,1.68,2.75,.85,5.38,2,7.82,3.41,5.79,3.34,10.6,8.17,13.95,13.96,.03,.05,.06,.09,.09,.14,1.38,2.41,2.5,4.98,3.33,7.68,1.09,3.54,1.68,7.32,1.68,11.22Z"/><path d="M251.68,587.55c-3.9,0-7.68-.58-11.22-1.67-2.72-.84-5.32-1.97-7.74-3.37-.03-.01-.06-.03-.09-.05-2.88-1.67-5.54-3.71-7.89-6.06-2.34-2.34-4.39-5-6.06-7.89-1.41-2.45-2.56-5.07-3.41-7.82-1.09-3.55-1.68-7.32-1.68-11.22h.17c3.84,.02,7.56,.6,11.05,1.68,2.75,.84,5.38,1.99,7.82,3.41,5.79,3.34,10.6,8.16,13.95,13.95,.03,.05,.06,.1,.09,.14,1.38,2.41,2.5,4.99,3.33,7.68,1.09,3.55,1.68,7.32,1.68,11.22Z"/><path d="M251.68,587.55v3.58c-.25,2.71-.79,5.35-1.58,7.86-.84,2.68-1.97,5.23-3.35,7.61h-.17s.06,.09,.09,.14c-3.35,5.75-8.18,10.54-13.95,13.86-.03-.02-.06-.04-.09-.05v.1c-2.42,1.38-5.03,2.51-7.75,3.34-3.52,1.07-7.26,1.65-11.12,1.65h-.17c0-3.91,.59-7.68,1.68-11.22,.85-2.75,2-5.38,3.41-7.82,3.34-5.79,8.17-10.6,13.95-13.96,2.45-1.41,5.08-2.56,7.83-3.41,3.54-1.09,7.32-1.68,11.22-1.68Z"/></g><g><path d="M317.28,549.3v3.58c-.26,2.71-.79,5.34-1.58,7.86-.84,2.67-1.98,5.22-3.35,7.6h-.17s.06,.1,.09,.14c-3.36,5.75-8.18,10.54-13.95,13.86-.03-.01-.06-.03-.09-.05v.1c-2.43,1.39-5.03,2.51-7.76,3.35-3.51,1.07-7.25,1.64-11.11,1.64h-.17c0-3.91,.59-7.67,1.68-11.22,.84-2.75,1.99-5.37,3.41-7.82,3.34-5.79,8.17-10.6,13.95-13.95,2.45-1.42,5.07-2.57,7.82-3.41,3.55-1.1,7.32-1.68,11.23-1.68Z"/><path d="M317.28,625.49c-3.92,0-7.68-.59-11.23-1.68-2.71-.83-5.31-1.97-7.73-3.36-.03-.02-.06-.04-.09-.05-2.89-1.67-5.54-3.71-7.89-6.06-2.34-2.35-4.39-5.01-6.06-7.89-1.42-2.45-2.57-5.08-3.41-7.83-1.09-3.54-1.68-7.31-1.68-11.22h.17c3.84,.02,7.55,.61,11.05,1.68,2.75,.85,5.38,2,7.82,3.41,5.79,3.34,10.6,8.17,13.95,13.96,.03,.05,.06,.09,.09,.14,1.37,2.41,2.5,4.98,3.33,7.68,1.09,3.54,1.68,7.32,1.68,11.22Z"/><path d="M350.36,568.49c-3.36,5.75-8.18,10.54-13.96,13.86-.02-.01-.05-.03-.08-.05-2.89-1.67-5.55-3.71-7.89-6.06-2.34-2.34-4.39-5-6.06-7.89-1.42-2.45-2.57-5.07-3.41-7.82-1.1-3.55-1.68-7.32-1.68-11.22,3.91,0,7.67,.58,11.22,1.68,2.75,.84,5.37,1.99,7.82,3.41,5.79,3.34,10.6,8.16,13.95,13.95,.03,.05,.06,.1,.09,.14Z"/><path d="M350.36,606.58c-3.36,5.75-8.18,10.54-13.96,13.86-.02-.02-.05-.04-.08-.05v.1c-2.43,1.38-5.03,2.51-7.76,3.34-3.51,1.07-7.25,1.65-11.12,1.65h-.16c0-3.91,.58-7.68,1.68-11.22,.84-2.75,1.99-5.38,3.41-7.82,3.34-5.79,8.16-10.6,13.95-13.96,5.79,3.34,10.6,8.17,13.95,13.96,.03,.05,.06,.09,.09,.14Z"/></g><g><path d="M565.58,587.62h-76.2c0-3.91,.59-7.67,1.68-11.22,.85-2.75,2-5.37,3.41-7.82,3.34-5.79,8.17-10.6,13.95-13.95,2.45-1.42,5.08-2.57,7.83-3.41,3.54-1.1,7.32-1.68,11.22-1.68h.17c.43,0,.86,.01,1.29,.03,.37,0,.75,.03,1.13,.06,.19,.01,.38,.02,.56,.04,.43,.03,.85,.08,1.28,.13,2.33,.27,4.6,.75,6.79,1.42,2.75,.84,5.38,1.99,7.82,3.41,5.79,3.34,10.6,8.16,13.95,13.95,.03,.05,.06,.1,.09,.14,1.38,2.41,2.5,4.99,3.33,7.68,1.09,3.55,1.68,7.32,1.68,11.22Z"/><path d="M527.49,625.72c-3.91,0-7.68-.59-11.22-1.68-2.72-.83-5.32-1.97-7.74-3.36-.03-.02-.06-.04-.09-.05-2.88-1.67-5.54-3.71-7.89-6.06-2.34-2.35-4.39-5.01-6.06-7.89-1.41-2.45-2.56-5.08-3.41-7.83-1.09-3.54-1.68-7.31-1.68-11.22h.17c3.85,.02,7.56,.61,11.05,1.68,2.75,.85,5.38,2,7.82,3.41,5.79,3.34,10.6,8.17,13.95,13.96,.03,.05,.06,.09,.09,.14,1.38,2.41,2.5,4.98,3.33,7.68,1.09,3.54,1.68,7.32,1.68,11.22Z"/></g><g><path d="M418.77,606.58c-.02-.05-.06-.09-.09-.14-3.34-5.79-8.16-10.61-13.94-13.96-2.45-1.41-5.08-2.56-7.83-3.41-3.49-1.07-7.21-1.66-11.05-1.68,3.88,0,7.61-.57,11.12-1.64,2.73-.84,5.33-1.96,7.76-3.35v-.1s.05,.04,.08,.05c5.78-3.31,10.59-8.11,13.95-13.86-.02-.04-.06-.09-.09-.14h.17c1.38-2.38,2.51-4.93,3.35-7.6,.79-2.52,1.33-5.15,1.58-7.86v-3.58c-3.91,0-7.67,.58-11.22,1.68-2.75,.84-5.38,1.99-7.82,3.41-5.79,3.34-10.6,8.16-13.96,13.95-1.41,2.45-2.56,5.07-3.41,7.82-1.09,3.55-1.68,7.32-1.68,11.22s.59,7.68,1.68,11.22c.85,2.75,2,5.38,3.41,7.83,1.67,2.88,3.71,5.54,6.07,7.89,2.34,2.34,5,4.39,7.89,6.06,.03,0,.05,.03,.08,.05,2.42,1.39,5.02,2.53,7.74,3.36,3.55,1.09,7.32,1.68,11.22,1.68,0-3.9-.59-7.68-1.68-11.22-.83-2.7-1.95-5.27-3.33-7.68Z"/><path d="M442.84,592.49c-5.79,3.35-10.6,8.17-13.96,13.96-1.41,2.44-2.56,5.07-3.41,7.82-1.09,3.54-1.68,7.32-1.68,11.22h.17c3.88,0,7.61-.58,11.12-1.65,2.72-.83,5.33-1.96,7.76-3.34v-.1s.05,.03,.08,.05c5.78-3.31,10.59-8.11,13.95-13.86-.03-.05-.06-.09-.09-.14h.17c1.38-2.38,2.51-4.93,3.35-7.61,.79-2.51,1.33-5.15,1.58-7.86v-3.58c-3.91,0-7.68,.59-11.22,1.68-2.75,.85-5.38,2-7.82,3.41Z"/><path d="M461.86,511.19s-.04,.01-.06,.01c-.26,0-.51,.01-.77,.02-.29,0-.59,.03-.88,.06-.29,.02-.58,.06-.87,.1h0c-.26,.03-.51,.07-.77,.12-.31,.06-.61,.12-.91,.19-.3,.07-.6,.15-.9,.24-.04,.01-.07,.02-.11,.03-.2,.05-.39,.11-.58,.19-.04,0-.09,.02-.13,.04-.1,.02-.19,.05-.28,.09-.19,.06-.38,.13-.57,.22-.03,.01-.05,.02-.08,.03-.22,.09-.44,.17-.66,.27-.22,.09-.44,.19-.65,.3-.16,.07-.31,.15-.46,.23-.27,.13-.54,.28-.8,.43-2.22,1.29-4.17,3.02-5.71,5.08-2.38,3.17-3.81,7.1-3.81,11.37v.02h0v13.96s.05,.04,.08,.05c-.03,.02-.06,.03-.08,.05v10.1c-2.45-1.42-5.08-2.57-7.83-3.41-3.49-1.08-7.21-1.66-11.05-1.68h-.17c0,3.91,.59,7.67,1.68,11.22,.85,2.75,2,5.37,3.41,7.82,1.67,2.89,3.71,5.55,6.07,7.89,2.34,2.34,5,4.39,7.89,6.06,.03,.02,.05,.04,.08,.05,2.42,1.4,5.02,2.53,7.74,3.37,3.54,1.09,7.32,1.67,11.22,1.67v-76.2h-.02Z"/></g><g><path d="M716.06,549.39v3.58c-.25,2.72-.79,5.36-1.59,7.89-.84,2.68-1.98,5.23-3.36,7.62h-.17c.03,.05,.06,.09,.09,.14-3.36,5.76-8.2,10.57-13.98,13.89-.03-.02-.06-.03-.09-.05v.1c-2.43,1.39-5.04,2.52-7.77,3.35-3.53,1.07-7.28,1.66-11.15,1.66h-.17c0-3.91,.59-7.69,1.69-11.25,.85-2.76,2.01-5.39,3.42-7.84,3.35-5.8,8.19-10.63,13.98-13.99,2.46-1.42,5.09-2.57,7.85-3.42,3.4-1.04,7.02-1.64,10.76-1.68,.03-.01,.06-.01,.09-.01h.04s.08,0,.12,.01h.24Z"/><path d="M716.06,625.77c-3.91,0-7.7-.59-11.25-1.69-2.73-.84-5.33-1.98-7.76-3.37-.03-.02-.06-.04-.09-.05-5.79-3.36-10.63-8.19-13.98-13.98h0c-1.42-2.46-2.57-5.09-3.42-7.85-1.09-3.55-1.69-7.34-1.69-11.25h.17c3.85,.02,7.58,.61,11.08,1.69,2.76,.85,5.39,2.01,7.84,3.42,5.8,3.35,10.63,8.19,13.98,13.98,.03,.05,.06,.1,.09,.15,1.39,2.41,2.51,4.99,3.34,7.7,1.09,3.55,1.69,7.34,1.69,11.25Z"/><path d="M716.06,663.96c-3.91,0-7.7-.59-11.25-1.69-2.73-.84-5.33-1.98-7.76-3.37-.03-.02-.06-.04-.09-.05-2.9-1.69-5.55-3.73-7.91-6.08-2.35-2.35-4.4-5.01-6.07-7.91-1.42-2.45-2.57-5.08-3.42-7.84-1.09-3.55-1.69-7.34-1.69-11.25h.17c3.85,.02,7.58,.61,11.08,1.69,2.76,.85,5.39,2.01,7.84,3.42,5.8,3.35,10.63,8.19,13.98,13.98,.03,.05,.06,.1,.09,.15,1.39,2.41,2.51,4.99,3.34,7.7,1.09,3.55,1.69,7.34,1.69,11.25Z"/><path d="M754.25,587.58c-3.91,0-7.7-.59-11.25-1.69-2.73-.83-5.33-1.98-7.76-3.37-.03-.02-.06-.03-.09-.05-2.89-1.68-5.55-3.72-7.91-6.07-2.35-2.36-4.4-5.01-6.07-7.91-1.42-2.46-2.57-5.09-3.42-7.85-1.09-3.54-1.69-7.31-1.69-11.24h.33c.05-.01,.11-.01,.16,0,3.74,.04,7.36,.63,10.76,1.68,2.76,.85,5.39,2.01,7.84,3.42,5.8,3.36,10.63,8.19,13.98,13.99,.03,.05,.06,.09,.09,.14,1.39,2.42,2.51,5,3.34,7.7,1.09,3.56,1.69,7.34,1.69,11.25Z"/><path d="M754.26,587.58v19.09h0v19.1c-3.92,0-7.7-.59-11.26-1.69-2.73-.84-5.33-1.98-7.76-3.37-.03-.03-.06-.04-.09-.06v.1c-2.43,1.39-5.04,2.53-7.77,3.35-3.53,1.08-7.27,1.66-11.15,1.66h-.16c0-3.92,.59-7.7,1.68-11.26,.85-2.76,2.01-5.39,3.42-7.83h0c3.35-5.81,8.19-10.65,13.99-14,2.46-1.42,5.09-2.57,7.85-3.42,3.55-1.08,7.34-1.68,11.26-1.68Z"/><path d="M754.25,625.77v3.59c-.25,2.72-.79,5.36-1.59,7.88-.84,2.68-1.98,5.23-3.36,7.62h-.17c.03,.05,.06,.1,.09,.15-3.36,5.76-8.2,10.56-13.98,13.89-.03-.02-.06-.04-.09-.05v.09c-2.43,1.4-5.04,2.53-7.77,3.36-3.53,1.07-7.28,1.66-11.15,1.66h-.17c0-3.91,.59-7.7,1.69-11.25,.85-2.76,2.01-5.39,3.42-7.85,3.35-5.79,8.19-10.63,13.98-13.98,2.46-1.42,5.09-2.57,7.85-3.42,3.55-1.09,7.34-1.69,11.25-1.69Z"/></g><path d="M648.79,522.54c.78-2.5,1.32-5.1,1.58-7.79v-3.69h-.01s-.04,.01-.06,.01c-.26,0-.52,0-.77,.02-3.61,.07-7.11,.64-10.4,1.66-2.76,.85-5.39,2.01-7.85,3.43-1.32,.76-2.6,1.63-3.82,2.54-2.88,2.17-5.44,4.73-7.61,7.61-.92,1.22-1.78,2.5-2.55,3.83-1.43,2.46-2.58,5.08-3.42,7.84-1.02,3.32-1.61,6.84-1.67,10.47-.01,.26-.02,.52-.02,.78,0,0-.79,.02-.81,.02-3.18,.13-6.14,1.04-8.73,2.55h-.01c-2.24,1.31-4.18,3.03-5.72,5.09-2.39,3.18-3.82,7.13-3.82,11.41v.02h19.1v19.09h.59c-.14,.01-.28,.01-.42,.01h-.17v38.18h.02c3.47,0,6.71-.94,9.53-2.57,2.24-1.29,4.18-3.03,5.72-5.09,2.39-3.18,3.82-7.12,3.82-11.4v-19.12h-.35c.06-.01,.12-.01,.18-.01h.17v-19.09h.03c4.29,0,8.22-1.44,11.4-3.82,2.06-1.55,3.79-3.48,5.09-5.72,1.53-2.64,2.46-5.66,2.57-8.89v-.64h-.31s-.06,0-.09,0c-.01,0-.02,0-.03,0-.04,0-.08,0-.12,0h-18.19s-.04,0-.06,0h-.03s-.06,0-.09,0h-.52s-.01,0-.02,0h.37v-5.11s.06,.04,.09,.05c1.32-.75,2.59-1.61,3.8-2.51,2.9-2.17,5.47-4.73,7.66-7.62,.9-1.19,1.76-2.45,2.52-3.76-.03-.04-.06-.09-.09-.14h.17c1.39-2.39,2.52-4.94,3.36-7.62Z"/><g><path d="M829.81,550.37v3.58c-.26,2.72-.79,5.37-1.58,7.9-.85,2.68-1.99,5.23-3.37,7.62h-.17s.06,.09,.09,.14c-3.38,5.77-8.21,10.58-14,13.91-.03-.02-.06-.03-.09-.05v24.21h0v.04c-.01,4.29-1.43,8.23-3.82,11.42-1.55,2.06-3.5,3.79-5.74,5.09-2.62,1.53-5.64,2.45-8.86,2.57-.17,0-.35,0-.52,0h-.16v-38.23h.02s-.02-.01-.02-.01v-38.21h.08s.41,0,.41,0c.08,0,.16,0,.24,0h-.65v-38.23h.02s.04,.01,.06,.01c.26,0,.51,.01,.76,.02,3.16,.13,6.13,1.05,8.71,2.55,2.24,1.3,4.18,3.02,5.73,5.08,2.39,3.2,3.83,7.14,3.83,11.43v24.2c2.44-1.4,5.03-2.53,7.76-3.38,.85-.26,1.73-.49,2.6-.69,.44-.11,.88-.2,1.32-.28,.45-.09,.89-.17,1.35-.24,.44-.07,.88-.13,1.33-.19h.02c.35-.04,.72-.08,1.07-.11,.14-.02,.29-.03,.44-.04,.28-.02,.56-.04,.84-.05,.18-.02,.36-.03,.55-.03,.42-.02,.83-.04,1.25-.04h.5Z"/><path d="M791.61,588.58h-.02s.01,0,.02,0Z"/><path d="M868.03,588.58c-3.92,0-7.7-.59-11.26-1.69-2.73-.83-5.32-1.98-7.77-3.38-.02-.02-.05-.03-.08-.05-2.9-1.68-5.57-3.73-7.92-6.08-2.35-2.36-4.4-5.01-6.08-7.92-1.43-2.46-2.58-5.09-3.44-7.86-1.1-3.55-1.68-7.31-1.68-11.25h.32c.06-.01,.11-.01,.17,0,3.75,.04,7.35,.63,10.77,1.68,2.76,.85,5.38,2.01,7.85,3.43,5.8,3.37,10.64,8.2,13.99,14.01,.03,.05,.06,.09,.09,.14,1.38,2.42,2.5,5,3.34,7.71,1.11,3.57,1.69,7.34,1.69,11.26Z"/><path d="M868.03,588.58v19.11h0v19.12c-3.92,0-7.7-.59-11.26-1.69-2.73-.84-5.32-1.98-7.77-3.38-.02-.02-.05-.04-.08-.05-5.81-3.37-10.64-8.2-13.99-13.99h0c3.36-5.81,8.19-10.65,13.99-14.01,2.46-1.42,5.08-2.57,7.85-3.43,3.57-1.1,7.34-1.69,11.26-1.69Z"/><path d="M791.59,588.58v38.23h-.01v-38.23h.01Z"/></g><g><path d="M914.39,531.23v.02h0c-.01,4.3-1.45,8.25-3.84,11.43-1.54,2.06-3.49,3.8-5.73,5.09-2.89-1.68-5.3-4.09-6.98-6.98-.32-.55-.61-1.13-.88-1.71-1.07-2.39-1.69-5.05-1.69-7.85h0s19.11-.01,19.11-.01h.01Z"/><path d="M914.39,569.44h0v38.24h0v.03c-.01,4.29-1.45,8.23-3.84,11.43-1.55,2.06-3.48,3.78-5.72,5.08-.34,.19-.67,.37-1.01,.54-.27,.14-.55,.27-.83,.39-.16,.08-.33,.15-.51,.21-.32,.15-.65,.28-.98,.39-.38,.13-.76,.25-1.15,.36-.01,0-.03,.01-.04,.01-.25,.07-.5,.13-.75,.19-.82,.19-1.68,.33-2.55,.41-.32,.03-.66,.05-1,.07h-.05c-.18,0-.35,0-.52,0h-.17v-38.23h.02s-.01-.01-.02-.01v-19.09c0-2.81,.61-5.46,1.69-7.86,.27-.58,.56-1.16,.88-1.71,1.68-2.89,4.09-5.3,6.99-6.98,2.24,1.29,4.17,3.03,5.72,5.09,2.39,3.19,3.83,7.14,3.84,11.43Z"/></g></g><g><path d="M275.09,683.74v38.22h0v19.11h-.17c-.06,0-.12,0-.18,.01h.35v38.2c-2.77,0-5.4-.59-7.78-1.66-.61-.27-1.2-.58-1.78-.91-2.89-1.68-5.3-4.09-6.97-6.98-.32-.55-.62-1.11-.89-1.71-1.07-2.39-1.69-5.05-1.69-7.84v-19.1h.17c.14,0,.28,0,.42-.01h-.59v-38.2h0v-38.21h.09c.24,0,.48,.01,.72,.02,3.18,.13,6.15,1.04,8.74,2.55,2.24,1.3,4.19,3.03,5.73,5.09,2.39,3.18,3.82,7.13,3.83,11.42Z"/><g><path d="M228.48,702.86v3.6c-.25,2.72-.79,5.36-1.59,7.88-.84,2.68-1.98,5.23-3.36,7.62h-.17c.03,.05,.07,.1,.09,.15-3.36,5.76-8.19,10.56-13.99,13.9-.03-.02-.05-.04-.08-.05v.09c-2.44,1.4-5.04,2.53-7.78,3.36-3.52,1.07-7.27,1.66-11.16,1.66h-.12v-1.83c.02-.61,.07-1.23,.13-1.83,.03-.3,.06-.6,.09-.9,.03-.3,.07-.59,.12-.89,.06-.4,.12-.79,.19-1.18,.05-.32,.11-.63,.18-.94,.08-.42,.17-.83,.27-1.25,0-.02,0-.04,.01-.06,.09-.4,.19-.8,.3-1.19,.11-.39,.22-.78,.34-1.17,.85-2.76,2.01-5.39,3.42-7.84,0,0,.01,0,.01-.01,3.35-5.79,8.18-10.63,13.99-13.99,2.45-1.42,5.08-2.57,7.84-3.42,3.57-1.09,7.34-1.69,11.26-1.69Z"/><path d="M228.48,779.28c-3.92,0-7.69-.59-11.26-1.69-2.73-.84-5.33-1.98-7.76-3.37-.03-.02-.05-.04-.08-.05-5.8-3.36-10.63-8.19-14-13.99,0,0,.01,0,.01,0h-.01c-1.42-2.45-2.57-5.08-3.42-7.84l-.57-2.11-.35-1.57c-.07-.31-.13-.62-.18-.94-.07-.39-.13-.78-.19-1.18-.05-.3-.09-.59-.12-.89-.03-.3-.06-.6-.09-.9l-.13-1.83v-1.83h.12c3.87,.02,7.58,.61,11.09,1.69,2.76,.85,5.39,2.01,7.85,3.42,5.79,3.35,10.62,8.19,13.98,13.99,.03,.05,.07,.1,.09,.15,1.39,2.41,2.51,4.99,3.34,7.7,1.09,3.56,1.69,7.34,1.69,11.26Z"/><path d="M190.27,760.18h0v1.31c-.15,2.31-.73,4.51-1.64,6.54-.26,.58-.56,1.16-.88,1.71-1.68,2.89-4.09,5.3-6.97,6.98-.57,.32-1.13,.62-1.72,.88-2.39,1.09-5.05,1.69-7.84,1.69v-114.64c2.79,0,5.45,.62,7.84,1.69,.59,.27,1.15,.57,1.71,.9,2.89,1.67,5.3,4.08,6.98,6.97,.36,.63,.69,1.26,.98,1.93,.86,1.96,1.4,4.09,1.54,6.33v77.71Z"/></g><g><path d="M340.79,702.88v-.02l-.77,.02c-3.65,.06-7.16,.64-10.47,1.67-2.71,.83-5.29,1.96-7.7,3.34-.05,.03-.1,.06-.15,.09-1.33,.77-2.6,1.63-3.83,2.55-2.88,2.17-5.44,4.73-7.61,7.6-.92,1.22-1.78,2.5-2.55,3.84-1.43,2.46-2.58,5.08-3.42,7.84-1.02,3.31-1.61,6.82-1.67,10.45-.01,.24-.02,.48-.02,.72v.08h.65s.08,0,.13,0c3.64-.06,7.16-.64,10.47-1.67,2.76-.85,5.39-2.01,7.84-3.43,1.34-.76,2.61-1.63,3.84-2.54,2.88-2.17,5.44-4.74,7.61-7.62,.91-1.23,1.78-2.49,2.55-3.83,0-.03,.03-.06,.05-.09,1.4-2.43,2.53-5.03,3.37-7.76,1.02-3.31,1.61-6.83,1.67-10.47,.01-.04,.01-.09,.01-.13v-.63Z"/><path d="M417.21,740.99c0-.24,0-.48-.02-.72-.06-3.64-.64-7.14-1.67-10.45-.84-2.76-2-5.38-3.42-7.84-.77-1.34-1.63-2.61-2.55-3.84-2.17-2.87-4.73-5.43-7.61-7.6-1.23-.92-2.5-1.78-3.83-2.55-.05-.03-.1-.06-.15-.09-2.41-1.39-4.99-2.51-7.7-3.34-3.31-1.02-6.83-1.61-10.47-1.67l-.77-.02v.65s0,.09,.01,.13c.06,3.65,.64,7.16,1.67,10.47,.84,2.73,1.98,5.33,3.37,7.76,.02,.03,.04,.06,.05,.09,.77,1.34,1.64,2.6,2.55,3.83,2.17,2.88,4.73,5.45,7.61,7.62,1.23,.91,2.5,1.78,3.84,2.54,2.45,1.43,5.08,2.58,7.84,3.43,3.31,1.02,6.84,1.61,10.47,1.67,.05,0,.09,0,.13,0h.65v-.08Z"/><path d="M378.23,702.89c-1.46,.06-2.88,.29-4.24,.66-1.6,.44-3.12,1.08-4.52,1.9-2.2,1.26-4.12,2.96-5.65,4.98-2.45,3.2-3.91,7.19-3.91,11.53,0-4.3-1.44-8.24-3.83-11.42-1.54-2.06-3.49-3.8-5.72-5.09-.27-.16-.55-.31-.84-.46-.14-.07-.28-.14-.42-.21s-.28-.13-.43-.19c-.16-.09-.33-.16-.5-.23-.32-.14-.64-.26-.98-.37-.16-.06-.33-.12-.5-.17h-.01c-.22-.09-.45-.16-.68-.22-.02,0-.03-.01-.05-.01-.04-.02-.08-.03-.12-.04-.25-.07-.5-.13-.75-.19-.04-.01-.08-.02-.12-.03-.32-.07-.65-.13-.97-.19h-.03c-.07,0-.13-.02-.2-.03-.13-.02-.27-.05-.4-.06-.21-.03-.42-.06-.63-.08-.03,0-.06-.01-.09-.01s-.05,0-.08-.01c-.04,0-.08,0-.13,0-.27-.02-.55-.04-.82-.05-.21,0-.43-.02-.64-.02h-.16v18.75s-.01,.04-.01,.05v.02s.01,.02,.01,.04v.03h0v.02s-.01,.01-.01,.01c0,0,.01,0,.01,.01v.53c-.01-.06-.01-.12-.01-.18v18.93h0v.02s.01,.04,.01,.06c0,.26,.01,.52,.02,.77,.14,3.16,1.05,6.12,2.55,8.7,1.29,2.23,3.03,4.17,5.09,5.72,3.18,2.39,7.12,3.83,11.41,3.83h.06c4.32,0,8.29-1.46,11.5-3.89,2.02-1.54,3.72-3.46,5-5.66,1.5-2.6,2.43-5.59,2.56-8.77,0-.05,0-.09,0-.13v-.64h0v-37.78s.01-.02,0-.03v-.41l-.78,.02Zm-37.35,2.17c-.03-.45-.05-.9-.05-1.35,.01,.27,.03,.54,.05,.81-.01-.1-.02-.19-.03-.29,0,.28,.01,.55,.03,.83Z"/><path d="M325.61,748.63c-1.21-.91-2.46-1.76-3.77-2.52-.05,.02-.1,.06-.15,.09v-.17c-2.39-1.39-4.94-2.52-7.62-3.36-2.49-.78-5.1-1.33-7.79-1.58h-3.03c-.11,0-.22,0-.32,0h-.33v.07c0,.24,.01,.48,.02,.72,0-.02,0-.05-.01-.08-.01-.21-.01-.43-.01-.64v38.13l.78-.02c3.64-.06,7.16-.64,10.47-1.67,2.76-.85,5.39-2.01,7.84-3.42,1.34-.77,2.61-1.63,3.84-2.55,2.88-2.17,5.44-4.73,7.61-7.61,.91-1.23,1.78-2.5,2.55-3.84,0-.02,.03-.05,.05-.08-.76-1.33-1.61-2.59-2.52-3.81-2.17-2.9-4.73-5.48-7.61-7.66Z"/><path d="M416.98,741.08s-.03,0-.04,0-.03,0-.04,0h-.33s-.08,0-.13,.01c-3.64,.06-7.15,.64-10.47,1.67-2.7,.83-5.28,1.96-7.7,3.34-.05,.02-.09,.06-.14,.09-1.34,.76-2.61,1.63-3.84,2.54-2.88,2.17-5.44,4.73-7.61,7.61-.91,1.23-1.78,2.5-2.55,3.83,.77,1.34,1.63,2.61,2.55,3.84,2.17,2.88,4.73,5.44,7.61,7.61,1.23,.92,2.5,1.78,3.84,2.55,2.45,1.42,5.08,2.57,7.84,3.42,3.31,1.02,6.84,1.61,10.47,1.67,.26,.01,.52,.02,.78,.02v-37.68s-.01,.08-.01,.12,0,.08-.01,.13c.01-.13,.01-.25,.01-.37,0,.04,.01,.08,.01,.12v-.52h-.24Zm-4.87,19.09s.03-.05,.05-.08c.02,.03,.03,.06,.05,.08h-.1Zm4.44-14.07c-.03,.12-.07,.24-.11,.35,.15-.52,.29-1.05,.4-1.6-.08,.42-.18,.83-.29,1.25Z"/></g><g><path d="M105.68,817.98c-3.92,0-7.71-.59-11.26-1.69-2.73-.84-5.33-1.98-7.77-3.38-.03-.02-.06-.04-.09-.05-2.89-1.69-5.56-3.74-7.92-6.09-2.35-2.35-4.4-5.01-6.08-7.92-1.42-2.45-2.57-5.08-3.43-7.85-1.1-3.56-1.69-7.34-1.69-11.26h.17c3.86,.02,7.59,.61,11.09,1.69,2.76,.85,5.4,2.01,7.85,3.43,5.81,3.36,10.64,8.2,13.99,13.99,.03,.05,.06,.1,.09,.15,1.39,2.41,2.51,4.99,3.35,7.71,1.1,3.56,1.69,7.34,1.69,11.26Z"/><path d="M143.91,779.75v3.6c-.25,2.72-.79,5.36-1.59,7.89-.84,2.68-1.98,5.23-3.37,7.63h-.17c.03,.05,.06,.1,.09,.15-3.37,5.77-8.21,10.57-13.99,13.9-.03-.02-.06-.04-.09-.05v.09c-2.43,1.4-5.04,2.53-7.78,3.37-3.54,1.07-7.28,1.66-11.16,1.66h-.17c0-3.92,.59-7.71,1.69-11.26,.85-2.76,2.01-5.4,3.43-7.86,3.36-5.8,8.2-10.64,13.99-13.99,2.46-1.42,5.09-2.57,7.86-3.43,3.56-1.1,7.34-1.69,11.26-1.69Z"/><path d="M143.91,684.2c0,2.8-.6,5.46-1.69,7.86-.26,.58-.56,1.16-.88,1.71-1.68,2.89-4.09,5.3-6.98,6.97-2.21-1.28-4.13-2.98-5.67-5-2.43-3.2-3.89-7.17-3.9-11.5v-.02h.01s0-.01,.01-.01h19.1Z"/><path d="M143.91,741.51h0v38.23c-.26,0-.52-.01-.78-.02-3.19-.13-6.17-1.05-8.77-2.56-2.21-1.28-4.13-2.99-5.67-5.01-2.43-3.2-3.89-7.17-3.9-11.5h0s.01-.02,.01-.03h-.01v-38.2h.01s-.01-.02-.01-.03h0c.01-4.3,1.45-8.24,3.84-11.43,1.55-2.06,3.49-3.8,5.73-5.1,2.57-1.48,5.51-2.4,8.67-2.55h.88v38.2Z"/></g><g><path d="M463.83,711.31c-2.46-1.42-5.09-2.57-7.85-3.42-3.5-1.07-7.23-1.67-11.09-1.69h-.17v57.31h0v19.11h.17c3.89,0,7.62-.58,11.16-1.66,2.73-.83,5.34-1.97,7.78-3.36v-.09s.05,.03,.08,.05c5.79-3.33,10.62-8.13,13.99-13.9-.03-.05-.06-.1-.09-.15-3.35-5.79-8.18-10.64-13.98-13.99-2.46-1.42-5.09-2.57-7.85-3.42-3.5-1.07-7.23-1.67-11.09-1.69,3.89,0,7.62-.58,11.16-1.66,2.73-.83,5.34-1.97,7.78-3.36v-.09s.05,.03,.08,.05c5.79-3.33,10.62-8.13,13.99-13.9-.03-.05-.06-.1-.09-.15h.17c1.39-2.39,2.52-4.94,3.36-7.62,.79-2.52,1.34-5.16,1.59-7.88v-3.6c-3.92,0-7.7,.59-11.26,1.69-2.76,.85-5.39,2.01-7.84,3.42Z"/><path d="M516.11,725.45c-.03-.05-.06-.1-.09-.15-3.35-5.79-8.18-10.64-13.98-13.99-2.46-1.42-5.09-2.57-7.85-3.42-3.5-1.07-7.23-1.67-11.09-1.69h-.17c0,3.92,.59,7.7,1.69,11.26,.85,2.76,2.01,5.39,3.42,7.84h0c3.35,5.8,8.19,10.64,14,14,.02,.01,.05,.03,.08,.05,2.43,1.4,5.03,2.53,7.76,3.37,3.56,1.09,7.34,1.69,11.26,1.69,0-3.92-.59-7.7-1.69-11.26-.83-2.71-1.96-5.29-3.34-7.7Z"/><path d="M509.89,746.09c-2.76,.85-5.39,2.01-7.84,3.42-5.8,3.35-10.64,8.19-14,13.99h0c3.35,5.8,8.19,10.63,14,14,.02,.01,.05,.03,.08,.05,2.43,1.4,5.03,2.53,7.76,3.37,3.56,1.09,7.34,1.69,11.26,1.69v-19.1h0v-19.11c-3.92,0-7.7,.59-11.26,1.69Zm6.23,17.56c-.03-.05-.06-.1-.09-.15h.17s-.05,.1-.08,.15Z"/></g><g><path d="M588.21,706.31v3.59c-.25,2.72-.79,5.35-1.58,7.87-.84,2.68-1.97,5.22-3.36,7.61h-.16c.02,.05,.06,.1,.09,.15-3.37,5.75-8.19,10.55-13.97,13.87-.03-.02-.05-.04-.08-.05v.09c-2.44,1.39-5.03,2.53-7.77,3.36-3.52,1.07-7.26,1.65-11.14,1.65h-.17c0-3.91,.59-7.69,1.68-11.24,.85-2.76,2-5.38,3.43-7.83h0c3.35-5.79,8.17-10.63,13.96-13.97,2.45-1.41,5.07-2.57,7.83-3.42,3.56-1.09,7.33-1.68,11.24-1.68Z"/><path d="M588.21,782.59c-3.91,0-7.68-.59-11.24-1.68-2.73-.84-5.32-1.97-7.75-3.37-.03-.02-.05-.04-.08-.06-2.9-1.67-5.55-3.72-7.9-6.06-2.35-2.35-4.39-5-6.06-7.9h-.01c-1.41-2.45-2.57-5.07-3.42-7.83-1.09-3.55-1.68-7.33-1.68-11.24h.17c3.86,.02,7.57,.61,11.07,1.68,2.77,.84,5.38,1.99,7.84,3.42,5.78,3.35,10.61,8.18,13.96,13.96,.02,.05,.06,.1,.09,.15,1.37,2.41,2.5,4.98,3.33,7.69,1.09,3.55,1.68,7.32,1.68,11.24Z"/><path d="M626.35,744.45c-3.91,0-7.68-.59-11.24-1.68-2.73-.84-5.32-1.97-7.75-3.37-.03-.02-.05-.04-.08-.05-5.79-3.35-10.62-8.18-13.97-13.96,0,0,.01,0,.01-.01h-.01c-1.41-2.45-2.57-5.07-3.42-7.83-1.09-3.55-1.68-7.33-1.68-11.24h.17c3.86,.02,7.57,.61,11.07,1.68,2.76,.85,5.38,2,7.84,3.42,5.78,3.35,10.61,8.18,13.95,13.96,.03,.05,.07,.1,.09,.15,1.38,2.41,2.51,4.98,3.34,7.69,1.09,3.55,1.68,7.33,1.68,11.24Z"/><path d="M626.35,744.45v3.59c-.25,2.72-.79,5.35-1.58,7.87-.84,2.68-1.97,5.22-3.36,7.61h-.17c.03,.05,.07,.1,.09,.15-3.36,5.75-8.18,10.55-13.96,13.87-.03-.02-.05-.04-.08-.06v.1c-2.44,1.39-5.03,2.53-7.77,3.36-3.52,1.07-7.26,1.65-11.14,1.65h-.17c0-3.92,.59-7.69,1.68-11.24,.85-2.76,2-5.38,3.42-7.84h.01c3.35-5.78,8.17-10.62,13.96-13.96,2.45-1.42,5.07-2.58,7.83-3.42,3.56-1.09,7.33-1.68,11.24-1.68Z"/></g><g><path d="M692.08,703.72v3.59c-.25,2.72-.79,5.35-1.58,7.87-.84,2.68-1.97,5.22-3.36,7.61h-.17c.03,.05,.06,.1,.09,.15-3.36,5.75-8.19,10.55-13.96,13.87-.03-.02-.06-.04-.09-.05v.09c-2.43,1.39-5.03,2.53-7.76,3.36-3.53,1.07-7.27,1.65-11.14,1.65h-.17c0-3.91,.59-7.69,1.68-11.24,.85-2.76,2-5.38,3.42-7.83h0c3.35-5.79,8.18-10.63,13.96-13.97,2.46-1.41,5.08-2.57,7.84-3.42,3.55-1.09,7.33-1.68,11.24-1.68Z"/><path d="M730.22,741.87c-3.91,0-7.69-.59-11.24-1.68-2.73-.84-5.32-1.97-7.75-3.37-.03-.02-.06-.04-.09-.05-5.78-3.35-10.62-8.18-13.96-13.96h0c-1.41-2.46-2.57-5.08-3.42-7.84-1.09-3.55-1.68-7.33-1.68-11.24h.17c3.85,.02,7.57,.61,11.07,1.68,2.76,.85,5.38,2,7.83,3.42,5.79,3.35,10.62,8.18,13.96,13.96,.03,.05,.06,.1,.09,.15,1.38,2.41,2.51,4.98,3.34,7.69,1.09,3.55,1.68,7.33,1.68,11.24Z"/><path d="M730.22,741.87v3.59c-.25,2.72-.79,5.35-1.58,7.87-.84,2.68-1.97,5.22-3.36,7.61h-.17c.03,.05,.06,.1,.09,.15-3.36,5.75-8.19,10.55-13.96,13.87-.03-.02-.06-.04-.09-.06v.1c-2.43,1.39-5.03,2.53-7.76,3.36-3.53,1.07-7.27,1.65-11.14,1.65h-.08v-2.55c.02-.38,.05-.75,.09-1.12,.03-.37,.07-.74,.12-1.11,.07-.56,.15-1.12,.25-1.67,.05-.31,.11-.61,.17-.91,.12-.68,.27-1.35,.45-2.02,.06-.27,.13-.53,.21-.8,.09-.35,.19-.7,.3-1.04,.85-2.76,2-5.38,3.42-7.84,3.35-5.78,8.18-10.62,13.96-13.96,2.46-1.42,5.08-2.58,7.84-3.42,3.55-1.09,7.33-1.68,11.24-1.68Z"/><path d="M692.08,777.6v2.55c-.23,0-.46-.01-.69-.02-3.64-.06-7.15-.63-10.46-1.66-2.73-.83-5.31-1.97-7.75-3.37-.03-.01-.05-.03-.08-.05v24.19h0c-.01,4.29-1.43,8.23-3.83,11.41-1.53,2.05-3.48,3.79-5.71,5.08-2.62,1.51-5.62,2.44-8.84,2.56-.18,0-.35,.01-.52,.01h-.17v-76.28h.03s.04,.01,.06,.01c.26,0,.51,.01,.77,.02,3.61,.06,7.09,.64,10.37,1.65,2.77,.85,5.38,2,7.84,3.42,1.33,.77,2.61,1.63,3.82,2.55,2.88,2.17,5.43,4.72,7.6,7.6,.92,1.22,1.77,2.5,2.55,3.83,.03,.05,.06,.09,.09,.14,1.37,2.42,2.51,4.99,3.34,7.69,.15,.49,.29,.99,.42,1.5,.09,.33,.17,.66,.25,.99,.14,.61,.27,1.23,.38,1.85,.11,.57,.2,1.15,.28,1.72,.03,.25,.06,.5,.09,.76,.04,.33,.07,.67,.1,1,.03,.28,.05,.57,.07,.85Z"/></g><g><path d="M795.86,703.72v3.59c-.26,2.72-.79,5.35-1.58,7.87-.84,2.68-1.98,5.22-3.36,7.61h-.17c.03,.05,.06,.1,.09,.15-3.37,5.75-8.19,10.55-13.96,13.87-.03-.02-.06-.04-.09-.05v.09c-2.44,1.39-5.03,2.53-7.77,3.36-3.52,1.07-7.26,1.65-11.13,1.65h-.17c0-3.91,.59-7.69,1.68-11.24,.84-2.76,1.99-5.38,3.42-7.83h0c3.35-5.79,8.18-10.63,13.96-13.97,2.46-1.41,5.07-2.57,7.83-3.42,3.56-1.09,7.33-1.68,11.25-1.68Z"/><path d="M834,741.87h-.08c-3.89-.01-7.63-.6-11.17-1.68-2.72-.84-5.31-1.97-7.75-3.37-.02-.02-.05-.04-.08-.05-5.79-3.35-10.62-8.18-13.96-13.96h0c-1.42-2.46-2.58-5.08-3.42-7.84-1.1-3.55-1.68-7.33-1.68-11.24h.16c3.85,.02,7.57,.6,11.08,1.68,2.76,.85,5.37,2,7.83,3.42,5.79,3.35,10.62,8.18,13.96,13.96,.03,.05,.06,.1,.09,.15,1.37,2.41,2.51,4.98,3.34,7.69,1.09,3.55,1.67,7.33,1.68,11.24Z"/><path d="M795.85,779.52v.49c-3.92,0-7.68-.59-11.24-1.68-2.72-.84-5.31-1.97-7.74-3.37-.03-.02-.06-.04-.09-.06-2.9-1.67-5.54-3.72-7.9-6.06-2.35-2.35-4.39-5-6.06-7.9-1.42-2.45-2.58-5.07-3.42-7.83-1.1-3.55-1.68-7.33-1.68-11.24h.17c3.85,.02,7.56,.61,11.07,1.68,2.76,.84,5.38,1.99,7.83,3.42,5.79,3.35,10.62,8.18,13.96,13.96,.03,.05,.06,.1,.09,.15,1.37,2.41,2.51,4.98,3.34,7.69,1.04,3.4,1.63,7,1.67,10.75Z"/><path d="M834,741.87v38.13h-.49c.14,.01,.27,.01,.41,.01h.08v38.13h0c-.26,0-.52,0-.78-.01-.32,0-.63-.03-.94-.06-.04,0-.08-.01-.12-.01-.08-.01-.16-.02-.23-.03-.35-.03-.69-.08-1.03-.14-.02,0-.05-.01-.08-.01-.36-.06-.72-.14-1.07-.22-.31-.07-.62-.15-.92-.24-.26-.07-.52-.15-.77-.24-.11-.03-.21-.06-.32-.11-.02-.01-.05-.02-.07-.02-.29-.1-.58-.21-.86-.33-.22-.09-.43-.18-.64-.28-.14-.06-.28-.12-.41-.19-.09-.04-.19-.09-.28-.14-.05-.03-.11-.05-.16-.08-.28-.14-.56-.29-.83-.45-2.21-1.27-4.12-2.98-5.65-4.99-2.43-3.2-3.89-7.17-3.89-11.48v-.03h0v-19.07h.17c.06,0,.12,0,.18-.01h-.35v-5s.06-.03,.08-.04c-.02-.02-.05-.04-.08-.05v.09c-2.44,1.39-5.03,2.53-7.77,3.36-3.35,1.02-6.89,1.59-10.57,1.64h-.73v-.65s.01-.05,.01-.08c.06-3.65,.64-7.17,1.66-10.49,.85-2.76,2-5.38,3.43-7.84,.76-1.32,1.62-2.6,2.55-3.82,2.16-2.88,4.72-5.44,7.6-7.6,1.21-.92,2.49-1.77,3.82-2.55,2.46-1.42,5.07-2.58,7.83-3.42,1.65-.51,3.36-.91,5.1-1.19,.32-.05,.63-.1,.95-.14,.21-.03,.42-.06,.64-.08,.38-.05,.76-.09,1.14-.12,.33-.03,.66-.05,1-.07,.16-.02,.33-.02,.5-.03,.26-.02,.53-.03,.8-.03,.05-.01,.11-.01,.16-.01,.01,0,.03,0,.05,.01,.03-.01,.06-.01,.09-.01,.24,0,.48-.01,.72-.01h.08Z"/></g><g><path d="M918.71,703.76v3.59c-.26,2.72-.8,5.35-1.59,7.87-.84,2.67-1.97,5.22-3.36,7.61h-.17s.06,.1,.09,.15c-3.35,5.75-8.18,10.54-13.96,13.87-.03-.02-.05-.04-.08-.05v.09c-2.44,1.39-5.04,2.53-7.77,3.36-3.52,1.07-7.26,1.65-11.14,1.65h-.17v-.04c0-3.9,.6-7.66,1.69-11.2,.85-2.75,2-5.38,3.42-7.82h0c3.35-5.8,8.18-10.63,13.97-13.98,2.45-1.41,5.07-2.56,7.83-3.42,3.55-1.09,7.33-1.68,11.24-1.68Z"/><path d="M880.56,722.8v38.17c0,.43-.02,.85-.05,1.27-.03,.46-.08,.92-.15,1.37-.03,.29-.08,.58-.14,.88-.03,.18-.06,.35-.1,.53-.07,.33-.15,.65-.24,.97-.09,.31-.18,.63-.29,.94-.2,.62-.44,1.24-.71,1.84-.26,.58-.56,1.15-.88,1.7-1.68,2.89-4.08,5.29-6.96,6.97-.56,.32-1.12,.62-1.71,.88-2.39,1.08-5.04,1.68-7.83,1.68v-5.01s.05-.03,.08-.04c-.03-.02-.05-.04-.08-.05v-38.04s.05-.03,.08-.05c-.03-.02-.05-.03-.08-.05v-13.96h0v-19.08c2.79,0,5.44,.6,7.83,1.69,.59,.26,1.15,.56,1.7,.88,2.89,1.67,5.29,4.08,6.97,6.96,.36,.62,.69,1.27,.98,1.93,1.02,2.33,1.58,4.91,1.58,7.62Z"/></g></g><g><g><path d="M129.13,874.64h-.17c.03,.05,.06,.1,.09,.15,1.38,2.41,2.51,4.98,3.34,7.69,1.09,3.55,1.68,7.33,1.68,11.24-3.91,0-7.69-.59-11.24-1.68-2.73-.84-5.32-1.97-7.75-3.37-.03-.02-.06-.04-.09-.05-5.78-3.35-10.62-8.18-13.96-13.96h0c3.35-5.79,8.18-10.63,13.96-13.97,2.46-1.41,5.08-2.57,7.84-3.42,3.55-1.09,7.33-1.68,11.24-1.68v3.59c-.25,2.72-.79,5.35-1.58,7.87-.84,2.68-1.97,5.22-3.36,7.61Z"/><path d="M134.08,931.86c-3.91,0-7.69-.59-11.24-1.68-2.73-.84-5.32-1.97-7.75-3.37-.03-.02-.06-.04-.09-.06-2.89-1.67-5.54-3.72-7.9-6.06-2.35-2.35-4.39-5-6.06-7.9-1.41-2.45-2.57-5.07-3.42-7.83-1.09-3.55-1.68-7.33-1.68-11.24h.17c3.85,.02,7.57,.61,11.07,1.68,2.76,.84,5.38,1.99,7.83,3.42,5.79,3.35,10.62,8.18,13.96,13.96,.03,.05,.06,.1,.09,.15,1.38,2.41,2.51,4.98,3.34,7.69,1.09,3.55,1.68,7.32,1.68,11.24Z"/><path d="M172.22,893.71c-3.91,0-7.69-.59-11.24-1.68-2.73-.84-5.32-1.97-7.75-3.37-.03-.02-.06-.04-.09-.05-5.78-3.35-10.62-8.18-13.96-13.96h0c-1.42-2.46-2.58-5.08-3.42-7.84-1.09-3.55-1.68-7.33-1.68-11.24h.17c3.85,.02,7.56,.61,11.07,1.68,2.76,.85,5.38,2,7.83,3.42,5.79,3.35,10.62,8.18,13.96,13.96,.03,.05,.06,.1,.09,.15,1.38,2.41,2.51,4.98,3.34,7.69,1.09,3.55,1.68,7.33,1.68,11.24Z"/><path d="M167.19,912.93c-3.36,5.75-8.19,10.55-13.96,13.87-.03-.02-.06-.04-.09-.06v.1c-2.43,1.39-5.03,2.53-7.76,3.36-3.53,1.07-7.27,1.65-11.14,1.65h-.17c0-3.92,.59-7.69,1.68-11.24,.84-2.76,2-5.38,3.42-7.84-1.42-2.45-2.58-5.07-3.42-7.83-1.09-3.55-1.68-7.33-1.68-11.24h.17c3.85,.02,7.56,.61,11.07,1.68,2.76,.84,5.38,1.99,7.83,3.42,5.79,3.35,10.62,8.18,13.96,13.96,.03,.05,.06,.1,.09,.15Z"/></g><path d="M218.85,912.89h0s.02,.01,.02,.01c4.34,0,8.33,1.46,11.53,3.9,2.01,1.54,3.7,3.45,4.98,5.64-1.68,2.9-4.09,5.31-6.97,6.98-.56,.32-1.12,.62-1.72,.89-2.39,1.08-5.05,1.68-7.84,1.68s-5.4-.59-7.78-1.65c-.61-.28-1.2-.59-1.78-.92-2.89-1.67-5.3-4.08-6.97-6.98-.33-.55-.62-1.11-.89-1.7-1.07-2.39-1.68-5.05-1.68-7.84v-38.21c0-2.71-.57-5.29-1.59-7.62-1.89-4.35-5.35-7.85-9.67-9.79-2.39-1.08-5.05-1.69-7.84-1.69h19.1c0-.27,.01-.53,.02-.79,.13-3.17,1.04-6.15,2.55-8.75,1.29-2.24,3.03-4.18,5.09-5.73,3.18-2.39,7.13-3.82,11.41-3.83h.03v19.1h18.88c-.19,0-.39,.01-.58,.01-3.18,.14-6.16,1.06-8.74,2.56-2.24,1.3-4.19,3.04-5.73,5.1-2.39,3.18-3.83,7.11-3.83,11.4v38.22h0Z"/><g><path d="M289.64,874.64c-3.36,5.75-8.19,10.55-13.96,13.87-.03-.01-.06-.03-.09-.05v.1c-2.43,1.39-5.03,2.52-7.76,3.36-3.53,1.07-7.27,1.64-11.14,1.64h-.17v-38.13h.17c3.85,.02,7.57,.6,11.07,1.68,2.76,.84,5.38,1.99,7.83,3.42,5.79,3.35,10.61,8.17,13.96,13.96,.03,.05,.06,.1,.09,.14Z"/><path d="M294.66,931.7c-3.91,0-7.69-.59-11.24-1.68-2.73-.83-5.32-1.97-7.75-3.37-.03-.02-.06-.04-.09-.05-2.9-1.67-5.54-3.72-7.9-6.06-2.35-2.36-4.39-5.01-6.06-7.9-1.41-2.46-2.58-5.08-3.42-7.84-1.09-3.55-1.68-7.32-1.68-11.24h.17c3.85,.02,7.57,.61,11.07,1.68,2.76,.85,5.38,2,7.83,3.42,5.79,3.35,10.61,8.18,13.96,13.97,.03,.05,.06,.09,.09,.14,1.38,2.42,2.51,4.98,3.34,7.69,1.09,3.55,1.68,7.33,1.68,11.24Z"/><path d="M332.8,855.43v38.13c-3.91,0-7.69-.58-11.24-1.67-2.73-.84-5.32-1.98-7.75-3.38-.03-.01-.06-.03-.09-.05-2.88-1.67-5.54-3.72-7.9-6.06-2.34-2.35-4.39-5.01-6.06-7.9,3.35-5.8,8.18-10.62,13.96-13.96,2.46-1.43,5.08-2.58,7.84-3.42,3.55-1.11,7.33-1.69,11.24-1.69Z"/><path d="M351.86,926.6v.1c-2.44,1.38-5.03,2.51-7.76,3.35-3.53,1.07-7.26,1.65-11.13,1.65h-.17c-3.91,0-7.69-.59-11.24-1.68-2.73-.84-5.32-1.98-7.75-3.37-.03-.02-.06-.04-.09-.05v.1c-2.42,1.38-5.03,2.51-7.76,3.35-3.52,1.07-7.26,1.65-11.13,1.65h-.17c0-3.91,.59-7.69,1.68-11.24,.84-2.75,2-5.38,3.42-7.82,3.35-5.8,8.18-10.62,13.96-13.98,2.46-1.41,5.08-2.56,7.84-3.41,3.55-1.1,7.33-1.69,11.24-1.69,0,3.92,.59,7.69,1.68,11.24,.84,2.75,2,5.38,3.42,7.84,1.67,2.88,3.72,5.54,6.06,7.89,2.36,2.35,5,4.39,7.9,6.07Z"/></g><g><path d="M502.16,931.7h-.09c-.24,0-.48-.01-.72-.01-3.63-.08-7.13-.66-10.44-1.67-2.76-.86-5.37-2.01-7.83-3.42-1.33-.77-2.6-1.63-3.82-2.55-2.87-2.16-5.43-4.72-7.59-7.6-.93-1.22-1.78-2.49-2.55-3.82-.03-.05-.06-.09-.09-.14-1.37-2.42-2.51-4.99-3.34-7.69-1.02-3.31-1.6-6.83-1.66-10.46v-.02h0s-.01-.04-.01-.05v-.71h.08c.23,0,.46,.01,.69,.02,3.64,.06,7.15,.64,10.46,1.67,2.73,.83,5.32,1.97,7.75,3.36,.02,.02,.05,.03,.08,.05,1.34,.78,2.61,1.63,3.82,2.55,2.89,2.16,5.44,4.72,7.61,7.6,.91,1.22,1.77,2.49,2.54,3.82h.01c1.41,2.45,2.56,5.08,3.41,7.83,1.03,3.31,1.61,6.83,1.67,10.46l.02,.78Z"/><path d="M497.05,874.5c-.77,1.32-1.63,2.59-2.54,3.82-2.17,2.87-4.73,5.43-7.6,7.59-1.22,.93-2.49,1.78-3.83,2.55-2.45,1.41-5.07,2.58-7.83,3.42-3.3,1.02-6.8,1.6-10.43,1.67-.24,0-.48,.01-.72,.01h-.08v-18.72s0-.04,0-.06v-.03s0-.05,0-.08v-19.24h.32s.02,0,.03,0c0,0,.01,0,.02,0h.27s.09,0,.13,.01c3.64,.06,7.15,.64,10.46,1.67,2.73,.84,5.32,1.97,7.75,3.37,.02,.02,.05,.04,.08,.05,1.34,.77,2.61,1.63,3.82,2.54,2.89,2.17,5.44,4.72,7.61,7.6,.91,1.22,1.77,2.49,2.54,3.83Z"/><path d="M540.3,893.56v38.14h-.09c-.25,0-.49-.01-.73-.01-3.16-.14-6.13-1.05-8.72-2.56-2.23-1.29-4.17-3.02-5.71-5.08-2.39-3.18-3.82-7.11-3.83-11.38,0,4.28-1.43,8.2-3.82,11.38-1.54,2.06-3.48,3.79-5.71,5.08-2.58,1.5-5.52,2.41-8.68,2.55-.25,.01-.51,.02-.77,.02h-.08v-38.14c0-3.48,.94-6.72,2.56-9.53,1.31-2.24,3.03-4.17,5.08-5.71,3.19-2.39,7.12-3.82,11.4-3.82h.05c4.28,0,8.21,1.43,11.4,3.82,2.05,1.54,3.79,3.48,5.08,5.71,.81,1.4,1.45,2.92,1.89,4.51,.37,1.36,.61,2.79,.66,4.24l.02,.78Z"/><path d="M578.43,893.56v2.37c-.18,3.06-.72,6.04-1.6,8.87-.84,2.75-1.99,5.38-3.42,7.83-.77,1.33-1.62,2.6-2.54,3.82-2.17,2.88-4.72,5.44-7.6,7.6-1.22,.92-2.5,1.78-3.82,2.55-2.46,1.41-5.08,2.56-7.84,3.42-3.31,1.01-6.8,1.59-10.43,1.67-.24,0-.48,.01-.72,.01h-.08v-3.59c.26-2.71,.79-5.35,1.58-7.87,.84-2.67,1.97-5.23,3.36-7.61h.17s-.06-.09-.09-.14c.76-1.32,1.61-2.56,2.52-3.76,2.18-2.88,4.74-5.45,7.64-7.6,1.21-.91,2.49-1.75,3.8-2.52,.03,.02,.06,.03,.09,.05v-.1c2.44-1.38,5.03-2.51,7.77-3.34,3.36-1.03,6.91-1.61,10.6-1.65,.18,0,.35-.01,.53-.01h.08Z"/><path d="M578.43,855.43v38.13h-.08c-.22,0-.43-.01-.64-.01-3.63-.07-7.12-.65-10.43-1.67-2.76-.84-5.38-2.01-7.83-3.42-1.33-.77-2.61-1.62-3.83-2.55-2.88-2.16-5.43-4.72-7.59-7.59-.92-1.23-1.77-2.5-2.54-3.82-.03-.05-.06-.1-.09-.15,.76-1.31,1.61-2.56,2.52-3.76,2.18-2.88,4.74-5.44,7.64-7.6,1.21-.91,2.49-1.75,3.8-2.51,.03,.02,.06,.04,.09,.05v-.1c2.44-1.39,5.03-2.52,7.77-3.35,3.36-1.03,6.91-1.61,10.6-1.65h.61Z"/></g><g><path d="M644.15,893.72c-3.92,0-7.7-.59-11.26-1.69-2.73-.83-5.33-1.98-7.76-3.37-.03-.02-.05-.03-.08-.05-2.9-1.68-5.56-3.73-7.91-6.08-2.36-2.36-4.41-5.01-6.09-7.91-1.42-2.46-2.57-5.09-3.42-7.85-1.09-3.56-1.69-7.32-1.69-11.25h.33c.05-.01,.11-.01,.16,0,3.75,.04,7.36,.63,10.77,1.68,2.76,.85,5.39,2.01,7.85,3.42,5.8,3.36,10.63,8.2,13.98,14,.03,.05,.07,.09,.09,.14,1.39,2.42,2.51,5,3.34,7.7,1.09,3.57,1.69,7.34,1.69,11.26Z"/><path d="M644.15,893.72v3.6c-.25,2.72-.79,5.36-1.59,7.88-.84,2.68-1.98,5.23-3.36,7.62h-.17c.03,.05,.07,.1,.09,.15-3.36,5.76-8.2,10.57-13.99,13.9-.03-.02-.05-.04-.08-.05v.09c-2.44,1.4-5.05,2.53-7.78,3.36-3.53,1.07-7.27,1.66-11.16,1.66h-.17c0-3.92,.59-7.7,1.69-11.26,.85-2.76,2.01-5.39,3.42-7.84h0c3.36-5.81,8.2-10.65,14-14,2.45-1.42,5.08-2.57,7.84-3.42,3.56-1.09,7.34-1.69,11.26-1.69Z"/><path d="M682.37,855.51v3.59c-.25,2.72-.79,5.36-1.59,7.89-.84,2.68-1.98,5.23-3.36,7.62h-.17c.03,.05,.06,.09,.09,.14-3.36,5.76-8.2,10.58-13.99,13.9-.03-.02-.06-.03-.08-.05v.1c-2.44,1.39-5.05,2.52-7.78,3.35-3.54,1.07-7.27,1.66-11.16,1.66h-.17c0-3.92,.59-7.69,1.69-11.26,.85-2.76,2.01-5.39,3.42-7.84,3.35-5.81,8.2-10.64,14-14,2.45-1.42,5.08-2.57,7.84-3.42,3.4-1.04,7.02-1.64,10.77-1.68,.03-.01,.05-.01,.08-.01h.04c.05,0,.09,0,.13,.01h.24Z"/><path d="M682.37,931.93c-3.92,0-7.7-.59-11.26-1.69-2.73-.84-5.33-1.98-7.76-3.37-.03-.02-.06-.04-.08-.05-5.81-3.36-10.65-8.2-14-13.99h0c-1.42-2.46-2.57-5.09-3.42-7.85-1.09-3.56-1.69-7.34-1.69-11.26h.17c3.86,.02,7.58,.61,11.09,1.69,2.76,.85,5.39,2.01,7.85,3.42,5.8,3.35,10.63,8.2,13.98,13.99,.03,.05,.06,.1,.09,.15,1.39,2.41,2.51,4.99,3.34,7.7,1.09,3.56,1.69,7.34,1.69,11.26Z"/></g><g><path d="M743.05,874.76c-3.36,5.76-8.21,10.58-13.99,13.9-.03-.02-.06-.03-.09-.05v.1c-2.43,1.39-5.04,2.52-7.77,3.35-3.54,1.07-7.28,1.66-11.16,1.66h-.17v-38.21h.46s.02,0,.03,0c3.75,.04,7.36,.63,10.77,1.68,2.76,.85,5.39,2.01,7.84,3.42,5.81,3.36,10.64,8.2,13.99,14,.03,.05,.06,.09,.09,.14Z"/><path d="M748.09,931.93c-3.92,0-7.7-.59-11.26-1.69-2.73-.84-5.33-1.98-7.76-3.37-.03-.02-.06-.04-.09-.05-5.8-3.36-10.64-8.2-13.99-13.99h0c-1.42-2.46-2.58-5.09-3.42-7.85-1.09-3.56-1.69-7.34-1.69-11.26h.17c3.86,.02,7.58,.61,11.09,1.69,2.76,.85,5.39,2.01,7.84,3.42,5.81,3.35,10.64,8.2,13.99,13.99,.03,.05,.06,.1,.09,.15,1.39,2.41,2.51,4.99,3.34,7.7,1.09,3.56,1.69,7.34,1.69,11.26Z"/><path d="M748.09,931.93v3.6c-.26,2.72-.79,5.36-1.59,7.88-.84,2.68-1.98,5.23-3.36,7.62h-.17c.03,.05,.06,.1,.09,.15-3.36,5.76-8.21,10.57-13.99,13.9-.03-.02-.06-.04-.09-.05v.09c-2.43,1.4-5.04,2.53-7.77,3.36-3.54,1.07-7.28,1.66-11.16,1.66h-.17c0-3.92,.59-7.7,1.69-11.26,.85-2.76,2.01-5.39,3.42-7.85,3.35-5.8,8.2-10.64,13.99-13.99,2.46-1.42,5.09-2.57,7.85-3.42,3.56-1.09,7.34-1.69,11.26-1.69Z"/><path d="M786.06,855.51c-.08-.01-.17-.01-.25,0-3.75,.04-7.36,.63-10.77,1.68-2.76,.85-5.39,2.01-7.85,3.42-5.8,3.36-10.64,8.2-13.99,14,1.68,2.9,3.73,5.55,6.08,7.91,2.36,2.35,5.02,4.4,7.91,6.08,.03,.02,.06,.03,.09,.05,2.43,1.4,5.03,2.54,7.76,3.37,3.56,1.09,7.34,1.69,11.26,1.69v-38.21h-.24Zm-4.79,19.24c-.03-.05-.06-.09-.09-.14h.17s-.05,.09-.08,.14Z"/><path d="M786.3,893.72v3.6c-.26,2.72-.79,5.36-1.59,7.88-.84,2.68-1.98,5.23-3.36,7.62h-.17c.03,.05,.06,.1,.09,.15-3.37,5.76-8.21,10.57-13.99,13.9-.03-.02-.06-.04-.09-.05v.09c-2.43,1.4-5.04,2.53-7.77,3.36-3.54,1.07-7.28,1.66-11.16,1.66h-.17c0-3.92,.59-7.7,1.69-11.26,.84-2.76,2-5.39,3.42-7.84h0c3.35-5.81,8.2-10.65,13.99-14,2.46-1.42,5.09-2.57,7.85-3.42,3.56-1.09,7.34-1.69,11.26-1.69Z"/></g><g><path d="M890.24,855.57v.09c0,.24-.01,.48-.01,.72-.07,3.64-.65,7.14-1.68,10.46-.84,2.76-2,5.38-3.42,7.84-.77,1.34-1.63,2.61-2.55,3.83-2.17,2.88-4.73,5.44-7.61,7.61-1.23,.92-2.5,1.78-3.83,2.55-.05,.03-.1,.06-.15,.09-2.41,1.38-4.99,2.51-7.7,3.34-2.83,.87-5.81,1.43-8.89,1.61h-2.36v-38.15h38.21Z"/><path d="M852.02,855.57v.17c0,.22-.01,.43-.01,.64,0,.03,0,.06-.01,.09,0,.16-.01,.32-.03,.47-.01,.21-.03,.42-.05,.63-.04,.38-.09,.77-.16,1.14-.01,.11-.03,.21-.05,.32-.01,.05-.02,.11-.03,.16-.04,.18-.07,.36-.11,.53-.01,.04-.02,.07-.03,.11-.06,.26-.13,.53-.2,.79-.01,.02-.01,.04-.02,.06,0,.01-.01,.02-.01,.03-.01,.03-.01,.05-.02,.08-.1,.34-.2,.67-.32,1-.09,.28-.19,.55-.31,.82-.01,.02-.01,.03-.02,.05,0,.01-.01,.01-.01,.02-.06,.16-.13,.33-.2,.49h-.01s-.02,.05-.03,.08c-.11,.26-.23,.52-.36,.77-.18,.36-.37,.71-.57,1.06-1.3,2.24-3.02,4.19-5.08,5.73-3.19,2.39-7.13,3.82-11.42,3.83h-.06c-4.29-.01-8.23-1.44-11.41-3.83-2.06-1.55-3.8-3.5-5.09-5.73-1.63-2.8-2.57-6.06-2.57-9.53v-.02h38.21Z"/><path d="M890.24,931.85v.08h-38.21v-.65s0-.09,.01-.13c.13-3.18,1.04-6.17,2.55-8.77,1.29-2.21,2.99-4.13,5.01-5.66,3.2-2.43,7.17-3.89,11.5-3.9h.01s.01,.01,.02,.01h.01s.02-.01,.02-.01c4.29,.01,8.23,1.45,11.41,3.84,2.06,1.55,3.8,3.49,5.09,5.72,1.5,2.58,2.41,5.53,2.55,8.7,.01,.25,.02,.51,.02,.77Z"/><path d="M849.65,893.8c-3.07,.18-6.05,.73-8.89,1.61-2.76,.84-5.38,2.01-7.84,3.42-1.34,.77-2.61,1.63-3.83,2.55-2.88,2.17-5.45,4.73-7.61,7.61-.92,1.23-1.78,2.5-2.55,3.83-.02,.03-.04,.06-.05,.09-1.41,2.43-2.54,5.03-3.38,7.76-1.02,3.31-1.61,6.84-1.67,10.48-.01,.26-.02,.52-.02,.78h38.22v-38.14h-2.37Zm-16.73,33.18c-.05-.03-.1-.05-.14-.08,.05-.03,.09-.06,.14-.09v.17Zm19.09,4.15s0-.06-.01-.09c.01-.02,.01-.04,.01-.06v.15Z"/></g><g><path d="M393.39,874.62c-3.35,5.75-8.17,10.54-13.95,13.86-.03-.02-.05-.03-.08-.05v.1c-2.43,1.38-5.04,2.51-7.76,3.34-3.51,1.07-7.25,1.65-11.12,1.65h-.17v-38.1c3.91,0,7.68,.59,11.23,1.68,2.75,.85,5.38,2,7.83,3.41,5.78,3.35,10.59,8.17,13.94,13.96,.03,.05,.07,.09,.09,.14Z"/><path d="M398.41,931.63c-3.91,0-7.68-.59-11.23-1.68-2.72-.84-5.32-1.97-7.74-3.36-.03-.02-.05-.04-.08-.05-5.79-3.35-10.61-8.17-13.96-13.95h0c-1.41-2.45-2.56-5.08-3.41-7.83-1.09-3.54-1.68-7.32-1.68-11.23h.17c3.85,.02,7.56,.61,11.05,1.68,2.75,.85,5.38,2,7.83,3.41,5.78,3.34,10.59,8.17,13.94,13.95,.03,.05,.07,.1,.09,.15,1.38,2.4,2.5,4.98,3.33,7.68,1.09,3.54,1.68,7.32,1.68,11.23Z"/><path d="M436.51,855.42v38.1c-3.91,0-7.68-.59-11.23-1.68-2.72-.83-5.31-1.97-7.74-3.36-.03-.02-.06-.03-.08-.05-2.89-1.67-5.54-3.72-7.89-6.06-2.35-2.35-4.39-5-6.07-7.89,3.35-5.79,8.18-10.61,13.96-13.96,2.45-1.41,5.07-2.56,7.82-3.41,3.55-1.1,7.32-1.69,11.23-1.69Z"/><path d="M436.51,893.53v3.58c-.25,2.71-.79,5.35-1.58,7.86-.84,2.67-1.97,5.22-3.35,7.6h-.17c.03,.05,.06,.1,.09,.15-3.35,5.75-8.17,10.53-13.95,13.86-.03-.02-.06-.04-.08-.05v.09c-2.43,1.39-5.04,2.52-7.76,3.35-3.51,1.07-7.25,1.65-11.13,1.65h-.17c0-3.91,.59-7.68,1.68-11.23,.85-2.75,2-5.38,3.41-7.82h0c3.34-5.79,8.17-10.61,13.96-13.96,2.44-1.41,5.07-2.56,7.82-3.41,3.54-1.09,7.32-1.68,11.23-1.68Z"/></g></g></g></g></svg>