<?xml version="1.0" encoding="UTF-8"?><svg id="Layer_2" xmlns="http://www.w3.org/2000/svg" viewBox="0 0 825.75 160.71"><g id="Layer_1-2"><g><path d="M133.99,158.48c3.55,1.11,7.24,1.87,11.05,2.22h5.04c0-5.49-.82-10.8-2.37-15.78-1.18-3.87-2.8-7.56-4.8-11-4.7-8.14-11.48-14.92-19.61-19.63-4.07,2.35-7.8,5.22-11.09,8.53-3.3,3.29-6.17,7.03-8.52,11.09-.03,.03-.06,.07-.07,.11-1.97,3.41-3.56,7.05-4.74,10.88-1.54,4.98-2.35,10.29-2.35,15.78,5.49,0,10.79-.83,15.78-2.37,3.79-1.17,7.41-2.75,10.8-4.69,.06-.04,.13-.08,.2-.13v.24c3.35,1.94,6.93,3.53,10.69,4.72Z"/><path d="M316.35,160.71c-3.88-3.88-7.04-8.21-9.49-12.83-1.87-3.54-3.33-7.25-4.35-11.04,0-.05,0-.09-.02-.14-1.21-4.54-1.82-9.21-1.82-13.87,0-4.66,.61-9.33,1.82-13.87h0c1.03-3.84,2.49-7.6,4.38-11.18l2.92-4.85c.32-.48,.65-.95,.98-1.41l.14-.2c.35-.47,.71-.95,1.07-1.4l.07-.09c.33-.41,.66-.82,1-1.23l.32-.38c.28-.32,.57-.65,.86-.98l.45-.49c.4-.44,.8-.88,1.21-1.29l.5-.5c3.89,3.89,7.04,8.21,9.48,12.82,1.91,3.58,3.35,7.34,4.39,11.18,2.42,9.07,2.41,18.66,0,27.74-.03,.07-.04,.16-.06,.24-1.03,3.75-2.47,7.43-4.33,10.94-2.44,4.61-5.59,8.94-9.49,12.83Z"/><path d="M536.25,107.13v26.78h0v26.8c-5.51,0-10.83-.84-15.82-2.37-3.84-1.18-7.5-2.77-10.92-4.74-.04-.03-.07-.06-.11-.07-8.16-4.71-14.95-11.48-19.68-19.61h0c-1.99-3.45-3.62-7.15-4.81-11.02-1.54-4.99-2.37-10.29-2.37-15.78V53.57h.24c.07-.01,.15,0,.22,0h.01s0-.01,.01,0c.03-.01,.06-.01,.07-.01h.01s.04,0,.07,.01c0-.01,.01-.01,.03-.01h.01s.01,.01,.01,.01c.59,0,1.19,.03,1.78,.06,.22,0,.43,.01,.66,.03,.43,.03,.88,.06,1.3,.08,.17,.01,.32,.03,.49,.04,.53,.06,1.07,.11,1.58,.17,.04,0,.07,0,.11,.01,.57,.07,1.18,.15,1.75,.24,.08,.01,.15,.03,.24,.04,.56,.1,1.12,.2,1.7,.31,1.88,.36,3.71,.83,5.51,1.37,3.87,1.19,7.57,2.82,11.03,4.79,8.14,4.72,14.94,11.49,19.65,19.63,.04,.07,.08,.13,.13,.2,1.95,3.39,3.53,7.01,4.69,10.81,1.54,4.99,2.38,10.29,2.38,15.78Z"/><path d="M632.7,106.45V53.57h-.01c-5.51,0-10.79,.83-15.79,2.37-3.87,1.18-7.55,2.8-10.99,4.81-8.14,4.69-14.91,11.46-19.62,19.61-1.99,3.45-3.62,7.13-4.81,11-.14,.46-.28,.92-.42,1.39-.08,.31-.17,.62-.25,.95-.13,.48-.24,.97-.35,1.46-.13,.56-.25,1.12-.35,1.7-.13,.62-.24,1.25-.34,1.88-.07,.48-.14,.95-.21,1.44-.01,.15-.04,.31-.06,.46-.06,.5-.11,1.02-.15,1.54-.04,.42-.07,.83-.1,1.25-.03,.41-.06,.83-.07,1.23-.01,.24-.03,.48-.03,.71-.01,.18-.01,.36-.01,.55,0,.08,0,.17,0,.26v28.44c0,.18,.01,.37,.02,.55,0,.18,.01,.35,.03,.53l.2,1.91s.01,.1,.01,.14c.04,.27,.08,.53,.13,.78l1.21,4.53c.11,.29,.22,.6,.34,.9l.42,.98c2.69,5.98,7.53,10.78,13.51,13.45,3.34,1.5,7.02,2.33,10.92,2.33h.01c3.91,0,7.62-.84,10.97-2.37,5.59-2.51,10.15-6.87,12.91-12.32,.18-.36,.36-.69,.53-1.09,1.43-3.21,2.3-6.78,2.35-10.51v-.13s0-.08,.01-.13v-.24h-.01v-.24c0-.39-.01-.78-.04-1.19,.03,.31,.03,.6,.04,.9v.29c.01,.08,.01,.15,.01,.24v-27.13s0-.04-.01-.06v-.13c0-.06,0-.11,.01-.17Z"/><path d="M243.08,134.12c-4.72,8.09-11.49,14.83-19.61,19.49-.04-.01-.07-.04-.13-.07v.14c-3.42,1.95-7.08,3.53-10.9,4.71-4.95,1.51-10.2,2.31-15.64,2.31h-.24v-53.56h.24c5.4,.03,10.62,.84,15.54,2.37,3.87,1.18,7.55,2.8,11,4.79,8.13,4.71,14.9,11.48,19.61,19.62,.04,.07,.08,.14,.13,.2Z"/><path d="M53.56,160.71H0v-53.58H.24c5.4,.03,10.62,.85,15.54,2.37,3.87,1.19,7.55,2.82,11,4.79,8.13,4.71,14.9,11.49,19.61,19.63,.04,.07,.08,.13,.13,.2,1.95,3.39,3.52,6.99,4.69,10.8,1.53,4.98,2.35,10.29,2.35,15.78Z"/><path d="M439.66,107.13v5.05c-.35,3.81-1.11,7.51-2.21,11.06-1.19,3.76-2.78,7.33-4.72,10.68h-.24c.04,.07,.08,.14,.13,.21-4.72,8.09-11.49,14.81-19.61,19.49-.04-.03-.07-.06-.13-.08v.14c-3.42,1.95-7.08,3.55-10.9,4.71-4.95,1.51-10.2,2.33-15.64,2.33h-.24c0-5.51,.83-10.79,2.35-15.78,1.21-3.87,2.82-7.57,4.81-11.02,4.72-8.13,11.49-14.91,19.62-19.61,3.45-1.99,7.13-3.63,11-4.81,4.99-1.53,10.3-2.37,15.78-2.37Z"/><path d="M729.23,0V80.35h0v53.57h0v26.79c-5.49,0-10.8-.83-15.78-2.37-3.83-1.18-7.48-2.77-10.88-4.73-.04-.03-.07-.06-.11-.07-8.14-4.72-14.92-11.49-19.63-19.61h0c-1.99-3.45-3.6-7.14-4.8-11.01-1.53-4.98-2.37-10.29-2.37-15.78v-26.78h0v-26.79c0-5.49,.83-10.78,2.37-15.78,1.2-3.87,2.82-7.56,4.8-11,4.72-8.14,11.49-14.91,19.63-19.61,3.44-2,7.12-3.62,11-4.81,4.98-1.53,10.29-2.37,15.78-2.37Z"/><path d="M809.97,2.37c-3.87,1.18-7.56,2.8-11,4.8-8.14,4.7-14.91,11.47-19.61,19.61-2,3.45-3.62,7.12-4.82,11-1.53,5-2.37,10.29-2.37,15.78h.92c-.14,.01-.3,.01-.45,.01h-.46v80.34h0v26.79h.24c5.45,0,10.7-.82,15.64-2.32,3.84-1.17,7.49-2.76,10.91-4.72v-.13s.07,.04,.11,.07c8.12-4.67,14.9-11.4,19.63-19.49-.04-.07-.1-.14-.13-.21h.23c1.94-3.35,3.53-6.93,4.72-10.69,1.11-3.53,1.87-7.24,2.22-11.05V53.57h-.34c-.11,0-.24,0-.35-.01h.69V0c-5.49,0-10.79,.82-15.78,2.37Zm-11,44.03s.07,.06,.11,.07c-.03,.03-.07,.04-.11,.07v-.14Zm-19.63,87.52h0Z"/></g></g></svg>