<?xml version="1.0" encoding="UTF-8"?><svg id="Layer_2" xmlns="http://www.w3.org/2000/svg" viewBox="0 0 864.65 117.9"><g id="Layer_1-2"><g><path d="M117.57,82.13c-.17,2.69-.84,5.37-1.68,8.06-.84,2.69-2.01,5.37-3.36,7.73h-.17v.17c-3.36,5.88-8.4,10.92-14.28,14.28h-.17c-2.35,1.51-5.04,2.69-7.9,3.53-3.69,1.01-7.56,1.68-11.42,1.68h-.17c-4.03,0-7.89-.67-11.59-1.68-2.85-.84-5.54-2.01-7.89-3.53h-.17c-2.52,1.51-5.21,2.69-7.9,3.53-3.69,1.01-7.56,1.68-11.59,1.68h-.17c-4.03,0-7.9-.67-11.42-1.68-2.85-.84-5.54-2.01-8.06-3.53-3.02-1.68-5.71-3.86-8.23-6.21-2.35-2.52-4.53-5.21-6.21-8.23-1.34-2.52-2.69-5.21-3.53-8.06-1.01-3.53-1.68-7.39-1.68-11.42V0C4.03,0,7.89,.67,11.59,1.68c2.85,.84,5.54,2.18,8.06,3.53,5.88,3.53,10.92,8.4,14.28,14.44,0,0,.17,0,.17,.17,1.34,2.35,2.52,5.04,3.36,7.89,1.18,3.53,1.68,7.39,1.68,11.42v39.3c0-4.03,.67-7.89,1.85-11.59,.84-2.85,2.02-5.54,3.53-8.06,3.36-5.88,8.4-10.92,14.28-14.28,5.88,3.36,10.92,8.4,14.28,14.28,.17,0,.17,.17,.17,.17,1.34,2.52,2.52,5.04,3.36,7.89,1.18,3.7,1.85,7.56,1.85,11.59V39.13c0-4.03,.5-7.9,1.68-11.42,.84-2.85,2.02-5.54,3.53-8.06,3.36-6.05,8.4-10.92,14.28-14.44,2.52-1.34,5.21-2.69,8.06-3.53,3.7-1.01,7.56-1.68,11.59-1.68V82.13Z"/><path d="M175.01,4.03c-.17,2.86-.67,5.54-1.51,8.06-.84,2.69-2.02,5.37-3.53,7.73h-.17c0,.17,.17,.17,.17,.17-3.53,6.05-8.4,10.92-14.44,14.28-2.52,1.51-5.21,2.69-8.06,3.53-3.53,1.17-7.39,1.68-11.42,1.68h-.17v-.51c0-3.86,.67-7.56,1.68-11.08,1.01-2.69,2.18-5.54,3.53-8.06,3.53-5.88,8.4-10.92,14.44-14.28,2.52-1.51,5.21-2.69,8.06-3.53,3.69-1.17,7.56-1.68,11.42-1.68v3.69Zm39.3,35.44c-4.03,0-7.9,.67-11.59,1.68-2.86,1.01-5.54,2.19-8.06,3.53-5.88,3.53-10.92,8.4-14.28,14.44-1.51,2.52-2.69,5.21-3.53,8.06-.17,.34-.17,.67-.34,1.01,0,.17-.17,.34-.17,.67-.17,.34-.17,.67-.33,1.01,0,.5-.17,.84-.17,1.34-.17,.34-.17,.84-.34,1.35,0,.33,0,.67-.17,1.01v.34c0,.33,0,.84-.17,1.17v3.02l-.17,.17v-.17c0-3.69-.5-7.39-1.68-10.92-.17-.67-.33-1.51-.67-2.18-.17-.67-.5-1.34-.84-1.85-.17-.34-.17-.67-.34-1.01-.5-1.01-1.01-2.01-1.51-2.85,0-.17-.17-.17-.17-.17-3.36-6.05-8.4-10.92-14.28-14.44-2.52-1.34-5.21-2.52-8.06-3.53-3.53-1.01-7.39-1.68-11.42-1.68h-.17v60.13s.17,.17,.17,.34v.67c0,.17,0,.5,.17,.84,0,.33,0,.67,.17,1.01,0,.17,0,.34,.17,.5,0,.17,0,.5,.17,.67,0,.17,0,.34,.17,.67,0,.17,.17,.51,.17,.67,.17,.5,.34,.84,.5,1.34,2.02,4.37,5.54,7.89,9.91,9.91,2.52,1.01,5.21,1.68,8.06,1.68s5.54-.67,8.06-1.85c4.37-1.85,7.73-5.38,9.74-9.74,1.01-2.35,1.68-5.04,1.68-7.73h.17v1.01l.17,1.35v.67l.84,3.36c.17,.17,.17,.34,.34,.67l.34,.67c1.85,4.37,5.54,7.89,9.91,9.91,2.35,1.01,5.04,1.68,7.89,1.68s5.54-.67,8.06-1.85c4.03-1.68,7.39-4.87,9.41-8.9,.17-.34,.33-.5,.5-.84,1.01-2.35,1.68-5.04,1.68-7.73V39.47Zm-39.3,38.96v-.17h.17v.17h-.17Zm0,0h0Zm0,20.15v-.17h.17v.17h-.17Zm27.71-60.8c-2.86-.84-5.54-2.02-7.9-3.53h-.17c-3.02-1.68-5.71-3.86-8.06-6.21-2.52-2.52-4.53-5.21-6.21-8.23-1.51-2.52-2.69-5.21-3.53-7.89l-1.01-4.03c-.17-.5-.17-.84-.34-1.34v-.17c0-.34,0-.84-.17-1.18v-.17c0-.34,0-.67-.17-1.18V.34c4.03,0,7.89,.5,11.42,1.68,2.86,.84,5.54,2.02,8.06,3.53,6.05,3.53,10.92,8.4,14.44,14.28v.17c1.51,2.52,2.52,5.21,3.36,7.9,1.18,3.69,1.85,7.56,1.85,11.59-4.03,0-7.9-.51-11.59-1.68Z"/><path d="M331.71,9.74c-1.34,2.35-3.19,4.37-5.21,5.88-3.36,2.52-7.39,4.03-11.76,4.03h-19.65V97.92c0,2.85-.5,5.71-1.68,8.06-2.02,4.37-5.54,7.9-9.91,9.91-2.35,1.01-5.04,1.68-7.89,1.68s-5.54-.67-8.06-1.68c-4.37-2.01-7.9-5.54-9.91-9.91-1.01-2.35-1.68-5.21-1.68-8.06V19.65h-19.48c-4.54,0-8.57-1.51-11.76-4.03-2.18-1.51-3.86-3.53-5.21-5.88-.84-1.34-1.51-3.02-2.02-4.53-.33-1.51-.67-2.86-.67-4.37V0h117.57c0,3.53-1.01,6.89-2.69,9.74Z"/><path d="M413.67,12.09c-.84,2.69-2.01,5.37-3.53,7.73h-.17c0,.17,.17,.17,.17,.17-3.53,6.05-8.4,10.92-14.44,14.28-2.52,1.51-5.21,2.69-8.06,3.53-3.53,1.17-7.39,1.68-11.42,1.68,4.03,0,7.73,.67,11.42,1.68,2.85,1.01,5.54,2.19,8.06,3.53,5.88,3.53,10.92,8.4,14.28,14.44,0,0,.17,0,.17,.17-3.53,5.88-8.4,10.75-14.44,14.28v0c-2.52,1.34-5.21,2.52-8.06,3.36-3.53,1.17-7.39,1.68-11.42,1.68,4.03,.17,7.73,.67,11.42,1.85,2.85,.84,5.54,2.02,8.06,3.53,5.88,3.36,10.92,8.4,14.28,14.28l.17,.17c1.34,2.52,2.52,5.04,3.36,7.89,1.18,3.7,1.68,7.56,1.68,11.59h-39.13c-4.03,0-7.9-.67-11.59-1.85-2.69-.84-5.38-2.02-7.89-3.36h-.17c-2.86-1.85-5.54-3.86-8.06-6.38-2.35-2.35-4.53-5.04-6.21-8.06-1.51-2.52-2.69-5.21-3.53-8.06-1.18-3.7-1.68-7.56-1.68-11.59V39.47c0-4.03,.5-7.9,1.68-11.59,.84-2.69,2.01-5.54,3.53-8.06,3.36-5.88,8.4-10.92,14.28-14.28,2.52-1.51,5.38-2.69,8.06-3.53,3.69-1.17,7.56-1.68,11.59-1.68h39.13v3.69c-.17,2.69-.67,5.38-1.51,8.06Z"/><path d="M470.11,3.69c-.17,2.86-.67,5.54-1.51,8.06-1.01,2.69-2.01,5.38-3.53,7.89h-.17l.17,.17c-3.53,5.88-8.4,10.75-14.44,14.11v.17c-2.52,1.34-5.21,2.52-8.06,3.36-3.53,1.18-7.39,1.68-11.42,1.68h-.17c0-4.03,.67-7.9,1.68-11.42,1.01-2.85,2.18-5.54,3.53-8.06,3.53-6.05,8.4-10.92,14.44-14.44,2.52-1.34,5.21-2.69,8.06-3.53,3.53-1.01,7.39-1.68,11.42-1.68V3.69Zm0,94.22c0,2.85-.5,5.71-1.68,8.06-2.02,4.37-5.38,7.9-9.74,9.91-2.52,1.01-5.21,1.68-8.06,1.68s-5.54-.67-8.06-1.68c-4.37-2.01-7.9-5.54-9.91-9.91-1.01-2.35-1.68-5.21-1.68-8.06V39.13h.17c4.03,0,7.73,.67,11.42,1.85,2.85,.84,5.54,2.02,8.06,3.53,5.88,3.36,10.92,8.4,14.28,14.28,0,0,0,.17,.17,.17,1.34,2.52,2.52,5.04,3.36,7.89,1.18,3.7,1.68,7.56,1.68,11.59v19.48Zm27.71-60.46c-2.85-.84-5.54-2.02-7.89-3.53h-.17c-3.02-1.68-5.71-3.86-8.06-6.22-2.52-2.35-4.54-5.21-6.22-8.06-1.51-2.52-2.69-5.21-3.53-8.06-1.18-3.7-1.85-7.56-1.85-11.59,4.03,0,7.89,.67,11.59,1.68,2.85,.84,5.54,2.18,8.06,3.53,5.88,3.53,10.92,8.4,14.28,14.44q.17,0,.17,.17c1.34,2.35,2.52,5.04,3.36,7.89,1.18,3.53,1.85,7.39,1.85,11.42-4.03,0-7.89-.5-11.59-1.68Zm11.59,5.37c-.34,2.86-.84,5.54-1.68,8.06-.84,2.86-2.01,5.38-3.53,7.89h-.17c.17,0,.17,.17,.17,.17-3.53,5.88-8.4,10.75-14.28,14.28-.17,0-.17-.17-.17-.17v.17c-2.52,1.34-5.21,2.52-7.9,3.53-3.69,1.01-7.56,1.68-11.59,1.68h-.17c0-4.03,.67-7.89,1.85-11.59,.84-2.85,2.02-5.54,3.53-8.06,3.36-5.88,8.4-10.92,14.28-14.28,2.52-1.51,5.21-2.69,8.06-3.53,3.7-1.18,7.56-1.85,11.59-1.85v3.69Zm-11.59,73.06c-2.85-.84-5.54-2.01-7.89-3.53h-.17c-3.02-1.85-5.71-3.86-8.06-6.21-2.52-2.52-4.54-5.21-6.22-8.23-1.51-2.52-2.69-5.21-3.53-8.06-1.18-3.53-1.85-7.39-1.85-11.42h.17c4.03,0,7.9,.5,11.42,1.68,2.85,.84,5.54,2.02,8.06,3.53,5.88,3.36,10.92,8.4,14.28,14.28l.17,.17c1.34,2.52,2.52,5.21,3.36,7.89,1.18,3.7,1.85,7.56,1.85,11.59-4.03,0-7.89-.67-11.59-1.68Z"/><path d="M565.55,117.9c-4.03,0-7.9-.67-11.42-1.85-2.85-.84-5.54-2.02-8.06-3.36-6.05-3.53-10.92-8.4-14.44-14.44-1.34-2.52-2.52-5.21-3.53-8.06-1.01-3.7-1.68-7.56-1.68-11.59V39.47c0-4.03,.67-7.9,1.68-11.59,1.01-2.69,2.18-5.54,3.53-8.06,3.53-5.88,8.4-10.75,14.44-14.28,2.52-1.51,5.21-2.69,8.06-3.53,3.53-1.17,7.39-1.68,11.42-1.68V117.9Zm39.3-35.61c-.34,2.86-.84,5.54-1.68,8.23-.84,2.69-2.01,5.21-3.53,7.73h-.17c.17,0,.17,.17,.17,.17-3.53,5.88-8.4,10.92-14.28,14.28h-.17c-2.52,1.51-5.21,2.69-7.9,3.53-3.69,1.01-7.56,1.68-11.59,1.68h-.17c0-4.03,.67-7.89,1.85-11.59,.84-2.86,2.02-5.54,3.53-8.06,3.36-5.88,8.4-10.92,14.28-14.28,2.52-1.51,5.21-2.69,8.06-3.53,3.7-1.18,7.56-1.85,11.59-1.85v3.69Z"/><path d="M649.55,2.01c3.53-1.17,7.39-1.68,11.42-1.68V39.47h0v42.83c-.17,2.86-.84,5.54-1.51,8.23-1.01,2.69-2.18,5.21-3.53,7.73h-.17s0,.17,.17,.17c-3.53,5.88-8.57,10.92-14.44,14.28-2.52,1.51-5.21,2.69-8.06,3.53-3.53,1.01-7.39,1.68-11.42,1.68h-.17V39.47h0c0-4.03,.67-7.9,1.68-11.59,.84-2.86,2.01-5.54,3.53-8.06,3.53-5.88,8.4-10.92,14.44-14.28,2.52-1.51,5.21-2.69,8.06-3.53Z"/><path d="M717.47,117.9c-4.03,0-7.9-.67-11.42-1.85-2.85-.84-5.54-2.02-8.06-3.36-6.05-3.53-10.92-8.4-14.44-14.44-1.34-2.52-2.52-5.21-3.53-8.06-1.01-3.7-1.68-7.56-1.68-11.59V39.47c0-4.03,.67-7.9,1.68-11.59,1.01-2.69,2.18-5.54,3.53-8.06,3.53-5.88,8.4-10.75,14.44-14.28,2.52-1.51,5.21-2.69,8.06-3.53,3.53-1.17,7.39-1.68,11.42-1.68V117.9Zm39.3-35.61c-.34,2.86-.84,5.54-1.68,8.23-.84,2.69-2.01,5.21-3.53,7.73h-.17c.17,0,.17,.17,.17,.17-3.53,5.88-8.4,10.92-14.28,14.28h-.17c-2.52,1.51-5.21,2.69-7.9,3.53-3.69,1.01-7.56,1.68-11.59,1.68h-.17c0-4.03,.67-7.89,1.85-11.59,.84-2.86,2.02-5.54,3.53-8.06,3.36-5.88,8.4-10.92,14.28-14.28,2.52-1.51,5.21-2.69,8.06-3.53,3.7-1.18,7.56-1.85,11.59-1.85v3.69Z"/><path d="M841.4,0V39.13h0v3.69c-.34,2.86-.84,5.54-1.68,8.06-.84,2.86-2.01,5.38-3.53,7.89h-.17c.17,0,.17,.17,.17,.17-3.53,5.88-8.4,10.75-14.28,14.28q-.17,0-.17-.17v24.86c0,4.53-1.51,8.56-4.03,11.92-1.51,2.02-3.53,3.7-5.71,5.04-1.51,.84-3.02,1.51-4.7,2.02-1.34,.33-2.86,.5-4.37,.67h-.84c-3.53,0-6.89-1.01-9.74-2.69-2.35-1.34-4.2-3.02-5.88-5.21-2.35-3.19-3.86-7.22-3.86-11.76v-24.86c-3.02-1.68-5.71-3.7-8.23-6.22-2.35-2.35-4.53-5.04-6.21-8.06-1.34-2.52-2.52-5.21-3.53-8.06-1.01-3.7-1.68-7.56-1.68-11.59h0V0c4.03,0,7.89,.67,11.59,1.68,2.85,.84,5.54,2.18,8.06,3.53,5.88,3.53,10.92,8.4,14.28,14.44l.17,.17c1.34,2.35,2.52,5.04,3.36,7.89,1.18,3.53,1.68,7.39,1.68,11.42h0c0-4.03,.67-7.9,1.85-11.42,.84-2.85,2.02-5.54,3.53-8.06,3.36-6.05,8.4-10.92,14.28-14.44,2.52-1.34,5.21-2.69,8.06-3.53,3.7-1.01,7.56-1.68,11.59-1.68Zm-39.3,116.73v0Z"/><circle cx="853.01" cy="106.26" r="11.64"/></g></g></svg>