<?xml version="1.0" encoding="UTF-8"?><svg id="Layer_2" xmlns="http://www.w3.org/2000/svg" viewBox="0 0 883.83 551"><defs><style>.cls-1{fill:none;stroke:#000;stroke-miterlimit:10;}</style></defs><g id="Layer_1-2"><g><g><g><path d="M118.39,78.43c0,6.85,3.55,12.87,8.91,16.33,6.45,4.16,10.51,11.13,10.51,18.8v1.05c0,12.19-9.88,22.07-22.07,22.07h-1.05c-7.67,0-14.65-4.06-18.8-10.51-3.46-5.36-9.48-8.91-16.33-8.91s-12.87,3.55-16.33,8.91c-4.16,6.45-11.13,10.51-18.8,10.51h-1.05c-12.19,0-22.07-9.88-22.07-22.07v-1.05c0-7.67,4.06-14.65,10.51-18.8,5.36-3.46,8.91-9.48,8.91-16.33s-3.55-12.87-8.91-16.33c-6.39-4.12-10.45-11.02-10.51-18.62v-1.23c0-12.19,9.88-22.07,22.07-22.07h1.19c7.61,.05,14.53,4.1,18.66,10.51,3.46,5.36,9.48,8.91,16.33,8.91s12.87-3.55,16.33-8.91c4.16-6.45,11.13-10.51,18.8-10.51h1.05c12.19,0,22.07,9.88,22.07,22.07v1.23c-.06,7.6-4.12,14.5-10.51,18.62-5.36,3.46-8.91,9.48-8.91,16.33Z"/><path d="M115.74,143.8H43.38c-12.19,0-22.07,9.88-22.07,22.07v72.36c0,12.19,9.88,22.07,22.07,22.07H115.74c12.19,0,22.07-9.88,22.07-22.07v-72.36c0-12.19-9.88-22.07-22.07-22.07Zm-36.18,77.67c-10.72,0-19.42-8.69-19.42-19.42s8.69-19.42,19.42-19.42,19.42,8.69,19.42,19.42-8.69,19.42-19.42,19.42Z"/><rect class="cls-1" x=".5" y=".5" width="425" height="550"/></g><circle cx="385.89" cy="509.23" r="19.42"/></g><g><rect class="cls-1" x="458.33" y=".5" width="425" height="550"/><path d="M664,507.12c0,2.04,1.05,3.82,2.64,4.85,1.91,1.23,3.12,3.31,3.12,5.58v.31c0,3.62-2.93,6.55-6.55,6.55h-.31c-2.28,0-4.35-1.21-5.58-3.12-1.03-1.59-2.81-2.64-4.85-2.64s-3.82,1.05-4.85,2.64c-1.23,1.91-3.31,3.12-5.58,3.12h-.31c-3.62,0-6.55-2.93-6.55-6.55v-.31c0-2.28,1.21-4.35,3.12-5.58,1.59-1.03,2.64-2.81,2.64-4.85s-1.05-3.82-2.64-4.85c-1.9-1.22-3.1-3.27-3.12-5.53v-.37c0-3.62,2.93-6.55,6.55-6.55h.35c2.26,.02,4.31,1.22,5.54,3.12,1.03,1.59,2.81,2.64,4.85,2.64s3.82-1.05,4.85-2.64c1.23-1.91,3.31-3.12,5.58-3.12h.31c3.62,0,6.55,2.93,6.55,6.55v.37c-.02,2.26-1.22,4.31-3.12,5.53-1.59,1.03-2.64,2.82-2.64,4.85Z"/><path d="M699.93,490.01h-21.49c-3.62,0-6.55,2.93-6.55,6.55v21.49c0,3.62,2.93,6.55,6.55,6.55h21.49c3.62,0,6.55-2.93,6.55-6.55v-21.49c0-3.62-2.93-6.55-6.55-6.55Zm-10.74,23.06c-3.18,0-5.77-2.58-5.77-5.77s2.58-5.77,5.77-5.77,5.77,2.58,5.77,5.77-2.58,5.77-5.77,5.77Z"/></g></g></g></svg>