<?xml version="1.0" encoding="UTF-8"?><svg id="Layer_2" xmlns="http://www.w3.org/2000/svg" viewBox="0 0 684.72 356.4"><defs><style>.cls-1{fill:#adadad;}</style></defs><g id="Layer_1-2"><g><path d="M143.82,287.64c0-6.06-3.14-11.4-7.88-14.46-5.66-3.65-9.25-9.76-9.31-16.48v-1.09c0-10.79,8.75-19.54,19.54-19.54h1.05c6.74,.05,12.86,3.63,16.52,9.31,3.06,4.74,8.39,7.88,14.46,7.88s11.4-3.14,14.46-7.88c3.68-5.71,9.86-9.31,16.65-9.31h.93c10.79,0,19.54,8.75,19.54,19.54v1.09c-.06,6.73-3.64,12.83-9.31,16.48-4.74,3.06-7.88,8.39-7.88,14.46s3.14,11.4,7.88,14.46c5.71,3.68,9.31,9.86,9.31,16.65v.93c0,10.79-8.75,19.54-19.54,19.54h-.93c-6.79,0-12.97-3.6-16.65-9.31-3.06-4.74-8.39-7.88-14.46-7.88s-11.4,3.14-14.46,7.88c-3.68,5.71-9.86,9.31-16.65,9.31h-.93c-10.79,0-19.54-8.75-19.54-19.54v-.93c0-6.79,3.6-12.97,9.31-16.65,4.74-3.06,7.88-8.39,7.88-14.46Z"/><path d="M34.38,287.64c0-6.06-3.14-11.4-7.88-14.46-5.66-3.65-9.25-9.76-9.31-16.48v-1.09c0-10.79,8.75-19.54,19.54-19.54h1.05c7.48,0,11.43-1.15,16.59-6.3,4.77-4.77,6.11-10.03,13.08-10.79,.1-.01,.19-.02,.29-.03,.38-.03,.78-.05,1.2-.06,0,0,.02,0,.03,0s.02,0,.03,0c.07,0,.13,0,.2,0,8.17,.2,9.36,5.82,14.42,10.88,5.08,5.08,8.98,6.27,16.24,6.3h.93c10.79,0,19.54,8.75,19.54,19.54v1.09c0,7.48,1.15,11.43,6.3,16.59,4.75,4.75,9.99,6.1,10.78,13.01,0,.01,0,.03,0,.04,.05,.49,.09,1,.09,1.55,0,0,0,.01,0,.01,0,0,0,.01,0,.02v.05s0,.07,0,.11c-.19,8.19-5.81,9.39-10.88,14.46-5.16,5.16-6.3,9.1-6.3,16.59v.54c0,10.79-8.75,19.54-19.54,19.54h-.53c-7.48,0-11.43,1.15-16.58,6.3-5.07,5.07-6.26,10.7-14.47,10.88-.03,0-.07,0-.11,0h-.05s-.01,0-.02,0c0,0-.01,0-.02,0-.57,0-1.11-.04-1.62-.1-6.88-.8-8.23-6.03-12.97-10.78-5.16-5.16-9.1-6.3-16.58-6.3h-1.11c-10.79,0-19.54-8.75-19.54-19.54v-.93c0-6.79,3.6-12.97,9.31-16.65,4.74-3.06,7.88-8.39,7.88-14.46Z"/><path d="M229.77,36.73v1.09c0,7.48,1.15,11.43,6.3,16.59,4.75,4.75,9.99,6.1,10.78,13.01,0,.01,0,.03,0,.04,.05,.49,.09,1,.09,1.55,0,0,0,.01,0,.01,0,0,0,.01,0,.02v.05s0,.07,0,.11c-.19,8.19-5.81,9.39-10.88,14.46-5.16,5.16-6.3,9.1-6.3,16.59v.54c0,10.79-8.75,19.54-19.54,19.54h-.93c-6.79,0-12.97-3.6-16.65-9.31-3.06-4.74-8.39-7.88-14.46-7.88s-11.4,3.14-14.46,7.88c-3.68,5.71-9.86,9.31-16.65,9.31h-.93c-10.79,0-19.54-8.75-19.54-19.54v-.54c0-7.48-1.15-11.43-6.3-16.59-5.07-5.07-10.69-6.26-10.88-14.46,0-.04,0-.08,0-.11v-.05s0-.01,0-.02c0,0,0,0,0-.01,0-.55,.04-1.07,.09-1.55,0-.01,0-.03,0-.04,.79-6.91,6.03-8.26,10.78-13.01,5.16-5.16,6.3-9.1,6.3-16.59v-1.09c0-10.79,8.75-19.54,19.54-19.54h1.05c6.74,.05,12.86,3.63,16.52,9.31,3.06,4.74,8.39,7.88,14.46,7.88s11.4-3.14,14.46-7.88c3.68-5.71,9.86-9.31,16.65-9.31h.93c10.79,0,19.54,8.75,19.54,19.54Z"/><path d="M34.38,68.76c0-6.06-3.14-11.4-7.88-14.46-5.66-3.65-9.25-9.76-9.31-16.48v-1.09c0-10.79,8.75-19.54,19.54-19.54h1.05c7.48,0,11.43-1.15,16.59-6.3C59.14,6.12,60.48,.86,67.45,.1c.1-.01,.19-.02,.29-.03,.38-.03,.78-.05,1.2-.06,0,0,.02,0,.03,0s.02,0,.03,0c.07,0,.13,0,.2,0,8.17,.2,9.36,5.82,14.42,10.88,5.08,5.08,8.98,6.27,16.24,6.3h.93c10.79,0,19.54,8.75,19.54,19.54v1.09c-.06,6.73-3.64,12.83-9.31,16.48-4.74,3.06-7.88,8.39-7.88,14.46s3.14,11.4,7.88,14.46c5.71,3.68,9.31,9.86,9.31,16.65v.93c0,10.79-8.75,19.54-19.54,19.54h-.53c-7.48,0-11.43,1.15-16.58,6.3-5.07,5.07-6.26,10.7-14.47,10.88-.03,0-.07,0-.11,0h-.05s-.01,0-.02,0c0,0-.01,0-.02,0-.57,0-1.11-.04-1.62-.1-6.88-.8-8.23-6.03-12.97-10.78-5.16-5.16-9.1-6.3-16.58-6.3h-1.11c-10.79,0-19.54-8.75-19.54-19.54v-.93c0-6.79,3.6-12.97,9.31-16.65,4.74-3.06,7.88-8.39,7.88-14.46Z"/><path d="M143.82,178.2c0-6.06-3.14-11.4-7.88-14.46-5.66-3.65-9.25-9.76-9.31-16.48v-1.09c0-10.79,8.75-19.54,19.54-19.54h1.05c7.48,0,11.43-1.15,16.59-6.3,4.77-4.77,6.11-10.03,13.08-10.79,.1-.01,.19-.02,.29-.03,.38-.03,.78-.05,1.2-.06,0,0,.02,0,.03,0s.02,0,.03,0c.07,0,.13,0,.2,0,8.17,.2,9.36,5.82,14.42,10.88,5.08,5.08,8.98,6.27,16.24,6.3h.93c10.79,0,19.54,8.75,19.54,19.54v1.09c0,7.48,1.15,11.43,6.3,16.59,4.75,4.75,9.99,6.1,10.78,13.01,0,.01,0,.03,0,.04,.05,.49,.09,1,.09,1.55,0,0,0,.01,0,.01,0,0,0,.01,0,.02v.05s0,.07,0,.11c-.19,8.19-5.81,9.39-10.88,14.46-5.16,5.16-6.3,9.1-6.3,16.59v.54c0,10.79-8.75,19.54-19.54,19.54h-.53c-7.48,0-11.43,1.15-16.58,6.3-5.07,5.07-6.26,10.7-14.47,10.88-.03,0-.07,0-.11,0h-.05s-.01,0-.02,0c0,0-.01,0-.02,0-.57,0-1.11-.04-1.62-.1-6.88-.8-8.23-6.03-12.97-10.78-5.16-5.16-9.1-6.3-16.58-6.3h-1.11c-10.79,0-19.54-8.75-19.54-19.54v-.93c0-6.79,3.6-12.97,9.31-16.65,4.74-3.06,7.88-8.39,7.88-14.46Z"/><path d="M0,178.53v-.05s0-.01,0-.02c0,0,0,0,0-.01,0-.55,.04-1.07,.09-1.55,0-.01,0-.03,0-.04,.79-6.91,6.03-8.26,10.78-13.01,5.16-5.16,6.3-9.1,6.3-16.59v-1.09c0-10.79,8.75-19.54,19.54-19.54h1.05c6.74,.05,12.86,3.63,16.52,9.31,3.06,4.74,8.39,7.88,14.46,7.88s11.4-3.14,14.46-7.88c3.68-5.71,9.86-9.31,16.65-9.31h.93c10.79,0,19.54,8.75,19.54,19.54v1.09c0,7.48,1.15,11.43,6.3,16.59,4.75,4.75,9.99,6.1,10.78,13.01,0,.01,0,.03,0,.04,.05,.49,.09,1,.09,1.55,0,0,0,.01,0,.01,0,0,0,.01,0,.02v.05s0,.07,0,.11c-.19,8.19-5.81,9.39-10.88,14.46-5.16,5.16-6.3,9.1-6.3,16.59v.54c0,10.79-8.75,19.54-19.54,19.54h-.93c-6.79,0-12.97-3.6-16.65-9.31-3.06-4.74-8.39-7.88-14.46-7.88s-11.4,3.14-14.46,7.88c-3.68,5.71-9.86,9.31-16.65,9.31h-.93c-10.79,0-19.54-8.75-19.54-19.54v-.54c0-7.48-1.15-11.43-6.3-16.59C5.82,188.03,.2,186.83,.01,178.64c0-.04,0-.08,0-.11Z"/><path d="M236.07,319.67v-.54c0-7.48-1.15-11.43-6.3-16.59-5.07-5.07-10.69-6.26-10.88-14.46,0-.04,0-.08,0-.11v-.05s0-.01,0-.02c0,0,0,0,0-.01,0-.55,.04-1.07,.09-1.55,0-.01,0-.03,0-.04,.79-6.91,6.03-8.26,10.78-13.01,5.16-5.16,6.3-9.1,6.3-16.59v-1.09c0-10.79,8.75-19.54,19.54-19.54h1.05c7.48,0,11.43-1.15,16.59-6.3,4.77-4.77,6.11-10.03,13.08-10.79,.1-.01,.19-.02,.29-.03,.38-.03,.78-.05,1.2-.06,0,0,.02,0,.03,0s.02,0,.03,0c.07,0,.13,0,.2,0,8.17,.2,9.36,5.82,14.42,10.88,5.08,5.08,8.98,6.27,16.24,6.3h.93c10.79,0,19.54,8.75,19.54,19.54v1.09c-.06,6.73-3.64,12.83-9.31,16.48-4.74,3.06-7.88,8.39-7.88,14.46s3.14,11.4,7.88,14.46c5.71,3.68,9.31,9.86,9.31,16.65v.93c0,10.79-8.75,19.54-19.54,19.54h-.93c-6.79,0-12.97-3.6-16.65-9.31-3.06-4.74-8.39-7.88-14.46-7.88s-11.4,3.14-14.46,7.88c-3.68,5.71-9.86,9.31-16.65,9.31h-.93c-10.79,0-19.54-8.75-19.54-19.54Z"/><path d="M540.9,68.76c0,6.07,3.14,11.4,7.88,14.46,5.71,3.68,9.31,9.86,9.31,16.65v.93c0,10.79-8.75,19.54-19.54,19.54h-.93c-6.79,0-12.97-3.6-16.65-9.31-3.06-4.74-8.39-7.88-14.46-7.88s-11.4,3.14-14.46,7.88c-3.68,5.71-9.86,9.31-16.65,9.31h-.93c-10.79,0-19.54-8.75-19.54-19.54v-.54c0-7.48-1.15-11.43-6.3-16.59-5.07-5.07-10.69-6.26-10.88-14.46,0-.04,0-.08,0-.11v-.05s0-.01,0-.02c0,0,0,0,0-.01,0-.55,.04-1.07,.09-1.55,0-.01,0-.03,0-.04,.79-6.91,6.03-8.26,10.78-13.01,5.16-5.16,6.3-9.1,6.3-16.59v-1.09c0-10.79,8.75-19.54,19.54-19.54h1.05c6.74,.05,12.86,3.63,16.52,9.31,3.06,4.74,8.39,7.88,14.46,7.88s11.4-3.14,14.46-7.88c3.68-5.71,9.86-9.31,16.65-9.31h.93c10.79,0,19.54,8.75,19.54,19.54v1.09c-.06,6.73-3.64,12.83-9.31,16.48-4.74,3.06-7.88,8.39-7.88,14.46Z"/><path d="M540.9,178.2c0,6.07,3.14,11.4,7.88,14.46,5.71,3.68,9.31,9.86,9.31,16.65v.93c0,10.79-8.75,19.54-19.54,19.54h-.93c-6.79,0-12.97-3.6-16.65-9.31-3.06-4.74-8.39-7.88-14.46-7.88s-11.4,3.14-14.46,7.88c-3.68,5.71-9.86,9.31-16.65,9.31h-.93c-10.79,0-19.54-8.75-19.54-19.54v-.93c0-6.79,3.6-12.97,9.31-16.65,4.74-3.06,7.88-8.39,7.88-14.46s-3.14-11.4-7.88-14.46c-5.66-3.65-9.25-9.76-9.31-16.48v-1.09c0-10.79,8.75-19.54,19.54-19.54h1.05c7.48,0,11.43-1.15,16.59-6.3,4.77-4.77,6.11-10.03,13.08-10.79,.1-.01,.19-.02,.29-.03,.38-.03,.78-.05,1.2-.06,0,0,.02,0,.03,0s.02,0,.03,0c.07,0,.13,0,.2,0,8.17,.2,9.36,5.82,14.42,10.88,5.08,5.08,8.98,6.27,16.24,6.3h.93c10.79,0,19.54,8.75,19.54,19.54v1.09c-.06,6.73-3.64,12.83-9.31,16.48-4.74,3.06-7.88,8.39-7.88,14.46Z"/><path d="M667.53,319.67c0,10.79-8.75,19.54-19.54,19.54h-.93c-6.79,0-12.97-3.6-16.65-9.31-3.06-4.74-8.39-7.88-14.46-7.88s-11.4,3.14-14.46,7.88c-3.68,5.71-9.86,9.31-16.65,9.31h-.93c-10.79,0-19.54-8.75-19.54-19.54v-.54c0-7.48-1.15-11.43-6.3-16.59-5.07-5.07-10.69-6.26-10.88-14.46,0-.04,0-.08,0-.11v-.05s0-.01,0-.02c0,0,0,0,0-.01,0-.55,.04-1.07,.09-1.55,0-.01,0-.03,0-.04,.79-6.91,6.03-8.26,10.78-13.01,5.16-5.16,6.3-9.1,6.3-16.59v-1.09c0-10.79,8.75-19.54,19.54-19.54h1.05c7.48,0,11.43-1.15,16.59-6.3,4.77-4.77,6.11-10.03,13.08-10.79,.1-.01,.19-.02,.29-.03,.38-.03,.79-.05,1.2-.06,0,0,.02,0,.03,0s.02,0,.03,0c.07,0,.13,0,.2,0,8.17,.2,9.36,5.82,14.42,10.88,5.08,5.08,8.98,6.27,16.24,6.3h.93c10.79,0,19.54,8.75,19.54,19.54v1.09c0,7.48,1.15,11.43,6.3,16.59,4.75,4.75,9.99,6.1,10.78,13.01,0,.01,0,.03,0,.04,.05,.49,.09,1,.09,1.55,0,0,0,.01,0,.01,0,0,0,.01,0,.02v.05s0,.07,0,.11c-.19,8.19-5.81,9.39-10.88,14.46-5.16,5.16-6.3,9.1-6.3,16.59v.54Z"/><path d="M650.34,178.2c0,6.07,3.14,11.4,7.88,14.46,5.71,3.68,9.31,9.86,9.31,16.65v.93c0,10.79-8.75,19.54-19.54,19.54h-.93c-6.79,0-12.97-3.6-16.65-9.31-3.06-4.74-8.39-7.88-14.46-7.88s-11.4,3.14-14.46,7.88c-3.68,5.71-9.86,9.31-16.65,9.31h-.93c-10.79,0-19.54-8.75-19.54-19.54v-.54c0-7.48-1.15-11.43-6.3-16.59-5.07-5.07-10.69-6.26-10.88-14.46,0-.04,0-.08,0-.11v-.05s0-.01,0-.02c0,0,0,0,0-.01,0-.55,.04-1.07,.09-1.55,0-.01,0-.03,0-.04,.79-6.91,6.03-8.26,10.78-13.01,5.16-5.16,6.3-9.1,6.3-16.59v-1.09c0-10.79,8.75-19.54,19.54-19.54h1.05c7.48,0,11.43-1.15,16.59-6.3,4.77-4.77,6.11-10.03,13.08-10.79,.1-.01,.19-.02,.29-.03,.38-.03,.79-.05,1.2-.06,0,0,.02,0,.03,0s.02,0,.03,0c.07,0,.13,0,.2,0,8.17,.2,9.36,5.82,14.42,10.88,5.08,5.08,8.98,6.27,16.24,6.3h.93c10.79,0,19.54,8.75,19.54,19.54v1.09c-.06,6.73-3.64,12.83-9.31,16.48-4.74,3.06-7.88,8.39-7.88,14.46Z"/><path d="M540.9,287.64c0,6.07,3.14,11.4,7.88,14.46,5.71,3.68,9.31,9.86,9.31,16.65v.93c0,10.79-8.75,19.54-19.54,19.54h-.53c-7.48,0-11.43,1.15-16.58,6.3-5.07,5.07-6.26,10.7-14.47,10.88-.03,0-.07,0-.11,0h-.05s-.01,0-.02,0c0,0-.01,0-.02,0-.57,0-1.11-.04-1.62-.1-6.88-.8-8.23-6.03-12.97-10.78-5.16-5.16-9.1-6.3-16.58-6.3h-1.11c-10.79,0-19.54-8.75-19.54-19.54v-.54c0-7.48-1.15-11.43-6.3-16.59-5.07-5.07-10.69-6.26-10.88-14.46,0-.04,0-.08,0-.11v-.05s0-.01,0-.02c0,0,0,0,0-.01,0-.55,.04-1.07,.09-1.55,0-.01,0-.03,0-.04,.79-6.91,6.03-8.26,10.78-13.01,5.16-5.16,6.3-9.1,6.3-16.59v-1.09c0-10.79,8.75-19.54,19.54-19.54h1.05c7.48,0,11.43-1.15,16.59-6.3,4.77-4.77,6.11-10.03,13.08-10.79,.1-.01,.19-.02,.29-.03,.38-.03,.78-.05,1.2-.06,0,0,.02,0,.03,0s.02,0,.03,0c.07,0,.13,0,.2,0,8.17,.2,9.36,5.82,14.42,10.88,5.08,5.08,8.98,6.27,16.24,6.3h.93c10.79,0,19.54,8.75,19.54,19.54v1.09c-.06,6.73-3.64,12.83-9.31,16.48-4.74,3.06-7.88,8.39-7.88,14.46Z"/><path d="M650.34,68.76c0,6.07,3.14,11.4,7.88,14.46,5.71,3.68,9.31,9.86,9.31,16.65v.93c0,10.79-8.75,19.54-19.54,19.54h-.93c-6.79,0-12.97-3.6-16.65-9.31-3.06-4.74-8.39-7.88-14.46-7.88s-11.4,3.14-14.46,7.88c-3.68,5.71-9.86,9.31-16.65,9.31h-.93c-10.79,0-19.54-8.75-19.54-19.54v-.54c0-7.48-1.15-11.43-6.3-16.59-5.07-5.07-10.69-6.26-10.88-14.46,0-.04,0-.08,0-.11v-.05s0-.01,0-.02c0,0,0,0,0-.01,0-.55,.04-1.07,.09-1.55,0-.01,0-.03,0-.04,.79-6.91,6.03-8.26,10.78-13.01,5.16-5.16,6.3-9.1,6.3-16.59v-1.09c0-10.79,8.75-19.54,19.54-19.54h1.05c7.48,0,11.43-1.15,16.59-6.3,4.77-4.77,6.11-10.03,13.08-10.79,.1-.01,.19-.02,.29-.03,.38-.03,.79-.05,1.2-.06,0,0,.02,0,.03,0s.02,0,.03,0c.07,0,.13,0,.2,0,8.17,.2,9.36,5.82,14.42,10.88,5.08,5.08,8.98,6.27,16.24,6.3h.93c10.79,0,19.54,8.75,19.54,19.54v1.09c-.06,6.73-3.64,12.83-9.31,16.48-4.74,3.06-7.88,8.39-7.88,14.46Z"/><path class="cls-1" d="M321.46,177.72c0,6.03,3.12,11.33,7.84,14.38,5.68,3.66,9.25,9.8,9.25,16.55v.92c0,10.73-8.7,19.43-19.43,19.43h-.92c-6.75,0-12.9-3.58-16.55-9.25-3.04-4.72-8.34-7.84-14.38-7.84s-11.33,3.12-14.38,7.84c-3.66,5.68-9.8,9.25-16.55,9.25h-.92c-10.73,0-19.43-8.7-19.43-19.43v-.92c0-6.75,3.58-12.9,9.25-16.55,4.72-3.04,7.84-8.34,7.84-14.38s-3.12-11.33-7.84-14.38c-5.63-3.63-9.2-9.7-9.25-16.39v-1.08c0-10.73,8.7-19.43,19.43-19.43h1.05c6.7,.05,12.79,3.61,16.43,9.25,3.04,4.72,8.34,7.84,14.38,7.84s11.33-3.12,14.38-7.84c3.66-5.68,9.8-9.25,16.55-9.25h.92c10.73,0,19.43,8.7,19.43,19.43v1.08c-.06,6.69-3.62,12.76-9.25,16.39-4.72,3.04-7.84,8.35-7.84,14.38Z"/><path class="cls-1" d="M427.96,127.01h-63.71c-10.73,0-19.43,8.7-19.43,19.43v63.71c0,10.73,8.7,19.43,19.43,19.43h63.71c10.73,0,19.43-8.7,19.43-19.43v-63.71c0-10.73-8.7-19.43-19.43-19.43Zm-31.85,68.38c-9.44,0-17.09-7.65-17.09-17.09s7.65-17.09,17.09-17.09,17.09,7.65,17.09,17.09-7.65,17.09-17.09,17.09Z"/><path d="M329.71,54.3c5.66-3.65,9.25-9.76,9.31-16.48v-1.09c0-10.79-8.75-19.54-19.54-19.54h-.93c-6.79,0-12.97,3.6-16.65,9.31-3.06,4.74-8.39,7.88-14.46,7.88s-11.4-3.14-14.46-7.88c-3.66-5.67-9.78-9.26-16.52-9.31h-1.05c-10.79,0-19.54,8.75-19.54,19.54v1.09c.06,6.73,3.64,12.83,9.31,16.48,4.74,3.06,7.88,8.39,7.88,14.46s-3.14,11.4-7.88,14.46c-5.71,3.68-9.31,9.86-9.31,16.65v.93c0,10.79,8.75,19.54,19.54,19.54h1.11c7.48,0,11.43,1.15,16.58,6.3,4.74,4.74,6.1,9.98,12.97,10.78,.51,.06,1.05,.1,1.62,.1,0,0,.01,0,.02,0,0,0,.01,0,.02,0h.05s.07,0,.11,0c8.21-.18,9.4-5.8,14.47-10.88s9.1-6.3,16.58-6.3h.53c10.79,0,19.54-8.75,19.54-19.54v-.93c0-6.79-3.6-12.97-9.31-16.65-4.74-3.06-7.88-8.39-7.88-14.46s3.14-11.4,7.88-14.46Z"/><path d="M431.27,68.76c0,6.07,3.14,11.4,7.88,14.46,5.71,3.68,9.31,9.86,9.31,16.65v.93c0,10.79-8.75,19.54-19.54,19.54h-62.95c-.06,0-.11,0-.18,0h-.93c-10.79,0-19.54-8.75-19.54-19.54v-.54c0-7.48-1.15-11.43-6.3-16.59-5.07-5.07-10.69-6.26-10.88-14.46,0-.04,0-.08,0-.11v-.05s0-.01,0-.02c0,0,0,0,0-.01,0-.55,.04-1.07,.09-1.55,0-.01,0-.03,0-.04,.79-6.91,6.03-8.26,10.78-13.01,5.16-5.16,6.3-9.1,6.3-16.59v-1.09c0-10.79,8.75-19.54,19.54-19.54h1.05c7.48,0,11.43-1.15,16.59-6.3,4.77-4.77,6.11-10.03,13.08-10.79,.1-.01,.19-.02,.29-.03,.38-.03,.79-.05,1.2-.06,0,0,.02,0,.03,0s.02,0,.03,0c.07,0,.13,0,.2,0,8.17,.2,9.36,5.82,14.42,10.88,5.08,5.08,8.98,6.27,16.24,6.3h.93c10.79,0,19.54,8.75,19.54,19.54v1.09c-.06,6.73-3.64,12.83-9.31,16.48-4.74,3.06-7.88,8.39-7.88,14.46Z"/><path d="M439.15,273.18c5.66-3.65,9.25-9.76,9.31-16.48v-1.09c0-10.79-8.75-19.54-19.54-19.54h-62.95s-.03,0-.05,0h-1.05c-10.79,0-19.54,8.75-19.54,19.54v1.09c0,7.48-1.15,11.43-6.3,16.59-4.75,4.75-9.99,6.1-10.78,13.01,0,.01,0,.03,0,.04-.05,.49-.09,1-.09,1.55,0,0,0,.01,0,.01,0,0,0,.01,0,.02v.05s0,.07,0,.11c.19,8.19,5.81,9.39,10.88,14.46,5.16,5.16,6.3,9.1,6.3,16.59v.54c0,10.79,8.75,19.54,19.54,19.54h1.11c7.48,0,11.43,1.15,16.58,6.3,4.74,4.74,6.1,9.98,12.97,10.78,.51,.06,1.05,.1,1.62,.1,0,0,.01,0,.02,0,0,0,.01,0,.02,0h.05s.07,0,.11,0c8.21-.18,9.4-5.8,14.47-10.88s9.1-6.3,16.58-6.3h.53c10.79,0,19.54-8.75,19.54-19.54v-.93c0-6.79-3.6-12.97-9.31-16.65-4.74-3.06-7.88-8.39-7.88-14.46s3.14-11.4,7.88-14.46Z"/></g></g></svg>