<?xml version="1.0" encoding="UTF-8"?><svg id="Layer_2" xmlns="http://www.w3.org/2000/svg" viewBox="0 0 735.94 428.77"><defs><style>.cls-1{stroke:#fff;stroke-miterlimit:10;stroke-width:4px;}</style></defs><g id="Layer_1-2"><g><path class="cls-1" d="M182,122c0,10.59,5.48,19.89,13.76,25.23,9.96,6.42,16.24,17.2,16.24,29.05v1.62c0,18.83-15.27,34.1-34.1,34.1h-1.62c-11.85,0-22.63-6.28-29.05-16.24-5.34-8.28-14.64-13.76-25.23-13.76s-19.89,5.48-25.23,13.76c-6.42,9.96-17.2,16.24-29.05,16.24h-1.62c-18.83,0-34.1-15.27-34.1-34.1v-1.62c0-11.85,6.28-22.63,16.24-29.05,8.28-5.34,13.76-14.64,13.76-25.23s-5.48-19.89-13.76-25.23c-9.88-6.37-16.14-17.03-16.24-28.77v-1.9c0-18.83,15.27-34.1,34.1-34.1h1.84c11.76,.08,22.45,6.34,28.83,16.24,5.34,8.28,14.64,13.76,25.23,13.76s19.89-5.48,25.23-13.76c6.42-9.96,17.2-16.24,29.05-16.24h1.62c18.83,0,34.1,15.27,34.1,34.1v1.9c-.1,11.74-6.36,22.4-16.24,28.77-8.28,5.34-13.76,14.65-13.76,25.23Z"/><path class="cls-1" d="M62,122c0,10.59-5.48,19.89-13.76,25.23-9.96,6.42-16.24,17.2-16.24,29.05v.67c0-13.06-2-19.95-11-28.95-8.84-8.84-18.65-10.93-18.98-25.23-.01-.07-.01-.14-.01-.2v-.09s0-.02,0-.03c0,0,0-.01,0-.02,.01-.96,.07-1.86,.16-2.71,0-.02,.01-.05,.01-.07,1.38-12.06,10.53-14.41,18.82-22.7,9-9,11-15.89,11-28.95,.1,11.74,6.36,22.4,16.24,28.77,8.28,5.34,13.76,14.65,13.76,25.23Z"/><path class="cls-1" d="M242,122.45s0,.02,0,.03v.09c0,.06,0,.13-.01,.2-.33,14.3-10.14,16.39-18.98,25.23-9,9-11,15.89-11,28.95v-.67c0-11.85-6.28-22.63-16.24-29.05-8.28-5.34-13.76-14.64-13.76-25.23s5.48-19.89,13.76-25.23c9.88-6.37,16.14-17.03,16.24-28.77,0,13.06,2,19.95,11,28.95,8.29,8.29,17.44,10.64,18.82,22.7,0,.02,.01,.05,.01,.07,.09,.85,.15,1.75,.16,2.71,0,.01,0,.02,0,.02Z"/></g><path class="cls-1" d="M275.17,119.72c-.09,.85-.15,1.75-.16,2.71,0-.14,0-.29,0-.43,0-.78,.06-1.54,.17-2.28Z"/><path class="cls-1" d="M275.01,122.43s0,.03,0,.05c0,.16,0,.31,0,.47v-.95c0,.14,0,.29,0,.43Z"/><g><path class="cls-1" d="M435.79,122c0,10.59,5.48,19.89,13.76,25.23,9.96,6.42,16.24,17.2,16.24,29.05v1.62c0,18.83-15.27,34.1-34.1,34.1h-1.62c-11.85,0-22.63-6.28-29.05-16.24-5.34-8.28-14.64-13.76-25.23-13.76s-19.89,5.48-25.23,13.76c-6.42,9.96-17.2,16.24-29.05,16.24h-1.62c-18.83,0-34.1-15.27-34.1-34.1v-1.62c0-11.85,6.28-22.63,16.24-29.05,8.28-5.34,13.76-14.64,13.76-25.23s-5.48-19.89-13.76-25.23c-9.88-6.37-16.14-17.03-16.24-28.77v-1.9c0-18.83,15.27-34.1,34.1-34.1h1.84c11.76,.08,22.45,6.34,28.83,16.24,5.34,8.28,14.64,13.76,25.23,13.76s19.89-5.48,25.23-13.76c6.42-9.96,17.2-16.24,29.05-16.24h1.62c18.83,0,34.1,15.27,34.1,34.1v1.9c-.1,11.74-6.36,22.4-16.24,28.77-8.28,5.34-13.76,14.65-13.76,25.23Z"/><path class="cls-1" d="M430.07,32c-11.85,0-22.63,6.28-29.05,16.24-5.34,8.28-14.64,13.76-25.23,13.76s-19.89-5.48-25.23-13.76c-6.38-9.9-17.07-16.16-28.83-16.24,13.06,0,19.95-2,28.95-11,8.32-8.32,10.66-17.5,22.83-18.83,.17-.02,.33-.04,.5-.06,.67-.06,1.37-.09,2.1-.1,.01,0,.03-.01,.05-.01s.04,.01,.05,.01c.12,0,.23,0,.35,.01,14.25,.35,16.34,10.15,25.17,18.98,8.86,8.86,15.67,10.94,28.34,11Z"/><path class="cls-1" d="M315.79,122c0,10.59-5.48,19.89-13.76,25.23-9.96,6.42-16.24,17.2-16.24,29.05v.67c0-13.06-2-19.95-11-28.95-8.84-8.84-18.65-10.93-18.98-25.23-.01-.07-.01-.14-.01-.2v-.09s0-.02,0-.03c0,0,0-.01,0-.02,.01-.96,.07-1.86,.16-2.71,0-.02,.01-.05,.01-.07,1.38-12.06,10.53-14.41,18.82-22.7,9-9,11-15.89,11-28.95,.1,11.74,6.36,22.4,16.24,28.77,8.28,5.34,13.76,14.65,13.76,25.23Z"/></g><path class="cls-1" d="M548.17,119.72c-.09,.85-.15,1.75-.16,2.71,0-.14,0-.29,0-.43,0-.78,.06-1.54,.17-2.28Z"/><path class="cls-1" d="M548.01,122.43s0,.03,0,.05c0,.16,0,.31,0,.47v-.95c0,.14,0,.29,0,.43Z"/><path class="cls-1" d="M673.94,122c0,10.59,5.48,19.89,13.76,25.23,9.96,6.42,16.24,17.2,16.24,29.05v1.62c0,18.83-15.27,34.1-34.1,34.1h-1.62c-11.85,0-22.63-6.28-29.05-16.24-5.34-8.28-14.64-13.76-25.23-13.76s-19.89,5.48-25.23,13.76c-6.42,9.96-17.2,16.24-29.05,16.24h-1.62c-18.83,0-34.1-15.27-34.1-34.1v-1.62c0-11.85,6.28-22.63,16.24-29.05,8.28-5.34,13.76-14.64,13.76-25.23s-5.48-19.89-13.76-25.23c-9.88-6.37-16.14-17.03-16.24-28.77v-1.9c0-18.83,15.27-34.1,34.1-34.1h1.84c11.76,.08,22.45,6.34,28.83,16.24,5.34,8.28,14.64,13.76,25.23,13.76s19.89-5.48,25.23-13.76c6.42-9.96,17.2-16.24,29.05-16.24h1.62c18.83,0,34.1,15.27,34.1,34.1v1.9c-.1,11.74-6.36,22.4-16.24,28.77-8.28,5.34-13.76,14.65-13.76,25.23Z"/><path class="cls-1" d="M668.22,32c-11.85,0-22.63,6.28-29.05,16.24-5.34,8.28-14.64,13.76-25.23,13.76s-19.89-5.48-25.23-13.76c-6.38-9.9-17.07-16.16-28.83-16.24,13.06,0,19.95-2,28.95-11,8.32-8.32,10.66-17.5,22.83-18.83,.17-.02,.33-.04,.5-.06,.67-.06,1.37-.09,2.1-.1,.01,0,.03-.01,.05-.01s.04,.01,.05,.01c.12,0,.23,0,.35,.01,14.25,.35,16.34,10.15,25.17,18.98,8.86,8.86,15.67,10.94,28.34,11Z"/><path class="cls-1" d="M553.94,122c0,10.59-5.48,19.89-13.76,25.23-9.96,6.42-16.24,17.2-16.24,29.05v.67c0-13.06-2-19.95-11-28.95-8.84-8.84-18.65-10.93-18.98-25.23-.01-.07-.01-.14-.01-.2v-.09s0-.02,0-.03c0,0,0-.01,0-.02,.01-.96,.07-1.86,.16-2.71,0-.02,.01-.05,.01-.07,1.38-12.06,10.53-14.41,18.82-22.7,9-9,11-15.89,11-28.95,.1,11.74,6.36,22.4,16.24,28.77,8.28,5.34,13.76,14.65,13.76,25.23Z"/><path class="cls-1" d="M733.94,122.45s0,.02,0,.03v.09c0,.06,0,.13-.01,.2-.33,14.3-10.14,16.39-18.98,25.23-9,9-11,15.89-11,28.95v-.67c0-11.85-6.28-22.63-16.24-29.05-8.28-5.34-13.76-14.64-13.76-25.23s5.48-19.89,13.76-25.23c9.88-6.37,16.14-17.03,16.24-28.77,0,13.06,2,19.95,11,28.95,8.29,8.29,17.44,10.64,18.82,22.7,0,.02,.01,.05,.01,.07,.09,.85,.15,1.75,.16,2.71,0,.01,0,.02,0,.02Z"/><path d="M241.83,336.49s-.01-.05-.01-.07c-1.38-12.06-10.53-14.41-18.82-22.7-9-9-11-15.89-11-28.95v-1.9c0-18.83-15.27-34.1-34.1-34.1h-1.62c-11.85,0-22.63,6.28-29.05,16.24-5.34,8.28-14.64,13.76-25.23,13.76s-19.89-5.48-25.23-13.76c-6.38-9.9-17.07-16.16-28.83-16.24h-1.84c-18.83,0-34.1,15.27-34.1,34.1v1.9c0,13.06-2,19.95-11,28.95-8.29,8.29-17.44,10.64-18.82,22.7,0,.02-.01,.05-.01,.07-.09,.85-.15,1.75-.16,2.71,0,0,0,.02,0,.02,0,0,0,.02,0,.03v.09c0,.06,0,.13,.01,.2,.33,14.3,10.14,16.39,18.98,25.23s11,15.89,11,28.95v.95c0,18.83,15.27,34.1,34.1,34.1h1.62c11.85,0,22.63-6.28,29.05-16.24,5.34-8.28,14.64-13.76,25.23-13.76s19.89,5.48,25.23,13.76c6.42,9.96,17.2,16.24,29.05,16.24h1.62c18.83,0,34.1-15.27,34.1-34.1v-.95c0-13.06,2-19.95,11-28.95s18.65-10.93,18.98-25.23c.01-.07,.01-.14,.01-.2v-.09s0-.02,0-.03c0,0,0-.01,0-.02-.01-.96-.07-1.86-.16-2.71Z"/><path d="M431.69,248.77h-1.62c-12.67-.06-19.48-2.14-28.34-11-8.83-8.83-10.92-18.63-25.17-18.98-.12-.01-.23-.01-.35-.01,0,0-.03-.01-.05-.01s-.04,.01-.05,.01c-.73,.01-1.43,.04-2.1,.1-.17,.02-.33,.04-.5,.06-12.17,1.33-14.51,10.51-22.83,18.83-9,9-15.89,11-28.95,11h-1.84c-18.83,0-34.1,15.27-34.1,34.1v1.9c0,13.06-2,19.95-11,28.95-8.29,8.29-17.44,10.64-18.82,22.7,0,.02-.01,.05-.01,.07-.11,.74-.17,1.5-.17,2.28v.95c0-.16,0-.31,0-.47v.09c0,.06,0,.13,.01,.2,.33,14.3,10.14,16.39,18.98,25.23s11,15.89,11,28.95v.95c0,18.83,15.27,34.1,34.1,34.1h1.62c11.85,0,22.63-6.28,29.05-16.24,5.34-8.28,14.64-13.76,25.23-13.76s19.89,5.48,25.23,13.76c6.42,9.96,17.2,16.24,29.05,16.24h1.62c18.83,0,34.1-15.27,34.1-34.1v-1.62c0-11.85-6.28-22.63-16.24-29.05-8.28-5.34-13.76-14.64-13.76-25.23s5.48-19.89,13.76-25.23c9.88-6.37,16.14-17.03,16.24-28.77v-1.9c0-18.83-15.27-34.1-34.1-34.1Z"/><path d="M733.93,339.2c-.01-.96-.07-1.86-.16-2.71,0-.02-.01-.05-.01-.07-1.38-12.06-10.53-14.41-18.82-22.7-9-9-11-15.89-11-28.95v-1.9c0-18.83-15.27-34.1-34.1-34.1h-1.62c-12.67-.06-19.48-2.14-28.34-11-8.83-8.83-10.92-18.63-25.17-18.98-.12-.01-.23-.01-.35-.01,0,0-.03-.01-.05-.01s-.04,.01-.05,.01c-.73,.01-1.43,.04-2.1,.1-.17,.02-.33,.04-.5,.06-12.17,1.33-14.51,10.51-22.83,18.83-9,9-15.89,11-28.95,11h-1.84c-18.83,0-34.1,15.27-34.1,34.1v1.9c0,13.06-2,19.95-11,28.95-8.29,8.29-17.44,10.64-18.82,22.7,0,.02-.01,.05-.01,.07-.11,.74-.17,1.5-.17,2.28v.95c0-.16,0-.31,0-.47v.09c0,.06,0,.13,.01,.2,.33,14.3,10.14,16.39,18.98,25.23s11,15.89,11,28.95v.95c0,18.83,15.27,34.1,34.1,34.1h1.62c11.85,0,22.63-6.28,29.05-16.24,5.34-8.28,14.64-13.76,25.23-13.76s19.89,5.48,25.23,13.76c6.42,9.96,17.2,16.24,29.05,16.24h1.62c18.83,0,34.1-15.27,34.1-34.1v-.95c0-13.06,2-19.95,11-28.95s18.65-10.93,18.98-25.23c.01-.07,.01-.14,.01-.2v-.09s0-.02,0-.03c0,0,0-.01,0-.02Z"/></g></svg>